#N canvas 349 107 956 356 12;
#X obj 766 147 bng 19 250 50 0 empty empty empty -8 -12 0 12 #fcfcfc #000000 #0400fc;
#X obj 766 190 tgl 19 1.04858e+06 empty empty empty -6 -11 0 12 #fcfcfc #000000 #0400fc 0 1;
#X obj 561 118 vu 15 160 empty empty -4 -16 0 12 #202020 #000000 1 0;
#X obj 761 225 cnv 60 100 60 empty empty empty 2 -12 0 12 #dcdcdc #0400fc 1.04858e+06;
#X obj 765 113 nbx 5 18 -1e+37 1e+37 0 0 empty empty empty 1 -13 0 12 #fcfcfc #000000 #0400fc 0 256;
#X text 790 146 Bang Button;
#X text 791 190 Toggle Button;
#X text 837 113 Number Box;
#X text 869 236 Canvas;
#X symbolatom 93 80 10 0 0 0 - - - 0;
#X floatatom 49 80 5 0 0 0 - - - 0;
#X text 549 91 VU Meter;
#X text 632 91 Slider;
#X text 702 91 Radio;
#X listbox 49 108 20 0 0 0 - - - 0;
#X text 172 78 atom boxes;
#X text 198 108 list box;
#X text 43 18 Originally native GUIs:;
#X obj 643 118 vsl 19 162 0 127 0 0 empty empty empty 0 -9 0 12 #fcfcfc #000000 #000000 0 1;
#X obj 712 116 vradio 19 1 0 8 empty empty empty 0 -10 0 12 #fcfcfc #000000 #000000 0;
#X msg 200 145;
#N canvas 0 22 450 278 (subpatch) 0;
#X array array 100 float 2;
#X coords 0 1 100 -1 200 140 1 0 0;
#X restore 286 77 graph;
#N canvas 257 74 450 278 (subpatch) 0;
#X text 28 15 A 'Graph' is used to display all GUIS \, including comments \, in which case can also be considered a kind of GUI for notes and GUIdance, f 20;
#X coords 0 1 100 -1 200 140 1 0 0;
#X restore 39 199 graph;
#X text 545 26 "iemGUIs" (objects from the "iemguis" external library \, natively included in Pd version 0.34):, f 48;
#X text 49 51 GUI boxes:, f 10;
#X text 45 144 Clickabe message box;
#X text 293 12 you can click and change values of arrays., f 24;
#X text 279 231 Arrays are actually 'Data Structures' \, and you can use Pd's Data Structures facilities to implement GUIs as well. For more details please refer to the 4.Data.Structure section of the Pd's tutorials., f 32;
