#N struct append-template float x float y float z;
#N canvas 613 30 616 614 12;
#X obj 252 291 pointer;
#X floatatom 91 256 5 0 150 0 - - - 0;
#X text 260 245 go to (and output) "head" of the list;
#X obj 157 503 pointer;
#X floatatom 79 449 5 0 250 0 - - - 0;
#X obj 79 506 append;
#X text 151 433 click on these messages first:;
#X text 428 305 click to clear:;
#X obj 361 305 loadbang;
#X text 27 568 see also:;
#X obj 102 582 get;
#X obj 134 582 set;
#X obj 166 556 getsize;
#X obj 227 556 setsize;
#X obj 219 582 element;
#X obj 167 582 scalar;
#X obj 24 11 append;
#X obj 102 556 pointer;
#X text 386 569 updated for Pd version 0.47;
#X text 526 10 <= click;
#N canvas 722 149 575 343 reference 0;
#X obj 8 46 cnv 5 550 5 empty empty INLETS: 8 18 0 13 #202020 #000000
0;
#X obj 7 79 cnv 1 550 1 empty empty 1st: 8 12 0 13 #9f9f9f #000000
0;
#X obj 8 211 cnv 2 550 2 empty empty OUTLET: 8 12 0 13 #202020 #000000
0;
#X obj 8 247 cnv 2 550 2 empty empty ARGUMENTS: 8 12 0 13 #202020 #000000
0;
#X obj 7 317 cnv 5 550 5 empty empty empty 8 18 0 13 #202020 #000000
0;
#X obj 7 144 cnv 1 550 1 empty empty 'n': 8 12 0 13 #7c7c7c #000000
0;
#X obj 34 16 append;
#X text 89 15 - add an item to a Data Structure list.;
#X text 56 86 set <symbol \, symbol> -;
#X obj 7 175 cnv 1 550 1 empty empty rightmost: 8 12 0 13 #7c7c7c #000000
0;
#X text 121 276 2) list -;
#X text 81 55 (arguments set 'n' fields and creates an inlet for each)
;
#X text 108 256 1) symbol - set template name., f 58;
#X text 192 276 set field names and create an inlet for each (one inlet
is created by default)., f 45;
#X text 217 86 if none or just one field is given \, you can use 'set'
to set a struct name and field., f 43;
#X text 161 120 float - set field value and append a new item.;
#X text 161 150 float - set field value.;
#X text 117 183 pointer - a pointer to a scalar or head of list to
append to., f 61;
#X text 117 219 pointer - a pointer to added item in the Data Structure
list., f 61;
#X restore 432 10 pd reference;
#X obj 7 44 cnv 1 600 1 empty empty empty 8 12 0 13 #000000 #000000
0;
#X text 78 10 - add an item to a Data Structure list;
#X msg 361 332 \; pd-append-data clear;
#X msg 157 479 traverse pd-append-data \, bang;
#X obj 59 319 append append-template x y z;
#X msg 252 267 traverse pd-append-data \, bang;
#X text 170 253 click this first --->, f 10;
#X obj 91 283 t f f;
#X msg 156 454 set append-template x;
#X text 50 303 x;
#X text 113 301 y;
#X text 187 300 z;
#X text 15 170 To append objects \, send numbers to set the field values.
The leftmost inlet is the "hot" that adds the item. The [append]'s
pointer is updated to point to the newly added scalar and the new pointer
is output via the outlet. To insert to the beginning of a list \, you
can point to the "head" of the list as below., f 82;
#X text 50 384 If there are no field arguments or just one specified
field \, you can use a "set" message to set both the template and field.
, f 69;
#X text 15 52 The [append] object adds an item to a Data Structure
list. It needs a pointer to a scalar or an empty pointer to the head
of a list set via the rightmost inlet so it can append an item. The
creation arguments specify the template of a new scalar to append and
its field name(s) you wish to initialize. There should be at least
one field name and each field name creates a corresponding inlet. The
inlets can only take floats \, so field variables can only take numeric
values. If you need to set other field values you need other objects
to set these parameters after you add the item., f 82;
#X obj 10 541 cnv 1 600 1 empty empty empty 8 12 0 13 #000000 #000000
0;
#X text 33 255 add -->;
#N canvas 265 164 338 297 append-data 1;
#X scalar append-template 153 0 0 \;;
#X scalar append-template 155 0 0 \;;
#X scalar append-template 156 0 0 \;;
#X scalar append-template 159 0 0 \;;
#X scalar append-template 161 0 0 \;;
#X scalar append-template 165 0 0 \;;
#X scalar append-template 176 0 0 \;;
#X scalar append-template 189 0 0 \;;
#X scalar append-template 196 0 0 \;;
#X scalar append-template 199 0 0 \;;
#X scalar append-template 207 0 0 \;;
#X scalar append-template 213 0 0 \;;
#X scalar append-template 219 0 0 \;;
#X scalar append-template 225 0 0 \;;
#X scalar append-template 230 0 0 \;;
#X scalar append-template 235 0 0 \;;
#X scalar append-template 240 0 0 \;;
#X scalar append-template 244 0 0 \;;
#X scalar append-template 249 0 0 \;;
#X scalar append-template 250 0 0 \;;
#X scalar append-template 250 0 0 \;;
#X scalar append-template 250 0 0 \;;
#X scalar append-template 250 0 0 \;;
#X scalar append-template 250 0 0 \;;
#X scalar append-template 250 0 0 \;;
#X scalar append-template 250 0 0 \;;
#X scalar append-template 250 0 0 \;;
#X scalar append-template 250 0 0 \;;
#X scalar append-template 250 0 0 \;;
#X scalar append-template 250 0 0 \;;
#X scalar append-template 250 0 0 \;;
#X scalar append-template 246 0 0 \;;
#X scalar append-template 243 0 0 \;;
#X scalar append-template 240 0 0 \;;
#X scalar append-template 236 0 0 \;;
#X scalar append-template 225 0 0 \;;
#X scalar append-template 217 0 0 \;;
#X scalar append-template 198 0 0 \;;
#X scalar append-template 189 0 0 \;;
#X scalar append-template 179 0 0 \;;
#X scalar append-template 160 0 0 \;;
#X scalar append-template 140 0 0 \;;
#X scalar append-template 127 0 0 \;;
#X scalar append-template 111 0 0 \;;
#X scalar append-template 103 0 0 \;;
#X scalar append-template 85 0 0 \;;
#X scalar append-template 74 0 0 \;;
#X scalar append-template 59 0 0 \;;
#X scalar append-template 48 0 0 \;;
#X scalar append-template 38 0 0 \;;
#X scalar append-template 29 0 0 \;;
#X scalar append-template 26 0 0 \;;
#X scalar append-template 22 0 0 \;;
#X scalar append-template 19 0 0 \;;
#X scalar append-template 15 0 0 \;;
#X scalar append-template 12 0 0 \;;
#X scalar append-template 8 0 0 \;;
#X scalar append-template 5 0 0 \;;
#X scalar append-template 2 0 0 \;;
#X scalar append-template 0 0 0 \;;
#X scalar append-template 0 0 0 \;;
#X scalar append-template 0 0 0 \;;
#X scalar append-template 0 0 0 \;;
#X scalar append-template 0 0 0 \;;
#X scalar append-template 0 0 0 \;;
#X scalar append-template 0 0 0 \;;
#X scalar append-template 1 0 0 \;;
#X scalar append-template 2 0 0 \;;
#X scalar append-template 4 0 0 \;;
#X scalar append-template 8 0 0 \;;
#X scalar append-template 10 0 0 \;;
#X scalar append-template 12 0 0 \;;
#X scalar append-template 16 0 0 \;;
#X scalar append-template 20 0 0 \;;
#X scalar append-template 28 0 0 \;;
#X scalar append-template 31 0 0 \;;
#X scalar append-template 40 0 0 \;;
#X scalar append-template 46 0 0 \;;
#X scalar append-template 62 0 0 \;;
#X scalar append-template 72 0 0 \;;
#X scalar append-template 84 0 0 \;;
#X scalar append-template 117 0 0 \;;
#X scalar append-template 132 0 0 \;;
#X scalar append-template 141 0 0 \;;
#X scalar append-template 171 0 0 \;;
#X scalar append-template 199 0 0 \;;
#X scalar append-template 212 0 0 \;;
#X scalar append-template 223 0 0 \;;
#X scalar append-template 234 0 0 \;;
#X scalar append-template 245 0 0 \;;
#X scalar append-template 250 0 0 \;;
#X scalar append-template 250 0 0 \;;
#X scalar append-template 250 0 0 \;;
#X scalar append-template 250 0 0 \;;
#X scalar append-template 250 0 0 \;;
#X scalar append-template 250 0 0 \;;
#X scalar append-template 250 0 0 \;;
#X scalar append-template 250 0 0 \;;
#X scalar append-template 250 0 0 \;;
#X scalar append-template 249 0 0 \;;
#X scalar append-template 248 0 0 \;;
#X scalar append-template 247 0 0 \;;
#X scalar append-template 245 0 0 \;;
#X scalar append-template 244 0 0 \;;
#X scalar append-template 243 0 0 \;;
#X scalar append-template 241 0 0 \;;
#X scalar append-template 238 0 0 \;;
#X scalar append-template 237 0 0 \;;
#X scalar append-template 233 0 0 \;;
#X scalar append-template 231 0 0 \;;
#X scalar append-template 230 0 0 \;;
#X scalar append-template 227 0 0 \;;
#X scalar append-template 225 0 0 \;;
#X scalar append-template 224 0 0 \;;
#X scalar append-template 223 0 0 \;;
#X scalar append-template 222 0 0 \;;
#X scalar append-template 221 0 0 \;;
#X scalar append-template 220 0 0 \;;
#X scalar append-template 219 0 0 \;;
#X scalar append-template 142 142 142 \;;
#X scalar append-template 139 139 139 \;;
#X scalar append-template 133 133 133 \;;
#X scalar append-template 131 131 131 \;;
#X scalar append-template 124 124 124 \;;
#X scalar append-template 119 119 119 \;;
#X scalar append-template 118 118 118 \;;
#X scalar append-template 115 115 115 \;;
#X scalar append-template 113 113 113 \;;
#X scalar append-template 111 111 111 \;;
#X scalar append-template 110 110 110 \;;
#X scalar append-template 109 109 109 \;;
#X scalar append-template 108 108 108 \;;
#X scalar append-template 107 107 107 \;;
#X scalar append-template 106 106 106 \;;
#X scalar append-template 105 105 105 \;;
#X scalar append-template 104 104 104 \;;
#X scalar append-template 102 102 102 \;;
#X scalar append-template 98 98 98 \;;
#X scalar append-template 92 92 92 \;;
#X scalar append-template 87 87 87 \;;
#X scalar append-template 81 81 81 \;;
#X scalar append-template 74 74 74 \;;
#X scalar append-template 66 66 66 \;;
#X scalar append-template 58 58 58 \;;
#X scalar append-template 55 55 55 \;;
#X scalar append-template 39 39 39 \;;
#X scalar append-template 32 32 32 \;;
#X scalar append-template 26 26 26 \;;
#X scalar append-template 15 15 15 \;;
#X scalar append-template 7 7 7 \;;
#X scalar append-template 6 6 6 \;;
#X scalar append-template 0 0 0 \;;
#X scalar append-template 0 0 0 \;;
#X scalar append-template 0 0 0 \;;
#X scalar append-template 0 0 0 \;;
#X scalar append-template 0 0 0 \;;
#X scalar append-template 0 0 0 \;;
#X scalar append-template 0 0 0 \;;
#X scalar append-template 1 1 1 \;;
#X scalar append-template 2 2 2 \;;
#X scalar append-template 5 5 5 \;;
#X scalar append-template 9 9 9 \;;
#X scalar append-template 14 14 14 \;;
#X scalar append-template 24 24 24 \;;
#X scalar append-template 38 38 38 \;;
#X scalar append-template 52 52 52 \;;
#X scalar append-template 70 70 70 \;;
#X scalar append-template 87 87 87 \;;
#X scalar append-template 108 108 108 \;;
#X scalar append-template 127 127 127 \;;
#X scalar append-template 147 147 147 \;;
#X scalar append-template 150 150 150 \;;
#X scalar append-template 150 150 150 \;;
#X scalar append-template 150 150 150 \;;
#X scalar append-template 150 150 150 \;;
#X scalar append-template 150 150 150 \;;
#X scalar append-template 150 150 150 \;;
#X scalar append-template 150 150 150 \;;
#X scalar append-template 150 150 150 \;;
#X scalar append-template 150 150 150 \;;
#X scalar append-template 150 150 150 \;;
#X scalar append-template 150 150 150 \;;
#X scalar append-template 150 150 150 \;;
#X scalar append-template 150 150 150 \;;
#X scalar append-template 150 150 150 \;;
#X scalar append-template 150 150 150 \;;
#X scalar append-template 150 150 150 \;;
#X scalar append-template 150 150 150 \;;
#X scalar append-template 150 150 150 \;;
#X scalar append-template 150 150 150 \;;
#X scalar append-template 150 150 150 \;;
#X scalar append-template 150 150 150 \;;
#X scalar append-template 150 150 150 \;;
#X scalar append-template 150 150 150 \;;
#X scalar append-template 150 150 150 \;;
#X scalar append-template 149 149 149 \;;
#X scalar append-template 140 140 140 \;;
#X scalar append-template 119 119 119 \;;
#X scalar append-template 100 100 100 \;;
#X scalar append-template 61 61 61 \;;
#X scalar append-template 14 14 14 \;;
#X scalar append-template 0 0 0 \;;
#X scalar append-template 0 0 0 \;;
#X scalar append-template 0 0 0 \;;
#X scalar append-template 0 0 0 \;;
#X scalar append-template 0 0 0 \;;
#X scalar append-template 0 0 0 \;;
#X scalar append-template 0 0 0 \;;
#X scalar append-template 0 0 0 \;;
#X scalar append-template 0 0 0 \;;
#X scalar append-template 0 0 0 \;;
#X scalar append-template 0 0 0 \;;
#X scalar append-template 0 0 0 \;;
#X scalar append-template 0 0 0 \;;
#X scalar append-template 0 0 0 \;;
#X scalar append-template 0 0 0 \;;
#X scalar append-template 0 0 0 \;;
#X scalar append-template 0 0 0 \;;
#X scalar append-template 1 1 1 \;;
#X scalar append-template 2 2 2 \;;
#X scalar append-template 5 5 5 \;;
#X scalar append-template 10 10 10 \;;
#X scalar append-template 16 16 16 \;;
#X scalar append-template 22 22 22 \;;
#X scalar append-template 29 29 29 \;;
#X scalar append-template 38 38 38 \;;
#X scalar append-template 47 47 47 \;;
#X scalar append-template 79 79 79 \;;
#X scalar append-template 93 93 93 \;;
#X scalar append-template 108 108 108 \;;
#X scalar append-template 126 126 126 \;;
#X scalar append-template 150 150 150 \;;
#X scalar append-template 150 150 150 \;;
#X scalar append-template 150 150 150 \;;
#X scalar append-template 150 150 150 \;;
#X scalar append-template 150 150 150 \;;
#X scalar append-template 150 150 150 \;;
#X scalar append-template 150 150 150 \;;
#X scalar append-template 150 150 150 \;;
#X scalar append-template 150 150 150 \;;
#X scalar append-template 150 150 150 \;;
#X scalar append-template 150 150 150 \;;
#X scalar append-template 150 150 150 \;;
#X scalar append-template 150 150 150 \;;
#X scalar append-template 150 150 150 \;;
#X scalar append-template 150 150 150 \;;
#X scalar append-template 150 150 150 \;;
#X scalar append-template 150 150 150 \;;
#X scalar append-template 147 147 147 \;;
#X scalar append-template 143 143 143 \;;
#X scalar append-template 132 132 132 \;;
#X scalar append-template 109 109 109 \;;
#X scalar append-template 96 96 96 \;;
#X scalar append-template 74 74 74 \;;
#X scalar append-template 50 50 50 \;;
#X scalar append-template 26 26 26 \;;
#X scalar append-template 0 0 0 \;;
#X scalar append-template 0 0 0 \;;
#X scalar append-template 0 0 0 \;;
#X scalar append-template 0 0 0 \;;
#X scalar append-template 0 0 0 \;;
#X scalar append-template 0 0 0 \;;
#X scalar append-template 0 0 0 \;;
#X scalar append-template 0 0 0 \;;
#X scalar append-template 0 0 0 \;;
#X scalar append-template 0 0 0 \;;
#X scalar append-template 0 0 0 \;;
#X scalar append-template 0 0 0 \;;
#X scalar append-template 2 2 2 \;;
#X scalar append-template 9 9 9 \;;
#X scalar append-template 16 16 16 \;;
#X scalar append-template 38 38 38 \;;
#X scalar append-template 60 60 60 \;;
#X scalar append-template 78 78 78 \;;
#X scalar append-template 112 112 112 \;;
#X scalar append-template 119 119 119 \;;
#X scalar append-template 134 134 134 \;;
#X scalar append-template 148 148 148 \;;
#X scalar append-template 150 150 150 \;;
#X scalar append-template 150 150 150 \;;
#X scalar append-template 150 150 150 \;;
#X scalar append-template 150 150 150 \;;
#X scalar append-template 150 150 150 \;;
#X scalar append-template 150 150 150 \;;
#X scalar append-template 150 150 150 \;;
#X scalar append-template 150 150 150 \;;
#X scalar append-template 150 150 150 \;;
#X scalar append-template 150 150 150 \;;
#X scalar append-template 150 150 150 \;;
#X scalar append-template 147 147 147 \;;
#X scalar append-template 140 140 140 \;;
#X scalar append-template 132 132 132 \;;
#X scalar append-template 125 125 125 \;;
#X scalar append-template 90 90 90 \;;
#X scalar append-template 71 71 71 \;;
#X scalar append-template 52 52 52 \;;
#X scalar append-template 7 7 7 \;;
#X scalar append-template 0 0 0 \;;
#X scalar append-template 0 0 0 \;;
#X scalar append-template 0 0 0 \;;
#X scalar append-template 0 0 0 \;;
#X scalar append-template 0 0 0 \;;
#X scalar append-template 0 0 0 \;;
#X scalar append-template 0 0 0 \;;
#X scalar append-template 0 0 0 \;;
#X scalar append-template 0 0 0 \;;
#X scalar append-template 0 0 0 \;;
#X scalar append-template 0 0 0 \;;
#X scalar append-template 1 1 1 \;;
#X scalar append-template 6 6 6 \;;
#X scalar append-template 11 11 11 \;;
#X scalar append-template 26 26 26 \;;
#X scalar append-template 33 33 33 \;;
#X scalar append-template 56 56 56 \;;
#X scalar append-template 75 75 75 \;;
#X scalar append-template 115 115 115 \;;
#X scalar append-template 138 138 138 \;;
#X scalar append-template 150 150 150 \;;
#X scalar append-template 150 150 150 \;;
#X scalar append-template 150 150 150 \;;
#X scalar append-template 150 150 150 \;;
#X scalar append-template 150 150 150 \;;
#X scalar append-template 150 150 150 \;;
#X scalar append-template 150 150 150 \;;
#X scalar append-template 150 150 150 \;;
#X scalar append-template 150 150 150 \;;
#X scalar append-template 150 150 150 \;;
#X scalar append-template 150 150 150 \;;
#X coords 0 297 1 296 0 0 0;
#X restore 472 488 pd append-data;
#N canvas 280 253 475 285 append-template 0;
#X obj 87 130 filledpolygon z z 0 0 0 20 0 20 30 0 30;
#X obj 73 90 struct append-template float x float y float z;
#X text 69 32 A template with 3 fields \, x/y coordinates and a z field
uses to set the color of a polygon., f 45;
#X text 66 161 A filled polygon whose border and interior color is
specified by the numeric 'z' field., f 48;
#X text 89 222 This template is added with the [append] object in the
parent patch., f 40;
#X restore 444 465 pd append-template;
#X connect 0 0 25 3;
#X connect 1 0 28 0;
#X connect 3 0 5 1;
#X connect 4 0 5 0;
#X connect 8 0 23 0;
#X connect 24 0 3 0;
#X connect 26 0 0 0;
#X connect 28 0 25 0;
#X connect 28 1 25 1;
#X connect 28 1 25 2;
#X connect 29 0 5 0;
