#N canvas 585 104 323 372 12;
#X obj 110 199 osc~;
#X obj 110 315 outlet~;
#X obj 110 238 *~;
#X obj 110 163 mtof;
#X obj 156 261 pow~ 4;
#X obj 110 81 inlet;
#X obj 110 114 unpack, f 7;
#X obj 156 156 / 127;
#X text 61 21 This is the abstraction for the [poly] help patch., f 26;
#X obj 156 222 line~;
#X msg 156 186 \$1 150;
#X connect 0 0 2 0;
#X connect 2 0 1 0;
#X connect 3 0 0 0;
#X connect 4 0 2 1;
#X connect 5 0 6 0;
#X connect 6 0 3 0;
#X connect 6 1 7 0;
#X connect 7 0 10 0;
#X connect 9 0 4 0;
#X connect 10 0 9 0;
