#N canvas 592 110 404 361 12;
#X obj 92 67 inlet;
#X obj 92 162 osc~;
#X obj 92 252 outlet~;
#X obj 92 191 *~;
#X obj 138 179 *~;
#X obj 138 207 *~;
#X obj 92 94 t f b, f 7;
#X obj 92 126 mtof;
#X obj 240 264 float \$1;
#X obj 240 238 bng 19 250 50 0 empty empty empty 17 7 0 10 #dfdfdf #000000 #000000;
#X obj 240 317 print;
#X text 23 16 This is the abstraction for the clone help patch. It plays tones at pitches sent to its inlet., f 49;
#X floatatom 240 290 5 0 0 0 - - - 0;
#X obj 138 151 vline~;
#X msg 138 123 1 10 \, 0 4000 10;
#X text 219 168 You can access the instance number within the patch., f 14;
#X connect 0 0 6 0;
#X connect 1 0 3 0;
#X connect 3 0 2 0;
#X connect 4 0 5 0;
#X connect 4 0 5 1;
#X connect 5 0 3 1;
#X connect 6 0 7 0;
#X connect 6 1 14 0;
#X connect 7 0 1 0;
#X connect 8 0 12 0;
#X connect 9 0 8 0;
#X connect 12 0 10 0;
#X connect 13 0 4 0;
#X connect 13 0 4 1;
#X connect 14 0 13 0;
