#N canvas 585 104 563 448 12;
#X obj 65 207 osc~;
#X obj 65 307 outlet~;
#X obj 65 246 *~;
#X obj 65 139 t f b, f 7;
#X obj 65 171 mtof;
#X obj 269 150 float \$1;
#X obj 269 106 bng 19 250 50 0 empty empty empty 17 7 0 10 #dfdfdf #000000 #000000;
#X text 64 14 This is the abstraction for the clone help patch. It plays tones at pitches sent to its inlet., f 64;
#X floatatom 269 179 5 0 0 0 - - - 0;
#X obj 111 207 vline~;
#X text 300 99 You can access the instance number within the patch., f 27;
#X obj 111 246 pow~ 4;
#X msg 111 171 0.5 50 \, 0 4000 50;
#X obj 65 66 inlet;
#X obj 318 307 outlet;
#X floatatom 318 261 5 0 0 0 - - - 0;
#X text 248 342 control data is preceded by instance number in [clone]'s output., f 25;
#X obj 65 104 route float bang;
#X obj 269 202 print instance number;
#X connect 0 0 2 0;
#X connect 2 0 1 0;
#X connect 3 0 4 0;
#X connect 3 1 12 0;
#X connect 4 0 0 0;
#X connect 5 0 8 0;
#X connect 6 0 5 0;
#X connect 8 0 18 0;
#X connect 9 0 11 0;
#X connect 11 0 2 1;
#X connect 12 0 9 0;
#X connect 13 0 17 0;
#X connect 15 0 14 0;
#X connect 17 0 3 0;
#X connect 17 1 5 0;
