#N canvas 649 322 473 292 10;
#X obj 156 27 inlet;
#X obj 173 132 osc~;
#X obj 172 207 outlet~;
#X obj 173 154 *~;
#X obj 268 141 *~;
#X obj 270 169 *~;
#X obj 266 113 line~;
#X obj 270 43 del 10;
#X obj 156 49 t f b;
#X obj 156 71 mtof;
#X obj 270 65 pack 0 4000;
#X obj 237 87 pack 1 10;
#X connect 0 0 8 0;
#X connect 1 0 3 0;
#X connect 3 0 2 0;
#X connect 4 0 5 0;
#X connect 4 0 5 1;
#X connect 5 0 3 1;
#X connect 6 0 4 0;
#X connect 6 0 4 1;
#X connect 7 0 10 0;
#X connect 8 0 9 0;
#X connect 8 1 7 0;
#X connect 8 1 11 0;
#X connect 9 0 1 0;
#X connect 10 0 6 0;
#X connect 11 0 6 0;
