#N canvas 592 110 402 392 12;
#X obj 92 67 inlet;
#X obj 92 162 osc~;
#X obj 92 252 outlet~;
#X obj 92 191 *~;
#X obj 226 195 *~;
#X obj 226 223 *~;
#X obj 226 167 line~;
#X obj 226 118 del 10;
#X obj 92 94 t f b, f 8;
#X obj 92 126 mtof;
#X obj 226 142 pack 0 4000;
#X obj 145 129 pack 1 10;
#X obj 265 297 float \$1;
#X obj 265 274 bng 17 250 50 0 empty empty empty 17 7 0 10 #fcfcfc
#000000 #000000;
#X obj 265 350 print;
#X text 58 307 You can access the instance number within the patch:
, f 27;
#X text 23 16 This is the abstraction for the clone help patch. It
plays tones at pitches sent to its inlet., f 49;
#X floatatom 265 323 5 0 0 0 - - - 0;
#X connect 0 0 8 0;
#X connect 1 0 3 0;
#X connect 3 0 2 0;
#X connect 4 0 5 0;
#X connect 4 0 5 1;
#X connect 5 0 3 1;
#X connect 6 0 4 0;
#X connect 6 0 4 1;
#X connect 7 0 10 0;
#X connect 8 0 9 0;
#X connect 8 1 7 0;
#X connect 8 1 11 0;
#X connect 9 0 1 0;
#X connect 10 0 6 0;
#X connect 11 0 6 0;
#X connect 12 0 17 0;
#X connect 13 0 12 0;
#X connect 17 0 14 0;
