#N canvas 550 25 460 315 12;
#X floatatom 114 235 7 0 0 0 - - - 0;
#X text 175 235 Output is in milliseconds;
#X obj 114 204 cputime;
#X obj 19 12 cputime;
#X text 80 13 - measure CPU usage;
#X text 252 284 updated for Pd version 0.33;
#X text 16 285 see also:;
#X obj 92 284 realtime;
#X obj 164 284 timer;
#X text 187 154 output elapsed time. You can click multiple times since it was last reset., f 25;
#X text 138 122 reset (set elapsed time to zero);
#X obj 5 42 cnv 1 450 1 empty empty empty 8 12 0 13 #000000 #000000 0;
#N canvas 776 85 479 247 reference 0;
#X obj 12 46 cnv 5 450 5 empty empty INLETS: 8 18 0 13 #202020 #000000 0;
#X obj 12 139 cnv 2 450 2 empty empty OUTLET: 8 12 0 13 #202020 #000000 0;
#X obj 12 178 cnv 2 450 2 empty empty ARGUMENTS: 8 12 0 13 #202020 #000000 0;
#X obj 41 14 cputime;
#X text 102 15 - measure CPU usage;
#X text 151 187 NONE;
#X text 111 80 bang - reset (set elapsed time to zero)., f 43;
#X text 111 110 bang - output elapsed time., f 43;
#X obj 12 212 cnv 5 450 5 empty empty empty 8 18 0 13 #202020 #000000 0;
#X obj 12 104 cnv 1 450 1 empty empty 2nd: 8 12 0 13 #7c7c7c #000000 0;
#X obj 12 77 cnv 1 450 1 empty empty 1st: 8 12 0 13 #7c7c7c #000000 0;
#X text 127 148 1) float - elapsed time in msec.;
#X restore 345 13 pd reference;
#X text 277 12 click =>;
#X obj 5 269 cnv 1 450 1 empty empty empty 8 12 0 13 #000000 #000000 0;
#X text 20 57 The [cputime] object measures elapsed CPU time \, as measured by your operating system. This appears to work on NT \, IRIX \, and Linux \, but not on W98.;
#X obj 114 123 bng 19 250 50 0 empty empty empty 17 7 0 10 #dfdfdf #000000 #000000;
#X obj 160 160 bng 19 250 50 0 empty empty empty 17 7 0 10 #dfdfdf #000000 #000000;
#X connect 2 0 0 0;
#X connect 16 0 2 0;
#X connect 17 0 2 1;
