#N canvas 621 32 532 680 12;
#X declare -stdpath ./;
#X obj 61 128 osc~ 100;
#X msg 79 155 clear;
#N canvas 534 144 522 578 test 0;
#X obj 189 431 env~ 16384;
#X floatatom 189 455 5 0 0 0 - - - 0;
#X floatatom 359 168 4 -1000 1000 0 - - - 0;
#X obj 254 186 cos~;
#X floatatom 255 50 5 0 0 0 - - - 0;
#X obj 255 73 phasor~;
#X floatatom 302 17 5 0 0 0 - - - 0;
#X obj 301 42 / 1000;
#X obj 295 169 -~ 0.25;
#X obj 295 191 cos~;
#X obj 359 197 / 1000;
#X obj 254 224 *~;
#X obj 295 225 *~;
#X obj 273 429 env~ 16384;
#X floatatom 273 453 5 0 0 0 - - - 0;
#X obj 136 191 phasor~;
#X floatatom 136 162 5 0 0 0 - - - 0;
#X text 61 83 Stuff to test it:;
#X obj 136 272 cpole~;
#X obj 295 269 *~ -1;
#X obj 64 488 env~ 16384;
#X floatatom 64 512 5 0 0 0 - - - 0;
#X obj 143 488 env~ 16384;
#X floatatom 143 512 5 0 0 0 - - - 0;
#X obj 143 304 cpole~;
#X obj 160 341 czero_rev~;
#X obj 205 370 czero_rev~;
#X msg 48 212 clear;
#X obj 255 103 cos~;
#X obj 254 134 *~ 0.02;
#X obj 304 100 sig~ 1.1;
#X obj 388 424 output~;
#X obj 58 38 declare -stdpath ./;
#X connect 0 0 1 0;
#X connect 2 0 10 0;
#X connect 3 0 11 0;
#X connect 4 0 5 0;
#X connect 5 0 28 0;
#X connect 6 0 7 0;
#X connect 7 0 5 1;
#X connect 8 0 9 0;
#X connect 9 0 12 0;
#X connect 10 0 12 1;
#X connect 10 0 11 1;
#X connect 11 0 18 2;
#X connect 11 0 24 2;
#X connect 11 0 25 2;
#X connect 11 0 26 2;
#X connect 12 0 18 3;
#X connect 12 0 19 0;
#X connect 12 0 25 3;
#X connect 13 0 14 0;
#X connect 15 0 18 0;
#X connect 15 0 20 0;
#X connect 15 0 31 1;
#X connect 16 0 15 0;
#X connect 18 0 24 0;
#X connect 18 1 24 1;
#X connect 19 0 24 3;
#X connect 19 0 26 3;
#X connect 20 0 21 0;
#X connect 22 0 23 0;
#X connect 24 0 22 0;
#X connect 24 0 25 0;
#X connect 24 1 25 1;
#X connect 25 0 26 0;
#X connect 25 1 26 1;
#X connect 26 0 0 0;
#X connect 26 0 31 0;
#X connect 26 1 13 0;
#X connect 27 0 18 0;
#X connect 27 0 24 0;
#X connect 28 0 29 0;
#X connect 29 0 3 0;
#X connect 29 0 8 0;
#X connect 30 0 29 0;
#X restore 413 571 pd test;
#X obj 110 210 sig~;
#X obj 142 234 sig~;
#X obj 174 257 sig~;
#X text 219 296 coefficient (real and imaginary part);
#X msg 90 181 set 0.6 0.8;
#X text 57 374 where y[n] is the output \, x[n] the input \, and a[n]
the filter coefficient (all complex numbers). The filter is always
stable., f 64;
#X obj 79 282 czero~ 0.9 0.4;
#X obj 16 12 czero_rev~;
#X text 94 347 y[n] = - a[n] * x[n] + x[n-1];
#X text 57 414 The transfer function is H(Z) = -a + Z^-1.;
#X text 155 209 <= signal to filter (imaginary part);
#X text 187 234 <= filter coefficient (real part);
#X text 217 257 <= filter coefficient (imaginary part);
#X text 197 282 <= creation arguments initialize filter;
#X text 125 129 <= signal to filter (real part);
#X text 41 324 The action of czero_rev~ is:;
#X obj 87 622 lop~;
#X text 8 623 see also:;
#X obj 170 555 rzero~;
#X obj 110 578 cpole~;
#X obj 110 555 rpole~;
#X obj 230 555 rzero_rev~;
#X obj 170 578 czero~;
#X obj 230 578 czero_rev~;
#X text 309 555 real;
#X text 308 577 complex;
#X text 107 536 1-pole;
#X text 167 536 1-zero;
#X text 234 520 1-zero \, reversed, f 8;
#X text 16 560 summary of raw filters:, f 12;
#X obj 128 622 hip~;
#X obj 169 622 bp~;
#X obj 204 622 vcf~;
#X text 285 622 - user-friendly filters;
#X obj 245 622 bob~;
#X text 15 448 Pd also provides a suite of user-friendly filters. This
and other raw filters are provided for situations which the user-friendly
ones can't handle. See Chapter 8 of http://msp.ucsd.edu/techniques.htm
for an introduction to the necessary theory (click) =>, f 69;
#X obj 10 653 biquad~;
#X text 184 652 - not so friendly;
#N canvas 798 148 456 264 Read-More 0;
#X obj 11 59 inlet;
#X obj 11 190 pdcontrol;
#X msg 11 139 browse http://msp.ucsd.edu/techniques/latest/book-html/node127.html
;
#X connect 0 0 2 0;
#X connect 2 0 1 0;
#X restore 372 528 pd Read-More;
#X obj 71 652 fexpr~;
#X obj 126 652 slop~, f 7;
#X text 329 652 updated for Pd version 0.38;
#X obj 5 38 cnv 1 520 1 empty empty empty 8 12 0 13 #000000 #000000
0;
#X obj 5 612 cnv 1 520 1 empty empty empty 8 12 0 13 #000000 #000000
0;
#N canvas 782 118 569 409 reference 0;
#X obj 25 12 czero_rev~;
#X text 105 11 - complex one-zero "reverse" filter;
#X obj 8 45 cnv 5 550 5 empty empty INLETS: 8 18 0 13 #202020 #000000
0;
#X obj 8 245 cnv 2 550 2 empty empty OUTLETS: 8 12 0 13 #202020 #000000
0;
#X obj 7 382 cnv 5 550 5 empty empty empty 8 18 0 13 #202020 #000000
0;
#X obj 8 326 cnv 2 550 2 empty empty ARGUMENTS: 8 12 0 13 #202020 #000000
0;
#X text 117 81 signal -;
#X text 180 81 signal to filter (real part)., f 49;
#X text 117 149 signal -;
#X text 180 149 signal to filter (imaginary part)., f 49;
#X text 117 182 signal -;
#X text 117 212 signal -;
#X text 180 212 filter coefficient (imaginary part)., f 49;
#X text 180 182 filter coefficient (real part)., f 49;
#X text 124 119 clear -;
#X text 180 99 set internal state (real and imaginary part)., f 49
;
#X text 180 119 clear internal state to zero (same as "set 0 0").;
#X text 71 353 1) list - real and imaginary part of coefficient (default
0 0)., f 64;
#X text 117 301 signal - filtered signal \, imaginary part.;
#X text 117 275 signal - filtered signal \, real part.;
#X text 33 99 set <float \, float> -;
#X obj 7 74 cnv 1 550 1 empty empty 1st: 8 12 0 13 #9f9f9f #000000
0;
#X obj 7 142 cnv 1 550 1 empty empty 2nd: 8 12 0 13 #9f9f9f #000000
0;
#X obj 7 175 cnv 1 550 1 empty empty 3rd: 8 12 0 13 #9f9f9f #000000
0;
#X obj 7 206 cnv 1 550 1 empty empty 4th: 8 12 0 13 #9f9f9f #000000
0;
#X obj 7 269 cnv 1 550 1 empty empty 1st: 8 12 0 13 #9f9f9f #000000
0;
#X obj 7 297 cnv 1 550 1 empty empty 2nd: 8 12 0 13 #9f9f9f #000000
0;
#X restore 366 11 pd reference;
#X text 460 11 <= click;
#X text 96 11 - complex one-zero "reverse" filter;
#X text 27 44 Czero_rev~ filters a complex audio signal (first two
inlets) via a raw one-zero (non-reccursive) filter \, whose coefficients
are controlled by creation arguments or by another complex audio signal
(remaining two inlets). The impulse response is that of "rzero" reversed
in time., f 64;
#X text 123 154 <= clear internal state (last samples) to zero;
#X text 176 182 <= set internal state (real &i maginary parts);
#X obj 372 495 bng 17 250 50 0 empty empty empty 17 7 0 10 #ffffff
#000000 #000000;
#X connect 0 0 9 0;
#X connect 1 0 9 0;
#X connect 3 0 9 1;
#X connect 4 0 9 2;
#X connect 5 0 9 3;
#X connect 7 0 9 0;
#X connect 53 0 41 0;
