#N canvas 656 55 442 355 12;
#X obj 67 144 sig~;
#X obj 134 161 loadbang;
#X obj 134 193 metro 100;
#X obj 134 224 snapshot~;
#X floatatom 67 116 6 0 0 0 - - - 0;
#X floatatom 134 249 10 0 0 0 - - - 0;
#X obj 17 12 exp~;
#X text 56 12 - exponential function;
#X text 13 298 See also:;
#X obj 43 324 pow~;
#X obj 67 171 exp~;
#X text 224 307 updated for Pd version 0.47.;
#X obj 91 298 exp;
#X obj 85 324 log~;
#X obj 125 298 sqrt~;
#X obj 127 323 expr~;
#X obj 257 157 tgl 18 0 empty empty empty 17 7 0 10 #fcfcfc #000000
#000000 0 1;
#X msg 257 185 \; pd dsp \$1;
#X text 280 156 DSP on/off;
#X text 48 64 Exp~ raises the Euler number 'e' (about 2.718) \, to
the power of the input signal., f 43;
#N canvas 722 152 435 194 reference 0;
#X obj 9 49 cnv 5 410 5 empty empty INLET: 8 18 0 13 #202020 #000000
0;
#X obj 9 94 cnv 2 410 2 empty empty OUTLET: 8 12 0 13 #202020 #000000
0;
#X obj 9 131 cnv 2 410 2 empty empty ARGUMENTS: 8 12 0 13 #202020 #000000
0;
#X obj 8 166 cnv 5 410 5 empty empty empty 8 18 0 13 #202020 #000000
0;
#X obj 25 16 exp~;
#X text 64 16 - exponential function;
#X text 127 140 NONE, f 36;
#X text 117 64 signal - input value to exp function.;
#X text 117 104 signal - output of exp function.;
#X restore 268 13 pd reference;
#X text 365 13 <= click;
#X obj 5 44 cnv 1 430 1 empty empty empty 8 12 0 13 #000000 #000000
0;
#X obj 5 287 cnv 1 430 1 empty empty empty 8 12 0 13 #000000 #000000
0;
#X connect 0 0 10 0;
#X connect 1 0 2 0;
#X connect 2 0 3 0;
#X connect 3 0 5 0;
#X connect 4 0 0 0;
#X connect 10 0 3 0;
#X connect 16 0 17 0;
