#N canvas 146 45 509 365 12;
#X obj 21 10 key;
#X obj 54 10 keyup;
#X obj 105 10 keyname;
#X text 173 8 -- grab keyboard;
#X obj 38 67 key;
#X floatatom 38 95 3 0 0 0 - - -;
#X floatatom 77 95 3 0 0 0 - - -;
#X obj 77 67 keyup;
#X floatatom 128 95 3 0 0 0 - - -;
#X obj 128 67 keyname;
#X symbolatom 174 95 10 0 0 0 - - -;
#X text 26 133 Key and keyup report the (system dependent) numbers
of "printing" keys of the keyboard. Keyname gives the symbolic name
of the key \, with a 1 or 0 if it's up or down \, and works with non-printing
keys like shift or "F1".;
#X text 26 200 Caveat -- this only works if Pd actually gets the key
events which can depend on the stacking order of windows and/or the
pointer location \, depending on the system.;
#X obj 38 262 key 1;
#X floatatom 38 292 3 0 0 0 - - -;
#X text 93 263 As of Pd 0.5 \, the key objects take an optional creation
argument to ignore events when the patch is in edit mode. Set to 1
to ignore and 0 to accept all events (default).;
#X text 280 325 updated for Pd version 0.50.;
#X connect 4 0 5 0;
#X connect 7 0 6 0;
#X connect 9 0 8 0;
#X connect 9 1 10 0;
#X connect 13 0 14 0;
