#N canvas 576 182 768 469 12;
#X obj 0 0 cnv 8 100 60 empty empty knb 20 20 1 18 #fcfcfc #004450 0;
#X floatatom 63 177 5 0 0 0 - - - 0;
#X floatatom 63 87 5 0 0 0 - - - 0;
#X msg 11 135 set \$1;
#X floatatom 217 165 5 0 0 0 - - - 0;
#X floatatom 217 92 5 0 0 0 - - - 0;
#X obj 126 89 knb 80 100 0 99 0 1 kii_snd kii_rcv empty -2 -6 0 8 #0400fc #f8fc00 #000000 0.222222 xy 0 #c7c6ff 3 -135 135;
#X obj 63 113 knb 30 128 0 127 0 0 empty empty empty -2 -6 0 8 #0400fc #000000 #000000 0.01 xy 0 #000000 0 -135 135;
#X obj 63 154 knb 20 128 127 0 0 0 empty empty empty -2 -6 0 8 #fc0400 #000000 #000000 0.01 xy 0 #000000 0 -135 135;
#X obj 371 308 knb 60 128 0 1 0 1 empty empty empty -2 -6 0 8 #fcfcfc #000000 #000000 0.318806 angle 8 #fc2828 5 -180 180;
#X text 503 63 high sens;
#X text 523 86 default;
#X text 68 12 gui-round-knob:;
#X text 33 48 right click for properties to modify geometry \, colors \, etc., f 30;
#X text 29 198 shift-click & drag for fine-tuning (0.01 pixels), f 25;
#X text 559 205 270° rotation;
#X text 557 229 360° rotation;
#X msg 311 79 size \$1;
#X floatatom 311 58 5 0 0 0 - - - 0;
#X text 366 8 "sensitivity" parameter sets mouse excursion for full range., f 35;
#X msg 369 40 sensitivity 300;
#X msg 398 63 sensitivity 10;
#X text 481 41 low sensitivity;
#N canvas 66 129 827 569 edit 0;
#X floatatom 429 202 1 0 1 0 - - - 0;
#X text 553 402 no init;
#X text 556 439 init value on loadbang, f 11;
#X msg 466 33 \; kii_rcv send kiia_snd;
#X msg 466 73 \; kii_rcv send kii_snd;
#X msg 467 115 \; kii_rcv receive kiia_rcv;
#X msg 467 154 \; kiia_rcv receive kii_rcv;
#X msg 438 395 \; kii_rcv init 0;
#X msg 439 438 \; kii_rcv init 1;
#X obj 438 303 f;
#X floatatom 455 281 3 55 440 0 - - - 0;
#X floatatom 490 303 6 440 3520 0 - - - 0;
#X obj 438 326 pack 0 0;
#X text 478 282 left-range-bound;
#X text 533 302 right-range-bound;
#X msg 438 351 \; kii_rcv range \$1 \$2;
#X msg 546 512 \; kii_rcv log;
#X msg 442 512 \; kii_rcv lin;
#X text 445 490 linear / logarithmic;
#X obj 20 225 f;
#X floatatom 38 201 3 63 156 0 - - - 0;
#X floatatom 73 225 3 -20 37 0 - - - 0;
#X obj 20 248 pack 0 0;
#X text 100 225 y-label;
#X text 66 201 x-label;
#X obj 253 364 f;
#X floatatom 271 340 3 -10 10 0 - - - 0;
#X floatatom 306 364 3 -10 10 0 - - - 0;
#X obj 253 387 pack 0 0;
#X obj 267 479 f;
#X floatatom 285 456 3 20 60 0 - - - 0;
#X floatatom 320 479 3 100 200 0 - - - 0;
#X obj 267 502 pack 0 0;
#X text 299 340 x-delta;
#X text 333 364 y-delta;
#X text 313 456 x-position;
#X text 347 479 y-position;
#X obj 27 360 f;
#X floatatom 45 337 3 0 2 0 - - - 0;
#X floatatom 80 360 3 4 36 0 - - - 0;
#X obj 27 383 pack 0 0;
#X text 73 337 font;
#X text 109 360 height;
#X msg 20 273 \; kii_rcv label_pos \$1 \$2;
#X msg 27 408 \; kii_rcv label_font \$1 \$2;
#X msg 23 469 \; kii_rcv label blabla;
#X msg 267 527 \; kii_rcv pos \$1 \$2;
#X msg 253 412 \; kii_rcv delta \$1 \$2;
#X obj 27 103 f;
#X floatatom 45 54 3 0 29 0 - - - 0;
#X floatatom 60 81 3 0 29 0 - - - 0;
#X floatatom 94 109 3 0 29 0 - - - 0;
#X text 73 54 background;
#X msg 153 23 back;
#X msg 192 23 front;
#X msg 237 23 label;
#X floatatom 259 73 3 0 255 0 - - - 0;
#X floatatom 307 73 3 0 255 0 - - - 0;
#X floatatom 355 74 3 0 255 0 - - - 0;
#X text 10 27 preset-colors;
#X text 346 28 RGB-colors;
#X text 259 55 red;
#X text 300 54 green;
#X text 353 54 blue;
#X obj 27 141 pack f f f;
#N canvas 449 206 564 549 RGB 0;
#X obj 96 56 inlet;
#X obj 302 53 inlet;
#X obj 379 55 inlet;
#X obj 445 56 inlet;
#X obj 96 230 bang;
#X msg 59 295 0;
#X msg 96 295 1;
#X obj 142 228 bang;
#X msg 125 295 0;
#X msg 156 295 1;
#X obj 189 229 bang;
#X msg 187 295 0;
#X msg 220 295 1;
#X obj 293 415 spigot;
#X obj 350 415 spigot;
#X obj 407 415 spigot;
#X obj 277 487 outlet;
#X text 92 33 select;
#X text 307 28 red;
#X text 377 30 green;
#X text 449 30 blue;
#X obj 445 102 t b f;
#X obj 379 160 +;
#X obj 379 185 t b f;
#X obj 379 216 +;
#X obj 334 487 outlet;
#X obj 391 487 outlet;
#X obj 27 180 loadbang;
#X obj 391 464 f;
#X obj 334 463 f;
#X obj 277 463 f;
#X obj 302 79 * -65536;
#X obj 379 80 * -256;
#X obj 445 80 * -1;
#X obj 379 247 - 1;
#X obj 96 135 route back front label arc bang;
#X obj 277 179 t b b b b b;
#X obj 470 415 spigot;
#X obj 452 486 outlet;
#X obj 452 463 f;
#X obj 253 229 bang;
#X msg 251 295 0;
#X msg 284 295 1;
#X connect 0 0 35 0;
#X connect 1 0 31 0;
#X connect 2 0 32 0;
#X connect 3 0 33 0;
#X connect 4 0 5 0;
#X connect 4 0 6 0;
#X connect 5 0 14 1;
#X connect 5 0 15 1;
#X connect 5 0 37 1;
#X connect 6 0 13 1;
#X connect 7 0 8 0;
#X connect 7 0 9 0;
#X connect 8 0 13 1;
#X connect 8 0 15 1;
#X connect 8 0 37 1;
#X connect 9 0 14 1;
#X connect 10 0 11 0;
#X connect 10 0 12 0;
#X connect 11 0 13 1;
#X connect 11 0 14 1;
#X connect 11 0 37 1;
#X connect 12 0 15 1;
#X connect 13 0 30 1;
#X connect 14 0 29 1;
#X connect 15 0 28 1;
#X connect 21 0 22 0;
#X connect 21 1 22 1;
#X connect 22 0 23 0;
#X connect 23 0 24 0;
#X connect 23 1 24 1;
#X connect 24 0 34 0;
#X connect 27 0 6 0;
#X connect 28 0 26 0;
#X connect 29 0 25 0;
#X connect 30 0 16 0;
#X connect 31 0 24 0;
#X connect 32 0 22 0;
#X connect 33 0 21 0;
#X connect 34 0 15 0;
#X connect 34 0 14 0;
#X connect 34 0 13 0;
#X connect 34 0 37 0;
#X connect 35 0 4 0;
#X connect 35 1 7 0;
#X connect 35 2 10 0;
#X connect 35 3 40 0;
#X connect 35 4 36 0;
#X connect 36 0 30 0;
#X connect 36 1 29 0;
#X connect 36 2 28 0;
#X connect 36 3 39 0;
#X connect 36 4 34 0;
#X connect 37 0 39 1;
#X connect 39 0 38 0;
#X connect 40 0 41 0;
#X connect 40 0 42 0;
#X connect 41 0 13 1;
#X connect 41 0 15 1;
#X connect 41 0 14 1;
#X connect 42 0 37 1;
#X restore 211 112 pd RGB;
#X f 21;
#X obj 130 23 bng 15 250 50 0 empty empty empty 17 7 0 10 #fcfcfc #000000 #000000;
#X text 86 82 front;
#X text 122 111 label;
#X obj 12 201 bng 15 250 50 0 empty empty empty 17 7 0 10 #fcfcfc #000000 #000000;
#X obj 13 55 bng 15 250 50 0 empty empty empty 17 7 0 10 #fcfcfc #000000 #000000;
#X obj 17 336 bng 15 250 50 0 empty empty empty 17 7 0 10 #fcfcfc #000000 #000000;
#X obj 238 341 bng 15 250 50 0 empty empty empty 17 7 0 10 #fcfcfc #000000 #000000;
#X obj 252 457 bng 15 250 50 0 empty empty empty 17 7 0 10 #fcfcfc #000000 #000000;
#X obj 428 282 bng 15 250 50 0 empty empty empty 17 7 0 10 #fcfcfc #000000 #000000;
#X floatatom 212 215 3 4 55 0 - - - 0;
#X msg 212 238 \; kii_rcv size \$1;
#X msg 23 506 \; kii_rcv label log.freq.;
#X text 236 214 size;
#X floatatom 213 278 3 4 55 0 - - - 0;
#X text 237 277 sensitivity;
#X msg 213 300 \; kii_rcv sensitivity \$1;
#X text 452 202 full 360;
#X msg 429 226 \; kii_rcv full \$1;
#X floatatom 658 193 5 0 0 1 arc_width - - 0;
#X msg 658 214 \; kii_rcv arc \$1;
#X obj 665 294 f;
#X floatatom 683 270 3 63 156 1 start_angle - - 0;
#X floatatom 718 294 3 -20 37 1 end_angle - - 0;
#X obj 665 317 pack 0 0;
#X obj 657 270 bng 15 250 50 0 empty empty empty 17 7 0 10 #fcfcfc #000000 #000000;
#X msg 665 342 \; kii_rcv angle \$1 \$2;
#X obj 211 144 pack f f f f;
#X msg 211 173 \; kii_rcv color \$1 \$2 \$3 \$4;
#X msg 281 23 arc;
#X connect 0 0 83 0;
#X connect 9 0 12 0;
#X connect 10 0 9 1;
#X connect 11 0 12 1;
#X connect 12 0 15 0;
#X connect 19 0 22 0;
#X connect 20 0 19 1;
#X connect 21 0 22 1;
#X connect 22 0 43 0;
#X connect 25 0 28 0;
#X connect 26 0 25 1;
#X connect 27 0 28 1;
#X connect 28 0 47 0;
#X connect 29 0 32 0;
#X connect 30 0 29 1;
#X connect 31 0 32 1;
#X connect 32 0 46 0;
#X connect 37 0 40 0;
#X connect 38 0 37 1;
#X connect 39 0 40 1;
#X connect 40 0 44 0;
#X connect 48 0 64 0;
#X connect 49 0 48 1;
#X connect 50 0 64 1;
#X connect 51 0 64 2;
#X connect 53 0 65 0;
#X connect 54 0 65 0;
#X connect 55 0 65 0;
#X connect 56 0 65 1;
#X connect 57 0 65 2;
#X connect 58 0 65 3;
#X connect 64 0 93 0;
#X connect 65 0 92 0;
#X connect 65 1 92 1;
#X connect 65 2 92 2;
#X connect 66 0 65 0;
#X connect 69 0 19 0;
#X connect 70 0 48 0;
#X connect 71 0 37 0;
#X connect 72 0 25 0;
#X connect 73 0 29 0;
#X connect 74 0 9 0;
#X connect 75 0 76 0;
#X connect 79 0 81 0;
#X connect 84 0 85 0;
#X connect 86 0 89 0;
#X connect 87 0 86 1;
#X connect 88 0 89 1;
#X connect 89 0 91 0;
#X connect 90 0 86 0;
#X connect 92 0 93 0;
#X connect 94 0 65 0;
#X restore 153 173 pd edit;
#X obj 217 115 s kii_rcv;
#X obj 217 142 r kii_snd;
#X msg 453 204 angle -135 135;
#X msg 453 228 angle -180 180;
#X text 560 180 angular control;
#X floatatom 454 252 5 0 0 1 arc_width - - 0;
#X msg 454 275 arc \$1;
#X obj 52 273 knb 50 128 -1 1 0 1 empty empty empty -2 -6 0 8 #fc0400 #000000 #000000 0.272727 xy 0 #faff00 11 -135 135;
#X floatatom 52 325 5 0 0 0 - - - 0;
#X text 11 241 when Lower and Upper settings are of opposite sign \, the arc turns to +/- mode:, f 37;
#X text 11 355 if Receive or Send symbol is empty \, an square outline is drawn. If both Send and Receive are defined \, the outline is hidden:, f 45;
#X obj 44 403 knb 25 128 0 127 0 0 empty empty empty -2 -6 0 8 #fcfcfc #000000 #000000 0 xy 0 #000000 0 -135 135;
#X obj 79 403 knb 25 128 0 127 0 0 \$0-send_is_defined \$0-receive_is_defined empty -2 -6 0 8 #fcfcfc #000000 #000000 0 xy 0 #000000 0 -135 135;
#X obj 551 387 knb 50 128 0 127 0 1 \$0-moon \$0-moon empty -2 -6 0 8 #fcfcfc #fcfcfc #000000 0.99 xy 0 #202020 24 -90 90;
#X text 473 352 if background and front colors are equal \, then the cursor is not shown:, f 30;
#X floatatom 571 253 5 0 100 1 ticks - - 0;
#X msg 571 276 ticks \$1;
#X msg 413 85 sensitivity 128;
#X text 513 112 linear control X;
#X text 519 136 linear control Y;
#X text 534 158 linear control X+Y (default);
#X text 4 433 (c) Antoine Rousseau 2003-2022;
#X msg 426 109 move_mode x;
#X msg 432 133 move_mode y;
#X msg 443 157 move_mode xy;
#X msg 449 181 move_mode angle;
#X connect 2 0 7 0;
#X connect 3 0 7 0;
#X connect 5 0 24 0;
#X connect 7 0 8 0;
#X connect 8 0 3 0;
#X connect 8 0 1 0;
#X connect 17 0 9 0;
#X connect 18 0 17 0;
#X connect 20 0 9 0;
#X connect 21 0 9 0;
#X connect 25 0 4 0;
#X connect 26 0 9 0;
#X connect 27 0 9 0;
#X connect 29 0 30 0;
#X connect 30 0 9 0;
#X connect 31 0 32 0;
#X connect 39 0 40 0;
#X connect 40 0 9 0;
#X connect 41 0 9 0;
#X connect 46 0 9 0;
#X connect 47 0 9 0;
#X connect 48 0 9 0;
#X connect 49 0 9 0;
