#N canvas 552 33 508 450 12;
#X obj 33 12 log~;
#X text 40 61 computes the logarithm of the left inlet \, to the base
'e' (about 2.718) \, or to another base specified by the inlet or a
creation argument., f 57;
#X text 290 374 updated for Pd version 0.47.;
#X text 14 390 see also:;
#X obj 90 389 pow~;
#X obj 90 365 log;
#X text 72 12 - logarithms for signals;
#X obj 132 389 exp~;
#X obj 92 417 +~;
#X text 124 416 (etc.) - signal binary operators;
#X text 127 365 - control version;
#X obj 173 389 sqrt~;
#X obj 222 389 expr~;
#X obj 142 205 loadbang;
#X obj 142 231 metro 100;
#X obj 142 285 snapshot~;
#X floatatom 33 137 5 0 0 0 - - - 0;
#X floatatom 94 137 5 0 0 0 - - - 0;
#X floatatom 142 314 7 0 0 0 - - - 0;
#X floatatom 291 221 5 0 0 0 - - - 0;
#X text 317 246 An optional creation argument initializes right inlet
for when you don't have a signal input., f 23;
#X obj 238 208 sig~ 2;
#X obj 238 276 snapshot~;
#X floatatom 238 305 7 0 0 0 - - - 0;
#X obj 94 173 sig~ 2;
#X obj 69 209 log~;
#X obj 33 173 sig~ 8;
#X obj 238 248 log~ 1.5;
#X msg 242 141 \; pd dsp \$1;
#X obj 242 118 tgl 15 0 empty empty empty 17 7 0 10 #fcfcfc #000000
#000000 0 1;
#X text 261 117 DSP on/off;
#N canvas 867 162 441 249 reference 0;
#X obj 13 50 cnv 5 410 5 empty empty INLETS: 8 18 0 13 #202020 #000000
0;
#X obj 13 145 cnv 2 410 2 empty empty OUTLET: 8 12 0 13 #202020 #000000
0;
#X obj 13 182 cnv 2 410 2 empty empty ARGUMENTS: 8 12 0 13 #202020
#000000 0;
#X obj 12 217 cnv 5 410 5 empty empty empty 8 18 0 13 #202020 #000000
0;
#X obj 37 17 log~;
#X text 76 17 - logarithms for signals.;
#X text 88 85 signal - input value to log function.;
#X text 121 154 signal - output of log function.;
#X text 130 191 1) float - initial base value., f 31;
#X obj 13 82 cnv 1 410 1 empty empty 1st: 8 12 0 13 #9f9f9f #000000
0;
#X obj 13 111 cnv 1 410 1 empty empty 2nd: 8 12 0 13 #9f9f9f #000000
0;
#X text 88 118 signal - set base value of the log function.;
#X restore 321 12 pd reference;
#X text 418 12 <= click;
#X obj 3 47 cnv 1 500 1 empty empty empty 8 12 0 13 #000000 #000000
0;
#X obj 3 349 cnv 1 500 1 empty empty empty 8 12 0 13 #000000 #000000
0;
#X connect 13 0 14 0;
#X connect 14 0 15 0;
#X connect 14 0 22 0;
#X connect 15 0 18 0;
#X connect 16 0 26 0;
#X connect 17 0 24 0;
#X connect 19 0 27 1;
#X connect 21 0 27 0;
#X connect 22 0 23 0;
#X connect 24 0 25 1;
#X connect 25 0 15 0;
#X connect 26 0 25 0;
#X connect 27 0 22 0;
#X connect 29 0 28 0;
