#N canvas 362 93 551 407 12;
#X obj 25 55 cnv 15 300 60 foo10_snd foo10_rcv my_canvas=cnv 70 30
0 17 -90133 -262144 0;
#N canvas 563 94 778 574 edit 0;
#X floatatom 278 231 3 2 20 0 - - -;
#X msg 57 464 \; foo10_rcv label blabla;
#X obj 538 260 f;
#X floatatom 556 236 5 100 1000 0 - - -;
#X floatatom 591 260 4 50 500 0 - - -;
#X obj 538 283 pack 0 0;
#X text 597 236 width;
#X text 629 262 height;
#X msg 538 308 \; foo10_rcv vis_size \$1 \$2;
#X msg 278 257 \; foo10_rcv size \$1;
#X text 308 231 selectable size;
#X msg 516 182 \; foo10a_rcv receive foo10_rcv;
#X msg 516 145 \; foo10_rcv receive foo10a_rcv;
#X msg 515 55 \; foo10_rcv send foo10a_snd;
#X msg 515 93 \; foo10_rcv send foo10_snd;
#X msg 545 360 \; foo10_rcv get_pos;
#X obj 546 401 r foo10_snd;
#X obj 546 428 unpack 0 0;
#X floatatom 546 453 4 0 0 0 - - -;
#X floatatom 611 452 4 0 0 0 - - -;
#X text 526 452 x=;
#X text 593 452 y=;
#X obj 70 83 f;
#X floatatom 88 48 3 0 29 0 - - -;
#X text 112 47 background;
#X msg 272 16 back;
#X msg 313 16 label;
#X floatatom 329 59 3 0 255 0 - - -;
#X floatatom 386 59 3 0 255 0 - - -;
#X floatatom 443 60 3 0 255 0 - - -;
#X text 56 15 preset-colors;
#X text 378 18 RGB-colors;
#X text 329 41 red;
#X text 380 40 green;
#X text 441 40 blue;
#X obj 71 106 pack 0 0 0;
#X msg 272 148 \; foo10_rcv color \$1 \$2 \$3;
#X floatatom 138 79 3 0 29 0 - - -;
#X text 166 80 label-color;
#X obj 527 237 bng 15 250 50 0 empty empty empty 17 7 0 10 -262144
-1 -1;
#X obj 297 330 f;
#X floatatom 315 306 3 -10 10 0 - - -;
#X floatatom 350 330 3 -10 10 0 - - -;
#X obj 297 353 pack 0 0;
#X obj 311 455 f;
#X floatatom 329 432 3 20 60 0 - - -;
#X floatatom 364 455 3 100 200 0 - - -;
#X obj 311 478 pack 0 0;
#X text 343 306 x-delta;
#X text 377 330 y-delta;
#X text 357 432 x-position;
#X text 391 455 y-position;
#X obj 282 307 bng 15 250 50 0 empty empty empty 17 7 0 10 -262144
-1 -1;
#X obj 296 433 bng 15 250 50 0 empty empty empty 17 7 0 10 -262144
-1 -1;
#X msg 297 378 \; foo10_rcv delta \$1 \$2;
#X msg 311 503 \; foo10_rcv pos \$1 \$2;
#X obj 57 373 f;
#X floatatom 75 350 3 0 2 0 - - -;
#X floatatom 110 373 3 4 36 0 - - -;
#X obj 57 396 pack 0 0;
#X text 103 350 font;
#X text 139 373 height;
#X obj 47 349 bng 15 250 50 0 empty empty empty 17 7 0 10 -262144 -1
-1;
#X msg 57 421 \; foo10_rcv label_font \$1 \$2;
#X obj 54 251 f;
#X floatatom 72 227 3 63 156 0 - - -;
#X floatatom 107 251 3 -20 37 0 - - -;
#X obj 54 274 pack 0 0;
#X text 134 251 y-label;
#X text 100 227 x-label;
#X obj 46 227 bng 15 250 50 0 empty empty empty 17 7 0 10 -262144 -1
-1;
#X msg 54 299 \; foo10_rcv label_pos \$1 \$2;
#N canvas 376 175 550 543 RGB 0;
#X obj 104 56 inlet;
#X obj 269 53 inlet;
#X obj 346 55 inlet;
#X obj 412 56 inlet;
#X obj 104 270 bang;
#X msg 70 299 0;
#X msg 104 300 1;
#X obj 153 268 bang;
#X msg 153 302 0;
#X msg 189 302 1;
#X obj 272 403 spigot;
#X obj 381 403 spigot;
#X obj 254 475 outlet;
#X text 100 33 select;
#X text 274 28 red;
#X text 344 30 green;
#X text 416 30 blue;
#X obj 412 102 t b f;
#X obj 346 160 +;
#X obj 346 185 t b f;
#X obj 346 216 +;
#X obj 363 475 outlet;
#X obj 26 239 loadbang;
#X obj 363 451 f;
#X obj 254 451 f;
#X obj 269 79 * -65536;
#X obj 346 80 * -256;
#X obj 412 80 * -1;
#X obj 346 247 - 1;
#X obj 104 135 route back label bang;
#X obj 242 168 t b b b;
#X connect 0 0 29 0;
#X connect 1 0 25 0;
#X connect 2 0 26 0;
#X connect 3 0 27 0;
#X connect 4 0 5 0;
#X connect 4 0 6 0;
#X connect 5 0 11 1;
#X connect 6 0 10 1;
#X connect 7 0 8 0;
#X connect 7 0 9 0;
#X connect 8 0 10 1;
#X connect 9 0 11 1;
#X connect 10 0 24 1;
#X connect 11 0 23 1;
#X connect 17 0 18 0;
#X connect 17 1 18 1;
#X connect 18 0 19 0;
#X connect 19 0 20 0;
#X connect 19 1 20 1;
#X connect 20 0 28 0;
#X connect 22 0 6 0;
#X connect 23 0 21 0;
#X connect 24 0 12 0;
#X connect 25 0 20 0;
#X connect 26 0 18 0;
#X connect 27 0 17 0;
#X connect 28 0 11 0;
#X connect 28 0 10 0;
#X connect 29 0 4 0;
#X connect 29 1 7 0;
#X connect 29 2 30 0;
#X connect 30 0 24 0;
#X connect 30 1 23 0;
#X connect 30 2 28 0;
#X restore 272 86 pd RGB;
#X f 25;
#X obj 64 48 bng 15 250 50 0 empty empty empty 17 7 0 10 -262144 -1
-1;
#X obj 272 115 pack 0 0 0;
#X obj 244 16 bng 15 250 50 0 empty empty empty 17 7 0 10 -262144 -1
-1;
#X text 29 148 NOTE: label color changed from 2nd to 3rd arg in version
0.47! Run "pd -compatibility 0.46" for old behavior, f 31;
#X msg 57 500 \; foo10_rcv label my_canvas=cnv;
#X connect 0 0 9 0;
#X connect 2 0 5 0;
#X connect 3 0 2 1;
#X connect 4 0 5 1;
#X connect 5 0 8 0;
#X connect 16 0 17 0;
#X connect 17 0 18 0;
#X connect 17 1 19 0;
#X connect 22 0 35 0;
#X connect 23 0 22 1;
#X connect 25 0 72 0;
#X connect 26 0 72 0;
#X connect 27 0 72 1;
#X connect 28 0 72 2;
#X connect 29 0 72 3;
#X connect 35 0 36 0;
#X connect 37 0 35 2;
#X connect 39 0 2 0;
#X connect 40 0 43 0;
#X connect 41 0 40 1;
#X connect 42 0 43 1;
#X connect 43 0 54 0;
#X connect 44 0 47 0;
#X connect 45 0 44 1;
#X connect 46 0 47 1;
#X connect 47 0 55 0;
#X connect 52 0 40 0;
#X connect 53 0 44 0;
#X connect 56 0 59 0;
#X connect 57 0 56 1;
#X connect 58 0 59 1;
#X connect 59 0 63 0;
#X connect 62 0 56 0;
#X connect 64 0 67 0;
#X connect 65 0 64 1;
#X connect 66 0 67 1;
#X connect 67 0 71 0;
#X connect 70 0 64 0;
#X connect 72 0 74 0;
#X connect 72 1 74 2;
#X connect 73 0 22 0;
#X connect 74 0 36 0;
#X connect 75 0 72 0;
#X restore 394 145 pd edit;
#X floatatom 166 303 4 0 0 0 - - -;
#X floatatom 203 303 4 0 0 0 - - -;
#X text 177 319 x;
#X text 214 319 y;
#X obj 49 261 metro 100;
#X obj 49 238 tgl 15 1 empty empty empty 20 8 0 10 -262144 -1 -1 1
1;
#X obj 166 255 r from_K1;
#X floatatom 244 304 4 0 0 0 - - -;
#X floatatom 281 304 4 0 0 0 - - -;
#X text 254 320 x;
#X text 292 320 y;
#X obj 244 256 r from_K2;
#X msg 49 285 \; to_K get_pos;
#N canvas 778 253 411 405 room 0;
#X obj 1 1 cnv 1 400 400 empty empty type...ctrl+e 150 140 2 17 -33289
-24198 0;
#X obj 15 16 cnv 1 1 360 empty empty move_K1_and_K2 115 160 2 17 -166441
-24198 0;
#X obj 374 15 cnv 1 1 360 empty empty empty 20 12 2 20 -99865 -66577
0;
#X obj 15 15 cnv 1 360 1 empty empty empty 20 12 2 20 -166441 -66577
0;
#X obj 17 375 cnv 1 358 1 empty empty empty 20 12 2 20 -99865 -66577
0;
#X obj 19 21 cnv 25 25 25 from_K1 to_K K1 1 13 2 14 -261681 -123526
0;
#X obj 342 342 cnv 25 25 25 from_K2 to_K K2 1 13 2 14 -225280 -1109
0;
#X restore 352 249 pd room;
#X obj 166 279 unpack;
#X obj 244 280 unpack;
#X obj 29 192 cnv 1 470 1 empty empty empty 20 12 2 20 -258113 -66577
0;
#X obj 351 283 r foo10_rcv;
#X obj 351 313 s ggg;
#X obj 180 18 x_all_guis aaa bbb ccc ddd eee fff ggg hhh iii;
#X text 77 208 For cnv's creation arguments:;
#N canvas 786 403 467 369 canvas-creation-arguments 0;
#X msg 7 12 canvas: cnv selectableSize xSize ySize sendName recieveName
Label labelXOff labelYOff Font# fontSize bgColor lblColor 0;
#X text 9 169 For example \, a canvas called thusly:;
#X obj 9 248 cnv 15 200 100 myCanvas myCanvasR Canvas_Demo 20 12 2
14 -62784 -195568 0;
#X text 9 226 will result in this:;
#X text 8 59 Canvas can be called with 13 creation arguments. These
are not "optional" - all parameters must be filled or the canvas will
not instantiate correctly.;
#X text 10 114 The function of the final "0" is unknown to me (it is
found in the textual entry for a canvas object in a .pd file) but can
be safely left off without ill effects.;
#X msg 9 191 cnv 15 200 100 myCanvas myCanvasR Canvas_Demo 20 12 2
14 18 20;
#X restore 284 208 pd canvas-creation-arguments;
#X text 25 123 right click the properties on the top-left corner (light
blue area when selecting the object) to modify geometry \, colors \,
etc., f 42;
#X text 344 68 (c) musil@iem.kug.ac.at;
#X text 402 83 IEM KUG;
#X text 367 96 graz \, austria 2002;
#X text 306 367 updated for Pd version 0.47;
#X connect 6 0 14 0;
#X connect 7 0 6 0;
#X connect 8 0 16 0;
#X connect 13 0 17 0;
#X connect 16 0 2 0;
#X connect 16 1 3 0;
#X connect 17 0 9 0;
#X connect 17 1 10 0;
#X connect 19 0 20 0;
