#N canvas 528 24 521 450 12;
#X floatatom 271 357 5 0 0 0 - - - 0;
#X obj 271 327 snapshot~;
#X obj 356 282 metro 200;
#X text 29 415 see also:;
#X obj 356 250 loadbang;
#X obj 53 255 tgl 19 0 empty empty empty 17 7 0 10 #dfdfdf #000000 #000000 0 1;
#X msg 53 283 \; pd dsp \$1;
#X text 76 254 on/off;
#X floatatom 189 198 5 0 0 0 - - - 0;
#X floatatom 356 357 5 0 0 0 - - - 0;
#X obj 356 327 snapshot~;
#N canvas 693 101 570 470 reference 0;
#X obj 12 50 cnv 5 550 5 empty empty INLETS: 8 18 0 13 #202020 #000000 0;
#X obj 8 125 cnv 2 550 2 empty empty OUTLET: 8 12 0 13 #202020 #000000 0;
#X obj 6 166 cnv 2 550 2 empty empty ARGUMENT: 8 12 0 13 #202020 #000000 0;
#X obj 8 200 cnv 5 550 5 empty empty empty 8 18 0 13 #202020 #000000 0;
#X obj 8 331 cnv 2 550 2 empty empty OUTLETS: 8 12 0 13 #202020 #000000 0;
#X obj 8 406 cnv 2 550 2 empty empty ARGUMENT: 8 12 0 13 #202020 #000000 0;
#X obj 7 441 cnv 5 550 5 empty empty empty 8 18 0 13 #202020 #000000 0;
#X obj 8 291 cnv 5 550 5 empty empty INLET: 8 18 0 13 #202020 #000000 0;
#X obj 28 15 pack~;
#X text 89 15 - combine one-channel signals into a multichannel one;
#X text 137 135 signal - the multichannel result;
#X obj 24 255 unpack~;
#X text 89 255 - split a multichannel signal into signal channels;
#X text 86 60 (number depends on argument);
#X obj 12 88 cnv 1 550 1 empty empty n: 8 12 0 13 #7c7c7c #000000 0;
#X text 136 97 signal - signal inputs to pack together;
#X text 140 173 1) number of channels (default: 2);
#X text 109 304 signal - a multichannel signal to unpack;
#X text 87 337 (number depends on argument);
#X obj 9 361 cnv 1 550 1 empty empty n: 8 12 0 13 #7c7c7c #000000 0;
#X text 112 371 signal - the individual channels unpacked;
#X text 151 416 1) number of channels (default: 2);
#X restore 349 39 pd reference;
#X text 446 40 <= click;
#X obj 8 75 cnv 1 510 1 empty empty empty 8 12 0 13 #000000 #000000 0;
#X obj 8 397 cnv 1 510 1 empty empty empty 8 12 0 13 #000000 #000000 0;
#X text 292 415 updated for Pd version 0.54;
#X obj 189 237 pack~ 3, f 13;
#X floatatom 233 199 5 0 0 0 - - - 0;
#X obj 189 273 unpack~ 3, f 13;
#X floatatom 277 199 5 0 0 0 - - - 0;
#X obj 38 15 pack~;
#X obj 24 39 unpack~;
#X text 93 23 - combine or split multichannel signals, f 21;
#X floatatom 189 357 5 0 0 0 - - - 0;
#X obj 189 327 snapshot~;
#X obj 105 416 send~;
#X obj 152 416 inlet~;
#X text 37 83 A [pack~] object combines any number of ordinary \, one-channel signals into a combined multichannel signal \, while [unpack~] dies the reverse. The number of component signals is specified as a creation argument. (If the number of channels to an [unpack~] object doesn't match the number it expects \, it still generates the requested number of outputs \, adding zero signals as needed.), f 62;
#X obj 208 416 clone;
#X connect 1 0 0 0;
#X connect 2 0 1 0;
#X connect 2 0 10 0;
#X connect 4 0 2 0;
#X connect 5 0 6 0;
#X connect 8 0 16 0;
#X connect 10 0 9 0;
#X connect 16 0 18 0;
#X connect 17 0 16 1;
#X connect 18 0 24 0;
#X connect 18 1 1 0;
#X connect 18 2 10 0;
#X connect 19 0 16 2;
#X connect 24 0 23 0;
