#N canvas 1007 71 715 666 12;
#X obj 32 13 pdcontrol;
#X obj 24 380 pdcontrol;
#X obj 24 438 print;
#X msg 229 448 isvisible;
#N canvas 568 591 287 200 subpatch 0;
#X obj 99 26 inlet;
#X obj 99 78 pdcontrol;
#X obj 99 152 outlet;
#X obj 110 112 print visibility;
#X connect 0 0 1 0;
#X connect 1 0 2 0;
#X connect 1 0 3 0;
#X restore 229 479 pd subpatch;
#X text 79 455 open and shut the subpatch to test "isvisible" message, f 19;
#X msg 40 181 dir;
#X text 70 180 get directory this patch is in;
#X msg 53 216 dir 0 ../3.audio-examples/A00.intro.pd, f 32;
#N canvas 761 91 541 437 args 0;
#X obj 103 254 print;
#X text 161 141 <= get arguments;
#X obj 103 175 pdcontrol-abs foo 100 \$0-x \\\$0 \$1 \$2-x;
#X msg 103 141 args 0;
#X text 40 23 This is useful for managing a variable number of arguments. When it receives the 'args' message \, [pdcontrol] outputs the loaded arguments. An optional argument specifies this patch (0) \, owning patch (1) \, its own owner (2) \, and so on. (Ownership number is silently reduced if owners don't exist \, so here anything greater than zero is ignored.), f 65;
#X text 48 295 Above there's a simple abstraction to show how it works. Note how dollar signs (such as "\$0" \, "\$1" or "\$2-x") get expanded unless you escape them with a backlash ("\$2-x" may appear as an unexpanded symbol \, but it actually gets expanded if this abstraction is called inside another that contains arguments).;
#X listbox 103 211 40 0 0 0 - - - 0;
#X connect 2 0 6 0;
#X connect 3 0 2 0;
#X connect 6 0 0 0;
#X restore 332 552 pd args;
#X text 216 145 open a URL in a browser;
#X msg 24 145 browse http://msp.ucsd.edu;
#X text 299 182 Optional argument to specify this patch (0) \, owning patch (1) \, its own owner (2) \, and so on \, and optionally also a filename relative to the patch's directory. (Ownership number is silently reduced if owners don't exist \, so here anything greater than zero is ignored.), f 55;
#X floatatom 229 513 5 0 0 0 - - - 0;
#X symbolatom 24 409 80 0 0 0 - - - 0;
#X obj 8 44 cnv 1 700 1 empty empty empty 8 12 0 13 #000000 #000000 0;
#X text 625 14 <= click;
#N canvas 798 417 718 568 reference 0;
#X obj 8 52 cnv 5 690 5 empty empty INLET: 8 18 0 13 #202020 #000000 0;
#X obj 8 463 cnv 2 690 2 empty empty OUTLET: 8 12 0 13 #202020 #000000 0;
#X obj 7 539 cnv 5 690 5 empty empty empty 8 18 0 13 #202020 #000000 0;
#X obj 8 500 cnv 2 690 2 empty empty ARGUMENTS: 8 12 0 13 #202020 #000000 0;
#X text 290 513 NONE, f 6;
#X obj 28 20 pdcontrol;
#X text 77 65 browse <symbol> - open a URL given by the symbol., f 53;
#X text 49 85 dir <float \, symbol> -;
#X text 120 133 isvisible - outputs float to specify if patch is visible (1) or not (0)., f 80;
#X text 99 155 args <float> -;
#X text 204 84 output owning patch's directory. Optional float sets level (0 \, this patch \, 1 \, its owner \, and so on). Optional symbol sets a folder relative to the directory., f 68;
#X text 204 155 outputs patch's argument. Optional float sets level (0 \, this patch \, 1 \, its owner \, and so on)., f 68;
#X text 155 473 list - list of args \, dir symbol of visibility float.;
#X text 203 188 send a message to this canvas, f 68;
#X text 107 20 - get patch/window information or communicate to canvas.;
#X text 36 189 sendcanvas <anything> -;
#X text 201 231 numsymbols [float]: total number of symbols that have been created since Pd started., f 67;
#X text 200 263 numobjects [float] [float]: total number of objects and canvases., f 67;
#X text 45 361 canvasinfo <float> - outputs information about the canvas \, currently:, f 80;
#X text 200 380 numobjects [float] [float]: number of objects and canvases in the canvas and its children., f 67;
#X text 1 214 runtimeinfo <selectors...> - outputs runtime information \, currently:, f 80;
#X text 199 280 pdversion [float] [float] [float]: print MAJOR \, MINOR and BUGFIX version numbers., f 67;
#X text 199 312 optional selectors allow to query only desired information \; it can be any combination of "numsymbols" \, "numbojetcs" and "pdversion" selectors., f 67;
#X text 189 416 Optional float sets level (0: this patch \, 1: its owner \, and so on) for counting objects and canvases., f 68;
#X restore 531 13 pd reference;
#X obj 8 608 cnv 1 700 1 empty empty empty 8 12 0 13 #000000 #000000 0;
#X text 278 514 1 if this patch is visible \, 0 if not., f 27;
#X text 117 552 get the patch's arguments -->;
#X obj 90 623 namecanvas;
#X text 17 623 see also:;
#X text 111 12 - get patch/window information or communicate to canvas.;
#X obj 178 623 pd-messages;
#X text 201 273 send a message to this patch window. NOTE: messages to canvases may change from one version of Pd to the next - so backward compatibility can't be guaranteed (although in practice they don't often change). WARNING: don't send a "clear" message - that will crash Pd. Other editing commands might also cause grief. See also "pd-messages" file below., f 69;
#X msg 55 299 sendcanvas loadbang;
#X text 33 59 [pdcontrol] provides some patch/window related information. It can get the patch's owning directory \, its arguments (when loaded as an abstraction) and a window's visible/invisible state. In addition \, it allows you to send messages to the canvas or the parent canvas. For last \, it also lets you open a URL in a web browser. Other functionalities may be added., f 90;
#X obj 491 497 pdcontrol;
#X msg 491 473 runtimeinfo;
#X msg 596 472 canvasinfo;
#X text 490 435 get information about runtime and canvas, f 22;
#N canvas 919 212 805 377 runtime_and_canvas_infos 0;
#X obj 34 169 pdcontrol;
#X floatatom 34 243 8 0 0 3 symbols - - 0;
#X msg 34 28 runtimeinfo;
#X text 21 282 number of symbols that have been created since Pd started., f 17;
#X text 31 7 get runtime information, f 26;
#X obj 170 219 unpack f f;
#X floatatom 170 243 8 0 0 3 objects - - 0;
#X floatatom 237 243 8 0 0 3 canvases - - 0;
#X obj 34 194 route numsymbols numobjects pdversion, f 59;
#X floatatom 307 244 4 0 0 3 major - - 0;
#X floatatom 347 245 4 0 0 3 minor - - 0;
#X obj 307 220 unpack f f f;
#X floatatom 388 245 4 0 0 3 bugfix - - 0;
#X text 510 73 2: parent's parent;
#X text 510 87 (...);
#X obj 98 242 bng 19 250 50 0 empty empty empty 0 -10 0 12 #fcfcfc #000000 #000000;
#X obj 250 219 bng 19 250 50 0 empty empty empty 0 -10 0 12 #fcfcfc #000000 #000000;
#X obj 403 220 bng 19 250 50 0 empty empty empty 0 -10 0 12 #fcfcfc #000000 #000000;
#X msg 65 117 runtimeinfo numsymbols pdversion;
#X msg 65 93 runtimeinfo numobjects;
#X text 62 57 optional filtering of the desired information:, f 24;
#X text 510 59 1: parent of this canvas;
#X msg 521 111 canvasinfo 0;
#X msg 536 137 canvasinfo 1;
#X text 510 44 0: this canvas (i.e: window) (default);
#X obj 521 169 pdcontrol;
#X obj 521 221 unpack f f;
#X floatatom 521 245 8 0 0 3 objects - - 0;
#X floatatom 588 245 8 0 0 3 canvases - - 0;
#X obj 521 194 route numobjects, f 18;
#X text 512 282 number of existing objects and canvases in the specified canvas and all its children., f 29;
#X text 160 283 number of existing objects and canvases in the whole Pd., f 20;
#X text 472 1 get canvas information, f 26;
#X text 486 27 optional parent argument:, f 27;
#X connect 0 0 8 0;
#X connect 2 0 0 0;
#X connect 5 0 6 0;
#X connect 5 1 7 0;
#X connect 8 0 1 0;
#X connect 8 0 15 0;
#X connect 8 1 5 0;
#X connect 8 1 16 0;
#X connect 8 2 11 0;
#X connect 8 2 17 0;
#X connect 11 0 9 0;
#X connect 11 1 10 0;
#X connect 11 2 12 0;
#X connect 18 0 0 0;
#X connect 19 0 0 0;
#X connect 22 0 25 0;
#X connect 23 0 25 0;
#X connect 25 0 29 0;
#X connect 26 0 27 0;
#X connect 26 1 28 0;
#X connect 29 0 26 0;
#X restore 490 568 pd runtime_and_canvas_infos;
#X text 489 546 details inside:;
#X obj 596 496 pdcontrol;
#X obj 491 521 print runtime;
#X obj 596 521 print canvas;
#X text 500 619 updated for Pd version 0.56;
#X connect 1 0 14 0;
#X connect 3 0 4 0;
#X connect 4 0 13 0;
#X connect 6 0 1 0;
#X connect 8 0 1 0;
#X connect 11 0 1 0;
#X connect 14 0 2 0;
#X connect 26 0 1 0;
#X connect 28 0 35 0;
#X connect 29 0 28 0;
#X connect 30 0 34 0;
#X connect 34 0 36 0;
