#N canvas 108 150 545 606 12;
#X obj 45 222 radio 20 0 0 -259 radio-test-out radio-test Radio\ Test 0 -8 0 14 #ffffff #000000 #000000 0;
#X text 50 76 A new IEMGUI object that belongs to the "radio" family. This object extends "hradio" and "vradio" to a second dimension \, allowing for 2d matrices., f 64;
#X text 367 500 Example:;
#N canvas 860 54 676 735 sequencer 0;
#X obj 364 51 tgl 20 0 empty empty empty 0 -10 0 12 #fcfcfc #000000 #000000 0 1;
#X msg 364 150 next;
#X obj 364 215 s radio-test;
#X obj 51 564 unpack f f f f;
#X obj 484 634 output~;
#X text 100 48 Initialize here:;
#X msg 292 355 clear;
#X text 23 279 Then click on these or shift-click the matrix to set values:, f 61;
#X obj 382 85 switch~;
#X obj 38 366 text get radio-example, f 13;
#X obj 230 324 bng 20 250 50 0 empty empty fill\ +\ resize 0 -10 0 12 #fcfcfc #000000 #000000;
#X obj 170 329 bng 20 250 50 0 empty empty fill 0 -10 0 12 #fcfcfc #000000 #000000;
#N canvas 552 287 471 658 random 0;
#X obj 114 577 outlet;
#X obj 329 11 inlet;
#X obj 329 80 + 2;
#X obj 114 11 inlet;
#X msg 114 85 8;
#X obj 329 51 random 10;
#X msg 320 223 resize \$1 4 \, orientation 0, f 13;
#X obj 131 329 f;
#X obj 131 302 until;
#X obj 131 359 until;
#X msg 131 415 append \$1;
#X obj 114 445 list store;
#X obj 131 387 random 2;
#X obj 131 274 unpack;
#X obj 114 215 t b f b;
#X obj 114 165 t f f;
#X obj 320 185 change;
#X text 321 120 right inlet also randomly resizes the matrix, f 16;
#X text 11 271 Creates a list of size N x M \, filled with randomly selected 0|1 values:, f 12;
#X text 279 441 we fix M to 4 so that we have 4 instruments, f 18;
#X msg 131 243 \$1 4;
#X connect 1 0 5 0;
#X connect 2 0 15 0;
#X connect 3 0 4 0;
#X connect 4 0 15 0;
#X connect 5 0 2 0;
#X connect 6 0 0 0;
#X connect 7 0 9 0;
#X connect 8 0 7 0;
#X connect 9 0 12 0;
#X connect 10 0 11 0;
#X connect 11 0 0 0;
#X connect 12 0 10 0;
#X connect 13 0 8 0;
#X connect 13 1 7 1;
#X connect 14 0 11 0;
#X connect 14 1 20 0;
#X connect 14 2 11 1;
#X connect 15 0 14 0;
#X connect 15 1 16 0;
#X connect 16 0 6 0;
#X connect 20 0 13 0;
#X restore 170 366 pd random;
#X obj 51 498 r radio-test-out;
#N canvas 122 77 655 649 shaker 0;
#X obj 116 219 vline~;
#X obj 117 247 *~;
#X obj 208 344 *~;
#X obj 116 162 random 200;
#X obj 291 267 *~;
#X obj 272 183 bp~ 8000 24;
#X obj 400 188 phasor~ -25;
#X msg 116 194 1 20 \, 0 \$1 120;
#X obj 272 155 noise~;
#X obj 115 124 bng 20 250 50 0 empty empty empty 0 -10 0 12 #fcfcfc #000000 #000000;
#X obj 88 20 inlet;
#X obj 208 371 throw~ mix;
#X obj 125 69 sel 1;
#X obj 292 312 *~ 0.7;
#X obj 399 221 *~;
#X text 148 20 Inlet accepts a 1 or a 0 and it triggers when it's a 1;
#X connect 0 0 1 0;
#X connect 0 0 1 1;
#X connect 1 0 2 0;
#X connect 2 0 11 0;
#X connect 3 0 7 0;
#X connect 4 0 13 0;
#X connect 5 0 4 0;
#X connect 6 0 14 0;
#X connect 6 0 14 1;
#X connect 7 0 0 0;
#X connect 8 0 5 0;
#X connect 9 0 3 0;
#X connect 10 0 12 0;
#X connect 12 0 9 0;
#X connect 13 0 2 1;
#X connect 14 0 4 1;
#X coords 0 -1 1 1 85 59 1 100 100;
#X restore 146 622 pd shaker;
#N canvas 0 0 760 630 note 0;
#X obj 97 402 vline~;
#X obj 101 430 *~;
#X obj 199 475 *~;
#X obj 107 195 random 250;
#X obj 107 220 + 100;
#X obj 340 402 clip~ -1 1;
#X obj 339 429 *~ 0.2;
#X obj 112 127 bng 20 250 50 0 empty empty empty 0 -10 0 12 #fcfcfc #000000 #000000;
#X obj 112 166 t b b;
#X obj 94 20 inlet;
#X obj 200 504 throw~ mix;
#X obj 103 74 sel 1;
#X obj 314 176 line~;
#X obj 314 149 pack f 300;
#X obj 407 251 *~;
#X obj 312 251 *~;
#X obj 314 123 mtof;
#X obj 448 210 pow~ 2;
#X obj 447 120 osc~ 0.15;
#X obj 408 359 *~ 8;
#X obj 312 359 *~ 16;
#X obj 227 196 * 0.3;
#X obj 447 178 +~ 1.01;
#X obj 448 147 *~ 0.02;
#X obj 311 281 phasor~;
#X obj 311 309 *~ 2;
#X obj 312 334 -~ 1;
#X obj 407 281 phasor~;
#X obj 408 318 cos~;
#X obj 121 278 random 240;
#X obj 121 303 + 20;
#X obj 99 245 t f b f;
#X obj 101 333 pack;
#X msg 99 372 1 \$2 \, 0 \$1 \$2;
#X obj 314 45 random 3;
#X text 148 20 Inlet accepts a 1 or a 0 and it triggers when it's a 1;
#X obj 314 100 + 60;
#X obj 314 73 * 7;
#X connect 0 0 1 0;
#X connect 0 0 1 1;
#X connect 1 0 2 0;
#X connect 2 0 10 0;
#X connect 3 0 4 0;
#X connect 4 0 31 0;
#X connect 5 0 6 0;
#X connect 6 0 2 1;
#X connect 7 0 8 0;
#X connect 8 0 3 0;
#X connect 8 1 34 0;
#X connect 9 0 11 0;
#X connect 11 0 7 0;
#X connect 12 0 14 0;
#X connect 12 0 15 0;
#X connect 13 0 12 0;
#X connect 14 0 27 0;
#X connect 15 0 24 0;
#X connect 16 0 13 0;
#X connect 17 0 14 1;
#X connect 18 0 23 0;
#X connect 19 0 5 0;
#X connect 20 0 5 0;
#X connect 21 0 13 1;
#X connect 22 0 15 1;
#X connect 22 0 17 0;
#X connect 23 0 22 0;
#X connect 24 0 25 0;
#X connect 25 0 26 0;
#X connect 26 0 20 0;
#X connect 27 0 28 0;
#X connect 28 0 19 0;
#X connect 29 0 30 0;
#X connect 30 0 32 1;
#X connect 31 0 32 0;
#X connect 31 1 29 0;
#X connect 31 2 21 0;
#X connect 32 0 33 0;
#X connect 33 0 0 0;
#X connect 34 0 37 0;
#X connect 36 0 16 0;
#X connect 37 0 36 0;
#X coords 0 -1 1 1 85 60 1 100 100;
#X restore 51 622 pd note;
#X obj 482 568 catch~ mix;
#X text 390 51 <-- start;
#X text 50 684 row 0;
#X text 145 684 row 1;
#X text 241 684 row 2;
#X text 337 684 row 3;
#X text 480 371 <-- store grids here as lists, f 16;
#X obj 445 373 bng 20 250 50 0 empty empty empty 0 -10 0 12 #fcfcfc #000000 #000000;
#N canvas 615 416 450 300 store-example 0;
#X msg 34 36 dump store-list;
#X obj 34 61 s radio-test;
#X obj 161 169 r store-list;
#X obj 161 205 t a b;
#X obj 161 230 text set radio-example;
#X msg 206 205 1e+10;
#X obj 33 13 inlet;
#X text 154 36 <-- dump the list to a receiver, f 17;
#X text 35 140 catch it and store it in a text file -->, f 14;
#X obj 300 111 text define -k radio-example;
#A set 0 0 0 1 0 0 0 1 1 0 0 0 1 0 0 0 0 1 1 0 0 1 1 0 0 1 0 0 1 0 1 0 \; 1 1 0 0 0 1 0 0 1 0 0 1 1 0 0 1 0 0 1 1 0 0 1 1 0 0 0 1 0 0 0 0 \; 0 1 0 0 0 1 1 0 1 0 1 0 0 1 0 1 0 0 0 1 1 1 0 0 1 0 1 0 0 1 0 0 \;;
#X f 15;
#X text 306 83 a text file;
#X connect 0 0 1 0;
#X connect 2 0 3 0;
#X connect 3 0 4 0;
#X connect 3 1 5 0;
#X connect 5 0 4 1;
#X connect 6 0 0 0;
#X restore 445 410 pd store-example;
#X text 202 16 Using a Matrix as a sequencer;
#N canvas 0 0 614 474 weirdhat 0;
#X obj 327 173 noise~;
#X obj 114 246 vline~;
#X obj 114 271 *~;
#X obj 226 320 *~;
#X obj 328 198 hip~ 9000;
#X obj 114 194 * 500;
#X obj 114 169 random 2;
#X msg 114 221 1 \$1 \, 0 1000 \$1;
#X obj 119 126 bng 20 250 50 0 empty empty empty 0 -10 0 12 #fcfcfc #000000 #000000;
#X obj 96 22 inlet;
#X obj 224 383 throw~ mix;
#X obj 113 66 sel 1;
#X obj 328 225 *~ 0.25;
#X text 148 20 Inlet accepts a 1 or a 0 and it triggers when it's a 1;
#X connect 0 0 4 0;
#X connect 1 0 2 0;
#X connect 1 0 2 1;
#X connect 2 0 3 0;
#X connect 3 0 10 0;
#X connect 4 0 12 0;
#X connect 5 0 7 0;
#X connect 6 0 5 0;
#X connect 7 0 1 0;
#X connect 8 0 6 0;
#X connect 9 0 11 0;
#X connect 11 0 8 0;
#X connect 12 0 3 1;
#X coords 0 -1 1 1 85 60 1 100 100;
#X restore 241 622 pd weirdhat;
#N canvas 0 0 675 578 bassdrum 0;
#X obj 109 220 vline~;
#X obj 109 245 *~;
#X obj 167 465 *~;
#X obj 213 344 *~ 0.8;
#X obj 213 293 +~ 50;
#X obj 213 268 *~ 30;
#X obj 213 319 osc~;
#X obj 404 308 *~ 0.9;
#X obj 404 283 bp~ 300 1;
#X obj 267 247 + 40;
#X obj 267 222 random 10;
#X obj 404 258 noise~;
#X obj 80 24 inlet;
#X obj 111 169 t b b, f 25;
#X obj 110 129 bng 20 250 50 0 empty empty empty 0 -10 0 12 #fcfcfc #000000 #000000;
#X obj 167 491 throw~ mix;
#X obj 106 69 sel 1;
#X msg 109 195 1 3 \, 0 500 3;
#X obj 261 400 *~ 0.45;
#X text 148 20 Inlet accepts a 1 or a 0 and it triggers when it's a 1;
#X floatatom 313 259 5 0 0 0 - - - 0;
#X connect 0 0 1 0;
#X connect 0 0 1 1;
#X connect 1 0 2 0;
#X connect 1 0 5 0;
#X connect 2 0 15 0;
#X connect 3 0 18 0;
#X connect 4 0 6 0;
#X connect 5 0 4 0;
#X connect 6 0 3 0;
#X connect 7 0 18 0;
#X connect 8 0 7 0;
#X connect 9 0 4 1;
#X connect 10 0 9 0;
#X connect 11 0 8 0;
#X connect 12 0 16 0;
#X connect 13 0 17 0;
#X connect 13 1 10 0;
#X connect 14 0 13 0;
#X connect 16 0 14 0;
#X connect 17 0 0 0;
#X connect 18 0 2 1;
#X connect 20 0 9 1;
#X coords 0 -1 1 1 85 60 1 100 100;
#X restore 339 622 pd bassdrum;
#X floatatom 564 543 5 0 100 0 reverb - - 0;
#X floatatom 38 342 5 0 0 0 - - - 0;
#X text 409 144 <-- "next" moves to the next column on every beat, f 30;
#X msg 390 186 set 0;
#X floatatom 487 90 5 0 0 0 msec - - 0;
#X obj 482 599 rev3~ 120 60 2500 85;
#X obj 364 120 metro 250;
#X msg 63 75 \; radio-test resize 8 4 \; radio-test orientation 0 \; radio-test output_mode 1 \; radio-test border_mode 1 \;, f 26;
#X obj 38 410 s radio-test;
#X obj 170 410 s radio-test;
#X obj 284 410 s radio-test;
#X msg 75 313 1;
#X msg 38 311 0;
#X text 440 190 reset index;
#X text 200 500 We assign each row to an individual instrument and route the list output accordingly., f 32;
#X obj 51 528 route list;
#X text 233 250 Set some values:;
#X text 229 469 Play some instruments:;
#X connect 0 0 8 0;
#X connect 0 0 34 0;
#X connect 1 0 2 0;
#X connect 3 0 15 0;
#X connect 3 1 14 0;
#X connect 3 2 26 0;
#X connect 3 3 27 0;
#X connect 6 0 38 0;
#X connect 9 0 36 0;
#X connect 10 0 12 1;
#X connect 11 0 12 0;
#X connect 12 0 37 0;
#X connect 13 0 43 0;
#X connect 16 0 33 0;
#X connect 16 0 33 1;
#X connect 23 0 24 0;
#X connect 28 0 33 3;
#X connect 29 0 9 0;
#X connect 31 0 2 0;
#X connect 32 0 34 1;
#X connect 33 0 4 0;
#X connect 33 1 4 1;
#X connect 34 0 1 0;
#X connect 39 0 29 0;
#X connect 40 0 29 0;
#X connect 43 0 3 0;
#X restore 372 530 pd sequencer;
#X text 50 129 You can create it from the menu "Put > Matrix" \, or the shortcut <cmd|ctrl> + <shift> + X \, or typing "radio" on an object box., f 64;
#X text 205 33 "radio" / Matrix;
#N canvas 806 182 551 370 interaction 0;
#X text 52 247 Use the "orientation" message to read them in row-major (horizontal) or column-major order.;
#X text 52 290 NOTE: columns \, rows \, and orientation can be set from the properties dialog;
#X text 55 62 In 2-d matrices \, the filled square represents the index to a column or row on the matrix \, depending on orientation., f 57;
#X text 55 115 If orientation is "horizontal" \, the index represents COLUMNS \, if it is "vertical" \, it represents the ROWS.;
#X text 53 165 For example \, in the horizontal case \, clicking on any row will move the filled square will remain on the first row \, but move to the corresponding COLUMN regardless of the actual row that was clicked.;
#X text 124 21 The filled square on row/column 1;
#X restore 124 531 pd interaction;
#X text 52 501 More information:;
#N canvas 959 188 450 300 properties 0;
#X text 12 62 "hradio" and "vradio" now have "Columns" \, "Rows" \, and "Orientation" on the properties dialog (check it out with right-click + Properties).;
#X text 9 146 If you change those to a 2d matrix \, the object will be saved as a "radio" and treated as such.;
#X text 133 30 New "properties" dialog;
#X restore 236 532 pd properties;
#X text 252 212 You can interact with it as the old radio (number switching when clicking) or by Shift + Clicking on the squares to set a cross., f 35;
#N canvas 1075 144 514 531 sizes 0;
#X text 37 66 When a "radio" is saved \, we check first if the object is 2d or 1d. If it's 1d \, it is either saved as "hradio" or "vradio" \, as before \, and its size is also stored as before \, in values from 1 up until 128 (the maximum allowed for h/vradio);
#X text 36 162 However \, when the radio is 2d \, we store it as a "radio" object \, and we encode the size and the orientation in the negative values \, which is why you will see a weird size like -259 \, which would decode to "3 x 3 horizontal radio". If you're curious \, check out the source code to see how this encoding/decoding works.;
#X text 35 279 Naturally \, this encoding is never shown to the user \, as they now see "Columns" and "Rows" in the properties dialog \, unless they open the .pd file and check it out.;
#X text 197 363 Max size;
#X text 46 394 For performance reasons \, the size is maxed out to 128 (the maximum allowed by hradio or vradio). So \, sizes are clamped so that we always have N x M <= 128 For example \, if Columns = 2 \, then Rows can only have values <= 64 \, or if Columns = 3 \, Rows can only have <= 42 \, etc.;
#X text 210 29 Saving;
#X restore 49 531 pd sizes;
#X text 253 288 Crosses are 1 \, empty squares are 0;
#X obj 246 357 r radio-test-out;
#X listbox 342 435 20 0 0 0 list\ output - - 0;
#X obj 246 391 route float list;
#N canvas 724 391 450 300 init 0;
#X obj 39 99 loadbang;
#X text 38 38 This patch defaults to a 3x3 horizontal matrix with output_mode set to 1 (lists);
#X msg 39 124 \; radio-test resize 3 3 \; radio-test orientation 0 \;;
#X connect 0 0 2 0;
#X restore 277 502 pd init;
#N canvas 665 130 372 698 messages 1;
#N canvas 1050 168 485 390 orientation 0;
#X text 77 130 horizontal;
#X text 240 124 vertical;
#X text 27 257 In 2d matrices \, a horizontal orientation is row-major ordered- and a vertical one is column-major ordered matrix.;
#X text 135 27 The "orientation" message:;
#X text 28 312 NOTE: orientation can also be set from the properties dialog., f 61;
#X msg 79 152 orientation 0;
#X obj 185 213 s radio-test;
#X msg 240 151 orientation 1;
#X text 24 75 Changes the direction of the radio to horizontal (0 \, default) or vertical (1). This changes the values of the matrix., f 61;
#X connect 5 0 6 0;
#X connect 7 0 6 0;
#X restore 124 141 pd orientation;
#N canvas 1053 173 450 300 number 0;
#X text 18 54 The "number N" message works as before. It automatically creates a radio object depending on the orientation.;
#X text 137 19 The "number" message:;
#X obj 288 123 tgl 20 0 empty empty empty 0 -10 0 12 #fcfcfc #000000 #000000 0 1;
#X msg 288 169 orientation \$1;
#X msg 50 104 3;
#X msg 138 104 8;
#X msg 106 175 number \$1;
#X obj 206 255 s radio-test;
#X connect 2 0 3 0;
#X connect 3 0 7 0;
#X connect 4 0 6 0;
#X connect 5 0 6 0;
#X connect 6 0 7 0;
#X restore 44 141 pd number;
#N canvas 1044 177 534 501 resize 0;
#X text 55 265 When you specify two numbers greater than one \, you get a 2d matrix;
#X text 181 19 The "resize" message:;
#X text 58 54 The "resize N M" message can be used to create a radio in 2 dimensions. If you set either to "1" \, you get the same behavior as "number N".;
#X text 216 132 NOTE: Swapping the numbers also changes orientation:, f 20;
#X msg 67 123 resize 3 1;
#X msg 109 149 resize 8 1;
#X msg 370 129 resize 1 3;
#X obj 90 185 s radio-test;
#X msg 380 159 resize 1 8;
#X msg 61 309 resize 3 3;
#X msg 104 341 resize 8 8;
#X msg 368 333 resize 3 8;
#X msg 381 360 resize 8 3;
#X obj 83 380 s radio-test;
#X obj 368 389 s radio-test;
#X obj 370 190 s radio-test;
#X text 224 331 Dimensions can be different from each other:, f 17;
#X text 191 244 2D MATRICES;
#X text 89 441 see [pd saving] and [pd interaction] for more;
#X connect 4 0 7 0;
#X connect 5 0 7 0;
#X connect 6 0 15 0;
#X connect 8 0 15 0;
#X connect 9 0 13 0;
#X connect 10 0 13 0;
#X connect 11 0 14 0;
#X connect 12 0 14 0;
#X restore 47 221 pd resize;
#N canvas 873 195 600 466 rows 0;
#X text 125 17 The "row" message;
#X text 418 17 Initialize here:;
#X msg 98 136 row 0;
#X msg 124 161 row 1;
#X msg 138 183 row 2;
#X obj 124 224 s radio-test;
#X msg 51 323 row 0 1;
#X msg 70 347 row 1 1;
#X msg 84 371 row 2 1;
#X msg 206 324 row 0 0;
#X msg 223 348 row 1 0;
#X msg 234 372 row 2 0;
#X obj 81 419 s radio-test;
#X obj 222 417 s radio-test;
#X text 13 43 Gets values at the given row. If a second argument is passed \, the value is set along the row, f 50;
#X text 20 106 One argument: get the row at index;
#X text 22 280 Two arguments: fill row with value;
#X msg 390 40 \; radio-test number 1 \, resize 3 3 \, orientation 0 \, 1 1 1, f 26;
#X obj 380 177 r radio-test-out;
#X obj 380 202 route list;
#X listbox 380 227 20 0 0 0 - - - 0;
#X connect 2 0 5 0;
#X connect 3 0 5 0;
#X connect 4 0 5 0;
#X connect 6 0 12 0;
#X connect 7 0 12 0;
#X connect 8 0 12 0;
#X connect 9 0 13 0;
#X connect 10 0 13 0;
#X connect 11 0 13 0;
#X connect 18 0 19 0;
#X connect 19 0 20 0;
#X restore 60 601 pd rows;
#N canvas 873 195 600 466 columns 0;
#X text 418 17 Initialize here:;
#X text 125 17 The "column" message;
#X msg 29 153 column 0;
#X msg 101 153 column 1;
#X msg 175 153 column 2;
#X obj 105 196 s radio-test;
#X obj 150 365 s radio-test;
#X msg 390 40 \; radio-test number 1 \, resize 3 3 \, orientation 0 \, 1 0 0 1 0 0 1 0 0, f 26;
#X text 18 44 Gets values at the given column. If a second argument is passed \, the value is set along the column, f 48;
#X text 16 119 One argument: get the column at index;
#X text 20 246 Two arguments: fill column with value;
#X obj 60 294 tgl 20 0 empty empty empty 0 -10 0 12 #fcfcfc #000000 #000000 0 1;
#X msg 58 319 column 0 \$1;
#X msg 153 319 column 1 \$1;
#X msg 246 318 column 2 \$1;
#X obj 152 290 tgl 20 0 empty empty empty 0 -10 0 12 #fcfcfc #000000 #000000 0 1;
#X obj 244 292 tgl 20 0 empty empty empty 0 -10 0 12 #fcfcfc #000000 #000000 0 1;
#X obj 380 177 r radio-test-out;
#X obj 380 202 route list;
#X listbox 380 227 20 0 0 0 - - - 0;
#X connect 2 0 5 0;
#X connect 3 0 5 0;
#X connect 4 0 5 0;
#X connect 11 0 12 0;
#X connect 12 0 6 0;
#X connect 13 0 6 0;
#X connect 14 0 6 0;
#X connect 15 0 13 0;
#X connect 16 0 14 0;
#X connect 17 0 18 0;
#X connect 18 0 19 0;
#X restore 119 601 pd columns;
#N canvas 728 167 665 476 cell 0;
#X text 215 25 The "cell" message;
#X text 449 20 Initialize here:;
#X msg 118 295 0;
#X msg 155 295 1;
#X msg 193 295 2;
#X obj 197 414 s radio-test;
#X msg 277 269 0;
#X msg 278 295 1;
#X msg 280 320 2;
#X obj 195 352 pack;
#X msg 197 389 get \$1 \$2;
#X text 125 276 column index;
#X text 314 271 row index, f 5;
#X msg 433 41 \; radio-test number 1 \, resize 3 3 \, 1 1 1, f 26;
#X text 44 218 Cell values can also be accessed with the "get column row" message.;
#N canvas 649 513 595 381 more 0;
#X msg 346 151 0;
#X msg 346 175 1;
#X msg 346 199 2;
#X msg 96 151 0;
#X msg 133 151 1;
#X msg 171 151 2;
#X msg 96 175 3;
#X msg 133 175 4;
#X msg 171 175 5;
#X msg 96 199 6;
#X msg 133 199 7;
#X msg 171 199 8;
#X msg 383 151 3;
#X msg 383 175 4;
#X msg 383 199 5;
#X msg 421 151 6;
#X msg 421 175 7;
#X msg 421 199 8;
#X text 54 106 Row-major order (horizontal);
#X text 302 109 Column-major order (vertical);
#X text 471 154 ||v, f 1;
#X text 109 122 ---->;
#X obj 264 269 s radio-test;
#X obj 264 171 t a;
#X obj 264 195 t a;
#X obj 264 219 t a;
#X msg 264 244 cell \$1;
#X text 59 34 Here is a visualization of the indices when a different order is set:;
#X obj 419 263 r radio-test-out;
#X floatatom 419 313 5 0 0 0 - - - 0;
#X obj 419 288 route float;
#X connect 0 0 23 0;
#X connect 1 0 24 0;
#X connect 2 0 25 0;
#X connect 3 0 23 0;
#X connect 4 0 23 0;
#X connect 5 0 23 0;
#X connect 6 0 24 0;
#X connect 7 0 24 0;
#X connect 8 0 24 0;
#X connect 9 0 25 0;
#X connect 10 0 25 0;
#X connect 11 0 25 0;
#X connect 12 0 23 0;
#X connect 13 0 24 0;
#X connect 14 0 25 0;
#X connect 15 0 23 0;
#X connect 16 0 24 0;
#X connect 17 0 25 0;
#X connect 23 0 24 0;
#X connect 24 0 25 0;
#X connect 25 0 26 0;
#X connect 26 0 22 0;
#X connect 28 0 30 0;
#X connect 30 0 29 0;
#X restore 439 137 pd more cell;
#X text 42 71 Gets the value at the given index, f 44;
#X floatatom 127 99 5 0 0 0 - - - 0;
#X msg 127 123 cell \$1;
#X obj 127 148 s radio-test;
#X obj 503 192 r radio-test-out;
#X floatatom 503 242 5 0 0 0 - - - 0;
#X obj 503 217 route float;
#X obj 480 242 bng 20 250 50 0 empty empty empty 0 -10 0 12 #fcfcfc #000000 #000000;
#X connect 2 0 9 0;
#X connect 3 0 9 0;
#X connect 4 0 9 0;
#X connect 6 0 9 1;
#X connect 7 0 9 1;
#X connect 8 0 9 1;
#X connect 9 0 10 0;
#X connect 10 0 5 0;
#X connect 17 0 18 0;
#X connect 18 0 19 0;
#X connect 20 0 22 0;
#X connect 22 0 21 0;
#X connect 22 0 23 0;
#X restore 37 536 pd cell;
#N canvas 728 178 860 540 readline 0;
#X text 180 24 The "readline" message;
#X msg 93 261 readline 0 \$1;
#X obj 92 302 s radio-test;
#X msg 42 171 0;
#X msg 88 181 1;
#X msg 122 197 2;
#X obj 306 304 s radio-test;
#X msg 289 184 0;
#X msg 335 194 1;
#X msg 369 210 2;
#X msg 313 255 readline 1 \$1;
#X text 67 145 horizontal axis (0);
#X text 285 148 vertical axis (1);
#X text 520 27 Initialize here:;
#X text 44 65 Reads the values of all cells along a specified axis. The arguments are "axis" "index":;
#X text 64 367 See also "row" \, "column" \, and "get" messages for the same behavior. Under the hood \, this message is the one ultimately used.;
#X obj 529 281 r radio-test-out;
#X obj 529 306 route list;
#X listbox 529 331 20 0 0 0 - - - 0;
#X msg 504 48 \; radio-test number 1 \, resize 5 3 \, 1 1 1 \, toggle_mode 1, f 26;
#X obj 511 142 tgl 20 0 empty empty empty 0 -10 0 12 #fcfcfc #000000 #000000 0 1;
#X msg 511 167 orientation \$1;
#X obj 511 192 s radio-test;
#X msg 152 212 3;
#X msg 186 228 4;
#X msg 408 216 3;
#X msg 442 232 4;
#X connect 1 0 2 0;
#X connect 3 0 1 0;
#X connect 4 0 1 0;
#X connect 5 0 1 0;
#X connect 7 0 10 0;
#X connect 8 0 10 0;
#X connect 9 0 10 0;
#X connect 10 0 6 0;
#X connect 16 0 17 0;
#X connect 17 0 18 0;
#X connect 20 0 21 0;
#X connect 21 0 22 0;
#X connect 23 0 1 0;
#X connect 24 0 1 0;
#X connect 25 0 10 0;
#X connect 26 0 10 0;
#X restore 37 464 pd readline;
#N canvas 718 179 450 331 fill 0;
#X text 130 31 The "fill" message;
#X text 38 75 Fill the entire matrix with the same value;
#X obj 182 229 s radio-test;
#X msg 89 115 fill 1;
#X msg 196 135 fill 0;
#X msg 284 135 clear;
#X text 254 135 or;
#X connect 3 0 2 0;
#X connect 4 0 2 0;
#X connect 5 0 2 0;
#X restore 161 511 pd fill;
#N canvas 638 114 730 529 writeline 0;
#X obj 195 319 s radio-test;
#X msg 175 188 0;
#X msg 221 198 1;
#X msg 255 214 2;
#X obj 409 322 s radio-test;
#X msg 392 202 0;
#X msg 438 212 1;
#X msg 472 228 2;
#X text 67 145 horizontal axis (0);
#X text 388 166 vertical axis (1);
#X text 493 23 Initialize here:;
#X text 180 24 The "writeline" message;
#X msg 477 44 \; radio-test number 1 \, resize 3 3, f 26;
#X msg 194 253 writeline 0 \$1 0;
#X obj 64 319 s radio-test;
#X msg 44 188 0;
#X msg 90 198 1;
#X msg 124 214 2;
#X msg 63 253 writeline 0 \$1 1;
#X obj 558 320 s radio-test;
#X msg 541 200 0;
#X msg 587 210 1;
#X msg 621 226 2;
#X msg 411 267 writeline 1 \$1 1;
#X msg 560 265 writeline 1 \$1 0;
#X text 60 65 Writes a value to all cells along a specified axis. The arguments are "axis" "index" "value":;
#X text 54 387 See also "row" \, "column" \, and "put" messages for the same behavior. Under the hood \, this message is the one ultimately used.;
#X connect 1 0 13 0;
#X connect 2 0 13 0;
#X connect 3 0 13 0;
#X connect 5 0 23 0;
#X connect 6 0 23 0;
#X connect 7 0 23 0;
#X connect 13 0 0 0;
#X connect 15 0 18 0;
#X connect 16 0 18 0;
#X connect 17 0 18 0;
#X connect 18 0 14 0;
#X connect 20 0 24 0;
#X connect 21 0 24 0;
#X connect 22 0 24 0;
#X connect 23 0 4 0;
#X connect 24 0 19 0;
#X restore 161 464 pd writeline;
#N canvas 695 326 671 354 list 0;
#N canvas 538 68 673 465 more 0;
#X obj 363 95 tgl 20 0 empty empty empty 0 -10 0 12 #fcfcfc #000000 #000000 0 1;
#X obj 139 143 pack f f f;
#X obj 386 95 tgl 20 0 empty empty empty 0 -10 0 12 #fcfcfc #000000 #000000 0 1;
#X obj 179 115 t b f;
#X obj 409 95 tgl 20 0 empty empty empty 0 -10 0 12 #fcfcfc #000000 #000000 0 1;
#X obj 224 115 t b f;
#X obj 363 120 tgl 20 0 empty empty empty 0 -10 0 12 #fcfcfc #000000 #000000 0 1;
#X obj 178 171 pack f f f;
#X obj 386 120 tgl 20 0 empty empty empty 0 -10 0 12 #fcfcfc #000000 #000000 0 1;
#X obj 218 139 t b f;
#X obj 409 120 tgl 20 0 empty empty empty 0 -10 0 12 #fcfcfc #000000 #000000 0 1;
#X obj 263 139 t b f;
#X obj 363 145 tgl 20 0 empty empty empty 0 -10 0 12 #fcfcfc #000000 #000000 0 1;
#X obj 243 193 pack f f f;
#X obj 386 145 tgl 20 0 empty empty empty 0 -10 0 12 #fcfcfc #000000 #000000 0 1;
#X obj 263 165 t b f;
#X obj 409 145 tgl 20 0 empty empty empty 0 -10 0 12 #fcfcfc #000000 #000000 0 1;
#X obj 308 165 t b f;
#X obj 179 194 t b a;
#X obj 139 225 list;
#X obj 243 218 t b a;
#X obj 139 250 list;
#X listbox 167 318 20 0 0 0 - - - 0;
#X obj 165 379 s radio-test;
#X text 37 41 This example recreates the entire matrix in toggles:;
#X text 485 23 Initialize here:;
#X msg 481 47 \; radio-test number 1 \, resize 3 3, f 20;
#X connect 0 0 1 0;
#X connect 1 0 19 0;
#X connect 2 0 3 0;
#X connect 3 0 1 0;
#X connect 3 1 1 1;
#X connect 4 0 5 0;
#X connect 5 0 1 0;
#X connect 5 1 1 2;
#X connect 6 0 7 0;
#X connect 7 0 18 0;
#X connect 8 0 9 0;
#X connect 9 0 7 0;
#X connect 9 1 7 1;
#X connect 10 0 11 0;
#X connect 11 0 7 0;
#X connect 11 1 7 2;
#X connect 12 0 13 0;
#X connect 13 0 20 0;
#X connect 14 0 15 0;
#X connect 15 0 13 0;
#X connect 15 1 13 1;
#X connect 16 0 17 0;
#X connect 17 0 13 0;
#X connect 17 1 13 2;
#X connect 18 0 1 0;
#X connect 18 1 19 1;
#X connect 19 0 21 0;
#X connect 20 0 7 0;
#X connect 20 1 21 1;
#X connect 21 0 22 0;
#X connect 22 0 23 0;
#X restore 431 271 pd more complex;
#X obj 211 260 s radio-test;
#X text 315 192 sparse messages get filled up to that point, f 24;
#X text 472 17 Initialize here:;
#X msg 468 41 \; radio-test number 1 \, resize 3 3, f 20;
#X text 205 17 The "list" message;
#X msg 98 119 0 0 0 0 1 0 0 0 0;
#X msg 177 148 1 0 1 0 1 0 1 0 1;
#X msg 232 192 1 1 1;
#X text 29 52 Accepts a list of values (1/0) to fill the matrix at the position corresponding to the indices. The message accepts arguments up to the N*M size of the matrix:;
#X connect 6 0 1 0;
#X connect 7 0 1 0;
#X connect 8 0 1 0;
#X restore 161 487 pd list;
#N canvas 676 130 807 776 output_mode 0;
#X obj 552 538 s radio-test;
#X obj 577 502 bng 20 250 50 0 empty empty empty 0 -10 0 12 #fcfcfc #000000 #000000;
#X text 548 9 Initialize here:;
#X msg 492 442 0;
#X msg 511 470 1;
#X msg 530 493 2;
#X text 172 25 The "output_mode" message;
#X msg 182 257 output_mode 0;
#X obj 182 287 s radio-test;
#X obj 640 411 tgl 20 0 empty empty empty 0 -10 0 12 #fcfcfc #000000 #000000 0 1;
#X msg 640 436 orientation \$1;
#X obj 640 461 s radio-test;
#X text 639 352 see how orientation affects it:, f 12;
#X obj 641 622 r radio-test-out;
#X obj 641 647 route list;
#X listbox 641 672 20 0 0 0 - - - 0;
#X msg 532 30 \; radio-test number 1 \, resize 3 3 \, orientation 0 \, 1 1 1 0 0 0 1 0 0 \, mode 0, f 26;
#X text 207 144 default (0);
#X text 35 57 When you click \, send a float \, or bang the radio object \, you get an output. The "output_mode" message allows you to change the internal behavior to get different outputs.;
#X text 40 171 The "default" mode of this output is to get the index of the current position of the filled square. Internally \, you can set this value to be any float value \, no matter how many slots there are. Therefore \, the output is float an unbound:;
#X text 294 261 float (unbound);
#X text 207 347 line (1);
#X text 34 373 The "line" mode will allow you to get rows or columns (depending on orientation) selected by the current position of the filled square.;
#X obj 181 505 s radio-test;
#X msg 181 472 output_mode \$1;
#X text 217 443 line;
#X msg 181 439 1;
#X obj 195 669 s radio-test;
#X msg 195 642 output_mode \$1;
#X msg 195 615 2;
#X text 229 614 coords;
#X text 215 530 coords (1);
#X text 42 556 The "coords" mode will allow you to get the coordinates of the current filled square.;
#N canvas 0 0 566 449 compatibility 0;
#X obj 34 392 s radio-test;
#X msg 34 364 output_mode \$1;
#X text 70 97 compat double;
#X text 92 188 compat single;
#X text 127 270 int (clipped);
#X msg 34 102 -3;
#X msg 66 191 -2;
#X msg 92 268 -1;
#X text 209 13 Compatibility modes;
#X text 19 45 These modes allow to set the old behaviors. Note that for pd version <0.46 these modes will be set by default.;
#X text 113 121 Outputs the previous index and a zero \, then outputs the current index and a one.;
#X text 141 208 Outputs the current index and a one.;
#X text 158 292 Restricts the internal memory to an integer and to the bounds of the radio, f 50;
#X text 140 222 Also set with the "single_change" message;
#X text 114 155 Also set with the "double_change" message;
#X connect 1 0 0 0;
#X connect 5 0 1 0;
#X connect 6 0 1 0;
#X connect 7 0 1 0;
#X restore 41 721 pd compatibility;
#X text 173 722 <-- compatibility with old behaviors;
#X connect 1 0 0 0;
#X connect 3 0 0 0;
#X connect 4 0 0 0;
#X connect 5 0 0 0;
#X connect 7 0 8 0;
#X connect 9 0 10 0;
#X connect 10 0 11 0;
#X connect 13 0 14 0;
#X connect 14 0 15 0;
#X connect 24 0 23 0;
#X connect 26 0 24 0;
#X connect 28 0 27 0;
#X connect 29 0 28 0;
#X restore 161 294 pd output_mode;
#N canvas 775 260 795 458 put 0;
#X text 552 21 Initialize here:;
#X text 154 30 The "put" message;
#X msg 536 42 \; radio-test number 1 \, resize 3 3, f 26;
#X obj 46 185 tgl 20 0 empty empty empty 0 -10 0 12 #fcfcfc #000000 #000000 0 1;
#X msg 46 209 put 0 0 \$1;
#X obj 138 185 tgl 20 0 empty empty empty 0 -10 0 12 #fcfcfc #000000 #000000 0 1;
#X obj 233 185 tgl 20 0 empty empty empty 0 -10 0 12 #fcfcfc #000000 #000000 0 1;
#X msg 138 209 put 1 0 \$1;
#X msg 233 209 put 2 0 \$1;
#X obj 47 240 tgl 20 0 empty empty empty 0 -10 0 12 #fcfcfc #000000 #000000 0 1;
#X obj 139 240 tgl 20 0 empty empty empty 0 -10 0 12 #fcfcfc #000000 #000000 0 1;
#X obj 234 240 tgl 20 0 empty empty empty 0 -10 0 12 #fcfcfc #000000 #000000 0 1;
#X msg 47 264 put 0 1 \$1;
#X msg 139 264 put 1 1 \$1;
#X msg 234 264 put 2 1 \$1;
#X obj 376 229 t a;
#X obj 376 284 t a;
#X obj 47 295 tgl 20 0 empty empty empty 0 -10 0 12 #fcfcfc #000000 #000000 0 1;
#X obj 139 295 tgl 20 0 empty empty empty 0 -10 0 12 #fcfcfc #000000 #000000 0 1;
#X obj 234 295 tgl 20 0 empty empty empty 0 -10 0 12 #fcfcfc #000000 #000000 0 1;
#X obj 376 339 t a;
#X obj 376 364 s radio-test;
#X msg 47 319 put 0 2 \$1;
#X msg 139 319 put 1 2 \$1;
#X msg 234 319 put 2 2 \$1;
#X msg 524 235 put -1 0 \$1;
#X obj 577 282 s radio-test;
#X obj 524 208 tgl 20 0 empty empty empty 0 -10 0 12 #fcfcfc #000000 #000000 0 1;
#X obj 626 210 tgl 20 0 empty empty empty 0 -10 0 12 #fcfcfc #000000 #000000 0 1;
#X msg 626 236 put 0 -1 \$1;
#X text 41 119 Here is an entire 3x3 matrix made of put messages and toggles:;
#X msg 575 380 put -1 -1 \$1;
#X obj 575 405 s radio-test;
#X obj 581 352 tgl 20 0 empty empty empty 0 -10 0 12 #fcfcfc #000000 #000000 0 1;
#X text 531 320 ... or the entire matrix:;
#X text 534 134 A "-1" instead of column/row index will put a value on aalong that line ..., f 22;
#X text 40 62 This message allows you to put a value on a given column/row combination individually \, independently from orientation. The arguments are "column" "row" "value".;
#X connect 3 0 4 0;
#X connect 4 0 15 0;
#X connect 5 0 7 0;
#X connect 6 0 8 0;
#X connect 7 0 15 0;
#X connect 8 0 15 0;
#X connect 9 0 12 0;
#X connect 10 0 13 0;
#X connect 11 0 14 0;
#X connect 12 0 16 0;
#X connect 13 0 16 0;
#X connect 14 0 16 0;
#X connect 15 0 16 0;
#X connect 16 0 20 0;
#X connect 17 0 22 0;
#X connect 18 0 23 0;
#X connect 19 0 24 0;
#X connect 20 0 21 0;
#X connect 22 0 20 0;
#X connect 23 0 20 0;
#X connect 24 0 20 0;
#X connect 25 0 26 0;
#X connect 27 0 25 0;
#X connect 28 0 29 0;
#X connect 29 0 26 0;
#X connect 31 0 32 0;
#X connect 33 0 31 0;
#X restore 161 536 pd put;
#N canvas 716 134 755 648 get 0;
#X text 514 17 Initialize here:;
#X obj 301 215 t a;
#X obj 301 270 t a;
#X obj 301 325 t a;
#X obj 301 350 s radio-test;
#X text 34 137 Here is an entire 3x3 matrix made of put messages and toggles:;
#X text 154 30 The "get" message;
#X msg 70 453 get -1 0;
#X obj 71 530 s radio-test;
#X msg 95 478 get -1 1;
#X msg 118 502 get -1 2;
#X msg 101 195 get 0 0;
#X msg 163 195 get 1 0;
#X msg 228 195 get 2 0;
#X msg 102 250 get 0 1;
#X msg 164 250 get 1 1;
#X msg 229 250 get 2 1;
#X msg 102 305 get 0 2;
#X msg 164 305 get 1 2;
#X msg 229 305 get 2 2;
#X text 40 62 This message allows you to get values on a given column/row combination individually \, independently from orientation. The arguments are "column" "row" indices.;
#X msg 498 38 \; radio-test number 1 \, resize 3 3 \, 1 0 1 1 1 1 0 0 0, f 32;
#X obj 270 535 s radio-test;
#X msg 266 458 get 0 -1;
#X msg 281 484 get 1 -1;
#X msg 302 511 get 2 -1;
#X text 236 407 "get index -1" acts as "column" with one argument:, f 29;
#X text 50 407 "get -1" acts as row with one argument:, f 21;
#X msg 510 481 get -1 -1;
#X obj 510 514 s radio-test;
#X text 54 573 See also "row" \, "column" \, and "readline" for similar behavior.;
#X text 492 412 "get -1 -1" acts as "dump";
#X obj 503 192 r radio-test-out;
#X floatatom 503 242 5 0 0 0 - - - 0;
#X obj 503 217 route float list;
#X listbox 560 261 20 0 0 0 - - - 0;
#X obj 473 240 bng 20 250 50 0 empty empty empty 0 -10 0 12 #fcfcfc #000000 #000000;
#X connect 1 0 2 0;
#X connect 2 0 3 0;
#X connect 3 0 4 0;
#X connect 7 0 8 0;
#X connect 9 0 8 0;
#X connect 10 0 8 0;
#X connect 11 0 1 0;
#X connect 12 0 1 0;
#X connect 13 0 1 0;
#X connect 14 0 2 0;
#X connect 15 0 2 0;
#X connect 16 0 2 0;
#X connect 17 0 3 0;
#X connect 18 0 3 0;
#X connect 19 0 3 0;
#X connect 23 0 22 0;
#X connect 24 0 22 0;
#X connect 25 0 22 0;
#X connect 28 0 29 0;
#X connect 32 0 34 0;
#X connect 34 0 33 0;
#X connect 34 0 36 0;
#X connect 34 1 35 0;
#X restore 37 512 pd get;
#N canvas 734 178 450 495 next/prev/step 0;
#X obj 163 272 s radio-test;
#X msg 89 182 next;
#X msg 134 185 step 1;
#X msg 188 224 prev;
#X msg 252 222 step -1;
#X text 56 23 The "step" \, "next" \, and "prev" messages;
#X text 18 70 The "step" message adds the given argument to the current number. The "next" message is equivalent to "step 1" \, and likewise \, the "prev" message is equivalent to "step -1".;
#X text 16 135 The number is bound to the orientation axis.;
#X obj 148 432 s radio-test;
#X msg 131 369 step 0.4;
#X text 52 325 You can also specify any number for a step:;
#X msg 215 391 step -0.7;
#X connect 1 0 0 0;
#X connect 2 0 0 0;
#X connect 3 0 0 0;
#X connect 4 0 0 0;
#X connect 9 0 8 0;
#X connect 11 0 8 0;
#X restore 65 671 pd next/prev/step;
#N canvas 696 222 682 425 dump 0;
#X obj 39 285 s radio-test;
#X text 470 26 Initialize here:;
#X msg 454 47 \; radio-test number 1 \, resize 3 3 \, orientation 0 \, 1 1 1, f 26;
#X obj 456 244 r my-receiver;
#X text 15 57 Outputs the entire matrix as a list in row-major order., f 58;
#X text 15 77 An optional symbol can be passed to send the list to that symbol only. Otherwise \, the output is sent to the outlet and the internal send-symbol.;
#X text 245 237 optional symbol sends to -->;
#X listbox 456 269 25 0 0 0 - - - 0;
#X text 181 22 The "dump" message;
#X text 445 142 NOTE: for column-major order simply change the orientation before sending a "dump" message, f 29;
#X msg 38 156 dump;
#X msg 235 211 dump my-receiver;
#X obj 508 358 text;
#X obj 571 358 text set;
#X text 387 320 This is useful to save the contents of the matrix in a text file using, f 27;
#X obj 39 340 r radio-test-out;
#X obj 39 365 route list;
#X listbox 39 390 20 0 0 0 - - - 0;
#X connect 3 0 7 0;
#X connect 10 0 0 0;
#X connect 11 0 0 0;
#X connect 15 0 16 0;
#X connect 16 0 17 0;
#X restore 37 488 pd dump;
#N canvas 712 214 891 609 border_mode 0;
#X obj 520 365 s radio-test;
#X text 554 18 Initialize here:;
#X obj 167 410 s radio-test;
#X obj 155 249 s radio-test;
#X msg 133 217 border_mode 0;
#X msg 149 377 border_mode 1;
#X msg 518 152 next;
#X msg 581 150 prev;
#X text 172 25 The "border_mode" message;
#X obj 568 431 r radio-test-out;
#X obj 568 456 route float;
#X floatatom 568 481 5 0 0 0 - - - 0;
#X msg 538 39 \; radio-test number 1 \, set 0 \, resize 8 1, f 26;
#X msg 637 211 step 3;
#X text 518 125 +1;
#X text 585 124 -1;
#X text 637 183 +3;
#X text 35 57 This message allows you to change the behavior of the radio when the filled square reaches the borders and you send "next" \, "prev" \, or "step" messages;
#X msg 638 275 step 0.4;
#X text 38 296 Setting "border_mode" to "1" acts as a modulo operator \, so the filled square loops inside.;
#X text 636 253 +0.4;
#X floatatom 374 377 5 0 0 0 - - - 0;
#X obj 374 401 mod 8;
#X floatatom 374 426 5 0 0 0 - - - 0;
#X text 349 354 similar to:;
#X text 523 407 See the value here:;
#X text 635 163 But \, any step will do:;
#X text 513 106 The usual single-steps "next" and "prev":;
#X text 37 138 Setting "border_mode" to "0" limits the filled square to the bounding box \, so it stays either at the first or at the last square depending on the direction:;
#X text 704 274 can also step floats;
#X text 43 495 NOTE: "border_mode" has no effect on incoming floats;
#X text 637 301 -0.6;
#X msg 639 323 step -0.6;
#X connect 4 0 3 0;
#X connect 5 0 2 0;
#X connect 6 0 0 0;
#X connect 7 0 0 0;
#X connect 9 0 10 0;
#X connect 10 0 11 0;
#X connect 13 0 0 0;
#X connect 18 0 0 0;
#X connect 21 0 22 0;
#X connect 22 0 23 0;
#X connect 32 0 0 0;
#X restore 162 319 pd border_mode;
#X text 162 438 Writing values:;
#X text 28 440 Reading values:;
#X text 38 110 (also all iemgui messages);
#X text 18 64 Same messages as before:;
#X text 41 88 bang \, float \, set;
#X text 24 410 Interaction with the internal matrix:;
#X text 21 190 Changing the size;
#X text 39 641 Getting values by index;
#X text 29 266 Changing internal behavior;
#X text 29 571 Reading and writing (aliases):;
#X text 25 16 NOTE: All following subpatches use the matrix on the main patch., f 43;
#N canvas 683 101 575 763 adding-removing 0;
#X obj 143 367 s radio-test;
#X msg 77 222 1;
#X msg 109 254 -1;
#X msg 77 307 add_row \$1;
#X msg 210 227 1;
#X msg 247 254 -1;
#X msg 210 308 add_column \$1;
#X text 196 30 Adding / Removing lines;
#X text 49 83 You can send the "add_row" or "add_column" messages with an integer argument to change the number of rows/columns by adding the argument to the current number of rows/columns. If the number is negative \, then the row/column is deleted.;
#X text 49 161 The internal position of toggles or multiple indices is kept.;
#X obj 163 659 s radio-test;
#X obj 222 555 tgl 20 0 empty empty empty 0 -10 0 12 #fcfcfc #000000 #000000 0 1;
#X obj 162 592 pack f 0;
#X msg 162 507 1;
#X msg 178 543 -1;
#X msg 163 625 add_line \$1 \$2;
#X text 42 438 "add_line" is the message under the hood \, which you can also send to the object. It accepts an axis argument (either horizontal 0 or vertical 1) and the number to use for the addition.;
#X text 254 552 0: horizontal;
#X text 254 569 1: vertical;
#X connect 1 0 3 0;
#X connect 2 0 3 0;
#X connect 3 0 0 0;
#X connect 4 0 6 0;
#X connect 5 0 6 0;
#X connect 6 0 0 0;
#X connect 11 0 12 1;
#X connect 12 0 15 0;
#X connect 13 0 12 0;
#X connect 14 0 12 0;
#X connect 15 0 10 0;
#X restore 130 222 pd adding-removing;
#N canvas 773 82 713 752 modes 0;
#X msg 518 346 mode \$1;
#X obj 518 371 s radio-test;
#X msg 518 312 1;
#X text 551 311 single;
#X text 219 39 Modes;
#X text 47 221 When there are 2 dimensions in the default mode 0 \, then a click on any of the opposit axis lines will move the filled square to that line while remaining on the first.;
#X text 199 296 single (1);
#X text 196 143 default (0);
#X text 192 441 multiple (2);
#X text 48 164 The "default" mode allows only one filled square per line. This follows the original radio behavior of the single-dimensional radio.;
#X text 50 324 The "single" mode allows only one filled square \, like before \, but this time it can freely move to any cell. If this is a single-dimensional radio \, it behaves as the default mode. However \, if there are 2 dimensions \, then the filled square can jump anywhere.;
#X obj 517 545 s radio-test;
#X msg 517 465 resize 2 3 \, mode 2;
#X obj 524 491 tgl 20 0 empty empty empty 0 -10 0 12 #fcfcfc #000000 #000000 0 1;
#X msg 524 516 orientation \$1;
#X text 46 469 The "multiple" mode only works on two-dimensional matrices \, and allows for as many filled squares as the opposite axis to the orientation can hold. In a (2 \, 3) matrix with 2 columns and 3 rows \, a horizontal mode allows for 3 filled squares (3 rows) \, but a vertical mode allows for 2 filled squares (2 columns).;
#X text 193 596 disable (-1);
#X msg 514 658 mode \$1;
#X obj 514 683 s radio-test;
#X msg 514 627 -1;
#X text 547 630 disable;
#X msg 518 208 mode \$1;
#X obj 518 233 s radio-test;
#X text 551 173 line (default);
#X msg 518 174 0;
#X msg 490 22 \; radio-test resize 3 3 \, orientation 0 \, output_mode 0 \, clear \, mode 0, f 25;
#X text 40 275 -----------------------------------------------------------------------------------------, f 92;
#X text 46 417 -----------------------------------------------------------------------------------------, f 92;
#X text 45 570 -----------------------------------------------------------------------------------------, f 92;
#X text 52 629 The "disable" mode removes the filled square. NOTE: At the same time \, it enables the toggle mode \, and allows for normal-clicking (ie. \, without "shift") to set the toggles on the matrix. The internal place of the filled square is kept in memory.;
#N canvas 685 104 589 664 indices 0;
#X obj 73 604 s radio-test;
#X obj 123 534 tgl 20 0 empty empty empty 0 -10 0 12 #fcfcfc #000000 #000000 0 1;
#X msg 123 559 orientation \$1;
#X obj 67 365 s radio-test;
#X msg 67 185 1 0 2;
#X obj 67 313 list prepend indices;
#X obj 67 338 list trim;
#X msg 105 216 0 1 3 1;
#X msg 139 277 0 0;
#X msg 129 246 0 2 0 1 0 0 1 2 3 4 5;
#X text 205 39 Indices;
#X text 53 99 When we have "multiple" mode (2) \, we can send an "indices" message to set the index value of every filled square. Partial lists are allowed \, but larger lists spit out a warning message with the ignored values.;
#X msg 73 469 resize 3 8;
#X msg 98 500 resize 8 3;
#X msg 366 20 \; radio-test resize 3 8 \, orientation 0 \, output_mode 2 \, mode 2, f 25;
#X text 50 407 Change the orientation/size and see different possibilities for the indices:;
#X connect 1 0 2 0;
#X connect 2 0 0 0;
#X connect 4 0 5 0;
#X connect 5 0 6 0;
#X connect 6 0 3 0;
#X connect 7 0 5 0;
#X connect 8 0 5 0;
#X connect 9 0 5 0;
#X connect 12 0 0 0;
#X connect 13 0 0 0;
#X restore 386 441 pd indices;
#X msg 512 711 \; pd-toggle_mode vis 1;
#X obj 448 712 bng 20 250 50 0 empty empty empty 0 -10 0 12 #fcfcfc #000000 #000000;
#X text 368 709 see here;
#X connect 0 0 1 0;
#X connect 2 0 0 0;
#X connect 12 0 11 0;
#X connect 13 0 14 0;
#X connect 14 0 11 0;
#X connect 17 0 18 0;
#X connect 19 0 17 0;
#X connect 21 0 22 0;
#X connect 24 0 21 0;
#X connect 32 0 31 0;
#X restore 44 296 pd modes;
#X text 21 340 Toggle matrix;
#X text 21 357 ----------------------------------------------;
#N canvas 0 0 450 300 toggle_mode 0;
#X msg 87 112 1;
#X msg 118 164 toggle_mode \$1;
#X obj 118 189 s radio-test;
#X msg 226 128 0;
#X text 31 55 The toggles can be enabled or disabled (default) with the "toggle_mode" message.;
#X text 122 24 Toggle mode;
#X connect 0 0 1 0;
#X connect 1 0 2 0;
#X connect 3 0 1 0;
#X restore 37 376 pd toggle_mode;
#N canvas 979 178 544 395 matrix 0;
#X msg 39 135 matrix 4 4;
#X obj 36 299 s radio-test;
#X msg 77 188 matrix 3 4;
#X msg 103 251 matrix 3 3 1 0 0 0 1 0 0 0 1;
#X text 39 57 The "matrix" selector takes nrows ncols and a list of elements. This is meant to be used in conjunction with the iemmatrix library;
#X text 253 25 MATRIX;
#X text 131 222 this is the equivalent of an "eye" matrix;
#X connect 0 0 1 0;
#X connect 2 0 1 0;
#X connect 3 0 1 0;
#X restore 165 376 pd matrix;
#X restore 190 502 pd messages;
#X floatatom 195 438 5 0 0 0 float\ output - - 0;
#X obj 350 465 print;
#N canvas 676 85 673 650 overtones 0;
#X listbox 161 313 5 0 0 0 - - - 0;
#X obj 161 257 r radio-test-out;
#X obj 32 60 tgl 20 0 empty empty empty 0 -10 0 12 #fcfcfc #000000 #000000 0 1;
#X obj 32 88 switch~;
#X obj 217 555 output~;
#X text 76 60 <-- turn the audio on for this patch;
#X text 351 573 <-- turn volume up;
#N canvas 994 245 532 684 simple-automation 0;
#X obj 40 80 metro 1000;
#X obj 40 44 tgl 20 0 empty empty empty 0 -10 0 12 #fcfcfc #000000 #000000 0 1;
#X obj 105 262 int 5;
#X obj 105 287 until;
#X msg 105 341 append \$1;
#X obj 105 313 random 4;
#X obj 43 373 list store;
#X listbox 40 400 11 0 0 0 - - - 0;
#X obj 40 457 list prepend indices;
#X obj 40 482 list trim;
#X obj 124 620 s radio-test;
#X obj 92 540 t b a;
#X obj 40 278 t b b;
#X obj 40 155 t b f;
#X floatatom 135 86 5 0 0 0 - - - 0;
#X floatatom 139 110 5 0 0 0 - - - 0;
#X obj 40 428 t a b;
#X obj 39 13 inlet;
#X text 211 28 This simply automates a list of 5 indices of random values between 0 and 4, f 30;
#X text 235 582 <-- this message dumps the indices out of the object after we set them, f 36;
#X obj 286 340 random 5;
#X obj 286 371 t f b;
#X obj 286 415 pack;
#X msg 284 474 index \$1 \$2;
#X obj 327 406 random 4;
#X obj 285 305 bng 20 250 50 0 empty empty empty 0 -10 0 12 #fcfcfc #000000 #000000;
#X msg 44 583 dump_indices get-indices;
#X obj 40 130 + 250;
#X obj 332 114 r get-indices;
#X obj 40 105 random 500;
#X obj 40 205 moses 3;
#X obj 40 180 random 10;
#X listbox 286 443 5 0 0 0 - - - 0;
#X listbox 332 151 20 0 0 0 - - - 0;
#X msg 332 183 \; note-0-trigger \$1 \; note-1-trigger \$2 \; note-2-trigger \$3 \; note-3-trigger \$4 \; note-4-trigger \$5;
#X obj 40 242 bng 20 250 50 0 empty empty empty 0 -10 0 12 #fcfcfc #000000 #000000;
#X text 280 502 or update each index individually, f 20;
#X text 91 420 update all indices at once, f 15;
#X connect 0 0 29 0;
#X connect 1 0 0 0;
#X connect 2 0 3 0;
#X connect 3 0 5 0;
#X connect 4 0 6 0;
#X connect 5 0 4 0;
#X connect 6 0 7 0;
#X connect 7 0 16 0;
#X connect 8 0 9 0;
#X connect 9 0 11 0;
#X connect 11 0 26 0;
#X connect 11 1 10 0;
#X connect 12 0 6 0;
#X connect 12 1 2 0;
#X connect 13 0 31 0;
#X connect 13 1 0 1;
#X connect 14 0 29 1;
#X connect 15 0 27 1;
#X connect 16 0 8 0;
#X connect 16 1 6 1;
#X connect 17 0 1 0;
#X connect 20 0 21 0;
#X connect 21 0 22 0;
#X connect 21 1 24 0;
#X connect 22 0 32 0;
#X connect 23 0 11 0;
#X connect 24 0 22 1;
#X connect 25 0 20 0;
#X connect 26 0 10 0;
#X connect 27 0 13 0;
#X connect 28 0 33 0;
#X connect 29 0 27 0;
#X connect 30 0 35 0;
#X connect 30 1 25 0;
#X connect 31 0 30 0;
#X connect 32 0 23 0;
#X connect 33 0 34 0;
#X connect 35 0 12 0;
#X restore 397 391 pd simple-automation;
#X obj 407 346 tgl 20 0 empty empty empty 0 -10 0 12 #fcfcfc #000000 #000000 0 1;
#X text 137 27 A FIXED CHORD WITH SELECTABLE HARMONICS;
#X text 520 21 Initialize;
#X text 31 194 To change harmonics \, click on the radio selectors on the main patch to enable different harmonics on each note.;
#X text 29 122 Each stacked radio represents one note in a fixed 5-note chord. Every note on that chord can be switched to an overtone on its harmonic series depending on the selected index.;
#X msg 469 44 \; radio-test resize 4 5 \, orientation 0 \, mode 2 \, toggle_mode 0 \, output_mode 2 \, indices 0 0 0 0 0 \, dump_indices get-indices, f 23;
#X obj 162 282 spigot 1;
#X obj 225 283 tgl 20 0 empty empty empty 0 -10 0 12 #fcfcfc #000000 #000000 0 1;
#X obj 248 283 ==;
#X obj 217 524 rev3~ 118 75 2500 15;
#X obj 218 492 *~ 0.1;
#X obj 217 464 catch~ note-mix;
#X obj 46 375 loadbang;
#X msg 46 400 \; notes-pitch 60;
#N canvas 190 221 512 334 note 0;
#X obj 81 215 osc~;
#X obj 240 196 vline~;
#X obj 240 221 *~;
#X obj 81 240 *~;
#X obj 191 114 + 1;
#X obj 81 186 *~;
#X obj 191 64 change;
#X obj 191 90 t f b;
#X msg 240 173 1 3 \, 0 1000 4;
#X obj 191 165 vline~;
#X obj 81 270 throw~ note-mix;
#X obj 191 32 r note-0-trigger;
#X obj 81 93 + 0;
#X obj 81 153 mtof;
#X obj 81 32 r notes-pitch;
#X connect 0 0 3 0;
#X connect 1 0 2 0;
#X connect 1 0 2 1;
#X connect 2 0 3 1;
#X connect 3 0 10 0;
#X connect 4 0 9 0;
#X connect 5 0 0 0;
#X connect 6 0 7 0;
#X connect 7 0 4 0;
#X connect 7 1 8 0;
#X connect 8 0 1 0;
#X connect 9 0 5 1;
#X connect 11 0 6 0;
#X connect 12 0 13 0;
#X connect 13 0 5 0;
#X connect 14 0 12 0;
#X restore 47 461 pd note 0;
#N canvas 190 221 512 334 note 0;
#X obj 81 215 osc~;
#X obj 240 196 vline~;
#X obj 240 221 *~;
#X obj 81 240 *~;
#X obj 191 114 + 1;
#X obj 81 186 *~;
#X obj 191 64 change;
#X obj 191 90 t f b;
#X msg 240 173 1 3 \, 0 1000 4;
#X obj 191 165 vline~;
#X obj 81 270 throw~ note-mix;
#X obj 81 153 mtof;
#X obj 191 32 r note-1-trigger;
#X obj 81 93 + 4;
#X obj 81 32 r notes-pitch;
#X connect 0 0 3 0;
#X connect 1 0 2 0;
#X connect 1 0 2 1;
#X connect 2 0 3 1;
#X connect 3 0 10 0;
#X connect 4 0 9 0;
#X connect 5 0 0 0;
#X connect 6 0 7 0;
#X connect 7 0 4 0;
#X connect 7 1 8 0;
#X connect 8 0 1 0;
#X connect 9 0 5 1;
#X connect 11 0 5 0;
#X connect 12 0 6 0;
#X connect 13 0 11 0;
#X connect 14 0 13 0;
#X restore 47 485 pd note 1;
#N canvas 190 221 512 334 note 0;
#X obj 81 215 osc~;
#X obj 240 196 vline~;
#X obj 240 221 *~;
#X obj 81 240 *~;
#X obj 191 114 + 1;
#X obj 81 186 *~;
#X obj 191 64 change;
#X obj 191 90 t f b;
#X msg 240 173 1 3 \, 0 1000 4;
#X obj 191 165 vline~;
#X obj 81 270 throw~ note-mix;
#X obj 81 153 mtof;
#X obj 191 32 r note-2-trigger;
#X obj 81 93 + 7;
#X obj 81 32 r notes-pitch;
#X connect 0 0 3 0;
#X connect 1 0 2 0;
#X connect 1 0 2 1;
#X connect 2 0 3 1;
#X connect 3 0 10 0;
#X connect 4 0 9 0;
#X connect 5 0 0 0;
#X connect 6 0 7 0;
#X connect 7 0 4 0;
#X connect 7 1 8 0;
#X connect 8 0 1 0;
#X connect 9 0 5 1;
#X connect 11 0 5 0;
#X connect 12 0 6 0;
#X connect 13 0 11 0;
#X connect 14 0 13 0;
#X restore 47 509 pd note 2;
#N canvas 190 221 512 334 note 0;
#X obj 81 215 osc~;
#X obj 240 196 vline~;
#X obj 240 221 *~;
#X obj 81 240 *~;
#X obj 191 114 + 1;
#X obj 81 186 *~;
#X obj 191 64 change;
#X obj 191 90 t f b;
#X msg 240 173 1 3 \, 0 1000 4;
#X obj 191 165 vline~;
#X obj 81 270 throw~ note-mix;
#X obj 81 153 mtof;
#X obj 191 32 r note-3-trigger;
#X obj 81 93 + 11;
#X obj 81 32 r notes-pitch;
#X connect 0 0 3 0;
#X connect 1 0 2 0;
#X connect 1 0 2 1;
#X connect 2 0 3 1;
#X connect 3 0 10 0;
#X connect 4 0 9 0;
#X connect 5 0 0 0;
#X connect 6 0 7 0;
#X connect 7 0 4 0;
#X connect 7 1 8 0;
#X connect 8 0 1 0;
#X connect 9 0 5 1;
#X connect 11 0 5 0;
#X connect 12 0 6 0;
#X connect 13 0 11 0;
#X connect 14 0 13 0;
#X restore 47 533 pd note 3;
#N canvas 190 221 512 334 note 0;
#X obj 81 215 osc~;
#X obj 240 196 vline~;
#X obj 240 221 *~;
#X obj 81 240 *~;
#X obj 191 114 + 1;
#X obj 81 186 *~;
#X obj 191 64 change;
#X obj 191 90 t f b;
#X msg 240 173 1 3 \, 0 1000 4;
#X obj 191 165 vline~;
#X obj 81 270 throw~ note-mix;
#X obj 81 153 mtof;
#X obj 191 32 r note-4-trigger;
#X obj 81 93 + 14;
#X obj 81 32 r notes-pitch;
#X connect 0 0 3 0;
#X connect 1 0 2 0;
#X connect 1 0 2 1;
#X connect 2 0 3 1;
#X connect 3 0 10 0;
#X connect 4 0 9 0;
#X connect 5 0 0 0;
#X connect 6 0 7 0;
#X connect 7 0 4 0;
#X connect 7 1 8 0;
#X connect 8 0 1 0;
#X connect 9 0 5 1;
#X connect 11 0 5 0;
#X connect 12 0 6 0;
#X connect 13 0 11 0;
#X connect 14 0 13 0;
#X restore 47 557 pd note 4;
#X text 399 284 This will make all indices change automatically:, f 18;
#X msg 156 337 \; note-\$1-trigger \$2;
#X connect 0 0 28 0;
#X connect 1 0 14 0;
#X connect 2 0 3 0;
#X connect 8 0 7 0;
#X connect 8 0 16 0;
#X connect 14 0 0 0;
#X connect 15 0 14 1;
#X connect 16 0 15 0;
#X connect 17 0 4 0;
#X connect 18 0 17 0;
#X connect 19 0 18 0;
#X connect 20 0 21 0;
#X restore 371 555 pd overtones;
#X connect 12 0 14 0;
#X connect 13 0 18 0;
#X connect 14 0 17 0;
#X connect 14 1 13 0;
