#N canvas 182 263 726 378 12;
#X obj 68 211 metro 500;
#X obj 68 186 r metro;
#X msg 575 106 \; metro 0;
#X msg 574 48 \; pd dsp 1 \; metro 1;
#X floatatom 52 112 0 0 0 0 - - -;
#X floatatom 52 268 0 0 0 0 - - -;
#X obj 574 21 loadbang;
#X obj 52 235 snapshot~;
#X floatatom 51 351 9 0 0 0 - - -, f 9;
#X obj 51 295 t f f;
#X obj 51 322 *;
#X obj 52 138 sig~;
#X obj 36 16 rsqrt~;
#X text 105 14 - signal reciprocal square root;
#X text 18 45 rsqrt~ takes the approximate reciprocal square root of
the incoming signal \, using a fast \, approximate algorithm which
is probably accurate to about 120 dB (20 bits).;
#X obj 52 162 rsqrt~;
#X text 226 196 An older object \, q8_sqrt \, is included in Pd for
back compatibilty but should probably not be used. It only gives about
8 bit accuracy., f 45;
#X text 434 332 updated for Pd version 0.47.;
#X connect 0 0 7 0;
#X connect 1 0 0 0;
#X connect 1 0 0 0;
#X connect 4 0 11 0;
#X connect 5 0 9 0;
#X connect 6 0 3 0;
#X connect 7 0 5 0;
#X connect 9 0 10 0;
#X connect 9 1 10 1;
#X connect 10 0 8 0;
#X connect 11 0 15 0;
#X connect 15 0 7 0;
