#N canvas 545 49 500 694 12;
#X obj 53 15 send;
#X obj 31 109 send help-send1;
#X obj 177 110 send help-send1;
#X obj 326 110 send help-send2;
#X obj 33 139 receive help-send1;
#X obj 196 139 receive help-send2;
#X obj 360 139 receive help-send2;
#X floatatom 31 84 5 0 0 0 - - -;
#X floatatom 177 87 5 0 0 0 - - -;
#X floatatom 327 86 5 0 0 0 - - -;
#X floatatom 33 163 5 0 0 0 - - -;
#X floatatom 196 165 5 0 0 0 - - -;
#X floatatom 360 163 5 0 0 0 - - -;
#X obj 60 41 s;
#X text 32 204 "Send" sends messages to "receive" objects. Sends and
receives are named to tell them whom to connect to. They work across
windows too. Also \, you can use message boxes as shown:;
#X msg 117 263 \; help-send1 34 \; help-send2 67;
#X obj 124 457 send;
#X msg 178 402 symbol help-send1;
#X msg 191 431 symbol help-send2;
#X floatatom 124 424 3 0 0 0 - - -;
#X symbolatom 178 460 10 0 0 0 - - -;
#X text 31 346 If invoked without an argument \, "send" creates an
inlet to let you set the target via "symbol" messages:;
#X obj 373 575 value y;
#X obj 299 596 send y;
#X floatatom 299 568 5 0 0 0 - - -;
#X obj 373 548 bng 15 250 50 0 empty empty empty 17 7 0 10 -262144
-1 -1;
#X floatatom 373 608 5 0 0 0 - - -;
#X text 256 646 updated for Pd version 0.48;
#X text 54 576 see also:;
#X obj 57 603 value;
#X obj 109 603 float;
#X text 39 513 The [value] object receives float values for variables
with the same name.;
#X text 92 16 - send messages without patch cords;
#X text 92 42 - abbreviation;
#X obj 158 603 receive;
#X obj 57 632 send~;
#X connect 4 0 10 0;
#X connect 5 0 11 0;
#X connect 6 0 12 0;
#X connect 7 0 1 0;
#X connect 8 0 2 0;
#X connect 9 0 3 0;
#X connect 17 0 20 0;
#X connect 18 0 20 0;
#X connect 19 0 16 0;
#X connect 20 0 16 1;
#X connect 22 0 26 0;
#X connect 24 0 23 0;
#X connect 25 0 22 0;
