#N canvas 659 45 833 715 12;
#X obj 30 184 +~;
#X obj 167 184 -~;
#X obj 294 184 *~;
#X obj 429 184 /~;
#X obj 116 22 +~;
#X obj 151 22 -~;
#X obj 184 21 *~;
#X obj 218 21 /~;
#N canvas 0 22 450 278 (subpatch) 0;
#X array array1 100 float 0;
#X coords 0 2 100 -2 350 250 1 0 0;
#X restore 58 319 graph;
#X obj 429 256 tabwrite~ array1;
#X obj 30 256 tabwrite~ array1;
#X obj 167 256 tabwrite~ array1;
#X obj 294 256 tabwrite~ array1;
#X obj 167 78 osc~ 440;
#X obj 251 20 max~;
#X obj 293 20 min~;
#X text 564 645 modified for Pd version 0.27;
#X obj 688 256 tabwrite~ array1;
#X obj 563 256 tabwrite~ array1;
#X obj 563 184 max~;
#X obj 688 184 min~;
#X obj 627 461 +~ 5;
#X msg 474 499 \; pd dsp 1;
#X text 341 19 - operators on audio signals;
#X text 54 590 see also:;
#X obj 58 616 +;
#X floatatom 652 435 5 0 0 0 - - - 0;
#X text 489 335 These objects combine two signals as above \, or \,
if you give a numeric argument \, the right inlet only takes floats
(no signals) and the argument initializes the right inlet value:,
f 36;
#X obj 447 78 sig~ 2;
#X obj 48 78 sig~ 1;
#X obj 588 78 sig~ 0.5;
#X obj 49 224 bng 18 250 50 0 empty empty empty 17 7 0 10 #fcfcfc #000000
#000000;
#X obj 189 224 bng 18 250 50 0 empty empty empty 17 7 0 10 #fcfcfc
#000000 #000000;
#X obj 315 224 bng 18 250 50 0 empty empty empty 17 7 0 10 #fcfcfc
#000000 #000000;
#X obj 445 224 bng 18 250 50 0 empty empty empty 17 7 0 10 #fcfcfc
#000000 #000000;
#X obj 585 224 bng 18 250 50 0 empty empty empty 17 7 0 10 #fcfcfc
#000000 #000000;
#X obj 705 224 bng 18 250 50 0 empty empty empty 17 7 0 10 #fcfcfc
#000000 #000000;
#X text 41 313 2;
#X text 34 557 -2;
#X text 40 435 0;
#X obj 474 469 loadbang;
#X text 89 616 (etc.) - control arithmetic operators;
#X obj 58 641 cos~;
#X obj 96 641 wrap~;
#X obj 139 641 abs~;
#X obj 176 641 sqrt~;
#X obj 221 641 exp~;
#X obj 258 641 log~;
#X obj 296 641 pow~;
#X obj 58 669 expr~;
#X text 106 669 - evaluate expressions on audio signals;
#X text 334 641 - audio math objects;
#X connect 0 0 10 0;
#X connect 1 0 11 0;
#X connect 2 0 12 0;
#X connect 3 0 9 0;
#X connect 13 0 0 0;
#X connect 13 0 1 0;
#X connect 13 0 3 0;
#X connect 13 0 2 0;
#X connect 13 0 19 0;
#X connect 13 0 20 0;
#X connect 19 0 18 0;
#X connect 20 0 17 0;
#X connect 26 0 21 1;
#X connect 28 0 3 1;
#X connect 28 0 2 1;
#X connect 29 0 1 1;
#X connect 29 0 0 1;
#X connect 30 0 19 1;
#X connect 30 0 20 1;
#X connect 31 0 10 0;
#X connect 32 0 11 0;
#X connect 33 0 12 0;
#X connect 34 0 9 0;
#X connect 35 0 18 0;
#X connect 36 0 17 0;
#X connect 40 0 22 0;
