#N canvas 437 86 551 343 12;
#X obj 51 17 spigot;
#X text 108 16 - pass or block messages;
#X msg 53 143 0.5 1000;
#X obj 70 286 print;
#X msg 80 196 walk the cat;
#X msg 70 168 bang;
#X text 145 226 control: nonzero to pass messages \, zero to stop them
;
#X text 280 296 updated for Pd version 0.38;
#X obj 109 230 tgl 15 0 empty empty empty 0 -6 0 8 #fcfcfc #000000
#000000 0 1;
#X text 146 253 optional arg sets the initial state (0 by default)
;
#X obj 70 253 spigot;
#X text 44 57 Spigot passes messages from its left inlet to its outlet
\, as long as a nonzero number is sent to its right inlet. When its
right inlet gets zero \, incoming messages are "blocked" i.e. \, ignored.
;
#X connect 2 0 10 0;
#X connect 4 0 10 0;
#X connect 5 0 10 0;
#X connect 8 0 10 1;
#X connect 10 0 3 0;
