#N canvas 594 69 536 464 12;
#X obj 119 187 metro 500;
#X floatatom 64 127 5 0 0 0 - - - 0;
#X floatatom 64 263 5 0 0 0 - - - 0;
#X obj 119 162 loadbang;
#X obj 50 11 sqrt~;
#X text 100 12 - signal square root;
#X obj 64 177 sqrt~;
#X obj 64 235 snapshot~;
#X floatatom 64 346 5 0 0 0 - - - 0;
#X obj 64 290 t f f;
#X obj 64 317 *;
#X obj 64 153 sig~;
#X text 50 58 sqrt~ takes the approximate square root of the incoming
signal \, using a fast \, approximate algorithm which is probably accurate
to about 120 dB (20 bits)., f 63;
#X text 303 397 updated for Pd version 0.47;
#X text 38 410 see also:;
#X obj 113 399 rsqrt~;
#X obj 166 399 sqrt;
#X obj 297 293 q8_sqrt~;
#X text 364 294 - deprecated;
#X text 182 238 An older object \, q8_sqrt~ \, is included in Pd for
back compatibility but should probably not be used. It only gives about
8 bit accuracy., f 45;
#X obj 205 399 expr~;
#X obj 113 424 exp~;
#X obj 150 424 log~;
#X obj 188 424 pow~;
#X text 286 151 DSP on/off;
#X obj 268 152 tgl 15 0 empty empty empty 17 7 0 10 #fcfcfc #000000
#000000 0 1;
#X msg 268 177 \; pd dsp \$1;
#X text 107 262 result;
#N canvas 722 152 442 203 reference 0;
#X obj 9 50 cnv 5 410 5 empty empty INLET: 8 18 0 13 #202020 #000000
0;
#X obj 9 95 cnv 2 410 2 empty empty OUTLET: 8 12 0 13 #202020 #000000
0;
#X obj 9 132 cnv 2 410 2 empty empty ARGUMENTS: 8 12 0 13 #202020 #000000
0;
#X obj 8 167 cnv 5 410 5 empty empty empty 8 18 0 13 #202020 #000000
0;
#X text 125 141 NONE, f 36;
#X obj 41 13 sqrt~;
#X text 91 14 - signal square root;
#X text 105 65 signal - input to square root function.;
#X text 105 105 signal - output of square root function.;
#X restore 319 12 pd reference;
#X text 416 12 <= click;
#X obj 14 44 cnv 1 510 1 empty empty empty 8 12 0 13 #000000 #000000
0;
#X obj 14 384 cnv 1 510 1 empty empty empty 8 12 0 13 #000000 #000000
0;
#X connect 0 0 7 0;
#X connect 1 0 11 0;
#X connect 2 0 9 0;
#X connect 3 0 0 0;
#X connect 6 0 7 0;
#X connect 7 0 2 0;
#X connect 9 0 10 0;
#X connect 9 1 10 1;
#X connect 10 0 8 0;
#X connect 11 0 6 0;
#X connect 25 0 26 0;
