#N canvas 725 45 529 619 12;
#X obj 31 27 tabsend~;
#X text 299 579 updated for Pd version 0.43;
#X text 159 293 creation argument: initializes table name;
#N canvas 0 22 450 278 (subpatch) 0;
#X array table-1 64 float 0;
#X coords 0 1 63 -1 150 75 1 0 0;
#X restore 336 103 graph;
#X obj 38 193 osc~ 440;
#N canvas 0 22 450 278 (subpatch) 0;
#X array table-2 64 float 0;
#X coords 0 1 63 -1 150 75 1 0 0;
#X restore 335 200 graph;
#X msg 61 230 set table-1;
#X obj 38 292 tabsend~ table-1;
#X msg 161 172 \; pd dsp \$1;
#X obj 161 150 tgl 15 0 empty empty empty 17 7 0 10 -262144 -1 -1 0
1;
#X msg 69 255 set table-2;
#X text 161 232 use 'set' message to change table's name, f 20;
#N canvas 839 185 528 353 block 0;
#X obj 135 107 block~ 1024;
#X obj 67 153 noise~;
#X obj 67 189 tabsend~ buffer;
#X obj 248 224 array define buffer 1024;
#X text 245 179 arrays can also be defined with the array object.,
f 27;
#X text 426 225 <= click;
#X text 232 107 <=;
#X text 253 107 this subpatch runs with a block size of 1024 samples.
, f 27;
#X text 40 17 Unlike send~ and receive~ you can use tabsend~ and tabreceive~
to work with with block sizes different than 64 samples. This is useful
for working with FFT \, for instance. For that \, you need to change
the block size with the block~ object., f 62;
#X obj 67 229 tabreceive~ buffer;
#X obj 67 287 print~;
#X obj 87 259 bng 15 250 50 0 empty empty empty 17 7 0 10 -262144 -1
-1;
#X connect 1 0 2 0;
#X connect 9 0 10 0;
#X connect 11 0 10 0;
#X restore 143 457 pd block;
#X obj 410 508 block~;
#X obj 362 508 send~;
#X text 38 96 By default a block is 64 samples but this can be changed
with the block~ object., f 36;
#X obj 362 532 array;
#X text 119 26 - write a block of a signal to an array continuously
;
#X obj 31 50 tabreceive~;
#X text 119 50 - read a block of a signal from an array continuously
;
#X text 196 401 creation argument: initializes table name;
#X text 159 344 'set' message to change table name, f 17;
#X obj 49 401 tabreceive~ table-1;
#X msg 68 367 set table-1;
#X msg 49 341 set table-2;
#X obj 49 434 print~;
#X obj 21 401 bng 15 250 50 0 empty empty empty 17 7 0 10 -262144 -1
-1;
#X text 184 147 <= dsp on/off;
#X obj 410 532 tabwrite~;
#X text 212 457 <= example with a different block size;
#X text 41 514 see also the "array" tutorial in section 2 of the Pd
documentation \, and these objects:, f 43;
#X connect 4 0 7 0;
#X connect 6 0 7 0;
#X connect 9 0 8 0;
#X connect 10 0 7 0;
#X connect 22 0 25 0;
#X connect 23 0 22 0;
#X connect 24 0 22 0;
#X connect 26 0 25 0;
