#N canvas 462 23 596 551 12;
#X floatatom 244 130 6 0 0 0 - - - 0;
#X obj 488 159 sqrt;
#X obj 421 353 exp;
#X obj 244 159 abs;
#X floatatom 421 225 6 0 0 0 - - - 0;
#X obj 421 254 wrap;
#X text 18 453 see also:;
#X obj 97 454 abs~;
#X obj 53 15 sqrt;
#X obj 129 15 exp;
#X obj 25 15 abs;
#X obj 91 15 wrap;
#X obj 18 514 >;
#X obj 371 454 expr;
#X obj 293 487 +;
#X floatatom 421 324 6 0 0 0 - - - 0;
#X floatatom 488 128 6 0 0 0 - - - 0;
#X floatatom 244 189 6 0 0 0 - - - 0;
#X floatatom 421 284 6 0 0 0 - - - 0;
#X floatatom 421 383 6 0 0 0 - - - 0;
#X floatatom 488 189 6 0 0 0 - - - 0;
#N canvas 717 46 572 273 reference 0;
#X obj 8 171 cnv 2 550 2 empty empty OUTLET: 8 12 0 13 #202020 #000000 0;
#X obj 8 208 cnv 2 550 2 empty empty ARGUMENTS: 8 12 0 13 #202020 #000000 0;
#X obj 7 242 cnv 5 550 5 empty empty empty 8 18 0 13 #202020 #000000 0;
#X obj 25 80 sqrt;
#X obj 25 57 exp;
#X obj 25 32 abs;
#X obj 25 103 wrap;
#X text 149 216 NONE, f 5;
#X obj 8 133 cnv 5 550 5 empty empty INLETS: 8 18 0 13 #202020 #000000 0;
#X text 109 180 float - function result output.;
#X text 109 143 float - input value to the function and output result.;
#X text 71 30 - calculate absolute value function., f 66;
#X text 71 55 - calculate exponential function (raise to the power of 'e')., f 66;
#X text 71 80 - calculate square root function., f 66;
#X text 71 103 - calculate remainder of "modulo 1" (wrap input between 0 and 1)., f 66;
#X text 23 5 Control rate unary (one-input) operators:;
#X restore 410 15 pd reference;
#X text 508 16 <= click;
#X obj 6 46 cnv 1 585 1 empty empty empty 8 12 0 13 #000000 #000000 0;
#X obj 6 435 cnv 1 585 1 empty empty empty 8 12 0 13 #000000 #000000 0;
#X text 374 516 updated for Pd version 0.54;
#X obj 17 487 sin;
#X text 390 255 -->;
#X text 392 354 -->;
#X text 65 69 These objects are unary (single inlet) control rate math functions \, they include:, f 67;
#X text 161 15 - control unary operators;
#X text 324 488 (etc.) - binary arithmetic operators;
#X text 53 515 (etc.) - other binary operators;
#X text 53 487 (etc.) - trigonometric functions;
#X text 133 453 (etc.) - signal rate versions;
#X text 215 159 -->;
#X text 82 145 Absolute value (turn negative values to positive), f 20;
#X text 368 159 Square root -->;
#X text 112 247 Wrap the input to a value between 0-1 \, including negative numbers (where -0.2 maps to 0.8.), f 38;
#X text 112 346 Exponential: raise the Euler number 'e' (about 2.718) to the power of the input value., f 39;
#X connect 0 0 3 0;
#X connect 1 0 20 0;
#X connect 2 0 19 0;
#X connect 3 0 17 0;
#X connect 4 0 5 0;
#X connect 5 0 18 0;
#X connect 15 0 2 0;
#X connect 16 0 1 0;
