#N canvas 106 314 558 455 10;
#X obj 1 1 cnv 8 100 60 empty empty vdial=vdl 20 20 1 18 -262144 -1109
0;
#X text 13 390 (c) musil@iem.kug.ac.at;
#X text 55 403 IEM KUG;
#X text 132 122 click properties to;
#X text 120 133 modify geometry \, colors \, etc.;
#X obj 159 261 bng 15 250 50 0 empty empty empty 8 -8 0 10 -262144
-1 -1;
#X obj 21 54 bng 15 250 50 0 empty empty empty 8 -8 0 10 -262144 -1
-1;
#X msg 41 319 \$1;
#X floatatom 41 341 4 0 0;
#X obj 41 363 bng 15 250 50 0 empty empty empty 8 -8 0 10 -262144 -1
-1;
#X obj 86 338 tgl 12 0 empty empty empty 8 -8 0 10 -262144 -1 -1 0
1;
#X obj 86 317 route 0 1 2 3 4 5 6 7 8 9;
#X msg 194 92 set \$1;
#X floatatom 194 71 4 0 9;
#X floatatom 44 54 4 0 9;
#X msg 91 41 7 0 -5.44;
#X msg 95 63 3 3 4.55;
#X obj 103 338 tgl 12 0 empty empty empty 8 -8 0 10 -262144 -1 -1 0
1;
#X obj 120 338 tgl 12 0 empty empty empty 8 -8 0 10 -262144 -1 -1 1
1;
#X obj 137 338 tgl 12 0 empty empty empty 8 -8 0 10 -262144 -1 -1 0
1;
#X obj 154 338 tgl 12 0 empty empty empty 8 -8 0 10 -262144 -1 -1 0
1;
#X obj 171 338 tgl 12 0 empty empty empty 8 -8 0 10 -262144 -1 -1 0
1;
#X obj 188 338 tgl 12 0 empty empty empty 8 -8 0 10 -262144 -1 -1 0
1;
#X obj 205 338 tgl 12 0 empty empty empty 8 -8 0 10 -262144 -1 -1 0
1;
#X obj 222 338 tgl 12 0 empty empty empty 8 -8 0 10 -262144 -1 -1 0
1;
#X obj 239 338 tgl 12 0 empty empty empty 8 -8 0 10 -262144 -1 -1 0
1;
#X obj 79 355 print;
#X floatatom 183 287 4 0 0;
#X msg 183 261 \$1;
#X msg 158 192 set \$1;
#X floatatom 158 171 4 0 9;
#X text 125 355 UP- \, DOWN- \, LEFT- or RIGHT-key;
#X text 124 366 for moving selected gui-objects;
#N canvas 230 247 699 530 edit 0;
#X obj 42 198 f;
#X msg 20 177 bang;
#X floatatom 58 176 3 63 156;
#X floatatom 93 198 3 -20 37;
#X obj 42 221 pack 0 0;
#X text 120 198 y-label;
#X text 86 176 x-label;
#X floatatom 270 187 3 8 50;
#X text 297 187 size;
#X obj 286 293 f;
#X msg 264 272 bang;
#X floatatom 302 271 3 -10 10;
#X floatatom 337 293 3 -10 10;
#X obj 286 316 pack 0 0;
#X obj 300 412 f;
#X msg 278 391 bang;
#X floatatom 316 390 3 20 60;
#X floatatom 351 412 3 100 200;
#X obj 300 435 pack 0 0;
#X text 330 271 x-delta;
#X text 364 293 y-delta;
#X text 344 390 x-position;
#X text 378 412 y-position;
#X obj 62 313 f;
#X msg 40 292 bang;
#X floatatom 78 291 3 0 2;
#X floatatom 113 313 3 4 36;
#X obj 62 336 pack 0 0;
#X text 106 291 font;
#X text 142 313 height;
#X text 504 293 no init;
#X text 475 348 init value on loadbang;
#X floatatom 482 228 5 2 20;
#X text 491 417 changing-behavior;
#X text 526 228 number of buttons;
#X obj 47 104 pack 0 0 0;
#X obj 47 76 f;
#X msg 24 28 bang;
#X floatatom 63 26 3 0 29;
#X floatatom 79 46 3 0 29;
#X floatatom 112 62 3 0 29;
#X text 91 26 background;
#X text 106 46 front-color;
#X text 140 63 label-color;
#X msg 285 25 back;
#X msg 285 45 front;
#X msg 285 65 label;
#X msg 247 25 bang;
#N canvas 15 207 606 448 RGB_____________ 0;
#X obj 97 56 inlet;
#X obj 262 53 inlet;
#X obj 339 55 inlet;
#X obj 405 56 inlet;
#X obj 97 270 bang;
#X msg 77 295 0;
#X msg 104 295 1;
#X obj 146 268 bang;
#X msg 132 295 0;
#X msg 160 295 1;
#X obj 196 269 bang;
#X msg 187 295 0;
#X msg 214 295 1;
#X obj 265 313 spigot;
#X obj 312 313 spigot;
#X obj 359 313 spigot;
#X obj 249 385 outlet;
#X text 93 33 select;
#X text 267 28 red;
#X text 337 30 green;
#X text 409 30 blue;
#X obj 405 102 t b f;
#X obj 339 160 +;
#X obj 339 185 t b f;
#X obj 339 216 +;
#X obj 296 385 outlet;
#X obj 343 385 outlet;
#X obj 28 180 loadbang;
#X obj 97 135 route back front label bang;
#X obj 343 362 f;
#X obj 296 361 f;
#X obj 249 361 f;
#X obj 262 79 * -65536;
#X obj 339 80 * -256;
#X obj 405 80 * -1;
#X obj 339 247 - 1;
#X obj 235 168 t b b b b;
#X connect 0 0 28 0;
#X connect 1 0 32 0;
#X connect 2 0 33 0;
#X connect 3 0 34 0;
#X connect 4 0 5 0;
#X connect 4 0 6 0;
#X connect 5 0 14 1;
#X connect 5 0 15 1;
#X connect 6 0 13 1;
#X connect 7 0 8 0;
#X connect 7 0 9 0;
#X connect 8 0 13 1;
#X connect 8 0 15 1;
#X connect 9 0 14 1;
#X connect 10 0 11 0;
#X connect 10 0 12 0;
#X connect 11 0 13 1;
#X connect 11 0 14 1;
#X connect 12 0 15 1;
#X connect 13 0 31 1;
#X connect 14 0 30 1;
#X connect 15 0 29 1;
#X connect 21 0 22 0;
#X connect 21 1 22 1;
#X connect 22 0 23 0;
#X connect 23 0 24 0;
#X connect 23 1 24 1;
#X connect 24 0 35 0;
#X connect 27 0 6 0;
#X connect 28 0 4 0;
#X connect 28 1 7 0;
#X connect 28 2 10 0;
#X connect 28 3 36 0;
#X connect 29 0 26 0;
#X connect 30 0 25 0;
#X connect 31 0 16 0;
#X connect 32 0 24 0;
#X connect 33 0 22 0;
#X connect 34 0 21 0;
#X connect 35 0 15 0;
#X connect 35 0 14 0;
#X connect 35 0 13 0;
#X connect 36 0 31 0;
#X connect 36 1 30 0;
#X connect 36 2 29 0;
#X connect 36 3 35 0;
#X restore 285 86 pd RGB_____________;
#X floatatom 327 55 3 0 255;
#X floatatom 370 55 3 0 255;
#X floatatom 413 56 3 0 255;
#X text 34 0 preset-colors;
#X text 296 -3 RGB-colors;
#X text 327 37 red;
#X text 363 36 green;
#X text 411 36 blue;
#X msg 47 125 \; foo12_rcv color \$1 \$2 \$3;
#X msg 42 246 \; foo12_rcv label_pos \$1 \$2;
#X msg 62 361 \; foo12_rcv label_font \$1 \$2;
#X msg 34 423 \; foo12_rcv label blabla;
#X msg 34 459 \; foo12_rcv label vdial_0_9;
#X msg 300 460 \; foo12_rcv pos \$1 \$2;
#X msg 286 341 \; foo12_rcv delta \$1 \$2;
#X msg 270 216 \; foo12_rcv size \$1;
#X msg 483 50 \; foo12_rcv send foo12a_snd;
#X msg 483 88 \; foo12_rcv send foo12_snd;
#X msg 482 171 \; foo12a_rcv receive foo12_rcv;
#X msg 483 133 \; foo12_rcv receive foo12a_rcv;
#X msg 482 254 \; foo12_rcv number \$1;
#X msg 483 312 \; foo12_rcv init 0;
#X msg 485 366 \; foo12_rcv init 1;
#X msg 490 436 \; foo12_rcv single_change;
#X msg 490 470 \; foo12_rcv double_change;
#X connect 0 0 4 0;
#X connect 1 0 0 0;
#X connect 2 0 0 1;
#X connect 3 0 4 1;
#X connect 4 0 58 0;
#X connect 7 0 64 0;
#X connect 9 0 13 0;
#X connect 10 0 9 0;
#X connect 11 0 9 1;
#X connect 12 0 13 1;
#X connect 13 0 63 0;
#X connect 14 0 18 0;
#X connect 15 0 14 0;
#X connect 16 0 14 1;
#X connect 17 0 18 1;
#X connect 18 0 62 0;
#X connect 23 0 27 0;
#X connect 24 0 23 0;
#X connect 25 0 23 1;
#X connect 26 0 27 1;
#X connect 27 0 59 0;
#X connect 32 0 69 0;
#X connect 35 0 57 0;
#X connect 36 0 35 0;
#X connect 37 0 36 0;
#X connect 38 0 36 1;
#X connect 39 0 35 1;
#X connect 40 0 35 2;
#X connect 44 0 48 0;
#X connect 45 0 48 0;
#X connect 46 0 48 0;
#X connect 47 0 48 0;
#X connect 48 0 35 0;
#X connect 48 1 35 1;
#X connect 48 2 35 2;
#X connect 49 0 48 1;
#X connect 50 0 48 2;
#X connect 51 0 48 3;
#X restore 267 222 pd edit;
#X obj 221 11 x_all_guis aaa bbb ccc ddd eee fff ggg hhh iii;
#X text 30 415 graz \, austria 2002;
#X text 223 401 updated for Pd version 0.35;
#X text 144 11 gui-vdial:;
#X obj 79 110 vdl 25 1 0 8 foo12_snd foo12_rcv vdial_0_9 20 -8 192
10 -99865 -262144 -260818 0;
#X obj 352 36 vdl 15 1 0 8 iii iii empty 20 8 192 8 -262144 -1 -1 0
;
#X obj 158 213 s foo12_rcv;
#X obj 159 239 r foo12_snd;
#X connect 6 0 38 0;
#X connect 7 0 8 0;
#X connect 8 0 9 0;
#X connect 11 0 10 0;
#X connect 11 1 17 0;
#X connect 11 2 18 0;
#X connect 11 3 19 0;
#X connect 11 4 20 0;
#X connect 11 5 21 0;
#X connect 11 6 22 0;
#X connect 11 7 23 0;
#X connect 11 8 24 0;
#X connect 11 9 25 0;
#X connect 12 0 38 0;
#X connect 13 0 12 0;
#X connect 14 0 38 0;
#X connect 15 0 38 0;
#X connect 16 0 38 0;
#X connect 28 0 27 0;
#X connect 29 0 40 0;
#X connect 30 0 29 0;
#X connect 38 0 11 0;
#X connect 38 0 26 0;
#X connect 38 0 7 0;
#X connect 41 0 5 0;
#X connect 41 0 28 0;
