#N canvas 491 42 583 396 12;
#X floatatom 37 123 6 0 0 0 - - - 0;
#X floatatom 37 284 7 0 0 0 - - - 0;
#X obj 53 200 loadbang;
#X obj 37 254 snapshot~;
#X obj 37 149 sig~;
#X obj 35 15 wrap~;
#X obj 37 173 wrap~;
#X msg 390 224 \; pd compatibility 0.47;
#X text 85 123 <= shift-drag here to get non-integers to try, f 24;
#X text 42 361 see also:;
#X obj 117 362 wrap;
#X text 89 15 - remainder modulo 1 for signals;
#X obj 160 362 expr~;
#X obj 53 224 metro 200;
#N canvas 817 164 442 195 reference 0;
#X obj 9 49 cnv 5 410 5 empty empty INLET: 8 18 0 13 #202020 #000000 0;
#X obj 9 94 cnv 2 410 2 empty empty OUTLET: 8 12 0 13 #202020 #000000 0;
#X obj 9 131 cnv 2 410 2 empty empty ARGUMENTS: 8 12 0 13 #202020 #000000 0;
#X obj 8 166 cnv 5 410 5 empty empty empty 8 18 0 13 #202020 #000000 0;
#X text 125 140 NONE, f 36;
#X obj 35 15 wrap~;
#X text 83 15 - remainder modulo 1 for signals;
#X text 95 64 signal(s) - input to 'modulo 1' function.;
#X text 95 102 signal(s) - output of 'modulo 1' function.;
#X restore 378 16 pd reference;
#X text 475 16 <= click;
#X obj 10 49 cnv 1 550 1 empty empty empty 8 12 0 13 #000000 #000000 0;
#X obj 10 346 cnv 1 550 1 empty empty empty 8 12 0 13 #000000 #000000 0;
#X text 34 59 [wrap~] wraps the input between 0 and 1 by giving the difference between the input and the largest integer not exceeding it (for positive numbers this is the fractional part)., f 72;
#X msg 147 229 \; pd dsp \$1;
#X obj 147 194 set-dsp-tgl;
#X text 178 198 DSP on/off;
#X text 320 358 updated for Pd version 0.54;
#N canvas 648 122 373 442 multichannel 0;
#X obj 86 163 snake~ in;
#X obj 86 271 snake~ out;
#X obj 164 360 snapshot~;
#X floatatom 164 399 6 0 0 0 - - - 0;
#X obj 86 360 snapshot~;
#X floatatom 86 399 6 0 0 0 - - - 0;
#X floatatom 86 106 5 0 0 0 - - - 0;
#X floatatom 159 106 5 0 0 0 - - - 0;
#X obj 189 287 loadbang;
#X obj 189 313 metro 100;
#X msg 192 226 \; pd dsp \$1;
#X text 224 189 DSP on/off;
#X obj 192 185 set-dsp-tgl;
#X text 59 25 This object works with multichannel signals \, where the operation is performed in all existing channels., f 35;
#X obj 86 228 wrap~;
#X obj 86 133 sig~ 1.2;
#X obj 159 133 sig~ -0.15;
#X connect 0 0 14 0;
#X connect 1 0 4 0;
#X connect 1 1 2 0;
#X connect 2 0 3 0;
#X connect 4 0 5 0;
#X connect 6 0 15 0;
#X connect 7 0 16 0;
#X connect 8 0 9 0;
#X connect 9 0 2 0;
#X connect 9 0 4 0;
#X connect 12 0 10 0;
#X connect 14 0 1 0;
#X connect 15 0 0 0;
#X connect 16 0 0 1;
#X restore 338 298 pd multichannel;
#X text 187 283 mutichannel signal support ----------->, f 20;
#X text 305 127 COMPATIBILITY NOTE: in Pd versions before 0.48 \, [wrap~] with an input of 0 did output 1 (but now correctly outputs 0). To get the old behavior \, set "compatibility" to 0.47 or below in Pd's command line or via the message:, f 36;
#X connect 0 0 4 0;
#X connect 2 0 13 0;
#X connect 3 0 1 0;
#X connect 4 0 6 0;
#X connect 6 0 3 0;
#X connect 13 0 3 0;
#X connect 20 0 19 0;
