#N canvas 128 288 310 157 12;
#X obj 68 91 obj3;
#X floatatom 67 61 3 0 0 0 - - -;
#X floatatom 108 59 3 0 0 0 - - -;
#X floatatom 70 118 3 0 0 0 - - -;
#X connect 0 0 3 0;
#X connect 1 0 0 0;
#X connect 2 0 0 1;
