#N canvas 695 43 533 690 12;
#X obj 28 49 openpanel;
#X floatatom 28 312 8 0 0 0 - - - 0;
#X floatatom 74 287 5 0 0 0 - - - 0;
#X text 117 286 byte;
#X msg 119 195 get \$1;
#X floatatom 119 169 8 0 0 0 - - - 0;
#X text 52 24 try to open a huge file while running the test tone;
#X obj 76 73 realtime;
#X floatatom 76 97 8 0 0 0 - - - 0;
#X obj 28 285 t f b;
#X obj 28 73 t s b;
#X text 175 196 get a single byte;
#X text 93 313 file size (or -1 on failure);
#X obj 28 261 taskobj;
#X obj 28 130 pack s f;
#X msg 28 169 read \$1 \$2;
#X floatatom 98 131 6 0 0 0 - - - 0;
#X msg 119 225 cancel;
#X text 178 225 cancel a running task;
#X obj 30 468 taskobj;
#X msg 30 425 download http://msp.ucsd.edu/Software/pd-0.52-2.src.tar.gz \$1/Pd.tar.gz;
#X text 143 398 download <url> <outputfile>;
#X text 57 351 download Pd's source code from Miller's site (with 'curl');
#X text 57 372 notice how you can use the other taskobj concurrently!;
#X text 152 131 extra sleep (ms) to fake work;
#X obj 30 618 taskobj;
#X msg 30 561 progress \$1;
#X floatatom 30 534 8 0 0 0 - - - 0;
#X msg 99 535 10000;
#X text 150 536 fake some work for 10 seconds and show progress;
#X msg 42 588 cancel;
#X obj 28 23 bng 19 250 50 0 empty empty empty 0 -10 0 12 #fcfcfc #000000 #000000;
#X obj 30 351 bng 19 250 50 0 empty empty empty 0 -10 0 12 #fcfcfc #000000 #000000;
#X obj 30 396 file patchpath;
#X obj 30 496 tgl 19 0 empty empty empty 0 -10 0 12 #fcfcfc #000000 #000000 0 1;
#X obj 30 647 bng 19 250 50 0 empty empty empty 0 -10 0 12 #fcfcfc #000000 #000000;
#X obj 79 647 hsl 162 19 0 1 0 0 empty empty empty -2 -10 0 12 #fcfcfc #000000 #000000 0 1;
#X connect 0 0 10 0;
#X connect 4 0 13 0;
#X connect 5 0 4 0;
#X connect 7 0 8 0;
#X connect 9 0 1 0;
#X connect 9 1 7 1;
#X connect 10 0 14 0;
#X connect 10 1 7 0;
#X connect 13 0 9 0;
#X connect 13 1 2 0;
#X connect 14 0 15 0;
#X connect 15 0 13 0;
#X connect 16 0 14 1;
#X connect 17 0 13 0;
#X connect 19 0 34 0;
#X connect 20 0 19 0;
#X connect 25 0 35 0;
#X connect 25 1 36 0;
#X connect 26 0 25 0;
#X connect 27 0 26 0;
#X connect 28 0 26 0;
#X connect 30 0 25 0;
#X connect 31 0 0 0;
#X connect 32 0 33 0;
#X connect 33 0 20 0;
