#N canvas 484 75 621 606 12;
#X obj 87 387 noise~;
#X floatatom 66 194 5 0 0 0 - - - 0;
#X floatatom 173 194 4 0 0 0 - - - 0;
#X floatatom 279 194 4 0 0 0 - - - 0;
#X obj 66 472 output~;
#X obj 296 495 s \$0-type;
#X obj 88 268 r \$0-type;
#X obj 88 348 print;
#X obj 5 45 cnv 1 602 1 empty empty empty 8 12 0 13 #000000 #000000 0;
#N canvas 740 151 569 430 reference 0;
#X obj 8 260 cnv 2 550 2 empty empty OUTLET: 8 12 0 13 #202020 #000000 0;
#X obj 8 297 cnv 2 550 2 empty empty ARGUMENTS: 8 12 0 13 #202020 #000000 0;
#X obj 7 401 cnv 5 550 5 empty empty empty 8 18 0 13 #202020 #000000 0;
#X obj 39 16 filtercoeff;
#X text 131 15 - generate biquad coefficients;
#X text 113 270 list - biquad coefficients.;
#X obj 9 52 cnv 5 550 5 empty empty INLETS: 8 18 0 13 #202020 #000000 0;
#X obj 8 85 cnv 1 550 1 empty empty 1st: 8 12 0 13 #000000 #000000 0;
#X obj 8 182 cnv 1 550 1 empty empty 2nd: 8 12 0 13 #000000 #000000 0;
#X obj 8 222 cnv 1 550 1 empty empty 3rd: 8 12 0 13 #000000 #000000 0;
#X text 142 136 set filter type: <allpass \, lowpass \, highpass \, bandpass \, resonant \, bandstop \, peaking \, lowshelf \, highshelf \, bypass>;
#X text 86 192 float - sets Q/Slope values., f 56;
#X text 86 230 float - sets gain in dB (for peaking \, lowshelf and highshelf)., f 62;
#X text 135 310 1) symbol - filter type., f 33;
#X text 135 330 2) float - frequency in Hertz., f 33;
#X text 135 351 3) float - Q or Slope value., f 33;
#X text 28 136 type <symbol> -;
#X text 135 371 4) float - gain in dB (depends on filter type).;
#X text 86 116 float - sets frequency in hertz and calculates output., f 65;
#X text 93 96 bang - calculate output., f 64;
#X restore 417 13 pd reference;
#X text 515 13 <= click;
#X obj 6 555 cnv 1 602 1 empty empty empty 8 12 0 13 #000000 #000000 0;
#X obj 19 14 filtercoeff;
#X text 106 13 - generate biquad coefficients;
#X text 17 568 see also:;
#X obj 97 568 biquad~;
#X text 393 569 updated for Pd version 0.56;
#X text 156 171 Q/Slope;
#X msg 288 368 type lowpass;
#X msg 296 392 type highpass;
#X msg 304 415 type bandpass;
#X msg 312 439 type resonant;
#X msg 319 463 type bandstop;
#X obj 446 495 s \$0-type;
#X msg 438 368 type peaking;
#X msg 446 392 type lowshelf;
#X msg 454 415 type highshelf;
#X msg 462 439 type allpass;
#X msg 469 463 type bypass;
#X text 198 386 Set other types --->, f 10;
#X text 303 304 args: type \, freq \, Q/Slope \, gain;
#X obj 77 228 bng 21 250 50 0 empty empty empty 0 -10 0 12 #dfdfdf #000000 #000000;
#X obj 66 428 biquad~;
#X text 104 231 output;
#X msg 34 143 type highshelf \, 1000 0.5 -10, f 29;
#X text 250 143 a list input spreads floats into inlets.;
#X obj 66 305 filtercoeff peaking 500 0.5 -24;
#X msg 137 410 clear;
#X text 51 62 [filtercoeff] is an abstraction that generates coefficients for [biquad~] for different filter types. The equations are from the "Cookbook formulae for audio EQ biquad filter coefficients" by Robert Bristow-Johnson. The bypass type (default) bypassed the input., f 73;
#X text 341 184 The lowshelf and highshelf filter types take a slope value (from 0 to 1) instead of "Q". Lowshelf \, Highshelf and Peaking filters also take a gain parameter in dB (which is ignored for all the others)., f 34;
#X text 54 172 freq (hz);
#X text 258 173 Gain (dB);
#X connect 0 0 32 0;
#X connect 1 0 36 0;
#X connect 2 0 36 1;
#X connect 3 0 36 2;
#X connect 6 0 36 0;
#X connect 18 0 5 0;
#X connect 19 0 5 0;
#X connect 20 0 5 0;
#X connect 21 0 5 0;
#X connect 22 0 5 0;
#X connect 24 0 23 0;
#X connect 25 0 23 0;
#X connect 26 0 23 0;
#X connect 27 0 23 0;
#X connect 28 0 23 0;
#X connect 31 0 36 0;
#X connect 32 0 4 0;
#X connect 34 0 36 0;
#X connect 36 0 7 0;
#X connect 36 0 32 0;
#X connect 37 0 32 0;
