#N canvas 516 72 601 576 12;
#N canvas 350 174 549 267 lowpass 0;
#X obj 39 165 pack f f f f f;
#X text 33 224 b1 b2 a0 a1 a2;
#N canvas 438 157 259 188 get-coef 0;
#X obj 61 38 r \$0-get-coeff;
#X obj 61 128 outlet;
#X obj 61 93 sel 0;
#X obj 61 66 v type_\$0;
#X connect 0 0 3 0;
#X connect 2 0 1 0;
#X connect 3 0 2 0;
#X restore 39 15 pd get-coef;
#X text 272 34 LPF \; - b1 = 2*cos(w) / b0 \; - b2 = (alphaQ - 1) / b0 \; - a0 = (1-cos(w)) / (2*b0) \; - a1 = (1-cos(w)) / b0 \; - a2 = (1-cos(w)) / (2*b0) \; - b0 = alphaQ + 1 \; - alphaQ = sin(w) / (2*Q);
#X obj 39 197 s \$0-coeffs;
#X obj 232 161 v alphaQ_\$0;
#X obj 199 193 v b0_\$0;
#X obj 39 47 expr 2*cos(w_\$0) / b0_\$0 \; (alphaQ_\$0 - 1) / b0_\$0 \; (1 - cos(w_\$0)) / (2*b0_\$0) \; (1 - cos(w_\$0)) / b0_\$0 \; (1 - cos(w_\$0)) / (2*b0_\$0) \; alphaQ_\$0 + 1 \; sin(w_\$0) / (2*Q_\$0);
#X connect 0 0 4 0;
#X connect 2 0 7 0;
#X connect 7 0 0 0;
#X connect 7 1 0 1;
#X connect 7 2 0 2;
#X connect 7 3 0 3;
#X connect 7 4 0 4;
#X connect 7 5 6 0;
#X connect 7 6 5 0;
#X restore 68 196 pd lowpass;
#N canvas 814 150 452 300 highpass 0;
#X obj 15 195 pack f f f f f;
#X text 104 258 b1 b2 a0 a1 a2;
#N canvas 76 96 254 201 get-coef 0;
#X obj 61 38 r \$0-get-coeff;
#X obj 61 135 outlet;
#X obj 61 66 v type_\$0;
#X obj 61 93 sel 1;
#X connect 0 0 2 0;
#X connect 2 0 3 0;
#X connect 3 0 1 0;
#X restore 15 40 pd get-coef;
#X text 236 45 HPF \; - b1 = 2*cos(w) / b0 \; - b2 = (alphaQ - 1) / b0 \; - a0 = (1 + cos(w)) / (2*b0) \; - a1 = -(1 + cos(w)) / b0 \; - a2 = (1 + cos(w)) / (2*b0) \; - b0 = alphaQ + 1 \; - alphaQ = sin(w) / (2*Q);
#X obj 15 258 s \$0-coeffs;
#X obj 208 188 v alphaQ_\$0;
#X obj 175 216 v b0_\$0;
#X obj 15 76 expr 2*cos(w_\$0) / b0_\$0 \; (alphaQ_\$0 - 1) / b0_\$0 \; (cos(w_\$0) + 1) / (2*b0_\$0) \; -(cos(w_\$0) + 1) / b0_\$0 \; (cos(w_\$0) + 1) / (2*b0_\$0) \; alphaQ_\$0 + 1 \; sin(w_\$0) / (2*Q_\$0);
#X connect 0 0 4 0;
#X connect 2 0 7 0;
#X connect 7 0 0 0;
#X connect 7 1 0 1;
#X connect 7 2 0 2;
#X connect 7 3 0 3;
#X connect 7 4 0 4;
#X connect 7 5 6 0;
#X connect 7 6 5 0;
#X restore 68 215 pd highpass;
#N canvas 228 192 663 345 bandpass 0;
#X obj 65 234 pack float float float 0 float;
#N canvas 76 96 259 263 get-coef 0;
#X obj 61 83 r \$0-get-coeff;
#X obj 61 175 outlet;
#X obj 61 111 v type_\$0;
#X obj 61 138 sel 2;
#X connect 0 0 2 0;
#X connect 2 0 3 0;
#X connect 3 0 1 0;
#X restore 186 48 pd get-coef;
#X text 391 66 BPF \; - b1 = 2*cos(w) / b0 \; - b2 = (alphaQ - 1) / b0 \; - a0 = alphaQ / b0 \; - a1 = 0 \; - a2 = -alphaQ / b0 \; - b0 = alphaQ + 1 \; - alphaQ = sin(w) / (2*Q);
#X obj 65 264 s \$0-coeffs;
#X obj 361 224 v alphaQ_\$0;
#X obj 330 257 v b0_\$0;
#X obj 186 96 expr 2*cos(w_\$0) / b0_\$0 \; (alphaQ_\$0 - 1) / b0_\$0 \; alphaQ_\$0 / b0_\$0 \; 0 \; -alphaQ_\$0 / b0_\$0 \; alphaQ_\$0 + 1 \; sin(w_\$0) / (2*Q_\$0);
#X connect 0 0 3 0;
#X connect 1 0 6 0;
#X connect 6 0 0 0;
#X connect 6 1 0 1;
#X connect 6 2 0 2;
#X connect 6 3 0 3;
#X connect 6 4 0 4;
#X connect 6 5 5 0;
#X connect 6 6 4 0;
#X restore 68 234 pd bandpass;
#N canvas 96 66 495 278 resonant 0;
#X obj 45 190 pack f f f 0 f;
#N canvas 76 96 259 263 get-coef 0;
#X obj 61 38 r \$0-get-coeff;
#X obj 61 162 outlet;
#X obj 61 66 v type_\$0;
#X obj 61 93 sel 3;
#X connect 0 0 2 0;
#X connect 2 0 3 0;
#X connect 3 0 1 0;
#X restore 52 33 pd get-coef;
#X text 272 51 Resonant \; - b1 = 2*cos(w) / b0 \; - b2 = (alphaQ - 1) / b0 \; - a0 = alphaQ * Q / b0 \; - a1 = 0 \; - a2 = -alphaQ * Q / b0 \; - b0 = alphaQ + 1 \; - alphaQ = sin(w) / (2*Q);
#X obj 45 223 s \$0-coeffs;
#X obj 200 203 v b0_\$0;
#X obj 232 177 v alphaQ_\$0;
#X obj 52 67 expr 2*cos(w_\$0) / b0_\$0 \; (alphaQ_\$0 - 1) / b0_\$0 \; alphaQ_\$0 * Q_\$0 / b0_\$0 \; 0 \; -alphaQ_\$0 * Q_\$0 / b0_\$0 \; alphaQ_\$0 + 1 \; sin(w_\$0) / (2*Q_\$0);
#X connect 0 0 3 0;
#X connect 1 0 6 0;
#X connect 6 0 0 0;
#X connect 6 1 0 1;
#X connect 6 2 0 2;
#X connect 6 3 0 3;
#X connect 6 4 0 4;
#X connect 6 5 4 0;
#X connect 6 6 5 0;
#X restore 68 253 pd resonant;
#N canvas 709 38 464 322 peaking 0;
#X obj 44 216 pack f f f f f;
#N canvas 76 96 259 263 get-coef 0;
#X obj 61 38 r \$0-get-coeff;
#X obj 61 144 outlet;
#X obj 61 66 v type_\$0;
#X obj 61 93 sel 5;
#X connect 0 0 2 0;
#X connect 2 0 3 0;
#X connect 3 0 1 0;
#X restore 44 41 pd get-coef;
#X text 271 64 Peak \; - b1 = 2*cos(w) / bO \; - b2 = (alphaQ/G - 1) / b0 \; - a0 = (1 + alphaQ*G) / b0 \; - a1 = -2*cos(w) / b0 \; - a2 = (1 - alphaQ*G) / b0 \; - b0 = alphaQ/G + 1 \; - alphaQ = sin(w) / (2*Q);
#X obj 44 250 s \$0-coeffs;
#X obj 44 72 expr 2*cos(w_\$0) / b0_\$0 \; (alphaQ_\$0/G_\$0 - 1) / b0_\$0 \; (1 + alphaQ_\$0*G_\$0) / b0_\$0 \; -2*cos(w_\$0) / b0_\$0 \; (1 - alphaQ_\$0*G_\$0) / b0_\$0 \; alphaQ_\$0/G_\$0 + 1 \; sin(w_\$0) / (2*Q_\$0) \;;
#X obj 244 193 v alphaQ_\$0;
#X obj 210 223 v b0_\$0;
#X connect 0 0 3 0;
#X connect 1 0 4 0;
#X connect 4 0 0 0;
#X connect 4 1 0 1;
#X connect 4 2 0 2;
#X connect 4 3 0 3;
#X connect 4 4 0 4;
#X connect 4 5 6 0;
#X connect 4 6 5 0;
#X restore 68 291 pd peaking;
#N canvas 208 110 913 286 lowshelf 0;
#N canvas 76 96 259 263 get-coef 0;
#X obj 61 38 r \$0-get-coeff;
#X obj 61 148 outlet;
#X obj 61 66 v type_\$0;
#X obj 61 93 sel 6;
#X connect 0 0 2 0;
#X connect 2 0 3 0;
#X connect 3 0 1 0;
#X restore 29 33 pd get-coef;
#X text 495 49 LowShelf \; - b1 = 2*(G-1 + (G+1)*cos(w)) / b0 \; - b2 = -(G+1 + (G-1)*cos(w) - alphaS) / b0 \; - a0 = G*(G+1 - (G-1)*cos(w) + alphaS) / b0 \; - a1 = 2*G*(G-1 - (G+1)*cos(w)) / b0 \; - a2 = G*(G+1 - (G-1)*cos(w) - alphaS) / b0 \; - b0 = G+1 + (G-1)*cos(w) + alphaS \; - alphaS = sin(w)*sqrt((G*G + 1) * (1/S - 1) + 2*G);
#X obj 51 231 s \$0-coeffs;
#X obj 425 187 v alphaS_\$0;
#X obj 359 188 v b0_\$0;
#X obj 51 198 pack float float float float float;
#X obj 29 64 expr 2*(G_\$0-1 + (G_\$0+1)*cos(w_\$0)) / b0_\$0 \; -(G_\$0+1 + (G_\$0-1)*cos(w_\$0) - alphaS_\$0) / b0_\$0 \; G_\$0*(G_\$0+1 - (G_\$0-1)*cos(w_\$0) + alphaS_\$0) / b0_\$0 \; 2*G_\$0*(G_\$0-1 - (G_\$0+1)*cos(w_\$0)) / b0_\$0 \; G_\$0*(G_\$0+1 - (G_\$0-1)*cos(w_\$0) - alphaS_\$0) / b0_\$0 \; G_\$0+1 + (G_\$0-1)*cos(w_\$0) + alphaS_\$0 \; sin(w_\$0) * sqrt((G_\$0*G_\$0 + 1) * (1/S_\$0 - 1) + 2*G_\$0);
#X connect 0 0 6 0;
#X connect 5 0 2 0;
#X connect 6 0 5 0;
#X connect 6 1 5 1;
#X connect 6 2 5 2;
#X connect 6 3 5 3;
#X connect 6 4 5 4;
#X connect 6 5 4 0;
#X connect 6 6 3 0;
#X restore 68 310 pd lowshelf;
#N canvas 535 146 568 340 allpass 0;
#X obj 25 212 pack f f f f 1;
#N canvas 76 96 259 263 get-coef 0;
#X obj 61 38 r \$0-get-coeff;
#X obj 61 188 outlet;
#X obj 61 66 v type_\$0;
#X obj 61 93 sel 8;
#X connect 0 0 2 0;
#X connect 2 0 3 0;
#X connect 3 0 1 0;
#X restore 31 24 pd get-coef;
#X text 274 44 APF \; - b1 = 2*cos(w) / b0 \; - b2 = (alphaQ - 1) / b0 \; - a0 = (1 - alphaQ) / b0 \; - a1 = -2*cos(w) / b0 \; - a2 = 1 \; - b0 = 1 + alphaQ \; - alphaQ = sin(w) / (2*Q);
#X obj 25 243 s \$0-coeffs;
#X obj 210 181 v alphaQ_\$0;
#X obj 185 209 v b0_\$0;
#X obj 31 61 expr 2*cos(w_\$0) / b0_\$0 \; (alphaQ_\$0 - 1) / b0_\$0 \; (1 - alphaQ_\$0) / b0_\$0 \; -2*cos(w_\$0) / b0_\$0 \; 1 \; alphaQ_\$0 + 1 \; sin(w_\$0) / (2*Q_\$0), f 26;
#X connect 0 0 3 0;
#X connect 1 0 6 0;
#X connect 6 0 0 0;
#X connect 6 1 0 1;
#X connect 6 2 0 2;
#X connect 6 3 0 3;
#X connect 6 4 0 4;
#X connect 6 5 5 0;
#X connect 6 6 4 0;
#X restore 68 348 pd allpass;
#N canvas 314 220 1006 341 highshelf 0;
#N canvas 76 96 259 263 get-coef 0;
#X obj 61 38 r \$0-get-coeff;
#X obj 61 188 outlet;
#X obj 61 66 v type_\$0;
#X obj 61 93 sel 7;
#X connect 0 0 2 0;
#X connect 2 0 3 0;
#X connect 3 0 1 0;
#X restore 39 27 pd get-coef;
#X text 575 52 HighShelf \; - b1 = -2*(G-1 - (G+1)*cos(w)) / b0 \; - b2 = -(G+1 - (G-1)*cos(w) -alphaS) / b0 \; - a0 = G*(G+1 + (G-1)*cos(w) + alphaS) / b0 \; - a1 = -2*G*(G-1 + (G+1)*cos(w)) / b0 \; - a2 = G*(G+1 + (G-1)*cos(w) - alphaS) / b0 \; - b0 = (G+1) - (G-1)*cos(w) + alphaS \; - alphaS = sin(w) * sqrt((G*G + 1) * (1/S - 1) + 2*G);
#X obj 44 218 s \$0-coeffs;
#X obj 449 180 v alphaS_\$0;
#X obj 380 178 v b0_\$0;
#X obj 39 57 expr -2*(G_\$0-1 - (G_\$0+1)*cos(w_\$0)) / b0_\$0 \; -(G_\$0+1 - (G_\$0-1)*cos(w_\$0) -alphaS_\$0) / b0_\$0 \; G_\$0*(G_\$0+1 + (G_\$0-1)*cos(w_\$0) + alphaS_\$0) / b0_\$0 \; -2*G_\$0*(G_\$0-1 + (G_\$0+1)*cos(w_\$0)) / b0_\$0 \; G_\$0*(G_\$0+1 + (G_\$0-1)*cos(w_\$0) - alphaS_\$0) / b0_\$0 \; (G_\$0+1) - (G_\$0-1)*cos(w_\$0) + alphaS_\$0 \; sin(w_\$0) * sqrt((G_\$0*G_\$0 + 1) * (1/S_\$0 - 1) + 2*G_\$0), f 59;
#X obj 44 186 pack float float float float float;
#X connect 0 0 5 0;
#X connect 5 0 6 0;
#X connect 5 1 6 1;
#X connect 5 2 6 2;
#X connect 5 3 6 3;
#X connect 5 4 6 4;
#X connect 5 5 4 0;
#X connect 5 6 3 0;
#X connect 6 0 2 0;
#X restore 68 329 pd highshelf;
#X obj 363 180 / 2;
#X obj 190 168 t b f;
#X obj 190 357 s \$0-get-coeff;
#X obj 331 287 s \$0-get-coeff;
#X text 195 76 Q/S;
#X text 66 76 Freq (Hz);
#X obj 222 210 max 0;
#N canvas 447 145 493 279 bandstop 0;
#X obj 54 173 pack f f f f f;
#N canvas 76 96 259 263 get-coef 0;
#X obj 61 38 r \$0-get-coeff;
#X obj 61 158 outlet;
#X obj 61 66 v type_\$0;
#X obj 61 93 sel 4;
#X connect 0 0 2 0;
#X connect 2 0 3 0;
#X connect 3 0 1 0;
#X restore 54 25 pd get-coef;
#X text 235 43 Notch \; - b1 = 2*cos(w) / b0 \; - b2 = (alphaQ - 1) / b0 \; - a0 = 1 / b0 \; - a1 = -2*cos(w) / b0 \; - a2 = 1 / b0 \; - b0 = alphaQ + 1 \; - alphaQ = sin(w) / (2*Q);
#X obj 54 209 s \$0-coeffs;
#X obj 221 176 v alphaQ_\$0;
#X obj 199 202 v b0_\$0;
#X obj 54 61 expr 2*cos(w_\$0) / b0_\$0 \; (alphaQ_\$0 - 1) / b0_\$0 \; 1 / b0_\$0 \; -2*cos(w_\$0) / b0_\$0 \; 1 / b0_\$0 \; alphaQ_\$0 + 1 \; sin(w_\$0) / (2*Q_\$0);
#X connect 0 0 3 0;
#X connect 1 0 6 0;
#X connect 6 0 0 0;
#X connect 6 1 0 1;
#X connect 6 2 0 2;
#X connect 6 3 0 3;
#X connect 6 4 0 4;
#X connect 6 5 5 0;
#X connect 6 6 4 0;
#X restore 68 272 pd bandstop;
#X obj 240 244 max 0.5;
#X obj 197 423 r \$0-coeffs;
#N canvas 624 225 534 518 init 0;
#X obj 185 309 v sr_\$0;
#X obj 185 271 samplerate~;
#X obj 283 136 expr pi_\$0 = atan(1) * 4;
#X obj 314 323 v pi_\$0;
#X obj 206 177 receive pd-dsp-started;
#X obj 83 36 loadbang;
#X obj 83 262 pdcontrol;
#X msg 83 226 args;
#X obj 83 301 list split 1;
#X obj 83 403 list trim;
#X msg 355 77 9;
#X text 387 77 bypass;
#X obj 206 203 t b b;
#X obj 232 243 s \$0-get-coeff;
#X obj 123 343 s \$0-arglist;
#X obj 83 436 s \$0-typearg;
#X obj 83 375 route symbol;
#X obj 83 87 trigger bang bang bang, f 29;
#X obj 355 102 v type_\$0;
#X connect 1 0 0 0;
#X connect 4 0 12 0;
#X connect 5 0 17 0;
#X connect 6 0 8 0;
#X connect 7 0 6 0;
#X connect 8 0 16 0;
#X connect 8 1 14 0;
#X connect 9 0 15 0;
#X connect 10 0 18 0;
#X connect 12 0 13 0;
#X connect 12 1 1 0;
#X connect 16 0 9 0;
#X connect 17 0 7 0;
#X connect 17 1 1 0;
#X connect 17 2 10 0;
#X connect 17 2 2 0;
#X restore 394 408 pd init;
#X obj 363 240 v G_\$0;
#X obj 222 324 v S_\$0;
#X obj 240 270 v Q_\$0;
#X obj 363 209 expr pow(10 \, $f1 / 20);
#X obj 70 102 inlet;
#X obj 189 102 inlet;
#X obj 331 102 inlet;
#X text 327 76 Gain (dB);
#X text 62 56 Filter type;
#X obj 222 299 clip 1e-05 1;
#X obj 197 482 outlet;
#N canvas 358 191 782 501 route 0;
#X obj 98 48 inlet;
#X obj 473 356 v w_\$0;
#X obj 473 303 expr $f1 * 2*pi_\$0/sr_\$0, f 13;
#X msg 130 236 0;
#X msg 163 236 1;
#X msg 196 236 2;
#X msg 229 236 3;
#X msg 262 236 4;
#X msg 295 236 5;
#X msg 328 236 6;
#X msg 361 236 7;
#X msg 394 236 8;
#X obj 638 275 s \$0-g;
#X obj 555 276 s \$0-qs;
#X obj 473 249 unpack float float float;
#X obj 98 140 t b a;
#X obj 98 317 s \$0-get-coeff;
#X obj 262 298 v type_\$0;
#X obj 130 171 route lowpass highpass bandpass resonant bandstop peaking lowshelf highshelf allpass bypass float list, f 54;
#X msg 428 236 9;
#X obj 493 215 r \$0-arglist;
#X obj 118 105 r \$0-typearg;
#X connect 0 0 15 0;
#X connect 2 0 1 0;
#X connect 3 0 17 0;
#X connect 4 0 17 0;
#X connect 5 0 17 0;
#X connect 6 0 17 0;
#X connect 7 0 17 0;
#X connect 8 0 17 0;
#X connect 9 0 17 0;
#X connect 10 0 17 0;
#X connect 11 0 17 0;
#X connect 14 0 2 0;
#X connect 14 1 13 0;
#X connect 14 2 12 0;
#X connect 15 0 16 0;
#X connect 15 1 18 0;
#X connect 18 0 3 0;
#X connect 18 1 4 0;
#X connect 18 2 5 0;
#X connect 18 3 6 0;
#X connect 18 4 7 0;
#X connect 18 5 8 0;
#X connect 18 6 9 0;
#X connect 18 7 10 0;
#X connect 18 8 11 0;
#X connect 18 9 19 0;
#X connect 18 10 14 0;
#X connect 18 11 14 0;
#X connect 19 0 17 0;
#X connect 20 0 14 0;
#X connect 21 0 15 0;
#X restore 70 146 pd route;
#X obj 242 171 r \$0-qs;
#X obj 377 149 r \$0-g;
#X obj 331 131 t b f;
#N canvas 535 146 306 318 bypass 0;
#X obj 88 194 s \$0-coeffs;
#X obj 89 67 r \$0-get-coeff;
#X obj 89 95 v type_\$0;
#X obj 89 122 sel 9;
#X msg 89 155 0 0 1 0 0;
#X connect 1 0 2 0;
#X connect 2 0 3 0;
#X connect 3 0 4 0;
#X connect 4 0 0 0;
#X restore 68 367 pd bypass;
#X connect 8 0 22 0;
#X connect 9 0 10 0;
#X connect 9 1 14 0;
#X connect 14 0 28 0;
#X connect 14 0 16 0;
#X connect 16 0 21 0;
#X connect 17 0 29 0;
#X connect 22 0 19 0;
#X connect 23 0 30 0;
#X connect 24 0 9 0;
#X connect 25 0 33 0;
#X connect 28 0 20 0;
#X connect 31 0 14 0;
#X connect 32 0 8 0;
#X connect 33 0 11 0;
#X connect 33 1 8 0;
