#N canvas 667 101 725 349 12;
#X obj 378 166 biquad~ 0.83774 -0.06338 0.06338 -0.83774 1;
#X obj 389 136 biquad~ 1.94632 -0.94657 0.94657 -1.94632 1;
#X obj 41 136 biquad~ -0.02569 0.260502 -0.260502 0.02569 1;
#X obj 41 162 biquad~ 1.8685 -0.870686 0.870686 -1.8685 1;
#X obj 41 36 inlet~;
#X obj 378 195 outlet~;
#X obj 41 189 outlet~;
#X text 140 251 This is a pair of 4th-order all-pass filters whose
outputs somehow manage to be about 90 degrees out of phase from each
other. Both have different phases from the original. Adapted from a
4X patch by Emmanuel Favreau \, circa 1982;
#X obj 378 36 inlet;
#X text 276 35 bang to clear;
#X text 93 35 signal in;
#X msg 378 79 clear;
#X connect 0 0 5 0;
#X connect 1 0 0 0;
#X connect 2 0 3 0;
#X connect 3 0 6 0;
#X connect 4 0 1 0;
#X connect 4 0 2 0;
#X connect 8 0 11 0;
#X connect 11 0 1 0;
#X connect 11 0 0 0;
#X connect 11 0 3 0;
#X connect 11 0 2 0;
