#N canvas 670 92 576 603 12;
#X obj 374 510 t b;
#X obj 374 457 f;
#X obj 374 535 f;
#X msg 420 533 0;
#X obj 374 487 moses 1;
#X obj 424 457 moses 1;
#X obj 42 101 dbtorms;
#X msg 274 388 \; pd dsp 1;
#X obj 42 270 line~;
#X obj 77 322 *~;
#X obj 77 352 dac~;
#X obj 42 131 pack 0 50;
#X floatatom 347 219 4 0 100 0 dB - - 0;
#X obj 374 240 bng 15 250 50 0 empty empty mute -38 7 0 12 #fcfcfc
#000000 #000000;
#X obj 175 170 inlet~;
#X obj 157 321 *~;
#X text 432 403 MUTE logic:;
#X obj 347 174 r \$0-master-lvl;
#X obj 420 564 s \$0-master-lvl;
#X obj 347 279 s \$0-master-out;
#X obj 42 75 r \$0-master-out;
#X obj 424 428 r \$0-master-out;
#X obj 95 272 hip~ 3;
#X obj 175 272 hip~ 3;
#X text 102 100 <= convert from dB to linear units;
#X text 114 130 <= make a ramp to avoid clicks or zipper noise;
#X text 81 397 automatically start DSP =>;
#X text 206 441 recall previous;
#X text 150 538 previous nonzero master-lvl =>;
#X text 177 512 if true convert to bang =>;
#X text 205 489 test if less than 1 =>;
#X text 206 459 value of master-lvl =>;
#X text 84 9 Level control abstraction \, part of 'extra' used in many
of the Pd example and help patches. The "level" and "mute" controls
show up on the parent \, calling patch., f 61;
#X obj 95 170 inlet~ fwd;
#X obj 187 200 route bang level;
#X obj 241 240 clip 0 100;
#X text 227 168 <= audio in;
#X connect 0 0 2 0;
#X connect 1 0 4 0;
#X connect 2 0 18 0;
#X connect 3 0 18 0;
#X connect 4 0 0 0;
#X connect 4 1 3 0;
#X connect 5 1 2 1;
#X connect 6 0 11 0;
#X connect 8 0 15 0;
#X connect 8 0 9 0;
#X connect 9 0 10 0;
#X connect 11 0 8 0;
#X connect 12 0 7 0;
#X connect 12 0 19 0;
#X connect 13 0 1 0;
#X connect 14 0 23 0;
#X connect 15 0 10 1;
#X connect 17 0 12 0;
#X connect 20 0 6 0;
#X connect 21 0 1 1;
#X connect 21 0 5 0;
#X connect 22 0 9 1;
#X connect 23 0 15 1;
#X connect 33 0 22 0;
#X connect 33 1 34 0;
#X connect 34 0 13 0;
#X connect 34 1 35 0;
#X connect 35 0 12 0;
#X coords 0 0 1 1 65 55 1 325 200;
