#N canvas 133 53 729 468 10;
#X obj 72 240 inlet~;
#X obj 347 28 loadbang;
#X obj 90 376 +~;
#X obj 52 408 +~;
#X obj 52 437 outlet~;
#X obj 409 96 pow;
#X obj 372 118 *;
#X floatatom 372 159;
#X obj 82 264 *~ 0;
#X obj 177 175 pow;
#X text 386 140 delay \, msec;
#X floatatom 201 237;
#X obj 190 150 * 0.001;
#X text 206 220 gain for this stage;
#X obj 103 327 *~ 0;
#X obj 201 202 *;
#X text 25 13 Allpass filter for mono reverberator. Arg 1 = delay name \, arg2 = stage number \, arg 3 = delay time;
#X obj 373 76 8;
#X obj 409 75 1.79;
#X obj 114 175 0.7;
#X obj 363 50 t b b b b;
#X obj 177 108 0;
#X obj 372 207 abs;
#X obj 372 229 moses 0.01;
#X obj 443 229 print wrong-delay-time;
#X obj 233 391 inlet~;
#X obj 219 419 +~;
#X obj 219 443 outlet~;
#X text 74 83 decay after;
#X text 85 98 1 second;
#X obj 83 119 r \$1-decay;
#X obj 327 262 r \$1-clear;
#X obj 240 298 0;
#X obj 327 281 t b;
#X obj 327 344 delay;
#X obj 327 322 + 5;
#X obj 158 279 delread~ \$2 \$4;
#X obj 90 397 delwrite~ \$2 \$4;
#X obj 327 302 f \$4;
#X obj 371 184 - \$4;
#X obj 446 75 float \$3;
#X obj 241 318 1;
#X obj 158 300 *~ 1;
#X obj 52 298 *~ 0;
#X obj 10 209 t b f f;
#X obj 28 233 *;
#X obj 10 256 -;
#X obj 41 258 * -1;
#X obj 11 297 *~ 0;
#X obj 214 181 sqrt;
#X connect 0 0 8 0;
#X connect 1 0 20 0;
#X connect 2 0 37 0;
#X connect 3 0 4 0;
#X connect 3 0 26 0;
#X connect 5 0 6 1;
#X connect 6 0 7 0;
#X connect 6 0 12 0;
#X connect 7 0 39 0;
#X connect 8 0 43 0;
#X connect 8 0 48 0;
#X connect 9 0 15 0;
#X connect 9 0 14 1;
#X connect 12 0 9 1;
#X connect 14 0 2 1;
#X connect 14 0 3 1;
#X connect 15 0 11 0;
#X connect 15 0 8 1;
#X connect 17 0 6 0;
#X connect 18 0 5 0;
#X connect 18 0 49 0;
#X connect 19 0 44 0;
#X connect 19 0 47 0;
#X connect 20 0 21 0;
#X connect 20 0 19 0;
#X connect 20 1 17 0;
#X connect 20 2 18 0;
#X connect 20 3 40 0;
#X connect 21 0 9 0;
#X connect 22 0 23 0;
#X connect 23 1 24 0;
#X connect 25 0 26 1;
#X connect 26 0 27 0;
#X connect 30 0 9 0;
#X connect 31 0 33 0;
#X connect 32 0 42 1;
#X connect 33 0 32 0;
#X connect 33 0 38 0;
#X connect 34 0 41 0;
#X connect 35 0 34 0;
#X connect 36 0 42 0;
#X connect 38 0 35 0;
#X connect 39 0 22 0;
#X connect 40 0 5 1;
#X connect 41 0 42 1;
#X connect 42 0 14 0;
#X connect 43 0 3 0;
#X connect 44 0 46 0;
#X connect 44 1 45 0;
#X connect 44 2 45 1;
#X connect 45 0 46 1;
#X connect 46 0 48 1;
#X connect 47 0 43 1;
#X connect 48 0 2 0;
#X connect 49 0 15 1;
