#N canvas 632 87 834 828 12;
#X obj 184 593 +~;
#X obj 525 162 inlet;
#X obj 203 493 *~;
#X obj 459 493 *~;
#X obj 298 493 *~;
#X obj 360 493 *~;
#X obj 419 640 -~;
#X obj 342 640 -~;
#X obj 262 640 +~;
#X obj 184 640 +~;
#X obj 185 530 +~;
#X obj 280 530 +~;
#X obj 437 593 -~;
#X obj 360 593 +~;
#X obj 262 593 -~;
#X obj 457 162 inlet;
#X obj 592 515 line~;
#X obj 477 450 line~;
#X obj 79 237 delread~ \$0-del1 58.6435, f 8;
#X obj 157 237 delread~ \$0-del2 69.4325, f 8;
#X obj 239 237 delread~ \$0-del3 74.5234, f 8;
#X obj 321 237 delread~ \$0-del4 86.1244, f 8;
#X obj 505 593 *~;
#X obj 574 593 *~;
#X obj 184 677 delwrite~ \$0-del1 58.6435, f 9;
#X obj 262 677 delwrite~ \$0-del2 69.4325, f 9;
#X obj 342 677 delwrite~ \$0-del3 74.5234, f 9;
#X obj 419 677 delwrite~ \$0-del4 86.1244, f 9;
#X obj 592 443 dbtorms;
#X obj 592 489 pack 0 30;
#X obj 525 297 pack 0 50;
#X obj 42 162 inlet~;
#X obj 505 761 outlet~;
#X obj 574 761 outlet~;
#X obj 525 273 / 200;
#X obj 525 248 clip 0 100;
#X obj 119 322 lop~;
#X obj 457 224 f \$1;
#X obj 525 224 f \$2;
#X obj 630 224 f \$3;
#X obj 701 224 f \$4;
#X obj 630 190 loadbang;
#X obj 642 593 *~;
#X obj 710 593 *~;
#X obj 642 761 outlet~;
#X obj 710 761 outlet~;
#X obj 630 253 moses 1;
#X msg 630 277 3000;
#X obj 701 279 clip 0 100;
#N canvas 1118 187 425 592 early-reflect 0;
#X obj 183 117 -~;
#X obj 49 119 +~;
#X obj 50 195 +~;
#X obj 165 194 -~;
#X obj 147 273 -~;
#X obj 49 274 +~;
#X obj 129 349 -~;
#X obj 48 350 +~;
#X obj 111 428 -~;
#X obj 48 428 +~;
#X obj 49 17 inlet~;
#X obj 48 528 outlet~;
#X obj 111 528 outlet~;
#X obj 201 60 delwrite~ \$0-ref1 43.5337;
#X obj 201 84 delread~ \$0-ref1 43.5337;
#X obj 183 143 delwrite~ \$0-ref2 25.796;
#X obj 183 167 delread~ \$0-ref2 25.796;
#X obj 165 221 delwrite~ \$0-ref3 19.392;
#X obj 165 245 delread~ \$0-ref3 19.392;
#X obj 147 298 delwrite~ \$0-ref4 16.364;
#X obj 147 322 delread~ \$0-ref4 16.364;
#X obj 111 452 delwrite~ \$0-ref6 4.2546;
#X obj 111 477 delread~ \$0-ref6 4.2546;
#X obj 129 376 delwrite~ \$0-ref5 7.645;
#X obj 129 400 delread~ \$0-ref5 7.645;
#X connect 0 0 15 0;
#X connect 1 0 3 0;
#X connect 1 0 2 0;
#X connect 2 0 5 0;
#X connect 2 0 4 0;
#X connect 3 0 17 0;
#X connect 4 0 19 0;
#X connect 5 0 7 0;
#X connect 5 0 6 0;
#X connect 6 0 23 0;
#X connect 7 0 9 0;
#X connect 7 0 8 0;
#X connect 8 0 21 0;
#X connect 9 0 11 0;
#X connect 10 0 1 0;
#X connect 10 0 0 0;
#X connect 10 0 13 0;
#X connect 14 0 1 1;
#X connect 14 0 0 1;
#X connect 16 0 2 1;
#X connect 16 0 3 1;
#X connect 18 0 5 1;
#X connect 18 0 4 1;
#X connect 20 0 7 1;
#X connect 20 0 6 1;
#X connect 22 0 12 0;
#X connect 24 0 9 1;
#X connect 24 0 8 1;
#X restore 42 498 pd early-reflect;
#X obj 623 305 f;
#X obj 623 162 inlet;
#X obj 701 162 inlet;
#X obj 701 302 f;
#X obj 701 325 * 0.01;
#X obj 701 349 pack 0 50;
#X obj 701 373 line~;
#X obj 97 360 -~;
#X obj 97 386 *~;
#X obj 79 431 +~;
#X obj 197 325 lop~;
#X obj 176 360 -~;
#X obj 176 395 *~;
#X obj 158 431 +~;
#X obj 284 330 lop~;
#X obj 258 360 -~;
#X obj 257 400 *~;
#X obj 239 431 +~;
#X obj 366 335 lop~;
#X obj 339 360 -~;
#X obj 339 404 *~;
#X obj 321 431 +~;
#X obj 592 465 * 0.125;
#X text 406 32 control inlets:;
#X text 67 52 rev2 - simple \, cheap reverberator with;
#X text 403 51 1: output level \, dB \, 0-100;
#X text 66 73 one signal inlet and four signal outlets.;
#X text 402 101 4: high frequency damping \, 0-100;
#X text 403 84 3: crossover frequency in Hz. (3000 default);
#X text 403 67 2: liveness \, 0-100 \, usually between 85 and 100;
#X connect 0 0 9 0;
#X connect 0 0 7 0;
#X connect 1 0 38 0;
#X connect 2 0 10 1;
#X connect 3 0 12 1;
#X connect 3 0 13 1;
#X connect 3 0 43 0;
#X connect 4 0 11 1;
#X connect 5 0 13 0;
#X connect 5 0 12 0;
#X connect 5 0 42 0;
#X connect 6 0 27 0;
#X connect 7 0 26 0;
#X connect 8 0 25 0;
#X connect 9 0 24 0;
#X connect 10 0 14 0;
#X connect 10 0 0 0;
#X connect 10 0 22 0;
#X connect 11 0 0 1;
#X connect 11 0 14 1;
#X connect 11 0 23 0;
#X connect 12 0 8 1;
#X connect 12 0 6 1;
#X connect 13 0 9 1;
#X connect 13 0 7 1;
#X connect 14 0 8 0;
#X connect 14 0 6 0;
#X connect 15 0 37 0;
#X connect 16 0 22 1;
#X connect 16 0 23 1;
#X connect 16 0 42 1;
#X connect 16 0 43 1;
#X connect 17 0 4 1;
#X connect 17 0 2 1;
#X connect 17 0 5 1;
#X connect 17 0 3 1;
#X connect 18 0 36 0;
#X connect 18 0 57 1;
#X connect 18 0 59 0;
#X connect 19 0 60 0;
#X connect 19 0 61 1;
#X connect 19 0 63 0;
#X connect 20 0 67 0;
#X connect 20 0 64 0;
#X connect 20 0 65 1;
#X connect 21 0 71 0;
#X connect 21 0 69 1;
#X connect 21 0 68 0;
#X connect 22 0 32 0;
#X connect 23 0 33 0;
#X connect 28 0 72 0;
#X connect 29 0 16 0;
#X connect 30 0 17 0;
#X connect 31 0 49 0;
#X connect 34 0 30 0;
#X connect 35 0 34 0;
#X connect 36 0 57 0;
#X connect 37 0 28 0;
#X connect 38 0 35 0;
#X connect 39 0 46 0;
#X connect 40 0 48 0;
#X connect 41 0 37 0;
#X connect 41 0 38 0;
#X connect 41 0 39 0;
#X connect 41 0 40 0;
#X connect 42 0 44 0;
#X connect 43 0 45 0;
#X connect 46 0 47 0;
#X connect 46 1 50 0;
#X connect 47 0 50 0;
#X connect 48 0 53 0;
#X connect 49 0 10 0;
#X connect 49 1 11 0;
#X connect 50 0 36 1;
#X connect 50 0 60 1;
#X connect 50 0 64 1;
#X connect 50 0 68 1;
#X connect 51 0 50 0;
#X connect 52 0 40 0;
#X connect 53 0 54 0;
#X connect 54 0 55 0;
#X connect 55 0 56 0;
#X connect 56 0 58 1;
#X connect 56 0 62 1;
#X connect 56 0 66 1;
#X connect 56 0 70 1;
#X connect 57 0 58 0;
#X connect 58 0 59 1;
#X connect 59 0 2 0;
#X connect 60 0 61 0;
#X connect 61 0 62 0;
#X connect 62 0 63 1;
#X connect 63 0 4 0;
#X connect 64 0 65 0;
#X connect 65 0 66 0;
#X connect 66 0 67 1;
#X connect 67 0 5 0;
#X connect 68 0 69 0;
#X connect 69 0 70 0;
#X connect 70 0 71 1;
#X connect 71 0 3 0;
#X connect 72 0 29 0;
