#N canvas 163 337 492 362 12;
#X floatatom 72 273 3 0 0 0 - - -;
#X obj 27 221 notein;
#X obj 27 247 stripnote;
#X floatatom 27 272 3 0 0 0 - - -;
#X text 219 234 MIDI OUT;
#X text 27 197 MIDI IN;
#X floatatom 150 272 3 0 0 0 - - -;
#X floatatom 120 271 3 0 0 0 - - -;
#X obj 120 246 ctlin;
#N canvas 0 22 484 446 midi 0;
#X obj 96 65 inlet;
#X obj 96 262 noteout;
#X floatatom 96 92 0 0 0 0 - - -;
#X obj 338 113 loadbang;
#X obj 96 184 metro;
#X obj 96 236 makenote;
#X floatatom 189 166 0 0 0 0 - - -;
#X obj 96 210 f;
#X floatatom 145 166 0 0 0 0 - - -;
#X floatatom 233 166 0 0 0 0 - - -;
#X floatatom 276 166 0 0 0 0 - - -;
#X msg 338 148 500;
#X msg 370 148 60;
#X msg 399 148 64;
#X msg 427 148 250;
#X text 144 145 rate;
#X text 187 145 pitch;
#X text 232 145 vel;
#X text 268 146 length;
#X obj 230 257 ctlout 1;
#X floatatom 230 228 0 0 0 0 - - -;
#X connect 0 0 2 0;
#X connect 2 0 4 0;
#X connect 3 0 11 0;
#X connect 3 0 12 0;
#X connect 3 0 13 0;
#X connect 3 0 14 0;
#X connect 4 0 7 0;
#X connect 5 0 1 0;
#X connect 5 1 1 1;
#X connect 6 0 7 1;
#X connect 7 0 5 0;
#X connect 8 0 4 1;
#X connect 9 0 5 1;
#X connect 10 0 5 2;
#X connect 11 0 8 0;
#X connect 12 0 6 0;
#X connect 13 0 9 0;
#X connect 14 0 10 0;
#X connect 20 0 19 0;
#X restore 219 284 pd midi;
#X floatatom 178 93 3 0 0 0 - tone-vu1 -;
#X floatatom 205 93 3 0 0 0 - tone-vu2 -;
#X obj 177 126 tgl 20 0 tone-ch1 tone-ch1 1 5 -8 0 12 -262144 -1 -1
1 1;
#X obj 202 126 tgl 20 0 tone-ch2 tone-ch2 2 5 -8 0 12 -262144 -1 -1
1 1;
#X obj 219 258 tgl 20 0 empty empty empty 20 8 0 8 -262144 -1 -1 0
1;
#X obj 184 192 tgl 15 0 tone-monitor set-tone-monitor monitor-inputs
23 8 0 12 -262144 -1 -1 0 1;
#X text 40 120 OFF;
#N canvas 0 22 524 326 more 0;
#X floatatom 42 209 0 0 0 0 - - -;
#X obj 42 183 f;
#X obj 79 183 + 1;
#X obj 42 150 metro 1000;
#X obj 42 123 tgl 20 0 empty empty empty 20 8 0 8 -262144 -1 -1 0 1
;
#X text 24 30 this window has various wierd debugging stuff...;
#X text 22 74 see if Pd's time;
#X text 22 93 measurement works:;
#X obj 227 127 adc~;
#X obj 226 224 print~;
#X obj 235 201 bng 15 250 50 0 empty empty empty 0 -6 0 8 -262144 -1
-1;
#X obj 227 152 *~ 1;
#X obj 302 138 tgl 15 0 empty empty empty 17 7 0 10 -262144 -1 -1 0
1;
#X obj 302 158 sel 0 1;
#X obj 301 183 1;
#X obj 333 185 1000;
#X text 226 94 print out literal values from ADC 1;
#X text 323 136 optionally multiply by 1000;
#X connect 1 0 2 0;
#X connect 1 0 0 0;
#X connect 2 0 1 1;
#X connect 3 0 1 0;
#X connect 4 0 3 0;
#X connect 8 0 11 0;
#X connect 10 0 9 0;
#X connect 11 0 9 0;
#X connect 12 0 13 0;
#X connect 13 0 14 0;
#X connect 13 1 15 0;
#X connect 14 0 11 1;
#X connect 15 0 11 1;
#X restore 388 266 pd more;
#X obj 343 193 tgl 15 0 tone-hipass tone-hipass-set input-hipass 23
8 0 12 -262144 -1 -1 1 1;
#X obj 243 126 tgl 20 0 tone-ch3 tone-ch3 3 5 -8 0 12 -262144 -1 -1
1 1;
#X obj 268 126 tgl 20 0 tone-ch4 tone-ch4 4 5 -8 0 12 -262144 -1 -1
1 1;
#X obj 309 126 tgl 20 0 tone-ch5 tone-ch5 5 5 -8 0 12 -262144 -1 -1
1 1;
#X obj 334 126 tgl 20 0 tone-ch6 tone-ch6 6 5 -8 0 12 -262144 -1 -1
1 1;
#X obj 428 117 bng 15 250 50 0 tone-all empty ALL 20 8 0 12 -262144
-1 -1;
#X obj 428 138 bng 15 250 50 0 tone-none empty NONE 20 8 0 12 -262144
-1 -1;
#X floatatom 244 93 3 0 0 0 - tone-vu3 -;
#X floatatom 272 93 3 0 0 0 - tone-vu4 -;
#X floatatom 310 93 3 0 0 0 - tone-vu5 -;
#X floatatom 338 93 3 0 0 0 - tone-vu6 -;
#X text 237 73 AUDIO INPUT (RMS dB);
#X text 101 88 noise;
#X text 100 105 tone;
#X obj 84 90 vradio 15 1 0 2 tone-type tone-type-set empty 0 -6 0 8
-262144 -1 -1 1;
#X obj 22 91 vradio 15 1 0 3 tone-radio tone-radio-set empty 0 -6 0
8 -262144 -1 -1 0;
#X floatatom 376 93 3 0 0 0 - tone-vu7 -;
#X floatatom 404 93 3 0 0 0 - tone-vu8 -;
#X obj 375 126 tgl 20 0 tone-ch7 tone-ch7 7 5 -8 0 12 -262144 -1 -1
1 1;
#X obj 400 126 tgl 20 0 tone-ch8 tone-ch8 8 5 -8 0 12 -262144 -1 -1
1 1;
#N canvas 233 346 321 422 audio 0;
#X obj 25 303 s~ tone-mon;
#X obj 25 277 line~;
#X obj 25 249 pack 0 50;
#X obj 25 223 r tone-monitor;
#X obj 28 139 * 5;
#X obj 28 164 s tone-hip;
#X obj 28 114 r tone-hipass;
#N canvas 424 104 548 519 glue+loadbang 0;
#X obj 8 20 loadbang;
#X obj 175 18 r tone-all;
#X obj 285 16 r tone-none;
#X msg 175 46 \; tone-ch1 1 \; tone-ch2 1 \; tone-ch3 1 \; tone-ch4
1 \; tone-ch5 1 \; tone-ch6 1 \; tone-ch7 1 \; tone-ch8 1;
#X msg 285 47 \; tone-ch1 0 \; tone-ch2 0 \; tone-ch3 0 \; tone-ch4
0 \; tone-ch5 0 \; tone-ch6 0 \; tone-ch7 0 \; tone-ch8 0;
#X msg 8 48 \; pd dsp 1 \; tone-pitch 69 \; tone-radio 2 \; tone-radio-set
set 2 \; tone-type 1 \; tone-type-set 1 \; tone-all 1 \; tone-hipass-set
set 1 \;;
#X connect 0 0 5 0;
#X connect 1 0 3 0;
#X connect 2 0 4 0;
#X restore 22 332 pd glue+loadbang;
#N canvas 207 133 468 559 tone-generator 0;
#X obj 22 187 osc~;
#X obj 22 81 mtof;
#X floatatom 22 58 0 0 0 0 - - -;
#X floatatom 22 103 0 0 0 0 - - -;
#X obj 22 163 sig~;
#X obj 22 33 r tone-pitch;
#X obj 119 179 noise~;
#X obj 65 249 +~;
#X obj 282 140 - 1;
#X obj 282 172 * -1;
#X obj 191 228 line~;
#X obj 281 229 line~;
#X obj 22 211 *~;
#X obj 119 210 *~;
#X msg 191 199 \$1 20;
#X msg 281 200 \$1 20;
#X floatatom 273 109 0 0 0 0 - - -;
#X obj 64 504 *~;
#X obj 86 477 line~;
#X obj 86 450 pack 0 50;
#X floatatom 201 365 0 0 0 0 - - -;
#X obj 86 423 dbtorms;
#X obj 64 530 s~ tone-osc;
#X obj 201 282 r tone-radio;
#X obj 201 310 sel 0 1 2;
#X msg 270 333 0;
#X msg 201 335 80;
#X msg 234 335 60;
#X obj 273 86 r tone-type;
#X obj 89 359 r tone-level;
#X obj 178 453 s tone-level-set;
#X msg 177 428 set \$1;
#X obj 329 452 s tone-radio-set;
#X obj 327 369 sel 80 60 0;
#X msg 327 394 0;
#X msg 360 394 1;
#X msg 393 394 2;
#X msg 329 426 set \$1;
#X msg 423 394 2;
#X obj 72 89 s tone-pitch-set;
#X msg 72 66 set \$1;
#X obj 177 29 r tone-hz;
#X msg 75 117 set \$1;
#X obj 75 140 s tone-hz-set;
#X obj 177 55 ftom;
#X connect 0 0 12 0;
#X connect 1 0 3 0;
#X connect 2 0 1 0;
#X connect 2 0 40 0;
#X connect 3 0 4 0;
#X connect 3 0 42 0;
#X connect 4 0 0 0;
#X connect 5 0 2 0;
#X connect 6 0 13 0;
#X connect 7 0 17 0;
#X connect 8 0 9 0;
#X connect 9 0 15 0;
#X connect 10 0 12 1;
#X connect 11 0 13 1;
#X connect 12 0 7 0;
#X connect 13 0 7 1;
#X connect 14 0 10 0;
#X connect 15 0 11 0;
#X connect 16 0 8 0;
#X connect 16 0 14 0;
#X connect 17 0 22 0;
#X connect 18 0 17 1;
#X connect 19 0 18 0;
#X connect 20 0 21 0;
#X connect 20 0 31 0;
#X connect 21 0 19 0;
#X connect 23 0 24 0;
#X connect 24 0 26 0;
#X connect 24 1 27 0;
#X connect 24 2 25 0;
#X connect 25 0 20 0;
#X connect 26 0 20 0;
#X connect 27 0 20 0;
#X connect 28 0 16 0;
#X connect 29 0 31 0;
#X connect 29 0 21 0;
#X connect 31 0 30 0;
#X connect 33 0 34 0;
#X connect 33 1 35 0;
#X connect 33 2 36 0;
#X connect 33 3 38 0;
#X connect 34 0 37 0;
#X connect 35 0 37 0;
#X connect 36 0 37 0;
#X connect 37 0 32 0;
#X connect 38 0 37 0;
#X connect 40 0 39 0;
#X connect 41 0 44 0;
#X connect 42 0 43 0;
#X connect 44 0 2 0;
#X restore 24 68 pd tone-generator;
#N canvas 76 157 975 436 assigns 0;
#X obj 12 71 hip~ 5;
#X obj 20 122 int;
#X obj 20 96 env~ 8192;
#X obj 12 18 adc~ 1;
#X obj 22 171 r~ tone-mon;
#X obj 31 306 line~;
#X obj 12 196 *~;
#X obj 31 279 pack 0 50;
#X obj 31 253 r tone-ch1;
#X obj 22 226 r~ tone-osc;
#X obj 22 331 *~;
#X obj 12 386 dac~ 1;
#X obj 12 361 +~;
#X obj 20 44 r tone-hip;
#X obj 132 70 hip~ 5;
#X obj 140 121 int;
#X obj 140 95 env~ 8192;
#X obj 142 170 r~ tone-mon;
#X obj 151 305 line~;
#X obj 132 195 *~;
#X obj 151 278 pack 0 50;
#X obj 142 225 r~ tone-osc;
#X obj 142 330 *~;
#X obj 132 360 +~;
#X obj 140 43 r tone-hip;
#X obj 132 17 adc~ 2;
#X obj 132 385 dac~ 2;
#X obj 151 252 r tone-ch2;
#X obj 254 72 hip~ 5;
#X obj 262 123 int;
#X obj 262 97 env~ 8192;
#X obj 264 172 r~ tone-mon;
#X obj 273 307 line~;
#X obj 254 197 *~;
#X obj 273 280 pack 0 50;
#X obj 264 227 r~ tone-osc;
#X obj 264 332 *~;
#X obj 254 362 +~;
#X obj 262 45 r tone-hip;
#X obj 370 68 hip~ 5;
#X obj 378 119 int;
#X obj 378 93 env~ 8192;
#X obj 380 168 r~ tone-mon;
#X obj 389 303 line~;
#X obj 370 193 *~;
#X obj 389 276 pack 0 50;
#X obj 380 223 r~ tone-osc;
#X obj 380 328 *~;
#X obj 370 358 +~;
#X obj 378 41 r tone-hip;
#X obj 487 68 hip~ 5;
#X obj 495 119 int;
#X obj 495 93 env~ 8192;
#X obj 497 168 r~ tone-mon;
#X obj 506 303 line~;
#X obj 487 193 *~;
#X obj 506 276 pack 0 50;
#X obj 497 223 r~ tone-osc;
#X obj 497 328 *~;
#X obj 487 358 +~;
#X obj 495 41 r tone-hip;
#X obj 607 67 hip~ 5;
#X obj 615 118 int;
#X obj 615 92 env~ 8192;
#X obj 617 167 r~ tone-mon;
#X obj 626 302 line~;
#X obj 607 192 *~;
#X obj 626 275 pack 0 50;
#X obj 617 222 r~ tone-osc;
#X obj 617 327 *~;
#X obj 607 357 +~;
#X obj 615 40 r tone-hip;
#X obj 254 19 adc~ 3;
#X obj 370 15 adc~ 4;
#X obj 487 15 adc~ 5;
#X obj 607 14 adc~ 6;
#X obj 273 254 r tone-ch3;
#X obj 389 249 r tone-ch4;
#X obj 506 250 r tone-ch5;
#X obj 626 249 r tone-ch6;
#X obj 254 387 dac~ 3;
#X obj 369 382 dac~ 4;
#X obj 487 383 dac~ 5;
#X obj 607 382 dac~ 6;
#X obj 725 72 hip~ 5;
#X obj 733 123 int;
#X obj 733 97 env~ 8192;
#X obj 735 172 r~ tone-mon;
#X obj 744 307 line~;
#X obj 725 197 *~;
#X obj 744 280 pack 0 50;
#X obj 735 227 r~ tone-osc;
#X obj 735 332 *~;
#X obj 725 362 +~;
#X obj 733 45 r tone-hip;
#X obj 845 71 hip~ 5;
#X obj 853 122 int;
#X obj 853 96 env~ 8192;
#X obj 855 171 r~ tone-mon;
#X obj 864 306 line~;
#X obj 845 196 *~;
#X obj 864 279 pack 0 50;
#X obj 855 226 r~ tone-osc;
#X obj 855 331 *~;
#X obj 845 361 +~;
#X obj 853 44 r tone-hip;
#X obj 725 19 adc~ 7;
#X obj 845 18 adc~ 8;
#X obj 725 387 dac~ 7;
#X obj 845 386 dac~ 8;
#X obj 744 254 r tone-ch7;
#X obj 864 253 r tone-ch8;
#X obj 20 148 s tone-vu1;
#X obj 140 147 s tone-vu2;
#X obj 262 149 s tone-vu3;
#X obj 378 145 s tone-vu4;
#X obj 495 145 s tone-vu5;
#X obj 615 144 s tone-vu6;
#X obj 733 149 s tone-vu7;
#X obj 853 148 s tone-vu8;
#X connect 0 0 6 0;
#X connect 0 0 2 0;
#X connect 1 0 112 0;
#X connect 2 0 1 0;
#X connect 3 0 0 0;
#X connect 4 0 6 1;
#X connect 5 0 10 1;
#X connect 6 0 12 0;
#X connect 7 0 5 0;
#X connect 8 0 7 0;
#X connect 9 0 10 0;
#X connect 10 0 12 1;
#X connect 12 0 11 0;
#X connect 13 0 0 1;
#X connect 14 0 19 0;
#X connect 14 0 16 0;
#X connect 15 0 113 0;
#X connect 16 0 15 0;
#X connect 17 0 19 1;
#X connect 18 0 22 1;
#X connect 19 0 23 0;
#X connect 20 0 18 0;
#X connect 21 0 22 0;
#X connect 22 0 23 1;
#X connect 23 0 26 0;
#X connect 24 0 14 1;
#X connect 25 0 14 0;
#X connect 27 0 20 0;
#X connect 28 0 33 0;
#X connect 28 0 30 0;
#X connect 29 0 114 0;
#X connect 30 0 29 0;
#X connect 31 0 33 1;
#X connect 32 0 36 1;
#X connect 33 0 37 0;
#X connect 34 0 32 0;
#X connect 35 0 36 0;
#X connect 36 0 37 1;
#X connect 37 0 80 0;
#X connect 38 0 28 1;
#X connect 39 0 44 0;
#X connect 39 0 41 0;
#X connect 40 0 115 0;
#X connect 41 0 40 0;
#X connect 42 0 44 1;
#X connect 43 0 47 1;
#X connect 44 0 48 0;
#X connect 45 0 43 0;
#X connect 46 0 47 0;
#X connect 47 0 48 1;
#X connect 48 0 81 0;
#X connect 49 0 39 1;
#X connect 50 0 55 0;
#X connect 50 0 52 0;
#X connect 51 0 116 0;
#X connect 52 0 51 0;
#X connect 53 0 55 1;
#X connect 54 0 58 1;
#X connect 55 0 59 0;
#X connect 56 0 54 0;
#X connect 57 0 58 0;
#X connect 58 0 59 1;
#X connect 59 0 82 0;
#X connect 60 0 50 1;
#X connect 61 0 66 0;
#X connect 61 0 63 0;
#X connect 62 0 117 0;
#X connect 63 0 62 0;
#X connect 64 0 66 1;
#X connect 65 0 69 1;
#X connect 66 0 70 0;
#X connect 67 0 65 0;
#X connect 68 0 69 0;
#X connect 69 0 70 1;
#X connect 70 0 83 0;
#X connect 71 0 61 1;
#X connect 72 0 28 0;
#X connect 73 0 39 0;
#X connect 74 0 50 0;
#X connect 75 0 61 0;
#X connect 76 0 34 0;
#X connect 77 0 45 0;
#X connect 78 0 56 0;
#X connect 79 0 67 0;
#X connect 84 0 89 0;
#X connect 84 0 86 0;
#X connect 85 0 118 0;
#X connect 86 0 85 0;
#X connect 87 0 89 1;
#X connect 88 0 92 1;
#X connect 89 0 93 0;
#X connect 90 0 88 0;
#X connect 91 0 92 0;
#X connect 92 0 93 1;
#X connect 93 0 108 0;
#X connect 94 0 84 1;
#X connect 95 0 100 0;
#X connect 95 0 97 0;
#X connect 96 0 119 0;
#X connect 97 0 96 0;
#X connect 98 0 100 1;
#X connect 99 0 103 1;
#X connect 100 0 104 0;
#X connect 101 0 99 0;
#X connect 102 0 103 0;
#X connect 103 0 104 1;
#X connect 104 0 109 0;
#X connect 105 0 95 1;
#X connect 106 0 84 0;
#X connect 107 0 95 0;
#X connect 110 0 90 0;
#X connect 111 0 101 0;
#X restore 38 387 pd assigns;
#X obj 178 87 loadbang;
#X obj 178 111 1;
#X connect 1 0 0 0;
#X connect 2 0 1 0;
#X connect 3 0 2 0;
#X connect 4 0 5 0;
#X connect 6 0 4 0;
#X connect 10 0 11 0;
#X connect 11 0 4 0;
#X restore 388 243 pd audio;
#X floatatom 22 144 3 0 100 1 - tone-level-set tone-level;
#X floatatom 84 123 5 0 100 1 pitch tone-pitch-set tone-pitch;
#X floatatom 84 145 5 0 20000 1 HZ tone-hz-set tone-hz;
#X text 48 145 dB;
#X text 34 67 TEST TONES;
#X text 233 156 AUDIO OUTPUT ON/OFF;
#X text 18 5 Welcome to Pd ("Pure Data"). You can use this window to
test audio and MIDI connections. To see Pd's DOCUMENTATION \, select
"getting started" in the Help menu.;
#X text 18 323 Pd is Free software under the BSD license. See LICENSE.txt
in the distribution for details.;
#X obj 27 292 bng 20 250 50 0 empty empty empty 17 7 0 10 -262144 -1
-1;
#X obj 120 293 bng 20 250 50 0 empty empty empty 17 7 0 10 -262144
-1 -1;
#X text 39 105 60;
#X text 39 88 80;
#X text 16 163 (100 max);
#X connect 1 0 2 0;
#X connect 1 1 2 1;
#X connect 2 0 3 0;
#X connect 2 1 0 0;
#X connect 3 0 47 0;
#X connect 7 0 48 0;
#X connect 8 0 7 0;
#X connect 8 1 6 0;
#X connect 14 0 9 0;
