#N canvas 432 23 677 612 12;
#X floatatom 102 539 5 0 0 0 - - - 0;
#X obj 83 483 notein;
#X obj 42 512 stripnote;
#X floatatom 42 539 4 0 0 0 - - - 0;
#X floatatom 185 512 3 0 0 0 - - - 0;
#X floatatom 155 512 3 0 0 0 - - - 0;
#X obj 169 483 ctlin;
#X obj 190 407 tgl 20 0 \$0-tone-ch1 \$0-tone-ch1 1 5 30 0 12 #dfdfdf #000000 #000000 0 1;
#X obj 210 407 tgl 20 0 \$0-tone-ch2 \$0-tone-ch2 2 5 30 0 12 #dfdfdf #000000 #000000 0 1;
#X obj 429 496 tgl 20 0 empty empty empty 20 8 0 8 #dfdfdf #000000 #000000 0 1;
#X text 64 347 OFF;
#X obj 372 154 tgl 24 0 \$0-tone-hipass \$0-tone-hipass-set empty 23 8 0 12 #dfdfdf #000000 #000000 0 1;
#X obj 272 407 tgl 20 0 \$0-tone-ch3 \$0-tone-ch3 3 5 30 0 12 #dfdfdf #000000 #000000 0 1;
#X obj 292 407 tgl 20 0 \$0-tone-ch4 \$0-tone-ch4 4 5 30 0 12 #dfdfdf #000000 #000000 0 1;
#X obj 354 407 tgl 20 0 \$0-tone-ch5 \$0-tone-ch5 5 5 30 0 12 #dfdfdf #000000 #000000 0 1;
#X obj 374 407 tgl 20 0 \$0-tone-ch6 \$0-tone-ch6 6 5 30 0 12 #dfdfdf #000000 #000000 0 1;
#X obj 364 379 bng 19 250 50 0 \$0-tone-all \$0-tone-all empty 21 9 0 12 #dfdfdf #000000 #000000;
#X obj 416 379 bng 19 250 50 0 \$0-tone-none \$0-tone-none empty 21 9 0 12 #dfdfdf #000000 #000000;
#X obj 41 177 vradio 19 1 0 2 \$0-tone-type \$0-tone-type-set empty 0 -6 0 8 #dfdfdf #000000 #000000 0;
#X obj 43 307 vradio 19 1 0 3 \$0-tone-radio \$0-tone-radio-set empty 0 -6 0 8 #dfdfdf #000000 #000000 0;
#X obj 436 407 tgl 20 0 \$0-tone-ch7 \$0-tone-ch7 7 5 30 0 12 #dfdfdf #000000 #000000 0 1;
#X obj 456 407 tgl 20 0 \$0-tone-ch8 \$0-tone-ch8 8 5 30 0 12 #dfdfdf #000000 #000000 0 1;
#X floatatom 43 375 4 0 100 1 - \$0-tone-level-set \$0-tone-level 16;
#X floatatom 40 226 5 0 136 1 - \$0-tone-pitch-set \$0-tone-pitch 0;
#X floatatom 40 257 6 0 20000 1 - \$0-tone-hz-set \$0-tone-hz 0;
#X text 87 378 dB;
#X text 36 147 TEST TONES;
#X obj 42 565 bng 20 250 50 0 empty empty empty 17 7 0 10 #dfdfdf #000000 #000000;
#X obj 155 539 bng 20 250 50 0 empty empty empty 17 7 0 10 #dfdfdf #000000 #000000;
#X obj 546 197 vradio 19 1 0 8 \$0-inch-sel \$0-inch-sel empty 0 -8 0 10 #dfdfdf #000000 #000000 0;
#X obj 572 197 vradio 19 1 0 8 \$0-outch-sel \$0-outch-sel empty 0 -8 0 10 #dfdfdf #000000 #000000 0;
#X text 593 293 11-18;
#X text 593 312 17-24;
#X floatatom 216 343 4 0 120 0 - \$0-input-monitor-gain-set \$0-input-monitor-gain 16;
#X text 593 331 25-32;
#X text 437 380 NONE;
#X text 385 380 ALL;
#X text 64 177 Noise;
#X text 63 198 Tone;
#X text 593 198 01-08;
#X text 593 217 03-10;
#X text 593 236 05-12;
#X text 593 255 07-14;
#X text 593 273 09-16;
#X text 544 161 Channel assign:, f 7;
#X text 546 352 In;
#X text 570 352 Out;
#X text 80 233 Pitch;
#X text 81 221 MIDI;
#X text 86 258 Hertz;
#X obj 170 208 vu 19 120 \$0-vu1 empty -1 -10 0 12 #404040 #000000 0 0;
#X obj 191 208 vu 19 120 \$0-vu2 empty -1 -10 0 10 #404040 #000000 1 0;
#X obj 252 208 vu 19 120 \$0-vu3 empty -1 -10 0 12 #404040 #000000 0 0;
#X obj 273 208 vu 19 120 \$0-vu4 empty -1 -10 0 10 #404040 #000000 1 0;
#X obj 334 208 vu 19 120 \$0-vu5 empty -1 -10 0 12 #404040 #000000 0 0;
#X obj 355 208 vu 19 120 \$0-vu6 empty -1 -10 0 10 #404040 #000000 1 0;
#X obj 416 208 vu 19 120 \$0-vu7 empty -1 -10 0 12 #404040 #000000 0 0;
#X obj 437 208 vu 19 120 \$0-vu8 empty -1 -10 0 10 #404040 #000000 1 0;
#X text 492 419 |;
#X text 148 420 |;
#X text 492 135 |;
#X text 492 147 |;
#X text 148 135 |;
#X text 148 147 |;
#X text 64 307 80 dB;
#X text 64 326 60 dB;
#X text 38 285 OUT GAIN;
#X text 474 379 ---;
#N canvas 670 117 313 453 guts 0;
#X obj 83 396 s~ \$0-tone-mon;
#X obj 83 370 line~;
#X obj 80 225 * 5;
#X obj 80 254 s \$0-tone-hip;
#X obj 80 194 r \$0-tone-hipass;
#N canvas 799 168 518 309 glue+loadbang 0;
#X obj 29 21 loadbang;
#X obj 235 22 r \$0-tone-all;
#X obj 370 22 r \$0-tone-none;
#X obj 29 88 list prepend \$0;
#X msg 29 123 \; pd dsp 1 \; \$1-tone-pitch 69 \; \$1-tone-radio 2 \; \$1-tone-radio-set set 2 \; \$1-tone-type 1 \; \$1-tone-type-set 1 \; \$1-tone-all 1 \; \$1-tone-hipass 1 \; \$1-tone-hipass-set set 1 \;;
#X obj 235 88 list prepend \$0;
#X obj 370 88 list prepend \$0;
#X msg 235 138 \; \$1-tone-ch1 1 \; \$1-tone-ch2 1 \; \$1-tone-ch3 1 \; \$1-tone-ch4 1 \; \$1-tone-ch5 1 \; \$1-tone-ch6 1 \; \$1-tone-ch7 1 \; \$1-tone-ch8 1;
#X msg 370 139 \; \$1-tone-ch1 0 \; \$1-tone-ch2 0 \; \$1-tone-ch3 0 \; \$1-tone-ch4 0 \; \$1-tone-ch5 0 \; \$1-tone-ch6 0 \; \$1-tone-ch7 0 \; \$1-tone-ch8 0;
#X obj 29 56 bng 19 250 50 0 empty empty empty 17 7 0 10 #dfdfdf #000000 #000000;
#X obj 235 56 bng 19 250 50 0 empty empty empty 17 7 0 10 #dfdfdf #000000 #000000;
#X obj 370 56 bng 19 250 50 0 empty empty empty 17 7 0 10 #dfdfdf #000000 #000000;
#X connect 0 0 9 0;
#X connect 1 0 10 0;
#X connect 2 0 11 0;
#X connect 3 0 4 0;
#X connect 5 0 7 0;
#X connect 6 0 8 0;
#X connect 9 0 3 0;
#X connect 10 0 5 0;
#X connect 11 0 6 0;
#X restore 68 76 pd glue+loadbang;
#N canvas 762 44 421 624 tone-generator 0;
#X obj 52 195 osc~;
#X obj 52 119 mtof;
#X floatatom 106 86 6 0 0 0 - - - 0;
#X floatatom 52 145 6 0 0 0 - - - 0;
#X obj 106 51 r \$0-tone-pitch;
#X obj 149 277 noise~;
#X obj 95 277 +~;
#X obj 303 168 - 1;
#X obj 303 200 * -1;
#X obj 221 246 line~;
#X obj 303 257 line~;
#X obj 52 239 *~;
#X obj 149 318 *~;
#X msg 221 217 \$1 20;
#X msg 303 228 \$1 20;
#X floatatom 303 137 0 0 0 0 - - - 0;
#X obj 94 532 *~;
#X obj 112 505 line~;
#X floatatom 255 393 4 0 0 0 - - - 0;
#X obj 112 451 dbtorms;
#X obj 94 558 s~ \$0-tone-osc;
#X obj 221 310 r \$0-tone-radio;
#X msg 289 363 0;
#X msg 221 363 80;
#X msg 255 363 60;
#X obj 303 109 r \$0-tone-type;
#X obj 112 393 r \$0-tone-level;
#X obj 255 481 s \$0-tone-level-set;
#X msg 255 448 set \$1;
#X obj 106 139 s \$0-tone-pitch-set;
#X msg 106 116 set \$1;
#X obj 64 25 r \$0-tone-hz;
#X msg 95 173 set \$1;
#X obj 95 196 s \$0-tone-hz-set;
#X obj 64 51 ftom;
#X obj 221 338 select 0 1 2, f 15;
#X obj 112 478 pack f 50;
#X connect 0 0 11 0;
#X connect 1 0 3 0;
#X connect 2 0 1 0;
#X connect 2 0 30 0;
#X connect 3 0 32 0;
#X connect 3 0 0 0;
#X connect 4 0 2 0;
#X connect 5 0 12 0;
#X connect 6 0 16 0;
#X connect 7 0 8 0;
#X connect 8 0 14 0;
#X connect 9 0 11 1;
#X connect 10 0 12 1;
#X connect 11 0 6 0;
#X connect 12 0 6 1;
#X connect 13 0 9 0;
#X connect 14 0 10 0;
#X connect 15 0 7 0;
#X connect 15 0 13 0;
#X connect 16 0 20 0;
#X connect 17 0 16 1;
#X connect 18 0 19 0;
#X connect 18 0 28 0;
#X connect 19 0 36 0;
#X connect 21 0 35 0;
#X connect 22 0 18 0;
#X connect 23 0 18 0;
#X connect 24 0 18 0;
#X connect 25 0 15 0;
#X connect 26 0 19 0;
#X connect 28 0 27 0;
#X connect 30 0 29 0;
#X connect 31 0 34 0;
#X connect 32 0 33 0;
#X connect 34 0 2 0;
#X connect 35 0 23 0;
#X connect 35 1 24 0;
#X connect 35 2 22 0;
#X connect 36 0 17 0;
#X restore 68 50 pd tone-generator;
#N canvas 547 232 819 380 channel-select 0;
#X obj 39 55 sel 0 1 2 3 4 5 6 7;
#X obj 52 302 s \$0-inchlist;
#X obj 39 30 r \$0-inch-sel;
#X msg 40 84 set 1 2 3 4 5 6 7 8;
#X msg 57 112 set 3 4 5 6 7 8 9 10;
#X msg 76 140 set 5 6 7 8 9 10 11 12;
#X msg 95 167 set 7 8 9 10 11 12 13 14;
#X msg 113 194 set 9 10 11 12 13 14 15 16;
#X msg 138 221 set 11 12 13 14 15 16 17 18;
#X msg 157 248 set 17 18 19 20 21 22 23 24;
#X msg 176 275 set 25 26 27 28 29 30 31 32;
#X obj 414 55 sel 0 1 2 3 4 5 6 7;
#X msg 415 84 set 1 2 3 4 5 6 7 8;
#X msg 432 112 set 3 4 5 6 7 8 9 10;
#X msg 451 140 set 5 6 7 8 9 10 11 12;
#X msg 470 167 set 7 8 9 10 11 12 13 14;
#X msg 488 194 set 9 10 11 12 13 14 15 16;
#X msg 513 221 set 11 12 13 14 15 16 17 18;
#X msg 532 248 set 17 18 19 20 21 22 23 24;
#X msg 551 275 set 25 26 27 28 29 30 31 32;
#X obj 414 30 r \$0-outch-sel;
#X obj 427 302 s \$0-outchlist;
#X connect 0 0 3 0;
#X connect 0 1 4 0;
#X connect 0 2 5 0;
#X connect 0 3 6 0;
#X connect 0 4 7 0;
#X connect 0 5 8 0;
#X connect 0 6 9 0;
#X connect 0 7 10 0;
#X connect 2 0 0 0;
#X connect 3 0 1 0;
#X connect 4 0 1 0;
#X connect 5 0 1 0;
#X connect 6 0 1 0;
#X connect 7 0 1 0;
#X connect 8 0 1 0;
#X connect 9 0 1 0;
#X connect 10 0 1 0;
#X connect 11 0 12 0;
#X connect 11 1 13 0;
#X connect 11 2 14 0;
#X connect 11 3 15 0;
#X connect 11 4 16 0;
#X connect 11 5 17 0;
#X connect 11 6 18 0;
#X connect 11 7 19 0;
#X connect 12 0 21 0;
#X connect 13 0 21 0;
#X connect 14 0 21 0;
#X connect 15 0 21 0;
#X connect 16 0 21 0;
#X connect 17 0 21 0;
#X connect 18 0 21 0;
#X connect 19 0 21 0;
#X connect 20 0 11 0;
#X restore 68 103 pd channel-select;
#X obj 83 289 r \$0-input-monitor-gain;
#X obj 83 314 dbtorms;
#X obj 83 342 pack f 50;
#N canvas 174 101 1013 584 adcs-and-dacs 0;
#X obj 13 100 hip~ 5;
#X obj 23 230 r~ \$0-tone-mon;
#X obj 32 365 line~;
#X obj 13 255 *~;
#X obj 32 338 pack 0 50;
#X obj 32 312 r \$0-tone-ch1;
#X obj 23 285 r~ \$0-tone-osc;
#X obj 23 390 *~;
#X obj 13 420 +~;
#X obj 30 73 r \$0-tone-hip;
#X obj 133 99 hip~ 5;
#X obj 143 229 r~ \$0-tone-mon;
#X obj 152 364 line~;
#X obj 133 254 *~;
#X obj 152 337 pack 0 50;
#X obj 143 284 r~ \$0-tone-osc;
#X obj 143 389 *~;
#X obj 133 419 +~;
#X obj 150 73 r \$0-tone-hip;
#X obj 152 311 r \$0-tone-ch2;
#X obj 254 101 hip~ 5;
#X obj 264 231 r~ \$0-tone-mon;
#X obj 273 366 line~;
#X obj 254 256 *~;
#X obj 273 339 pack 0 50;
#X obj 264 286 r~ \$0-tone-osc;
#X obj 264 391 *~;
#X obj 254 421 +~;
#X obj 271 73 r \$0-tone-hip;
#X obj 374 97 hip~ 5;
#X obj 384 227 r~ \$0-tone-mon;
#X obj 393 362 line~;
#X obj 374 252 *~;
#X obj 393 335 pack 0 50;
#X obj 384 282 r~ \$0-tone-osc;
#X obj 384 387 *~;
#X obj 374 417 +~;
#X obj 391 73 r \$0-tone-hip;
#X obj 495 97 hip~ 5;
#X obj 505 227 r~ \$0-tone-mon;
#X obj 514 362 line~;
#X obj 495 252 *~;
#X obj 514 335 pack 0 50;
#X obj 505 282 r~ \$0-tone-osc;
#X obj 505 387 *~;
#X obj 495 417 +~;
#X obj 512 73 r \$0-tone-hip;
#X obj 615 96 hip~ 5;
#X obj 625 226 r~ \$0-tone-mon;
#X obj 634 361 line~;
#X obj 615 251 *~;
#X obj 634 334 pack 0 50;
#X obj 625 281 r~ \$0-tone-osc;
#X obj 625 386 *~;
#X obj 615 416 +~;
#X obj 632 73 r \$0-tone-hip;
#X obj 273 313 r \$0-tone-ch3;
#X obj 393 308 r \$0-tone-ch4;
#X obj 514 309 r \$0-tone-ch5;
#X obj 634 308 r \$0-tone-ch6;
#X obj 736 101 hip~ 5;
#X obj 746 231 r~ \$0-tone-mon;
#X obj 755 366 line~;
#X obj 736 256 *~;
#X obj 755 339 pack 0 50;
#X obj 746 286 r~ \$0-tone-osc;
#X obj 746 391 *~;
#X obj 736 421 +~;
#X obj 753 73 r \$0-tone-hip;
#X obj 857 100 hip~ 5;
#X obj 867 230 r~ \$0-tone-mon;
#X obj 876 365 line~;
#X obj 857 255 *~;
#X obj 876 338 pack 0 50;
#X obj 867 285 r~ \$0-tone-osc;
#X obj 867 390 *~;
#X obj 857 420 +~;
#X obj 874 73 r \$0-tone-hip;
#X obj 755 313 r \$0-tone-ch7;
#X obj 876 312 r \$0-tone-ch8;
#X obj 13 39 adc~ 1 2 3 4 5 6 7 8, f 120;
#X obj 13 490 dac~ 1 2 3 4 5 6 7 8, f 121;
#X obj 23 450 r \$0-outchlist;
#X obj 13 12 r \$0-inchlist;
#X obj 31 175 s \$0-vu1;
#X obj 150 175 s \$0-vu2;
#X obj 270 175 s \$0-vu3;
#X obj 390 175 s \$0-vu4;
#X obj 512 175 s \$0-vu5;
#X obj 632 175 s \$0-vu6;
#X obj 755 175 s \$0-vu7;
#X obj 875 175 s \$0-vu8;
#N canvas 174 166 334 429 vu 0;
#X obj 165 111 abs~;
#X obj 165 213 snapshot~;
#X obj 165 256 rmstodb;
#X obj 165 41 inlet~;
#X obj 165 288 - 100;
#X obj 43 287 - 100;
#X obj 43 171 t f b;
#X obj 165 146 slop~ 0 0 2 0 1e+09;
#X obj 43 328 pack;
#X obj 43 362 outlet;
#X obj 43 129 env~ 2048 512;
#X connect 0 0 7 0;
#X connect 1 0 2 0;
#X connect 2 0 4 0;
#X connect 3 0 0 0;
#X connect 3 0 10 0;
#X connect 4 0 8 1;
#X connect 5 0 8 0;
#X connect 6 0 5 0;
#X connect 6 1 1 0;
#X connect 7 0 1 0;
#X connect 8 0 9 0;
#X connect 10 0 6 0;
#X restore 31 143 pd vu;
#N canvas 174 166 334 429 vu 0;
#X obj 165 111 abs~;
#X obj 165 213 snapshot~;
#X obj 165 256 rmstodb;
#X obj 165 41 inlet~;
#X obj 165 288 - 100;
#X obj 43 287 - 100;
#X obj 43 171 t f b;
#X obj 165 146 slop~ 0 0 2 0 1e+09;
#X obj 43 328 pack;
#X obj 43 362 outlet;
#X obj 43 129 env~ 2048 512;
#X connect 0 0 7 0;
#X connect 1 0 2 0;
#X connect 2 0 4 0;
#X connect 3 0 0 0;
#X connect 3 0 10 0;
#X connect 4 0 8 1;
#X connect 5 0 8 0;
#X connect 6 0 5 0;
#X connect 6 1 1 0;
#X connect 7 0 1 0;
#X connect 8 0 9 0;
#X connect 10 0 6 0;
#X restore 150 143 pd vu;
#N canvas 174 166 334 429 vu 0;
#X obj 165 111 abs~;
#X obj 165 213 snapshot~;
#X obj 165 256 rmstodb;
#X obj 165 41 inlet~;
#X obj 165 288 - 100;
#X obj 43 287 - 100;
#X obj 43 171 t f b;
#X obj 165 146 slop~ 0 0 2 0 1e+09;
#X obj 43 328 pack;
#X obj 43 362 outlet;
#X obj 43 129 env~ 2048 512;
#X connect 0 0 7 0;
#X connect 1 0 2 0;
#X connect 2 0 4 0;
#X connect 3 0 0 0;
#X connect 3 0 10 0;
#X connect 4 0 8 1;
#X connect 5 0 8 0;
#X connect 6 0 5 0;
#X connect 6 1 1 0;
#X connect 7 0 1 0;
#X connect 8 0 9 0;
#X connect 10 0 6 0;
#X restore 270 143 pd vu;
#N canvas 174 166 334 429 vu 0;
#X obj 165 111 abs~;
#X obj 165 213 snapshot~;
#X obj 165 256 rmstodb;
#X obj 165 41 inlet~;
#X obj 165 288 - 100;
#X obj 43 287 - 100;
#X obj 43 171 t f b;
#X obj 165 146 slop~ 0 0 2 0 1e+09;
#X obj 43 328 pack;
#X obj 43 362 outlet;
#X obj 43 129 env~ 2048 512;
#X connect 0 0 7 0;
#X connect 1 0 2 0;
#X connect 2 0 4 0;
#X connect 3 0 0 0;
#X connect 3 0 10 0;
#X connect 4 0 8 1;
#X connect 5 0 8 0;
#X connect 6 0 5 0;
#X connect 6 1 1 0;
#X connect 7 0 1 0;
#X connect 8 0 9 0;
#X connect 10 0 6 0;
#X restore 390 143 pd vu;
#N canvas 174 166 334 429 vu 0;
#X obj 165 111 abs~;
#X obj 165 213 snapshot~;
#X obj 165 256 rmstodb;
#X obj 165 41 inlet~;
#X obj 165 288 - 100;
#X obj 43 287 - 100;
#X obj 43 171 t f b;
#X obj 165 146 slop~ 0 0 2 0 1e+09;
#X obj 43 328 pack;
#X obj 43 362 outlet;
#X obj 43 129 env~ 2048 512;
#X connect 0 0 7 0;
#X connect 1 0 2 0;
#X connect 2 0 4 0;
#X connect 3 0 0 0;
#X connect 3 0 10 0;
#X connect 4 0 8 1;
#X connect 5 0 8 0;
#X connect 6 0 5 0;
#X connect 6 1 1 0;
#X connect 7 0 1 0;
#X connect 8 0 9 0;
#X connect 10 0 6 0;
#X restore 512 143 pd vu;
#N canvas 174 166 334 429 vu 0;
#X obj 165 111 abs~;
#X obj 165 213 snapshot~;
#X obj 165 256 rmstodb;
#X obj 165 41 inlet~;
#X obj 165 288 - 100;
#X obj 43 287 - 100;
#X obj 43 171 t f b;
#X obj 165 146 slop~ 0 0 2 0 1e+09;
#X obj 43 328 pack;
#X obj 43 362 outlet;
#X obj 43 129 env~ 2048 512;
#X connect 0 0 7 0;
#X connect 1 0 2 0;
#X connect 2 0 4 0;
#X connect 3 0 0 0;
#X connect 3 0 10 0;
#X connect 4 0 8 1;
#X connect 5 0 8 0;
#X connect 6 0 5 0;
#X connect 6 1 1 0;
#X connect 7 0 1 0;
#X connect 8 0 9 0;
#X connect 10 0 6 0;
#X restore 632 143 pd vu;
#N canvas 174 166 334 429 vu 0;
#X obj 165 111 abs~;
#X obj 165 213 snapshot~;
#X obj 165 256 rmstodb;
#X obj 165 41 inlet~;
#X obj 165 288 - 100;
#X obj 43 287 - 100;
#X obj 43 171 t f b;
#X obj 165 146 slop~ 0 0 2 0 1e+09;
#X obj 43 328 pack;
#X obj 43 362 outlet;
#X obj 43 129 env~ 2048 512;
#X connect 0 0 7 0;
#X connect 1 0 2 0;
#X connect 2 0 4 0;
#X connect 3 0 0 0;
#X connect 3 0 10 0;
#X connect 4 0 8 1;
#X connect 5 0 8 0;
#X connect 6 0 5 0;
#X connect 6 1 1 0;
#X connect 7 0 1 0;
#X connect 8 0 9 0;
#X connect 10 0 6 0;
#X restore 755 143 pd vu;
#N canvas 174 166 334 429 vu 0;
#X obj 165 111 abs~;
#X obj 165 213 snapshot~;
#X obj 165 256 rmstodb;
#X obj 165 41 inlet~;
#X obj 165 288 - 100;
#X obj 43 287 - 100;
#X obj 43 171 t f b;
#X obj 165 146 slop~ 0 0 2 0 1e+09;
#X obj 43 328 pack;
#X obj 43 362 outlet;
#X obj 43 129 env~ 2048 512;
#X connect 0 0 7 0;
#X connect 1 0 2 0;
#X connect 2 0 4 0;
#X connect 3 0 0 0;
#X connect 3 0 10 0;
#X connect 4 0 8 1;
#X connect 5 0 8 0;
#X connect 6 0 5 0;
#X connect 6 1 1 0;
#X connect 7 0 1 0;
#X connect 8 0 9 0;
#X connect 10 0 6 0;
#X restore 875 143 pd vu;
#X connect 0 0 3 0;
#X connect 0 0 92 0;
#X connect 1 0 3 1;
#X connect 2 0 7 1;
#X connect 3 0 8 0;
#X connect 4 0 2 0;
#X connect 5 0 4 0;
#X connect 6 0 7 0;
#X connect 7 0 8 1;
#X connect 8 0 81 0;
#X connect 9 0 0 1;
#X connect 10 0 13 0;
#X connect 10 0 93 0;
#X connect 11 0 13 1;
#X connect 12 0 16 1;
#X connect 13 0 17 0;
#X connect 14 0 12 0;
#X connect 15 0 16 0;
#X connect 16 0 17 1;
#X connect 17 0 81 1;
#X connect 18 0 10 1;
#X connect 19 0 14 0;
#X connect 20 0 23 0;
#X connect 20 0 94 0;
#X connect 21 0 23 1;
#X connect 22 0 26 1;
#X connect 23 0 27 0;
#X connect 24 0 22 0;
#X connect 25 0 26 0;
#X connect 26 0 27 1;
#X connect 27 0 81 2;
#X connect 28 0 20 1;
#X connect 29 0 32 0;
#X connect 29 0 95 0;
#X connect 30 0 32 1;
#X connect 31 0 35 1;
#X connect 32 0 36 0;
#X connect 33 0 31 0;
#X connect 34 0 35 0;
#X connect 35 0 36 1;
#X connect 36 0 81 3;
#X connect 37 0 29 1;
#X connect 38 0 41 0;
#X connect 38 0 96 0;
#X connect 39 0 41 1;
#X connect 40 0 44 1;
#X connect 41 0 45 0;
#X connect 42 0 40 0;
#X connect 43 0 44 0;
#X connect 44 0 45 1;
#X connect 45 0 81 4;
#X connect 46 0 38 1;
#X connect 47 0 50 0;
#X connect 47 0 97 0;
#X connect 48 0 50 1;
#X connect 49 0 53 1;
#X connect 50 0 54 0;
#X connect 51 0 49 0;
#X connect 52 0 53 0;
#X connect 53 0 54 1;
#X connect 54 0 81 5;
#X connect 55 0 47 1;
#X connect 56 0 24 0;
#X connect 57 0 33 0;
#X connect 58 0 42 0;
#X connect 59 0 51 0;
#X connect 60 0 63 0;
#X connect 60 0 98 0;
#X connect 61 0 63 1;
#X connect 62 0 66 1;
#X connect 63 0 67 0;
#X connect 64 0 62 0;
#X connect 65 0 66 0;
#X connect 66 0 67 1;
#X connect 67 0 81 6;
#X connect 68 0 60 1;
#X connect 69 0 72 0;
#X connect 69 0 99 0;
#X connect 70 0 72 1;
#X connect 71 0 75 1;
#X connect 72 0 76 0;
#X connect 73 0 71 0;
#X connect 74 0 75 0;
#X connect 75 0 76 1;
#X connect 76 0 81 7;
#X connect 77 0 69 1;
#X connect 78 0 64 0;
#X connect 79 0 73 0;
#X connect 80 0 0 0;
#X connect 80 1 10 0;
#X connect 80 2 20 0;
#X connect 80 3 29 0;
#X connect 80 4 38 0;
#X connect 80 5 47 0;
#X connect 80 6 60 0;
#X connect 80 7 69 0;
#X connect 82 0 81 0;
#X connect 83 0 80 0;
#X connect 92 0 84 0;
#X connect 93 0 85 0;
#X connect 94 0 86 0;
#X connect 95 0 87 0;
#X connect 96 0 88 0;
#X connect 97 0 89 0;
#X connect 98 0 90 0;
#X connect 99 0 91 0;
#X restore 68 24 pd adcs-and-dacs;
#N canvas 567 82 576 383 tests 0;
#X floatatom 68 206 5 0 0 0 - - - 0;
#X obj 68 180 f;
#X obj 105 180 + 1;
#X obj 68 147 metro 1000;
#X obj 68 120 tgl 19 0 empty empty empty 20 8 0 8 #dfdfdf #000000 #000000 0 1;
#X text 48 71 see if Pd's time;
#X text 48 90 measurement works:;
#X obj 268 253 print~;
#X obj 241 219 bng 19 250 50 0 empty empty empty 0 -6 0 8 #dfdfdf #000000 #000000;
#X obj 268 218 *~ 1;
#X obj 332 111 tgl 19 0 empty empty empty 17 7 0 10 #dfdfdf #000000 #000000 0 1;
#X text 262 78 print out literal values from ADC 1;
#X text 353 109 optionally multiply by 1000;
#X floatatom 162 330 5 0 0 0 - - - 0;
#X obj 162 305 samplerate~;
#X text 252 305 get current sample rate;
#X obj 332 174 f 1;
#X obj 365 174 f 1000;
#X obj 332 144 select 0 1;
#X obj 162 278 bng 19 250 50 0 empty empty empty 0 -6 0 8 #dfdfdf #000000 #000000;
#X obj 268 144 adc~ 1;
#X text 100 27 This window has various weird debugging stuff...;
#X connect 1 0 2 0;
#X connect 1 0 0 0;
#X connect 2 0 1 1;
#X connect 3 0 1 0;
#X connect 4 0 3 0;
#X connect 8 0 7 0;
#X connect 9 0 7 0;
#X connect 10 0 18 0;
#X connect 14 0 13 0;
#X connect 16 0 9 1;
#X connect 17 0 9 1;
#X connect 18 0 16 0;
#X connect 18 1 17 0;
#X connect 19 0 14 0;
#X connect 20 0 9 0;
#X restore 93 146 pd tests;
#X connect 1 0 0 0;
#X connect 2 0 3 0;
#X connect 4 0 2 0;
#X connect 8 0 9 0;
#X connect 9 0 10 0;
#X connect 10 0 1 0;
#X restore 558 398 pd guts;
#X text 151 379 ---- AUDIO OUTPUT ON/OFF ----;
#X text 152 130 -------------- AUDIO INPUT MONITOR --------------;
#X text 492 158 |;
#X text 492 170 |;
#X text 148 158 |;
#X text 148 170 |;
#X text 492 182 |;
#X text 148 182 |;
#X text 492 407 |;
#X text 148 408 |;
#X text 492 395 |;
#X text 148 396 |;
#X text 492 383 |;
#X text 148 384 |;
#X obj 232 483 midiin;
#X text 69 566 note on;
#X text 180 542 control in;
#X floatatom 232 511 5 0 0 0 - - - 0;
#X text 276 512 raw;
#N canvas 587 106 553 387 note-out 0;
#X obj 81 111 inlet;
#X obj 271 311 noteout;
#X floatatom 141 172 4 0 0 0 - - - 0;
#X text 139 148 rate;
#X text 245 212 vel;
#X text 281 212 length;
#X obj 81 200 metro 500;
#X obj 192 271 makenote 64 250;
#X floatatom 243 236 4 0 0 0 - - - 0;
#X floatatom 294 236 4 0 0 0 - - - 0;
#X obj 81 160 tgl 17 0 empty empty empty 17 7 0 10 #dfdfdf #000000 #000000 0 1;
#X obj 81 230 expr random(40 \, 73);
#X connect 0 0 10 0;
#X connect 2 0 6 1;
#X connect 6 0 11 0;
#X connect 7 0 1 0;
#X connect 7 1 1 1;
#X connect 8 0 7 1;
#X connect 9 0 7 2;
#X connect 10 0 6 0;
#X connect 11 0 7 0;
#X restore 429 523 pd note-out;
#X text 353 489 Generate random note out messages, f 9;
#X text 453 496 ON/OFF;
#X obj 530 570 ctlout;
#X text 562 491 value;
#X text 595 544 channel;
#X floatatom 549 517 4 0 127 0 - - - 0;
#X floatatom 530 490 4 0 127 0 - - - 0;
#X floatatom 569 543 0 1 64 0 - - - 0;
#X text 580 518 control #;
#X text 352 570 control out messages -->;
#X text 89 10 Welcome to Pd ("Pure Data"). Pd is Free software under the BSD license (see LICENSE.txt in the distribution for details). For help \, please go to the "Help" menu., f 71;
#X text 238 156 Input highpass -->;
#X text 173 186 1;
#X text 193 186 2;
#X text 256 186 3;
#X text 276 186 4;
#X text 338 186 5;
#X text 358 186 6;
#X text 420 186 7;
#X text 440 186 8;
#X text 492 194 |;
#X text 492 206 |;
#X text 492 218 |;
#X text 148 194 |;
#X text 148 206 |;
#X text 148 218 |;
#X text 492 230 |;
#X text 492 241 |;
#X text 492 253 |;
#X text 492 265 |;
#X text 492 277 |;
#X text 492 289 |;
#X text 492 301 |;
#X text 148 230 |;
#X text 148 241 |;
#X text 148 253 |;
#X text 148 265 |;
#X text 148 277 |;
#X text 148 289 |;
#X text 148 301 |;
#X text 492 313 |;
#X text 492 325 |;
#X text 492 337 |;
#X text 492 349 |;
#X text 492 361 |;
#X text 148 313 |;
#X text 148 325 |;
#X text 148 337 |;
#X text 148 349 |;
#X text 148 361 |;
#X text 13 454 ---------- MIDI INPUT MONITOR ----------;
#X text 336 454 -------------- MIDI OUTPUT TEST --------------;
#X text 179 347 (dB);
#X text 265 346 <-- Input monitor gain (0-120);
#X text 38 404 (0-100);
#N canvas 387 396 450 300 instructions 0;
#X restore 526 123 pd instructions;
#X text 89 64 This window is used to test audio and MIDI connections. You can go to Preferences->Audio and Preferences->MIDI to set your Input/output devices. For more details \, see [pd instructions]., f 71;
#X connect 1 0 2 0;
#X connect 1 1 2 1;
#X connect 2 0 3 0;
#X connect 2 1 0 0;
#X connect 3 0 27 0;
#X connect 5 0 28 0;
#X connect 6 0 5 0;
#X connect 6 1 4 0;
#X connect 9 0 88 0;
#X connect 83 0 86 0;
#X connect 94 0 91 1;
#X connect 95 0 91 0;
#X connect 96 0 91 2;
