#N canvas 273 107 607 373 12;
#X floatatom 72 273 3 0 0 0 - - -, f 3;
#X obj 27 221 notein;
#X obj 27 247 stripnote;
#X floatatom 27 272 3 0 0 0 - - -, f 3;
#X text 219 234 MIDI OUT;
#X text 27 197 MIDI IN;
#X floatatom 150 272 3 0 0 0 - - -, f 3;
#X floatatom 120 271 3 0 0 0 - - -, f 3;
#X obj 120 246 ctlin;
#N canvas 0 50 484 446 midi 0;
#X obj 96 65 inlet;
#X obj 96 262 noteout;
#X floatatom 96 92 0 0 0 0 - - -;
#X obj 338 113 loadbang;
#X obj 96 184 metro;
#X obj 96 236 makenote;
#X floatatom 189 166 0 0 0 0 - - -;
#X obj 96 210 f;
#X floatatom 145 166 0 0 0 0 - - -;
#X floatatom 233 166 0 0 0 0 - - -;
#X floatatom 276 166 0 0 0 0 - - -;
#X msg 338 148 500;
#X msg 370 148 60;
#X msg 399 148 64;
#X msg 427 148 250;
#X text 144 145 rate;
#X text 187 145 pitch;
#X text 232 145 vel;
#X text 268 146 length;
#X obj 230 257 ctlout 1;
#X floatatom 230 228 0 0 0 0 - - -;
#X connect 0 0 2 0;
#X connect 2 0 4 0;
#X connect 3 0 11 0;
#X connect 3 0 12 0;
#X connect 3 0 13 0;
#X connect 3 0 14 0;
#X connect 4 0 7 0;
#X connect 5 0 1 0;
#X connect 5 1 1 1;
#X connect 6 0 7 1;
#X connect 7 0 5 0;
#X connect 8 0 4 1;
#X connect 9 0 5 1;
#X connect 10 0 5 2;
#X connect 11 0 8 0;
#X connect 12 0 6 0;
#X connect 13 0 9 0;
#X connect 14 0 10 0;
#X connect 20 0 19 0;
#X restore 219 284 pd midi;
#X floatatom 178 85 3 0 0 0 - tone-vu1 -, f 3;
#X floatatom 205 85 3 0 0 0 - tone-vu2 -, f 3;
#X obj 177 132 tgl 20 0 tone-ch1 tone-ch1 1 5 -8 0 12 -262144 -1 -1
1 1;
#X obj 202 132 tgl 20 0 tone-ch2 tone-ch2 2 5 -8 0 12 -262144 -1 -1
1 1;
#X obj 219 258 tgl 20 0 empty empty empty 20 8 0 8 -262144 -1 -1 0
1;
#X text 40 120 OFF;
#X obj 443 86 tgl 15 0 tone-hipass tone-hipass-set input-hipass 23
8 0 12 -262144 -1 -1 1 1;
#X obj 243 132 tgl 20 0 tone-ch3 tone-ch3 3 5 -8 0 12 -262144 -1 -1
1 1;
#X obj 268 132 tgl 20 0 tone-ch4 tone-ch4 4 5 -8 0 12 -262144 -1 -1
1 1;
#X obj 309 132 tgl 20 0 tone-ch5 tone-ch5 5 5 -8 0 12 -262144 -1 -1
1 1;
#X obj 334 132 tgl 20 0 tone-ch6 tone-ch6 6 5 -8 0 12 -262144 -1 -1
1 1;
#X obj 428 125 bng 15 250 50 0 tone-all empty ALL 20 8 0 12 -262144
-1 -1;
#X obj 428 146 bng 15 250 50 0 tone-none empty NONE 20 8 0 12 -262144
-1 -1;
#X floatatom 244 85 3 0 0 0 - tone-vu3 -, f 3;
#X floatatom 272 85 3 0 0 0 - tone-vu4 -, f 3;
#X floatatom 310 85 3 0 0 0 - tone-vu5 -, f 3;
#X floatatom 338 85 3 0 0 0 - tone-vu6 -, f 3;
#X text 237 65 AUDIO INPUT (RMS dB);
#X text 101 88 noise;
#X text 100 105 tone;
#X obj 84 90 vradio 15 1 0 2 tone-type tone-type-set empty 0 -6 0 8
-262144 -1 -1 1;
#X obj 22 91 vradio 15 1 0 3 tone-radio tone-radio-set empty 0 -6 0
8 -262144 -1 -1 2;
#X floatatom 376 85 3 0 0 0 - tone-vu7 -, f 3;
#X floatatom 404 85 3 0 0 0 - tone-vu8 -, f 3;
#X obj 375 132 tgl 20 0 tone-ch7 tone-ch7 7 5 -8 0 12 -262144 -1 -1
1 1;
#X obj 400 132 tgl 20 0 tone-ch8 tone-ch8 8 5 -8 0 12 -262144 -1 -1
1 1;
#N canvas 319 285 306 386 audio 0;
#X obj 37 342 s~ tone-mon;
#X obj 37 316 line~;
#X obj 37 288 pack 0 50;
#X obj 34 175 * 5;
#X obj 34 200 s tone-hip;
#X obj 34 144 r tone-hipass;
#N canvas 860 185 459 296 glue+loadbang 0;
#X obj 8 20 loadbang;
#X obj 204 19 r tone-all;
#X obj 314 17 r tone-none;
#X msg 204 47 \; tone-ch1 1 \; tone-ch2 1 \; tone-ch3 1 \; tone-ch4
1 \; tone-ch5 1 \; tone-ch6 1 \; tone-ch7 1 \; tone-ch8 1;
#X msg 314 48 \; tone-ch1 0 \; tone-ch2 0 \; tone-ch3 0 \; tone-ch4
0 \; tone-ch5 0 \; tone-ch6 0 \; tone-ch7 0 \; tone-ch8 0;
#X msg 8 48 \; pd dsp 1 \; tone-pitch 69 \; tone-radio 2 \; tone-radio-set
set 2 \; tone-type 1 \; tone-type-set 1 \; tone-all 1 \; tone-hipass
1 \; tone-hipass-set set 1 \;;
#X connect 0 0 5 0;
#X connect 1 0 3 0;
#X connect 2 0 4 0;
#X restore 25 97 pd glue+loadbang;
#N canvas 207 133 468 559 tone-generator 0;
#X obj 22 187 osc~;
#X obj 22 81 mtof;
#X floatatom 22 58 0 0 0 0 - - -;
#X floatatom 22 103 0 0 0 0 - - -;
#X obj 22 163 sig~;
#X obj 22 33 r tone-pitch;
#X obj 119 179 noise~;
#X obj 65 249 +~;
#X obj 282 140 - 1;
#X obj 282 172 * -1;
#X obj 191 228 line~;
#X obj 281 229 line~;
#X obj 22 211 *~;
#X obj 119 210 *~;
#X msg 191 199 \$1 20;
#X msg 281 200 \$1 20;
#X floatatom 273 109 0 0 0 0 - - -;
#X obj 64 504 *~;
#X obj 86 477 line~;
#X obj 86 450 pack 0 50;
#X floatatom 201 365 0 0 0 0 - - -;
#X obj 86 423 dbtorms;
#X obj 64 530 s~ tone-osc;
#X obj 201 282 r tone-radio;
#X obj 201 310 sel 0 1 2;
#X msg 270 333 0;
#X msg 201 335 80;
#X msg 234 335 60;
#X obj 273 86 r tone-type;
#X obj 89 359 r tone-level;
#X obj 178 453 s tone-level-set;
#X msg 177 428 set \$1;
#X obj 329 452 s tone-radio-set;
#X obj 327 369 sel 80 60 0;
#X msg 327 394 0;
#X msg 360 394 1;
#X msg 393 394 2;
#X msg 329 426 set \$1;
#X msg 423 394 2;
#X obj 72 89 s tone-pitch-set;
#X msg 72 66 set \$1;
#X obj 177 29 r tone-hz;
#X msg 75 117 set \$1;
#X obj 75 140 s tone-hz-set;
#X obj 177 55 ftom;
#X connect 0 0 12 0;
#X connect 1 0 3 0;
#X connect 2 0 1 0;
#X connect 2 0 40 0;
#X connect 3 0 4 0;
#X connect 3 0 42 0;
#X connect 4 0 0 0;
#X connect 5 0 2 0;
#X connect 6 0 13 0;
#X connect 7 0 17 0;
#X connect 8 0 9 0;
#X connect 9 0 15 0;
#X connect 10 0 12 1;
#X connect 11 0 13 1;
#X connect 12 0 7 0;
#X connect 13 0 7 1;
#X connect 14 0 10 0;
#X connect 15 0 11 0;
#X connect 16 0 8 0;
#X connect 16 0 14 0;
#X connect 17 0 22 0;
#X connect 18 0 17 1;
#X connect 19 0 18 0;
#X connect 20 0 21 0;
#X connect 20 0 31 0;
#X connect 21 0 19 0;
#X connect 23 0 24 0;
#X connect 24 0 26 0;
#X connect 24 1 27 0;
#X connect 24 2 25 0;
#X connect 25 0 20 0;
#X connect 26 0 20 0;
#X connect 27 0 20 0;
#X connect 28 0 16 0;
#X connect 29 0 31 0;
#X connect 29 0 21 0;
#X connect 31 0 30 0;
#X connect 33 0 34 0;
#X connect 33 1 35 0;
#X connect 33 2 36 0;
#X connect 33 3 38 0;
#X connect 34 0 37 0;
#X connect 35 0 37 0;
#X connect 36 0 37 0;
#X connect 37 0 32 0;
#X connect 38 0 37 0;
#X connect 40 0 39 0;
#X connect 41 0 44 0;
#X connect 42 0 43 0;
#X connect 44 0 2 0;
#X restore 26 44 pd tone-generator;
#N canvas 947 133 819 380 channel-select 0;
#X obj 39 55 sel 0 1 2 3 4 5 6 7;
#X obj 52 302 s inchlist;
#X obj 39 30 r inch-sel;
#X msg 40 84 set 1 2 3 4 5 6 7 8;
#X msg 57 112 set 3 4 5 6 7 8 9 10;
#X msg 76 140 set 5 6 7 8 9 10 11 12;
#X msg 95 167 set 7 8 9 10 11 12 13 14;
#X msg 113 194 set 9 10 11 12 13 14 15 16;
#X msg 138 221 set 11 12 13 14 15 16 17 18;
#X msg 157 248 set 17 18 19 20 21 22 23 24;
#X msg 176 275 set 25 26 27 28 29 30 31 32;
#X obj 414 55 sel 0 1 2 3 4 5 6 7;
#X msg 415 84 set 1 2 3 4 5 6 7 8;
#X msg 432 112 set 3 4 5 6 7 8 9 10;
#X msg 451 140 set 5 6 7 8 9 10 11 12;
#X msg 470 167 set 7 8 9 10 11 12 13 14;
#X msg 488 194 set 9 10 11 12 13 14 15 16;
#X msg 513 221 set 11 12 13 14 15 16 17 18;
#X msg 532 248 set 17 18 19 20 21 22 23 24;
#X msg 551 275 set 25 26 27 28 29 30 31 32;
#X obj 414 30 r outch-sel;
#X obj 427 302 s outchlist;
#X connect 0 0 3 0;
#X connect 0 1 4 0;
#X connect 0 2 5 0;
#X connect 0 3 6 0;
#X connect 0 4 7 0;
#X connect 0 5 8 0;
#X connect 0 6 9 0;
#X connect 0 7 10 0;
#X connect 2 0 0 0;
#X connect 3 0 1 0;
#X connect 4 0 1 0;
#X connect 5 0 1 0;
#X connect 6 0 1 0;
#X connect 7 0 1 0;
#X connect 8 0 1 0;
#X connect 9 0 1 0;
#X connect 10 0 1 0;
#X connect 11 0 12 0;
#X connect 11 1 13 0;
#X connect 11 2 14 0;
#X connect 11 3 15 0;
#X connect 11 4 16 0;
#X connect 11 5 17 0;
#X connect 11 6 18 0;
#X connect 11 7 19 0;
#X connect 12 0 21 0;
#X connect 13 0 21 0;
#X connect 14 0 21 0;
#X connect 15 0 21 0;
#X connect 16 0 21 0;
#X connect 17 0 21 0;
#X connect 18 0 21 0;
#X connect 19 0 21 0;
#X connect 20 0 11 0;
#X restore 26 71 pd channel-select;
#N canvas 675 374 967 515 adcs-and-dacs 0;
#X obj 13 100 hip~ 5;
#X obj 21 151 int;
#X obj 21 125 env~ 8192;
#X obj 23 200 r~ tone-mon;
#X obj 32 335 line~;
#X obj 13 225 *~;
#X obj 32 308 pack 0 50;
#X obj 32 282 r tone-ch1;
#X obj 23 255 r~ tone-osc;
#X obj 23 360 *~;
#X obj 13 390 +~;
#X obj 30 73 r tone-hip;
#X obj 133 99 hip~ 5;
#X obj 141 150 int;
#X obj 141 124 env~ 8192;
#X obj 143 199 r~ tone-mon;
#X obj 152 334 line~;
#X obj 133 224 *~;
#X obj 152 307 pack 0 50;
#X obj 143 254 r~ tone-osc;
#X obj 143 359 *~;
#X obj 133 389 +~;
#X obj 150 72 r tone-hip;
#X obj 152 281 r tone-ch2;
#X obj 253 101 hip~ 5;
#X obj 261 152 int;
#X obj 261 126 env~ 8192;
#X obj 263 201 r~ tone-mon;
#X obj 272 336 line~;
#X obj 253 226 *~;
#X obj 272 309 pack 0 50;
#X obj 263 256 r~ tone-osc;
#X obj 263 361 *~;
#X obj 253 391 +~;
#X obj 270 74 r tone-hip;
#X obj 371 97 hip~ 5;
#X obj 379 148 int;
#X obj 379 122 env~ 8192;
#X obj 381 197 r~ tone-mon;
#X obj 390 332 line~;
#X obj 371 222 *~;
#X obj 390 305 pack 0 50;
#X obj 381 252 r~ tone-osc;
#X obj 381 357 *~;
#X obj 371 387 +~;
#X obj 388 70 r tone-hip;
#X obj 491 97 hip~ 5;
#X obj 499 148 int;
#X obj 499 122 env~ 8192;
#X obj 501 197 r~ tone-mon;
#X obj 510 332 line~;
#X obj 491 222 *~;
#X obj 510 305 pack 0 50;
#X obj 501 252 r~ tone-osc;
#X obj 501 357 *~;
#X obj 491 387 +~;
#X obj 508 70 r tone-hip;
#X obj 610 96 hip~ 5;
#X obj 618 147 int;
#X obj 618 121 env~ 8192;
#X obj 620 196 r~ tone-mon;
#X obj 629 331 line~;
#X obj 610 221 *~;
#X obj 629 304 pack 0 50;
#X obj 620 251 r~ tone-osc;
#X obj 620 356 *~;
#X obj 610 386 +~;
#X obj 627 69 r tone-hip;
#X obj 272 283 r tone-ch3;
#X obj 390 278 r tone-ch4;
#X obj 510 279 r tone-ch5;
#X obj 629 278 r tone-ch6;
#X obj 730 101 hip~ 5;
#X obj 738 152 int;
#X obj 738 126 env~ 8192;
#X obj 740 201 r~ tone-mon;
#X obj 749 336 line~;
#X obj 730 226 *~;
#X obj 749 309 pack 0 50;
#X obj 740 256 r~ tone-osc;
#X obj 740 361 *~;
#X obj 730 391 +~;
#X obj 747 74 r tone-hip;
#X obj 850 100 hip~ 5;
#X obj 858 151 int;
#X obj 858 125 env~ 8192;
#X obj 860 200 r~ tone-mon;
#X obj 869 335 line~;
#X obj 850 225 *~;
#X obj 869 308 pack 0 50;
#X obj 860 255 r~ tone-osc;
#X obj 860 360 *~;
#X obj 850 390 +~;
#X obj 867 73 r tone-hip;
#X obj 749 283 r tone-ch7;
#X obj 869 282 r tone-ch8;
#X obj 21 177 s tone-vu1;
#X obj 141 176 s tone-vu2;
#X obj 261 178 s tone-vu3;
#X obj 379 174 s tone-vu4;
#X obj 499 174 s tone-vu5;
#X obj 618 173 s tone-vu6;
#X obj 738 178 s tone-vu7;
#X obj 858 177 s tone-vu8;
#X obj 13 39 adc~ 1 2 3 4 5 6 7 8, f 105;
#X obj 14 460 dac~ 1 2 3 4 5 6 7 8, f 105;
#X obj 26 430 r outchlist;
#X obj 32 12 r inchlist;
#X connect 0 0 5 0;
#X connect 0 0 2 0;
#X connect 1 0 96 0;
#X connect 2 0 1 0;
#X connect 3 0 5 1;
#X connect 4 0 9 1;
#X connect 5 0 10 0;
#X connect 6 0 4 0;
#X connect 7 0 6 0;
#X connect 8 0 9 0;
#X connect 9 0 10 1;
#X connect 10 0 105 0;
#X connect 11 0 0 1;
#X connect 12 0 17 0;
#X connect 12 0 14 0;
#X connect 13 0 97 0;
#X connect 14 0 13 0;
#X connect 15 0 17 1;
#X connect 16 0 20 1;
#X connect 17 0 21 0;
#X connect 18 0 16 0;
#X connect 19 0 20 0;
#X connect 20 0 21 1;
#X connect 21 0 105 1;
#X connect 22 0 12 1;
#X connect 23 0 18 0;
#X connect 24 0 29 0;
#X connect 24 0 26 0;
#X connect 25 0 98 0;
#X connect 26 0 25 0;
#X connect 27 0 29 1;
#X connect 28 0 32 1;
#X connect 29 0 33 0;
#X connect 30 0 28 0;
#X connect 31 0 32 0;
#X connect 32 0 33 1;
#X connect 33 0 105 2;
#X connect 34 0 24 1;
#X connect 35 0 40 0;
#X connect 35 0 37 0;
#X connect 36 0 99 0;
#X connect 37 0 36 0;
#X connect 38 0 40 1;
#X connect 39 0 43 1;
#X connect 40 0 44 0;
#X connect 41 0 39 0;
#X connect 42 0 43 0;
#X connect 43 0 44 1;
#X connect 44 0 105 3;
#X connect 45 0 35 1;
#X connect 46 0 51 0;
#X connect 46 0 48 0;
#X connect 47 0 100 0;
#X connect 48 0 47 0;
#X connect 49 0 51 1;
#X connect 50 0 54 1;
#X connect 51 0 55 0;
#X connect 52 0 50 0;
#X connect 53 0 54 0;
#X connect 54 0 55 1;
#X connect 55 0 105 4;
#X connect 56 0 46 1;
#X connect 57 0 62 0;
#X connect 57 0 59 0;
#X connect 58 0 101 0;
#X connect 59 0 58 0;
#X connect 60 0 62 1;
#X connect 61 0 65 1;
#X connect 62 0 66 0;
#X connect 63 0 61 0;
#X connect 64 0 65 0;
#X connect 65 0 66 1;
#X connect 66 0 105 5;
#X connect 67 0 57 1;
#X connect 68 0 30 0;
#X connect 69 0 41 0;
#X connect 70 0 52 0;
#X connect 71 0 63 0;
#X connect 72 0 77 0;
#X connect 72 0 74 0;
#X connect 73 0 102 0;
#X connect 74 0 73 0;
#X connect 75 0 77 1;
#X connect 76 0 80 1;
#X connect 77 0 81 0;
#X connect 78 0 76 0;
#X connect 79 0 80 0;
#X connect 80 0 81 1;
#X connect 81 0 105 6;
#X connect 82 0 72 1;
#X connect 83 0 88 0;
#X connect 83 0 85 0;
#X connect 84 0 103 0;
#X connect 85 0 84 0;
#X connect 86 0 88 1;
#X connect 87 0 91 1;
#X connect 88 0 92 0;
#X connect 89 0 87 0;
#X connect 90 0 91 0;
#X connect 91 0 92 1;
#X connect 92 0 105 7;
#X connect 93 0 83 1;
#X connect 94 0 78 0;
#X connect 95 0 89 0;
#X connect 104 0 0 0;
#X connect 104 1 12 0;
#X connect 104 2 24 0;
#X connect 104 3 35 0;
#X connect 104 4 46 0;
#X connect 104 5 57 0;
#X connect 104 6 72 0;
#X connect 104 7 83 0;
#X connect 106 0 105 0;
#X connect 107 0 104 0;
#X restore 25 19 pd adcs-and-dacs;
#X obj 36 235 r input-monitor-gain;
#X obj 36 260 dbtorms;
#X connect 1 0 0 0;
#X connect 2 0 1 0;
#X connect 3 0 4 0;
#X connect 5 0 3 0;
#X connect 10 0 11 0;
#X connect 11 0 2 0;
#X restore 373 252 pd audio;
#X floatatom 22 144 3 0 100 1 - tone-level-set tone-level, f 3;
#X floatatom 84 123 5 0 136 1 pitch tone-pitch-set tone-pitch, f 5
;
#X floatatom 84 145 6 0 20000 1 HZ tone-hz-set tone-hz, f 6;
#X text 48 145 dB;
#X text 34 67 TEST TONES;
#X text 233 156 AUDIO OUTPUT ON/OFF;
#X text 18 5 Welcome to Pd ("Pure Data"). You can use this window to
test audio and MIDI connections. To see Pd's DOCUMENTATION \, select
"getting started" in the Help menu.;
#X text 18 323 Pd is Free software under the BSD license. See LICENSE.txt
in the distribution for details.;
#X obj 27 292 bng 20 250 50 0 empty empty empty 17 7 0 10 -262144 -1
-1;
#X obj 120 293 bng 20 250 50 0 empty empty empty 17 7 0 10 -262144
-1 -1;
#X text 39 105 60;
#X text 39 88 80;
#X text 16 163 (100 max);
#X obj 499 168 vradio 15 1 0 8 inch-sel empty empty 0 -8 0 10 -262144
-1 -1 0;
#X obj 520 168 vradio 15 1 0 8 outch-sel empty empty 0 -8 0 10 -262144
-1 -1 0;
#X text 541 165 1-8;
#X text 542 180 3-10;
#X text 542 195 5-12;
#X text 543 212 7-14;
#X text 542 227 9-16;
#X text 543 242 11-18;
#X text 543 257 17-24;
#X floatatom 340 188 5 0 120 0 input-monitor-gain input-monitor-gain-set
input-monitor-gain, f 5;
#X text 507 122 channel assign:, f 7;
#X text 496 289 in;
#X text 519 290 out;
#N canvas 178 52 578 350 tests 0;
#X floatatom 42 209 0 0 0 0 - - -;
#X obj 42 183 f;
#X obj 79 183 + 1;
#X obj 42 150 metro 1000;
#X obj 42 123 tgl 20 0 empty empty empty 20 8 0 8 -262144 -1 -1 0 1
;
#X text 24 30 this window has various wierd debugging stuff...;
#X text 22 74 see if Pd's time;
#X text 22 93 measurement works:;
#X obj 227 127 adc~;
#X obj 226 224 print~;
#X obj 235 201 bng 15 250 50 0 empty empty empty 0 -6 0 8 -262144 -1
-1;
#X obj 227 152 *~ 1;
#X obj 302 138 tgl 15 0 empty empty empty 17 7 0 10 -262144 -1 -1 0
1;
#X obj 302 158 sel 0 1;
#X obj 301 183 1;
#X obj 333 185 1000;
#X text 226 94 print out literal values from ADC 1;
#X text 323 136 optionally multiply by 1000;
#X obj 53 264 bng 15 250 50 0 empty empty empty 17 7 0 10 -262144 -1
-1;
#X floatatom 53 309 5 0 0 0 - - -, f 5;
#X obj 53 284 samplerate~;
#X text 163 287 get current sample rate;
#X connect 1 0 2 0;
#X connect 1 0 0 0;
#X connect 2 0 1 1;
#X connect 3 0 1 0;
#X connect 4 0 3 0;
#X connect 8 0 11 0;
#X connect 10 0 9 0;
#X connect 11 0 9 0;
#X connect 12 0 13 0;
#X connect 13 0 14 0;
#X connect 13 1 15 0;
#X connect 14 0 11 1;
#X connect 15 0 11 1;
#X connect 18 0 20 0;
#X connect 20 0 19 0;
#X restore 373 275 pd tests;
#X text 543 274 25-32;
#X connect 1 0 2 0;
#X connect 1 1 2 1;
#X connect 2 0 3 0;
#X connect 2 1 0 0;
#X connect 3 0 45 0;
#X connect 7 0 46 0;
#X connect 8 0 7 0;
#X connect 8 1 6 0;
#X connect 14 0 9 0;
