#N canvas 99 16 600 619 10;
#X obj 57 323 print;
#X text 296 132 Try it now \, starting on the trigger object.;
#X obj 88 239 + 10;
#X obj 118 268 select 5;
#X obj 144 239 / 2;
#X obj 240 239 * 15;
#X msg 118 290 five;
#N canvas 153 60 502 464 object_positioning 0;
#X text 39 54 When you have an inlet/outlet selected and you create
a new object/msg/float/ or symbol atom PD will position that new box
automatically above/or below that object and connect it for you.;
#X obj 41 128 notein;
#X obj 271 397 list;
#X obj 292 376 pack float float;
#X obj 385 355 / 127;
#X obj 385 334 r foo2;
#X obj 292 355 - 1;
#X obj 292 334 r foo1;
#X obj 61 397 list;
#X text 105 128 select the 3rd outlet and create an number atom.;
#X text 37 272 Now you can effectively 'patch upwards'. Try selecting
a inlet and creating objects. Select the [list] object on the left
and recreate the object chain on the right., f 62;
#X connect 3 0 2 1;
#X connect 4 0 3 1;
#X connect 5 0 4 0;
#X connect 6 0 3 0;
#X connect 7 0 6 0;
#X restore 57 376 pd object_positioning;
#N canvas 168 99 450 223 editing_objects 0;
#X text 33 97 Try it:;
#X obj 118 98 pack f f f;
#X text 33 37 You can now enter/exit the object's text editing but
using mod+return.;
#X restore 57 403 pd editing_objects;
#N canvas 194 97 435 301 the_canvas_message_console 0;
#X text 32 64 It allows to send messages to the current patch window.
;
#X text 30 147 This is the same as the following:;
#X obj 43 211 s \$0-thisCanvas;
#X obj 42 248 namecanvas \$0-thisCanvas;
#X text 32 26 Press Ctrl + ' (single quote) to open the canvas message
prompt.;
#X text 32 98 Press Ctrl + ' and type 'obj 300 200 print test' \, without
the quotes;
#X msg 43 190 obj 300 200 print test;
#X connect 6 0 2 0;
#X restore 57 436 pd the_canvas_message_console;
#N canvas 152 41 448 572 canvas_goto 0;
#X obj 59 374 makenote;
#X obj 59 331 unpack f f f;
#X obj 59 405 pack f f;
#X obj 59 426 print;
#X obj 170 331 notein;
#X obj 170 362 pack f f f;
#X obj 170 384 print;
#X obj 259 379 pack f s;
#X obj 259 401 route 1;
#X obj 259 422 select C;
#X text 32 523 *Those are the same indexes of the PD file. This feature
is also useful for dynamic patching.;
#X text 40 74 Below you have three separate chains of objects. You
can't use connections to navigate between then so you must use the
goto message.;
#X obj 259 331 unpack f s;
#X obj 259 355 + 10;
#X text 38 160 Then you could open the canvas message console and type
'goto 5'.;
#X text 41 34 You can use the canvas message console to navigate to
any object in the patch with the "goto" message.;
#X text 30 493 ____________________________________________________________
;
#X text 41 124 Normally you would first press mod + Tab. This toggles
the display of the object's indexes*.;
#X text 39 196 But instead just press mod+shift+o which will open the
canvas msg dialog \, type "goto " and turn on obj indexes visualization
for you all at once.;
#X text 38 243 Do it now: press Ctrl+Shift+o \, type the obj index
of [notein] and hit enter.;
#X text 39 275 Now you should have the [notein] object selected. Just
press mod+down to start navigating from that object.;
#X connect 0 0 2 0;
#X connect 0 1 2 1;
#X connect 1 0 0 0;
#X connect 1 1 0 1;
#X connect 1 2 0 2;
#X connect 2 0 3 0;
#X connect 4 0 5 0;
#X connect 4 1 5 1;
#X connect 4 2 5 2;
#X connect 5 0 6 0;
#X connect 7 0 8 0;
#X connect 8 0 9 0;
#X connect 12 0 13 0;
#X connect 12 1 7 1;
#X connect 13 0 7 0;
#X restore 57 464 pd canvas_goto;
#N canvas 166 79 436 399 digit_connector 0;
#X obj 36 143 loadbang;
#X obj 36 194 s a;
#X obj 86 194 s b;
#X text 28 283 The digit connector only works for close inlets/outlets.
For connecting to distant objects see 'connecting with the canvas message
console';
#X obj 133 194 s c;
#X obj 183 194 +, f 4;
#X text 35 27 You can press mod+shift+up/down on an Inlet/Outlet to
activate the 'digit selector'. It will display numbers in possible
connections \, ranging from 0 to 9 \, in ascending order of distance
(i.e. the closest possible connection receives a 0).;
#X text 34 99 Select loadbang's outlet and press mod+shift+down \,
then choose an inlet an press it's number.;
#X text 28 232 (you can press the mod+opposite arrow key to exit the
digit connector.);
#X restore 57 516 pd digit_connector;
#N canvas 168 69 428 319 magnetic_connector 0;
#X text 32 28 When you have an inlet/outlet selected you can press
G to use the magnetic connector.;
#X text 32 68 It connects the selected inlet/outlet to the outlets/inlets
that are close enough \, in ascending order of distance.;
#X text 34 235 You can also press shift+g to change the connection
to the next inlet/outlet.;
#X obj 40 135 noise~;
#X obj 40 176 *~ 1;
#X text 33 101 Select the [noise~] outlet and press G multiple times:
;
#X obj 80 176 *~ 0.5;
#X obj 129 176 *~ 0.25;
#X obj 315 176 *~ 0.666;
#X restore 57 490 pd magnetic_connector;
#N canvas 118 20 598 700 connecting_with_the_canvas_msg_console 0;
#X text 34 15 You can easily connect any two inlets/outlets \, even
for distant objects by using the canvas message prompt to send 'connect'
messages to the canvas., f 91;
#X text 205 643 Note: the canvas message prompt automatically converts
'connect' messages to 'connect_with_undo' messages.;
#X obj 38 283 bng 15 250 50 0 empty empty empty 17 7 0 10 -262144 -1
-1;
#X msg 62 341 10;
#X obj 62 363 until;
#X obj 62 384 random 7;
#X obj 62 405 t b f;
#X msg 62 427 48 50 52 53 55 57 59 60;
#X obj 62 474 list split;
#X obj 119 453 - 1;
#X obj 90 496 list split 1;
#X floatatom 90 518 5 0 0 0 - - -;
#X msg 168 549 set;
#X msg 90 539 add2 \$1;
#X obj 38 309 trigger bang bang bang;
#X obj 38 614 print;
#X text 30 229 (Notice that the indexes of the inlets/outlets are zero-based
\; i.e. the 1st outlet is 0 \, the 2nd outlet is 1...), f 91;
#X text 31 87 As an example we will show how you can connect the [trigger
bang bang bang] object to the [set( message only with the keyboard
with little effort., f 90;
#X text 190 308 <- SOURCE;
#X text 202 549 <- DESTINATION;
#X msg 38 593;
#X text 32 57 Shortcut: press mod+shift+up/down while the digit connector
is active., f 91;
#X text 33 123 Select the [trigger bang bang bang] object below \,
enter keyboard navigation and select it's 3rd outlet. Then press mod+shift+Down
once to activate the digit connector and then press it again. You will
notice the canvas message prompt will appear. The relevant information
for the object and outlet you have selected will already be there along
with the 'connect' selector. Then you can just type the object index
of the [set( object and the desired inlet (in this case \, zero).,
f 90;
#X text 30 206 The message shoud look like 'connect 14 2 12 0';
#X connect 2 0 14 0;
#X connect 3 0 4 0;
#X connect 4 0 5 0;
#X connect 5 0 6 0;
#X connect 6 0 7 0;
#X connect 6 1 9 0;
#X connect 7 0 8 0;
#X connect 8 1 10 0;
#X connect 9 0 8 1;
#X connect 10 0 11 0;
#X connect 11 0 13 0;
#X connect 12 0 20 0;
#X connect 13 0 20 0;
#X connect 14 0 20 0;
#X connect 14 1 3 0;
#X connect 20 0 15 0;
#X restore 57 544 pd connecting_with_the_canvas_msg_console;
#N canvas 165 89 450 300 "clicking"_with_the_keyboard 0;
#X text 48 17 When there is only 1 object selected you can press Shift+Enter
to simulate a click on that object.;
#N canvas 468 196 209 67 test 0;
#X text 26 14 Hello World!;
#X restore 53 178 pd test;
#X obj 53 98 float 6;
#X text 115 97 does nothing;
#X msg 52 227 add2 Sinusoidal;
#X text 163 226 send the message;
#X text 116 177 opens the subpatch (also works for abstractions);
#X obj 53 140 bng 15 250 50 0 empty empty empty 17 7 0 10 -262144 -1
-1;
#X text 116 140 sends a bang;
#X text 46 53 Try it below:;
#X msg 52 248;
#X connect 4 0 10 0;
#X restore 57 573 pd "clicking"_with_the_keyboard;
#X obj 57 137 trigger float float float float;
#X text 52 23 You can fully navegate the patch with the keyboard.;
#X text 296 242 After a connection is selected pressing up or down
again will go to that connection's source/destination., f 43;
#X text 297 332 Press Escape to exit keyboard navigation.;
#X text 52 45 You'll be using a modifier (mod) key for keyboard navigation.
It is Control if you're on Windows or Linux and Cmd if you're on a
Mac., f 80;
#X text 51 88 To get started select a single object and press mod+up/down.
;
#X text 295 153 Then press mod+up/down to navigate through the object
inlets and outlets., f 43;
#X text 296 182 Pressing omd+down on an outlet or mod+up on an inlet
will select a connection. Then press mod+left/right to cycle through
the connections., f 43;
#X text 296 296 You can also press delete when navigating through a
connection to erase it., f 43;
#X connect 2 0 3 0;
#X connect 3 0 6 0;
#X connect 4 0 3 0;
#X connect 5 0 3 1;
#X connect 6 0 0 0;
#X connect 15 0 0 0;
#X connect 15 1 4 0;
#X connect 15 1 3 0;
#X connect 15 1 2 0;
#X connect 15 2 5 1;
#X connect 15 2 4 1;
#X connect 15 2 2 1;
#X connect 15 3 5 0;
