#N struct template3 float x float y float w float h float q;
#N canvas 289 41 641 431 12;
#X obj 328 255 pointer;
#X msg 344 222 next;
#X floatatom 328 345 4 0 0 0 - - - 0;
#N canvas 943 44 381 425 data3 1;
#X scalar template3 15 291 76 30 873 \;;
#X scalar template3 278 82 27 32 854 \;;
#X scalar template3 6 269 69 75 577 \;;
#X scalar template3 264 30 51 38 21 \;;
#X scalar template3 230 179 11 43 599 \;;
#X scalar template3 222 133 22 20 376 \;;
#X scalar template3 295 51 71 0 248 \;;
#X scalar template3 287 71 69 75 187 \;;
#X scalar template3 171 121 30 27 200 \;;
#X scalar template3 26 36 53 62 236 \;;
#X scalar template3 2 232 45 2 822 \;;
#X scalar template3 253 282 59 79 775 \;;
#X scalar template3 42 180 63 52 887 \;;
#X scalar template3 225 200 25 24 136 \;;
#X scalar template3 260 247 13 36 233 \;;
#X scalar template3 285 58 18 46 469 \;;
#X scalar template3 53 285 4 23 659 \;;
#X scalar template3 194 157 52 18 125 \;;
#X scalar template3 38 185 14 35 921 \;;
#X scalar template3 208 252 55 46 180 \;;
#X coords 0 425 1 424 0 0 0;
#X restore 428 265 pd data3;
#N canvas 503 200 512 300 template3 0;
#X obj 48 98 filledpolygon q 0 1 0 0 w 0 w h 0 h;
#X text 44 53 five numeric ("float") fields;
#X text 48 118 drawing a rectangle \, interior color q \, border black
and one unit thick \, through the points (0 \, 0) \, (w \, 0) \, (w
\, h) \, and (0 \, h). Note that the three points containing variables
become hot spots for mouse dragging.;
#X obj 46 33 struct template3 float x float y float w float h float
q;
#X text 53 241 This also allows you to click on the drawn number and
drag or type to change the color parameter.;
#X obj 49 207 drawnumber q 0 -5 0;
#X text 205 198 Draw the value of q as an Arabic numeral \, at (0 \,
-5) \, in black., f 32;
#X restore 500 265 pd template3;
#N canvas 395 94 513 527 stuff 0;
#X obj 182 285 pointer;
#X obj 175 456 append template3 x y w h q;
#X obj 168 48 loadbang;
#X obj 159 106 t b b b;
#X msg 182 237 traverse pd-data3;
#X msg 205 140 \; pd-data3 clear;
#X msg 138 154 0;
#X obj 85 180 f;
#X obj 124 181 + 1;
#X obj 87 156 until;
#X obj 105 210 sel 20;
#X obj 144 236 t b;
#X msg 159 78 bang;
#X obj 77 382 random 300;
#X obj 158 382 random 300;
#X obj 382 382 random 1000;
#X obj 239 382 random 80;
#X obj 311 382 random 80;
#X obj 159 22 inlet;
#X obj 158 408 + 30;
#X obj 182 314 trigger bang bang pointer;
#X connect 0 0 20 0;
#X connect 2 0 12 0;
#X connect 3 0 9 0;
#X connect 3 1 4 0;
#X connect 3 1 6 0;
#X connect 3 2 5 0;
#X connect 4 0 0 0;
#X connect 6 0 7 1;
#X connect 7 0 10 0;
#X connect 7 0 8 0;
#X connect 8 0 7 1;
#X connect 9 0 7 0;
#X connect 10 0 9 1;
#X connect 10 1 11 0;
#X connect 11 0 0 0;
#X connect 12 0 3 0;
#X connect 13 0 1 0;
#X connect 14 0 19 0;
#X connect 15 0 1 4;
#X connect 16 0 1 2;
#X connect 17 0 1 3;
#X connect 18 0 12 0;
#X connect 19 0 1 1;
#X connect 20 0 13 0;
#X connect 20 1 14 0;
#X connect 20 1 15 0;
#X connect 20 1 16 0;
#X connect 20 1 17 0;
#X connect 20 2 1 5;
#X restore 76 391 pd stuff;
#X msg 76 366 remake;
#X obj 328 311 get template3 x y w h q;
#X text 130 365 <= click to randomize;
#X floatatom 446 345 4 0 0 0 - - - 0;
#X floatatom 407 345 4 0 0 0 - - - 0;
#X floatatom 367 345 4 0 0 0 - - - 0;
#X floatatom 486 345 4 0 0 0 - - - 0;
#X floatatom 56 244 4 0 0 0 - - - 0;
#X text 383 222 <= go to next;
#X obj 83 313 set template3 x y w h q, f 32;
#X obj 95 270 t b f;
#X floatatom 95 244 4 0 0 0 - - - 0;
#X obj 139 270 t b f;
#X floatatom 139 244 4 0 0 0 - - - 0;
#X obj 183 270 t b f;
#X floatatom 183 244 4 0 0 0 - - - 0;
#X obj 227 270 t b f;
#X floatatom 227 244 4 0 0 0 - - - 0;
#X text 62 222 x;
#X text 101 222 y;
#X text 145 222 w;
#X text 190 222 h;
#X text 233 222 q;
#X msg 328 191 traverse pd-data3 \, next;
#X text 108 189 get pointer to first scalar =>;
#X text 410 393 Updated for Pd version 0.52;
#X text 30 84 Getting parameter values is as in the previous patch.
However \, as you traverse the list with "next" messages the new pointers
are also sent to the [set] object \, whose arguments define the template
name and the name of the fields to set. You can drag on the five number
boxes (after selecting an object with "traverse" and "next" messages)
to change its location \, shape \, and color., f 84;
#X text 30 15 The [set] object allows you to change field values. In
this example \, the template specifies five fields describing the (x
\, y) location \, width (w) \, height (h) \, and color (q). A new feature
is that the color is also drawn below the rectangles because we have
a [drawnumber] object in the template., f 84;
#X connect 0 0 7 0;
#X connect 0 0 15 5;
#X connect 1 0 0 0;
#X connect 6 0 5 0;
#X connect 7 0 2 0;
#X connect 7 1 11 0;
#X connect 7 2 10 0;
#X connect 7 3 9 0;
#X connect 7 4 12 0;
#X connect 13 0 15 0;
#X connect 16 0 15 0;
#X connect 16 1 15 1;
#X connect 17 0 16 0;
#X connect 18 0 15 0;
#X connect 18 1 15 2;
#X connect 19 0 18 0;
#X connect 20 0 15 0;
#X connect 20 1 15 3;
#X connect 21 0 20 0;
#X connect 22 0 15 0;
#X connect 22 1 15 4;
#X connect 23 0 22 0;
#X connect 29 0 0 0;
