#N struct template3 float x float y float w float h float q;
#N canvas 376 88 576 543 12;
#X obj 246 282 pointer;
#X msg 256 254 next;
#X floatatom 246 362 4 0 0 0 - - - 0;
#N canvas 1008 77 381 425 data3 1;
#X scalar template3 142 252 37 44 224 \;;
#X scalar template3 239 94 52 20 648 \;;
#X scalar template3 35 206 50 36 659 \;;
#X scalar template3 192 252 43 43 288 \;;
#X scalar template3 174 147 36 39 450 \;;
#X scalar template3 179 236 41 75 162 \;;
#X scalar template3 202 166 65 59 883 \;;
#X scalar template3 223 313 28 7 853 \;;
#X scalar template3 295 153 59 28 809 \;;
#X scalar template3 83 154 18 74 78 \;;
#X scalar template3 252 130 4 23 564 \;;
#X scalar template3 191 71 28 54 739 \;;
#X scalar template3 215 323 17 55 285 \;;
#X scalar template3 74 267 2 40 624 \;;
#X scalar template3 140 224 59 74 111 \;;
#X scalar template3 131 51 48 19 240 \;;
#X scalar template3 2 104 64 14 778 \;;
#X scalar template3 288 175 70 72 292 \;;
#X scalar template3 255 306 35 68 107 \;;
#X scalar template3 206 33 18 9 299 \;;
#X restore 267 451 pd data3;
#N canvas 403 522 512 300 template3 0;
#X obj 48 98 filledpolygon q 0 1 0 0 w 0 w h 0 h;
#X text 44 53 five numeric ("float") fields;
#X text 48 118 drawing a rectangle \, interior color q \, border black
and one unit thick \, through the points (0 \, 0) \, (w \, 0) \, (w
\, h) \, and (0 \, h). Note that the three points containing variables
become hot spots for mouse dragging.;
#X obj 46 33 struct template3 float x float y float w float h float
q;
#X text 49 228 Draw the value of q as an Arabic numeral \, at (0 \,
0) \, in black., f 41;
#X obj 49 207 drawnumber q 0 -15 0;
#X restore 267 476 pd template3;
#N canvas 395 94 513 527 stuff 0;
#X obj 182 285 pointer;
#X obj 175 456 append template3 x y w h q;
#X obj 168 48 loadbang;
#X obj 159 106 t b b b;
#X msg 182 237 traverse pd-data3;
#X msg 205 140 \; pd-data3 clear;
#X msg 138 154 0;
#X obj 85 180 f;
#X obj 124 181 + 1;
#X obj 87 156 until;
#X obj 105 210 sel 20;
#X obj 144 236 t b;
#X msg 159 78 bang;
#X obj 77 382 random 300;
#X obj 158 382 random 300;
#X obj 382 382 random 1000;
#X obj 239 382 random 80;
#X obj 311 382 random 80;
#X obj 159 22 inlet;
#X obj 158 408 + 30;
#X obj 182 314 trigger bang bang pointer;
#X connect 0 0 20 0;
#X connect 2 0 12 0;
#X connect 3 0 9 0;
#X connect 3 1 4 0;
#X connect 3 1 6 0;
#X connect 3 2 5 0;
#X connect 4 0 0 0;
#X connect 6 0 7 1;
#X connect 7 0 10 0;
#X connect 7 0 8 0;
#X connect 8 0 7 1;
#X connect 9 0 7 0;
#X connect 10 0 9 1;
#X connect 10 1 11 0;
#X connect 11 0 0 0;
#X connect 12 0 3 0;
#X connect 13 0 1 0;
#X connect 14 0 19 0;
#X connect 15 0 1 4;
#X connect 16 0 1 2;
#X connect 17 0 1 3;
#X connect 18 0 12 0;
#X connect 19 0 1 1;
#X connect 20 0 13 0;
#X connect 20 1 14 0;
#X connect 20 1 15 0;
#X connect 20 1 16 0;
#X connect 20 1 17 0;
#X connect 20 2 1 5;
#X restore 267 427 pd stuff;
#X msg 267 402 remake;
#X obj 246 328 get template3 x y w h q;
#X obj 61 270 set template3 x;
#X obj 61 321 set template3 y;
#X obj 61 372 set template3 w;
#X obj 61 423 set template3 h;
#X obj 61 473 set template3 q;
#X msg 246 228 traverse pd-data3;
#X text 52 27 The "set" object allows you to change numeric values.
In this example \, the template specifies five fields describing the
(x \, y) location \, width \, height \, and color. A new feature is
that the color is also getting printed out under the rectangles. This
is done using the "drawnumber" object in the template., f 65;
#X text 321 401 <= click to randomize;
#X text 52 106 Getting parameter values is as in the previous patch.
However \, as you traverse the list with "next" messages the new pointers
are also sent to the five "set" objects. These have as arguments the
template name and the name of the field they will set. You can drag
on the five number boxes (after selecting an object with "traverse"
and "next" messages) to change its location \, shape \, and color.
, f 65;
#X floatatom 364 362 4 0 0 0 - - - 0;
#X floatatom 325 362 4 0 0 0 - - - 0;
#X floatatom 285 362 4 0 0 0 - - - 0;
#X floatatom 404 362 4 0 0 0 - - - 0;
#X floatatom 61 246 4 0 0 0 - - - 0;
#X floatatom 61 297 4 0 0 0 - - - 0;
#X floatatom 61 348 4 0 0 0 - - - 0;
#X floatatom 61 400 4 0 0 0 - - - 0;
#X floatatom 61 450 4 0 0 0 - - - 0;
#X text 379 227 <= click here first;
#X text 295 254 <= go to next;
#X connect 0 0 7 0;
#X connect 0 0 8 1;
#X connect 0 0 9 1;
#X connect 0 0 10 1;
#X connect 0 0 11 1;
#X connect 0 0 12 1;
#X connect 1 0 0 0;
#X connect 6 0 5 0;
#X connect 7 0 2 0;
#X connect 7 1 19 0;
#X connect 7 2 18 0;
#X connect 7 3 17 0;
#X connect 7 4 20 0;
#X connect 13 0 0 0;
#X connect 21 0 8 0;
#X connect 22 0 9 0;
#X connect 23 0 10 0;
#X connect 24 0 11 0;
#X connect 25 0 12 0;
