#N canvas 405 27 291 318 12;
#N canvas 0 0 377 383 data 1;
#X restore 40 153 pd data;
#N canvas 50 470 557 157 template-toplevel 0;
#X obj 21 94 plot bazoo 700 3 10 20 20;
#X obj 21 68 drawpolygon q 4 0 0 20 z z -5 10 20;
#X obj 21 30 struct template-toplevel float x float y float z float
q array bazoo template-element;
#X restore 40 174 pd template-toplevel;
#N canvas 199 231 600 239 template-element 0;
#X obj 58 83 drawpolygon 10 2 5 0 0 -5 -5 0 0 5 5 0;
#X obj 59 48 struct template-element float x float y float w;
#X restore 40 197 pd template-element;
#X msg 45 16 \; pd-data clear;
#N canvas 125 240 709 410 traversal 0;
#X floatatom 212 353 0 0 0 0 - - -;
#X obj 212 376 set template-toplevel q;
#X floatatom 212 307 0 0 0 0 - - -;
#X floatatom 210 255 0 0 0 0 - - -;
#X floatatom 96 62 0 0 0 0 - - -;
#X floatatom 97 114 0 0 0 0 - - -;
#X floatatom 23 144 0 0 0 0 - - -;
#X floatatom 210 209 0 0 0 0 - - -;
#X floatatom 617 194 0 0 0 0 - - -;
#X floatatom 550 192 0 0 0 0 - - -;
#X floatatom 486 191 0 0 0 0 - - -;
#X obj 419 116 pointer;
#X obj 419 168 get template-toplevel x y z q;
#X msg 450 90 next;
#X floatatom 419 191 0 0 0 0 - - -;
#X obj 23 169 set template-element y;
#X obj 97 137 element template-toplevel bazoo;
#X obj 96 85 setsize template-toplevel bazoo;
#X obj 210 232 set template-toplevel x;
#X obj 210 278 set template-toplevel y;
#X obj 212 330 set template-toplevel z;
#X floatatom 22 200 0 0 0 0 - - -;
#X obj 22 225 set template-element x;
#X msg 419 67 traverse pd-data \, next;
#X floatatom 26 258 0 0 0 0 - - -;
#X obj 26 283 set template-element w;
#X connect 0 0 1 0;
#X connect 2 0 20 0;
#X connect 3 0 19 0;
#X connect 4 0 17 0;
#X connect 5 0 16 0;
#X connect 6 0 15 0;
#X connect 7 0 18 0;
#X connect 11 0 12 0;
#X connect 11 0 17 1;
#X connect 11 0 18 1;
#X connect 11 0 19 1;
#X connect 11 0 20 1;
#X connect 11 0 1 1;
#X connect 11 0 16 1;
#X connect 12 0 14 0;
#X connect 12 1 10 0;
#X connect 12 2 9 0;
#X connect 12 3 8 0;
#X connect 13 0 11 0;
#X connect 16 0 15 1;
#X connect 16 0 22 1;
#X connect 16 0 25 1;
#X connect 21 0 22 0;
#X connect 23 0 11 0;
#X connect 24 0 25 0;
#X restore 41 218 pd traversal;
#X msg 43 55 \; pd-data write xx.txt;
#X msg 41 102 \; pd-data read file.txt;
