#N struct template-toplevel float x float y float z float q array bazoo
template-element;
#N struct template-element float x float y float w;
#N canvas 476 111 318 385 12;
#N canvas 830 35 377 383 data 1;
#X scalar template-toplevel 76 177 -66 85 \; 0 0 0 \; 30 0 0 \; 0 111
8 \; -47 22 0 \; 0 0 0 \; 0 70 0 \; 0 70 70 \; 70 70 0 \; 0 70 0 \;
\;;
#X scalar template-toplevel 196 109 77 802 \; -20 77 0 \; 0 0 4 \;
67 59 0 \; 0 76 12 \; -45 -68 0 \; \;;
#X scalar template-toplevel 150 250 20 80 \; 0 0 0 \; 40 0 4 \; 60
50 0 \; 100 30 3 \; 200 0 0 \; \;;
#X restore 82 252 pd data;
#N canvas 243 457 484 170 template-toplevel 0;
#X obj 36 110 plot bazoo 700 3 10 20 20;
#X obj 36 81 drawpolygon q 4 0 0 20 z z -5 10 20;
#X obj 36 39 struct template-toplevel float x float y float z float
q array bazoo template-element;
#X restore 82 276 pd template-toplevel;
#N canvas 199 231 424 139 template-element 0;
#X obj 51 80 drawpolygon 10 2 5 0 0 -5 -5 0 0 5 5 0;
#X obj 52 45 struct template-element float x float y float w;
#X restore 82 302 pd template-element;
#X msg 71 106 \; pd-data clear;
#N canvas 125 240 758 459 traversal 0;
#X floatatom 249 352 0 0 0 0 - - - 0;
#X obj 249 375 set template-toplevel q;
#X floatatom 249 301 0 0 0 0 - - - 0;
#X floatatom 247 249 0 0 0 0 - - - 0;
#X floatatom 222 77 0 0 0 0 - - - 0;
#X floatatom 223 129 0 0 0 0 - - - 0;
#X floatatom 52 160 0 0 0 0 - - - 0;
#X floatatom 247 203 0 0 0 0 - - - 0;
#X floatatom 680 210 0 0 0 0 - - - 0;
#X floatatom 613 214 0 0 0 0 - - - 0;
#X floatatom 546 214 0 0 0 0 - - - 0;
#X obj 469 132 pointer;
#X obj 480 187 get template-toplevel x y z q;
#X msg 488 101 next;
#X floatatom 480 214 0 0 0 0 - - - 0;
#X obj 52 185 set template-element y;
#X obj 223 152 element template-toplevel bazoo;
#X obj 222 100 setsize template-toplevel bazoo;
#X obj 247 226 set template-toplevel x;
#X obj 247 272 set template-toplevel y;
#X obj 249 324 set template-toplevel z;
#X floatatom 51 216 0 0 0 0 - - - 0;
#X obj 51 241 set template-element x;
#X msg 469 73 traverse pd-data \, next;
#X floatatom 55 274 0 0 0 0 - - - 0;
#X obj 55 299 set template-element w;
#X connect 0 0 1 0;
#X connect 2 0 20 0;
#X connect 3 0 19 0;
#X connect 4 0 17 0;
#X connect 5 0 16 0;
#X connect 6 0 15 0;
#X connect 7 0 18 0;
#X connect 11 0 12 0;
#X connect 11 0 17 1;
#X connect 11 0 18 1;
#X connect 11 0 19 1;
#X connect 11 0 20 1;
#X connect 11 0 1 1;
#X connect 11 0 16 1;
#X connect 12 0 14 0;
#X connect 12 1 10 0;
#X connect 12 2 9 0;
#X connect 12 3 8 0;
#X connect 13 0 11 0;
#X connect 16 0 15 1;
#X connect 16 0 22 1;
#X connect 16 0 25 1;
#X connect 21 0 22 0;
#X connect 23 0 11 0;
#X connect 24 0 25 0;
#X restore 82 328 pd traversal;
#X msg 71 197 \; pd-data write xx.txt;
#X msg 71 149 \; pd-data read file.txt;
#X text 47 15 You can save data contents to a .txt file and later read
from it (reading reinitializes and replaces data)., f 31;
