#N struct rect float x float y float w float h;
#N canvas 427 129 397 213 12;
#N canvas 457 224 653 284 rect 0;
#X obj 211 156 pointer;
#X msg 211 125 traverse pd-test \, bang;
#X obj 80 69 filledpolygon 0 0 0 0 0 0 h w h w 0 0 0;
#X obj 80 189 append rect x y w h;
#X obj 79 38 struct rect float x float y float w float h;
#X msg 80 156 50 50 50 2;
#X obj 535 134 r this-ptr;
#X obj 405 192 s this-ptr;
#X obj 405 135 r add-rect;
#X obj 405 165 append rect x y w h;
#X connect 0 0 3 4;
#X connect 1 0 0 0;
#X connect 5 0 3 0;
#X connect 6 0 9 4;
#X connect 8 0 9 0;
#X connect 9 0 7 0;
#X restore 115 121 pd rect;
#N canvas 861 61 649 658 output 1;
#X scalar rect 57 179 2 10 \;;
#X scalar rect 82 179 1 10 \;;
#X scalar rect 107 179 1 10 \;;
#X scalar rect 132 179 1 10 \;;
#X scalar rect 157 179 1 10 \;;
#X scalar rect 182 179 2 10 \;;
#X scalar rect 207 179 1 10 \;;
#X scalar rect 232 179 1 10 \;;
#X scalar rect 257 179 1 10 \;;
#X scalar rect 282 179 1 10 \;;
#X scalar rect 307 179 2 10 \;;
#X scalar rect 332 179 1 10 \;;
#X scalar rect 357 179 1 10 \;;
#X scalar rect 382 179 1 10 \;;
#X scalar rect 407 179 1 10 \;;
#X scalar rect 432 179 2 10 \;;
#X scalar rect 457 179 1 10 \;;
#X scalar rect 482 179 1 10 \;;
#X scalar rect 507 179 1 10 \;;
#X scalar rect 532 179 1 10 \;;
#X scalar rect 557 179 2 10 \;;
#X scalar rect 57 149 2 10 \;;
#X scalar rect 73.6667 149 1 10 \;;
#X scalar rect 90.3333 149 1 10 \;;
#X scalar rect 107 149 1 10 \;;
#X scalar rect 123.667 149 1 10 \;;
#X scalar rect 140.333 149 2 10 \;;
#X scalar rect 157 149 1 10 \;;
#X scalar rect 173.667 149 1 10 \;;
#X scalar rect 190.333 149 1 10 \;;
#X scalar rect 207 149 1 10 \;;
#X scalar rect 223.667 149 2 10 \;;
#X scalar rect 240.333 149 1 10 \;;
#X scalar rect 257 149 1 10 \;;
#X scalar rect 273.667 149 1 10 \;;
#X scalar rect 290.333 149 1 10 \;;
#X scalar rect 307 149 2 10 \;;
#X scalar rect 323.667 149 1 10 \;;
#X scalar rect 340.333 149 1 10 \;;
#X scalar rect 357 149 1 10 \;;
#X scalar rect 373.667 149 1 10 \;;
#X scalar rect 390.333 149 2 10 \;;
#X scalar rect 407 149 1 10 \;;
#X scalar rect 423.667 149 1 10 \;;
#X scalar rect 440.333 149 1 10 \;;
#X scalar rect 457 149 1 10 \;;
#X scalar rect 473.667 149 2 10 \;;
#X scalar rect 490.333 149 1 10 \;;
#X scalar rect 507 149 1 10 \;;
#X scalar rect 523.667 149 1 10 \;;
#X scalar rect 540.333 149 1 10 \;;
#X scalar rect 557 149 2 10 \;;
#X scalar rect 57 119 2 10 \;;
#X scalar rect 71.2857 119 1 10 \;;
#X scalar rect 85.5714 119 1 10 \;;
#X scalar rect 99.8571 119 1 10 \;;
#X scalar rect 114.143 119 1 10 \;;
#X scalar rect 128.429 119 2 10 \;;
#X scalar rect 142.714 119 1 10 \;;
#X scalar rect 157 119 1 10 \;;
#X scalar rect 171.286 119 1 10 \;;
#X scalar rect 185.571 119 1 10 \;;
#X scalar rect 199.857 119 2 10 \;;
#X scalar rect 214.143 119 1 10 \;;
#X scalar rect 228.429 119 1 10 \;;
#X scalar rect 242.714 119 1 10 \;;
#X scalar rect 257 119 1 10 \;;
#X scalar rect 271.286 119 2 10 \;;
#X scalar rect 285.571 119 1 10 \;;
#X scalar rect 299.857 119 1 10 \;;
#X scalar rect 314.143 119 1 10 \;;
#X scalar rect 328.429 119 1 10 \;;
#X scalar rect 342.714 119 2 10 \;;
#X scalar rect 357 119 1 10 \;;
#X scalar rect 371.286 119 1 10 \;;
#X scalar rect 385.571 119 1 10 \;;
#X scalar rect 399.857 119 1 10 \;;
#X scalar rect 414.143 119 2 10 \;;
#X scalar rect 428.429 119 1 10 \;;
#X scalar rect 442.714 119 1 10 \;;
#X scalar rect 457 119 1 10 \;;
#X scalar rect 471.286 119 1 10 \;;
#X scalar rect 485.571 119 2 10 \;;
#X scalar rect 499.857 119 1 10 \;;
#X scalar rect 514.143 119 1 10 \;;
#X scalar rect 528.429 119 1 10 \;;
#X scalar rect 542.714 119 1 10 \;;
#X scalar rect 557 119 2 10 \;;
#X scalar rect 57 89 2 10 \;;
#X scalar rect 69.5 89 1 10 \;;
#X scalar rect 82 89 1 10 \;;
#X scalar rect 94.5 89 1 10 \;;
#X scalar rect 107 89 1 10 \;;
#X scalar rect 119.5 89 2 10 \;;
#X scalar rect 132 89 1 10 \;;
#X scalar rect 144.5 89 1 10 \;;
#X scalar rect 157 89 1 10 \;;
#X scalar rect 169.5 89 1 10 \;;
#X scalar rect 182 89 2 10 \;;
#X scalar rect 194.5 89 1 10 \;;
#X scalar rect 207 89 1 10 \;;
#X scalar rect 219.5 89 1 10 \;;
#X scalar rect 232 89 1 10 \;;
#X scalar rect 244.5 89 2 10 \;;
#X scalar rect 257 89 1 10 \;;
#X scalar rect 269.5 89 1 10 \;;
#X scalar rect 282 89 1 10 \;;
#X scalar rect 294.5 89 1 10 \;;
#X scalar rect 307 89 2 10 \;;
#X scalar rect 319.5 89 1 10 \;;
#X scalar rect 332 89 1 10 \;;
#X scalar rect 344.5 89 1 10 \;;
#X scalar rect 357 89 1 10 \;;
#X scalar rect 369.5 89 2 10 \;;
#X scalar rect 382 89 1 10 \;;
#X scalar rect 394.5 89 1 10 \;;
#X scalar rect 407 89 1 10 \;;
#X scalar rect 419.5 89 1 10 \;;
#X scalar rect 432 89 2 10 \;;
#X scalar rect 444.5 89 1 10 \;;
#X scalar rect 457 89 1 10 \;;
#X scalar rect 469.5 89 1 10 \;;
#X scalar rect 482 89 1 10 \;;
#X scalar rect 494.5 89 2 10 \;;
#X scalar rect 507 89 1 10 \;;
#X scalar rect 519.5 89 1 10 \;;
#X scalar rect 532 89 1 10 \;;
#X scalar rect 544.5 89 1 10 \;;
#X scalar rect 557 89 2 10 \;;
#X scalar rect 57 299 2 10 \;;
#X scalar rect 90.3333 299 1 10 \;;
#X scalar rect 123.667 299 1 10 \;;
#X scalar rect 157 299 1 10 \;;
#X scalar rect 190.333 299 2 10 \;;
#X scalar rect 223.667 299 1 10 \;;
#X scalar rect 257 299 1 10 \;;
#X scalar rect 290.333 299 1 10 \;;
#X scalar rect 323.667 299 2 10 \;;
#X scalar rect 357 299 1 10 \;;
#X scalar rect 390.333 299 1 10 \;;
#X scalar rect 423.667 299 1 10 \;;
#X scalar rect 457 299 2 10 \;;
#X scalar rect 57 269 2 10 \;;
#X scalar rect 77 269 1 10 \;;
#X scalar rect 97 269 1 10 \;;
#X scalar rect 117 269 1 10 \;;
#X scalar rect 137 269 2 10 \;;
#X scalar rect 157 269 1 10 \;;
#X scalar rect 177 269 1 10 \;;
#X scalar rect 197 269 1 10 \;;
#X scalar rect 217 269 2 10 \;;
#X scalar rect 237 269 1 10 \;;
#X scalar rect 257 269 1 10 \;;
#X scalar rect 277 269 1 10 \;;
#X scalar rect 297 269 2 10 \;;
#X scalar rect 317 269 1 10 \;;
#X scalar rect 337 269 1 10 \;;
#X scalar rect 357 269 1 10 \;;
#X scalar rect 377 269 2 10 \;;
#X scalar rect 397 269 1 10 \;;
#X scalar rect 417 269 1 10 \;;
#X scalar rect 437 269 1 10 \;;
#X scalar rect 457 269 2 10 \;;
#X scalar rect 57 239 2 10 \;;
#X scalar rect 71.2857 239 1 10 \;;
#X scalar rect 85.5714 239 1 10 \;;
#X scalar rect 99.8571 239 1 10 \;;
#X scalar rect 114.143 239 2 10 \;;
#X scalar rect 128.429 239 1 10 \;;
#X scalar rect 142.714 239 1 10 \;;
#X scalar rect 157 239 1 10 \;;
#X scalar rect 171.286 239 2 10 \;;
#X scalar rect 185.571 239 1 10 \;;
#X scalar rect 199.857 239 1 10 \;;
#X scalar rect 214.143 239 1 10 \;;
#X scalar rect 228.429 239 2 10 \;;
#X scalar rect 242.714 239 1 10 \;;
#X scalar rect 257 239 1 10 \;;
#X scalar rect 271.286 239 1 10 \;;
#X scalar rect 285.571 239 2 10 \;;
#X scalar rect 299.857 239 1 10 \;;
#X scalar rect 314.143 239 1 10 \;;
#X scalar rect 328.429 239 1 10 \;;
#X scalar rect 342.714 239 2 10 \;;
#X scalar rect 357 239 1 10 \;;
#X scalar rect 371.286 239 1 10 \;;
#X scalar rect 385.571 239 1 10 \;;
#X scalar rect 399.857 239 2 10 \;;
#X scalar rect 414.143 239 1 10 \;;
#X scalar rect 428.429 239 1 10 \;;
#X scalar rect 442.714 239 1 10 \;;
#X scalar rect 457 239 2 10 \;;
#X scalar rect 57 479 2 10 \;;
#X scalar rect 107 479 1 10 \;;
#X scalar rect 157 479 1 10 \;;
#X scalar rect 207 479 2 10 \;;
#X scalar rect 257 479 1 10 \;;
#X scalar rect 307 479 1 10 \;;
#X scalar rect 357 479 2 10 \;;
#X scalar rect 57 449 2 10 \;;
#X scalar rect 82 449 1 10 \;;
#X scalar rect 107 449 1 10 \;;
#X scalar rect 132 449 2 10 \;;
#X scalar rect 157 449 1 10 \;;
#X scalar rect 182 449 1 10 \;;
#X scalar rect 207 449 2 10 \;;
#X scalar rect 232 449 1 10 \;;
#X scalar rect 257 449 1 10 \;;
#X scalar rect 282 449 2 10 \;;
#X scalar rect 307 449 1 10 \;;
#X scalar rect 332 449 1 10 \;;
#X scalar rect 357 449 2 10 \;;
#X scalar rect 57 419 2 10 \;;
#X scalar rect 77 419 1 10 \;;
#X scalar rect 97 419 1 10 \;;
#X scalar rect 117 419 2 10 \;;
#X scalar rect 137 419 1 10 \;;
#X scalar rect 157 419 1 10 \;;
#X scalar rect 177 419 2 10 \;;
#X scalar rect 197 419 1 10 \;;
#X scalar rect 217 419 1 10 \;;
#X scalar rect 237 419 2 10 \;;
#X scalar rect 257 419 1 10 \;;
#X scalar rect 277 419 1 10 \;;
#X scalar rect 297 419 2 10 \;;
#X scalar rect 317 419 1 10 \;;
#X scalar rect 337 419 1 10 \;;
#X scalar rect 357 419 2 10 \;;
#X scalar rect 57 389 2 10 \;;
#X scalar rect 71.2857 389 1 10 \;;
#X scalar rect 85.5714 389 1 10 \;;
#X scalar rect 99.8571 389 2 10 \;;
#X scalar rect 114.143 389 1 10 \;;
#X scalar rect 128.429 389 1 10 \;;
#X scalar rect 142.714 389 2 10 \;;
#X scalar rect 157 389 1 10 \;;
#X scalar rect 171.286 389 1 10 \;;
#X scalar rect 185.571 389 2 10 \;;
#X scalar rect 199.857 389 1 10 \;;
#X scalar rect 214.143 389 1 10 \;;
#X scalar rect 228.429 389 2 10 \;;
#X scalar rect 242.714 389 1 10 \;;
#X scalar rect 257 389 1 10 \;;
#X scalar rect 271.286 389 2 10 \;;
#X scalar rect 285.571 389 1 10 \;;
#X scalar rect 299.857 389 1 10 \;;
#X scalar rect 314.143 389 2 10 \;;
#X scalar rect 328.429 389 1 10 \;;
#X scalar rect 342.714 389 1 10 \;;
#X scalar rect 357 389 2 10 \;;
#X scalar rect 57 359 2 10 \;;
#X scalar rect 69.5 359 1 10 \;;
#X scalar rect 82 359 1 10 \;;
#X scalar rect 94.5 359 2 10 \;;
#X scalar rect 107 359 1 10 \;;
#X scalar rect 119.5 359 1 10 \;;
#X scalar rect 132 359 2 10 \;;
#X scalar rect 144.5 359 1 10 \;;
#X scalar rect 157 359 1 10 \;;
#X scalar rect 169.5 359 2 10 \;;
#X scalar rect 182 359 1 10 \;;
#X scalar rect 194.5 359 1 10 \;;
#X scalar rect 207 359 2 10 \;;
#X scalar rect 219.5 359 1 10 \;;
#X scalar rect 232 359 1 10 \;;
#X scalar rect 244.5 359 2 10 \;;
#X scalar rect 257 359 1 10 \;;
#X scalar rect 269.5 359 1 10 \;;
#X scalar rect 282 359 2 10 \;;
#X scalar rect 294.5 359 1 10 \;;
#X scalar rect 307 359 1 10 \;;
#X scalar rect 319.5 359 2 10 \;;
#X scalar rect 332 359 1 10 \;;
#X scalar rect 344.5 359 1 10 \;;
#X scalar rect 357 359 2 10 \;;
#X scalar rect 57 599 2 10 \;;
#X scalar rect 90.3333 599 1 10 \;;
#X scalar rect 123.667 599 2 10 \;;
#X scalar rect 157 599 1 10 \;;
#X scalar rect 190.333 599 2 10 \;;
#X scalar rect 223.667 599 1 10 \;;
#X scalar rect 257 599 2 10 \;;
#X scalar rect 57 569 2 10 \;;
#X scalar rect 77 569 1 10 \;;
#X scalar rect 97 569 2 10 \;;
#X scalar rect 117 569 1 10 \;;
#X scalar rect 137 569 2 10 \;;
#X scalar rect 157 569 1 10 \;;
#X scalar rect 177 569 2 10 \;;
#X scalar rect 197 569 1 10 \;;
#X scalar rect 217 569 2 10 \;;
#X scalar rect 237 569 1 10 \;;
#X scalar rect 257 569 2 10 \;;
#X scalar rect 57 539 2 10 \;;
#X scalar rect 71.2857 539 1 10 \;;
#X scalar rect 85.5714 539 2 10 \;;
#X scalar rect 99.8571 539 1 10 \;;
#X scalar rect 114.143 539 2 10 \;;
#X scalar rect 128.429 539 1 10 \;;
#X scalar rect 142.714 539 2 10 \;;
#X scalar rect 157 539 1 10 \;;
#X scalar rect 171.286 539 2 10 \;;
#X scalar rect 185.571 539 1 10 \;;
#X scalar rect 199.857 539 2 10 \;;
#X scalar rect 214.143 539 1 10 \;;
#X scalar rect 228.429 539 2 10 \;;
#X scalar rect 242.714 539 1 10 \;;
#X scalar rect 257 539 2 10 \;;
#X scalar rect 57 29 2 580 \;;
#X scalar rect 157 29 2 580 \;;
#X scalar rect 257 29 2 580 \;;
#X scalar rect 357 29 2 450 \;;
#X scalar rect 457 29 2 280 \;;
#X scalar rect 557 29 2 150 \;;
#X text 21 49 3:2;
#X text 21 77 5:2;
#X text 21 106 7:2;
#X text 18 169 2:3;
#X text 19 199 4:3;
#X text 20 230 5:3;
#X text 19 259 7:3;
#X text 20 286 8:3;
#X text 20 348 3:4;
#X text 21 377 5:4;
#X text 21 407 7:4;
#X text 19 466 4:5;
#X text 19 498 6:5;
#X text 21 527 7:5;
#X text 21 557 8:5;
#X text 303 92 Inspired by Ed Harkins's rhythm seminar.;
#X text 307 31 Dual rhythmic patterns: the dark marks are;
#X text 305 52 the beats and the lighter ones help;
#X text 304 72 show the proportions.;
#X coords 0 658 1 657 0 0 0;
#X restore 114 149 pd output;
#N canvas 386 64 783 579 generator 0;
#X obj 632 40 r start;
#X obj 632 119 pointer;
#X obj 632 68 symbol;
#X obj 632 143 s this-ptr;
#X msg 632 94 traverse \$1 \, bang;
#X msg 52 34 \; pd-output clear;
#X msg 180 34 \; start pd-output;
#X obj 57 170 bng 15 250 50 0 empty empty empty 0 -6 0 8 -262144 -1
-1;
#X obj 208 170 bng 15 250 50 0 empty empty empty 0 -6 0 8 -262144 -1
-1;
#X obj 362 171 bng 15 250 50 0 empty empty empty 0 -6 0 8 -262144 -1
-1;
#X obj 208 128 r add-pts1;
#X obj 52 278 bng 15 250 50 0 empty empty empty 0 -6 0 8 -262144 -1
-1;
#X obj 187 279 bng 15 250 50 0 empty empty empty 0 -6 0 8 -262144 -1
-1;
#X obj 323 280 bng 15 250 50 0 empty empty empty 0 -6 0 8 -262144 -1
-1;
#X obj 187 230 r add-pts1;
#X obj 57 190 beat-maker 3 2 600;
#X obj 208 189 beat-maker 5 2 570;
#X obj 362 190 beat-maker 7 2 540;
#X obj 463 279 bng 15 250 50 0 empty empty empty 0 -6 0 8 -262144 -1
-1;
#X obj 602 277 bng 15 250 50 0 empty empty empty 0 -6 0 8 -262144 -1
-1;
#X obj 56 363 bng 15 250 50 0 empty empty empty 0 -6 0 8 -262144 -1
-1;
#X obj 191 364 bng 15 250 50 0 empty empty empty 0 -6 0 8 -262144 -1
-1;
#X obj 328 365 bng 15 250 50 0 empty empty empty 0 -6 0 8 -262144 -1
-1;
#X obj 191 335 r add-pts1;
#X obj 52 495 bng 15 250 50 0 empty empty empty 0 -6 0 8 -262144 -1
-1;
#X obj 197 495 bng 15 250 50 0 empty empty empty 0 -6 0 8 -262144 -1
-1;
#X obj 334 495 bng 15 250 50 0 empty empty empty 0 -6 0 8 -262144 -1
-1;
#X obj 197 447 r add-pts1;
#X obj 472 495 bng 15 250 50 0 empty empty empty 0 -6 0 8 -262144 -1
-1;
#X obj 53 301 beat-maker 2 3 480;
#X obj 323 301 beat-maker 5 3 420;
#X obj 463 301 beat-maker 7 3 390;
#X obj 602 301 beat-maker 8 3 360;
#X obj 55 387 beat-maker 3 4 300;
#X obj 191 388 beat-maker 5 4 270;
#X obj 328 388 beat-maker 7 4 240;
#X obj 52 520 beat-maker 4 5 180;
#X obj 197 520 beat-maker 6 5 150;
#X obj 334 520 beat-maker 7 5 120;
#X obj 472 520 beat-maker 8 5 90;
#X obj 187 301 beat-maker 4 3 450;
#X msg 432 34 \; add-rect 40 30 2 580 \; add-rect 140 30 2 580 \; add-rect
240 30 2 580 \; add-rect 340 30 2 450 \; add-rect 440 30 2 280 \; add-rect
540 30 2 150 \;;
#X msg 308 34 \; add-pts1 bang \;;
#X connect 0 0 2 0;
#X connect 1 0 3 0;
#X connect 2 0 4 0;
#X connect 4 0 1 0;
#X connect 7 0 15 0;
#X connect 8 0 16 0;
#X connect 9 0 17 0;
#X connect 10 0 7 0;
#X connect 10 0 8 0;
#X connect 10 0 9 0;
#X connect 11 0 29 0;
#X connect 12 0 40 0;
#X connect 13 0 30 0;
#X connect 14 0 11 0;
#X connect 14 0 12 0;
#X connect 14 0 13 0;
#X connect 14 0 18 0;
#X connect 14 0 19 0;
#X connect 18 0 31 0;
#X connect 19 0 32 0;
#X connect 20 0 33 0;
#X connect 21 0 34 0;
#X connect 22 0 35 0;
#X connect 23 0 20 0;
#X connect 23 0 21 0;
#X connect 23 0 22 0;
#X connect 24 0 36 0;
#X connect 25 0 37 0;
#X connect 26 0 38 0;
#X connect 27 0 24 0;
#X connect 27 0 25 0;
#X connect 27 0 26 0;
#X connect 27 0 28 0;
#X connect 28 0 39 0;
#X restore 115 93 pd generator;
#X text 41 21 Example: computing and graphing beat patterns. I made
this to make it easier to practice performing a-in-the-time-of-b time
divisions., f 46;
