#N struct label float x float y float n;
#N struct line float x float y float w;
#N canvas 578 149 474 307 10;
#N canvas 10 53 508 854 data 1;
#X scalar label 130 91.4064 36 \;;
#X scalar label 30 123.999 43 \;;
#X scalar label 150 129.826 44 \;;
#X scalar label 150 136 45 \;;
#X scalar label 150 142.541 46 \;;
#X scalar label 30 149.471 47 \;;
#X scalar label 150 156.813 48 \;;
#X scalar label 150 164.591 49 \;;
#X scalar label 30 172.832 50 \;;
#X scalar label 150 181.563 51 \;;
#X scalar label 150 190.814 52 \;;
#X scalar label 30 200.614 53 \;;
#X scalar label 150 210.997 54 \;;
#X scalar label 150 221.998 55 \;;
#X scalar label 150 233.652 56 \;;
#X scalar label 30 246 57 \;;
#X scalar label 150 259.082 58 \;;
#X scalar label 150 272.942 59 \;;
#X scalar label 130 287.626 60 \;;
#X scalar label 150 303.183 61 \;;
#X scalar label 150 319.665 62 \;;
#X scalar label 150 337.127 63 \;;
#X scalar label 30 355.628 64 \;;
#X scalar label 150 375.228 65 \;;
#X scalar label 150 395.994 66 \;;
#X scalar label 30 417.995 67 \;;
#X scalar label 150 441.305 68 \;;
#X scalar label 150 466 69 \;;
#X scalar label 150 492.164 70 \;;
#X scalar label 30 519.883 71 \;;
#X scalar label 150 549.251 72 \;;
#X scalar label 150 580.365 73 \;;
#X scalar label 30 613.33 74 \;;
#X scalar label 150 648.254 75 \;;
#X scalar label 150 685.255 76 \;;
#X scalar label 30 724.456 77 \;;
#X scalar label 255 91.4064 36 \;;
#X scalar label 355 123.999 43 \;;
#X scalar label 235 129.826 44 \;;
#X scalar label 235 136 45 \;;
#X scalar label 235 142.541 46 \;;
#X scalar label 355 149.471 47 \;;
#X scalar label 235 156.813 48 \;;
#X scalar label 235 164.591 49 \;;
#X scalar label 355 172.832 50 \;;
#X scalar label 235 181.563 51 \;;
#X scalar label 235 190.814 52 \;;
#X scalar label 355 200.614 53 \;;
#X scalar label 235 210.997 54 \;;
#X scalar label 235 221.998 55 \;;
#X scalar label 235 233.652 56 \;;
#X scalar label 355 246 57 \;;
#X scalar label 235 259.082 58 \;;
#X scalar label 235 272.942 59 \;;
#X scalar label 255 287.626 60 \;;
#X scalar label 235 303.183 61 \;;
#X scalar label 235 319.665 62 \;;
#X scalar label 235 337.127 63 \;;
#X scalar label 355 355.628 64 \;;
#X scalar label 235 375.228 65 \;;
#X scalar label 235 395.994 66 \;;
#X scalar label 355 417.995 67 \;;
#X scalar label 235 441.305 68 \;;
#X scalar label 235 466 69 \;;
#X scalar label 235 492.164 70 \;;
#X scalar label 355 519.883 71 \;;
#X scalar label 235 549.251 72 \;;
#X scalar label 235 580.365 73 \;;
#X scalar label 355 613.33 74 \;;
#X scalar label 235 648.254 75 \;;
#X scalar label 235 685.255 76 \;;
#X scalar label 355 724.456 77 \;;
#X scalar line 200 20 50 \;;
#X scalar line 200 68.9994 30 \;;
#X scalar line 200 71.9131 30 \;;
#X scalar line 200 75 30 \;;
#X scalar line 200 78.2705 30 \;;
#X scalar line 200 81.7354 30 \;;
#X scalar line 200 85.4064 50 \;;
#X scalar line 200 89.2957 30 \;;
#X scalar line 200 93.4162 30 \;;
#X scalar line 200 97.7817 30 \;;
#X scalar line 200 102.407 30 \;;
#X scalar line 200 107.307 30 \;;
#X scalar line 200 112.499 30 \;;
#X scalar line 200 117.999 150 \;;
#X scalar line 200 123.826 30 \;;
#X scalar line 200 130 30 \;;
#X scalar line 200 136.541 30 \;;
#X scalar line 200 143.471 150 \;;
#X scalar line 200 150.813 30 \;;
#X scalar line 200 158.591 30 \;;
#X scalar line 200 166.832 150 \;;
#X scalar line 200 175.563 30 \;;
#X scalar line 200 184.814 30 \;;
#X scalar line 200 194.614 150 \;;
#X scalar line 200 204.997 30 \;;
#X scalar line 200 215.998 30 \;;
#X scalar line 200 227.652 30 \;;
#X scalar line 200 240 150 \;;
#X scalar line 200 253.082 30 \;;
#X scalar line 200 266.942 30 \;;
#X scalar line 200 281.626 50 \;;
#X scalar line 200 297.183 30 \;;
#X scalar line 200 313.665 30 \;;
#X scalar line 200 331.127 30 \;;
#X scalar line 200 349.628 150 \;;
#X scalar line 200 369.228 30 \;;
#X scalar line 200 389.994 30 \;;
#X scalar line 200 411.995 150 \;;
#X scalar line 200 435.305 30 \;;
#X scalar line 200 460 30 \;;
#X scalar line 200 486.164 30 \;;
#X scalar line 200 513.883 150 \;;
#X scalar line 200 543.251 30 \;;
#X scalar line 200 574.365 30 \;;
#X scalar line 200 607.33 150 \;;
#X scalar line 200 642.254 30 \;;
#X scalar line 200 679.255 30 \;;
#X scalar line 200 718.456 150 \;;
#X scalar line 150 20 50 \;;
#X scalar line 170 68.9994 30 \;;
#X scalar line 170 71.9131 30 \;;
#X scalar line 170 75 30 \;;
#X scalar line 170 78.2705 30 \;;
#X scalar line 170 81.7354 30 \;;
#X scalar line 150 85.4064 50 \;;
#X scalar line 170 89.2957 30 \;;
#X scalar line 170 93.4162 30 \;;
#X scalar line 170 97.7817 30 \;;
#X scalar line 170 102.407 30 \;;
#X scalar line 170 107.307 30 \;;
#X scalar line 170 112.499 30 \;;
#X scalar line 50 117.999 150 \;;
#X scalar line 170 123.826 30 \;;
#X scalar line 170 130 30 \;;
#X scalar line 170 136.541 30 \;;
#X scalar line 50 143.471 150 \;;
#X scalar line 170 150.813 30 \;;
#X scalar line 170 158.591 30 \;;
#X scalar line 50 166.832 150 \;;
#X scalar line 170 175.563 30 \;;
#X scalar line 170 184.814 30 \;;
#X scalar line 50 194.614 150 \;;
#X scalar line 170 204.997 30 \;;
#X scalar line 170 215.998 30 \;;
#X scalar line 170 227.652 30 \;;
#X scalar line 50 240 150 \;;
#X scalar line 170 253.082 30 \;;
#X scalar line 170 266.942 30 \;;
#X scalar line 150 281.626 50 \;;
#X scalar line 170 297.183 30 \;;
#X scalar line 170 313.665 30 \;;
#X scalar line 170 331.127 30 \;;
#X scalar line 50 349.628 150 \;;
#X scalar line 170 369.228 30 \;;
#X scalar line 170 389.994 30 \;;
#X scalar line 50 411.995 150 \;;
#X scalar line 170 435.305 30 \;;
#X scalar line 170 460 30 \;;
#X scalar line 170 486.164 30 \;;
#X scalar line 50 513.883 150 \;;
#X scalar line 170 543.251 30 \;;
#X scalar line 170 574.365 30 \;;
#X scalar line 50 607.33 150 \;;
#X scalar line 170 642.254 30 \;;
#X scalar line 170 679.255 30 \;;
#X scalar line 50 718.456 150 \;;
#X coords 0 854 1 853 0 0 0;
#X restore 31 198 pd data;
#N canvas 1 50 600 392 line 0;
#X obj 140 114 drawpolygon 0 1 0 0 w 0;
#X obj 145 63 struct line float x float y float w;
#X restore 31 219 pd line;
#N canvas 567 89 600 392 label 0;
#X obj 140 114 drawnumber n 0 0 0;
#X obj 145 63 struct label float x float y float n;
#X restore 31 240 pd label;
#N canvas 607 180 888 551 generator 0;
#X obj 400 148 sel 36 60;
#X obj 695 413 pointer;
#X msg 695 391 traverse pd-data \, bang;
#X msg 733 180 \; pd-data clear;
#X obj 146 52 until;
#X obj 146 76 float;
#X obj 193 77 + 1;
#X obj 146 100 moses 77;
#X obj 245 76 t b;
#X obj 146 31 t b b;
#X msg 146 10 bang;
#X obj 65 149 t f f f;
#X obj 150 149 sel 43 47 50 53 57 64 67 71 74 77;
#X msg 219 46 30;
#X obj 24 117 sel 30;
#X obj 68 220 mtof;
#X obj 16 151 t b b;
#X obj 12 231 0;
#X msg 280 217 150;
#X msg 449 219 170;
#X obj 412 475 append line y x w;
#X obj 70 263 + 20;
#X msg 155 216 50;
#X obj 140 445 - 20;
#X obj 97 471 append label y x n;
#X obj 69 241 * 1;
#X obj 580 493 append line y x w;
#X msg 478 219 30;
#X msg 507 219 200;
#X msg 543 218 30;
#X obj 568 471 +;
#X obj 667 125 r shift;
#X floatatom 714 272 5 0 0 0 - - -, f 5;
#X obj 714 296 s shift;
#X obj 263 472 append label y x n;
#X obj 262 442 +;
#X msg 340 218 200;
#X msg 312 216 50;
#X msg 215 215 150;
#X msg 184 215 150;
#X obj 32 309 moses 43;
#X obj 30 336 sel 36;
#X obj 30 358 36;
#X obj 83 364 mtof;
#X obj 84 385 * 1;
#X obj 85 407 + 26;
#X msg 374 216 50;
#X obj 176 189 b;
#X obj 298 186 b;
#X msg 408 217 255;
#X obj 668 152 t b b b f;
#X msg 248 215 355;
#X msg 577 218 235;
#X text 96 494 left-side numbers;
#X text 267 494 right-side numbers;
#X text 417 496 left-side lines;
#X text 589 514 right-side lines;
#X connect 0 0 48 0;
#X connect 0 1 48 0;
#X connect 0 2 19 0;
#X connect 0 2 27 0;
#X connect 0 2 29 0;
#X connect 0 2 52 0;
#X connect 0 2 28 0;
#X connect 1 0 20 3;
#X connect 1 0 24 3;
#X connect 1 0 26 3;
#X connect 1 0 34 3;
#X connect 2 0 1 0;
#X connect 4 0 5 0;
#X connect 5 0 6 0;
#X connect 5 0 7 0;
#X connect 5 0 14 0;
#X connect 6 0 5 1;
#X connect 7 1 8 0;
#X connect 8 0 4 1;
#X connect 9 0 4 0;
#X connect 9 1 13 0;
#X connect 10 0 9 0;
#X connect 11 0 15 0;
#X connect 11 0 40 0;
#X connect 11 1 24 2;
#X connect 11 1 34 2;
#X connect 11 2 12 0;
#X connect 12 0 47 0;
#X connect 12 1 47 0;
#X connect 12 2 47 0;
#X connect 12 3 47 0;
#X connect 12 4 47 0;
#X connect 12 5 47 0;
#X connect 12 6 47 0;
#X connect 12 7 47 0;
#X connect 12 8 47 0;
#X connect 12 9 47 0;
#X connect 12 10 0 0;
#X connect 13 0 5 1;
#X connect 14 0 16 0;
#X connect 14 1 11 0;
#X connect 15 0 25 0;
#X connect 16 0 17 0;
#X connect 16 1 48 0;
#X connect 17 0 21 0;
#X connect 18 0 20 1;
#X connect 18 0 23 0;
#X connect 19 0 20 1;
#X connect 19 0 23 0;
#X connect 21 0 20 0;
#X connect 21 0 30 0;
#X connect 22 0 20 1;
#X connect 22 0 23 0;
#X connect 23 0 24 1;
#X connect 25 0 21 0;
#X connect 27 0 20 2;
#X connect 28 0 26 1;
#X connect 29 0 26 2;
#X connect 30 0 26 0;
#X connect 31 0 50 0;
#X connect 32 0 33 0;
#X connect 35 0 34 0;
#X connect 36 0 26 1;
#X connect 37 0 20 2;
#X connect 38 0 26 2;
#X connect 39 0 20 2;
#X connect 40 0 41 0;
#X connect 40 1 43 0;
#X connect 41 0 42 0;
#X connect 42 0 43 0;
#X connect 43 0 44 0;
#X connect 44 0 45 0;
#X connect 45 0 35 0;
#X connect 45 0 24 0;
#X connect 46 0 26 2;
#X connect 47 0 22 0;
#X connect 47 0 39 0;
#X connect 47 0 38 0;
#X connect 47 0 51 0;
#X connect 48 0 18 0;
#X connect 48 0 37 0;
#X connect 48 0 36 0;
#X connect 48 0 46 0;
#X connect 48 0 49 0;
#X connect 49 0 34 1;
#X connect 50 0 10 0;
#X connect 50 1 2 0;
#X connect 50 2 3 0;
#X connect 50 3 30 1;
#X connect 50 3 35 1;
#X connect 51 0 34 1;
#X connect 52 0 34 1;
#X restore 31 262 pd generator;
#X text 53 5 FREQUENCY SHIFTER SLIDE RULE.;
#X text 23 32 This might help you if you need to compute products of
frequency shifting and/or FM spectra. Print and cut in half down the
middle. If you know the pitches associated with two frequencies a and
b \, align the pitch of a on the left side against the zero-frequency
marker on the right side. Then find the pitch of b on the right \,
and the matching pitch on the left corresponds to the frequency a+b.
To get a-b \, find b on the left and look up the corresponding pitch
on the right.;
#X floatatom 208 227 5 0 0 0 - - -, f 5;
#X obj 208 251 s shift;
#X text 177 199 set the shift interactively:;
#X text 178 182 Or enter a value in Hz. here to;
#X connect 6 0 7 0;
