#N struct trace-template float x float y float voiceno array bazoo
point-template;
#N struct point-template float y float amp;
#N canvas 397 24 954 715 12;
#X floatatom 797 86 0 0 100 0 - - - 0;
#X obj 797 114 s osc-amp;
#X obj 151 521 pack 0 100;
#X obj 152 547 line~;
#X obj 151 496 dbtorms;
#X obj 152 607 *~;
#X floatatom 810 257 0 0 0 0 - - - 0;
#X msg 718 274 0;
#X floatatom 847 278 0 0 0 0 - - - 0;
#X floatatom 667 86 0 0 110 0 - - - 0;
#N canvas 395 221 527 185 peak-template 0;
#X obj 65 83 filledpolygon 3 3 3 0 0 0 amp 0 0;
#X obj 58 41 struct peak-template float x float y float amp float ampreal
float ampimag float used;
#X restore 318 635 pd peak-template;
#N canvas 463 50 600 416 peak-list 0;
#X restore 318 457 pd peak-list;
#N canvas 72 99 800 609 trace-list 1;
#X scalar trace-template 0 0 0 \; 89.9298 68.3809 \; 90.3198 71.2117
\; 90.5672 72.5406 \; 90.9439 71.017 \; 91.0854 63.4825 \; \;;
#X scalar trace-template 0 0 1 \; 95.2703 60.7475 \; 95.1422 45.7243
\; 95.2466 39.9932 \; 95.1745 43.1792 \; \;;
#X scalar trace-template 0 0 3 \; 80.0806 53.4568 \; \;;
#X scalar trace-template 0 0 4 \; 80.9887 48.8044 \; 80.6287 53.4743
\; 80.8438 54.7147 \; \;;
#X scalar trace-template 0 0 5 \; 100.967 49.8933 \; 101.157 46.342
\; 101.128 36.0212 \; \;;
#X scalar trace-template 0 0 6 \; 100.435 46.4508 \; 100.396 38.9896
\; \;;
#X scalar trace-template 0 0 7 \; 92.9829 47.0527 \; 93.0409 46.3854
\; 93.0233 42.8007 \; 92.9503 38.4351 \; \;;
#X scalar trace-template 0 0 8 \; 91.1616 45.4008 \; 91.5114 47.304
\; \;;
#X scalar trace-template 0 0 9 \; 92.4502 45.3165 \; 92.3882 46.1206
\; \;;
#X scalar trace-template 0 0 10 \; 91.8603 43.3823 \; \;;
#X scalar trace-template 0 0 12 \; 99.9162 39.5885 \; 99.9262 35.3249
\; 99.8388 39.8211 \; 99.8675 41.2872 \; \;;
#X scalar trace-template 0 0 13 \; 111.206 40.0958 \; 111.204 37.8165
\; \;;
#X scalar trace-template 0 0 14 \; 99.4265 38.5328 \; 99.2689 36.5863
\; 99.2838 37.4302 \; \;;
#X scalar trace-template 0 0 15 \; 99.7154 37.9633 \; \;;
#X scalar trace-template 0 0 16 \; 110.907 38.9317 \; \;;
#X scalar trace-template 0 0 17 \; 93.8019 38.1196 \; \;;
#X scalar trace-template 0 0 20 \; 111.937 39.7353 \; 111.931 41.2305
\; 111.907 38.736 \; \;;
#X scalar trace-template 0 0 22 \; 111.535 38.4954 \; 111.54 37.7424
\; \;;
#X scalar trace-template 0 0 23 \; 111.901 40.9669 \; \;;
#X scalar trace-template 0 0 24 \; 112.243 30.9026 \; 112.322 38.0888
\; \;;
#X scalar trace-template 5 0 3 \; 100.988 43.3468 \; \;;
#X scalar trace-template 5 0 10 \; 109.472 40.1492 \; 109.545 45.6912
\; 109.552 43.15 \; \;;
#X scalar trace-template 5 0 15 \; 110.023 37.7488 \; \;;
#X scalar trace-template 5 0 16 \; 98.6842 34.815 \; \;;
#X scalar trace-template 5 0 17 \; 110.103 35.7395 \; \;;
#X scalar trace-template 5 0 19 \; 94.954 42.7696 \; 95.0201 41.9233
\; \;;
#X scalar trace-template 5 0 21 \; 112.108 37.8836 \; 112.039 40.1108
\; \;;
#X scalar trace-template 5 0 23 \; 100.572 34.4907 \; \;;
#X scalar trace-template 10 0 3 \; 102.376 53.2994 \; 102.443 47.0702
\; \;;
#X scalar trace-template 10 0 6 \; 96.384 40.5972 \; 96.5734 42.428
\; \;;
#X scalar trace-template 10 0 8 \; 110.529 42.9011 \; 110.528 49.485
\; 110.455 48.0757 \; 110.579 37.3056 \; \;;
#X scalar trace-template 10 0 9 \; 103.526 43.9377 \; \;;
#X scalar trace-template 10 0 11 \; 89.1666 38.6943 \; 89.2899 34.0327
\; 89.6965 36.4038 \; 90.0679 42.0411 \; \;;
#X scalar trace-template 10 0 13 \; 103.629 42.6527 \; \;;
#X scalar trace-template 10 0 15 \; 28.9875 40.6377 \; 32.7205 42.1009
\; \;;
#X scalar trace-template 10 0 16 \; 96.2302 31.7328 \; \;;
#X scalar trace-template 10 0 17 \; 110.741 41.5114 \; \;;
#X scalar trace-template 10 0 22 \; 113.169 37.666 \; 113.138 43.252
\; \;;
#X scalar trace-template 10 0 23 \; 110.794 40.3245 \; 110.944 42.3589
\; 110.913 45.6922 \; 110.917 41.3208 \; \;;
#X scalar trace-template 10 0 24 \; 113.233 35.9908 \; \;;
#X scalar trace-template 15 0 4 \; 90.5776 68.2629 \; 90.5625 57.599
\; 90.8232 46.2329 \; \;;
#X scalar trace-template 15 0 5 \; 97.986 68.3075 \; 98.2778 62.9426
\; 98.2986 51.2966 \; \;;
#X scalar trace-template 15 0 9 \; 97.5751 64.7693 \; 97.5821 47.3099
\; \;;
#X scalar trace-template 15 0 13 \; 102.984 50.2016 \; 103.05 43.1414
\; \;;
#X scalar trace-template 15 0 14 \; 106.198 46.8634 \; \;;
#X scalar trace-template 15 0 16 \; 110.103 50.2151 \; 110.138 45.5474
\; \;;
#X scalar trace-template 15 0 17 \; 109.869 47.7778 \; 109.905 40.2556
\; \;;
#X scalar trace-template 15 0 19 \; 104.222 42.6338 \; \;;
#X scalar trace-template 15 0 20 \; 111.143 39.1746 \; \;;
#X scalar trace-template 15 0 21 \; 108.105 38.4062 \; 108.146 45.8881
\; 108.19 46.8559 \; 108.187 39.8071 \; \;;
#X scalar trace-template 15 0 24 \; 107.774 40.318 \; \;;
#X scalar trace-template 20 0 1 \; 91.7562 73.4776 \; 91.8625 68.0924
\; 91.7783 53.5935 \; 91.967 46.4132 \; 91.967 47.1788 \; \;;
#X scalar trace-template 20 0 3 \; 92.2839 72.3901 \; 92.5321 74.9879
\; 92.7349 75.6715 \; 92.9143 76.2315 \; 92.9292 75.8878 \; 92.8483
73.6173 \; 92.5923 69.3062 \; 92.3853 62.939 \; 92.5777 47.9022 \;
\;;
#X scalar trace-template 20 0 6 \; 98.6881 66.4588 \; 98.7356 60.0447
\; 98.6858 48.2932 \; 98.7603 30.8758 \; \;;
#X scalar trace-template 20 0 7 \; 97.9872 60.8763 \; 97.875 52.3823
\; 97.8559 48.5014 \; 97.7851 41.6575 \; 97.8632 35.7108 \; 97.7476
32.7212 \; 97.8379 28.3225 \; \;;
#X scalar trace-template 20 0 10 \; 81.4734 35.3268 \; \;;
#X scalar trace-template 20 0 12 \; 93.3738 47.8296 \; 93.2661 55.0839
\; \;;
#X scalar trace-template 20 0 14 \; 107.239 48.1119 \; \;;
#X scalar trace-template 20 0 15 \; 106.862 45.0935 \; \;;
#X scalar trace-template 20 0 19 \; 97.0237 39.1921 \; \;;
#X scalar trace-template 20 0 20 \; 106.684 38.6564 \; \;;
#X scalar trace-template 20 0 22 \; 111.422 43.3549 \; \;;
#X scalar trace-template 20 0 24 \; 94.0471 40.8274 \; 93.8849 44.2122
\; 93.6783 43.9461 \; 93.8851 35.8952 \; \;;
#X scalar trace-template 25 0 0 \; 99.6441 66.2933 \; 99.8856 69.4101
\; 99.7269 58.7899 \; 99.6902 60.7301 \; \;;
#X scalar trace-template 25 0 9 \; 99.3048 65.5438 \; 99.3764 58.65
\; 99.3573 46.6401 \; 99.2838 40.7997 \; 99.2148 58.4253 \; \;;
#X scalar trace-template 25 0 10 \; 78.8047 54.7756 \; 78.4967 51.5904
\; 78.7505 49.4263 \; 79.279 51.1951 \; \;;
#X scalar trace-template 25 0 13 \; 104.243 53.3529 \; 104.262 46.1708
\; \;;
#X scalar trace-template 25 0 14 \; 103.859 49.3264 \; 103.854 36.2383
\; \;;
#X scalar trace-template 25 0 15 \; 82.2788 45.0124 \; \;;
#X scalar trace-template 25 0 16 \; 90.3511 47.2913 \; 90.5309 46.8589
\; 90.7457 40.7601 \; 90.9245 39.7269 \; \;;
#X scalar trace-template 25 0 17 \; 111.21 46.5996 \; 111.219 38.7786
\; \;;
#X scalar trace-template 25 0 19 \; 104.678 44.3872 \; \;;
#X scalar trace-template 25 0 20 \; 83.2355 40.9021 \; 83.0483 35.5679
\; \;;
#X scalar trace-template 25 0 22 \; 76.1152 38.1961 \; \;;
#X scalar trace-template 30 0 4 \; 100.008 64.9373 \; 99.9892 69.759
\; 99.9937 69.0964 \; 99.9193 65.5857 \; 99.8555 60.4459 \; 99.5974
50.8071 \; \;;
#X scalar trace-template 30 0 5 \; 91.3956 47.8677 \; 91.5735 47.5954
\; \;;
#X scalar trace-template 30 0 8 \; 108.745 51.9373 \; 108.826 53.6358
\; 108.825 52.2134 \; 108.782 48.4037 \; 108.712 45.4029 \; 108.751
36.6984 \; \;;
#X scalar trace-template 30 0 11 \; 104.896 45.733 \; 104.964 50.0371
\; 104.96 51.2432 \; 104.899 49.1207 \; \;;
#X scalar trace-template 30 0 12 \; 98.066 42.7143 \; 98.2213 40.5468
\; \;;
#X scalar trace-template 30 0 15 \; 111.506 43.0216 \; 111.635 35.9016
\; \;;
#X scalar trace-template 30 0 19 \; 94.2484 40.3971 \; \;;
#X scalar trace-template 30 0 22 \; 94.8092 39.2451 \; \;;
#X scalar trace-template 30 0 23 \; 97.3923 35.8593 \; \;;
#X scalar trace-template 35 0 13 \; 108.659 51.0251 \; 108.627 48.2947
\; 108.611 47.5931 \; 108.533 44.4294 \; 108.49 35.5174 \; \;;
#X scalar trace-template 35 0 14 \; 104.714 46.2704 \; 104.718 47.5687
\; \;;
#X scalar trace-template 35 0 17 \; 108.535 43.7229 \; 108.531 44.994
\; \;;
#X scalar trace-template 35 0 19 \; 76.6708 43.9077 \; 76.3457 39.5792
\; 75.9001 36.3017 \; 76.4929 43.0813 \; 76.4929 41.9541 \; \;;
#X scalar trace-template 35 0 20 \; 98.9068 37.9263 \; \;;
#X scalar trace-template 35 0 21 \; 104.629 41.5222 \; 104.619 45.5298
\; \;;
#X scalar trace-template 35 0 22 \; 91.1616 30.0397 \; \;;
#X scalar trace-template 35 0 23 \; 90.2628 38.8841 \; \;;
#X scalar trace-template 40 0 5 \; 99.5403 59.5038 \; \;;
#X scalar trace-template 40 0 6 \; 91.8542 39.9239 \; 91.5114 43.2035
\; \;;
#X scalar trace-template 40 0 12 \; 78.066 42.8995 \; 78.5625 45.5275
\; \;;
#X scalar trace-template 40 0 15 \; 97.282 41.2012 \; 97.32 42.2633
\; 97.2731 39.5229 \; \;;
#X scalar trace-template 40 0 20 \; 108.375 35.2229 \; \;;
#X scalar trace-template 40 0 22 \; 104.337 34.7556 \; 104.351 47.4409
\; \;;
#X scalar trace-template 40 0 23 \; 90.8047 35.5512 \; \;;
#X scalar trace-template 40 0 24 \; 112.033 37.6904 \; \;;
#X scalar trace-template 45 0 0 \; 104.151 42.8571 \; \;;
#X scalar trace-template 45 0 1 \; 108.131 45.5334 \; \;;
#X scalar trace-template 45 0 5 \; 108.05 44.7013 \; \;;
#X scalar trace-template 45 0 10 \; 108.952 37.1205 \; \;;
#X scalar trace-template 45 0 14 \; 90.2452 33.8646 \; 90.4402 37.4107
\; \;;
#X scalar trace-template 45 0 16 \; 91.279 38.996 \; \;;
#X scalar trace-template 45 0 17 \; 94.4193 35.6921 \; 94.394 32.6655
\; 94.514 32.7157 \; \;;
#X scalar trace-template 45 0 20 \; 94.2788 32.4672 \; \;;
#X scalar trace-template 45 0 21 \; 95.7372 33.4793 \; \;;
#X scalar trace-template 45 0 23 \; 96.6157 34.6319 \; 96.7439 33.6221
\; 96.9868 34.67 \; \;;
#X scalar trace-template 45 0 24 \; 107.706 26.8523 \; \;;
#X scalar trace-template 50 0 0 \; 92.8471 67.4834 \; 92.8748 55.1716
\; 92.9602 48.1104 \; 92.9131 46.1617 \; 92.8754 40.7784 \; 92.694
40.4204 \; 92.4971 38.5456 \; 92.4109 38.6256 \; \;;
#X scalar trace-template 50 0 1 \; 91.9866 67.5046 \; 91.7463 70.0917
\; 91.728 68.0545 \; 91.6181 57.9396 \; 91.7885 47.788 \; 91.711 46.017
\; 91.3956 42.4072 \; 91.5114 30.7595 \; \;;
#X scalar trace-template 50 0 2 \; 100.146 48.9488 \; 99.9207 52.4675
\; 99.7667 45.7623 \; 99.48 47.1375 \; \;;
#X scalar trace-template 50 0 5 \; 82.0809 45.2374 \; 81.8808 43.5454
\; 81.8808 30.6847 \; \;;
#X scalar trace-template 50 0 6 \; 97.5097 36.8209 \; \;;
#X scalar trace-template 50 0 9 \; 110.628 36.6651 \; 110.606 45.6806
\; 110.568 47.2377 \; 110.577 43.4415 \; \;;
#X scalar trace-template 50 0 10 \; 103.451 35.2656 \; \;;
#X scalar trace-template 50 0 11 \; 100.286 35.0168 \; 100.355 34.8862
\; 100.085 44.2835 \; 100.122 39.8168 \; \;;
#X scalar trace-template 50 0 12 \; 107.361 33.7812 \; 107.373 41.6592
\; \;;
#X scalar trace-template 50 0 16 \; 103.079 29.389 \; 103.118 43.9539
\; \;;
#X scalar trace-template 50 0 20 \; 110.376 30.7684 \; \;;
#X scalar trace-template 50 0 21 \; 101.014 33.3504 \; \;;
#X scalar trace-template 50 0 22 \; 101.202 32.7991 \; \;;
#X scalar trace-template 50 0 24 \; 100.63 27.4599 \; \;;
#X scalar trace-template 55 0 6 \; 98.7602 68.0263 \; 98.6887 66.8055
\; 98.6794 58.3023 \; 98.6842 44.4464 \; 98.7758 43.6915 \; 98.573
34.4387 \; 98.531 31.8055 \; \;;
#X scalar trace-template 55 0 7 \; 99.2562 61.6765 \; 99.2645 50.3547
\; 98.9866 50.3785 \; 98.8587 48.6404 \; 98.907 45.2314 \; \;;
#X scalar trace-template 55 0 10 \; 108.134 45.4292 \; 107.97 38.1855
\; \;;
#X scalar trace-template 55 0 14 \; 110.152 38.8652 \; \;;
#X scalar trace-template 55 0 15 \; 106.915 34.1714 \; \;;
#X scalar trace-template 55 0 20 \; 102.612 28.5163 \; 102.585 46.562
\; \;;
#X scalar trace-template 55 0 21 \; 83.0483 27.1593 \; \;;
#X scalar trace-template 55 0 22 \; 109.858 27.6354 \; \;;
#X scalar trace-template 55 0 24 \; 93.9739 25.7067 \; \;;
#X scalar trace-template 60 0 4 \; 79.8465 74.0232 \; \;;
#X scalar trace-template 60 0 8 \; 90.9165 68.2235 \; 90.56 71.404
\; 90.3235 73.7689 \; 90.2266 75.0925 \; 90.2412 75.1621 \; 90.4237
75.0482 \; 90.673 76.0466 \; 90.819 75.3554 \; 91.0835 73.1208 \; \;
;
#X scalar trace-template 60 0 12 \; 81.0519 57.5646 \; \;;
#X scalar trace-template 60 0 13 \; 103.563 50.9793 \; 103.492 43.5813
\; \;;
#X scalar trace-template 60 0 14 \; 103.845 47.3197 \; 103.782 33.4112
\; \;;
#X scalar trace-template 60 0 15 \; 106.46 41.2633 \; \;;
#X scalar trace-template 60 0 16 \; 104.111 39.9206 \; \;;
#X scalar trace-template 60 0 17 \; 107.56 41.8477 \; \;;
#X scalar trace-template 60 0 19 \; 107.794 39.3236 \; \;;
#X scalar trace-template 60 0 21 \; 106.312 36.2126 \; 106.227 46.3919
\; 106.089 51.7234 \; 106.066 55.5856 \; 106.04 55.3405 \; 106.087
50.0458 \; 106.121 42.8337 \; 106.075 34.8252 \; \;;
#X scalar trace-template 60 0 22 \; 109.541 35.6416 \; 109.534 44.6404
\; 109.453 46.1501 \; 109.384 43.1632 \; 109.36 49.4787 \; 109.335
53.9292 \; 109.379 52.4268 \; 109.343 45.3255 \; \;;
#X scalar trace-template 60 0 23 \; 108.076 35.3559 \; \;;
#X scalar trace-template 60 0 24 \; 102.317 33.0342 \; 102.382 53.3783
\; 102.256 58.4051 \; 102.201 59.6848 \; 102.2 57.0977 \; 102.27 52.6625
\; 102.441 50.4052 \; 102.528 43.5875 \; \;;
#X scalar trace-template 65 0 3 \; 97.4968 70.6741 \; \;;
#X scalar trace-template 65 0 4 \; 97.4115 71.0727 \; 97.3224 71.8804
\; 97.24 73.3074 \; 97.248 72.8862 \; 97.3426 71.4946 \; 97.5121 69.812
\; \;;
#X scalar trace-template 65 0 5 \; 97.8902 67.6872 \; 97.8708 61.84
\; 97.9674 52.0168 \; \;;
#X scalar trace-template 65 0 10 \; 102.979 50.8751 \; 102.946 47.4699
\; \;;
#X scalar trace-template 65 0 12 \; 111.972 42.9379 \; 111.931 50.39
\; 112.024 43.509 \; 112.048 41.669 \; \;;
#X scalar trace-template 65 0 15 \; 109.832 45.1462 \; 109.889 41.3517
\; \;;
#X scalar trace-template 65 0 16 \; 77.2983 51.7503 \; \;;
#X scalar trace-template 65 0 17 \; 99.6112 43.4599 \; \;;
#X scalar trace-template 65 0 19 \; 110.628 39.9404 \; \;;
#X scalar trace-template 65 0 20 \; 107.243 34.6796 \; \;;
#X scalar trace-template 65 0 23 \; 100.146 43.2689 \; \;;
#X scalar trace-template 70 0 2 \; 79.8127 61.0607 \; 80.0116 58.8543
\; 79.6456 55.0079 \; \;;
#X scalar trace-template 70 0 3 \; 98.2463 49.8865 \; 98.2933 41.1871
\; 98.2367 41.0429 \; 98.1419 37.9759 \; \;;
#X scalar trace-template 70 0 9 \; 102.738 48.1625 \; 102.763 39.1026
\; 102.612 43.9792 \; \;;
#X scalar trace-template 70 0 11 \; 81.4241 43.4241 \; \;;
#X scalar trace-template 70 0 13 \; 111.898 51.3698 \; 111.894 51.7141
\; 111.892 49.9481 \; 111.932 46.1323 \; 111.974 39.3359 \; \;;
#X scalar trace-template 70 0 14 \; 106.303 46.511 \; 106.37 40.6317
\; 106.385 42.733 \; 106.43 50.5223 \; 106.571 54.5114 \; 106.622 54.6438
\; 106.761 50.1138 \; 106.86 42.1694 \; \;;
#X scalar trace-template 70 0 16 \; 109.258 46.3941 \; 109.212 49.8125
\; 109.254 52.9003 \; \;;
#X scalar trace-template 70 0 17 \; 92.1904 36.6917 \; \;;
#X scalar trace-template 70 0 19 \; 106.572 40.7349 \; \;;
#X scalar trace-template 70 0 20 \; 103.022 43.0964 \; 103.015 36.834
\; 102.878 35.6773 \; 102.982 32.5156 \; 103.034 43.8894 \; \;;
#X scalar trace-template 70 0 23 \; 109.803 40.444 \; \;;
#X scalar trace-template 75 0 10 \; 97.5035 59.8369 \; 97.732 53.344
\; \;;
#X scalar trace-template 75 0 11 \; 90.9245 52.341 \; \;;
#X scalar trace-template 75 0 15 \; 80.6095 55.5205 \; 80.4178 57.0416
\; 80.1583 55.944 \; 80.378 53.1584 \; 80.1904 58.8111 \; \;;
#X scalar trace-template 75 0 17 \; 109.479 41.838 \; \;;
#X scalar trace-template 75 0 19 \; 99.7873 41.25 \; \;;
#X scalar trace-template 75 0 23 \; 99.8846 39.6647 \; 99.8696 43.137
\; 99.9272 43.4629 \; 99.9311 39.7388 \; 99.9314 33.5781 \; 99.8959
36.6494 \; 99.94 38.4497 \; 100.005 38.9121 \; \;;
#X scalar trace-template 80 0 5 \; 102.457 50.4761 \; \;;
#X scalar trace-template 80 0 7 \; 92.7906 37.7824 \; 92.9381 41.0653
\; 92.7366 43.1397 \; 92.7499 40.8015 \; \;;
#X scalar trace-template 80 0 11 \; 96.5782 29.8359 \; \;;
#X scalar trace-template 80 0 17 \; 92.0066 33.4666 \; \;;
#X scalar trace-template 80 0 19 \; 109.663 34.3531 \; 109.766 48.3251
\; \;;
#X scalar trace-template 85 0 2 \; 80.7926 51.8116 \; \;;
#X scalar trace-template 85 0 5 \; 109.46 49.5591 \; \;;
#X scalar trace-template 85 0 9 \; 109.821 47.2346 \; 109.863 51.1317
\; 109.866 53.4269 \; \;;
#X scalar trace-template 85 0 10 \; 112.349 39.2379 \; 112.359 44.6763
\; 112.386 45.0749 \; 112.36 38.2583 \; \;;
#X scalar trace-template 85 0 11 \; 112.223 40.6794 \; \;;
#X scalar trace-template 85 0 12 \; 112.436 35.6073 \; \;;
#X scalar trace-template 85 0 16 \; 109.904 36.6708 \; \;;
#X scalar trace-template 85 0 17 \; 111.72 30.7737 \; \;;
#X scalar trace-template 90 0 0 \; 102.679 49.6564 \; 102.678 48.3493
\; 102.738 39.9676 \; \;;
#X scalar trace-template 90 0 1 \; 110.366 30.4184 \; \;;
#X scalar trace-template 90 0 2 \; 93.0562 39.0339 \; 93.1168 37.3114
\; 92.9372 50.9384 \; 92.5694 58.2622 \; \;;
#X scalar trace-template 90 0 3 \; 81.7389 28.6166 \; 81.4734 26.9341
\; 81.4031 42.5732 \; 81.2661 52.8507 \; \;;
#X scalar trace-template 90 0 5 \; 105.987 33.8843 \; \;;
#X scalar trace-template 90 0 6 \; 89.034 26.5812 \; \;;
#X scalar trace-template 90 0 11 \; 114.352 34.4858 \; \;;
#X scalar trace-template 90 0 12 \; 99.1522 30.9779 \; 99.0613 33.6145
\; \;;
#X scalar trace-template 90 0 16 \; 112.859 29.1275 \; 112.871 40.5898
\; 112.868 43.4443 \; 112.871 40.1955 \; \;;
#X scalar trace-template 90 0 17 \; 114.622 34.084 \; \;;
#X scalar trace-template 90 0 19 \; 94.0636 33.7668 \; \;;
#X scalar trace-template 95 0 1 \; 97.9052 69.1994 \; 97.991 67.0072
\; 98.2219 60.3377 \; 98.2958 47.5347 \; \;;
#X scalar trace-template 95 0 4 \; 103.334 51.6312 \; \;;
#X scalar trace-template 95 0 5 \; 109.436 45.1194 \; \;;
#X scalar trace-template 95 0 6 \; 90.0679 41.971 \; \;;
#X scalar trace-template 95 0 11 \; 113.099 38.0907 \; 113.132 44.1863
\; 113.134 43.642 \; 113.134 36.0487 \; \;;
#X scalar trace-template 95 0 13 \; 77.034 41.5868 \; 77.2983 42.9914
\; \;;
#X scalar trace-template 95 0 17 \; 112.26 33.9114 \; \;;
#X scalar trace-template 95 0 19 \; 111.001 30.6218 \; 110.987 40.2056
\; \;;
#X scalar trace-template 95 0 20 \; 113.219 33.9499 \; \;;
#X scalar trace-template 100 0 4 \; 91.6079 75.1016 \; 92.0601 73.1175
\; \;;
#X scalar trace-template 100 0 5 \; 98.6864 65.4612 \; 98.7648 68.7188
\; 98.9906 67.6434 \; 99.2165 66.0791 \; 99.3313 59.003 \; 99.1599
52.5886 \; 99.226 64.2643 \; 99.2782 66.3099 \; \;;
#X scalar trace-template 100 0 6 \; 97.8242 56.7588 \; \;;
#X scalar trace-template 100 0 7 \; 110.107 54.0018 \; 110.133 46.1803
\; \;;
#X scalar trace-template 100 0 9 \; 97.3586 46.0673 \; 97.4778 44.8658
\; \;;
#X scalar trace-template 100 0 12 \; 93.0363 52.3001 \; 93.1529 48.8674
\; 93.2661 46.6004 \; 93.4061 36.5791 \; \;;
#X scalar trace-template 100 0 15 \; 97.1709 41.5037 \; 97.1856 43.633
\; 97.2905 45.7555 \; 97.3029 44.453 \; 97.2909 42.4786 \; 97.312 41.1658
\; 97.3391 38.3707 \; 97.353 36.0481 \; \;;
#X scalar trace-template 100 0 17 \; 107.235 43.2425 \; 107.233 39.7565
\; \;;
#X scalar trace-template 100 0 20 \; 112.531 37.969 \; \;;
#X scalar trace-template 100 0 21 \; 83.0071 33.1042 \; 82.5518 41.6803
\; 82.0809 44.709 \; 81.6783 47.0758 \; \;;
#X scalar trace-template 100 0 22 \; 93.6138 38.7341 \; 93.5975 44.3545
\; 93.5761 43.5161 \; \;;
#X scalar trace-template 100 0 24 \; 106.474 34.4617 \; \;;
#X scalar trace-template 105 0 0 \; 91.7311 76.5332 \; 91.8736 75.8677
\; \;;
#X scalar trace-template 105 0 6 \; 98.0284 57.3073 \; 97.799 45.5584
\; 97.8196 40.0072 \; 97.8359 38.418 \; 97.7121 38.5771 \; 97.5636
36.3898 \; 97.5744 33.6736 \; 97.5006 40.5139 \; \;;
#X scalar trace-template 105 0 8 \; 110.457 55.5069 \; 110.454 44.4288
\; 110.549 38.0194 \; \;;
#X scalar trace-template 105 0 10 \; 103.792 56.1791 \; 103.844 53.6695
\; 103.864 43.5425 \; \;;
#X scalar trace-template 105 0 13 \; 90.4095 52.1206 \; 90.8222 51.269
\; \;;
#X scalar trace-template 105 0 19 \; 78.5625 49.7568 \; 79.279 59.8661
\; 78.5261 48.3032 \; \;;
#X scalar trace-template 105 0 20 \; 89.942 38.6859 \; \;;
#X scalar trace-template 105 0 24 \; 106.77 41.0314 \; \;;
#X scalar trace-template 110 0 2 \; 98.7657 65.036 \; 98.7478 55.8488
\; 98.6268 46.4503 \; 98.7905 46.5472 \; \;;
#X scalar trace-template 110 0 3 \; 110.878 56.1912 \; 110.92 47.8792
\; 110.874 37.0964 \; \;;
#X scalar trace-template 110 0 4 \; 110.722 51.8964 \; 110.687 39.5686
\; 110.777 39.6354 \; \;;
#X scalar trace-template 110 0 7 \; 104.242 51.7818 \; \;;
#X scalar trace-template 110 0 9 \; 90.6418 48.2921 \; 90.2282 42.8837
\; 90.6958 42.1174 \; \;;
#X scalar trace-template 110 0 14 \; 83.2355 37.3082 \; 83.2355 26.376
\; \;;
#X scalar trace-template 110 0 16 \; 82.7443 31.2607 \; \;;
#X scalar trace-template 110 0 17 \; 108.104 38.9827 \; 108.187 41.3465
\; 108.265 39.252 \; 108.288 41.9712 \; \;;
#X scalar trace-template 110 0 20 \; 113.466 36.9427 \; \;;
#X scalar trace-template 110 0 24 \; 103.103 33.0857 \; \;;
#X scalar trace-template 115 0 0 \; 92.425 76.3857 \; 92.5975 77.7139
\; 92.6129 77.2211 \; 92.5238 74.3465 \; \;;
#X scalar trace-template 115 0 1 \; 99.5566 65.817 \; 99.6447 68.9637
\; 99.6416 69.6849 \; 99.5703 67.4764 \; 99.5681 59.5158 \; \;;
#X scalar trace-template 115 0 7 \; 99.0304 61.9735 \; 98.9545 50.9837
\; \;;
#X scalar trace-template 115 0 11 \; 111.175 51.5898 \; 111.203 41.9301
\; \;;
#X scalar trace-template 115 0 13 \; 111.576 47.3181 \; 111.652 50.6899
\; 111.653 51.4315 \; 111.622 48.3401 \; 111.596 43.3577 \; \;;
#X scalar trace-template 115 0 16 \; 108.492 45.3929 \; 108.488 47.1079
\; 108.487 48.3436 \; 108.484 43.9979 \; 108.479 33.8265 \; \;;
#X scalar trace-template 115 0 20 \; 108.541 42.6372 \; \;;
#X scalar trace-template 115 0 22 \; 77.5586 31.9902 \; \;;
#X scalar trace-template 115 0 23 \; 103.593 31.0223 \; \;;
#X scalar trace-template 115 0 24 \; 83.4206 30.9319 \; \;;
#X scalar trace-template 120 0 8 \; 79.6975 56.3162 \; \;;
#X scalar trace-template 120 0 10 \; 91.6876 54.6546 \; 92.1107 58.0453
\; 92.1221 67.5255 \; 92.299 71.3857 \; \;;
#X scalar trace-template 120 0 12 \; 104.584 50.6085 \; 104.608 51.5585
\; 104.567 49.6849 \; \;;
#X scalar trace-template 120 0 14 \; 104.369 46.5247 \; 104.411 49.8649
\; \;;
#X scalar trace-template 120 0 19 \; 111.493 46.1403 \; 111.489 45.191
\; 111.482 45.9396 \; 111.515 45.3017 \; 111.489 33.6116 \; \;;
#X scalar trace-template 120 0 20 \; 91.1616 43.481 \; 91.1728 40.4429
\; \;;
#X scalar trace-template 120 0 21 \; 90.2709 39.3873 \; 90.4663 40.4106
\; 90.5625 32.5724 \; 90.5625 37.6083 \; \;;
#X scalar trace-template 120 0 22 \; 98.1524 38.8538 \; 98.3764 23.1571
\; 98.5275 41.804 \; \;;
#X scalar trace-template 120 0 23 \; 108.179 38.2011 \; 108.214 40.7203
\; 108.226 43.2776 \; 108.144 43.2943 \; 108.125 37.2405 \; \;;
#X scalar trace-template 120 0 24 \; 111.061 34.6695 \; \;;
#X scalar trace-template 125 0 3 \; 98.6842 45.888 \; \;;
#X scalar trace-template 125 0 4 \; 104.385 48.4082 \; \;;
#X scalar trace-template 125 0 7 \; 77.9449 35.9233 \; 78.8047 50.4477
\; \;;
#X scalar trace-template 125 0 8 \; 114.345 38.9923 \; 114.331 35.5941
\; \;;
#X scalar trace-template 125 0 9 \; 111.408 38.4009 \; \;;
#X scalar trace-template 125 0 11 \; 94.0809 36.7328 \; 94.0809 36.0953
\; 94.2419 33.9111 \; \;;
#X scalar trace-template 125 0 24 \; 98.2833 29.2603 \; 98.2986 35.3135
\; \;;
#X scalar trace-template 130 0 2 \; 93.5335 37.6929 \; 93.7745 31.8678
\; 93.7764 31.5229 \; \;;
#X scalar trace-template 130 0 3 \; 110.972 40.3774 \; \;;
#X scalar trace-template 130 0 4 \; 111.137 38.8673 \; \;;
#X scalar trace-template 130 0 9 \; 110.896 38.3262 \; \;;
#X scalar trace-template 130 0 14 \; 90.7576 37.0213 \; \;;
#X scalar trace-template 130 0 17 \; 98.063 37.4827 \; \;;
#X scalar trace-template 130 0 20 \; 110.638 30.7843 \; 110.503 49.5001
\; \;;
#X scalar trace-template 135 0 0 \; 99.7202 50.8127 \; 99.6912 48.8644
\; 99.6923 41.9385 \; \;;
#X scalar trace-template 135 0 3 \; 110.641 44.6985 \; 110.643 49.9038
\; \;;
#X scalar trace-template 135 0 4 \; 110.453 49.2036 \; 110.417 51.7041
\; 110.417 52.5311 \; 110.421 46.1882 \; \;;
#X scalar trace-template 135 0 7 \; 103.298 40.0862 \; \;;
#X scalar trace-template 135 0 8 \; 108.284 40.1414 \; \;;
#X scalar trace-template 135 0 9 \; 110.05 32.6343 \; 110.058 46.9682
\; \;;
#X scalar trace-template 135 0 12 \; 94.5213 32.7918 \; \;;
#X scalar trace-template 135 0 14 \; 103.162 33.3493 \; \;;
#X scalar trace-template 135 0 17 \; 84.1421 29.6109 \; \;;
#X scalar trace-template 135 0 22 \; 101.688 32.7049 \; 101.667 36.6304
\; 101.622 36.3765 \; \;;
#X scalar trace-template 135 0 24 \; 100.216 31.2877 \; \;;
#X scalar trace-template 140 0 1 \; 91.8428 71.3291 \; 91.6169 68.1404
\; 91.7525 54.3863 \; 91.4237 47.8272 \; 91.0435 48.7995 \; \;;
#X scalar trace-template 140 0 5 \; 98.6906 67.8294 \; 98.6776 65.1466
\; 98.6747 54.3521 \; 98.7807 46.551 \; \;;
#X scalar trace-template 140 0 7 \; 103.842 51.5566 \; 103.8 46.4816
\; \;;
#X scalar trace-template 140 0 8 \; 104.128 47.398 \; \;;
#X scalar trace-template 140 0 10 \; 110.831 46.0636 \; 110.841 40.8995
\; \;;
#X scalar trace-template 140 0 11 \; 102.744 39.77 \; \;;
#X scalar trace-template 140 0 12 \; 109.73 40.2661 \; \;;
#X scalar trace-template 140 0 13 \; 111.142 39.8943 \; \;;
#X scalar trace-template 140 0 14 \; 107.974 38.454 \; \;;
#X scalar trace-template 140 0 15 \; 111.232 37.799 \; \;;
#X scalar trace-template 140 0 16 \; 102.369 31.5632 \; 102.508 57.1868
\; 102.488 56.9751 \; 102.38 56.8749 \; 102.317 49.8599 \; \;;
#X scalar trace-template 140 0 17 \; 109.663 33.6235 \; \;;
#X scalar trace-template 140 0 20 \; 113.132 38.2402 \; 113.101 38.4009
\; \;;
#X scalar trace-template 140 0 21 \; 82.6678 27.11 \; \;;
#X scalar trace-template 140 0 24 \; 106.752 33.6394 \; 106.751 40.1827
\; \;;
#X scalar trace-template 145 0 2 \; 79.7006 74.5158 \; \;;
#X scalar trace-template 145 0 3 \; 90.8015 69.9109 \; 90.4237 72.0009
\; 90.1914 73.6542 \; 90.1038 74.6652 \; 90.132 74.4507 \; 90.2902
74.6792 \; 90.4648 75.1376 \; 90.6959 75.2647 \; 91.0512 74.3444 \;
\;;
#X scalar trace-template 145 0 6 \; 99.3845 49.0179 \; 99.4186 43.9007
\; 99.4967 41.4331 \; \;;
#X scalar trace-template 145 0 8 \; 102.442 57.0103 \; \;;
#X scalar trace-template 145 0 9 \; 103.564 50.351 \; 103.367 46.3804
\; \;;
#X scalar trace-template 145 0 11 \; 92.7366 44.7616 \; 92.6018 46.6626
\; 92.5733 46.8789 \; 92.4423 44.0484 \; 92.4694 42.0436 \; 92.4323
48.3537 \; \;;
#X scalar trace-template 145 0 12 \; 109.469 46.1591 \; 109.423 52.9249
\; 109.378 52.6466 \; 109.361 45.8314 \; 109.349 40.964 \; 109.343
48.3019 \; \;;
#X scalar trace-template 145 0 13 \; 81.2661 35.8607 \; 80.6287 50.2374
\; 81.0001 42.4668 \; 80.6569 50.1754 \; 81.1039 36.5894 \; 81.4734
37.579 \; 81.2661 35.9619 \; 81.0562 41.2857 \; \;;
#X scalar trace-template 145 0 14 \; 106.42 42.2969 \; 106.419 46.3622
\; 106.417 44.638 \; \;;
#X scalar trace-template 145 0 15 \; 106.243 39.5402 \; 106.092 52.0017
\; 105.986 53.9434 \; 105.955 57.0635 \; 105.97 58.6935 \; 106.031
58.3727 \; 106.129 55.8583 \; 106.26 50.5656 \; 106.368 35.361 \; \;
;
#X scalar trace-template 145 0 17 \; 103.911 40.3229 \; \;;
#X scalar trace-template 145 0 19 \; 92.9503 39.6905 \; \;;
#X scalar trace-template 145 0 21 \; 112.832 39.5602 \; \;;
#X scalar trace-template 145 0 23 \; 112.355 38.2508 \; \;;
#X scalar trace-template 150 0 0 \; 90.8852 69.4068 \; \;;
#X scalar trace-template 150 0 2 \; 97.3316 66.9945 \; 97.1664 69.9687
\; 97.1044 71.8048 \; 97.1178 71.67 \; 97.241 70.8395 \; 97.5287 67.089
\; 97.5856 66.0228 \; \;;
#X scalar trace-template 150 0 7 \; 97.9151 64.9333 \; 97.8827 56.0411
\; 97.978 45.2641 \; 97.7439 47.8534 \; \;;
#X scalar trace-template 150 0 8 \; 98.1903 60.4342 \; 98.2517 49.3272
\; 98.1419 45.3571 \; \;;
#X scalar trace-template 150 0 10 \; 102.862 53.1194 \; 102.845 45.9332
\; \;;
#X scalar trace-template 150 0 17 \; 109.825 52.2221 \; 109.8 45.5429
\; \;;
#X scalar trace-template 150 0 19 \; 103.101 50.2738 \; 103.131 39.8071
\; \;;
#X scalar trace-template 150 0 20 \; 99.0031 48.0248 \; 98.9115 45.0575
\; 99.0022 38.7488 \; \;;
#X scalar trace-template 150 0 21 \; 110.127 48.4357 \; 110.023 36.1585
\; \;;
#X scalar trace-template 150 0 22 \; 106.157 51.0524 \; \;;
#X scalar trace-template 150 0 23 \; 103.449 45.1578 \; \;;
#X scalar trace-template 150 0 24 \; 110.574 38.1763 \; \;;
#X scalar trace-template 155 0 0 \; 79.4978 56.792 \; 78.8651 60.9478
\; \;;
#X scalar trace-template 155 0 4 \; 102.12 60.0837 \; 102.078 62.2739
\; 102.085 61.3674 \; 102.187 59.3979 \; 102.315 56.5656 \; 102.44
51.0002 \; 102.415 37.7807 \; \;;
#X scalar trace-template 155 0 9 \; 109.124 51.801 \; 109.085 53.8649
\; 109.095 50.8223 \; 109.135 47.4617 \; \;;
#X scalar trace-template 155 0 22 \; 109.57 48.9524 \; \;;
#X scalar trace-template 155 0 23 \; 111.792 46.1745 \; 111.759 47.5317
\; 111.761 44.3493 \; \;;
#X scalar trace-template 155 0 24 \; 91.9058 44.8553 \; 91.7886 44.2306
\; 91.5114 41.1241 \; \;;
#X scalar trace-template 160 0 5 \; 79.4389 60.8562 \; 79.8133 53.1984
\; 79.9907 42.7401 \; 80.6045 49.9319 \; 80.4109 52.5436 \; \;;
#X scalar trace-template 160 0 6 \; 90.5091 59.0096 \; \;;
#X scalar trace-template 160 0 10 \; 97.3876 55.0169 \; \;;
#X scalar trace-template 160 0 14 \; 90.8047 47.7793 \; \;;
#X scalar trace-template 160 0 17 \; 102.445 49.427 \; 102.44 40.5468
\; \;;
#X scalar trace-template 160 0 19 \; 106.141 48.1861 \; 106.279 41.2733
\; \;;
#X scalar trace-template 160 0 21 \; 105.674 45.8873 \; 105.688 46.6654
\; \;;
#X scalar trace-template 160 0 22 \; 111.902 39.7365 \; 111.899 39.1329
\; 111.862 43.073 \; 111.903 39.4632 \; \;;
#X scalar trace-template 165 0 0 \; 109.018 48.6622 \; 109.035 45.0556
\; 109.007 34.5966 \; \;;
#X scalar trace-template 165 0 1 \; 91.6958 42.3106 \; 91.6264 39.6232
\; \;;
#X scalar trace-template 165 0 6 \; 97.927 29.5496 \; 97.9838 43.7784
\; \;;
#X scalar trace-template 165 0 8 \; 114.089 38.7391 \; 114.1 36.5062
\; \;;
#X scalar trace-template 165 0 10 \; 98.5512 35.6011 \; 98.4538 36.0438
\; \;;
#X scalar trace-template 165 0 14 \; 99.6639 37.5934 \; 99.4835 34.0588
\; \;;
#X scalar trace-template 165 0 16 \; 92.958 35.4663 \; \;;
#X scalar trace-template 165 0 20 \; 109.46 36.2947 \; 109.49 45.7584
\; 109.461 50.9836 \; 109.467 47.5425 \; \;;
#X scalar trace-template 170 0 7 \; 109.658 40.108 \; \;;
#X scalar trace-template 170 0 16 \; 92.329 47.3953 \; 92.3343 44.5836
\; 92.4125 47.1654 \; \;;
#X scalar trace-template 170 0 17 \; 93.8816 35.6217 \; 93.9372 33.072
\; \;;
#X scalar trace-template 170 0 19 \; 99.0912 33.7602 \; 99.2834 36.1407
\; 99.4689 33.385 \; \;;
#X scalar trace-template 170 0 21 \; 105.431 32.3517 \; \;;
#X scalar trace-template 170 0 23 \; 99.7015 32.951 \; \;;
#X scalar trace-template 170 0 24 \; 112.312 30.7157 \; 112.365 41.0123
\; 112.359 40.7219 \; 112.366 35.7976 \; \;;
#X scalar trace-template 175 0 1 \; 97.2936 66.0631 \; \;;
#X scalar trace-template 175 0 6 \; 109.901 48.6966 \; \;;
#X scalar trace-template 175 0 7 \; 110.148 36.9412 \; \;;
#X scalar trace-template 175 0 8 \; 112.422 38.5226 \; \;;
#X scalar trace-template 175 0 9 \; 99.0613 30.6143 \; 99.0613 30.6933
\; \;;
#X scalar trace-template 175 0 10 \; 110.299 29.1179 \; \;;
#X scalar trace-template 175 0 11 \; 114.376 36.2057 \; \;;
#X scalar trace-template 175 0 12 \; 96.7496 35.3334 \; 96.9193 37.9231
\; 96.9431 33.9901 \; 97.1412 31.9976 \; \;;
#X scalar trace-template 175 0 14 \; 82.3176 25.5011 \; \;;
#X scalar trace-template 175 0 21 \; 100.102 34.0267 \; \;;
#X scalar trace-template 175 0 23 \; 94.6197 32.1832 \; 94.6053 35.7833
\; 94.5177 33.3389 \; \;;
#X scalar trace-template 180 0 0 \; 97.9038 67.3657 \; 97.9804 66.0014
\; 98.2927 62.6094 \; 98.2905 52.9498 \; 98.207 45.9302 \; 98.1645
39.2609 \; 98.0653 35.1819 \; 98.0963 36.7173 \; \;;
#X scalar trace-template 180 0 1 \; 106.168 46.743 \; \;;
#X scalar trace-template 180 0 6 \; 102.804 50.8661 \; 102.86 47.6438
\; 102.936 38.7846 \; \;;
#X scalar trace-template 180 0 7 \; 103.382 44.9117 \; 103.404 53.4964
\; \;;
#X scalar trace-template 180 0 8 \; 110.552 42.5968 \; \;;
#X scalar trace-template 180 0 10 \; 106.081 41.1064 \; 106.06 35.4617
\; \;;
#X scalar trace-template 180 0 11 \; 92.7366 35.1735 \; \;;
#X scalar trace-template 180 0 14 \; 112.969 38.0288 \; \;;
#X scalar trace-template 180 0 17 \; 112.801 38.7725 \; 112.835 42.2951
\; 112.883 38.7438 \; \;;
#X scalar trace-template 180 0 21 \; 89.2983 30.1567 \; 89.6874 29.9404
\; 90.0679 41.9964 \; 90.1929 36.7685 \; 90.1667 42.8963 \; 90.2127
39.9633 \; 90.0561 32.3614 \; \;;
#X scalar trace-template 180 0 22 \; 112.157 33.4348 \; \;;
#X scalar trace-template 185 0 1 \; 91.5102 74.5873 \; 91.8495 76.4605
\; 91.9551 75.7278 \; 91.6264 55.0625 \; 91.6264 49.4005 \; 91.3956
44.4276 \; \;;
#X scalar trace-template 185 0 2 \; 98.7455 62.5718 \; 98.9781 66.9824
\; 99.1311 69.1362 \; 99.1542 66.435 \; 99.2496 63.136 \; 99.2838 60.4307
\; 99.199 66.1672 \; 99.1995 66.0868 \; 98.9682 64.7132 \; \;;
#X scalar trace-template 185 0 5 \; 110.101 55.8943 \; 110.109 50.072
\; \;;
#X scalar trace-template 185 0 8 \; 109.836 50.8832 \; 109.83 36.3067
\; \;;
#X scalar trace-template 185 0 9 \; 82.8808 38.9886 \; \;;
#X scalar trace-template 185 0 11 \; 82.6678 39.4551 \; 82.6444 41.3465
\; 82.609 42.3844 \; 82.5504 36.8232 \; 82.2788 35.0358 \; 82.7583
31.7746 \; 83.2355 26.4902 \; 83.0483 11.2217 \; 83.2355 24.5889 \;
\;;
#X scalar trace-template 185 0 13 \; 102.191 30.4214 \; \;;
#X scalar trace-template 185 0 14 \; 82.2788 37.4654 \; \;;
#X scalar trace-template 185 0 16 \; 93.513 27.5638 \; 93.4917 42.7092
\; 93.147 49.4254 \; 93.2661 42.2309 \; \;;
#X scalar trace-template 185 0 19 \; 112.487 33.5974 \; \;;
#X scalar trace-template 185 0 20 \; 115.107 34.0195 \; \;;
#X scalar trace-template 185 0 22 \; 93.8808 27.4525 \; \;;
#X scalar trace-template 190 0 3 \; 78.5625 52.3309 \; 77.8151 42.919
\; 78.0679 44.5104 \; 78.0679 44.3713 \; 78.1128 45.3248 \; 78.0679
45.0301 \; 78.0679 48.0775 \; \;;
#X scalar trace-template 190 0 4 \; 97.9971 55.7844 \; 97.8129 43.575
\; 97.8073 37.0336 \; \;;
#X scalar trace-template 190 0 7 \; 81.4734 46.1224 \; 81.6783 47.1654
\; \;;
#X scalar trace-template 190 0 9 \; 92.8704 51.5927 \; 92.4861 65.3094
\; \;;
#X scalar trace-template 190 0 10 \; 110.421 53.8038 \; 110.467 45.7097
\; 110.367 35.5331 \; 110.342 34.7653 \; \;;
#X scalar trace-template 190 0 13 \; 110.603 54.2127 \; 110.573 48.7571
\; 110.588 38.379 \; 110.561 35.1282 \; \;;
#X scalar trace-template 190 0 14 \; 110.915 53.7122 \; 110.92 53.7477
\; 110.926 45.3556 \; 111.053 37.6471 \; 111.063 37.4868 \; 111.035
47.8581 \; \;;
#X scalar trace-template 190 0 15 \; 97.4281 41.581 \; 97.5246 41.6524
\; 97.4363 37.8448 \; 97.5636 33.993 \; 97.5448 32.8806 \; 97.7283
32.0741 \; \;;
#X scalar trace-template 190 0 19 \; 99.4305 35.0688 \; \;;
#X scalar trace-template 190 0 20 \; 107.16 39.3031 \; \;;
#X scalar trace-template 190 0 22 \; 113.098 40.1293 \; \;;
#X scalar trace-template 190 0 23 \; 107.782 40.8393 \; 107.79 40.5811
\; \;;
#X scalar trace-template 190 0 24 \; 89.1666 32.894 \; \;;
#X scalar trace-template 195 0 5 \; 92.2978 70.7647 \; 92.3057 74.75
\; 92.4928 76.1857 \; 92.5034 76.2688 \; 92.4167 73.9728 \; 92.2801
68.9839 \; \;;
#X scalar trace-template 195 0 6 \; 111.093 54.6831 \; 111.138 52.4717
\; 111.181 45.6844 \; 111.198 38.5056 \; 111.168 46.661 \; 111.131
50.4745 \; 111.129 46.8845 \; 111.139 38.5065 \; \;;
#X scalar trace-template 195 0 8 \; 103.858 51.414 \; 104.075 49.1621
\; 104.275 43.4602 \; 104.183 38.9552 \; \;;
#X scalar trace-template 195 0 12 \; 103.566 47.3992 \; \;;
#X scalar trace-template 195 0 17 \; 90.684 46.5407 \; 90.7447 45.9276
\; 90.7926 43.8061 \; 90.9245 33.3998 \; \;;
#X scalar trace-template 195 0 19 \; 111.343 46.9008 \; 111.427 50.0156
\; 111.534 51.6798 \; 111.541 51.2765 \; 111.542 45.6422 \; 111.553
38.4575 \; 111.562 33.2037 \; 111.512 33.2439 \; \;;
#X scalar trace-template 195 0 20 \; 93.4851 45.1002 \; 93.5556 42.348
\; \;;
#X scalar trace-template 195 0 22 \; 93.9098 39.1361 \; \;;
#X scalar trace-template 195 0 24 \; 83.2207 36.5073 \; \;;
#X scalar trace-template 200 0 7 \; 99.4267 67.4691 \; 99.5125 69.4067
\; 99.5563 69.1006 \; 99.6178 63.0283 \; 99.6065 53.9679 \; 99.6715
41.8514 \; 99.4327 47.9142 \; 99.3346 40.7807 \; 99.5434 39.6853 \;
99.5281 40.7528 \; 99.4743 41.3407 \; 99.4548 39.1237 \; 99.4686 37.1387
\; 99.5713 31.0052 \; \;;
#X scalar trace-template 200 0 9 \; 104.455 46.7253 \; 104.514 51.4213
\; 104.506 53.3208 \; 104.454 51.2631 \; \;;
#X scalar trace-template 200 0 12 \; 103.946 43.4347 \; \;;
#X scalar trace-template 200 0 22 \; 108.423 42.2541 \; 108.401 45.7033
\; 108.401 46.8996 \; 108.325 43.7175 \; 108.178 39.0009 \; 108.099
32.6539 \; \;;
#X scalar trace-template 200 0 23 \; 108.369 43.9047 \; \;;
#X scalar trace-template 200 0 24 \; 107.992 37.0791 \; \;;
#X scalar trace-template 205 0 4 \; 79.7407 59.5127 \; 79.7407 52.1633
\; \;;
#X scalar trace-template 205 0 12 \; 99.0613 56.4971 \; 98.8985 48.4112
\; 98.9891 62.7452 \; 98.9107 67.2747 \; 98.6843 67.5364 \; 98.626
64.0934 \; 98.6004 49.2395 \; 98.7275 40.7599 \; 98.5647 40.1717 \;
\;;
#X scalar trace-template 205 0 16 \; 98.6077 40.7995 \; 98.4728 33.4464
\; \;;
#X scalar trace-template 205 0 20 \; 110.746 34.0675 \; \;;
#X scalar trace-template 205 0 23 \; 97.3808 36.5707 \; 97.3169 38.2661
\; 97.4114 39.1773 \; 97.4525 37.4811 \; \;;
#X scalar trace-template 205 0 24 \; 110.911 29.4768 \; \;;
#X scalar trace-template 210 0 10 \; 92.0791 52.071 \; \;;
#X scalar trace-template 210 0 13 \; 111.371 40.5794 \; 111.315 43.1972
\; 111.394 38.72 \; 111.431 28.5379 \; \;;
#X scalar trace-template 210 0 20 \; 90.743 37.3181 \; 90.5336 31.4306
\; \;;
#X scalar trace-template 210 0 24 \; 77.2983 12.4022 \; \;;
#X scalar trace-template 215 0 1 \; 99.4342 63.9764 \; \;;
#X scalar trace-template 215 0 4 \; 110.801 46.8013 \; \;;
#X scalar trace-template 215 0 8 \; 110.752 42.7345 \; \;;
#X scalar trace-template 215 0 10 \; 108.432 41.7098 \; 108.501 28.4384
\; \;;
#X scalar trace-template 215 0 16 \; 93.1614 31.4116 \; 93.5589 31.9607
\; 93.5761 31.9293 \; \;;
#X scalar trace-template 215 0 17 \; 110.531 33.5198 \; \;;
#X scalar trace-template 215 0 21 \; 113.775 33.991 \; 113.75 37.4799
\; 113.743 35.4487 \; \;;
#X scalar trace-template 215 0 24 \; 93.9811 29.906 \; 94.3575 30.0476
\; 94.2803 29.8076 \; \;;
#X scalar trace-template 220 0 0 \; 91.8547 71.3987 \; 91.7428 71.5539
\; 91.4888 67.451 \; \;;
#X scalar trace-template 220 0 1 \; 113.169 36.5584 \; 113.165 43.5526
\; 113.131 42.9755 \; 113.128 35.6006 \; \;;
#X scalar trace-template 220 0 4 \; 113.463 36.4478 \; 113.429 38.0111
\; 113.433 32.2236 \; \;;
#X scalar trace-template 220 0 8 \; 113.006 31.7088 \; \;;
#X scalar trace-template 220 0 9 \; 97.2539 34.7519 \; \;;
#X scalar trace-template 220 0 14 \; 111.627 34.6287 \; \;;
#X scalar trace-template 220 0 15 \; 112.829 30.3002 \; 112.83 40.5489
\; 112.833 44.5339 \; 112.838 42.205 \; \;;
#X scalar trace-template 220 0 17 \; 100.422 29.5854 \; \;;
#X scalar trace-template 220 0 20 \; 83.7851 21.3542 \; 83.7851 23.1393
\; \;;
#X scalar trace-template 225 0 3 \; 110.865 51.5192 \; 110.831 43.6233
\; 110.917 31.3297 \; \;;
#X scalar trace-template 225 0 5 \; 89.942 33.045 \; \;;
#X scalar trace-template 225 0 8 \; 102.44 32.1233 \; \;;
#X scalar trace-template 225 0 9 \; 102.317 27.553 \; \;;
#X scalar trace-template 225 0 10 \; 107.151 32.7582 \; 107.228 33.8045
\; \;;
#X scalar trace-template 225 0 14 \; 93.9196 27.9665 \; \;;
#X scalar trace-template 225 0 17 \; 108.012 31.8796 \; \;;
#X scalar trace-template 225 0 23 \; 89.1666 25.7673 \; \;;
#X scalar trace-template 230 0 2 \; 90.9198 69.3659 \; 90.8787 67.8901
\; \;;
#X scalar trace-template 230 0 5 \; 98.7603 59.9653 \; \;;
#X scalar trace-template 230 0 8 \; 110.417 56.0274 \; 110.434 50.336
\; \;;
#X scalar trace-template 230 0 9 \; 110.103 55.6932 \; 110.066 53.5895
\; 110.034 43.9553 \; \;;
#X scalar trace-template 230 0 11 \; 92.7366 39.0005 \; 92.6287 32.7569
\; \;;
#X scalar trace-template 230 0 13 \; 113.219 38.7691 \; \;;
#X scalar trace-template 230 0 14 \; 112.196 37.8074 \; \;;
#X scalar trace-template 230 0 16 \; 99.5034 41.1078 \; \;;
#X scalar trace-template 230 0 17 \; 104.023 36.6755 \; 103.929 32.4477
\; \;;
#X scalar trace-template 230 0 20 \; 111.999 32.9466 \; \;;
#X scalar trace-template 230 0 21 \; 104.19 29.0524 \; \;;
#X scalar trace-template 230 0 22 \; 101.688 29.2234 \; \;;
#X scalar trace-template 230 0 23 \; 106.433 32.9474 \; \;;
#X scalar trace-template 230 0 24 \; 92.9503 32.5734 \; \;;
#X scalar trace-template 235 0 0 \; 90.432 69.9751 \; 90.1917 71.7219
\; 90.0616 73.1189 \; 90.0776 73.885 \; 90.2886 74.1283 \; 90.5487
75.0344 \; 90.6959 74.9424 \; 91.0531 73.7151 \; 90.684 44.1631 \;
90.867 44.1195 \; \;;
#X scalar trace-template 235 0 4 \; 97.3416 65.1552 \; 97.1645 68.501
\; 97.0778 70.6027 \; 97.0809 70.5307 \; 97.1754 68.8965 \; 97.4148
68.0111 \; 97.5891 64.956 \; \;;
#X scalar trace-template 235 0 5 \; 97.9188 64.7708 \; 97.8923 56.1276
\; 97.9818 44.9379 \; 97.7439 47.9103 \; 97.9838 43.927 \; \;;
#X scalar trace-template 235 0 6 \; 98.1834 59.6852 \; 98.2649 49.8117
\; 98.1413 48.8075 \; 98.2204 42.1435 \; 98.2204 39.3483 \; \;;
#X scalar trace-template 235 0 10 \; 102.315 58.6428 \; 102.127 62.2273
\; 102.064 64.6422 \; 102.063 64.0306 \; 102.126 60.5835 \; \;;
#X scalar trace-template 235 0 13 \; 109.826 54.1101 \; 109.777 49.127
\; \;;
#X scalar trace-template 235 0 14 \; 92.1139 46.7115 \; 91.9431 46.6452
\; 91.8567 44.4073 \; 91.9258 37.8115 \; 91.8218 36.6455 \; 91.8542
42.5295 \; \;;
#X scalar trace-template 235 0 16 \; 80.8438 47.1529 \; 80.4109 54.8833
\; 80.2883 56.6096 \; 80.1465 58.0024 \; 80.2436 55.6494 \; 80.4217
53.5644 \; \;;
#X scalar trace-template 235 0 19 \; 99.0836 45.249 \; 98.9659 44.4216
\; \;;
#X scalar trace-template 235 0 20 \; 110.481 48.0323 \; \;;
#X scalar trace-template 235 0 21 \; 111.834 41.014 \; 111.725 47.9439
\; 111.714 53.462 \; 111.718 53.449 \; 111.763 49.0818 \; 111.837 42.5984
\; \;;
#X scalar trace-template 235 0 22 \; 112.354 43.616 \; 112.336 39.7371
\; \;;
#X scalar trace-template 235 0 23 \; 106.086 36.5732 \; 105.926 44.5543
\; 105.887 53.3135 \; 105.926 56.7411 \; 105.979 56.1183 \; 106.087
52.6085 \; 106.164 47.422 \; 106.082 34.3248 \; \;;
#X scalar trace-template 235 0 24 \; 81.4734 33.5099 \; \;;
#X scalar trace-template 240 0 1 \; 79.9442 59.0159 \; 79.5299 59.0815
\; \;;
#X scalar trace-template 240 0 2 \; 102.414 58.5908 \; 102.411 49.6404
\; 102.577 37.8929 \; 102.374 56.0112 \; 102.318 58.3538 \; 102.498
54.9334 \; 102.493 43.4126 \; \;;
#X scalar trace-template 240 0 3 \; 109.419 53.5758 \; 109.356 48.5388
\; 109.275 46.8757 \; \;;
#X scalar trace-template 240 0 8 \; 109.835 50.6623 \; \;;
#X scalar trace-template 240 0 11 \; 109.131 49.1193 \; 109.078 49.7083
\; 109.055 47.7354 \; 109.093 43.0888 \; 109.026 33.0889 \; \;;
#X scalar trace-template 240 0 15 \; 91.461 44.1059 \; 91.0435 46.0366
\; 90.8047 49.6097 \; \;;
#X scalar trace-template 240 0 17 \; 111.898 44.8458 \; 111.876 42.3111
\; 111.858 44.3552 \; \;;
#X scalar trace-template 240 0 20 \; 112.155 39.1691 \; \;;
#X scalar trace-template 240 0 24 \; 106.216 39.5571 \; 106.23 40.1709
\; 106.182 43.6273 \; \;;
#X scalar trace-template 245 0 8 \; 90.4528 61.2174 \; \;;
#X scalar trace-template 245 0 9 \; 97.3365 58.1978 \; \;;
#X scalar trace-template 245 0 13 \; 109.427 49.1685 \; 109.404 43.8444
\; \;;
#X scalar trace-template 245 0 19 \; 92.4494 40.9936 \; 92.4643 41.5422
\; 92.5337 41.0414 \; 92.6214 42.7936 \; 92.7366 43.2518 \; 92.4109
49.5379 \; 92.7366 51.0239 \; \;;
#X scalar trace-template 245 0 20 \; 109.501 36.8277 \; \;;
#X scalar trace-template 245 0 22 \; 101.574 38.9196 \; 101.66 38.9505
\; 101.632 36.157 \; 101.59 31.9193 \; \;;
#X scalar trace-template 250 0 1 \; 109.327 48.206 \; 109.335 47.7999
\; 109.42 51.1641 \; 109.459 47.9492 \; 109.468 33.9912 \; \;;
#X scalar trace-template 250 0 8 \; 91.0435 32.5211 \; \;;
#X scalar trace-template 250 0 9 \; 81.4734 31.8429 \; \;;
#X scalar trace-template 250 0 12 \; 109.419 42.0872 \; 109.54 44.559
\; \;;
#X scalar trace-template 250 0 20 \; 106.421 35.4279 \; 106.359 43.1798
\; \;;
#X scalar trace-template 255 0 3 \; 112.037 41.9362 \; \;;
#X scalar trace-template 255 0 8 \; 112.178 37.161 \; \;;
#X scalar trace-template 255 0 9 \; 105.678 34.5001 \; \;;
#X scalar trace-template 255 0 13 \; 92.9785 32.8643 \; \;;
#X scalar trace-template 255 0 15 \; 99.0629 31.2787 \; 99.0489 35.8291
\; 98.9866 28.3321 \; \;;
#X scalar trace-template 255 0 17 \; 109.864 29.5444 \; 109.74 49.1275
\; \;;
#X scalar trace-template 255 0 24 \; 94.4253 32.8925 \; \;;
#X scalar trace-template 260 0 3 \; 110.016 44.5789 \; \;;
#X scalar trace-template 260 0 5 \; 110.177 40.7918 \; \;;
#X scalar trace-template 260 0 6 \; 81.0562 36.4007 \; \;;
#X scalar trace-template 260 0 8 \; 112.322 38.7398 \; 112.329 39.1252
\; \;;
#X scalar trace-template 260 0 9 \; 110.492 32.431 \; 110.45 49.0623
\; \;;
#X scalar trace-template 260 0 10 \; 111.628 32.2952 \; \;;
#X scalar trace-template 260 0 12 \; 112.833 32.5321 \; 112.835 41.3074
\; 112.866 43.908 \; 112.867 39.3602 \; \;;
#X scalar trace-template 260 0 13 \; 96.6641 30.3243 \; \;;
#X scalar trace-template 260 0 20 \; 110.616 29.8686 \; 110.596 44.4013
\; \;;
#X scalar trace-template 260 0 24 \; 93.5287 31.7388 \; 93.5751 30.1439
\; 93.665 39.515 \; 93.6783 40.4241 \; \;;
#X scalar trace-template 265 0 3 \; 97.9036 66.7313 \; 97.9791 65.5601
\; 97.9781 56.1987 \; 98.2384 44.4352 \; 98.1419 38.3739 \; 98.1497
38.1147 \; 98.1869 34.7092 \; \;;
#X scalar trace-template 265 0 5 \; 106.251 48.1749 \; 106.394 32.5906
\; \;;
#X scalar trace-template 265 0 6 \; 105.954 37.5843 \; \;;
#X scalar trace-template 265 0 10 \; 99.21 33.9423 \; \;;
#X scalar trace-template 265 0 11 \; 113.055 37.817 \; \;;
#X scalar trace-template 265 0 13 \; 112.177 36.6926 \; \;;
#X scalar trace-template 265 0 14 \; 111.998 33.3206 \; \;;
#X scalar trace-template 265 0 16 \; 113.231 33.0373 \; \;;
#X scalar trace-template 265 0 17 \; 107.237 37.1983 \; \;;
#X scalar trace-template 265 0 21 \; 93.0562 29.5469 \; \;;
#X scalar trace-template 265 0 22 \; 107.304 37.1224 \; \;;
#X scalar trace-template 270 0 4 \; 91.5258 75.3681 \; 91.8488 77.2678
\; 91.8761 75.362 \; \;;
#X scalar trace-template 270 0 6 \; 98.6805 65.5935 \; 98.7622 69.1224
\; 99.0581 68.3677 \; 99.1949 66.0299 \; 99.3529 56.9128 \; 99.5585
59.2564 \; 99.498 64.0143 \; 99.5928 64.0609 \; \;;
#X scalar trace-template 270 0 7 \; 110.069 54.0662 \; 110.127 50.4833
\; \;;
#X scalar trace-template 270 0 8 \; 102.763 48.1007 \; \;;
#X scalar trace-template 270 0 9 \; 109.829 48.6219 \; 109.829 34.5263
\; \;;
#X scalar trace-template 270 0 10 \; 109.676 38.4245 \; \;;
#X scalar trace-template 270 0 11 \; 97.0036 39.4319 \; 97.05 39.0341
\; \;;
#X scalar trace-template 270 0 13 \; 111.024 35.7076 \; \;;
#X scalar trace-template 270 0 14 \; 89.942 37.676 \; 89.6804 35.4532
\; \;;
#X scalar trace-template 270 0 15 \; 102.379 37.099 \; \;;
#X scalar trace-template 270 0 16 \; 106.762 38.6659 \; \;;
#X scalar trace-template 270 0 17 \; 93.5248 38.503 \; 93.5528 44.5526
\; 93.5761 40.6612 \; \;;
#X scalar trace-template 270 0 20 \; 95.5565 35.2455 \; \;;
#X scalar trace-template 270 0 21 \; 89.034 28.6881 \; 88.9787 32.3404
\; \;;
#X scalar trace-template 270 0 22 \; 86.0574 34.31 \; 86.4816 36.4545
\; \;;
#X scalar trace-template 275 0 1 \; 78.5625 49.8514 \; 77.9681 45.5117
\; 77.5586 42.2893 \; 78.0679 44.2626 \; 78.8749 46.5272 \; 79.3517
50.3504 \; \;;
#X scalar trace-template 275 0 2 \; 110.453 54.7158 \; 110.456 45.7795
\; \;;
#X scalar trace-template 275 0 5 \; 110.063 47.6847 \; 110.012 34.5047
\; \;;
#X scalar trace-template 275 0 8 \; 97.5421 34.919 \; 97.8106 46.7804
\; 97.8211 38.1234 \; \;;
#X scalar trace-template 275 0 10 \; 113.108 40.9748 \; 113.238 34.1725
\; \;;
#X scalar trace-template 275 0 13 \; 111.394 35.8211 \; 111.493 47.8866
\; 111.465 51.7405 \; 111.46 46.9288 \; 111.481 36.6983 \; 111.529
35.484 \; 111.574 35.6002 \; \;;
#X scalar trace-template 275 0 15 \; 107.245 36.8363 \; \;;
#X scalar trace-template 275 0 16 \; 85.8757 36.2679 \; \;;
#X scalar trace-template 275 0 20 \; 95.1619 36.3459 \; \;;
#X scalar trace-template 275 0 23 \; 113.75 35.711 \; 113.755 39.6188
\; 113.76 36.9093 \; \;;
#X scalar trace-template 280 0 7 \; 98.775 65.455 \; 98.7603 54.877
\; 98.6483 42.2781 \; 98.5793 39.6888 \; 98.3874 31.5276 \; 98.1419
31.2206 \; \;;
#X scalar trace-template 280 0 9 \; 110.875 53.7032 \; 110.904 43.3984
\; 111.021 34.682 \; \;;
#X scalar trace-template 280 0 11 \; 110.618 48.787 \; 110.565 37.0392
\; \;;
#X scalar trace-template 280 0 12 \; 103.784 52.0238 \; 103.84 39.7718
\; \;;
#X scalar trace-template 280 0 14 \; 103.637 48.7439 \; \;;
#X scalar trace-template 280 0 15 \; 90.5625 47.3368 \; 90.6963 40.7338
\; 90.7274 40.5059 \; \;;
#X scalar trace-template 280 0 16 \; 103.337 35.6641 \; \;;
#X scalar trace-template 280 0 19 \; 113.462 39.1096 \; \;;
#X scalar trace-template 280 0 20 \; 97.6632 37.3209 \; 97.3657 37.5659
\; 97.3681 35.9032 \; 97.3219 35.6881 \; 97.3835 35.8 \; 97.5374 32.4593
\; \;;
#X scalar trace-template 280 0 21 \; 110.376 38.9722 \; \;;
#X scalar trace-template 280 0 22 \; 103.042 30.4105 \; \;;
#X scalar trace-template 280 0 24 \; 108.477 33.7352 \; 108.621 43.8805
\; 108.673 51.2649 \; 108.674 54.1024 \; 108.669 52.3139 \; 108.659
46.52 \; 108.714 33.8641 \; \;;
#X scalar trace-template 285 0 0 \; 92.5233 76.5086 \; 92.734 77.2736
\; 92.8075 77.3649 \; 92.7491 75.1983 \; 92.5433 71.5693 \; 92.2661
67.8943 \; \;;
#X scalar trace-template 285 0 2 \; 99.7187 64.9729 \; 99.8474 68.4704
\; 99.8516 70.4159 \; 99.8717 67.0202 \; 99.8273 61.325 \; 99.8794
49.4082 \; 99.7028 44.798 \; 99.4195 47.2946 \; 99.3573 40.7543 \;
\;;
#X scalar trace-template 285 0 4 \; 99.0301 62.5277 \; 98.9557 49.8124
\; 98.9668 45.0957 \; 99.0879 52.5235 \; 99.0593 64.9998 \; \;;
#X scalar trace-template 285 0 5 \; 111.173 51.6611 \; 111.187 42.181
\; \;;
#X scalar trace-template 285 0 10 \; 104.135 45.9742 \; 104.135 36.6068
\; \;;
#X scalar trace-template 285 0 14 \; 90.2313 41.3272 \; 90.2293 36.3558
\; \;;
#X scalar trace-template 285 0 16 \; 104.616 42.1438 \; 104.533 39.4027
\; 104.598 41.1803 \; \;;
#X scalar trace-template 285 0 17 \; 83.4206 27.7893 \; 82.8556 29.0854
\; \;;
#X scalar trace-template 285 0 19 \; 111.857 36.7297 \; 111.862 43.8988
\; 111.861 45.4109 \; 111.86 41.4946 \; 111.78 34.6976 \; \;;
#X scalar trace-template 285 0 21 \; 94.3087 32.8642 \; \;;
#X scalar trace-template 285 0 22 \; 100.216 35.5144 \; \;;
#X scalar trace-template 290 0 8 \; 80.1904 56.2738 \; 79.8841 60.3838
\; \;;
#X scalar trace-template 290 0 11 \; 91.6535 51.597 \; 91.8369 47.2973
\; \;;
#X scalar trace-template 290 0 12 \; 111.648 47.524 \; 111.673 43.3948
\; \;;
#X scalar trace-template 290 0 21 \; 104.692 40.7851 \; 104.747 42.2415
\; \;;
#X scalar trace-template 290 0 22 \; 108.504 41.2764 \; 108.485 40.1263
\; 108.471 44.2287 \; 108.556 45.3658 \; 108.496 30.9845 \; \;;
#X scalar trace-template 290 0 23 \; 104.294 35.4799 \; \;;
#X scalar trace-template 295 0 5 \; 92.4109 60.8782 \; \;;
#X scalar trace-template 295 0 9 \; 99.4305 52.2484 \; \;;
#X scalar trace-template 295 0 10 \; 77.8151 43.8519 \; 77.7216 38.985
\; 77.5586 36.5502 \; \;;
#X scalar trace-template 295 0 14 \; 91.7407 44.5242 \; \;;
#X scalar trace-template 295 0 15 \; 111.587 39.5887 \; \;;
#X scalar trace-template 295 0 17 \; 91.476 43.6302 \; \;;
#X scalar trace-template 295 0 23 \; 104.529 37.19 \; \;;
#X scalar trace-template 300 0 3 \; 99.7476 64.225 \; \;;
#X scalar trace-template 300 0 5 \; 93.2661 45.4786 \; \;;
#X scalar trace-template 300 0 8 \; 111.212 40.753 \; \;;
#X scalar trace-template 300 0 9 \; 108.14 39.1031 \; \;;
#X scalar trace-template 300 0 11 \; 90.9245 32.0096 \; 91.1616 32.4223
\; \;;
#X scalar trace-template 300 0 12 \; 98.4538 27.8082 \; \;;
#X scalar trace-template 300 0 14 \; 110.976 31.3919 \; 110.948 42.7326
\; \;;
#X scalar trace-template 300 0 15 \; 111.287 37.2174 \; \;;
#X scalar trace-template 300 0 16 \; 111.152 35.1582 \; 111.14 43.0459
\; 111.097 46.3233 \; 111.038 41.8122 \; \;;
#X scalar trace-template 300 0 17 \; 108.059 35.9691 \; 107.968 40.8558
\; 107.963 41.7006 \; 107.917 35.013 \; \;;
#X scalar trace-template 300 0 21 \; 90.5436 28.8578 \; \;;
#X scalar trace-template 300 0 23 \; 114.532 33.9519 \; \;;
#X scalar trace-template 305 0 1 \; 92.1139 68.866 \; 91.7608 70.0945
\; 91.7254 70.8095 \; \;;
#X scalar trace-template 305 0 3 \; 104.242 49.6182 \; 104.187 50.1733
\; 104.17 42.5708 \; \;;
#X scalar trace-template 305 0 5 \; 110.805 42.2296 \; \;;
#X scalar trace-template 305 0 8 \; 110.722 40.1612 \; 110.681 49.1084
\; 110.679 51.4936 \; 110.675 46.1944 \; 110.587 40.2983 \; \;;
#X scalar trace-template 305 0 9 \; 94.3539 33.6167 \; \;;
#X scalar trace-template 305 0 12 \; 94.1811 33.2431 \; 94.2588 36.7229
\; 94.5609 35.3952 \; \;;
#X scalar trace-template 305 0 15 \; 97.325 32.2815 \; \;;
#X scalar trace-template 305 0 21 \; 110.401 31.5617 \; 110.436 43.0514
\; \;;
#X scalar trace-template 305 0 23 \; 89.8464 27.9799 \; 89.8848 28.9409
\; \;;
#X scalar trace-template 310 0 4 \; 103.524 48.0764 \; \;;
#X scalar trace-template 310 0 5 \; 90.684 44.7216 \; \;;
#X scalar trace-template 310 0 6 \; 93.4734 34.7267 \; 93.4734 22.1192
\; \;;
#X scalar trace-template 310 0 7 \; 100.355 34.5047 \; 100.405 36.5078
\; \;;
#X scalar trace-template 310 0 9 \; 93.5761 30.6326 \; \;;
#X scalar trace-template 310 0 10 \; 113.08 34.0757 \; \;;
#X scalar trace-template 310 0 11 \; 84.4919 32.8672 \; \;;
#X scalar trace-template 310 0 13 \; 102.199 32.9123 \; \;;
#X scalar trace-template 310 0 14 \; 113.01 31.9031 \; \;;
#X scalar trace-template 310 0 15 \; 113.427 34.5839 \; \;;
#X scalar trace-template 310 0 19 \; 95.3398 33.1177 \; \;;
#X scalar trace-template 310 0 20 \; 88.6647 32.5801 \; \;;
#X scalar trace-template 315 0 0 \; 98.6821 68.4131 \; 98.6125 64.14
\; 98.6256 49.6953 \; \;;
#X scalar trace-template 315 0 4 \; 98.9603 64.3413 \; \;;
#X scalar trace-template 315 0 5 \; 80.4109 64.1787 \; 80.3118 60.9094
\; 80.6394 50.2984 \; 80.0917 60.8729 \; 79.4617 57.3413 \; 80.3071
49.8731 \; \;;
#X scalar trace-template 315 0 9 \; 103.049 49.7743 \; \;;
#X scalar trace-template 315 0 10 \; 110.867 47.7035 \; 110.867 40.1315
\; \;;
#X scalar trace-template 315 0 11 \; 92.7366 42.8983 \; 92.6099 45.0946
\; 92.7546 44.9555 \; 92.7362 43.6432 \; 92.6241 45.0998 \; 92.5342
44.9531 \; 92.4681 43.8061 \; 92.3716 43.8518 \; 92.4109 39.1753 \;
\;;
#X scalar trace-template 315 0 13 \; 111.117 42.8147 \; \;;
#X scalar trace-template 315 0 14 \; 112.841 39.5795 \; 112.835 42.8899
\; 112.857 38.9702 \; \;;
#X scalar trace-template 315 0 15 \; 106.674 35.2991 \; \;;
#X scalar trace-template 315 0 19 \; 82.6678 27.2485 \; \;;
#X scalar trace-template 315 0 20 \; 106.474 33.0318 \; 106.414 48.463
\; \;;
#X scalar trace-template 315 0 21 \; 94.2332 36.1378 \; \;;
#X scalar trace-template 315 0 22 \; 96.8804 31.0801 \; \;;
#X scalar trace-template 315 0 23 \; 96.5347 34.6389 \; \;;
#X scalar trace-template 315 0 24 \; 109.533 28.5323 \; 109.542 45.6285
\; \;;
#X scalar trace-template 320 0 1 \; 90.8122 69.2052 \; 90.4259 70.5129
\; 90.1759 72.2138 \; 90.0342 73.6029 \; 90.0281 74.1543 \; 90.173
74.4876 \; 90.4296 74.6159 \; 90.5803 74.5629 \; 90.954 73.2514 \;
90.5718 53.6665 \; 90.4284 45.4301 \; 90.3103 41.6409 \; 90.1844 40.5362
\; 90.2471 38.0539 \; \;;
#X scalar trace-template 320 0 3 \; 98.7603 58.1412 \; \;;
#X scalar trace-template 320 0 4 \; 102.465 49.6047 \; \;;
#X scalar trace-template 320 0 6 \; 110.417 51.5367 \; 110.417 43.3757
\; \;;
#X scalar trace-template 320 0 7 \; 103.504 49.6322 \; 103.396 37.6074
\; \;;
#X scalar trace-template 320 0 9 \; 106.333 46.7285 \; 106.326 49.9583
\; 106.323 48.6546 \; 106.271 38.0757 \; 106.377 33.245 \; \;;
#X scalar trace-template 320 0 12 \; 99.5733 42.6082 \; \;;
#X scalar trace-template 320 0 13 \; 92.9503 40.3784 \; \;;
#X scalar trace-template 320 0 15 \; 107.233 42.824 \; \;;
#X scalar trace-template 320 0 16 \; 102.193 39.202 \; 102.312 56.8321
\; 102.068 58.5906 \; 101.999 60.6101 \; 101.999 60.2003 \; 102.071
57.4217 \; \;;
#X scalar trace-template 320 0 17 \; 112.387 40.6484 \; 112.352 43.8713
\; \;;
#X scalar trace-template 320 0 19 \; 81.4734 36.8973 \; \;;
#X scalar trace-template 320 0 21 \; 81.8808 32.1579 \; \;;
#X scalar trace-template 320 0 22 \; 113.129 38.8708 \; \;;
#X scalar trace-template 320 0 23 \; 112.028 33.7244 \; \;;
#X scalar trace-template 325 0 3 \; 90.873 68.4234 \; \;;
#X scalar trace-template 325 0 4 \; 97.3394 66.2654 \; 97.1047 68.3346
\; 97.0261 70.4677 \; 97.0281 70.5589 \; 97.158 69.5767 \; 97.4605
66.054 \; 97.5013 65.9768 \; 97.2539 41.4872 \; 97.3177 41.5928 \;
97.3829 38.2603 \; 97.2771 38.7634 \; 97.3051 36.3891 \; 97.288 34.8127
\; 97.3899 38.0766 \; 97.3315 37.5454 \; 97.3247 34.2258 \; 97.1972
23.3518 \; \;;
#X scalar trace-template 325 0 10 \; 97.9135 64.7483 \; 97.8923 55.9085
\; \;;
#X scalar trace-template 325 0 12 \; 91.3956 54.2249 \; 91.4747 47.4217
\; 91.2779 41.7744 \; 91.3956 38.382 \; \;;
#X scalar trace-template 325 0 13 \; 102.744 53.3524 \; 102.697 47.9635
\; 102.701 39.5879 \; \;;
#X scalar trace-template 325 0 15 \; 103.137 48.3736 \; 102.919 40.0819
\; \;;
#X scalar trace-template 325 0 19 \; 110.06 49.2358 \; \;;
#X scalar trace-template 325 0 20 \; 109.788 50.1368 \; 109.782 43.6088
\; \;;
#X scalar trace-template 325 0 21 \; 106.002 46.2278 \; 105.923 55.7884
\; \;;
#X scalar trace-template 325 0 22 \; 99.0809 46.5214 \; 99.0109 43.2752
\; \;;
#X scalar trace-template 325 0 23 \; 111.796 41.6073 \; 111.717 49.4398
\; 111.845 42.1134 \; 111.82 41.7555 \; 111.752 47.3586 \; 111.829
43.4656 \; 111.867 32.9984 \; \;;
#X scalar trace-template 325 0 24 \; 110.707 36.7806 \; \;;
#X scalar trace-template 330 0 0 \; 97.4188 65.5318 \; 97.3381 58.4337
\; 97.4997 39.416 \; \;;
#X scalar trace-template 330 0 2 \; 102.32 58.6437 \; 102.282 53.1558
\; 102.397 49.5702 \; 102.312 52.2696 \; 102.256 54.8006 \; 102.385
50.5239 \; 102.377 36.9671 \; \;;
#X scalar trace-template 330 0 3 \; 105.878 56.5585 \; 105.872 57.559
\; 105.882 58.6588 \; 105.979 57.1624 \; 106.134 57.553 \; 106.196
53.612 \; \;;
#X scalar trace-template 330 0 6 \; 109.379 51.1388 \; 109.302 48.0919
\; \;;
#X scalar trace-template 330 0 7 \; 98.2768 47.2038 \; 98.0951 45.9536
\; 97.8127 41.6349 \; 97.9042 38.6059 \; \;;
#X scalar trace-template 330 0 8 \; 109.082 51.2643 \; \;;
#X scalar trace-template 330 0 14 \; 80.3567 55.9532 \; 81.1273 46.5155
\; 80.7478 49.341 \; 81.0562 46.7348 \; 80.902 48.6043 \; 81.2661 38.9945
\; \;;
#X scalar trace-template 330 0 17 \; 109.041 51.8783 \; 109.013 52.9113
\; 109.01 53.2237 \; 109.041 49.8648 \; 109.033 40.9768 \; \;;
#X scalar trace-template 330 0 19 \; 111.681 49.7815 \; 111.677 50.9426
\; 111.677 50.7251 \; 111.642 43.8484 \; 111.648 34.0716 \; \;;
#X scalar trace-template 330 0 24 \; 91.9165 44.8153 \; 91.6212 45.0054
\; \;;
#X scalar trace-template 335 0 8 \; 90.4447 59.8805 \; \;;
#X scalar trace-template 335 0 10 \; 109.212 45.0834 \; 109.179 40.3687
\; 109.251 47.0234 \; 109.379 49.9894 \; 109.463 47.6155 \; 109.48
36.0076 \; \;;
#X scalar trace-template 335 0 15 \; 109.389 45.9498 \; \;;
#X scalar trace-template 335 0 20 \; 92.0592 39.2164 \; 92.2074 36.8828
\; \;;
#X scalar trace-template 335 0 21 \; 93.9549 41.5682 \; 93.8398 39.8882
\; 93.8771 37.4868 \; \;;
#X scalar trace-template 335 0 22 \; 98.5496 39.0879 \; 98.5917 35.0468
\; 98.5575 36.56 \; 98.6111 39.3111 \; \;;
#X scalar trace-template 340 0 6 \; 79.6725 47.2956 \; \;;
#X scalar trace-template 340 0 8 \; 98.0802 39.6877 \; \;;
#X scalar trace-template 340 0 13 \; 99.9121 39.4938 \; 99.9211 45.6702
\; 99.8614 41.9842 \; 99.8834 36.9725 \; 99.8703 32.3969 \; 100.125
30.9724 \; 100.216 30.7624 \; \;;
#X scalar trace-template 340 0 15 \; 102.539 44.1434 \; \;;
#X scalar trace-template 340 0 24 \; 99.7907 38.6557 \; \;;
#X scalar trace-template 345 0 0 \; 99.9551 41.4784 \; \;;
#X scalar trace-template 345 0 5 \; 92.7799 36.1951 \; 92.8438 34.3904
\; 92.9259 29.8891 \; 93.0562 33.3296 \; 93.3718 39.1355 \; \;;
#X scalar trace-template 345 0 6 \; 109.663 31.8176 \; 109.78 45.1343
\; \;;
#X scalar trace-template 345 0 8 \; 112.177 32.7204 \; \;;
#X scalar trace-template 345 0 9 \; 102.932 29.6238 \; \;;
#X scalar trace-template 345 0 12 \; 93.4693 31.5324 \; \;;
#X scalar trace-template 345 0 15 \; 94.1634 32.0241 \; 94.0562 36.3684
\; 93.6769 30.0515 \; 93.8107 32.253 \; \;;
#X scalar trace-template 345 0 20 \; 98.9697 33.0759 \; 99.1338 30.5874
\; 98.9866 30.2099 \; \;;
#X scalar trace-template 345 0 24 \; 100.361 32.4407 \; \;;
#X scalar trace-template 350 0 0 \; 97.2194 65.8187 \; \;;
#X scalar trace-template 350 0 7 \; 79.5114 52.7182 \; 79.967 58.2976
\; \;;
#X scalar trace-template 350 0 8 \; 109.963 41.5153 \; \;;
#X scalar trace-template 350 0 9 \; 110.142 35.8819 \; \;;
#X scalar trace-template 350 0 12 \; 112.385 36.5714 \; 112.353 40.4776
\; 112.352 37.1338 \; \;;
#X scalar trace-template 350 0 16 \; 81.8808 29.5657 \; \;;
#X scalar trace-template 350 0 21 \; 110.388 32.9406 \; 110.341 46.6122
\; \;;
#X scalar trace-template 350 0 24 \; 94.6319 33.8696 \; \;;
#X scalar trace-template 355 0 0 \; 102.926 54.5564 \; 103.04 55.3016
\; 103.099 49.7622 \; 103.103 33.4462 \; \;;
#X scalar trace-template 355 0 6 \; 109.345 46.0523 \; \;;
#X scalar trace-template 355 0 8 \; 110.483 41.1088 \; \;;
#X scalar trace-template 355 0 9 \; 92.4109 42.8334 \; \;;
#X scalar trace-template 355 0 16 \; 110.684 36.1782 \; \;;
#X scalar trace-template 355 0 17 \; 112.862 37.6896 \; 112.865 41.8989
\; 112.867 39.1905 \; \;;
#X scalar trace-template 355 0 19 \; 99.4104 32.4411 \; \;;
#X scalar trace-template 355 0 22 \; 94.1145 35.8212 \; 94.1707 30.292
\; \;;
#X scalar trace-template 355 0 24 \; 101.942 32.19 \; 101.989 31.5764
\; \;;
#X scalar trace-template 360 0 3 \; 91.4849 73.5065 \; \;;
#X scalar trace-template 360 0 6 \; 97.9825 66.5069 \; 98.0163 58.7516
\; 97.9737 40.2387 \; 97.7614 42.4463 \; 97.7914 39.0306 \; 97.8743
33.8453 \; \;;
#X scalar trace-template 360 0 7 \; 106.399 48.2544 \; 106.327 36.3371
\; \;;
#X scalar trace-template 360 0 8 \; 107.232 49.0478 \; 107.238 48.8792
\; 107.25 40.4406 \; \;;
#X scalar trace-template 360 0 9 \; 109.793 47.9491 \; 109.812 35.5218
\; \;;
#X scalar trace-template 360 0 11 \; 110.863 45.2581 \; \;;
#X scalar trace-template 360 0 14 \; 90.0679 40.2225 \; \;;
#X scalar trace-template 360 0 16 \; 104.061 35.573 \; 104.076 48.7671
\; 104.136 51.7186 \; 104.192 49.1887 \; 104.39 45.6258 \; \;;
#X scalar trace-template 360 0 19 \; 107.734 37.4715 \; \;;
#X scalar trace-template 360 0 20 \; 86.4345 34.9856 \; 86.2863 35.6432
\; \;;
#X scalar trace-template 360 0 21 \; 111.284 31.1227 \; \;;
#X scalar trace-template 360 0 23 \; 94.6346 31.4666 \; \;;
#X scalar trace-template 365 0 2 \; 91.9504 74.5892 \; 92.2846 75.0568
\; 92.4228 75.956 \; 92.723 76.114 \; 92.8416 76.7804 \; 92.8466 76.1762
\; 92.7442 74.3061 \; 92.5226 71.4306 \; \;;
#X scalar trace-template 365 0 3 \; 98.6126 67.099 \; 98.6897 62.8912
\; 98.725 48.711 \; 98.9866 51.5693 \; 98.836 34.0474 \; 98.9713 40.4788
\; \;;
#X scalar trace-template 365 0 10 \; 99.0538 65.6818 \; 99.1362 68.4531
\; 99.2928 67.1477 \; 99.3553 58.5545 \; 99.2456 48.2548 \; \;;
#X scalar trace-template 365 0 11 \; 110.417 53.656 \; 110.451 46.1682
\; \;;
#X scalar trace-template 365 0 12 \; 103.575 53.4913 \; 103.63 48.8844
\; 103.604 35.8848 \; \;;
#X scalar trace-template 365 0 14 \; 111.132 50.603 \; 111.137 55.6403
\; 111.174 53.7011 \; 111.188 44.0104 \; \;;
#X scalar trace-template 365 0 15 \; 110.107 47.0956 \; \;;
#X scalar trace-template 365 0 19 \; 81.2661 39.6298 \; \;;
#X scalar trace-template 365 0 21 \; 106.737 36.4149 \; \;;
#X scalar trace-template 365 0 22 \; 97.1709 37.6706 \; \;;
#X scalar trace-template 365 0 23 \; 93.5761 37.479 \; 93.601 37.3248
\; 93.733 36.841 \; \;;
#X scalar trace-template 365 0 24 \; 113.101 38.2692 \; \;;
#X scalar trace-template 370 0 5 \; 91.8616 73.9042 \; 91.6264 51.0327
\; 91.6242 51.5614 \; 91.7933 47.9432 \; 92.1904 52.3659 \; \;;
#X scalar trace-template 370 0 7 \; 92.7366 43.9006 \; \;;
#X scalar trace-template 370 0 9 \; 91.1616 44.0292 \; \;;
#X scalar trace-template 370 0 15 \; 77.5735 46.8911 \; 78.0679 44.4199
\; 78.5625 27.4174 \; 79.0878 48.1401 \; 79.4569 52.8411 \; \;;
#X scalar trace-template 370 0 17 \; 110.873 50.8779 \; 110.882 41.1825
\; \;;
#X scalar trace-template 370 0 19 \; 98.2204 46.2115 \; 98.1188 44.6777
\; 98.1817 42.4382 \; 98.1603 37.5444 \; 98.3764 32.3112 \; 98.6077
34.8562 \; \;;
#X scalar trace-template 370 0 20 \; 82.538 34.0842 \; 82.4744 39.4867
\; \;;
#X scalar trace-template 370 0 21 \; 103.22 33.0353 \; \;;
#X scalar trace-template 370 0 22 \; 89.3105 34.6214 \; \;;
#X scalar trace-template 370 0 24 \; 83.4206 32.964 \; 83.1444 32.905
\; \;;
#X scalar trace-template 375 0 0 \; 99.6348 66.0194 \; 99.8499 68.2784
\; 99.8803 71.071 \; 99.8861 70.5819 \; 99.8524 67.6996 \; 99.8406
60.0859 \; 99.5827 49.7404 \; 99.6229 45.2184 \; 99.5132 42.1975 \;
\;;
#X scalar trace-template 375 0 7 \; 108.648 48.1737 \; 108.704 50.7211
\; 108.741 54.7986 \; 108.721 55.1791 \; 108.696 53.1711 \; 108.65
48.4682 \; 108.71 32.5692 \; \;;
#X scalar trace-template 375 0 8 \; 103.873 40.8197 \; \;;
#X scalar trace-template 375 0 9 \; 108.599 48.5519 \; \;;
#X scalar trace-template 375 0 11 \; 108.084 42.5317 \; \;;
#X scalar trace-template 375 0 13 \; 107.974 41.1395 \; \;;
#X scalar trace-template 375 0 21 \; 108.223 39.2411 \; 108.166 35.2523
\; \;;
#X scalar trace-template 375 0 22 \; 110.722 35.4173 \; \;;
#X scalar trace-template 380 0 8 \; 111.472 49.2157 \; 111.515 38.5295
\; \;;
#X scalar trace-template 380 0 9 \; 104.785 46.3914 \; 104.852 48.5067
\; 104.856 48.207 \; \;;
#X scalar trace-template 380 0 11 \; 104.283 42.6265 \; \;;
#X scalar trace-template 380 0 12 \; 90.8047 40.2019 \; 91.2601 41.372
\; 91.1453 36.5869 \; \;;
#X scalar trace-template 380 0 13 \; 111.04 35.8502 \; \;;
#X scalar trace-template 380 0 17 \; 87.9041 35.291 \; \;;
#X scalar trace-template 380 0 20 \; 96.6733 36.6291 \; 96.7472 36.4496
\; \;;
#X scalar trace-template 380 0 22 \; 102.18 35.1101 \; \;;
#X scalar trace-template 380 0 23 \; 87.4538 34.3172 \; \;;
#X scalar trace-template 380 0 24 \; 110.542 34.7619 \; \;;
#X scalar trace-template 385 0 11 \; 99.6483 57.6565 \; 99.6483 60.8619
\; \;;
#X scalar trace-template 385 0 13 \; 99.1222 47.755 \; \;;
#X scalar trace-template 385 0 14 \; 78.0679 41.9525 \; 77.8151 42.8442
\; 78.0992 38.3191 \; \;;
#X scalar trace-template 385 0 16 \; 111.643 42.7065 \; 111.653 37.5792
\; 111.657 38.3962 \; 111.613 35.3193 \; \;;
#X scalar trace-template 385 0 17 \; 108.578 45.297 \; 108.55 47.9439
\; 108.509 50.4822 \; 108.544 49.3379 \; 108.48 36.8006 \; \;;
#X scalar trace-template 385 0 21 \; 104.65 41.8305 \; 104.65 45.1032
\; \;;
#X scalar trace-template 385 0 22 \; 111.902 42.2257 \; 111.924 41.6404
\; 111.905 37.3886 \; \;;
#X scalar trace-template 385 0 23 \; 114.591 37.8424 \; 114.596 37.3513
\; \;;
#X scalar trace-template 385 0 24 \; 90.7137 34.4917 \; 90.8302 26.454
\; 90.7542 37.2677 \; 90.684 37.7205 \; \;;
#X scalar trace-template 390 0 1 \; 99.576 55.4134 \; 99.3214 60.1258
\; 99.2758 65.0357 \; 99.2559 62.7321 \; \;;
#X scalar trace-template 390 0 6 \; 108.448 45.9934 \; \;;
#X scalar trace-template 390 0 8 \; 104.574 42.1288 \; \;;
#X scalar trace-template 390 0 10 \; 108.38 41.442 \; \;;
#X scalar trace-template 390 0 13 \; 101.993 36.4421 \; 101.983 33.5378
\; \;;
#X scalar trace-template 390 0 20 \; 111.756 34.6068 \; \;;
#X scalar trace-template 395 0 3 \; 104.259 43.646 \; \;;
#X scalar trace-template 395 0 5 \; 108.069 39.3699 \; \;;
#X scalar trace-template 395 0 6 \; 104.023 32.1936 \; \;;
#X scalar trace-template 395 0 8 \; 111.214 38.0521 \; \;;
#X scalar trace-template 395 0 9 \; 98.1117 32.788 \; \;;
#X scalar trace-template 395 0 10 \; 111.146 34.7151 \; 111.14 41.7059
\; 111.167 42.1453 \; 111.051 40.1963 \; \;;
#X scalar trace-template 395 0 11 \; 111.308 36.5509 \; \;;
#X scalar trace-template 395 0 12 \; 97.5831 32.3268 \; 97.7439 31.4066
\; \;;
#X scalar trace-template 395 0 15 \; 94.7182 31.0988 \; 94.48 27.4479
\; \;;
#X scalar trace-template 395 0 20 \; 110.987 27.1356 \; \;;
#X scalar trace-template 395 0 21 \; 83.9645 28.4543 \; 83.7851 30.5917
\; 83.9645 29.7064 \; \;;
#X scalar trace-template 395 0 23 \; 111.519 33.2434 \; \;;
#X scalar trace-template 400 0 3 \; 103.642 42.5312 \; \;;
#X scalar trace-template 400 0 5 \; 100.355 33.8916 \; 100.332 32.4137
\; 100.123 34.3346 \; \;;
#X scalar trace-template 400 0 6 \; 110.437 31.1731 \; 110.419 46.5396
\; \;;
#X scalar trace-template 400 0 8 \; 103.454 31.3681 \; \;;
#X scalar trace-template 400 0 9 \; 93.8808 32.9423 \; 93.5761 33.9082
\; 93.6631 35.0062 \; \;;
#X scalar trace-template 400 0 11 \; 110.299 29.5764 \; \;;
#X scalar trace-template 400 0 13 \; 100.934 32.0535 \; \;;
#X scalar trace-template 400 0 14 \; 104.79 32.803 \; \;;
#X scalar trace-template 400 0 19 \; 102.984 27.5072 \; 103.071 44.0505
\; \;;
#X scalar trace-template 400 0 20 \; 84.7172 25.3457 \; \;;
#X scalar trace-template 400 0 22 \; 96.6388 29.9407 \; 96.5289 27.5668
\; \;;
#X scalar trace-template 400 0 23 \; 89.5586 26.2419 \; 89.6874 28.8052
\; \;;
#X scalar trace-template 405 0 2 \; 91.748 70.448 \; 91.7249 68.9163
\; 91.5963 59.6337 \; \;;
#X scalar trace-template 405 0 3 \; 99.8923 48.7196 \; 99.8317 42.1172
\; 99.8737 39.6178 \; \;;
#X scalar trace-template 405 0 8 \; 108.137 43.7954 \; 108.102 30.3918
\; \;;
#X scalar trace-template 405 0 11 \; 109.909 35.1492 \; \;;
#X scalar trace-template 405 0 12 \; 93.9357 35.0053 \; \;;
#X scalar trace-template 405 0 13 \; 113.035 35.3903 \; 113.132 37.9318
\; \;;
#X scalar trace-template 405 0 14 \; 102.623 26.8892 \; 102.511 47.1247
\; \;;
#X scalar trace-template 405 0 15 \; 112.857 31.7649 \; 112.866 39.6124
\; 112.864 39.3681 \; \;;
#X scalar trace-template 405 0 16 \; 83.0483 28.294 \; \;;
#X scalar trace-template 405 0 20 \; 111.359 32.5457 \; \;;
#X scalar trace-template 405 0 24 \; 96.3179 30.6474 \; \;;
#X scalar trace-template 410 0 1 \; 98.6871 65.5425 \; 98.6255 57.0731
\; \;;
#X scalar trace-template 410 0 4 \; 98.9526 60.703 \; 99.01 47.9976
\; \;;
#X scalar trace-template 410 0 6 \; 81.2661 53.372 \; \;;
#X scalar trace-template 410 0 7 \; 92.3136 50.6761 \; 92.4109 39.4969
\; \;;
#X scalar trace-template 410 0 11 \; 103.563 50.6594 \; 103.539 46.1743
\; \;;
#X scalar trace-template 410 0 12 \; 104.189 39.1041 \; \;;
#X scalar trace-template 410 0 16 \; 110.826 42.7029 \; \;;
#X scalar trace-template 410 0 17 \; 93.1276 39.3677 \; 92.8875 41.8274
\; \;;
#X scalar trace-template 410 0 19 \; 109.468 39.8901 \; 109.46 48.9022
\; \;;
#X scalar trace-template 410 0 20 \; 107.286 40.56 \; 107.229 36.1493
\; \;;
#X scalar trace-template 410 0 21 \; 107.905 37.9861 \; \;;
#X scalar trace-template 410 0 22 \; 111.118 39.3327 \; \;;
#X scalar trace-template 410 0 23 \; 107.815 36.2917 \; \;;
#X scalar trace-template 410 0 24 \; 106.359 34.071 \; \;;
#X scalar trace-template 415 0 5 \; 97.9033 64.4137 \; \;;
#X scalar trace-template 415 0 6 \; 98.2102 61.378 \; \;;
#X scalar trace-template 415 0 8 \; 79.967 59.3162 \; \;;
#X scalar trace-template 415 0 9 \; 102.986 52.5601 \; \;;
#X scalar trace-template 415 0 10 \; 109.823 49.9483 \; \;;
#X scalar trace-template 415 0 12 \; 110.061 49.3319 \; \;;
#X scalar trace-template 415 0 13 \; 110.41 46.4633 \; \;;
#X scalar trace-template 415 0 14 \; 103.606 42.731 \; \;;
#X scalar trace-template 415 0 16 \; 105.883 38.9494 \; \;;
#X scalar trace-template 415 0 21 \; 110.63 38.0317 \; \;;
#X scalar trace-template 415 0 22 \; 111.645 36.6794 \; \;;
#X scalar trace-template 415 0 23 \; 111.899 38.8658 \; \;;
#X scalar trace-template 415 0 24 \; 93.1614 34.1349 \; \;;
#X coords 0 152.25 1 152 0 0 0;
#X restore 318 436 pd trace-list;
#N canvas 375 90 563 188 trace-template 0;
#X text 65 101 This template describes a pitch/amplitude trace. The
array "bazoo" holds the actual points. In this template \, y is always
0 and x is the starting location in pixels. There are 5 pixels per
point.;
#X obj 84 26 struct trace-template float x float y float voiceno array
bazoo point-template;
#X obj 88 68 plot bazoo 0 1 0 0 5;
#X restore 318 656 pd trace-template;
#N canvas 311 238 528 190 point-template 0;
#X text 64 65 This template describes a single point on a pitch trace
(cf. trace-template w describes the trace itself.);
#X text 64 98 "y" is the field that is shown on the graph \; it's -
4 * pitch. You also get an "amp" field in dB \, which you can't see
as a plot (yet).;
#X obj 149 23 struct point-template float y float amp;
#X restore 318 677 pd point-template;
#X obj 28 401 pack 0 100;
#X obj 28 426 line~;
#X obj 28 378 dbtorms;
#X floatatom 565 86 0 0 110 0 - - - 0;
#N canvas 193 52 731 459 output 0;
#X obj 268 118 t b f;
#X obj 259 142 +;
#X obj 520 284 f;
#X obj 538 242 f;
#X obj 362 315 f;
#X obj 89 246 t b;
#X obj 89 194 f;
#X obj 89 72 inlet;
#X text 96 51 mute;
#X obj 89 318 f;
#X msg 241 230 0;
#X msg 89 103 bang;
#X obj 89 222 moses 1;
#X obj 237 86 t b f;
#X obj 228 110 +;
#X obj 210 46 r loop-amp;
#X obj 401 43 r osc-amp;
#X obj 89 353 s loop-amp;
#X obj 362 340 s osc-amp;
#X obj 192 225 f;
#X obj 380 245 f;
#X obj 241 180 t b b;
#X obj 555 42 r grain-amp;
#X obj 520 312 s grain-amp;
#X connect 0 0 1 0;
#X connect 0 1 1 1;
#X connect 1 0 6 1;
#X connect 2 0 23 0;
#X connect 3 0 2 1;
#X connect 4 0 18 0;
#X connect 5 0 9 0;
#X connect 5 0 4 0;
#X connect 5 0 2 0;
#X connect 6 0 12 0;
#X connect 7 0 11 0;
#X connect 9 0 17 0;
#X connect 10 0 17 0;
#X connect 10 0 18 0;
#X connect 10 0 23 0;
#X connect 11 0 6 0;
#X connect 12 0 5 0;
#X connect 12 1 21 0;
#X connect 13 0 14 0;
#X connect 13 1 14 1;
#X connect 14 0 1 0;
#X connect 15 0 14 0;
#X connect 15 0 19 1;
#X connect 16 0 13 0;
#X connect 16 0 20 1;
#X connect 19 0 9 1;
#X connect 20 0 4 1;
#X connect 21 0 10 0;
#X connect 21 1 19 0;
#X connect 21 1 20 0;
#X connect 21 1 3 0;
#X connect 22 0 3 1;
#X connect 22 0 0 0;
#X restore 863 86 pd output;
#X obj 28 488 *~;
#X obj 29 638 hip~ 5;
#X obj 29 676 dac~;
#X obj 696 582 adc~;
#X obj 565 114 s loop-amp;
#X msg 863 56 mute;
#X text 54 133 click here first;
#N canvas 357 94 1118 667 make-trace 0;
#X obj 721 154 pointer;
#X obj 721 491 setsize trace-template bazoo;
#X obj 721 366 random 200;
#X obj 721 392 + 100;
#X obj 879 389 pointer;
#X obj 179 390 pointer;
#X floatatom 219 514 0 0 0 0 - - - 0;
#X floatatom 114 450 0 0 0 0 - - - 0;
#X msg 179 356 bang;
#X floatatom 156 302 0 0 0 0 - - - 0;
#X floatatom 19 354 0 0 0 0 - - - 0;
#X floatatom 179 446 0 0 0 0 - - - 0;
#X floatatom 466 510 0 0 0 0 - - - 0;
#X floatatom 286 577 0 0 0 0 - - - 0;
#X floatatom 618 415 0 0 0 0 - - - 0;
#X obj 409 327 pointer;
#X msg 428 300 next;
#X floatatom 467 414 0 0 0 0 - - - 0;
#X obj 466 476 getsize trace-template bazoo;
#X obj 179 419 get point-template y;
#X obj 19 378 set point-template y;
#X obj 156 328 element trace-template bazoo;
#X obj 114 480 setsize trace-template bazoo;
#X obj 286 602 set trace-template x;
#X obj 219 540 set trace-template y;
#X msg 721 341 bang;
#X obj 721 416 append trace-template x;
#X obj 467 390 get trace-template x y;
#X obj 721 443 t b p;
#X msg 721 468 5;
#X obj 721 181 s last-in-list;
#X msg 721 56 bang;
#X obj 721 79 t b b;
#X obj 651 155 f 0;
#X obj 651 182 s nframe;
#X obj 875 203 r nframe;
#X obj 858 226 f;
#X obj 858 250 + 1;
#X obj 858 272 s nframe;
#X obj 721 32 r clear-all;
#X msg 721 130 traverse pd-trace-list \, bang;
#X msg 409 274 traverse pd-trace-list \, next;
#X msg 879 364 traverse pd-trace-list \, bang;
#X obj 73 51 add-trace 0;
#X obj 858 170 r done-analysis;
#X msg 782 66 \; pd-trace-list clear \; add-trace-clear bang;
#X obj 73 71 add-trace 1;
#X obj 73 91 add-trace 2;
#X obj 73 111 add-trace 3;
#X obj 73 131 add-trace 4;
#X obj 73 151 add-trace 5;
#X obj 73 171 add-trace 6;
#X obj 73 191 add-trace 7;
#X obj 73 211 add-trace 8;
#X obj 73 231 add-trace 9;
#X obj 175 51 add-trace 10;
#X obj 175 71 add-trace 11;
#X obj 175 91 add-trace 12;
#X obj 175 111 add-trace 13;
#X obj 175 131 add-trace 14;
#X obj 175 151 add-trace 15;
#X obj 175 171 add-trace 16;
#X obj 175 191 add-trace 17;
#X obj 175 211 add-trace 18;
#X obj 175 231 add-trace 19;
#X obj 284 50 add-trace 20;
#X obj 284 70 add-trace 21;
#X obj 284 90 add-trace 22;
#X obj 284 110 add-trace 23;
#X obj 284 130 add-trace 24;
#X obj 284 150 add-trace 25;
#X obj 284 170 add-trace 26;
#X obj 284 190 add-trace 27;
#X obj 284 210 add-trace 28;
#X obj 284 230 add-trace 29;
#X obj 396 50 add-trace 30;
#X obj 396 70 add-trace 31;
#X obj 396 90 add-trace 32;
#X obj 396 110 add-trace 33;
#X obj 396 130 add-trace 34;
#X obj 396 150 add-trace 35;
#X obj 396 170 add-trace 36;
#X obj 396 190 add-trace 37;
#X obj 396 210 add-trace 38;
#X obj 396 230 add-trace 39;
#X obj 506 50 add-trace 40;
#X obj 506 70 add-trace 41;
#X obj 506 90 add-trace 42;
#X obj 506 110 add-trace 43;
#X obj 506 130 add-trace 44;
#X obj 506 150 add-trace 45;
#X obj 506 170 add-trace 46;
#X obj 506 190 add-trace 47;
#X obj 506 210 add-trace 48;
#X obj 506 230 add-trace 49;
#X connect 0 0 30 0;
#X connect 2 0 3 0;
#X connect 3 0 26 0;
#X connect 4 0 26 1;
#X connect 5 0 19 0;
#X connect 6 0 24 0;
#X connect 7 0 22 0;
#X connect 8 0 5 0;
#X connect 9 0 21 0;
#X connect 10 0 20 0;
#X connect 13 0 23 0;
#X connect 15 0 22 1;
#X connect 15 0 23 1;
#X connect 15 0 24 1;
#X connect 15 0 21 1;
#X connect 15 0 27 0;
#X connect 15 0 18 0;
#X connect 16 0 15 0;
#X connect 18 0 12 0;
#X connect 19 0 11 0;
#X connect 21 0 5 0;
#X connect 21 0 20 1;
#X connect 25 0 2 0;
#X connect 26 0 28 0;
#X connect 27 0 17 0;
#X connect 27 1 14 0;
#X connect 28 0 29 0;
#X connect 28 1 1 1;
#X connect 29 0 1 0;
#X connect 31 0 32 0;
#X connect 32 0 40 0;
#X connect 32 0 33 0;
#X connect 32 1 45 0;
#X connect 33 0 34 0;
#X connect 35 0 36 1;
#X connect 36 0 37 0;
#X connect 37 0 38 0;
#X connect 39 0 31 0;
#X connect 40 0 0 0;
#X connect 41 0 15 0;
#X connect 42 0 4 0;
#X connect 44 0 36 0;
#X restore 318 603 pd make-trace;
#X floatatom 94 250 0 0 0 0 location location-set location 0;
#X obj 129 409 r loop-amp;
#X obj 757 312 f;
#X obj 797 312 +;
#X msg 716 345 0;
#X msg 757 257 1;
#X msg 757 393 \; location \$1 \; snapshot bang;
#X floatatom 757 336 0 0 0 0 - - - 0;
#X obj 687 234 t b b;
#X obj 847 254 r incr;
#X obj 28 352 r grain-amp;
#X obj 151 471 r osc-amp;
#X obj 170 577 catch~ osc-sum;
#N canvas 481 122 749 645 osc-bank 0;
#X msg 151 126 0;
#X obj 475 444 pointer;
#X obj 363 223 pointer;
#X msg 292 361 next;
#X msg 280 155 1;
#X msg 321 155 0;
#X obj 363 320 <;
#X obj 151 207 until;
#X obj 362 34 r start-resynth;
#X obj 262 226 f;
#X obj 262 249 sel 0 1;
#X obj 403 312 r synth-index;
#X obj 363 348 sel 0 1;
#X obj 50 74 r step-resynth;
#X obj 151 153 f;
#X obj 151 177 s synth-index;
#X obj 192 154 + 5;
#X obj 50 107 t b b b;
#X obj 50 191 s osc-tick;
#X msg 363 155 traverse pd-trace-list \, next;
#N canvas 213 97 936 554 oscs 0;
#X obj 31 66 route 1 2 3 4 5 6 7 8 9 10;
#X obj 285 65 route 11 12 13 14 15 16 17 18 19 20;
#X obj 30 26 inlet;
#X obj 607 66 route 21 22 23 24 25 26 27 28 29 30;
#X obj 167 293 route 31 32 33 34 35 36 37 38 39 40;
#X obj 478 294 route 41 42 43 44 45 46 47 48 49 50;
#X obj 31 260 osc-voice;
#X obj 73 222 osc-voice;
#X obj 219 89 osc-voice;
#X obj 198 107 osc-voice;
#X obj 177 127 osc-voice;
#X obj 156 146 osc-voice;
#X obj 135 166 osc-voice;
#X obj 115 184 osc-voice;
#X obj 94 203 osc-voice;
#X obj 52 242 osc-voice;
#X obj 519 91 osc-voice;
#X obj 498 109 osc-voice;
#X obj 477 129 osc-voice;
#X obj 456 148 osc-voice;
#X obj 435 168 osc-voice;
#X obj 415 186 osc-voice;
#X obj 394 205 osc-voice;
#X obj 373 224 osc-voice;
#X obj 352 244 osc-voice;
#X obj 331 262 osc-voice;
#X obj 841 92 osc-voice;
#X obj 820 110 osc-voice;
#X obj 799 130 osc-voice;
#X obj 778 149 osc-voice;
#X obj 757 169 osc-voice;
#X obj 737 187 osc-voice;
#X obj 716 206 osc-voice;
#X obj 695 225 osc-voice;
#X obj 674 245 osc-voice;
#X obj 653 263 osc-voice;
#X obj 401 319 osc-voice;
#X obj 380 337 osc-voice;
#X obj 359 357 osc-voice;
#X obj 338 376 osc-voice;
#X obj 317 396 osc-voice;
#X obj 297 414 osc-voice;
#X obj 276 433 osc-voice;
#X obj 255 452 osc-voice;
#X obj 234 472 osc-voice;
#X obj 213 490 osc-voice;
#X obj 712 320 osc-voice;
#X obj 691 338 osc-voice;
#X obj 670 358 osc-voice;
#X obj 649 377 osc-voice;
#X obj 628 397 osc-voice;
#X obj 608 415 osc-voice;
#X obj 587 434 osc-voice;
#X obj 566 453 osc-voice;
#X obj 545 473 osc-voice;
#X obj 524 491 osc-voice;
#X connect 0 0 6 0;
#X connect 0 1 15 0;
#X connect 0 2 7 0;
#X connect 0 3 14 0;
#X connect 0 4 13 0;
#X connect 0 5 12 0;
#X connect 0 6 11 0;
#X connect 0 7 10 0;
#X connect 0 8 9 0;
#X connect 0 9 8 0;
#X connect 0 10 1 0;
#X connect 1 0 25 0;
#X connect 1 1 24 0;
#X connect 1 2 23 0;
#X connect 1 3 22 0;
#X connect 1 4 21 0;
#X connect 1 5 20 0;
#X connect 1 6 19 0;
#X connect 1 7 18 0;
#X connect 1 8 17 0;
#X connect 1 9 16 0;
#X connect 1 10 3 0;
#X connect 2 0 0 0;
#X connect 3 0 35 0;
#X connect 3 1 34 0;
#X connect 3 2 33 0;
#X connect 3 3 32 0;
#X connect 3 4 31 0;
#X connect 3 5 30 0;
#X connect 3 6 29 0;
#X connect 3 7 28 0;
#X connect 3 8 27 0;
#X connect 3 9 26 0;
#X connect 3 10 4 0;
#X connect 4 0 45 0;
#X connect 4 1 44 0;
#X connect 4 2 43 0;
#X connect 4 3 42 0;
#X connect 4 4 41 0;
#X connect 4 5 40 0;
#X connect 4 6 39 0;
#X connect 4 7 38 0;
#X connect 4 8 37 0;
#X connect 4 9 36 0;
#X connect 4 10 5 0;
#X connect 5 0 55 0;
#X connect 5 1 54 0;
#X connect 5 2 53 0;
#X connect 5 3 52 0;
#X connect 5 4 51 0;
#X connect 5 5 50 0;
#X connect 5 6 49 0;
#X connect 5 7 48 0;
#X connect 5 8 47 0;
#X connect 5 9 46 0;
#X restore 327 584 pd oscs;
#X obj 362 66 t b b b;
#X msg 408 94 \; pd-trace-list sort;
#X obj 280 193 tgl 15 0 empty empty empty 17 7 0 10 #fcfcfc #000000
#000000 0 1;
#X obj 363 270 get trace-template x;
#X obj 363 296 f;
#X obj 386 375 t b b b;
#X obj 327 498 poly 50;
#X obj 327 431 f;
#X obj 368 420 + 1;
#X obj 368 444 mod 1e+06;
#X obj 327 470 pack 0 1;
#X obj 327 528 pack f f f p;
#X text 245 419 make an ID;
#X text 246 433 for the;
#X text 248 448 track;
#X obj 111 414 r osc-noteoff;
#X text 108 365 voice sends us;
#X text 107 380 a note-off when;
#X text 110 392 done;
#X text 341 557 message is: voice number \, on/off \, track ID \, pointer
;
#X obj 111 441 pack 0 0;
#X obj 363 246 trigger pointer pointer;
#X connect 0 0 14 0;
#X connect 1 0 32 3;
#X connect 2 0 42 0;
#X connect 2 1 5 0;
#X connect 2 1 7 1;
#X connect 3 0 2 0;
#X connect 4 0 23 0;
#X connect 5 0 23 0;
#X connect 6 0 12 0;
#X connect 7 0 9 0;
#X connect 8 0 21 0;
#X connect 9 0 10 0;
#X connect 10 0 7 1;
#X connect 10 1 25 0;
#X connect 11 0 6 1;
#X connect 12 0 7 1;
#X connect 12 1 26 0;
#X connect 13 0 17 0;
#X connect 14 0 15 0;
#X connect 14 0 16 0;
#X connect 16 0 14 1;
#X connect 17 0 18 0;
#X connect 17 1 7 0;
#X connect 17 2 14 0;
#X connect 19 0 2 0;
#X connect 21 0 19 0;
#X connect 21 1 4 0;
#X connect 21 1 0 0;
#X connect 21 2 22 0;
#X connect 23 0 9 1;
#X connect 24 0 25 0;
#X connect 25 0 6 0;
#X connect 26 0 3 0;
#X connect 26 1 28 0;
#X connect 26 2 1 0;
#X connect 27 0 32 0;
#X connect 27 1 32 2;
#X connect 27 2 32 1;
#X connect 28 0 29 0;
#X connect 28 0 31 0;
#X connect 29 0 30 0;
#X connect 30 0 28 1;
#X connect 31 0 27 0;
#X connect 32 0 20 0;
#X connect 36 0 41 0;
#X connect 41 0 27 0;
#X connect 42 0 24 0;
#X connect 42 1 1 1;
#X restore 318 558 pd osc-bank;
#X obj 667 114 s grain-amp;
#N canvas 599 58 832 361 save-list 0;
#X floatatom 760 301 0 0 0 0 - - - 0;
#X floatatom 689 301 0 0 0 0 - - - 0;
#X floatatom 618 301 0 0 0 0 - - - 0;
#X floatatom 547 301 0 0 0 0 - - - 0;
#X obj 477 244 pointer;
#X obj 354 188 pointer;
#X msg 380 67 bang;
#X obj 171 210 rmstodb;
#X obj 49 218 * 0.1;
#X obj 171 233 * -3;
#X floatatom 476 301 0 0 0 0 - - - 0;
#X obj 354 41 r start-analysis;
#X obj 354 98 t b b;
#X msg 493 220 next;
#X obj 476 275 get peak-template x y amp ampreal ampimag;
#X obj 49 258 append peak-template x y amp ampreal ampimag;
#X obj 151 134 r found-peak;
#X msg 110 218 330;
#X msg 406 103 \; pd-peak-list clear;
#X msg 354 147 traverse pd-peak-list \, bang;
#X msg 477 193 traverse pd-peak-list \, next;
#X obj 151 158 unpack f f f f f;
#X connect 4 0 14 0;
#X connect 5 0 15 5;
#X connect 6 0 12 0;
#X connect 7 0 9 0;
#X connect 8 0 15 0;
#X connect 9 0 15 2;
#X connect 11 0 12 0;
#X connect 12 0 19 0;
#X connect 12 1 18 0;
#X connect 13 0 4 0;
#X connect 14 0 10 0;
#X connect 14 1 3 0;
#X connect 14 2 2 0;
#X connect 14 3 1 0;
#X connect 14 4 0 0;
#X connect 16 0 21 0;
#X connect 17 0 15 1;
#X connect 19 0 5 0;
#X connect 20 0 4 0;
#X connect 21 1 8 0;
#X connect 21 2 17 0;
#X connect 21 2 7 0;
#X connect 21 3 15 3;
#X connect 21 4 15 4;
#X restore 318 581 pd save-list;
#X msg 159 349 \; start-resynth bang;
#X msg 321 369 \; step-resynth bang;
#X msg 481 369 \; osc-stop bang;
#X text 792 137 resynth;
#X text 663 137 analyzed grains;
#X text 564 137 original;
#X text 632 171 ... and here third to analyze;
#N canvas 189 52 524 498 test-signal 0;
#X obj 196 314 tabread4~ sample;
#X obj 196 289 line~;
#X obj 131 196 f;
#X obj 339 76 r insamprate;
#X obj 196 371 *~;
#X obj 232 372 dbtorms;
#X obj 232 349 inlet;
#X obj 196 436 outlet~;
#X obj 217 67 r insamplength;
#X msg 196 263 0 \, \$1 \$2;
#X obj 196 237 pack 0 0;
#X obj 249 200 /;
#X obj 385 140 * 0.001;
#X obj 196 409 hip~ 5;
#X obj 51 35 loadbang;
#X text 323 43 sample playback;
#X msg 51 80 1;
#X obj 51 144 metro 1000;
#X floatatom 51 113 0 0 0 0 - - - 0;
#X obj 339 105 t b b f;
#X obj 217 124 t b f;
#X connect 0 0 4 0;
#X connect 1 0 0 0;
#X connect 2 0 10 0;
#X connect 3 0 19 0;
#X connect 4 0 13 0;
#X connect 5 0 4 1;
#X connect 6 0 5 0;
#X connect 8 0 20 0;
#X connect 9 0 1 0;
#X connect 10 0 9 0;
#X connect 11 0 10 1;
#X connect 11 0 17 1;
#X connect 12 0 11 1;
#X connect 13 0 7 0;
#X connect 14 0 16 0;
#X connect 16 0 18 0;
#X connect 17 0 2 0;
#X connect 18 0 17 0;
#X connect 19 0 16 0;
#X connect 19 1 11 0;
#X connect 19 2 12 0;
#X connect 20 0 16 0;
#X connect 20 1 11 0;
#X connect 20 1 2 1;
#X restore 129 437 pd test-signal;
#N canvas 916 312 753 332 insample 0;
#N canvas 0 50 450 300 (subpatch) 0;
#X array sample 62079 float 0;
#X coords 0 1 62078 -1 400 150 1;
#X restore 327 31 graph;
#X obj 13 10 r read-sample;
#X obj 13 36 unpack s f;
#X obj 80 61 s insamprate;
#X obj 13 111 soundfiler;
#X msg 13 87 read -resize \$1 sample;
#X obj 13 137 s insamplength;
#X obj 13 198 t f b;
#X obj 61 201 samplerate~;
#X obj 13 224 /;
#X obj 63 233 r incr;
#X obj 13 249 *;
#X obj 63 258 expr 10000/$f1;
#X obj 180 123 r resize-sample;
#X obj 180 148 t f b;
#X obj 228 149 samplerate~;
#X obj 228 174 / 1000;
#X obj 180 173 *;
#X obj 13 172 r insamplength;
#X msg 181 229 \; sample resize \$1 \; insamplength \$1;
#X floatatom 191 201 6 0 0 0 - - - 0;
#X msg 370 213 \; resize-sample 2000;
#X obj 13 274 + 60;
#X obj 13 299 s sample-msec;
#X connect 1 0 2 0;
#X connect 2 0 5 0;
#X connect 2 1 3 0;
#X connect 4 0 6 0;
#X connect 5 0 4 0;
#X connect 7 0 9 0;
#X connect 7 1 8 0;
#X connect 8 0 9 1;
#X connect 9 0 11 0;
#X connect 10 0 12 0;
#X connect 11 0 22 0;
#X connect 12 0 11 1;
#X connect 13 0 14 0;
#X connect 14 0 17 0;
#X connect 14 1 15 0;
#X connect 15 0 16 0;
#X connect 16 0 17 1;
#X connect 17 0 20 0;
#X connect 17 0 19 0;
#X connect 18 0 7 0;
#X connect 22 0 23 0;
#X restore 318 478 pd insample;
#X obj 683 610 tabwrite~ sample;
#X text 172 14 SINUSOID TRACKING;
#X obj 321 320 tgl 15 0 empty empty empty 0 -6 0 8 #fcfcfc #000000
#000000 0 1;
#N canvas 143 192 727 433 sigmund 0;
#X obj 222 244 spigot;
#X obj 203 99 f;
#X obj 203 133 pack;
#X obj 251 68 r window-size;
#X obj 359 45 r location;
#X obj 359 84 *;
#X obj 398 73 r sample-rate;
#X obj 398 98 * 0.001;
#X obj 180 36 r snapshot;
#X obj 261 220 tgl 15 0 empty empty empty 0 -6 0 8 #fcfcfc #000000
#000000 0 1;
#X obj 64 336 s done-analysis;
#X obj 394 336 s start-analysis;
#X obj 203 336 s found-peak;
#X obj 64 308 spigot;
#X obj 203 311 spigot;
#X obj 394 310 spigot;
#X obj 433 283 tgl 15 0 empty empty empty 0 -6 0 8 #fcfcfc #000000
#000000 0 1;
#X obj 180 69 t b b b;
#X msg 203 161 list sample \$1 \$2 44100 0;
#X obj 433 215 loadbang;
#X msg 433 239 1;
#X obj 307 311 spigot;
#X obj 307 336 s track-out;
#X obj 613 232 spigot;
#X obj 652 206 tgl 15 0 empty empty empty 0 -6 0 8 #fcfcfc #000000
#000000 0 1;
#X obj 613 261 print t;
#X obj 222 270 print p;
#X obj 203 191 sigmund~ -t -npts 1024 -npeak 40 -maxfreq 8000 peaks
tracks;
#X floatatom 90 80 5 1 50 0 - - - 0;
#X msg 90 103 npeak \$1;
#X obj 90 54 r nvoice;
#X connect 0 0 26 0;
#X connect 1 0 2 0;
#X connect 2 0 18 0;
#X connect 3 0 1 1;
#X connect 4 0 5 0;
#X connect 5 0 2 1;
#X connect 6 0 7 0;
#X connect 7 0 5 1;
#X connect 8 0 17 0;
#X connect 9 0 0 1;
#X connect 13 0 10 0;
#X connect 14 0 12 0;
#X connect 15 0 11 0;
#X connect 16 0 15 1;
#X connect 16 0 14 1;
#X connect 16 0 13 1;
#X connect 16 0 21 1;
#X connect 17 0 13 0;
#X connect 17 1 1 0;
#X connect 17 2 15 0;
#X connect 18 0 27 0;
#X connect 19 0 20 0;
#X connect 20 0 16 0;
#X connect 21 0 22 0;
#X connect 23 0 25 0;
#X connect 24 0 23 1;
#X connect 27 0 0 0;
#X connect 27 0 14 0;
#X connect 27 1 21 0;
#X connect 27 1 23 0;
#X connect 28 0 29 0;
#X connect 29 0 27 0;
#X connect 30 0 28 0;
#X restore 318 536 pd sigmund;
#X obj 757 363 moses 1350;
#X text 174 252 to resynthesize \, "start" once and "step" ad lib.
To stop \, stop stepping and hit osc-stop. Note resynth amplitude control
above., f 64;
#X msg 45 157 \; pd dsp 1 \; window-size 2048 \; sample-rate 44100
\; incr 10;
#X obj 757 283 metro 50;
#X obj 321 340 metro 10;
#N canvas 465 106 743 403 misc 0;
#X floatatom 51 190 0 0 0 0 - - - 0;
#X obj 51 216 s loud;
#X msg 40 133 \; clear-all bang;
#X msg 40 91 \; snapshot bang;
#X obj 183 65 osc~ 110;
#X obj 241 140 line~;
#X obj 183 117 *~;
#X obj 183 155 +~ 0.2;
#X obj 183 183 cos~;
#X obj 385 184 line~;
#X obj 183 216 *~;
#X obj 183 278 tabwrite~ sample;
#X obj 376 36 bng 15 250 50 0 empty empty empty 17 7 0 10 #fcfcfc #000000
#000000;
#X msg 241 110 0 \, 2 500;
#X msg 385 142 0 \, 1 100;
#X obj 459 97 del 500;
#X msg 310 142 0.05 500;
#X msg 459 142 0 2000;
#X obj 563 120 r location;
#X msg 563 145 set \$1;
#X obj 563 170 s location-set;
#X msg 563 230 set \$1;
#X obj 563 205 r osc-speed;
#X obj 563 255 s osc-speed-set;
#X msg 563 315 set \$1;
#X obj 563 290 r nvoice;
#X obj 563 344 s nvoice-set;
#X obj 563 32 loadbang;
#X msg 563 57 \; osc-speed 10 \; nvoice 25;
#X connect 0 0 1 0;
#X connect 4 0 6 0;
#X connect 5 0 6 1;
#X connect 6 0 7 0;
#X connect 7 0 8 0;
#X connect 8 0 10 0;
#X connect 9 0 10 1;
#X connect 10 0 11 0;
#X connect 12 0 13 0;
#X connect 12 0 11 0;
#X connect 12 0 14 0;
#X connect 12 0 15 0;
#X connect 13 0 5 0;
#X connect 14 0 9 0;
#X connect 15 0 17 0;
#X connect 15 0 16 0;
#X connect 16 0 5 0;
#X connect 17 0 9 0;
#X connect 18 0 19 0;
#X connect 19 0 20 0;
#X connect 21 0 23 0;
#X connect 22 0 21 0;
#X connect 24 0 26 0;
#X connect 25 0 24 0;
#X connect 27 0 28 0;
#X restore 318 499 pd misc;
#X floatatom 432 310 0 0 0 0 osc-speed osc-speed-set osc-speed 0;
#X floatatom 95 275 0 1 50 0 nvoice nvoice-set nvoice 0;
#X obj 395 340 r osc-speed;
#X text 44 307 analysis;
#X text 46 322 parameters;
#X text 33 38 This patch derives sinusoidal "tracks" from a sampled
sound using sigmund~ and the data structure facilities. The number
of tracks may range from 1 to 50 You can edit the tracks (but note
that the resynthesizer is limited to 50-voice polyphony.);
#X obj 687 199 bng 25 250 50 0 empty empty empty 17 7 0 10 #fcfcfc
#000000 #000000;
#X msg 629 393 \; location 0 \; clear-all bang;
#N canvas 204 89 750 450 grain 0;
#X floatatom 244 224 0 0 0 0 - - - 0;
#X obj 479 141 r sample-rate;
#X obj 479 171 t b f;
#X obj 244 199 r window-size;
#X obj 265 44 r sample-rate;
#X obj 239 16 r window-size;
#X obj 265 74 t b f;
#X obj 239 99 /;
#X obj 170 107 bang~;
#X obj 170 205 line~;
#X obj 239 130 * 1000;
#X text 299 130 window size (msec);
#X obj 454 111 r location;
#X obj 454 196 *;
#X obj 454 219 * 0.001;
#X text 523 219 location (samples);
#X obj 170 153 f;
#X msg 170 180 0 \, 1 \$1;
#X obj 114 251 *~;
#X obj 114 284 -~;
#X obj 114 343 *~;
#X obj 114 370 outlet~;
#X floatatom 454 243 0 0 0 0 - - - 0;
#X obj 483 54 block~ 2048 1;
#X obj 170 300 tabread4~ sample;
#X obj 170 241 *~ 0;
#X obj 170 272 +~ 0;
#X connect 1 0 2 0;
#X connect 2 0 13 0;
#X connect 2 1 13 1;
#X connect 3 0 0 0;
#X connect 3 0 25 1;
#X connect 4 0 6 0;
#X connect 5 0 7 0;
#X connect 6 0 7 0;
#X connect 6 1 7 1;
#X connect 7 0 10 0;
#X connect 8 0 16 0;
#X connect 9 0 18 0;
#X connect 9 0 18 1;
#X connect 9 0 19 1;
#X connect 9 0 25 0;
#X connect 10 0 16 1;
#X connect 12 0 13 0;
#X connect 13 0 14 0;
#X connect 14 0 22 0;
#X connect 14 0 26 1;
#X connect 16 0 17 0;
#X connect 17 0 9 0;
#X connect 18 0 19 0;
#X connect 19 0 20 0;
#X connect 20 0 21 0;
#X connect 24 0 20 1;
#X connect 25 0 26 0;
#X connect 26 0 24 0;
#X restore 46 456 pd grain;
#X floatatom 844 336 5 0 0 0 - - - 0;
#X obj 683 513 bng 15 250 50 0 empty empty empty 17 7 0 10 #fcfcfc
#000000 #000000;
#X text 703 512 live 3" sample;
#X msg 698 541 \; resize-sample 3000;
#X obj 539 558 bng 15 250 50 0 empty empty empty 17 7 0 10 #fcfcfc
#000000 #000000;
#X obj 539 578 openpanel;
#X obj 539 603 s read-sample;
#X text 532 520 browse for soundfile, f 10;
#X text 602 29 AMPLITUDES \, dB \, 100-based;
#X text 230 110 Then read a sample (or record below right);
#X msg 224 132 \; read-sample ../sound/voice.wav 44100;
#X msg 224 170 \; read-sample ../sound/voice2.wav 44100;
#X msg 224 207 \; read-sample ../sound/bell.aiff 44100;
#X obj 844 311 r sample-msec;
#N canvas 516 98 256 189 set 0;
#X obj 99 119 outlet;
#X msg 99 88 set \$1;
#X obj 99 55 r loop-amp;
#X connect 1 0 0 0;
#X connect 2 0 1 0;
#X restore 565 58 pd set;
#N canvas 516 98 254 149 set 0;
#X obj 87 92 outlet;
#X msg 87 65 set \$1;
#X obj 87 38 r grain-amp;
#X connect 1 0 0 0;
#X connect 2 0 1 0;
#X restore 667 59 pd set;
#N canvas 516 98 253 173 set 0;
#X obj 101 107 outlet;
#X msg 101 76 set \$1;
#X obj 101 42 r osc-amp;
#X connect 1 0 0 0;
#X connect 2 0 1 0;
#X restore 797 60 pd set;
#X connect 0 0 1 0;
#X connect 2 0 3 0;
#X connect 3 0 5 0;
#X connect 4 0 2 0;
#X connect 5 0 21 0;
#X connect 6 0 60 1;
#X connect 7 0 30 1;
#X connect 8 0 31 1;
#X connect 9 0 42 0;
#X connect 15 0 16 0;
#X connect 16 0 20 0;
#X connect 17 0 15 0;
#X connect 18 0 24 0;
#X connect 20 0 21 0;
#X connect 21 0 22 0;
#X connect 21 0 22 1;
#X connect 23 0 53 0;
#X connect 25 0 19 0;
#X connect 29 0 51 0;
#X connect 30 0 31 0;
#X connect 30 0 35 0;
#X connect 31 0 30 1;
#X connect 32 0 60 0;
#X connect 33 0 60 0;
#X connect 35 0 57 0;
#X connect 36 0 33 0;
#X connect 36 1 7 0;
#X connect 36 1 70 0;
#X connect 37 0 8 0;
#X connect 38 0 17 0;
#X connect 39 0 4 0;
#X connect 40 0 5 1;
#X connect 51 0 21 0;
#X connect 55 0 61 0;
#X connect 57 0 34 0;
#X connect 57 1 32 0;
#X connect 60 0 30 0;
#X connect 61 0 45 0;
#X connect 65 0 61 1;
#X connect 69 0 36 0;
#X connect 71 0 20 1;
#X connect 72 0 57 1;
#X connect 73 0 53 0;
#X connect 73 0 75 0;
#X connect 76 0 77 0;
#X connect 77 0 78 0;
#X connect 85 0 72 0;
#X connect 86 0 18 0;
#X connect 87 0 9 0;
#X connect 88 0 0 0;
