#N canvas 358 23 954 715 12;
#X floatatom 797 86 0 0 100 0 - - - 0;
#X obj 797 114 s osc-amp;
#X obj 208 593 line~;
#X obj 207 542 dbtorms;
#X obj 155 537 *~;
#X floatatom 810 257 0 0 0 0 - - - 0;
#X msg 718 274 0;
#X floatatom 847 278 0 0 0 0 - - - 0;
#X floatatom 667 86 0 0 110 0 - - - 0;
#N canvas 395 221 527 185 peak-template 0;
#X obj 65 83 filledpolygon 3 3 3 0 0 0 amp 0 0;
#X obj 58 41 struct peak-template float x float y float amp float ampreal
float ampimag float used;
#X restore 318 635 pd peak-template;
#N canvas 47 108 600 416 peak-list 0;
#X restore 318 507 pd peak-list;
#N canvas 72 99 800 609 trace-list 1;
#X coords 0 152.25 1 152 0 0 0;
#X restore 318 486 pd trace-list;
#N canvas 375 90 563 188 trace-template 0;
#X text 65 101 This template describes a pitch/amplitude trace. The
array "bazoo" holds the actual points. In this template \, y is always
0 and x is the starting location in pixels. There are 5 pixels per
point.;
#X obj 84 26 struct trace-template float x float y float voiceno array
bazoo point-template;
#X obj 88 68 plot bazoo 0 1 0 0 5;
#X restore 318 656 pd trace-template;
#N canvas 311 238 528 190 point-template 0;
#X text 64 65 This template describes a single point on a pitch trace
(cf. trace-template w describes the trace itself.);
#X text 64 98 "y" is the field that is shown on the graph \; it's -
4 * pitch. You also get an "amp" field in dB \, which you can't see
as a plot (yet).;
#X obj 149 23 struct point-template float y float amp;
#X restore 318 677 pd point-template;
#X obj 51 438 pack 0 100;
#X obj 51 463 line~;
#X obj 51 415 dbtorms;
#X floatatom 565 86 0 0 110 0 - - - 0;
#N canvas 193 52 731 459 output 0;
#X obj 268 118 t b f;
#X obj 259 142 +;
#X obj 520 284 f;
#X obj 538 242 f;
#X obj 362 315 f;
#X obj 89 246 t b;
#X obj 89 194 f;
#X obj 89 72 inlet;
#X text 96 51 mute;
#X obj 89 318 f;
#X msg 241 230 0;
#X msg 89 103 bang;
#X obj 89 222 moses 1;
#X obj 237 86 t b f;
#X obj 228 110 +;
#X obj 210 46 r loop-amp;
#X obj 401 43 r osc-amp;
#X obj 89 353 s loop-amp;
#X obj 362 340 s osc-amp;
#X obj 192 225 f;
#X obj 380 245 f;
#X obj 241 180 t b b;
#X obj 555 42 r grain-amp;
#X obj 520 312 s grain-amp;
#X connect 0 0 1 0;
#X connect 0 1 1 1;
#X connect 1 0 6 1;
#X connect 2 0 23 0;
#X connect 3 0 2 1;
#X connect 4 0 18 0;
#X connect 5 0 9 0;
#X connect 5 0 4 0;
#X connect 5 0 2 0;
#X connect 6 0 12 0;
#X connect 7 0 11 0;
#X connect 9 0 17 0;
#X connect 10 0 17 0;
#X connect 10 0 18 0;
#X connect 10 0 23 0;
#X connect 11 0 6 0;
#X connect 12 0 5 0;
#X connect 12 1 21 0;
#X connect 13 0 14 0;
#X connect 13 1 14 1;
#X connect 14 0 1 0;
#X connect 15 0 14 0;
#X connect 15 0 19 1;
#X connect 16 0 13 0;
#X connect 16 0 20 1;
#X connect 19 0 9 1;
#X connect 20 0 4 1;
#X connect 21 0 10 0;
#X connect 21 1 19 0;
#X connect 21 1 20 0;
#X connect 21 1 3 0;
#X connect 22 0 3 1;
#X connect 22 0 0 0;
#X restore 863 86 pd output;
#X obj 33 495 *~;
#X obj 33 618 hip~ 5;
#X obj 33 656 dac~;
#X obj 696 582 adc~;
#X obj 565 114 s loop-amp;
#X msg 863 56 mute;
#X text 54 139 click here first;
#N canvas 208 32 1112 651 make-trace 0;
#X obj 227 170 pointer;
#X obj 721 491 setsize trace-template bazoo;
#X obj 721 366 random 200;
#X obj 721 392 + 100;
#X obj 879 389 pointer;
#X obj 179 390 pointer;
#X floatatom 219 514 0 0 0 0 - - - 0;
#X floatatom 114 450 0 0 0 0 - - - 0;
#X msg 179 356 bang;
#X floatatom 156 302 0 0 0 0 - - - 0;
#X floatatom 19 354 0 0 0 0 - - - 0;
#X floatatom 179 446 0 0 0 0 - - - 0;
#X floatatom 466 510 0 0 0 0 - - - 0;
#X floatatom 286 577 0 0 0 0 - - - 0;
#X floatatom 618 415 0 0 0 0 - - - 0;
#X obj 409 327 pointer;
#X msg 428 300 next;
#X floatatom 467 414 0 0 0 0 - - - 0;
#X obj 466 476 getsize trace-template bazoo;
#X obj 179 419 get point-template y;
#X obj 19 378 set point-template y;
#X obj 156 328 element trace-template bazoo;
#X obj 114 480 setsize trace-template bazoo;
#X obj 286 602 set trace-template x;
#X obj 219 540 set trace-template y;
#X msg 721 341 bang;
#X obj 721 416 append trace-template x;
#X obj 467 390 get trace-template x y;
#X obj 721 443 t b p;
#X msg 721 468 5;
#X obj 227 197 s last-in-list;
#X msg 227 72 bang;
#X obj 227 95 t b b;
#X obj 157 171 f 0;
#X obj 157 198 s nframe;
#X obj 513 117 r nframe;
#X obj 496 140 f;
#X obj 496 164 + 1;
#X obj 496 186 s nframe;
#X obj 227 48 r clear-all;
#X msg 227 146 traverse pd-trace-list \, bang;
#X msg 409 274 traverse pd-trace-list \, next;
#X msg 879 364 traverse pd-trace-list \, bang;
#X obj 496 84 r done-analysis;
#X msg 288 82 \; pd-trace-list clear \; add-trace-clear bang;
#X connect 0 0 30 0;
#X connect 2 0 3 0;
#X connect 3 0 26 0;
#X connect 4 0 26 1;
#X connect 5 0 19 0;
#X connect 6 0 24 0;
#X connect 7 0 22 0;
#X connect 8 0 5 0;
#X connect 9 0 21 0;
#X connect 10 0 20 0;
#X connect 13 0 23 0;
#X connect 15 0 22 1;
#X connect 15 0 23 1;
#X connect 15 0 24 1;
#X connect 15 0 21 1;
#X connect 15 0 27 0;
#X connect 15 0 18 0;
#X connect 16 0 15 0;
#X connect 18 0 12 0;
#X connect 19 0 11 0;
#X connect 21 0 5 0;
#X connect 21 0 20 1;
#X connect 25 0 2 0;
#X connect 26 0 28 0;
#X connect 27 0 17 0;
#X connect 27 1 14 0;
#X connect 28 0 29 0;
#X connect 28 1 1 1;
#X connect 29 0 1 0;
#X connect 31 0 32 0;
#X connect 32 0 40 0;
#X connect 32 0 33 0;
#X connect 32 1 44 0;
#X connect 33 0 34 0;
#X connect 35 0 36 1;
#X connect 36 0 37 0;
#X connect 37 0 38 0;
#X connect 39 0 31 0;
#X connect 40 0 0 0;
#X connect 41 0 15 0;
#X connect 42 0 4 0;
#X connect 43 0 36 0;
#X restore 318 607 pd make-trace;
#X floatatom 81 254 6 0 0 0 location location-set location 0;
#X obj 149 410 r loop-amp;
#X obj 757 312 f;
#X obj 797 312 +;
#X msg 721 345 0;
#X msg 757 257 1;
#X msg 757 393 \; location \$1 \; snapshot bang;
#X floatatom 757 336 0 0 0 0 - - - 0;
#X obj 687 234 t b b;
#X obj 847 254 r incr;
#X obj 51 389 r grain-amp;
#X obj 207 517 r osc-amp;
#N canvas 486 61 753 666 osc-bank 0;
#X msg 151 126 0;
#X obj 475 444 pointer;
#X obj 363 223 pointer;
#X msg 292 361 next;
#X msg 280 155 1;
#X msg 321 155 0;
#X obj 363 320 <;
#X obj 151 207 until;
#X obj 362 34 r start-resynth;
#X obj 262 226 f;
#X obj 262 249 sel 0 1;
#X obj 403 312 r synth-index;
#X obj 363 348 sel 0 1;
#X obj 50 74 r step-resynth;
#X obj 151 153 f;
#X obj 151 177 s synth-index;
#X obj 192 154 + 5;
#X obj 50 107 t b b b;
#X obj 50 191 s osc-tick;
#X msg 363 155 traverse pd-trace-list \, next;
#X obj 362 66 t b b b;
#X msg 408 94 \; pd-trace-list sort;
#X obj 280 193 tgl 15 0 empty empty empty 17 7 0 10 #fcfcfc #000000
#000000 0 1;
#X obj 363 270 get trace-template x;
#X obj 363 296 f;
#X obj 386 375 t b b b;
#X obj 327 498 poly 50;
#X obj 327 431 f;
#X obj 368 420 + 1;
#X obj 368 444 mod 1e+06;
#X obj 327 528 pack f f f p;
#X text 245 419 make an ID;
#X text 246 433 for the;
#X text 248 448 track;
#X obj 111 414 r osc-noteoff;
#X text 108 365 voice sends us;
#X text 107 380 a note-off when;
#X text 110 392 done;
#X text 341 557 message is: voice number \, on/off \, track ID \, pointer
;
#X obj 363 246 trigger pointer pointer;
#X obj 327 615 outlet~;
#X obj 111 441 pack f f;
#X obj 327 470 pack f 1;
#X obj 327 584 clone -s 1 50 osc-voice;
#X connect 0 0 14 0;
#X connect 1 0 30 3;
#X connect 2 0 39 0;
#X connect 2 1 5 0;
#X connect 2 1 7 1;
#X connect 3 0 2 0;
#X connect 4 0 22 0;
#X connect 5 0 22 0;
#X connect 6 0 12 0;
#X connect 7 0 9 0;
#X connect 8 0 20 0;
#X connect 9 0 10 0;
#X connect 10 0 7 1;
#X connect 10 1 24 0;
#X connect 11 0 6 1;
#X connect 12 0 7 1;
#X connect 12 1 25 0;
#X connect 13 0 17 0;
#X connect 14 0 15 0;
#X connect 14 0 16 0;
#X connect 16 0 14 1;
#X connect 17 0 18 0;
#X connect 17 1 7 0;
#X connect 17 2 14 0;
#X connect 19 0 2 0;
#X connect 20 0 19 0;
#X connect 20 1 4 0;
#X connect 20 1 0 0;
#X connect 20 2 21 0;
#X connect 22 0 9 1;
#X connect 23 0 24 0;
#X connect 24 0 6 0;
#X connect 25 0 3 0;
#X connect 25 1 27 0;
#X connect 25 2 1 0;
#X connect 26 0 30 0;
#X connect 26 1 30 2;
#X connect 26 2 30 1;
#X connect 27 0 28 0;
#X connect 27 0 42 0;
#X connect 28 0 29 0;
#X connect 29 0 27 1;
#X connect 30 0 43 0;
#X connect 34 0 41 0;
#X connect 39 0 23 0;
#X connect 39 1 1 1;
#X connect 41 0 26 0;
#X connect 42 0 26 0;
#X connect 43 0 40 0;
#X restore 155 483 pd osc-bank;
#X obj 667 114 s grain-amp;
#N canvas 599 58 832 361 save-list 0;
#X floatatom 760 301 0 0 0 0 - - - 0;
#X floatatom 689 301 0 0 0 0 - - - 0;
#X floatatom 618 301 0 0 0 0 - - - 0;
#X floatatom 547 301 0 0 0 0 - - - 0;
#X obj 477 244 pointer;
#X obj 354 188 pointer;
#X msg 380 67 bang;
#X obj 171 210 rmstodb;
#X obj 49 218 * 0.1;
#X obj 171 233 * -3;
#X floatatom 476 301 0 0 0 0 - - - 0;
#X obj 354 41 r start-analysis;
#X obj 354 98 t b b;
#X msg 493 220 next;
#X obj 476 275 get peak-template x y amp ampreal ampimag;
#X obj 49 258 append peak-template x y amp ampreal ampimag;
#X obj 151 134 r found-peak;
#X msg 110 218 330;
#X msg 406 103 \; pd-peak-list clear;
#X msg 354 147 traverse pd-peak-list \, bang;
#X msg 477 193 traverse pd-peak-list \, next;
#X obj 151 158 unpack f f f f f;
#X connect 4 0 14 0;
#X connect 5 0 15 5;
#X connect 6 0 12 0;
#X connect 7 0 9 0;
#X connect 8 0 15 0;
#X connect 9 0 15 2;
#X connect 11 0 12 0;
#X connect 12 0 19 0;
#X connect 12 1 18 0;
#X connect 13 0 4 0;
#X connect 14 0 10 0;
#X connect 14 1 3 0;
#X connect 14 2 2 0;
#X connect 14 3 1 0;
#X connect 14 4 0 0;
#X connect 16 0 21 0;
#X connect 17 0 15 1;
#X connect 19 0 5 0;
#X connect 20 0 4 0;
#X connect 21 1 8 0;
#X connect 21 2 17 0;
#X connect 21 2 7 0;
#X connect 21 3 15 3;
#X connect 21 4 15 4;
#X restore 318 585 pd save-list;
#X msg 146 342 \; start-resynth bang;
#X msg 321 369 \; step-resynth bang;
#X msg 481 369 \; osc-stop bang;
#X text 792 137 resynth;
#X text 663 137 analyzed grains;
#X text 564 137 original;
#X text 632 171 ... and here third to analyze;
#N canvas 189 52 524 498 test-signal 0;
#X obj 196 314 tabread4~ sample;
#X obj 196 289 line~;
#X obj 131 196 f;
#X obj 339 76 r insamprate;
#X obj 196 371 *~;
#X obj 232 372 dbtorms;
#X obj 232 349 inlet;
#X obj 196 436 outlet~;
#X obj 217 67 r insamplength;
#X msg 196 263 0 \, \$1 \$2;
#X obj 196 237 pack 0 0;
#X obj 249 200 /;
#X obj 385 140 * 0.001;
#X obj 196 409 hip~ 5;
#X obj 51 35 loadbang;
#X text 323 43 sample playback;
#X msg 51 80 1;
#X obj 51 144 metro 1000;
#X floatatom 51 113 0 0 0 0 - - - 0;
#X obj 339 105 t b b f;
#X obj 217 124 t b f;
#X connect 0 0 4 0;
#X connect 1 0 0 0;
#X connect 2 0 10 0;
#X connect 3 0 19 0;
#X connect 4 0 13 0;
#X connect 5 0 4 1;
#X connect 6 0 5 0;
#X connect 8 0 20 0;
#X connect 9 0 1 0;
#X connect 10 0 9 0;
#X connect 11 0 10 1;
#X connect 11 0 17 1;
#X connect 12 0 11 1;
#X connect 13 0 7 0;
#X connect 14 0 16 0;
#X connect 16 0 18 0;
#X connect 17 0 2 0;
#X connect 18 0 17 0;
#X connect 19 0 16 0;
#X connect 19 1 11 0;
#X connect 19 2 12 0;
#X connect 20 0 16 0;
#X connect 20 1 11 0;
#X connect 20 1 2 1;
#X restore 149 438 pd test-signal;
#N canvas 613 312 753 332 insample 0;
#N canvas 0 50 450 300 (subpatch) 0;
#X array sample 62079 float 0;
#X coords 0 1 62078 -1 400 150 1;
#X restore 327 31 graph;
#X obj 13 10 r read-sample;
#X obj 13 36 unpack s f;
#X obj 80 61 s insamprate;
#X obj 13 111 soundfiler;
#X msg 13 87 read -resize \$1 sample;
#X obj 13 137 s insamplength;
#X obj 13 198 t f b;
#X obj 61 201 samplerate~;
#X obj 13 224 /;
#X obj 63 233 r incr;
#X obj 13 249 *;
#X obj 63 258 expr 10000/$f1;
#X obj 180 123 r resize-sample;
#X obj 180 148 t f b;
#X obj 228 149 samplerate~;
#X obj 228 174 / 1000;
#X obj 180 173 *;
#X obj 13 172 r insamplength;
#X msg 181 229 \; sample resize \$1 \; insamplength \$1;
#X floatatom 191 201 6 0 0 0 - - - 0;
#X msg 370 213 \; resize-sample 2000;
#X obj 13 274 + 60;
#X obj 13 299 s sample-msec;
#X connect 1 0 2 0;
#X connect 2 0 5 0;
#X connect 2 1 3 0;
#X connect 4 0 6 0;
#X connect 5 0 4 0;
#X connect 7 0 9 0;
#X connect 7 1 8 0;
#X connect 8 0 9 1;
#X connect 9 0 11 0;
#X connect 10 0 12 0;
#X connect 11 0 22 0;
#X connect 12 0 11 1;
#X connect 13 0 14 0;
#X connect 14 0 17 0;
#X connect 14 1 15 0;
#X connect 15 0 16 0;
#X connect 16 0 17 1;
#X connect 17 0 20 0;
#X connect 17 0 19 0;
#X connect 18 0 7 0;
#X connect 22 0 23 0;
#X restore 318 528 pd insample;
#X obj 683 610 tabwrite~ sample;
#X text 172 14 SINUSOID TRACKING;
#X obj 321 320 tgl 17 0 empty empty empty 0 -6 0 8 #dfdfdf #000000
#000000 0 1;
#N canvas 143 192 727 433 sigmund 0;
#X obj 222 244 spigot;
#X obj 203 99 f;
#X obj 203 133 pack;
#X obj 251 68 r window-size;
#X obj 359 45 r location;
#X obj 359 84 *;
#X obj 398 73 r sample-rate;
#X obj 398 98 * 0.001;
#X obj 180 36 r snapshot;
#X obj 261 220 tgl 15 0 empty empty empty 0 -6 0 8 #fcfcfc #000000
#000000 0 1;
#X obj 64 336 s done-analysis;
#X obj 394 336 s start-analysis;
#X obj 203 336 s found-peak;
#X obj 64 308 spigot;
#X obj 203 311 spigot;
#X obj 394 310 spigot;
#X obj 433 283 tgl 15 0 empty empty empty 0 -6 0 8 #fcfcfc #000000
#000000 0 1;
#X obj 180 69 t b b b;
#X msg 203 161 list sample \$1 \$2 44100 0;
#X obj 433 235 loadbang;
#X msg 433 259 1;
#X obj 527 311 spigot;
#X obj 613 232 spigot;
#X obj 652 206 tgl 15 0 empty empty empty 0 -6 0 8 #fcfcfc #000000
#000000 0 1;
#X obj 613 261 print t;
#X obj 222 270 print p;
#X obj 203 191 sigmund~ -t -npts 1024 -npeak 40 -maxfreq 8000 peaks
tracks;
#X floatatom 90 80 5 1 50 0 - - - 0;
#X msg 90 103 npeak \$1;
#X obj 90 54 r nvoice;
#X obj 527 380 outlet;
#X connect 0 0 25 0;
#X connect 1 0 2 0;
#X connect 2 0 18 0;
#X connect 3 0 1 1;
#X connect 4 0 5 0;
#X connect 5 0 2 1;
#X connect 6 0 7 0;
#X connect 7 0 5 1;
#X connect 8 0 17 0;
#X connect 9 0 0 1;
#X connect 13 0 10 0;
#X connect 14 0 12 0;
#X connect 15 0 11 0;
#X connect 16 0 15 1;
#X connect 16 0 14 1;
#X connect 16 0 13 1;
#X connect 16 0 21 1;
#X connect 17 0 13 0;
#X connect 17 1 1 0;
#X connect 17 2 15 0;
#X connect 18 0 26 0;
#X connect 19 0 20 0;
#X connect 20 0 16 0;
#X connect 21 0 30 0;
#X connect 22 0 24 0;
#X connect 23 0 22 1;
#X connect 26 0 0 0;
#X connect 26 0 14 0;
#X connect 26 1 21 0;
#X connect 26 1 22 0;
#X connect 27 0 28 0;
#X connect 28 0 26 0;
#X connect 29 0 27 0;
#X restore 318 427 pd sigmund;
#X obj 757 363 moses 1350;
#X text 144 257 to resynthesize \, "start" once and "step" ad lib.
To stop \, stop stepping and hit osc-stop. Note resynth amplitude control
above., f 64;
#X msg 45 163 \; pd dsp 1 \; window-size 2048 \; sample-rate 44100
\; incr 10;
#X obj 757 283 metro 50;
#X obj 321 344 metro 10;
#N canvas 465 106 743 403 misc 0;
#X floatatom 51 190 0 0 0 0 - - - 0;
#X obj 51 216 s loud;
#X msg 40 133 \; clear-all bang;
#X msg 40 91 \; snapshot bang;
#X obj 183 65 osc~ 110;
#X obj 241 140 line~;
#X obj 183 117 *~;
#X obj 183 155 +~ 0.2;
#X obj 183 183 cos~;
#X obj 385 184 line~;
#X obj 183 216 *~;
#X obj 183 278 tabwrite~ sample;
#X obj 376 36 bng 15 250 50 0 empty empty empty 17 7 0 10 #fcfcfc #000000
#000000;
#X msg 241 110 0 \, 2 500;
#X msg 385 142 0 \, 1 100;
#X obj 459 97 del 500;
#X msg 310 142 0.05 500;
#X msg 459 142 0 2000;
#X obj 563 120 r location;
#X msg 563 145 set \$1;
#X obj 563 170 s location-set;
#X msg 563 230 set \$1;
#X obj 563 205 r osc-speed;
#X obj 563 255 s osc-speed-set;
#X msg 563 315 set \$1;
#X obj 563 290 r nvoice;
#X obj 563 344 s nvoice-set;
#X obj 563 32 loadbang;
#X msg 563 57 \; osc-speed 10 \; nvoice 25;
#X connect 0 0 1 0;
#X connect 4 0 6 0;
#X connect 5 0 6 1;
#X connect 6 0 7 0;
#X connect 7 0 8 0;
#X connect 8 0 10 0;
#X connect 9 0 10 1;
#X connect 10 0 11 0;
#X connect 12 0 13 0;
#X connect 12 0 11 0;
#X connect 12 0 14 0;
#X connect 12 0 15 0;
#X connect 13 0 5 0;
#X connect 14 0 9 0;
#X connect 15 0 17 0;
#X connect 15 0 16 0;
#X connect 16 0 5 0;
#X connect 17 0 9 0;
#X connect 18 0 19 0;
#X connect 19 0 20 0;
#X connect 21 0 23 0;
#X connect 22 0 21 0;
#X connect 24 0 26 0;
#X connect 25 0 24 0;
#X connect 27 0 28 0;
#X restore 318 549 pd misc;
#X floatatom 432 310 4 0 0 0 osc-speed osc-speed-set osc-speed 0;
#X floatatom 82 279 4 1 50 0 nvoice nvoice-set nvoice 0;
#X obj 395 340 r osc-speed;
#X text 25 311 analysis;
#X text 27 326 parameters;
#X obj 687 199 bng 22 250 50 0 empty empty empty 17 7 0 10 #dfdfdf
#000000 #000000;
#X msg 629 393 \; location 0 \; clear-all bang;
#N canvas 204 89 673 423 grain 0;
#X floatatom 192 224 0 0 0 0 - - - 0;
#X obj 427 141 r sample-rate;
#X obj 427 171 t b f;
#X obj 192 199 r window-size;
#X obj 213 44 r sample-rate;
#X obj 187 16 r window-size;
#X obj 213 74 t b f;
#X obj 187 99 /;
#X obj 118 107 bang~;
#X obj 118 205 line~;
#X obj 187 130 * 1000;
#X text 247 130 window size (msec);
#X obj 402 111 r location;
#X obj 402 196 *;
#X obj 402 219 * 0.001;
#X text 471 219 location (samples);
#X obj 118 153 f;
#X msg 118 180 0 \, 1 \$1;
#X obj 62 251 *~;
#X obj 62 284 -~;
#X obj 62 343 *~;
#X obj 62 370 outlet~;
#X floatatom 402 243 0 0 0 0 - - - 0;
#X obj 431 54 block~ 2048 1;
#X obj 118 300 tabread4~ sample;
#X obj 118 241 *~ 0;
#X obj 118 272 +~ 0;
#X connect 1 0 2 0;
#X connect 2 0 13 0;
#X connect 2 1 13 1;
#X connect 3 0 0 0;
#X connect 3 0 25 1;
#X connect 4 0 6 0;
#X connect 5 0 7 0;
#X connect 6 0 7 0;
#X connect 6 1 7 1;
#X connect 7 0 10 0;
#X connect 8 0 16 0;
#X connect 9 0 18 0;
#X connect 9 0 18 1;
#X connect 9 0 19 1;
#X connect 9 0 25 0;
#X connect 10 0 16 1;
#X connect 12 0 13 0;
#X connect 13 0 14 0;
#X connect 14 0 22 0;
#X connect 14 0 26 1;
#X connect 16 0 17 0;
#X connect 17 0 9 0;
#X connect 18 0 19 0;
#X connect 19 0 20 0;
#X connect 20 0 21 0;
#X connect 24 0 20 1;
#X connect 25 0 26 0;
#X connect 26 0 24 0;
#X restore 33 356 pd grain;
#X floatatom 844 336 5 0 0 0 - - - 0;
#X obj 683 513 bng 17 250 50 0 empty empty empty 17 7 0 10 #dfdfdf
#000000 #000000;
#X text 703 512 live 3" sample;
#X msg 698 541 \; resize-sample 3000;
#X obj 539 581 openpanel;
#X obj 539 606 s read-sample;
#X text 532 520 browse for soundfile, f 10;
#X text 602 29 AMPLITUDES \, dB \, 100-based;
#X text 230 111 Then read a sample (or record below right);
#X msg 224 133 \; read-sample ../sound/voice.wav 44100;
#X msg 224 169 \; read-sample ../sound/voice2.wav 44100;
#X msg 224 205 \; read-sample ../sound/bell.aiff 44100;
#X obj 844 311 r sample-msec;
#N canvas 516 98 256 189 set 0;
#X obj 99 119 outlet;
#X msg 99 88 set \$1;
#X obj 99 55 r loop-amp;
#X connect 1 0 0 0;
#X connect 2 0 1 0;
#X restore 565 58 pd set;
#N canvas 516 98 254 149 set 0;
#X obj 87 92 outlet;
#X msg 87 65 set \$1;
#X obj 87 38 r grain-amp;
#X connect 1 0 0 0;
#X connect 2 0 1 0;
#X restore 667 59 pd set;
#N canvas 516 98 253 173 set 0;
#X obj 101 107 outlet;
#X msg 101 76 set \$1;
#X obj 101 42 r osc-amp;
#X connect 1 0 0 0;
#X connect 2 0 1 0;
#X restore 797 60 pd set;
#X obj 207 567 pack f 100;
#X obj 539 558 bng 17 250 50 0 empty empty empty 17 7 0 10 #dfdfdf
#000000 #000000;
#X text 33 38 This patch derives sinusoidal "tracks" from a sampled
sound using [sigmund~] and the data structure facilities. The number
of tracks may range from 1 to 50 You can edit the tracks (but note
that the resynthesizer is limited to 50-voice polyphony.);
#X text 708 672 updated for Pd version 0.52;
#X obj 318 453 clone add-trace 50;
#X connect 0 0 1 0;
#X connect 2 0 4 1;
#X connect 3 0 85 0;
#X connect 4 0 20 0;
#X connect 5 0 58 1;
#X connect 6 0 29 1;
#X connect 7 0 30 1;
#X connect 8 0 40 0;
#X connect 14 0 15 0;
#X connect 15 0 19 1;
#X connect 16 0 14 0;
#X connect 17 0 23 0;
#X connect 19 0 20 0;
#X connect 20 0 21 0;
#X connect 20 0 21 1;
#X connect 22 0 51 0;
#X connect 24 0 18 0;
#X connect 28 0 49 0;
#X connect 29 0 30 0;
#X connect 29 0 34 0;
#X connect 30 0 29 1;
#X connect 31 0 58 0;
#X connect 32 0 58 0;
#X connect 34 0 55 0;
#X connect 35 0 32 0;
#X connect 35 1 6 0;
#X connect 35 1 67 0;
#X connect 36 0 7 0;
#X connect 37 0 16 0;
#X connect 38 0 3 0;
#X connect 39 0 4 0;
#X connect 49 0 20 0;
#X connect 53 0 59 0;
#X connect 54 0 89 0;
#X connect 55 0 33 0;
#X connect 55 1 31 0;
#X connect 58 0 29 0;
#X connect 59 0 43 0;
#X connect 63 0 59 1;
#X connect 66 0 35 0;
#X connect 68 0 19 0;
#X connect 69 0 55 1;
#X connect 70 0 51 0;
#X connect 70 0 72 0;
#X connect 73 0 74 0;
#X connect 81 0 69 0;
#X connect 82 0 17 0;
#X connect 83 0 8 0;
#X connect 84 0 0 0;
#X connect 85 0 2 0;
#X connect 86 0 73 0;
