#N struct label float x float y float n;
#N struct line float x float y float w;
#N canvas 384 90 474 307 12;
#N canvas 882 23 406 683 data 1;
#X scalar label 130 31.4064 36 \;;
#X scalar label 30 63.9989 43 \;;
#X scalar label 150 69.8262 44 \;;
#X scalar label 150 76 45 \;;
#X scalar label 150 82.5409 46 \;;
#X scalar label 30 89.4708 47 \;;
#X scalar label 150 96.8128 48 \;;
#X scalar label 150 104.591 49 \;;
#X scalar label 30 112.832 50 \;;
#X scalar label 150 121.563 51 \;;
#X scalar label 150 130.814 52 \;;
#X scalar label 30 140.614 53 \;;
#X scalar label 150 150.997 54 \;;
#X scalar label 150 161.998 55 \;;
#X scalar label 150 173.652 56 \;;
#X scalar label 30 186 57 \;;
#X scalar label 150 199.082 58 \;;
#X scalar label 150 212.942 59 \;;
#X scalar label 130 227.626 60 \;;
#X scalar label 150 243.183 61 \;;
#X scalar label 150 259.665 62 \;;
#X scalar label 150 277.127 63 \;;
#X scalar label 30 295.628 64 \;;
#X scalar label 150 315.228 65 \;;
#X scalar label 150 335.994 66 \;;
#X scalar label 30 357.995 67 \;;
#X scalar label 150 381.305 68 \;;
#X scalar label 150 406 69 \;;
#X scalar label 150 432.164 70 \;;
#X scalar label 30 459.883 71 \;;
#X scalar label 150 489.251 72 \;;
#X scalar label 150 520.365 73 \;;
#X scalar label 30 553.33 74 \;;
#X scalar label 150 588.254 75 \;;
#X scalar label 150 625.255 76 \;;
#X scalar label 30 664.456 77 \;;
#X scalar label 255 31.4064 36 \;;
#X scalar label 355 63.9989 43 \;;
#X scalar label 235 69.8262 44 \;;
#X scalar label 235 76 45 \;;
#X scalar label 235 82.5409 46 \;;
#X scalar label 355 89.4708 47 \;;
#X scalar label 235 96.8128 48 \;;
#X scalar label 235 104.591 49 \;;
#X scalar label 355 112.832 50 \;;
#X scalar label 235 121.563 51 \;;
#X scalar label 235 130.814 52 \;;
#X scalar label 355 140.614 53 \;;
#X scalar label 235 150.997 54 \;;
#X scalar label 235 161.998 55 \;;
#X scalar label 235 173.652 56 \;;
#X scalar label 355 186 57 \;;
#X scalar label 235 199.082 58 \;;
#X scalar label 235 212.942 59 \;;
#X scalar label 255 227.626 60 \;;
#X scalar label 235 243.183 61 \;;
#X scalar label 235 259.665 62 \;;
#X scalar label 235 277.127 63 \;;
#X scalar label 355 295.628 64 \;;
#X scalar label 235 315.228 65 \;;
#X scalar label 235 335.994 66 \;;
#X scalar label 355 357.995 67 \;;
#X scalar label 235 381.305 68 \;;
#X scalar label 235 406 69 \;;
#X scalar label 235 432.164 70 \;;
#X scalar label 355 459.883 71 \;;
#X scalar label 235 489.251 72 \;;
#X scalar label 235 520.365 73 \;;
#X scalar label 355 553.33 74 \;;
#X scalar label 235 588.254 75 \;;
#X scalar label 235 625.255 76 \;;
#X scalar label 355 664.456 77 \;;
#X scalar line 200 658.456 50 \;;
#X scalar line 200 8.99943 30 \;;
#X scalar line 200 11.9131 30 \;;
#X scalar line 200 15 30 \;;
#X scalar line 200 18.2705 30 \;;
#X scalar line 200 21.7354 30 \;;
#X scalar line 200 25.4064 50 \;;
#X scalar line 200 29.2957 30 \;;
#X scalar line 200 33.4162 30 \;;
#X scalar line 200 37.7817 30 \;;
#X scalar line 200 42.4069 30 \;;
#X scalar line 200 47.3071 30 \;;
#X scalar line 200 52.4986 30 \;;
#X scalar line 200 57.9989 150 \;;
#X scalar line 200 63.8262 30 \;;
#X scalar line 200 70 30 \;;
#X scalar line 200 76.5409 30 \;;
#X scalar line 200 83.4708 150 \;;
#X scalar line 200 90.8128 30 \;;
#X scalar line 200 98.5913 30 \;;
#X scalar line 200 106.832 150 \;;
#X scalar line 200 115.563 30 \;;
#X scalar line 200 124.814 30 \;;
#X scalar line 200 134.614 150 \;;
#X scalar line 200 144.997 30 \;;
#X scalar line 200 155.998 30 \;;
#X scalar line 200 167.652 30 \;;
#X scalar line 200 180 150 \;;
#X scalar line 200 193.082 30 \;;
#X scalar line 200 206.942 30 \;;
#X scalar line 200 221.626 50 \;;
#X scalar line 200 237.183 30 \;;
#X scalar line 200 253.665 30 \;;
#X scalar line 200 271.127 30 \;;
#X scalar line 200 289.628 150 \;;
#X scalar line 200 309.228 30 \;;
#X scalar line 200 329.994 30 \;;
#X scalar line 200 351.995 150 \;;
#X scalar line 200 375.305 30 \;;
#X scalar line 200 400 30 \;;
#X scalar line 200 426.164 30 \;;
#X scalar line 200 453.883 150 \;;
#X scalar line 200 483.251 30 \;;
#X scalar line 200 514.365 30 \;;
#X scalar line 200 547.33 150 \;;
#X scalar line 200 582.254 30 \;;
#X scalar line 200 619.255 30 \;;
#X scalar line 200 658.456 150 \;;
#X scalar line 150 658.456 50 \;;
#X scalar line 170 8.99943 30 \;;
#X scalar line 170 11.9131 30 \;;
#X scalar line 170 15 30 \;;
#X scalar line 170 18.2705 30 \;;
#X scalar line 170 21.7354 30 \;;
#X scalar line 150 25.4064 50 \;;
#X scalar line 170 29.2957 30 \;;
#X scalar line 170 33.4162 30 \;;
#X scalar line 170 37.7817 30 \;;
#X scalar line 170 42.4069 30 \;;
#X scalar line 170 47.3071 30 \;;
#X scalar line 170 52.4986 30 \;;
#X scalar line 50 57.9989 150 \;;
#X scalar line 170 63.8262 30 \;;
#X scalar line 170 70 30 \;;
#X scalar line 170 76.5409 30 \;;
#X scalar line 50 83.4708 150 \;;
#X scalar line 170 90.8128 30 \;;
#X scalar line 170 98.5913 30 \;;
#X scalar line 50 106.832 150 \;;
#X scalar line 170 115.563 30 \;;
#X scalar line 170 124.814 30 \;;
#X scalar line 50 134.614 150 \;;
#X scalar line 170 144.997 30 \;;
#X scalar line 170 155.998 30 \;;
#X scalar line 170 167.652 30 \;;
#X scalar line 50 180 150 \;;
#X scalar line 170 193.082 30 \;;
#X scalar line 170 206.942 30 \;;
#X scalar line 150 221.626 50 \;;
#X scalar line 170 237.183 30 \;;
#X scalar line 170 253.665 30 \;;
#X scalar line 170 271.127 30 \;;
#X scalar line 50 289.628 150 \;;
#X scalar line 170 309.228 30 \;;
#X scalar line 170 329.994 30 \;;
#X scalar line 50 351.995 150 \;;
#X scalar line 170 375.305 30 \;;
#X scalar line 170 400 30 \;;
#X scalar line 170 426.164 30 \;;
#X scalar line 50 453.883 150 \;;
#X scalar line 170 483.251 30 \;;
#X scalar line 170 514.365 30 \;;
#X scalar line 50 547.33 150 \;;
#X scalar line 170 582.254 30 \;;
#X scalar line 170 619.255 30 \;;
#X scalar line 50 658.456 150 \;;
#X coords 0 683 1 682 0 0 0;
#X restore 72 191 pd data;
#N canvas 232 164 317 120 line 0;
#X obj 30 62 drawpolygon 0 1 0 0 w 0;
#X obj 30 29 struct line float x float y float w;
#X restore 72 213 pd line;
#N canvas 567 89 314 111 label 0;
#X obj 35 62 drawnumber n 0 0 0;
#X obj 35 35 struct label float x float y float n;
#X restore 72 235 pd label;
#N canvas 110 23 852 585 generator 0;
#X obj 696 437 pointer;
#X msg 696 391 traverse pd-data \, bang, f 17;
#X msg 736 202 \; pd-data clear;
#X obj 23 72 until;
#X obj 88 102 + 1;
#X obj 23 45 t b b;
#X msg 23 20 bang;
#X obj 111 158 t f f f;
#X obj 111 244 mtof;
#X obj 67 162 t b b;
#X msg 301 231 150;
#X msg 463 231 170;
#X obj 431 519 append line y x w;
#X msg 174 231 50;
#X obj 159 485 - 20;
#X obj 118 519 append label y x n;
#X obj 580 519 append line y x w;
#X msg 494 231 30;
#X msg 525 231 200;
#X msg 558 231 30;
#X obj 642 410 +;
#X obj 676 106 r shift;
#X floatatom 676 135 5 0 0 0 - - - 0;
#X obj 282 519 append label y x n;
#X obj 282 486 +;
#X msg 363 231 200;
#X msg 332 231 50;
#X msg 238 231 150;
#X msg 206 231 150;
#X obj 65 349 moses 43;
#X obj 65 372 sel 36;
#X obj 118 421 mtof;
#X msg 395 231 50;
#X obj 238 203 b;
#X obj 363 203 b;
#X msg 427 231 255;
#X msg 270 231 355;
#X msg 591 231 235;
#X text 117 542 left-side numbers;
#X text 278 542 right-side numbers;
#X text 436 542 left-side lines;
#X text 589 542 right-side lines;
#X obj 172 146 select 43 47 50 53 57 64 67 71 74 77 36 60;
#X obj 676 167 t b b f b;
#X msg 65 395 36;
#X msg 69 73 30;
#X obj 51 101 f;
#X obj 118 447 - 34;
#X obj 112 285 - 40;
#X obj 23 132 select 78 30, f 13;
#X connect 0 0 12 3;
#X connect 0 0 15 3;
#X connect 0 0 16 3;
#X connect 0 0 23 3;
#X connect 1 0 0 0;
#X connect 3 0 46 0;
#X connect 4 0 46 1;
#X connect 5 0 3 0;
#X connect 5 1 45 0;
#X connect 6 0 5 0;
#X connect 7 0 8 0;
#X connect 7 0 29 0;
#X connect 7 1 15 2;
#X connect 7 1 23 2;
#X connect 7 2 42 0;
#X connect 8 0 48 0;
#X connect 9 0 48 0;
#X connect 9 1 34 0;
#X connect 10 0 12 1;
#X connect 10 0 14 0;
#X connect 11 0 12 1;
#X connect 11 0 14 0;
#X connect 13 0 12 1;
#X connect 13 0 14 0;
#X connect 14 0 15 1;
#X connect 17 0 12 2;
#X connect 18 0 16 1;
#X connect 19 0 16 2;
#X connect 20 0 16 0;
#X connect 21 0 22 0;
#X connect 22 0 43 0;
#X connect 24 0 23 0;
#X connect 25 0 16 1;
#X connect 26 0 12 2;
#X connect 27 0 16 2;
#X connect 28 0 12 2;
#X connect 29 0 30 0;
#X connect 29 1 31 0;
#X connect 30 0 44 0;
#X connect 31 0 47 0;
#X connect 32 0 16 2;
#X connect 33 0 13 0;
#X connect 33 0 28 0;
#X connect 33 0 27 0;
#X connect 33 0 36 0;
#X connect 34 0 10 0;
#X connect 34 0 26 0;
#X connect 34 0 25 0;
#X connect 34 0 32 0;
#X connect 34 0 35 0;
#X connect 35 0 23 1;
#X connect 36 0 23 1;
#X connect 37 0 23 1;
#X connect 42 0 33 0;
#X connect 42 1 33 0;
#X connect 42 2 33 0;
#X connect 42 3 33 0;
#X connect 42 4 33 0;
#X connect 42 5 33 0;
#X connect 42 6 33 0;
#X connect 42 7 33 0;
#X connect 42 8 33 0;
#X connect 42 9 33 0;
#X connect 42 10 34 0;
#X connect 42 11 34 0;
#X connect 42 12 11 0;
#X connect 42 12 37 0;
#X connect 42 12 19 0;
#X connect 42 12 18 0;
#X connect 42 12 17 0;
#X connect 43 0 6 0;
#X connect 43 1 1 0;
#X connect 43 2 20 1;
#X connect 43 2 24 1;
#X connect 43 3 2 0;
#X connect 44 0 31 0;
#X connect 45 0 46 1;
#X connect 46 0 4 0;
#X connect 46 0 49 0;
#X connect 47 0 24 0;
#X connect 47 0 15 0;
#X connect 48 0 12 0;
#X connect 48 0 20 0;
#X connect 49 0 3 1;
#X connect 49 1 9 0;
#X connect 49 2 7 0;
#X restore 72 258 pd generator;
#X text 53 5 FREQUENCY SHIFTER SLIDE RULE.;
#X text 23 32 This might help you if you need to compute products of
frequency shifting and/or FM spectra. Print and cut in half down the
middle. If you know the pitches associated with two frequencies a and
b \, align the pitch of a on the left side against the zero-frequency
marker on the right side. Then find the pitch of b on the right \,
and the matching pitch on the left corresponds to the frequency a+b.
To get a-b \, find b on the left and look up the corresponding pitch
on the right.;
#X floatatom 230 232 5 0 0 0 - - - 0;
#X obj 230 256 s shift;
#X text 199 198 set the shift interactively:;
#X text 200 181 Or enter a value in Hz. here to;
#X connect 6 0 7 0;
