#N struct trace-template float x float y float voiceno array bazoo point-template;
#N struct point-template float y float amp;
#N canvas 624 26 714 556 12;
#X declare -stdpath ./;
#N canvas 395 221 458 221 peak-template 0;
#X obj 59 81 filledpolygon 3 3 3 0 0 0 amp 0 0;
#X obj 58 41 struct peak-template float x float y float amp;
#X text 55 131 This is a template for ploting FFT amplitude peaks \, where a polygon is drawn for all peaks., f 46;
#X restore 499 340 pd peak-template;
#N canvas 116 23 851 337 peak-list 1;
#X coords 0 337 1 336 0 0 0;
#X restore 511 457 pd peak-list;
#N canvas 117 226 1177 513 trace-list 1;
#X scalar trace-template 15 0 2 \; 75.3573 0 \; 75.8506 25.3725 \; 74.7603 14.676 \; \;;
#X scalar trace-template 15 0 3 \; 77.034 9.33179 \; \;;
#X scalar trace-template 20 0 3 \; 78.5625 15.413 \; 79.0435 26.0145 \; 78.7199 33.5144 \; 78.6944 40.2821 \; 78.6329 46.1032 \; 78.6193 51.3565 \; 78.7071 56.0301 \; 78.7168 60.1399 \; 78.6875 64.1206 \; 78.6816 67.6714 \; 78.6777 70.7676 \; 78.7037 73.6613 \; 78.6967 76.4132 \; 78.6854 78.9804 \; 78.6864 81.2601 \; 78.6825 83.3114 \; 78.6926 85.2199 \; 78.6927 86.965 \; 78.6877 88.5859 \; 78.6867 90.0227 \; 78.69 91.2754 \; 78.6922 92.3857 \; 78.6913 93.3699 \; 78.6892 94.217 \; 78.6885 94.9076 \; 78.69 95.4329 \; 78.6902 95.8126 \; 78.6895 96.0373 \; 78.6899 96.0863 \; 78.6902 95.9487 \; 78.691 95.6009 \; 78.6905 95.0236 \; 78.6825 94.1394 \; 78.6928 92.9243 \; 78.6961 91.2078 \; 78.702 88.7688 \; 78.6576 85.009 \; 79.0233 76.9783 \; 78.9434 77.9978 \; 78.7388 85.3005 \; 78.6701 86.3214 \; 78.6997 89.1718 \; 78.6953 90.9894 \; 78.6777 92.0104 \; 78.6969 92.18 \; 78.6951 91.4339 \; 78.697 89.9259 \; 78.7026 87.6025 \; 78.6579 83.8593 \; 78.9291 78.0358 \; 78.9582 77.1636 \; 78.7352 85.8742 \; 78.6693 86.5166 \; 78.6985 89.4765 \; 78.6949 91.4809 \; 78.6918 92.9166 \; 78.6903 93.9378 \; 78.6906 94.6369 \; 78.6909 95.0812 \; 78.69 95.315 \; 78.6897 95.3547 \; 78.6895 95.2202 \; 78.6903 94.9206 \; 78.6896 94.4791 \; 78.6881 93.8958 \; 78.6898 93.1498 \; 78.6916 92.2623 \; 78.692 91.2454 \; 78.6891 90.111 \; 78.686 88.8337 \; 78.6887 87.3699 \; 78.6929 85.7482 \; 78.6913 84.0153 \; 78.6827 82.1054 \; 78.6867 80.0707 \; 78.6856 77.8163 \; 78.7 75.2723 \; 78.6998 72.62 \; 78.6779 69.7685 \; 78.6857 66.7316 \; 78.6863 63.3054 \; 78.7245 59.4159 \; 78.6531 55.5115 \; 78.6607 51.4667 \; 78.7181 46.2978 \; 78.7035 41.1442 \; 78.7774 34.7957 \; 79.2491 20.8089 \; 78.5625 22.6626 \; 78.5625 11.7373 \; \;;
#X scalar trace-template 25 0 4 \; 77.034 26.5702 \; 76.4152 39.4863 \; 75.8979 45.9789 \; 76.0684 51.0462 \; 76.0506 54.8538 \; 76.1005 58.3879 \; 76.0521 62.288 \; 76.0298 65.3933 \; 76.0246 68.2849 \; 75.983 70.8286 \; 75.9894 73.1777 \; 76.0025 75.3008 \; 76.0104 77.2168 \; 76.0148 78.9345 \; 76.0307 80.5024 \; 76.027 81.8527 \; 76.0235 83.0406 \; 76.0213 84.065 \; 76.0187 84.9224 \; 76.0182 85.6141 \; 76.0201 86.1451 \; 76.0195 86.5093 \; 76.0185 86.7003 \; 76.0184 86.7079 \; 76.0138 86.5052 \; 76.0085 86.0635 \; 76.0056 85.3473 \; 76.0117 84.3188 \; 76.018 82.8676 \; 76.0281 80.7974 \; 76.0242 77.7138 \; 76.1339 72.4422 \; 76.2986 67.9753 \; 76.2991 71.9504 \; 76.1793 76.4213 \; \;;
#X scalar trace-template 25 0 7 \; 77.5586 26.8678 \; \;;
#X scalar trace-template 30 0 2 \; 80.8438 7.78499 \; 81.0981 14.8984 \; 81.6783 13.9333 \; 81.584 20.5926 \; \;;
#X scalar trace-template 35 0 7 \; 11.1042 72.6103 \; 4.76558 74.2309 \; \;;
#X scalar trace-template 35 0 9 \; 82.4744 5.7331 \; \;;
#X scalar trace-template 35 0 10 \; 83.2355 3.07873 \; 82.9562 13.2205 \; 83.043 21.3303 \; 83.4206 17.4871 \; 82.9793 34.502 \; \;;
#X scalar trace-template 35 0 11 \; 84.3179 5.96195 \; 84.3179 7.90317 \; \;;
#X scalar trace-template 35 0 12 \; 85.3365 3.60597 \; \;;
#X scalar trace-template 35 0 13 \; 86.2986 2.94836 \; 85.9838 5.487 \; \;;
#X scalar trace-template 35 0 14 \; 87.21 1.90709 \; 87.5034 3.87697 \; \;;
#X scalar trace-template 35 0 15 \; 87.8157 0.176178 \; 88.0758 3.1686 \; \;;
#X scalar trace-template 35 0 16 \; 88.6298 0.407583 \; 88.6298 2.57274 \; \;;
#X scalar trace-template 35 0 17 \; 89.429 0 \; 89.3908 1.00395 \; \;;
#X scalar trace-template 35 0 18 \; 90.1929 0 \; 89.942 1.24732 \; \;;
#X scalar trace-template 35 0 19 \; 90.9245 0 \; 91.1297 0 \; \;;
#X scalar trace-template 35 0 20 \; 91.6264 0 \; 91.6264 0 \; \;;
#X scalar trace-template 35 0 21 \; 92.7366 0 \; 92.6971 0 \; \;;
#X scalar trace-template 35 0 22 \; 93.37 0 \; \;;
#X scalar trace-template 35 0 23 \; 93.9811 0 \; \;;
#X scalar trace-template 35 0 24 \; 94.5714 0 \; \;;
#X scalar trace-template 40 0 9 \; 81.2661 18.4195 \; 80.841 26.2215 \; 81.0562 32.3891 \; 80.972 37.0691 \; 81.1368 42.0479 \; 81.012 46.1148 \; 80.9645 50.1924 \; 80.9248 53.1401 \; 81.0301 56.6193 \; 80.9699 59.9108 \; 80.9889 62.6141 \; 81.0114 65.1083 \; 81.0381 67.4353 \; 81.0077 69.7876 \; 81.0029 71.888 \; 81.0023 73.8096 \; 80.9886 75.6422 \; 80.9908 77.2438 \; 80.9973 78.6863 \; 80.9967 80.0393 \; 80.9967 81.2538 \; 81.0055 82.2909 \; 81.0069 83.2267 \; 81.0048 84.0404 \; 81.0016 84.72 \; 81.0008 85.2505 \; 81.0005 85.6349 \; 81.0007 85.8718 \; 80.9992 85.9718 \; 81.001 85.8885 \; 81.0013 85.6256 \; 80.9989 85.1623 \; 80.997 84.4397 \; 80.9972 83.3858 \; 81.0019 81.9187 \; 81.0074 79.8985 \; 81.0193 76.9573 \; 81.0444 72.1574 \; 81.2661 65.7354 \; 81.2906 64.2189 \; 81.3791 64.006 \; 81.3309 64.9275 \; 81.0884 68.9201 \; 80.9775 74.948 \; 81.0135 78.4938 \; 81.0064 80.7739 \; 80.9998 82.4185 \; 80.9985 83.5838 \; 80.9978 84.4269 \; 80.9999 84.9724 \; 81.0017 85.2929 \; 81.0002 85.4365 \; 80.9995 85.4056 \; 81.0006 85.217 \; 81 84.8981 \; 81.0006 84.4363 \; 81.0025 83.8335 \; 81.0057 83.0923 \; 81.0073 82.2255 \; 81.004 81.2502 \; 80.9946 80.1731 \; 80.9973 78.9097 \; 80.996 77.5394 \; 80.9888 76.0811 \; 80.9909 74.4378 \; 81.0065 72.5913 \; 81.0018 70.6895 \; 81.015 68.5576 \; 81.0362 66.2531 \; 81.0015 63.99 \; 80.9875 61.4919 \; 80.9836 58.7404 \; 81.0257 55.6037 \; 80.9227 52.1522 \; 80.9938 49.1356 \; 80.9304 44.8718 \; 81.0611 41.2351 \; 81.0416 37.2311 \; \;;
#X scalar trace-template 40 0 12 \; 83.6038 10.0226 \; \;;
#X scalar trace-template 40 0 22 \; 86.6077 5.4857 \; \;;
#X scalar trace-template 40 0 23 \; 90.4402 0.712929 \; \;;
#X scalar trace-template 40 0 24 \; 92.0791 0 \; \;;
#X scalar trace-template 55 0 2 \; 83.088 32.4553 \; 83.1648 38.8025 \; 83.046 43.0775 \; 83.003 47.5799 \; 83.0746 51.4939 \; 83.0386 55.3108 \; 83.0499 58.8632 \; 83.0377 62.1977 \; 83.0266 65.325 \; 83.0403 68.1774 \; 83.0457 70.8737 \; 83.0345 73.4299 \; 83.0369 75.7964 \; 83.0373 78.0037 \; 83.0449 80.0457 \; 83.0424 81.9684 \; 83.0379 83.7612 \; 83.0381 85.4125 \; 83.0374 86.9323 \; 83.0398 88.3176 \; 83.0397 89.5868 \; 83.0383 90.7411 \; 83.0382 91.7686 \; 83.0398 92.67 \; 83.0402 93.4506 \; 83.0395 94.1109 \; 83.0389 94.6455 \; 83.0389 95.0469 \; 83.0399 95.3074 \; 83.0393 95.4241 \; 83.0388 95.3869 \; 83.0395 95.1769 \; 83.0398 94.772 \; 83.0397 94.1409 \; 83.0378 93.2403 \; 83.0375 92.0039 \; 83.0383 90.7002 \; 83.0387 90.3932 \; 83.0395 91.3945 \; 83.0372 92.6755 \; 83.0385 93.6423 \; 83.0401 94.3238 \; 83.0396 94.7746 \; 83.0392 95.0262 \; 83.0387 95.1035 \; 83.0395 95.0246 \; 83.0395 94.8041 \; 83.0386 94.4498 \; 83.0392 93.9628 \; 83.0397 93.3514 \; 83.0404 92.622 \; 83.0393 91.7794 \; 83.0378 90.8197 \; 83.0387 89.7387 \; 83.0399 88.5396 \; 83.0394 87.2324 \; 83.0369 85.8118 \; 83.0387 84.2599 \; 83.0387 82.5841 \; 83.0436 80.7724 \; 83.0437 78.8438 \; 83.036 76.7967 \; 83.0384 74.5837 \; 83.0356 72.2256 \; 83.0477 69.6845 \; 83.0342 67.032 \; 83.0323 64.1835 \; 83.0377 61.1102 \; 83.0341 57.8501 \; 83.0587 54.3299 \; 83.048 50.6329 \; 83.0304 46.7238 \; 83.0116 42.5088 \; 83.0096 37.9262 \; 83.0483 32.9112 \; 82.6678 27.4408 \; 83.111 21.8792 \; 82.8591 17.3208 \; 83.2355 9.23151 \; \;;
#X scalar trace-template 55 0 7 \; 84.1421 2.55925 \; 84.5536 12.8669 \; 84.6664 21.0583 \; 85.0036 25.8272 \; 84.6041 27.9265 \; \;;
#X scalar trace-template 55 0 11 \; 86.1419 2.50543 \; \;;
#X scalar trace-template 60 0 10 \; 43.442 84.4435 \; 42.6812 82.2599 \; \;;
#X scalar trace-template 65 0 11 \; 86.2986 16.0988 \; 86.4538 21.4337 \; 86.6485 24.688 \; 86.4538 28.9022 \; 86.5191 34.6986 \; 86.503 38.9058 \; 86.5371 43.1966 \; 86.5333 46.5334 \; 86.5129 50.34 \; 86.5246 53.7938 \; 86.515 56.9311 \; 86.5035 59.8945 \; 86.5209 62.8447 \; 86.515 65.5102 \; 86.5169 68.0901 \; 86.513 70.4984 \; 86.5072 72.7632 \; 86.5108 74.9407 \; 86.5131 76.987 \; 86.5124 78.9004 \; 86.5131 80.7082 \; 86.5117 82.3898 \; 86.514 83.9814 \; 86.5135 85.4514 \; 86.5131 86.8188 \; 86.513 88.0842 \; 86.5118 89.2379 \; 86.5122 90.295 \; 86.5121 91.2469 \; 86.5125 92.0989 \; 86.5129 92.8452 \; 86.5133 93.4813 \; 86.5124 93.9994 \; 86.512 94.4079 \; 86.512 94.6694 \; 86.5123 94.6972 \; 86.5127 94.4768 \; 86.5121 94.0807 \; 86.5128 93.577 \; 86.5132 92.9648 \; 86.5129 92.2443 \; 86.5125 91.4197 \; 86.5121 90.495 \; 86.5122 89.4771 \; 86.5119 88.3579 \; 86.5135 87.1484 \; 86.5131 85.8271 \; 86.5138 84.4132 \; 86.5138 82.8979 \; 86.5119 81.269 \; 86.5137 79.5536 \; 86.5116 77.7073 \; 86.5134 75.775 \; 86.5088 73.6963 \; 86.51 71.5252 \; 86.5122 69.2273 \; 86.5136 66.7977 \; 86.5193 64.2688 \; 86.5131 61.5382 \; 86.5103 58.6818 \; 86.5067 55.6506 \; 86.5113 52.5058 \; 86.5381 48.8972 \; 86.463 45.5241 \; 86.5276 42.0353 \; 86.5155 37.9769 \; 86.4952 34.0739 \; 86.1419 19.1004 \; 86.1419 22.4889 \; \;;
#X scalar trace-template 70 0 10 \; 46.5872 86.8776 \; \;;
#X scalar trace-template 75 0 10 \; 85.1709 21.6034 \; 84.937 32.4755 \; 84.8933 37.6237 \; 84.8729 41.2749 \; 84.8231 44.7496 \; 84.891 47.8506 \; 84.8424 51.2099 \; 84.8915 54.3403 \; 84.8627 57.0873 \; 84.8429 59.7452 \; 84.8313 62.2409 \; 84.8619 64.539 \; 84.8506 66.6959 \; 84.861 68.7407 \; 84.8718 70.6614 \; 84.8798 72.4635 \; 84.8696 74.1155 \; 84.8672 75.6741 \; 84.8637 77.1128 \; 84.8552 78.4298 \; 84.8572 79.6417 \; 84.8594 80.7382 \; 84.8604 81.7294 \; 84.8617 82.6091 \; 84.8662 83.3815 \; 84.8647 84.0278 \; 84.8635 84.5539 \; 84.863 84.9576 \; 84.8637 85.2315 \; 84.8642 85.3618 \; 84.8646 85.3486 \; 84.8644 85.1771 \; 84.8659 84.9115 \; 84.8639 84.8481 \; 84.8626 85.0402 \; 84.8642 85.205 \; 84.8643 85.2282 \; 84.8632 85.1178 \; 84.8638 84.8752 \; 84.8635 84.4989 \; 84.864 84.0021 \; 84.8657 83.3923 \; 84.8655 82.6653 \; 84.8603 81.8214 \; 84.8604 80.8785 \; 84.8586 79.8276 \; 84.8558 78.6772 \; 84.8573 77.4174 \; 84.8659 76.0557 \; 84.8663 74.5703 \; 84.8725 72.9852 \; 84.8815 71.3086 \; 84.8658 69.4636 \; 84.8617 67.5386 \; 84.8542 65.4798 \; 84.8582 63.3092 \; 84.8235 61.0213 \; 84.8537 58.4954 \; 84.8557 55.8417 \; 84.8818 53.0871 \; 84.8721 50.069 \; 84.8993 46.5986 \; 84.8525 43.6756 \; 85.0606 30.1361 \; \;;
#X scalar trace-template 75 0 12 \; 85.5006 12.4605 \; \;;
#X scalar trace-template 80 0 7 \; 89.8151 0 \; 89.5586 2.88661 \; 89.429 12.2085 \; 89.3602 17.8647 \; 89.5586 16.6573 \; 89.2983 23.1913 \; 89.4324 30.4794 \; 89.3917 34.6174 \; 89.3604 38.6988 \; 89.4376 41.7979 \; 89.3834 45.4678 \; 89.41 48.595 \; 89.3999 51.7771 \; 89.3948 54.7935 \; 89.4074 57.5432 \; 89.4095 60.2369 \; 89.4038 62.8579 \; 89.403 65.3277 \; 89.4026 67.6731 \; 89.4123 69.8479 \; 89.4074 71.9978 \; 89.405 74.0379 \; 89.4044 75.9636 \; 89.4029 77.7905 \; 89.4065 79.4862 \; 89.4071 81.1079 \; 89.404 82.6617 \; 89.4043 84.1025 \; 89.4052 85.4438 \; 89.4076 86.6856 \; 89.4068 87.8512 \; 89.4064 88.7261 \; 89.4068 88.8698 \; 89.4055 88.2037 \; 89.4072 87.0775 \; 89.4074 85.8447 \; 89.4047 84.543 \; 89.4043 83.1397 \; 89.4041 81.6432 \; 89.4078 80.0366 \; 89.4051 78.3819 \; 89.4028 76.6348 \; 89.4045 74.7658 \; 89.4041 72.8095 \; 89.4106 70.7177 \; 89.409 68.5737 \; 89.4014 66.366 \; 89.4026 63.9943 \; 89.4015 61.518 \; 89.417 58.8441 \; 89.3972 56.2371 \; 89.4014 53.3823 \; 89.3991 50.4136 \; 89.4127 47.2308 \; 89.415 43.9385 \; 89.4054 40.5689 \; 89.4165 36.9925 \; 89.3923 33.3617 \; 89.4314 29.2776 \; 89.4652 25.2619 \; 89.2983 17.9197 \; \;;
#X scalar trace-template 85 0 12 \; 87.9344 12.7729 \; 87.9568 15.814 \; 87.9344 22.0532 \; 88.2159 25.7443 \; 87.795 29.3407 \; 87.9898 32.3975 \; 87.9896 36.0936 \; 87.9881 40.1586 \; 87.9185 42.8065 \; 88.0599 45.7852 \; 88.0063 49.1217 \; 88.0181 51.8029 \; 88.0264 54.3486 \; 88.055 56.672 \; 88.012 59.3888 \; 88.0251 61.53 \; 88.0206 63.6999 \; 88.0102 65.8311 \; 88.0095 67.7449 \; 88.0243 69.4054 \; 88.0144 71.2174 \; 88.0155 72.8265 \; 88.0242 74.253 \; 88.0295 75.6146 \; 88.0227 76.9827 \; 88.0209 78.2054 \; 88.0208 79.3137 \; 88.0168 80.3625 \; 88.0172 81.2746 \; 88.0193 82.071 \; 88.0196 82.6556 \; 88.0192 82.7735 \; 88.0211 82.2993 \; 88.0183 81.5145 \; 88.0164 80.6311 \; 88.0174 79.6328 \; 88.0216 78.5144 \; 88.0202 77.3553 \; 88.0246 76.0476 \; 88.0298 74.6376 \; 88.0218 73.2492 \; 88.0148 71.7587 \; 88.0173 70.0689 \; 88.0235 68.2569 \; 88.0014 66.3521 \; 88.0124 64.5859 \; 88.021 62.4489 \; 88.0206 60.2971 \; 88.0187 58.024 \; 88.051 55.3804 \; 88.0144 53.1485 \; 88.0176 50.4873 \; 87.9923 47.512 \; 88.0736 44.4622 \; 87.9055 41.55 \; 88.0494 38.342 \; 88.0125 35.1965 \; 88.0678 31.3157 \; 87.8617 27.611 \; 88.2159 24.6738 \; 88.0758 20.3589 \; 88.0702 16.1637 \; 87.9344 12.1505 \; 88.2159 6.37539 \; \;;
#X scalar trace-template 85 0 13 \; 88.7656 0 \; \;;
#X scalar trace-template 90 0 13 \; 56.1473 73.0718 \; 56.7718 78.8761 \; 57.1582 79.0053 \; 56.9668 82.2289 \; 56.9711 84.0522 \; 56.9755 85.0429 \; 57.0103 85.519 \; 57.008 85.4623 \; 56.9883 84.8555 \; 57.0203 83.7205 \; 56.9637 81.8678 \; 56.8978 78.8922 \; 56.7367 73.713 \; 58.1801 70.2369 \; 57.9179 72.2085 \; \;;
#X scalar trace-template 90 0 14 \; 88.355 1.61773 \; 88.6848 18.147 \; \;;
#X scalar trace-template 95 0 15 \; 88.6948 17.6479 \; 88.7656 0 \; 88.2903 20.7643 \; \;;
#X scalar trace-template 100 0 6 \; 4.76558 71.8849 \; \;;
#X scalar trace-template 110 0 6 \; 64.281 84.8974 \; 64.7802 79.2939 \; 64.1144 86.632 \; 64.0671 87.993 \; 64.0415 91.1154 \; 64.0305 92.9855 \; 64.0301 94.0788 \; 64.0278 94.6093 \; 64.0262 94.649 \; 64.023 94.2129 \; 64.0271 93.2502 \; 64.0397 91.6389 \; 64.0451 89.1376 \; 64.0787 84.9641 \; 64.635 79.3131 \; 64.5593 80.8236 \; \;;
#X scalar trace-template 110 0 14 \; 90.9231 2.74647 \; 90.7653 12.9576 \; 90.8354 15.3924 \; 90.4402 20.4722 \; 90.684 25.2531 \; 90.7172 28.0687 \; 90.6637 31.4612 \; 90.6461 34.8438 \; 90.684 38.0864 \; 90.6418 41.0602 \; 90.7007 43.7758 \; 90.6886 46.5798 \; 90.6774 49.2853 \; 90.6477 52.0006 \; 90.6992 54.2161 \; 90.6796 56.5289 \; 90.6865 58.7174 \; 90.6928 60.8088 \; 90.7118 62.8332 \; 90.6891 64.7285 \; 90.6938 66.5664 \; 90.6884 68.3115 \; 90.6809 69.9795 \; 90.6791 71.5403 \; 90.6866 72.9886 \; 90.6823 74.1168 \; 90.6848 74.2972 \; 90.6865 73.4325 \; 90.686 72.0329 \; 90.6762 70.5372 \; 90.6833 68.9074 \; 90.689 67.1924 \; 90.6936 65.4026 \; 90.6939 63.5178 \; 90.7105 61.584 \; 90.6874 59.5301 \; 90.6863 57.4208 \; 90.6756 55.208 \; 90.7034 52.8656 \; 90.6436 50.6581 \; 90.6909 47.8596 \; 90.6939 45.1449 \; 90.7153 42.3851 \; 90.6426 39.5917 \; 90.7559 36.7165 \; 90.6687 33.2844 \; 90.6479 30.1489 \; 90.6944 26.6151 \; 90.684 23.1065 \; 90.5625 12.9949 \; 90.317 10.3315 \; \;;
#X scalar trace-template 110 0 15 \; 91.967 1.92251 \; \;;
#X scalar trace-template 110 0 16 \; 91.279 0 \; \;;
#X scalar trace-template 120 0 1 \; 64.5527 84.1748 \; \;;
#X scalar trace-template 120 0 15 \; 91.8542 14.5897 \; 92.0433 13.9348 \; 91.6459 20.0954 \; 91.6555 23.6367 \; \;;
#X scalar trace-template 125 0 1 \; 46.7477 81.3532 \; 46.9366 82.008 \; \;;
#X scalar trace-template 125 0 16 \; 91.0435 15.4437 \; 90.8772 17.1828 \; \;;
#X scalar trace-template 130 0 17 \; 90.5815 24.8001 \; \;;
#X scalar trace-template 130 0 18 \; 92.1904 19.0694 \; 91.967 23.2201 \; 91.8958 30.0451 \; 91.9028 33.7495 \; 91.9308 36.3525 \; 91.8597 40.3195 \; 91.892 43.6312 \; 91.8825 46.6444 \; 91.8766 49.5621 \; 91.8923 52.4477 \; 91.8772 55.0741 \; 91.8868 57.7275 \; 91.8818 60.2024 \; 91.8786 62.5858 \; 91.8808 64.8801 \; 91.8836 67.0807 \; 91.8829 69.1765 \; 91.8822 71.1819 \; 91.881 73.0952 \; 91.8852 74.9378 \; 91.8832 76.6569 \; 91.8807 77.9525 \; 91.8794 78.1817 \; 91.8809 77.204 \; 91.8849 75.5583 \; 91.8838 73.7638 \; 91.8812 71.8808 \; 91.8819 69.9228 \; 91.8819 67.8767 \; 91.8865 65.7631 \; 91.876 63.4991 \; 91.8811 61.1984 \; 91.8824 58.7787 \; 91.8874 56.2825 \; 91.8869 53.6533 \; 91.8769 50.8932 \; 91.8844 48.1049 \; 91.8867 45.1722 \; 91.8952 42.1561 \; 91.9056 39.1495 \; 91.7944 33.8337 \; 91.939 31.4098 \; 91.9334 27.8634 \; 91.9154 24.9896 \; 91.7448 18.7887 \; 92.1904 12.9727 \; 92.0791 12.8425 \; 91.967 5.36286 \; \;;
#X scalar trace-template 130 0 19 \; 92.7366 0.438279 \; 93.0562 2.33722 \; \;;
#X scalar trace-template 130 0 20 \; 94.2788 0 \; 94.0661 1.90342 \; \;;
#X scalar trace-template 140 0 1 \; 68.5694 71.3395 \; \;;
#X scalar trace-template 145 0 1 \; 69.014 77.6192 \; 69.0346 78.2338 \; 69.0299 81.0669 \; 69.0096 82.7968 \; 68.9938 83.8203 \; 69.0042 84.3048 \; 69.0049 84.3447 \; 68.9923 83.9653 \; 68.9998 83.0923 \; 69.0058 81.6214 \; 68.9946 79.3419 \; 68.9836 75.6146 \; 68.6287 69.2895 \; 68.7457 71.7672 \; 68.9931 72.8949 \; 69.0043 77.4506 \; 68.9942 80.0419 \; 68.9935 81.569 \; 69.0011 82.3358 \; 69.0204 82.4331 \; 68.9936 81.9842 \; 68.992 80.705 \; 68.996 78.6133 \; 69.0015 75.1846 \; 69.0209 68.4089 \; 68.5624 69.9175 \; 68.891 75.0874 \; 68.9859 77.1366 \; 68.9977 80.0063 \; 69.0024 81.8275 \; 68.9965 82.9731 \; 68.9891 83.6159 \; 69.0051 83.7881 \; 69.0022 83.5759 \; 69.0008 82.9322 \; 69.0159 81.7283 \; 69.0326 79.801 \; 69.034 76.6823 \; 69.4734 68.1887 \; 69.4734 69.2572 \; \;;
#X scalar trace-template 145 0 15 \; 92.9905 11.8751 \; 92.9849 16.0215 \; 92.9503 17.7458 \; 92.91 23.0002 \; 93.0009 26.5311 \; 93.0706 29.3786 \; 92.9419 30.6642 \; 93.0274 35.4567 \; 92.9815 39.0071 \; 93.0008 41.4646 \; 92.9909 43.9819 \; 93.0252 46.3488 \; 92.9901 48.9407 \; 93.0075 51.4086 \; 92.9984 53.7468 \; 92.9969 55.9491 \; 92.9777 57.9118 \; 92.9986 60.0777 \; 92.9891 61.6151 \; 92.992 61.8453 \; 93.0016 60.7429 \; 92.9976 58.7855 \; 92.974 56.5802 \; 93.0002 54.5886 \; 93.0029 52.3945 \; 93.0171 50.2402 \; 92.9955 47.5311 \; 93.0298 44.8204 \; 93.002 42.5938 \; 93.0018 39.9604 \; 92.9971 37.1843 \; 93.0285 33.8691 \; 92.8833 31.8314 \; 93.0384 27.7901 \; 93.0859 23.6316 \; 92.9843 21.1536 \; 92.9388 15.7057 \; \;;
#X scalar trace-template 145 0 16 \; 94.0809 9.19569 \; 94.1801 8.16032 \; 93.9196 14.3221 \; 93.9811 17.4368 \; 94.0324 25.5255 \; 94.0587 28.7504 \; 94.0877 31.9669 \; 93.9965 34.8711 \; 94.062 38.4847 \; 94.0448 41.6663 \; 94.0449 44.5848 \; 94.0544 47.2749 \; 94.0506 50.0158 \; 94.0498 52.6486 \; 94.0474 55.193 \; 94.044 57.6486 \; 94.0569 59.8388 \; 94.0508 62.1224 \; 94.0546 63.7663 \; 94.0537 64.0587 \; 94.0492 62.8545 \; 94.0541 60.6931 \; 94.0531 58.4199 \; 94.0473 56.1251 \; 94.0474 53.6706 \; 94.0455 51.138 \; 94.0606 48.3509 \; 94.0476 45.7565 \; 94.0571 42.8524 \; 94.0616 39.8914 \; 94.0573 36.8715 \; 94.0531 33.7361 \; 94.1179 29.9673 \; 94.095 27.003 \; 94.1123 23.5968 \; 94.1143 19.9806 \; 93.9811 13.8962 \; 93.7798 10.2508 \; \;;
#X scalar trace-template 145 0 17 \; 93.4734 0 \; 93.5761 0 \; \;;
#X scalar trace-template 155 0 0 \; 58.2331 73.0072 \; \;;
#X scalar trace-template 155 0 17 \; 93.1614 10.3043 \; \;;
#X scalar trace-template 155 0 19 \; 94.1801 11.5293 \; 94.1631 17.2693 \; \;;
#X scalar trace-template 160 0 0 \; 73.2324 79.7416 \; 73.226 80.6988 \; \;;
#X scalar trace-template 160 0 17 \; 56.5545 72.9792 \; 56.8962 76.9022 \; 56.9906 80.2335 \; 57.0041 82.1468 \; 57.0006 83.2222 \; 56.9875 83.6796 \; 56.9807 83.6257 \; 56.9658 82.9997 \; 56.9426 81.7921 \; 56.9409 79.7865 \; 57.0794 76.4521 \; 58.0729 70.1764 \; 57.9734 67.5078 \; 56.9721 72.7613 \; 57.07 76.5889 \; 57.0796 78.957 \; 57.1659 79.3213 \; 57.0803 77.8453 \; 57.0878 73.9562 \; 56.1801 67.8358 \; 55.9774 67.4873 \; \;;
#X scalar trace-template 160 0 20 \; 16.7656 68.3598 \; \;;
#X scalar trace-template 170 0 0 \; 95.2355 7.25695 \; 95.2187 4.32465 \; \;;
#X scalar trace-template 170 0 13 \; 94.6678 0 \; 94.7718 7.22238 \; 94.954 8.32443 \; 94.7666 12.8992 \; \;;
#X scalar trace-template 170 0 19 \; 95.9996 5.28688 \; 96.0535 6.6853 \; 96.0987 8.72628 \; \;;
#X scalar trace-template 175 0 20 \; 93.2661 26.6788 \; \;;
#X scalar trace-template 180 0 0 \; 63.3648 78.4927 \; 63.7035 81.1955 \; 64.0809 84.3539 \; 64.0446 88.4138 \; 64.0308 90.7505 \; 64.0274 92.1336 \; 64.0274 92.8481 \; 64.0333 93.0061 \; 64.0298 92.6738 \; 64.0303 91.7837 \; 64.0274 90.2477 \; 63.992 88.4445 \; 64.0041 88.3215 \; 64.0192 89.4466 \; 64.0287 91.1414 \; 64.0294 92.2214 \; 64.0304 92.7391 \; 64.0316 92.7604 \; 64.0238 92.3069 \; 64.0277 91.2763 \; 64.0351 89.5147 \; 64.0516 86.6303 \; 63.3866 80.8514 \; 63.2522 76.7419 \; 63.9784 84.0211 \; 64.058 85.947 \; 64.0419 89.3386 \; 64.0361 91.4465 \; 64.0245 92.7991 \; 64.0229 93.5698 \; 64.0262 93.8513 \; 64.0284 93.6838 \; 64.0302 93.0443 \; 64.0305 91.8514 \; 64.0427 89.8873 \; 64.0665 86.6722 \; 63.6483 79.3116 \; 63.1539 77.8625 \; \;;
#X scalar trace-template 180 0 20 \; 95.0483 13.058 \; 95.1314 16.3761 \; 95.0047 21.8792 \; 95.0483 25.005 \; 95.1361 28.7697 \; 95.0136 30.1031 \; 95.0484 33.6071 \; 95.0403 36.4154 \; 95.0463 39.1015 \; 94.9865 40.8616 \; 95.0483 44.1978 \; 95.0311 46.3204 \; 95.0329 46.6374 \; 95.0268 45.1271 \; 95.0687 42.5975 \; 94.9973 39.3667 \; 95.0531 37.4726 \; 95.0424 34.7448 \; 95.0688 31.9541 \; 94.9461 27.9447 \; \;;
#X scalar trace-template 180 0 21 \; 95.7851 12.7246 \; 95.898 17.9579 \; 96.0088 20.9522 \; 95.9904 23.7301 \; 96.0535 22.7395 \; 96.103 28.1309 \; 95.9914 33.7141 \; 95.9752 36.6195 \; 95.9716 39.5023 \; 95.9864 42.3311 \; 95.9637 44.9119 \; 95.9803 46.8283 \; 95.9741 47.1525 \; 95.9776 45.7863 \; 95.9745 43.2934 \; 96.0144 39.7137 \; 95.9966 37.9009 \; 95.9755 34.8468 \; 95.988 31.8918 \; 95.9888 28.7814 \; 95.8428 24.1796 \; 95.8679 18.9401 \; 95.9645 18.425 \; 96.1321 15.2099 \; 95.8751 6.34328 \; 95.6947 3.4796 \; 95.7851 2.69731 \; \;;
#X scalar trace-template 185 0 19 \; 75.671 66.6485 \; 75.9221 73.9342 \; 75.9749 79.815 \; 76.0175 78.978 \; 76.0228 81.1357 \; 76.0121 82.4342 \; 76.0148 83.2439 \; 76.0228 83.593 \; 76.0276 83.5479 \; 76.0151 83.033 \; 76.0263 82.3425 \; 76.0291 82.2085 \; 76.0091 82.7492 \; 76.0217 83.2895 \; 76.0278 83.4942 \; 76.0198 83.2657 \; 76.0076 82.6304 \; 76.0184 81.6104 \; 76.0269 79.9711 \; 76.0152 77.3054 \; 75.8618 73.3166 \; 75.9344 44.7156 \; 75.778 67.6863 \; \;;
#X scalar trace-template 185 0 22 \; 97.6071 0 \; \;;
#X scalar trace-template 190 0 6 \; 42.1349 77.4082 \; 44.4439 83.3351 \; 44.9281 86.1075 \; 44.9673 89.3553 \; 44.9711 91.2424 \; 44.9733 92.2977 \; 44.9812 92.7295 \; 44.9881 92.607 \; 44.991 91.9291 \; 45.0204 91.0001 \; 45.0359 90.7632 \; 44.9948 91.4911 \; 44.9881 92.2983 \; 44.987 92.6088 \; 44.9794 92.3885 \; 44.9668 91.6147 \; 44.9671 90.1783 \; 44.9602 87.7701 \; 44.8801 83.5587 \; 46.6425 78.4529 \; 46.6378 81.1784 \; \;;
#X scalar trace-template 195 0 13 \; 96.8347 3.96715 \; 96.8347 7.453 \; 96.8515 9.98363 \; 96.7496 14.7196 \; 96.7688 14.2273 \; 96.9433 19.3937 \; 96.9783 22.2008 \; 96.9515 24.758 \; 96.8929 27.8202 \; 96.858 28.1383 \; 96.8549 26.5709 \; 96.8347 24.672 \; 96.7611 22.2776 \; 96.8165 16.3046 \; 96.8541 14.6808 \; 96.9193 9.17078 \; 97.0874 5.10856 \; 96.9193 2.27542 \; \;;
#X scalar trace-template 195 0 22 \; 95.6038 0 \; \;;
#X scalar trace-template 200 0 4 \; 95.8751 22.107 \; 95.8279 26.9576 \; \;;
#X scalar trace-template 200 0 5 \; 97.9042 3.11895 \; 97.9042 6.97729 \; 97.8242 3.64691 \; \;;
#X scalar trace-template 200 0 22 \; 97.2539 0 \; 97.5006 6.58318 \; 97.6632 10.5823 \; 97.7302 15.7094 \; 97.7843 19.2857 \; 97.772 20.1153 \; 97.7007 25.5223 \; 97.6538 27.3252 \; 97.7009 27.7475 \; 97.7764 26.4355 \; 97.5058 18.5563 \; 97.5821 11.9932 \; 97.6327 14.5379 \; 97.7046 13.9135 \; 97.7439 9.11671 \; \;;
#X scalar trace-template 205 0 23 \; 78.5625 75.4892 \; 78.4401 77.5223 \; \;;
#X scalar trace-template 205 0 24 \; 69.5163 69.9572 \; 69.3736 70.6693 \; \;;
#X scalar trace-template 210 0 4 \; 97.0204 3.08842 \; \;;
#X scalar trace-template 215 0 4 \; 78.9103 81.8781 \; \;;
#X scalar trace-template 215 0 5 \; 56.1439 71.6734 \; 55.7775 66.7429 \; \;;
#X scalar trace-template 220 0 4 \; 5.36443 68.268 \; 7.63735 67.2287 \; \;;
#X scalar trace-template 220 0 23 \; 96.5782 8.85823 \; 96.6641 19.1334 \; 96.6641 20.8199 \; \;;
#X scalar trace-template 220 0 24 \; 97.1709 0 \; \;;
#X scalar trace-template 225 0 5 \; 57.8933 68.4314 \; \;;
#X scalar trace-template 225 0 24 \; 98.2986 0.361744 \; \;;
#X scalar trace-template 230 0 4 \; 73.1909 79.1756 \; 73.5563 72.7692 \; 73.6326 71.9096 \; 73.2571 79.4379 \; \;;
#X scalar trace-template 230 0 5 \; 80.6653 65.1041 \; 80.6869 64.3803 \; 80.7204 64.9222 \; 80.6731 63.9327 \; \;;
#X scalar trace-template 230 0 24 \; 97.8177 25.9951 \; \;;
#X scalar trace-template 235 0 23 \; 97.1631 6.94061 \; \;;
#X scalar trace-template 235 0 24 \; 99.0613 6.06697 \; \;;
#X scalar trace-template 240 0 23 \; 65.3823 69.3581 \; \;;
#X scalar trace-template 240 0 24 \; 62.4538 69.7075 \; \;;
#X scalar trace-template 245 0 8 \; 72.7921 79.5999 \; 72.8462 82.7584 \; 72.855 87.2156 \; 72.8609 89.8643 \; 72.8642 91.568 \; 72.8599 92.6428 \; 72.8611 93.2371 \; 72.8636 93.4052 \; 72.863 93.1653 \; 72.8606 92.4977 \; 72.8604 91.3283 \; 72.8646 89.4902 \; 72.8637 86.5825 \; 72.8507 81.4298 \; 73.2732 76.5155 \; 73.1979 81.7593 \; \;;
#X scalar trace-template 245 0 23 \; 99.1404 6.57228 \; \;;
#X scalar trace-template 245 0 24 \; 98.531 4.90536 \; 98.4538 4.42495 \; \;;
#X scalar trace-template 250 0 4 \; 4.76558 68.7398 \; 8.61985 66.2946 \; 4.79857 70.1423 \; \;;
#X scalar trace-template 250 0 5 \; 97.7584 21.6313 \; 97.8448 17.0177 \; 97.8242 8.98647 \; \;;
#X scalar trace-template 250 0 23 \; 96.6641 4.90124 \; \;;
#X scalar trace-template 255 0 23 \; 57.7228 69.0765 \; 57.8466 68.304 \; 57.3024 75.6045 \; \;;
#X scalar trace-template 255 0 24 \; 97.0874 0.951652 \; 97.0736 5.10422 \; \;;
#X scalar trace-template 265 0 4 \; 78.4339 77.2597 \; 78.4171 76.9324 \; \;;
#X scalar trace-template 265 0 5 \; 56.6579 78.772 \; 56.9286 78.0227 \; 56.9484 80.5253 \; 56.9463 82.0462 \; 56.9631 82.92 \; 56.9938 83.3017 \; 56.9929 83.0871 \; 56.9958 82.3766 \; 57.0007 81.066 \; 56.9728 78.8247 \; 56.8628 74.9768 \; 58.6403 66.2476 \; 58.0242 71.0315 \; \;;
#X scalar trace-template 270 0 17 \; 69.412 68.2939 \; 69.4447 71.4939 \; \;;
#X scalar trace-template 270 0 23 \; 97.2539 0 \; 97.2539 0 \; \;;
#X scalar trace-template 275 0 4 \; 78.9003 82.444 \; \;;
#X scalar trace-template 275 0 22 \; 96.5782 0 \; \;;
#X scalar trace-template 275 0 24 \; 95.2355 15.3174 \; 95.1463 24.3288 \; 95.0978 23.3181 \; 95.0483 19.5919 \; 94.9856 17.2368 \; 95.1422 14.3829 \; 94.8591 10.3035 \; 94.8591 6.65914 \; \;;
#X scalar trace-template 285 0 4 \; 42.8047 77.4689 \; 44.4276 82.0311 \; 44.8861 84.4584 \; 44.9565 88.4656 \; 44.9729 90.8449 \; 44.9724 92.3043 \; 44.98 93.1154 \; 44.9795 93.3848 \; 44.9925 93.1385 \; 44.9929 92.3295 \; 44.968 90.8182 \; 44.9314 88.2901 \; 44.8338 83.8092 \; 46.709 79.1097 \; 46.7789 81.5738 \; \;;
#X scalar trace-template 285 0 13 \; 76.2178 74.1252 \; 76.4006 65.5802 \; 76.2563 68.8133 \; 76.0303 74.1754 \; 76.0245 78.2168 \; 76.0277 80.832 \; 76.0181 82.6076 \; 76.0153 83.8583 \; 76.0062 84.7407 \; 76.0101 85.336 \; 76.0157 85.6751 \; 76.019 85.7909 \; 76.0188 85.7115 \; 76.0198 85.4594 \; 76.02 85.0437 \; 76.0174 84.4678 \; 76.0194 83.7414 \; 76.0219 82.8545 \; 76.0238 81.8081 \; 76.0279 80.6094 \; 76.0293 79.2507 \; 76.012 77.685 \; 76.0093 75.983 \; 76.001 74.0905 \; 75.9871 71.9995 \; 75.9895 69.701 \; 76.032 67.2328 \; 76.0319 64.4156 \; 76.0668 61.4672 \; 76.0849 57.7012 \; 75.9819 54.3038 \; 76.0715 50.582 \; 75.9429 45.9572 \; 76.0078 41.2078 \; 75.9344 34.7656 \; 75.9344 30.1977 \; 75.9344 20.6 \; \;;
#X scalar trace-template 285 0 17 \; 96.1106 18.8779 \; \;;
#X scalar trace-template 290 0 17 \; 64.2409 82.721 \; 64.7608 77.2728 \; 64.5284 81.963 \; \;;
#X scalar trace-template 290 0 20 \; 97.6632 0 \; \;;
#X scalar trace-template 295 0 6 \; 95.5125 0 \; \;;
#X scalar trace-template 300 0 6 \; 96.0535 7.25579 \; 96.1295 2.7751 \; 96.2302 0 \; \;;
#X scalar trace-template 305 0 17 \; 93.783 23.7441 \; \;;
#X scalar trace-template 305 0 19 \; 95.4206 0 \; \;;
#X scalar trace-template 315 0 6 \; 72.303 76.1778 \; \;;
#X scalar trace-template 315 0 17 \; 92.8388 18.2615 \; 92.4109 8.79993 \; \;;
#X scalar trace-template 320 0 6 \; 72.7972 82.9424 \; 72.8551 85.6068 \; 72.8597 89.1932 \; 72.8644 91.5295 \; 72.8645 93.1506 \; 72.8608 94.2876 \; 72.8596 95.0609 \; 72.8616 95.5447 \; 72.864 95.78 \; 72.863 95.7936 \; 72.8619 95.6048 \; 72.8619 95.2274 \; 72.8634 94.6713 \; 72.8636 93.9398 \; 72.8611 93.0314 \; 72.8631 91.9432 \; 72.8646 90.6721 \; 72.8663 89.2149 \; 72.8638 87.5628 \; 72.8581 85.698 \; 72.8619 83.6069 \; 72.8654 81.2701 \; 72.861 78.6708 \; 72.845 75.7743 \; 72.8665 72.522 \; 72.8568 68.874 \; 72.8985 64.7884 \; 72.9076 60.1845 \; 72.7442 55.0664 \; 73.004 49.0701 \; 72.8347 41.67 \; 73.3488 32.2935 \; \;;
#X scalar trace-template 320 0 19 \; 56.933 65.9449 \; 56.6657 72.2254 \; 56.7827 74.1226 \; 56.9213 78.6086 \; 56.9777 81.2573 \; 57.0049 82.9186 \; 56.9944 83.9152 \; 57.0092 84.4199 \; 57.0006 84.3845 \; 56.9763 83.8865 \; 56.9761 82.8656 \; 56.9666 81.0522 \; 57.1373 77.9623 \; 56.1995 73.5998 \; 55.7407 67.613 \; \;;
#X scalar trace-template 320 0 20 \; 4.76558 69.5509 \; \;;
#X scalar trace-template 320 0 21 \; 93.4734 0 \; \;;
#X scalar trace-template 320 0 22 \; 96.1421 0 \; \;;
#X scalar trace-template 325 0 8 \; 91.1616 4.34875 \; \;;
#X scalar trace-template 325 0 17 \; 93.1614 8.77091 \; 93.2661 12.223 \; 93.0562 9.19646 \; \;;
#X scalar trace-template 325 0 20 \; 92.0791 26.7621 \; \;;
#X scalar trace-template 335 0 5 \; 68.6287 69.6194 \; 68.9738 64.4281 \; 69.1136 71.3124 \; 69.0446 77.1291 \; 69.0225 80.4267 \; 69.0192 82.6094 \; 69.0036 84.1478 \; 68.9977 85.1996 \; 68.9928 85.9018 \; 68.9954 86.2879 \; 68.9985 86.4054 \; 69.0032 86.2866 \; 68.9964 85.9692 \; 68.9963 85.4402 \; 68.9983 84.714 \; 68.9987 83.7959 \; 68.9989 82.6693 \; 69.0115 81.3061 \; 69.0216 79.7133 \; 69.03 77.873 \; 69.0218 75.7894 \; 68.9732 73.4707 \; 68.9922 70.7117 \; 68.9705 67.6343 \; 68.9022 64.2553 \; 68.9076 59.5716 \; 69.1404 54.9381 \; 68.7975 49.7304 \; 69.3496 42.4314 \; 69.701 32.7055 \; 70.0189 26.4845 \; 69.8808 24.6219 \; \;;
#X scalar trace-template 340 0 8 \; 93.8808 5.05833 \; \;;
#X scalar trace-template 345 0 1 \; 93.0562 3.15116 \; 92.9503 0.317391 \; \;;
#X scalar trace-template 345 0 8 \; 94.2788 0 \; 94.2788 0 \; \;;
#X scalar trace-template 350 0 15 \; 42.8047 78.0783 \; 44.1133 82.2591 \; 44.8949 86.1314 \; 44.9618 89.9247 \; 44.9772 92.2285 \; 44.9893 93.6798 \; 44.9907 94.5071 \; 44.9827 94.7971 \; 44.9767 94.587 \; 44.968 93.8297 \; 44.9828 92.3947 \; 44.9593 89.9273 \; 44.8361 85.4579 \; 46.7573 80.8352 \; 46.6471 84.4327 \; \;;
#X scalar trace-template 350 0 16 \; 90.1929 6.44756 \; \;;
#X scalar trace-template 355 0 1 \; 91.7407 11.1205 \; \;;
#X scalar trace-template 360 0 1 \; 64.9218 77.5529 \; 64.8086 77.7454 \; 64.4857 84.7229 \; \;;
#X scalar trace-template 360 0 4 \; 90.8756 10.1547 \; 90.8047 7.58101 \; \;;
#X scalar trace-template 370 0 0 \; 63.8761 86.0926 \; 64.0515 87.9029 \; 64.0358 91.1032 \; 64.0328 93.2084 \; 64.0306 94.658 \; 64.0236 95.653 \; 64.022 96.2721 \; 64.0238 96.5767 \; 64.0246 96.6097 \; 64.0241 96.3922 \; 64.0214 95.9371 \; 64.0225 95.2349 \; 64.0256 94.2871 \; 64.0235 93.0977 \; 64.019 91.6413 \; 64.027 89.8566 \; 64.035 87.7337 \; 64.041 85.23 \; 64.0238 82.317 \; 63.9963 78.8589 \; 64.0433 74.4949 \; 64.0889 69.1758 \; 64.0192 62.7031 \; 63.6532 54.1417 \; 63.9166 43.7642 \; 63.7019 40.4724 \; 63.6873 38.7487 \; 64.2558 37.4354 \; 64.1775 39.5095 \; 64.2125 39.6132 \; 64.3341 38.6136 \; 64.3759 36.6292 \; 63.7596 38.3981 \; 64.2159 39.3635 \; 63.7444 39.7946 \; 64.1616 39.0237 \; 63.6885 38.1393 \; 64.2558 36.8219 \; 64.1751 38.8817 \; 64.2131 38.9934 \; 64.3345 37.9871 \; 64.3766 35.9951 \; 63.7585 37.7622 \; 64.2159 38.7234 \; 63.7444 39.1493 \; 64.162 38.3752 \; 63.6898 37.4838 \; 64.2558 36.1618 \; 64.1722 38.2051 \; 64.2137 38.326 \; 64.3349 37.3118 \; 64.3775 35.311 \; 63.7572 37.076 \; 64.2159 38.0324 \; 63.7444 38.4523 \; 64.1626 37.6744 \; 63.6913 36.7748 \; 64.2558 35.4474 \; 64.1689 37.4714 \; 64.2144 37.603 \; 64.3354 36.5795 \; 64.3785 34.5684 \; 63.7557 36.331 \; 64.2159 37.2816 \; 63.7444 37.6944 \; 64.1632 36.912 \; 63.6931 36.0027 \; 64.2559 34.6689 \; 64.165 36.6701 \; 64.2152 36.8143 \; 64.336 35.7799 \; 64.3789 33.7605 \; 63.7539 35.516 \; 64.2159 36.4597 \; 63.7444 36.864 \; 64.164 36.0763 \; 63.6953 35.1554 \; 64.2559 33.8136 \; 64.1602 35.7876 \; 64.2159 35.9454 \; 64.3368 34.899 \; 64.3804 32.8646 \; 63.7517 34.6166 \; 64.2159 35.5518 \; 63.7444 35.9457 \; 64.1649 35.1514 \; 63.698 34.2164 \; 64.2559 32.8648 \; 64.1543 34.8056 \; 64.2159 34.9751 \; 64.3377 33.9187 \; 64.3822 31.8656 \; 63.7489 33.6133 \; 64.2159 34.5379 \; 63.7444 34.9188 \; 64.1661 34.1163 \; 63.7014 33.1635 \; 64.2559 31.7996 \; 64.1469 33.6987 \; 64.2159 33.8826 \; 64.3389 32.8134 \; 64.3845 30.7365 \; 63.7454 32.4789 \; 64.2159 33.3898 \; 63.7444 33.754 \; 64.1676 32.9408 \; 63.7057 31.9653 \; 64.2559 30.5851 \; 64.1372 32.431 \; 64.2159 32.6327 \; 64.3405 31.5468 \; 64.3876 29.4385 \; 63.7407 31.1739 \; 64.2159 32.0665 \; 63.7444 32.4085 \; 64.1696 31.581 \; 63.7116 30.5753 \; 64.256 29.1727 \; 64.124 30.9478 \; 64.2159 31.1722 \; 64.3427 30.0634 \; 64.3919 27.9119 \; 63.7342 29.6378 \; 64.2159 30.5047 \; 63.7444 30.8156 \; 64.1724 29.9681 \; 63.72 28.9201 \; 64.2562 27.4849 \; 64.105 29.1617 \; 64.2159 29.4155 \; 64.3459 28.2736 \; 64.3983 26.0588 \; 63.7247 27.7712 \; 64.2159 28.5992 \; 63.7443 28.8638 \; 64.1765 27.9858 \; 63.7328 26.8746 \; 64.2565 25.3877 \; 64.0754 26.9186 \; 64.2159 27.2113 \; 64.3511 26.0168 \; 64.4087 23.7005 \; 63.709 25.3921 \; 64.2125 26.1371 \; 63.7441 26.3425 \; 64.1835 25.4129 \; 63.7549 24.1973 \; 64.2574 22.6159 \; 64.0229 23.9103 \; 64.2159 24.2504 \; 64.361 22.9604 \; 64.4287 20.4551 \; 63.679 22.1106 \; 64.2026 22.6729 \; 63.7435 22.7773 \; 64.1975 21.741 \; 63.0613 0 \; \;;
#X scalar trace-template 375 0 1 \; 90.5625 0 \; \;;
#X scalar trace-template 375 0 4 \; 89.6874 13.828 \; 89.772 13.7879 \; 89.6504 15.0541 \; 89.4725 10.2405 \; \;;
#X scalar trace-template 375 0 8 \; 91.0435 0 \; \;;
#X scalar trace-template 380 0 1 \; 6.41327 69.3295 \; \;;
#X scalar trace-template 385 0 1 \; 58.2714 72.6379 \; 58.0893 68.693 \; 57.4235 72.7429 \; 57.123 78.6629 \; 57.0053 82.0748 \; 57.0044 84.2676 \; 56.9947 85.7487 \; 56.9769 86.712 \; 56.9599 87.3037 \; 56.9611 87.5579 \; 56.9767 87.5123 \; 56.9945 87.1735 \; 56.9971 86.5298 \; 56.9916 85.5772 \; 56.9932 84.3051 \; 56.9807 82.6402 \; 56.9761 80.5245 \; 57.0155 77.8712 \; 57.1342 74.2595 \; 57.1628 69.7042 \; 57.5508 63.3464 \; 57.0226 57.3904 \; 55.9139 51.806 \; \;;
#X scalar trace-template 385 0 7 \; 88.6298 0 \; \;;
#X scalar trace-template 390 0 7 \; 84.837 39.6853 \; 84.8347 36.1723 \; 84.9512 31.4805 \; 84.6367 26.6581 \; 84.9353 24.3279 \; 85.0036 20.2563 \; 84.8347 14.7105 \; 84.4919 7.91235 \; \;;
#X scalar trace-template 390 0 8 \; 89.1666 1.38339 \; \;;
#X scalar trace-template 400 0 4 \; 86.4356 30.2072 \; \;;
#X scalar trace-template 400 0 8 \; 83.7851 18.5979 \; \;;
#X scalar trace-template 400 0 10 \; 87.0613 0 \; 86.9115 22.1332 \; 86.6077 20.672 \; 86.6077 15.2933 \; 86.4538 9.78618 \; \;;
#X scalar trace-template 405 0 4 \; 85.4023 16.0204 \; \;;
#X scalar trace-template 415 0 4 \; 42.8047 79.8733 \; 44.3556 84.9418 \; 44.9027 88.3578 \; 44.9538 92.2993 \; 44.9808 94.809 \; 44.9945 96.4997 \; 44.9873 97.6235 \; 44.9783 98.3018 \; 44.9837 98.5954 \; 44.9874 98.5178 \; 44.9908 98.0614 \; 44.9853 97.1756 \; 44.9809 95.774 \; 44.9798 93.6636 \; 45.0132 90.7996 \; 45.0609 88.1303 \; 45.0169 86.9317 \; 45.0013 86.7649 \; 45.0016 86.7059 \; 45.0015 86.6471 \; 45.0004 86.5874 \; 44.9994 86.5272 \; 44.9983 86.4661 \; 44.9986 86.4051 \; 44.9982 86.3425 \; 44.9995 86.2808 \; 44.9999 86.218 \; 45.0014 86.1559 \; 45.0017 86.0926 \; 45.0015 86.0294 \; 45.0004 85.9653 \; 44.9993 85.9006 \; 44.9982 85.8349 \; 44.9985 85.7693 \; 44.9982 85.702 \; 44.9995 85.6356 \; 45 85.5679 \; 45.0015 85.5009 \; 45.0018 85.4326 \; 45.0016 85.3643 \; 45.0004 85.2952 \; 44.9992 85.2252 \; 44.9981 85.1543 \; 44.9984 85.0833 \; 44.9981 85.0105 \; 44.9995 84.9385 \; 45.0001 84.8652 \; 45.0017 84.7924 \; 45.0019 84.7183 \; 45.0017 84.6441 \; 45.0004 84.5689 \; 44.9991 84.4929 \; 44.9979 84.4158 \; 44.9983 84.3384 \; 44.9981 84.2592 \; 44.9995 84.1806 \; 45.0002 84.1006 \; 45.0018 84.021 \; 45.0021 83.94 \; 45.0018 83.8588 \; 45.0004 83.7764 \; 44.9989 83.6931 \; 44.9977 83.6085 \; 44.9981 83.5236 \; 44.998 83.4366 \; 44.9995 83.3502 \; 45.0003 83.2621 \; 45.002 83.1744 \; 45.0023 83.085 \; 45.0019 82.9953 \; 45.0003 82.9043 \; 44.9987 82.8121 \; 44.9975 82.7185 \; 44.9979 82.6244 \; 44.9979 82.528 \; 44.9995 82.4319 \; 45.0004 82.334 \; 45.0023 82.2362 \; 45.0026 82.1366 \; 45.0021 82.0364 \; 45.0003 81.9347 \; 44.9985 81.8316 \; 44.9972 81.7268 \; 44.9976 81.6212 \; 44.9977 81.5131 \; 44.9995 81.4049 \; 45.0005 81.2946 \; 45.0025 81.1843 \; 45.0029 81.0718 \; 45.0023 80.9584 \; 45.0003 80.8431 \; 44.9982 80.7261 \; 44.9968 80.6071 \; 44.9973 80.4868 \; 44.9976 80.3636 \; 44.9996 80.24 \; 45.0008 80.1139 \; 45.0029 79.9872 \; 45.0033 79.8579 \; 45.0026 79.7273 \; 45.0002 79.5943 \; 44.9979 79.4591 \; 44.9963 79.3213 \; 44.9968 79.1817 \; 44.9973 79.0386 \; 44.9996 78.8943 \; 45.001 78.7469 \; 45.0034 78.5983 \; 45.0039 78.4464 \; 45.0029 78.2925 \; 45.0001 78.1354 \; 44.9974 77.9752 \; 44.9955 77.8116 \; 44.9962 77.6453 \; 44.997 77.4743 \; 44.9996 77.3012 \; 45.0014 77.1239 \; 45.0041 76.9442 \; 45.0047 76.7602 \; 45.0034 76.5728 \; 45 76.381 \; 44.9966 76.1846 \; 44.9945 75.9832 \; 44.9953 75.7773 \; 44.9965 75.5651 \; 44.9996 75.3488 \; 45.002 75.1263 \; 45.0052 74.8994 \; 45.006 74.6658 \; 45.0042 74.4265 \; 44.9998 74.18 \; 44.9954 73.9262 \; 44.9927 73.6642 \; 44.9937 73.3944 \; 44.9956 73.1144 \; 44.9995 72.8263 \; 45.0029 72.5276 \; 45.007 72.2198 \; 45.0081 71.9003 \; 45.0055 71.5693 \; 44.9994 71.2249 \; 44.9931 70.8661 \; 44.9894 70.4913 \; 44.9907 70.0997 \; 44.9937 69.688 \; 44.9993 69.2567 \; 45.0046 68.8023 \; 45.0107 68.3247 \; 45.0126 67.8191 \; 45.0083 67.283 \; 44.9982 66.7115 \; 44.9872 66.0995 \; 44.9804 65.4404 \; 44.9818 64.727 \; 44.9876 63.9473 \; 44.9976 63.0912 \; 45.0089 62.141 \; 45.0219 61.0767 \; 45.0282 59.8647 \; 45.0178 58.4565 \; 44.9867 56.7753 \; 44.9391 54.6897 \; 44.8799 51.9388 \; 44.8069 47.9159 \; 44.6739 41.3823 \; 41.7318 33.4471 \; \;;
#X scalar trace-template 425 0 8 \; 81.4734 25.3062 \; 81.2661 33.0558 \; 80.815 31.7216 \; \;;
#X scalar trace-template 430 0 7 \; 79.7407 25.0318 \; \;;
#X scalar trace-template 430 0 9 \; 83.6038 22.8978 \; \;;
#X scalar trace-template 435 0 7 \; 80.6287 25.7562 \; 79.967 7.33481 \; \;;
#X scalar trace-template 435 0 9 \; 81.8517 23.5728 \; 81.4734 20.5464 \; 81.6783 9.55527 \; 81.0562 8.42605 \; \;;
#X scalar trace-template 435 0 10 \; 82.0083 22.4273 \; \;;
#X scalar trace-template 440 0 8 \; 7.30835 74.4825 \; 7.51933 71.4624 \; 4.76558 74.4351 \; \;;
#X scalar trace-template 450 0 2 \; 74.4538 30.0269 \; \;;
#X scalar trace-template 455 0 2 \; 76.9775 29.6302 \; \;;
#X scalar trace-template 455 0 7 \; 77.5586 29.9296 \; \;;
#X scalar trace-template 455 0 8 \; 77.8151 30.4406 \; \;;
#X scalar trace-template 480 0 2 \; 71.4206 18.1551 \; 72.7009 21.3218 \; 72.8347 20.6793 \; \;;
#X scalar trace-template 485 0 3 \; 54.2229 57.6674 \; \;;
#X scalar trace-template 485 0 6 \; 67.279 32.6317 \; 67.5427 27.0355 \; 66.8047 30.6641 \; \;;
#X scalar trace-template 485 0 7 \; 71.0483 22.2728 \; 71.0828 22.8343 \; 71.0483 16.2429 \; \;;
#X scalar trace-template 485 0 8 \; 74.7603 16.3789 \; 74.7603 18.9303 \; 74.457 17.9614 \; \;;
#X scalar trace-template 485 0 9 \; 75.8928 13.9449 \; 75.6483 17.2573 \; \;;
#X scalar trace-template 485 0 10 \; 77.034 14.2405 \; 77.2983 15.6823 \; 76.7656 19.4916 \; \;;
#X scalar trace-template 485 0 11 \; 78.5625 12.6689 \; 78.492 13.4439 \; \;;
#X scalar trace-template 485 0 12 \; 79.279 11.9306 \; 79.279 13.1629 \; 79.279 5.71101 \; \;;
#X scalar trace-template 485 0 13 \; 80.0076 10.0026 \; \;;
#X scalar trace-template 485 0 14 \; 80.9335 8.49943 \; 80.6287 11.902 \; \;;
#X scalar trace-template 485 0 15 \; 81.41 7.85108 \; 81.4911 9.30163 \; 81.409 10.8965 \; \;;
#X scalar trace-template 485 0 16 \; 82.2788 7.98934 \; 82.2788 9.88411 \; \;;
#X scalar trace-template 485 0 17 \; 82.5013 7.70514 \; \;;
#X scalar trace-template 485 0 18 \; 85.3365 4.94512 \; 84.8347 7.01905 \; 84.9346 6.70218 \; \;;
#X scalar trace-template 485 0 19 \; 86.4084 2.97189 \; 86.2986 5.5175 \; 86.1773 7.9545 \; \;;
#X scalar trace-template 485 0 20 \; 86.898 2.28097 \; 87.0613 4.65177 \; \;;
#X scalar trace-template 485 0 21 \; 87.391 1.0579 \; \;;
#X scalar trace-template 485 0 22 \; 87.9045 1.30925 \; 87.8139 2.74502 \; 87.6483 0 \; \;;
#X scalar trace-template 485 0 23 \; 88.1939 0 \; 88.355 3.37265 \; \;;
#X scalar trace-template 485 0 24 \; 90.1929 0 \; \;;
#X scalar trace-template 490 0 3 \; 83.4127 8.76711 \; 83.0659 13.007 \; \;;
#X scalar trace-template 490 0 13 \; 84.0497 6.809 \; \;;
#X scalar trace-template 490 0 17 \; 85.7537 5.31561 \; \;;
#X scalar trace-template 490 0 21 \; 89.6346 0.789199 \; 90.0945 0 \; \;;
#X scalar trace-template 490 0 24 \; 89.034 2.50734 \; 89.0866 2.73463 \; \;;
#X scalar trace-template 495 0 2 \; 57.9142 49.5559 \; 57.304 54.3831 \; 57.0093 54.8997 \; 56.9821 54.8052 \; 56.9691 54.7236 \; 57.0355 54.7331 \; 57.0392 54.6734 \; 57.2032 54.1583 \; 57.9479 49.5922 \; 57.6415 42.7793 \; 57.9766 49.4605 \; \;;
#X scalar trace-template 495 0 5 \; 59.0483 41.8266 \; \;;
#X scalar trace-template 495 0 9 \; 67.5866 30.3253 \; \;;
#X scalar trace-template 495 0 11 \; 73.8242 20.1284 \; \;;
#X scalar trace-template 495 0 13 \; 77.068 18.779 \; \;;
#X scalar trace-template 495 0 14 \; 81.0642 13.0704 \; \;;
#X scalar trace-template 495 0 16 \; 83.2432 12.3613 \; \;;
#X scalar trace-template 495 0 17 \; 84.5279 7.09676 \; \;;
#X scalar trace-template 495 0 20 \; 86.3839 6.59161 \; \;;
#X scalar trace-template 495 0 23 \; 88.8144 2.89977 \; \;;
#X scalar trace-template 505 0 1 \; 60.4919 12.8418 \; \;;
#X scalar trace-template 515 0 1 \; 59.0483 14.1561 \; \;;
#X scalar trace-template 515 0 3 \; 65.2983 20.4716 \; \;;
#X scalar trace-template 525 0 1 \; 60.4919 13.2884 \; \;;
#X scalar trace-template 535 0 1 \; 56.6287 47.0042 \; 56.9662 53.1813 \; 56.6287 47.0362 \; 57.3038 53.7743 \; 57.0079 54.2855 \; 56.9809 54.1868 \; 56.9693 54.1016 \; 57.037 54.1077 \; 57.0406 54.0431 \; 57.2033 53.5223 \; 57.9482 48.9522 \; 57.6429 42.1167 \; 57.976 48.8099 \; \;;
#X scalar trace-template 555 0 2 \; 60.4919 12.1259 \; \;;
#X scalar trace-template 565 0 2 \; 59.0483 13.595 \; \;;
#X scalar trace-template 565 0 3 \; 65.2983 19.8778 \; \;;
#X scalar trace-template 575 0 2 \; 60.4919 12.7492 \; \;;
#X scalar trace-template 585 0 2 \; 56.6287 46.3646 \; 56.9659 52.535 \; 56.6287 46.3854 \; 57.3036 53.1195 \; 57.0062 53.6246 \; 56.9795 53.5209 \; 56.9696 53.4315 \; 57.0387 53.4337 \; 57.0422 53.3635 \; 57.2035 52.836 \; 57.9487 48.2613 \; 57.6446 41.3997 \; 57.9753 48.1066 \; \;;
#X scalar trace-template 605 0 1 \; 60.4919 11.3449 \; \;;
#X scalar trace-template 615 0 1 \; 59.0483 12.9947 \; \;;
#X scalar trace-template 615 0 3 \; 65.2983 19.2402 \; \;;
#X scalar trace-template 625 0 1 \; 60.4919 12.1753 \; \;;
#X scalar trace-template 635 0 1 \; 56.6287 45.6741 \; 56.9655 51.8368 \; 56.6287 45.6819 \; 57.3034 52.4114 \; 57.0043 52.9093 \; 56.9778 52.7997 \; 56.9698 52.7055 \; 57.0407 52.703 \; 57.0441 52.6262 \; 57.2037 52.0907 \; 57.9492 47.5107 \; 57.6466 40.6178 \; 57.9745 47.3413 \; \;;
#X scalar trace-template 655 0 2 \; 60.4919 10.4887 \; \;;
#X scalar trace-template 665 0 2 \; 59.0483 12.3511 \; \;;
#X scalar trace-template 665 0 3 \; 65.2983 18.5522 \; \;;
#X scalar trace-template 675 0 2 \; 60.4919 11.5607 \; \;;
#X scalar trace-template 685 0 2 \; 56.6287 44.9241 \; 56.9651 51.0775 \; 56.6287 44.9163 \; 57.3031 51.6404 \; 57.0019 52.1297 \; 56.9758 52.0132 \; 56.9701 51.9131 \; 57.0431 51.9051 \; 57.4241 51.1332 \; 57.204 51.2755 \; 57.9498 46.6891 \; 57.6491 39.7589 \; 57.9735 46.502 \; \;;
#X scalar trace-template 705 0 1 \; 60.4919 9.53841 \; \;;
#X scalar trace-template 715 0 1 \; 59.0483 11.6541 \; \;;
#X scalar trace-template 715 0 3 \; 65.2983 17.8048 \; \;;
#X scalar trace-template 725 0 1 \; 60.4919 17.2001 \; \;;
#X scalar trace-template 735 0 1 \; 56.6287 44.103 \; 56.9645 50.2454 \; 56.6287 44.0768 \; 57.3028 50.7942 \; 56.9991 51.2732 \; 56.9733 51.1483 \; 56.9705 51.0412 \; 57.046 51.0266 \; 57.4246 50.2428 \; 57.2043 50.3757 \; 57.9506 45.7815 \; 57.6521 38.8056 \; 57.9722 45.573 \; \;;
#X scalar trace-template 755 0 2 \; 60.4919 8.47206 \; \;;
#X scalar trace-template 765 0 2 \; 59.0483 10.9 \; \;;
#X scalar trace-template 765 0 3 \; 65.2983 16.974 \; \;;
#X scalar trace-template 775 0 2 \; 60.4919 16.3582 \; \;;
#X scalar trace-template 785 0 2 \; 56.6287 43.1964 \; 56.9639 49.3251 \; 56.6287 43.1473 \; 57.3024 49.8565 \; 56.9957 50.323 \; 56.9703 50.1878 \; 56.971 50.0718 \; 57.0496 50.049 \; 57.4251 49.2507 \; 57.2046 49.3718 \; 57.9515 44.7681 \; 57.6561 37.7348 \; 57.9707 44.5325 \; \;;
#X scalar trace-template 805 0 1 \; 60.4919 7.25866 \; \;;
#X scalar trace-template 815 0 1 \; 59.0483 10.0727 \; \;;
#X scalar trace-template 815 0 3 \; 65.2983 16.0079 \; \;;
#X scalar trace-template 825 0 1 \; 60.4919 15.4262 \; \;;
#X scalar trace-template 835 0 1 \; 56.6287 42.184 \; 56.963 48.2955 \; 56.6287 42.1065 \; 57.302 48.8053 \; 56.9914 49.256 \; 56.9665 49.1077 \; 56.9715 48.9806 \; 57.0542 48.9475 \; 57.4258 48.1304 \; 57.2051 48.2365 \; 57.9527 43.6207 \; 57.6613 36.5133 \; 57.9687 43.3504 \; \;;
#X scalar trace-template 855 0 2 \; 60.4919 5.84993 \; \;;
#X scalar trace-template 865 0 2 \; 59.0483 9.15944 \; \;;
#X scalar trace-template 865 0 3 \; 65.2983 14.9208 \; \;;
#X scalar trace-template 875 0 2 \; 60.4919 14.3817 \; \;;
#X scalar trace-template 885 0 2 \; 56.6287 41.0379 \; 56.962 47.1275 \; 56.6287 40.9239 \; 57.3013 47.6091 \; 56.9857 48.0394 \; 56.9616 47.874 \; 56.9723 47.7322 \; 57.0602 47.6857 \; 57.4266 46.844 \; 57.2058 46.9303 \; 57.9542 42.2984 \; 57.6685 35.0922 \; 57.9659 41.9819 \; \;;
#X scalar trace-template 905 0 1 \; 60.4919 4.17411 \; \;;
#X scalar trace-template 915 0 1 \; 59.0483 8.14029 \; \;;
#X scalar trace-template 915 0 3 \; 65.2983 13.6781 \; \;;
#X scalar trace-template 925 0 1 \; 60.4919 13.1943 \; \;;
#X scalar trace-template 935 0 1 \; 56.6287 39.7177 \; 56.9605 45.7776 \; 56.6287 39.5549 \; 57.3005 46.2214 \; 56.9781 46.6244 \; 56.9548 46.4358 \; 56.9732 46.2738 \; 57.0684 46.2093 \; 57.4278 45.3333 \; 57.2067 45.3923 \; 57.9563 40.7384 \; 57.6793 33.3932 \; 57.962 40.3571 \; \;;
#X scalar trace-template 955 0 2 \; 60.4919 2.10769 \; \;;
#X scalar trace-template 965 0 2 \; 59.0483 6.98749 \; \;;
#X scalar trace-template 965 0 3 \; 65.2983 12.2277 \; \;;
#X scalar trace-template 975 0 2 \; 60.4919 11.8187 \; \;;
#X scalar trace-template 985 0 2 \; 56.6287 38.1607 \; 56.9585 44.1788 \; 56.6287 37.9295 \; 57.2993 44.5691 \; 56.9672 44.9337 \; 56.9451 44.7115 \; 56.9745 44.52 \; 57.0803 44.43 \; 57.4297 43.5035 \; 57.2081 43.5221 \; 57.9593 38.8362 \; 57.6967 31.2816 \; 57.956 38.3577 \; \;;
#X scalar trace-template 1005 0 1 \; 60.4919 0 \; \;;
#X scalar trace-template 1015 0 1 \; 59.0483 5.6604 \; \;;
#X scalar trace-template 1015 0 3 \; 65.2983 10.4862 \; \;;
#X scalar trace-template 1025 0 1 \; 60.4919 10.1837 \; \;;
#X scalar trace-template 1035 0 1 \; 56.6287 36.2635 \; 56.9554 42.2181 \; 56.6287 35.9295 \; 57.2975 42.527 \; 56.9504 42.8332 \; 56.9298 42.5587 \; 56.9765 42.32 \; 57.0993 42.1909 \; 57.4326 41.1823 \; 57.2103 41.1353 \; 57.964 36.3988 \; 57.7298 28.4941 \; 57.9455 35.7586 \; \;;
#X scalar trace-template 1055 0 2 \; 60.4919 0 \; \;;
#X scalar trace-template 1065 0 2 \; 59.0483 4.09634 \; \;;
#X scalar trace-template 1065 0 3 \; 65.2983 8.30713 \; \;;
#X scalar trace-template 1075 0 2 \; 60.4919 8.16856 \; \;;
#X scalar trace-template 1085 0 2 \; 56.6287 33.8354 \; 56.9501 39.6828 \; 56.6287 33.3302 \; 57.2945 39.852 \; 56.9211 40.0598 \; 56.9024 39.6922 \; 56.9794 39.3661 \; 57.1343 39.1701 \; 57.4382 38.0055 \; 57.2147 37.8335 \; 57.9722 33.005 \; 57.8137 24.4081 \; 57.923 32.043 \; 57.2911 35.9699 \; 56.857 35.9734 \; 56.8389 35.395 \; 56.9837 34.8534 \; 57.2194 34.5205 \; 57.4533 32.9455 \; 57.2272 32.4419 \; 57.9873 27.4013 \; 58.2788 17.3492 \; 57.8427 25.5164 \; 58.2501 17.5127 \; \;;
#X scalar trace-template 1105 0 1 \; 60.4919 0 \; \;;
#X scalar trace-template 1115 0 1 \; 59.0483 2.18463 \; \;;
#X scalar trace-template 1115 0 3 \; 65.2983 5.39532 \; \;;
#X scalar trace-template 1125 0 1 \; 60.4919 5.54098 \; \;;
#X scalar trace-template 1135 0 1 \; 56.6287 30.4634 \; 56.9391 36.0911 \; 56.6287 29.6175 \; \;;
#X scalar trace-template 1150 0 1 \; 64.0772 20.2609 \; 64.2608 18.5152 \; 63.9039 19.3765 \; 64.2159 19.7255 \; 64.387 18.2077 \; 64.4832 15.2285 \; 63.5975 16.8124 \; 64.1713 16.8191 \; 63.7397 16.6396 \; 64.2159 15.1255 \; 64.112 13.048 \; 64.2928 10.4079 \; 63.2976 7.32158 \; 64.2159 9.77978 \; 64.5376 7.02737 \; 65.094 1.82464 \; 63.6483 0 \; 63.2573 0 \; 63.4505 0 \; 62.0639 0 \; \;;
#X scalar trace-template 1155 0 0 \; 60.4919 0 \; \;;
#X scalar trace-template 1165 0 0 \; 59.0483 0 \; \;;
#X scalar trace-template 1165 0 3 \; 65.2983 1.00464 \; \;;
#X scalar trace-template 1175 0 0 \; 60.4919 1.76236 \; \;;
#X scalar trace-template 1185 0 0 \; 56.6287 24.9503 \; 56.9031 29.8942 \; 56.6287 23.1262 \; 56.5212 27.8907 \; 56.6056 28.1543 \; 56.5383 26.7262 \; 56.9161 24.7792 \; 57.4734 23.4403 \; 57.6129 19.45 \; 57.6843 15.1642 \; 58.2788 8.5439 \; 59.2508 0 \; \;;
#X scalar trace-template 1200 0 3 \; 61.8242 0 \; 60.4919 0 \; 59.0483 4.14434 \; 58.2788 9.9156 \; 59.7851 2.1771 \; \;;
#X scalar trace-template 1215 0 2 \; 65.2983 0 \; \;;
#X scalar trace-template 1220 0 2 \; 60.4919 0 \; 60.4919 0 \; \;;
#X scalar trace-template 1230 0 2 \; 65.2983 0 \; 66.6416 0 \; 65.8254 0 \; \;;
#X scalar trace-template 1235 0 3 \; 53.4214 12.3794 \; 55.7407 0 \; \;;
#X scalar trace-template 1235 0 5 \; 68.5542 0 \; 68.1964 0 \; 67.7523 0 \; \;;
#X scalar trace-template 1235 0 6 \; 69.2943 0 \; \;;
#X scalar trace-template 1235 0 7 \; 71.0483 0 \; 70.2058 0 \; 71.1092 0 \; \;;
#X scalar trace-template 1235 0 8 \; 71.7851 0 \; 71.9756 0 \; 71.7851 0 \; \;;
#X scalar trace-template 1235 0 9 \; 72.9379 0 \; \;;
#X scalar trace-template 1235 0 10 \; 74.2168 0 \; 73.6119 0 \; \;;
#X scalar trace-template 1235 0 11 \; 75.3049 0 \; 75.1028 0 \; 74.6096 0 \; \;;
#X scalar trace-template 1235 0 12 \; 76.0743 0 \; 76.4725 0 \; \;;
#X scalar trace-template 1235 0 13 \; 77.034 0 \; \;;
#X scalar trace-template 1235 0 14 \; 77.5586 0 \; 77.6711 0 \; 77.3146 0 \; \;;
#X scalar trace-template 1235 0 15 \; 78.317 0 \; \;;
#X scalar trace-template 1235 0 16 \; 79.0435 0 \; 78.8581 0 \; \;;
#X scalar trace-template 1235 0 17 \; 79.9656 0 \; 79.8535 0 \; 79.5451 0 \; \;;
#X scalar trace-template 1235 0 18 \; 80.6988 0 \; 80.9108 0 \; \;;
#X scalar trace-template 1235 0 19 \; 81.4641 0 \; \;;
#X scalar trace-template 1235 0 20 \; 82.0028 0 \; 81.9294 0 \; 81.5238 0 \; \;;
#X scalar trace-template 1235 0 21 \; 82.6678 0 \; 82.747 0 \; \;;
#X scalar trace-template 1235 0 22 \; 83.2355 0 \; \;;
#X scalar trace-template 1235 0 23 \; 83.6038 0 \; 83.6528 0 \; 83.2959 0 \; \;;
#X scalar trace-template 1235 0 24 \; 84.1421 0 \; 84.5325 0 \; \;;
#X scalar trace-template 1240 0 6 \; 45.5784 33.367 \; \;;
#X scalar trace-template 1240 0 9 \; 85.2291 0 \; 84.9007 0 \; \;;
#X scalar trace-template 1240 0 13 \; 86.0201 0 \; 86.3686 0 \; \;;
#X scalar trace-template 1240 0 15 \; 86.7937 0 \; \;;
#X scalar trace-template 1240 0 19 \; 87.5252 0 \; \;;
#X scalar trace-template 1240 0 22 \; 88.1154 0 \; 87.8252 0 \; \;;
#X scalar trace-template 1245 0 0 \; 89.0737 0 \; \;;
#X scalar trace-template 1245 0 2 \; 90.2391 0 \; \;;
#X scalar trace-template 1245 0 3 \; 91.33 0 \; \;;
#X scalar trace-template 1245 0 4 \; 92.439 0 \; \;;
#X scalar trace-template 1245 0 6 \; 93.4032 0 \; \;;
#X scalar trace-template 1245 0 10 \; 94.3176 0 \; \;;
#X scalar trace-template 1245 0 12 \; 95.2546 0 \; \;;
#X scalar trace-template 1245 0 15 \; 96.0782 0 \; \;;
#X scalar trace-template 1245 0 16 \; 96.8649 0 \; \;;
#X scalar trace-template 1245 0 18 \; 97.6171 0 \; \;;
#X scalar trace-template 1245 0 19 \; 98.3962 0 \; \;;
#X scalar trace-template 1245 0 21 \; 99.0859 0 \; \;;
#X scalar trace-template 1245 0 24 \; 99.7487 0 \; \;;
#X coords 0 128.25 1 128 0 0 0;
#X restore 511 436 pd trace-list;
#N canvas 375 90 563 188 trace-template 0;
#X text 65 101 This template describes a pitch/amplitude trace. The array "bazoo" holds the actual points. In this template \, y is always 0 and x is the starting location in pixels. There are 5 pixels per point.;
#X obj 84 26 struct trace-template float x float y float voiceno array bazoo point-template;
#X obj 88 68 plot bazoo 0 1 0 0 5;
#X restore 499 361 pd trace-template;
#N canvas 311 238 528 190 point-template 0;
#X text 64 65 This template describes a single point on a pitch trace (cf. trace-template w describes the trace itself.);
#X text 64 98 "y" is the field that is shown on the graph \; it's - 4 * pitch. You also get an "amp" field in dB \, which you can't see as a plot (yet).;
#X obj 113 29 struct point-template float y float amp;
#X restore 499 382 pd point-template;
#X obj 314 193 tabwrite~ sample;
#X text 44 21 SINUSOID TRACKING;
#X obj 109 303 tgl 22 0 empty empty empty -44 12 0 16 #dfdfdf #000000 #000000 0 1;
#N canvas 460 85 626 573 sigmund 0;
#X obj 197 413 spigot;
#X obj 146 221 f;
#X obj 146 255 pack;
#X obj 194 190 r window-size;
#X obj 302 167 r location;
#X obj 302 206 *;
#X obj 341 195 r sample-rate;
#X obj 341 220 * 0.001;
#X obj 236 382 tgl 19 0 empty empty empty 0 -6 0 8 #dfdfdf #000000 #000000 0 1;
#X obj 262 255 s start-analysis;
#X obj 90 163 t b b b;
#X msg 146 283 list sample \$1 \$2 44100 0;
#X obj 425 413 spigot;
#X obj 464 384 tgl 19 0 empty empty empty 0 -6 0 8 #dfdfdf #000000 #000000 0 1;
#X floatatom 178 96 5 1 50 0 - - - 0;
#X msg 178 136 npeak \$1;
#X obj 399 515 outlet;
#X obj 178 320 sigmund~ -t -npts 1024 -npeak 50 -maxfreq 8000 peaks tracks, f 32;
#X obj 178 515 outlet;
#X obj 197 439 print peaks;
#X obj 425 439 print tracks;
#X text 258 381 print peaks;
#X text 489 382 print tracks;
#X obj 178 53 inlet;
#X obj 90 53 inlet;
#X obj 108 342 r nframe;
#X obj 90 371 f;
#X obj 90 395 + 1;
#X obj 90 427 s nframe;
#X text 283 82 This subatch analysizes the sample with [sigmund~] and outputs peaks and tracks information., f 35;
#X connect 0 0 19 0;
#X connect 1 0 2 0;
#X connect 2 0 11 0;
#X connect 3 0 1 1;
#X connect 4 0 5 0;
#X connect 5 0 2 1;
#X connect 6 0 7 0;
#X connect 7 0 5 1;
#X connect 8 0 0 1;
#X connect 10 0 26 0;
#X connect 10 1 1 0;
#X connect 10 2 9 0;
#X connect 11 0 17 0;
#X connect 12 0 20 0;
#X connect 13 0 12 1;
#X connect 14 0 15 0;
#X connect 15 0 17 0;
#X connect 17 0 0 0;
#X connect 17 0 18 0;
#X connect 17 1 12 0;
#X connect 17 1 16 0;
#X connect 23 0 14 0;
#X connect 24 0 10 0;
#X connect 25 0 26 1;
#X connect 26 0 27 0;
#X connect 27 0 28 0;
#X restore 499 226 pd sigmund;
#X floatatom 566 191 4 1 50 1 nvoice nvoice-set - 16;
#X msg 329 108 \; resize-sample 3000;
#X obj 18 105 openpanel;
#X obj 18 68 bng 22 250 50 0 empty empty 1st 38 12 0 17 #dfdfdf #000000 #000000;
#X obj 566 255 clone add-trace 50;
#X text 500 318 templates:;
#X text 509 414 display:;
#X obj 62 369 bng 22 250 50 0 empty empty empty -54 12 0 16 #dfdfdf #000000 #000000;
#X obj 330 156 adc~ 1;
#N canvas 365 100 520 318 add-peaks 0;
#X obj 283 217 pointer;
#X obj 218 197 rmstodb;
#X obj 90 215 * 0.1;
#X obj 283 89 r start-analysis;
#X obj 283 136 t b b;
#X msg 335 129 \; pd-peak-list clear;
#X msg 283 181 traverse pd-peak-list \, bang;
#X obj 218 223 * 3;
#X msg 154 216 20;
#X obj 73 28 inlet;
#X obj 90 252 append peak-template x y amp;
#X obj 73 155 unpack f f f;
#X text 99 63 This suboatch uses peak information from [sigmund~] to draw peaks with data structures., f 20;
#X connect 0 0 10 3;
#X connect 1 0 7 0;
#X connect 2 0 10 0;
#X connect 3 0 4 0;
#X connect 4 0 6 0;
#X connect 4 1 5 0;
#X connect 6 0 0 0;
#X connect 7 0 10 2;
#X connect 8 0 10 1;
#X connect 9 0 11 0;
#X connect 11 1 2 0;
#X connect 11 2 8 0;
#X connect 11 2 1 0;
#X restore 499 284 pd add-peaks;
#X obj 314 68 bng 22 250 50 0 empty empty empty 17 7 0 10 #dfdfdf #000000 #000000;
#X obj 499 68 bng 22 250 50 0 empty empty 2nd 32 12 0 17 #dfdfdf #000000 #000000;
#X text 486 504 updated for Pd version 0.53-1;
#X text 393 149 (3 seconds);
#X obj 109 339 metro;
#X obj 157 401 bng 22 250 50 0 empty empty empty -4 -12 0 16 #dfdfdf #000000 #000000;
#X obj 125 369 bng 22 250 50 0 empty empty empty 30 12 0 16 #dfdfdf #000000 #000000;
#N canvas 466 24 457 490 analysis 0;
#X floatatom 144 275 6 0 0 0 - - - 0;
#X obj 279 192 r sample-rate;
#X obj 279 222 t b f;
#X obj 144 250 r window-size;
#X obj 147 52 r sample-rate;
#X obj 137 24 r window-size;
#X obj 147 82 t b f;
#X obj 137 107 /;
#X obj 81 146 bang~;
#X obj 81 264 line~;
#X obj 137 138 * 1000;
#X text 138 191 window size (msec), f 11;
#X obj 265 164 r location;
#X obj 265 250 *;
#X text 258 311 location (samples);
#X obj 81 206 f;
#X msg 81 233 0 \, 1 \$1;
#X obj 45 315 *~;
#X obj 63 348 -~;
#X obj 83 398 *~;
#X obj 83 439 outlet~;
#X floatatom 265 287 11 0 0 0 - - - 0;
#X obj 289 376 block~ 2048 1;
#X obj 101 364 tabread4~ sample;
#X obj 101 305 *~ 0;
#X obj 101 336 +~ 0;
#X obj 311 250 * 0.001;
#X floatatom 137 169 8 0 0 0 - - - 0;
#X text 279 54 This subpatch plays the analysis so you can listen to it., f 20;
#X connect 0 0 24 1;
#X connect 1 0 2 0;
#X connect 2 0 13 0;
#X connect 2 1 26 0;
#X connect 3 0 0 0;
#X connect 4 0 6 0;
#X connect 5 0 7 0;
#X connect 6 0 7 0;
#X connect 6 1 7 1;
#X connect 7 0 10 0;
#X connect 8 0 15 0;
#X connect 9 0 17 0;
#X connect 9 0 17 1;
#X connect 9 0 18 1;
#X connect 9 0 24 0;
#X connect 10 0 27 0;
#X connect 12 0 13 0;
#X connect 13 0 21 0;
#X connect 15 0 16 0;
#X connect 16 0 9 0;
#X connect 17 0 18 0;
#X connect 18 0 19 0;
#X connect 19 0 20 0;
#X connect 21 0 25 1;
#X connect 23 0 19 1;
#X connect 24 0 25 0;
#X connect 25 0 23 0;
#X connect 26 0 13 1;
#X connect 27 0 15 1;
#X coords 0 490 1 489 90 50 0;
#X restore 266 439 pd analysis;
#N canvas 744 255 577 377 misc 0;
#X obj 368 83 loadbang;
#N canvas 180 32 1143 449 make-trace 0;
#X obj 745 343 setsize trace-template bazoo;
#X obj 745 218 random 200;
#X obj 745 244 + 100;
#X obj 903 241 pointer;
#X obj 180 185 pointer;
#X floatatom 220 309 0 0 0 0 - - - 0;
#X floatatom 115 245 0 0 0 0 - - - 0;
#X msg 180 151 bang;
#X floatatom 157 97 0 0 0 0 - - - 0;
#X floatatom 20 149 0 0 0 0 - - - 0;
#X floatatom 180 241 0 0 0 0 - - - 0;
#X floatatom 467 305 0 0 0 0 - - - 0;
#X floatatom 287 372 0 0 0 0 - - - 0;
#X floatatom 619 210 0 0 0 0 - - - 0;
#X obj 410 122 pointer;
#X msg 429 93 next;
#X floatatom 468 209 0 0 0 0 - - - 0;
#X obj 467 271 getsize trace-template bazoo;
#X obj 180 214 get point-template y;
#X obj 20 173 set point-template y;
#X obj 157 123 element trace-template bazoo;
#X obj 115 275 setsize trace-template bazoo;
#X obj 287 397 set trace-template x;
#X obj 220 335 set trace-template y;
#X obj 745 268 append trace-template x;
#X obj 468 185 get trace-template x y;
#X obj 745 295 t b p;
#X msg 745 320 5;
#X msg 410 60 traverse pd-trace-list \, next;
#X msg 903 216 traverse pd-trace-list \, bang;
#X obj 745 185 bng 19 250 50 0 empty empty empty 0 -10 0 12 #dfdfdf #000000 #000000;
#X text 715 102 This subpatch cretaes tracks manually or randomly;
#X connect 1 0 2 0;
#X connect 2 0 24 0;
#X connect 3 0 24 1;
#X connect 4 0 18 0;
#X connect 5 0 23 0;
#X connect 6 0 21 0;
#X connect 7 0 4 0;
#X connect 8 0 20 0;
#X connect 9 0 19 0;
#X connect 12 0 22 0;
#X connect 14 0 21 1;
#X connect 14 0 22 1;
#X connect 14 0 23 1;
#X connect 14 0 20 1;
#X connect 14 0 25 0;
#X connect 14 0 17 0;
#X connect 15 0 14 0;
#X connect 17 0 11 0;
#X connect 18 0 10 0;
#X connect 20 0 4 0;
#X connect 20 0 19 1;
#X connect 24 0 26 0;
#X connect 25 0 16 0;
#X connect 25 1 13 0;
#X connect 26 0 27 0;
#X connect 26 1 0 1;
#X connect 27 0 0 0;
#X connect 28 0 14 0;
#X connect 29 0 3 0;
#X connect 30 0 1 0;
#X restore 111 109 pd make-trace;
#X obj 106 290 pointer;
#X obj 106 317 s last-in-list;
#X obj 106 215 t b b;
#X obj 36 291 f 0;
#X obj 36 318 s nframe;
#X obj 106 154 r clear-all;
#X msg 106 266 traverse pd-trace-list \, bang;
#X msg 167 202 \; pd-trace-list clear \; add-trace-clear bang;
#X obj 106 187 bng 19 250 50 0 empty empty empty 17 7 0 10 #dfdfdf #000000 #000000;
#X msg 368 118 \; osc-speed-set 10 \; nvoice-set 25 \; pd-trace-list clear \; window-size 2048 \; sample-rate 44100 \; incr 10;
#X obj 386 270 declare -stdpath ./;
#X text 433 83 initialization;
#N canvas 362 36 517 439 sample-synthesis 0;
#X obj 68 113 osc~ 110;
#X obj 68 165 *~;
#X obj 68 213 +~ 0.2;
#X obj 68 241 cos~;
#X obj 68 284 *~;
#X obj 209 365 tabwrite~ sample;
#X obj 209 31 inlet;
#X obj 144 188 vline~;
#X msg 144 148 0 \, 2 500 \, 0.05 500 500;
#X obj 318 188 vline~;
#X msg 318 148 0 \, 1 100 \, 0 2000 500;
#X text 251 277 This creates a waveshaping synthesis sample., f 26;
#X connect 0 0 1 0;
#X connect 1 0 2 0;
#X connect 2 0 3 0;
#X connect 3 0 4 0;
#X connect 4 0 5 0;
#X connect 6 0 8 0;
#X connect 6 0 5 0;
#X connect 6 0 10 0;
#X connect 7 0 1 1;
#X connect 8 0 7 0;
#X connect 9 0 4 1;
#X connect 10 0 9 0;
#X restore 109 65 pd sample-synthesis;
#X obj 109 31 bng 19 250 50 0 empty empty empty 0 -10 0 12 #dfdfdf #000000 #000000;
#X text 132 31 <-- waveshaping synthesis sample;
#X connect 0 0 11 0;
#X connect 2 0 3 0;
#X connect 4 0 8 0;
#X connect 4 0 5 0;
#X connect 4 1 9 0;
#X connect 5 0 6 0;
#X connect 7 0 10 0;
#X connect 8 0 2 0;
#X connect 10 0 4 0;
#X connect 15 0 14 0;
#X restore 631 443 pd misc;
#X text 217 13 This patch derives sinusoidal "tracks" from a sampled sound by using [sigmund~] and the data structure facilities.;
#X text 271 288 The resynthesizer is limited to 50-voice polyphony (the 'nvoice' number box sets the number of voices/tracks from 1 to 50)., f 28;
#N canvas 532 78 598 432 location 0;
#X obj 84 22 inlet;
#X floatatom 208 131 4 0 0 0 - - - 0;
#X msg 116 148 0;
#X floatatom 248 152 4 0 0 0 - - - 0;
#X obj 155 186 f;
#X obj 195 185 +;
#X msg 119 219 0;
#X msg 155 131 1;
#X floatatom 155 210 6 0 0 0 - - - 0;
#X obj 84 68 t b b;
#X obj 248 128 r incr;
#X obj 155 257 moses 1350;
#X msg 153 62 \; location 0 \; clear-all bang;
#X floatatom 232 221 10 0 0 0 - - - 12;
#X obj 232 196 r sample-msec;
#X obj 155 300 t b f;
#X obj 187 331 s location;
#X floatatom 358 110 6 0 0 3 location location-set location 16;
#X obj 155 367 outlet;
#X obj 362 187 r location;
#X msg 362 212 set \$1;
#X obj 362 237 s location-set;
#X obj 155 157 metro 10;
#X text 329 287 this subpatch is a counter for the sample location used for analysis., f 30;
#X connect 0 0 9 0;
#X connect 1 0 22 1;
#X connect 2 0 4 1;
#X connect 3 0 5 1;
#X connect 4 0 5 0;
#X connect 4 0 8 0;
#X connect 5 0 4 1;
#X connect 6 0 22 0;
#X connect 7 0 22 0;
#X connect 8 0 11 0;
#X connect 9 0 7 0;
#X connect 9 1 2 0;
#X connect 9 1 12 0;
#X connect 10 0 3 0;
#X connect 11 0 15 0;
#X connect 11 1 6 0;
#X connect 13 0 11 1;
#X connect 14 0 13 0;
#X connect 15 0 18 0;
#X connect 15 1 16 0;
#X connect 19 0 20 0;
#X connect 20 0 21 0;
#X connect 22 0 4 0;
#X coords 0 -1 1 1 94 60 2 350 100;
#X restore 499 110 pd location;
#N canvas 445 148 795 451 sample 0;
#N canvas 0 50 450 300 (subpatch) 0;
#X array sample 155944 float 0;
#X coords 0 1 155943 -1 400 250 1 0 0;
#X restore 362 82 graph;
#X obj 136 164 s insamprate;
#X obj 26 138 soundfiler;
#X msg 26 107 read -resize \$1 sample;
#X obj 26 164 s insamplength;
#X obj 13 231 t f b;
#X obj 45 255 samplerate~;
#X obj 13 284 /;
#X obj 63 293 r incr;
#X obj 13 309 *;
#X obj 63 318 expr 10000/$f1;
#X obj 185 204 r resize-sample;
#X obj 185 249 t f b;
#X obj 217 280 samplerate~;
#X obj 217 305 / 1000;
#X obj 185 294 *;
#X obj 13 205 r insamplength;
#X msg 185 331 \; sample resize \$1 \; insamplength \$1;
#X obj 13 334 + 60;
#X obj 13 359 s sample-msec;
#X msg 136 138 \$1;
#X obj 26 17 inlet;
#X msg 40 56 \; pd dsp 1;
#X msg 239 236 \; pd dsp 1;
#X connect 2 0 4 0;
#X connect 2 1 20 0;
#X connect 3 0 2 0;
#X connect 5 0 7 0;
#X connect 5 1 6 0;
#X connect 6 0 7 1;
#X connect 7 0 9 0;
#X connect 8 0 10 0;
#X connect 9 0 18 0;
#X connect 10 0 9 1;
#X connect 11 0 12 0;
#X connect 12 0 15 0;
#X connect 12 1 13 0;
#X connect 12 1 23 0;
#X connect 13 0 14 0;
#X connect 14 0 15 1;
#X connect 15 0 17 0;
#X connect 16 0 5 0;
#X connect 18 0 19 0;
#X connect 20 0 1 0;
#X connect 21 0 3 0;
#X connect 21 0 22 0;
#X restore 93 193 pd sample;
#X text 26 224 To resynthesize \, click 'start' and then 'step' over and over to move to the next resynthesis frame (to stop listening \, just hit "stop"). Alternatively \, you can step with [metro] at the given rate in msec., f 63;
#X obj 141 303 nbx 4 22 -1e+37 1e+37 0 0 osc-speed osc-speed-set empty 22 35 0 14 #dfdfdf #000000 #000000 0 256;
#X obj 62 479 output~;
#X obj 266 479 output~;
#X obj 369 479 output~;
#N canvas 322 23 663 702 resynthesis 0;
#X msg 127 165 0;
#X obj 396 476 pointer;
#X obj 284 209 pointer;
#X msg 220 413 next;
#X msg 215 213 1;
#X msg 227 257 0;
#X obj 284 372 <;
#X obj 86 259 until;
#X obj 197 288 f;
#X obj 197 311 sel 0 1;
#X obj 324 364 r synth-index;
#X obj 284 407 sel 0 1;
#X obj 109 196 f;
#X obj 109 222 s synth-index;
#X obj 146 197 + 5;
#X obj 63 165 t b b b;
#X obj 63 303 s osc-tick;
#X msg 284 177 traverse pd-trace-list \, next;
#X obj 283 118 t b b b;
#X msg 352 118 \; pd-trace-list sort;
#X obj 284 316 get trace-template x;
#X obj 284 344 f;
#X obj 307 433 t b b b;
#X obj 255 550 poly 50;
#X obj 255 483 f;
#X obj 296 472 + 1;
#X obj 296 496 mod 1e+06;
#X obj 255 580 pack f f f p;
#X text 196 459 make an ID;
#X text 196 476 for the, f 10;
#X text 196 492 track, f 10;
#X obj 78 455 r osc-noteoff;
#X text 39 419 voice sends us, f 15;
#X text 39 434 a note-off when;
#X text 39 451 done;
#X text 63 574 message is: voice number \, on/off \, track ID \, pointer, f 26;
#X obj 284 290 trigger pointer pointer;
#X obj 254 651 outlet~;
#X obj 78 482 pack f f;
#X obj 255 522 pack f 1;
#X obj 254 613 clone -s 1 50 osc-voice;
#X obj 223 86 inlet;
#X obj 283 86 inlet;
#X obj 532 86 inlet;
#X obj 532 127 s osc-stop;
#X text 114 21 This subpatch gets 'tracks' information from data structures and we use it to feed an oscillator bank in a [clone] object., f 65;
#X connect 0 0 12 0;
#X connect 1 0 27 3;
#X connect 2 0 36 0;
#X connect 2 1 5 0;
#X connect 2 1 7 1;
#X connect 3 0 2 0;
#X connect 4 0 8 1;
#X connect 5 0 8 1;
#X connect 6 0 11 0;
#X connect 7 0 8 0;
#X connect 8 0 9 0;
#X connect 9 0 7 1;
#X connect 9 1 21 0;
#X connect 10 0 6 1;
#X connect 11 0 7 1;
#X connect 11 1 22 0;
#X connect 12 0 13 0;
#X connect 12 0 14 0;
#X connect 14 0 12 1;
#X connect 15 0 16 0;
#X connect 15 1 7 0;
#X connect 15 2 12 0;
#X connect 17 0 2 0;
#X connect 18 0 17 0;
#X connect 18 1 4 0;
#X connect 18 1 0 0;
#X connect 18 2 19 0;
#X connect 20 0 21 0;
#X connect 21 0 6 0;
#X connect 22 0 3 0;
#X connect 22 1 24 0;
#X connect 22 2 1 0;
#X connect 23 0 27 0;
#X connect 23 1 27 2;
#X connect 23 2 27 1;
#X connect 24 0 25 0;
#X connect 24 0 39 0;
#X connect 25 0 26 0;
#X connect 26 0 24 1;
#X connect 27 0 40 0;
#X connect 31 0 38 0;
#X connect 36 0 20 0;
#X connect 36 1 1 1;
#X connect 38 0 23 0;
#X connect 39 0 23 0;
#X connect 40 0 37 0;
#X connect 41 0 18 0;
#X connect 42 0 15 0;
#X connect 43 0 44 0;
#X coords 0 702 1 701 90 50 0;
#X restore 62 439 pd resynthesis;
#X text 271 364 You can also listen to the analysis when analyzing or the original sample in a loop., f 28;
#X text 185 405 Stop;
#X text 152 372 Step;
#X text 18 372 Start;
#X text 72 305 Auto;
#X text 208 305 Rate;
#X msg 93 105 symbol ../sound/bell.aiff;
#X msg 109 156 symbol ../sound/voice2.wav;
#X msg 103 131 symbol ../sound/voice.wav;
#X text 342 71 record live input;
#X text 563 71 : analyze;
#X text 87 71 : browse/choose soundfile or ->;
#N canvas 361 44 399 513 looped-sample 0;
#X obj 135 417 tabread4~ sample;
#X obj 135 392 line~;
#X obj 135 269 f;
#X obj 207 132 r insamprate;
#X obj 135 463 outlet~;
#X obj 156 100 r insamplength;
#X msg 135 366 0 \, \$1 \$2;
#X obj 188 273 /;
#X obj 253 196 * 0.001;
#X obj 55 85 loadbang;
#X msg 55 113 1;
#X obj 55 187 metro 1000;
#X obj 207 161 t b b f;
#X obj 156 177 t b f;
#X obj 135 310 pack f f;
#X obj 55 150 tgl 19 0 empty empty empty 0 -10 0 12 #dfdfdf #000000 #000000 0 1;
#X obj 55 218 bng 19 250 50 0 empty empty empty 0 -10 0 12 #dfdfdf #000000 #000000;
#X listbox 135 339 18 0 0 0 - - - 0;
#X text 44 33 This subpatch plays the sample in a loop;
#X connect 0 0 4 0;
#X connect 1 0 0 0;
#X connect 2 0 14 0;
#X connect 3 0 12 0;
#X connect 5 0 13 0;
#X connect 6 0 1 0;
#X connect 7 0 11 1;
#X connect 7 0 14 1;
#X connect 8 0 7 1;
#X connect 9 0 10 0;
#X connect 10 0 15 0;
#X connect 11 0 16 0;
#X connect 12 0 10 0;
#X connect 12 1 7 0;
#X connect 12 2 8 0;
#X connect 13 0 10 0;
#X connect 13 1 7 0;
#X connect 13 1 2 1;
#X connect 14 0 17 0;
#X connect 15 0 11 0;
#X connect 16 0 2 0;
#X connect 17 0 6 0;
#X coords 0 513 1 512 90 50 0;
#X restore 369 439 pd looped-sample;
#X connect 7 0 23 0;
#X connect 8 0 18 0;
#X connect 8 1 13 0;
#X connect 9 0 8 1;
#X connect 11 0 31 0;
#X connect 12 0 11 0;
#X connect 16 0 37 0;
#X connect 17 0 5 0;
#X connect 19 0 5 0;
#X connect 19 0 10 0;
#X connect 20 0 30 0;
#X connect 23 0 37 1;
#X connect 24 0 37 2;
#X connect 25 0 37 1;
#X connect 26 0 35 0;
#X connect 26 0 35 1;
#X connect 30 0 8 0;
#X connect 33 0 23 1;
#X connect 37 0 34 0;
#X connect 37 0 34 1;
#X connect 44 0 31 0;
#X connect 45 0 31 0;
#X connect 46 0 31 0;
#X connect 50 0 36 0;
#X connect 50 0 36 1;
