#N canvas 600 23 710 658 12;
#X declare -stdpath ./;
#N canvas 395 221 458 221 peak-template 0;
#X obj 59 81 filledpolygon 3 3 3 0 0 0 amp 0 0;
#X obj 58 41 struct peak-template float x float y float amp;
#X text 55 131 This is a template for ploting FFT amplitude peaks \, where a polygon is drawn for all peaks., f 46;
#X restore 547 407 pd peak-template;
#N canvas 116 23 851 337 peak-list 1;
#X coords 0 337 0.5 336 0 0 0;
#X restore 565 514 pd peak-list;
#N canvas 117 226 1195 512 trace-list 1;
#X coords 0 128 1 127.75 0 0 0;
#X restore 565 493 pd trace-list;
#N canvas 375 90 563 188 trace-template 0;
#X text 65 101 This template describes a pitch/amplitude trace. The array "bazoo" holds the actual points. In this template \, y is always 0 and x is the starting location in pixels. There are 5 pixels per point.;
#X obj 84 26 struct trace-template float x float y float voiceno array bazoo point-template;
#X obj 88 68 plot bazoo 0 1 0 0 5;
#X restore 547 428 pd trace-template;
#N canvas 311 238 528 190 point-template 0;
#X text 64 65 This template describes a single point on a pitch trace (cf. trace-template w describes the trace itself.);
#X text 64 98 "y" is the field that is shown on the graph \; it's - 4 * pitch. You also get an "amp" field in dB \, which you can't see as a plot (yet).;
#X obj 113 29 struct point-template float y float amp;
#X restore 547 449 pd point-template;
#X text 44 21 SINUSOID TRACKING;
#X obj 109 303 tgl 22 0 empty empty empty -44 12 0 16 #dfdfdf #000000 #000000 0 1;
#N canvas 427 86 626 573 sigmund 0;
#X obj 197 413 spigot;
#X obj 146 221 f;
#X obj 146 255 pack;
#X obj 194 190 r window-size;
#X obj 302 167 r location;
#X obj 302 206 *;
#X obj 341 195 r sample-rate;
#X obj 341 220 * 0.001;
#X obj 236 382 tgl 19 0 empty empty empty 0 -6 0 8 #dfdfdf #000000 #000000 0 1;
#X obj 262 255 s start-analysis;
#X obj 90 163 t b b b;
#X msg 146 283 list sample \$1 \$2 44100 0;
#X obj 425 413 spigot;
#X obj 464 384 tgl 19 0 empty empty empty 0 -6 0 8 #dfdfdf #000000 #000000 0 1;
#X floatatom 178 96 5 1 50 0 - - - 0;
#X msg 178 136 npeak \$1;
#X obj 399 515 outlet;
#X obj 178 320 sigmund~ -t -npts 1024 -npeak 50 -maxfreq 8000 peaks tracks, f 32;
#X obj 178 515 outlet;
#X obj 197 439 print peaks;
#X obj 425 439 print tracks;
#X text 258 381 print peaks;
#X text 489 382 print tracks;
#X obj 178 53 inlet;
#X obj 90 53 inlet;
#X obj 108 342 r nframe;
#X obj 90 371 f;
#X obj 90 395 + 1;
#X obj 90 427 s nframe;
#X text 283 82 This subatch analysizes the sample with [sigmund~] and outputs peaks and tracks information., f 35;
#X connect 0 0 19 0;
#X connect 1 0 2 0;
#X connect 2 0 11 0;
#X connect 3 0 1 1;
#X connect 4 0 5 0;
#X connect 5 0 2 1;
#X connect 6 0 7 0;
#X connect 7 0 5 1;
#X connect 8 0 0 1;
#X connect 10 0 26 0;
#X connect 10 1 1 0;
#X connect 10 2 9 0;
#X connect 11 0 17 0;
#X connect 12 0 20 0;
#X connect 13 0 12 1;
#X connect 14 0 15 0;
#X connect 15 0 17 0;
#X connect 17 0 0 0;
#X connect 17 0 18 0;
#X connect 17 1 12 0;
#X connect 17 1 16 0;
#X connect 23 0 14 0;
#X connect 24 0 10 0;
#X connect 25 0 26 1;
#X connect 26 0 27 0;
#X connect 27 0 28 0;
#X restore 499 239 pd sigmund;
#X floatatom 566 204 4 1 50 1 nvoice nvoice-set - 16;
#X obj 566 268 clone add-trace 50;
#X text 547 385 templates:;
#X text 499 505 display:;
#N canvas 365 100 520 318 add-peaks 0;
#X obj 283 217 pointer;
#X obj 218 197 rmstodb;
#X obj 90 215 * 0.1;
#X obj 283 89 r start-analysis;
#X obj 283 136 t b b;
#X msg 335 129 \; pd-peak-list clear;
#X msg 283 181 traverse pd-peak-list \, bang;
#X obj 218 223 * 3;
#X msg 154 216 20;
#X obj 73 28 inlet;
#X obj 90 252 append peak-template x y amp;
#X obj 73 155 unpack f f f;
#X text 99 63 This suboatch uses peak information from [sigmund~] to draw peaks with data structures., f 20;
#X connect 0 0 10 3;
#X connect 1 0 7 0;
#X connect 2 0 10 0;
#X connect 3 0 4 0;
#X connect 4 0 6 0;
#X connect 4 1 5 0;
#X connect 6 0 0 0;
#X connect 7 0 10 2;
#X connect 8 0 10 1;
#X connect 9 0 11 0;
#X connect 11 1 2 0;
#X connect 11 2 8 0;
#X connect 11 2 1 0;
#X restore 499 297 pd add-peaks;
#X obj 314 69 bng 22 250 50 0 empty empty empty 17 7 0 10 #dfdfdf #000000 #000000;
#X obj 499 68 bng 22 250 50 0 empty empty 2nd 31 11 0 20 #dfdfdf #000000 #000000;
#X text 479 626 updated for Pd version 0.53-1;
#X obj 109 339 metro;
#X obj 157 401 bng 22 250 50 0 empty empty empty -4 -12 0 16 #dfdfdf #000000 #000000;
#X obj 125 369 bng 22 250 50 0 empty empty empty 30 12 0 16 #dfdfdf #000000 #000000;
#N canvas 466 24 457 490 analysis 0;
#X floatatom 144 275 6 0 0 0 - - - 0;
#X obj 279 192 r sample-rate;
#X obj 279 222 t b f;
#X obj 144 250 r window-size;
#X obj 147 52 r sample-rate;
#X obj 137 24 r window-size;
#X obj 147 82 t b f;
#X obj 137 107 /;
#X obj 81 146 bang~;
#X obj 81 264 line~;
#X obj 137 138 * 1000;
#X text 138 191 window size (msec), f 11;
#X obj 265 164 r location;
#X obj 265 250 *;
#X text 258 311 location (samples);
#X obj 81 206 f;
#X msg 81 233 0 \, 1 \$1;
#X obj 45 315 *~;
#X obj 63 348 -~;
#X obj 83 398 *~;
#X obj 83 439 outlet~;
#X floatatom 265 287 11 0 0 0 - - - 0;
#X obj 289 376 block~ 2048 1;
#X obj 101 364 tabread4~ sample;
#X obj 101 305 *~ 0;
#X obj 101 336 +~ 0;
#X obj 311 250 * 0.001;
#X floatatom 137 169 8 0 0 0 - - - 0;
#X text 279 54 This subpatch plays the analysis so you can listen to it., f 20;
#X connect 0 0 24 1;
#X connect 1 0 2 0;
#X connect 2 0 13 0;
#X connect 2 1 26 0;
#X connect 3 0 0 0;
#X connect 4 0 6 0;
#X connect 5 0 7 0;
#X connect 6 0 7 0;
#X connect 6 1 7 1;
#X connect 7 0 10 0;
#X connect 8 0 15 0;
#X connect 9 0 17 0;
#X connect 9 0 17 1;
#X connect 9 0 18 1;
#X connect 9 0 24 0;
#X connect 10 0 27 0;
#X connect 12 0 13 0;
#X connect 13 0 21 0;
#X connect 15 0 16 0;
#X connect 16 0 9 0;
#X connect 17 0 18 0;
#X connect 18 0 19 0;
#X connect 19 0 20 0;
#X connect 21 0 25 1;
#X connect 23 0 19 1;
#X connect 24 0 25 0;
#X connect 25 0 23 0;
#X connect 26 0 13 1;
#X connect 27 0 15 1;
#X coords 0 490 1 489 90 50 0;
#X restore 266 439 pd analysis;
#X text 217 13 This patch derives sinusoidal "tracks" from a sampled sound by using [sigmund~] and the data structure facilities.;
#X text 271 288 The resynthesizer is limited to 50-voice polyphony (the 'nvoice' number box sets the number of voices/tracks from 1 to 50)., f 28;
#N canvas 271 82 584 420 location 0;
#X obj 84 22 inlet;
#X floatatom 208 131 4 0 0 0 - - - 0;
#X msg 116 148 0;
#X floatatom 248 152 4 0 0 0 - - - 0;
#X obj 155 186 f;
#X obj 195 185 +;
#X msg 119 219 0;
#X msg 155 131 1;
#X floatatom 155 210 6 0 0 0 - - - 0;
#X obj 84 58 t b b;
#X obj 248 128 r incr;
#X obj 170 257 moses 1350;
#X floatatom 237 221 10 0 0 0 - - - 12;
#X obj 237 196 r sample-msec;
#X obj 170 300 t b f;
#X obj 202 329 s location;
#X floatatom 358 110 6 0 0 3 location location-set location 16;
#X obj 170 367 outlet;
#X obj 328 223 r location;
#X msg 328 248 set \$1;
#X obj 328 273 s location-set;
#X obj 155 157 metro 50;
#X text 237 19 this subpatch is a counter for the sample location in samples used for analysis. This value is the start of the analysis window (whose size is 2048), f 41;
#N canvas 265 258 450 300 clear 0;
#X obj 108 184 pointer;
#X obj 108 211 s last-in-list;
#X obj 108 99 t b b;
#X obj 57 244 s nframe;
#X msg 108 160 traverse pd-trace-list \, bang;
#X msg 57 214 0;
#X obj 108 52 inlet;
#X msg 169 84 \; pd-peak-list clear \; pd-trace-list clear \; add-trace-clear bang;
#X connect 0 0 1 0;
#X connect 2 0 4 0;
#X connect 2 0 5 0;
#X connect 2 1 7 0;
#X connect 4 0 0 0;
#X connect 5 0 3 0;
#X connect 6 0 2 0;
#X restore 155 97 pd clear;
#X obj 155 22 inlet;
#X connect 0 0 9 0;
#X connect 1 0 21 1;
#X connect 2 0 4 1;
#X connect 3 0 5 1;
#X connect 4 0 5 0;
#X connect 4 0 8 0;
#X connect 5 0 4 1;
#X connect 6 0 21 0;
#X connect 7 0 21 0;
#X connect 8 0 11 0;
#X connect 9 0 7 0;
#X connect 9 1 2 0;
#X connect 9 1 23 0;
#X connect 10 0 3 0;
#X connect 11 0 14 0;
#X connect 11 1 6 0;
#X connect 11 1 19 0;
#X connect 12 0 11 1;
#X connect 13 0 12 0;
#X connect 14 0 17 0;
#X connect 14 1 15 0;
#X connect 18 0 19 0;
#X connect 19 0 20 0;
#X connect 21 0 4 0;
#X connect 24 0 23 0;
#X coords 0 -1 1 1 94 60 2 350 100;
#X restore 499 131 pd location;
#X text 26 224 To resynthesize \, click 'start' and then 'step' over and over to move to the next resynthesis frame (to stop listening \, just hit "stop"). Alternatively \, you can step with [metro] at the given rate in msec., f 63;
#X obj 141 303 nbx 4 22 -1e+37 1e+37 0 0 osc-speed osc-speed-set empty 22 35 0 14 #dfdfdf #000000 #000000 0 256;
#X obj 62 479 output~;
#X obj 266 479 output~;
#X obj 369 479 output~;
#N canvas 322 23 663 702 resynthesis 0;
#X msg 127 165 0;
#X obj 396 476 pointer;
#X obj 284 209 pointer;
#X msg 230 413 next;
#X msg 215 213 1;
#X msg 227 257 0;
#X obj 284 372 <;
#X obj 86 259 until;
#X obj 197 288 f;
#X obj 197 311 sel 0 1;
#X obj 320 344 r synth-index;
#X obj 284 407 sel 0 1;
#X obj 109 196 f;
#X obj 109 222 s synth-index;
#X obj 146 197 + 5;
#X obj 63 165 t b b b;
#X obj 63 303 s osc-tick;
#X msg 284 177 traverse pd-trace-list \, next;
#X obj 283 118 t b b b;
#X msg 352 118 \; pd-trace-list sort;
#X obj 284 316 get trace-template x;
#X obj 284 344 f;
#X obj 307 433 t b b b;
#X obj 255 550 poly 50;
#X obj 255 483 f;
#X obj 296 472 + 1;
#X obj 296 496 mod 1e+06;
#X obj 255 580 pack f f f p;
#X text 196 459 make an ID;
#X text 196 476 for the, f 10;
#X text 196 492 track, f 10;
#X obj 78 455 r osc-noteoff;
#X text 39 419 voice sends us, f 15;
#X text 39 434 a note-off when;
#X text 39 451 done;
#X text 63 574 message is: voice number \, on/off \, track ID \, pointer, f 26;
#X obj 284 290 trigger pointer pointer;
#X obj 254 651 outlet~;
#X obj 78 482 pack f f;
#X obj 255 522 pack f 1;
#X obj 254 613 clone -s 1 50 osc-voice;
#X obj 223 86 inlet;
#X obj 283 86 inlet;
#X obj 532 86 inlet;
#X obj 532 127 s osc-stop;
#X text 114 21 This subpatch gets 'tracks' information from data structures and we use it to feed an oscillator bank in a [clone] object., f 65;
#X connect 0 0 12 0;
#X connect 1 0 27 3;
#X connect 2 0 36 0;
#X connect 2 1 5 0;
#X connect 2 1 7 1;
#X connect 3 0 2 0;
#X connect 4 0 8 1;
#X connect 5 0 8 1;
#X connect 6 0 11 0;
#X connect 7 0 8 0;
#X connect 8 0 9 0;
#X connect 9 0 7 1;
#X connect 9 1 21 0;
#X connect 10 0 6 1;
#X connect 11 0 7 1;
#X connect 11 1 22 0;
#X connect 12 0 13 0;
#X connect 12 0 14 0;
#X connect 14 0 12 1;
#X connect 15 0 16 0;
#X connect 15 1 7 0;
#X connect 15 2 12 0;
#X connect 17 0 2 0;
#X connect 18 0 17 0;
#X connect 18 1 4 0;
#X connect 18 1 0 0;
#X connect 18 2 19 0;
#X connect 20 0 21 0;
#X connect 21 0 6 0;
#X connect 22 0 3 0;
#X connect 22 1 24 0;
#X connect 22 2 1 0;
#X connect 23 0 27 0;
#X connect 23 1 27 2;
#X connect 23 2 27 1;
#X connect 24 0 25 0;
#X connect 24 0 39 0;
#X connect 25 0 26 0;
#X connect 26 0 24 1;
#X connect 27 0 40 0;
#X connect 31 0 38 0;
#X connect 36 0 20 0;
#X connect 36 1 1 1;
#X connect 38 0 23 0;
#X connect 39 0 23 0;
#X connect 40 0 37 0;
#X connect 41 0 18 0;
#X connect 42 0 15 0;
#X connect 43 0 44 0;
#X coords 0 702 1 701 90 50 0;
#X restore 62 439 pd resynthesis;
#X text 271 364 You can also listen to the analysis when analyzing or the original sample in a loop., f 28;
#X text 185 405 Stop;
#X text 152 372 Step;
#X text 18 372 Start;
#X text 72 305 Auto;
#X text 208 305 Rate;
#X text 342 71 record live input;
#X text 567 70 : analyze;
#N canvas 361 44 399 513 looped-sample 0;
#X obj 135 417 tabread4~ sample;
#X obj 135 392 line~;
#X obj 135 269 f;
#X obj 207 132 r insamprate;
#X obj 135 463 outlet~;
#X obj 156 100 r insamplength;
#X msg 135 366 0 \, \$1 \$2;
#X obj 188 273 /;
#X obj 253 196 * 0.001;
#X obj 55 85 loadbang;
#X msg 55 113 1;
#X obj 55 187 metro 1000;
#X obj 207 161 t b b f;
#X obj 156 177 t b f;
#X obj 135 310 pack f f;
#X obj 55 150 tgl 19 0 empty empty empty 0 -10 0 12 #dfdfdf #000000 #000000 0 1;
#X obj 55 218 bng 19 250 50 0 empty empty empty 0 -10 0 12 #dfdfdf #000000 #000000;
#X listbox 135 339 18 0 0 0 - - - 0;
#X text 44 33 This subpatch plays the sample in a loop;
#X connect 0 0 4 0;
#X connect 1 0 0 0;
#X connect 2 0 14 0;
#X connect 3 0 12 0;
#X connect 5 0 13 0;
#X connect 6 0 1 0;
#X connect 7 0 11 1;
#X connect 7 0 14 1;
#X connect 8 0 7 1;
#X connect 9 0 10 0;
#X connect 10 0 15 0;
#X connect 11 0 16 0;
#X connect 12 0 10 0;
#X connect 12 1 7 0;
#X connect 12 2 8 0;
#X connect 13 0 10 0;
#X connect 13 1 7 0;
#X connect 13 1 2 1;
#X connect 14 0 17 0;
#X connect 15 0 11 0;
#X connect 16 0 2 0;
#X connect 17 0 6 0;
#X coords 0 513 1 512 90 50 0;
#X restore 369 439 pd looped-sample;
#N canvas 362 36 579 430 sample-synthesis 0;
#X obj 68 113 osc~ 110;
#X obj 68 165 *~;
#X obj 68 213 +~ 0.2;
#X obj 68 241 cos~;
#X obj 68 284 *~;
#X obj 209 365 tabwrite~ sample;
#X obj 209 31 inlet;
#X obj 134 188 vline~;
#X obj 318 188 vline~;
#X text 251 277 This creates a waveshaping synthesis sample., f 26;
#X msg 327 86 \; resize-sample 2500 \; pd dsp 1 \, fast-forward 2500;
#X msg 134 148 0 \, 2 500 \, 0.05 1500 500;
#X msg 318 148 0 \, 1 100 \, 0 2250 250;
#X connect 0 0 1 0;
#X connect 1 0 2 0;
#X connect 2 0 3 0;
#X connect 3 0 4 0;
#X connect 4 0 5 0;
#X connect 6 0 11 0;
#X connect 6 0 5 0;
#X connect 6 0 12 0;
#X connect 6 0 10 0;
#X connect 7 0 1 1;
#X connect 8 0 4 1;
#X connect 11 0 7 0;
#X connect 12 0 8 0;
#X restore 315 186 pd sample-synthesis;
#X obj 315 146 bng 22 250 50 0 empty empty empty 0 -10 0 12 #dfdfdf #000000 #000000;
#N canvas 441 320 449 241 record 0;
#X obj 37 37 inlet;
#X obj 37 182 tabwrite~ sample;
#X obj 53 145 adc~ 1;
#X text 191 91 (set array size to 3 seconds);
#X msg 52 77 \; resize-sample 3000 \; pd dsp 1;
#X connect 0 0 4 0;
#X connect 0 0 1 0;
#X connect 2 0 1 0;
#X restore 314 98 pd record;
#X text 313 122 or even...;
#N canvas 167 58 1143 449 make-trace 0;
#X obj 745 343 setsize trace-template bazoo;
#X obj 745 188 random 200;
#X obj 745 214 + 100;
#X obj 903 241 pointer;
#X obj 203 181 pointer;
#X floatatom 138 241 6 0 0 0 - - - 0;
#X floatatom 203 237 6 0 0 0 - - - 0;
#X obj 433 118 pointer;
#X msg 451 87 next;
#X obj 466 257 getsize trace-template bazoo;
#X obj 203 210 get point-template y;
#X obj 43 181 set point-template y;
#X obj 203 119 element trace-template bazoo;
#X obj 138 271 setsize trace-template bazoo;
#X obj 296 403 set trace-template x;
#X obj 243 331 set trace-template y;
#X obj 745 268 append trace-template x;
#X obj 485 182 get trace-template x y;
#X obj 745 295 t b p;
#X msg 745 320 5;
#X msg 433 56 traverse pd-trace-list \, next;
#X msg 903 216 traverse pd-trace-list \, bang;
#X obj 745 155 bng 19 250 50 0 empty empty empty 0 -10 0 12 #dfdfdf #000000 #000000;
#X text 715 86 This subpatch cretaes tracks manually or randomly;
#X obj 219 150 bng 19 250 50 0 empty empty empty 0 -10 0 12 #dfdfdf #000000 #000000;
#X floatatom 745 242 5 0 0 0 - - - 0;
#X floatatom 43 157 6 0 0 0 - - - 0;
#X floatatom 203 90 6 0 0 0 - - - 0;
#X floatatom 636 212 6 0 0 0 - - - 0;
#X floatatom 485 212 6 0 0 0 - - - 0;
#X floatatom 466 291 6 0 0 0 - - - 0;
#X floatatom 296 378 6 0 0 0 - - - 0;
#X floatatom 243 305 6 0 0 0 - - - 0;
#X connect 1 0 2 0;
#X connect 2 0 25 0;
#X connect 3 0 16 1;
#X connect 4 0 10 0;
#X connect 5 0 13 0;
#X connect 7 0 13 1;
#X connect 7 0 14 1;
#X connect 7 0 15 1;
#X connect 7 0 12 1;
#X connect 7 0 17 0;
#X connect 7 0 9 0;
#X connect 8 0 7 0;
#X connect 9 0 30 0;
#X connect 10 0 6 0;
#X connect 12 0 4 0;
#X connect 12 0 11 1;
#X connect 16 0 18 0;
#X connect 17 0 29 0;
#X connect 17 1 28 0;
#X connect 18 0 19 0;
#X connect 18 1 0 1;
#X connect 19 0 0 0;
#X connect 20 0 7 0;
#X connect 21 0 3 0;
#X connect 22 0 1 0;
#X connect 24 0 4 0;
#X connect 25 0 16 0;
#X connect 26 0 11 0;
#X connect 27 0 12 0;
#X connect 31 0 14 0;
#X connect 32 0 15 0;
#X restore 296 609 pd make-trace;
#N canvas 1084 205 259 246 init 0;
#X obj 38 31 loadbang;
#X msg 38 66 \; osc-speed-set 10 \; nvoice-set 25 \; pd-trace-list clear \; window-size 2048 \; sample-rate 44100 \; incr 10;
#X obj 62 193 declare -stdpath ./;
#X text 103 31 initialization;
#X connect 0 0 1 0;
#X restore 571 344 pd init;
#X text 340 145 <-- synthesize;
#X text 381 161 sample;
#X text 55 556 You can check the trace-list subwindow and graphically edit the spectral analysis by clicking and dragging in the arrays or duplicating \, deleting and changing their position \, then listen to the result. You can also create partial traces manually or randomly with this subpatch:, f 82;
#X obj 586 100 bng 22 250 50 0 empty empty empty 17 7 0 10 #dfdfdf #000000 #000000;
#X text 610 102 <-- clear, f 9;
#X text 617 117 analysis data, f 8;
#X obj 62 370 bng 22 250 50 0 empty empty empty -38 -42 0 20 #dfdfdf #000000 #000000;
#X obj 18 105 openpanel;
#X obj 18 68 bng 22 250 50 0 empty empty 1st 31 11 0 20 #dfdfdf #000000 #000000;
#N canvas 255 295 795 451 sample 0;
#N canvas 0 50 450 300 (subpatch) 0;
#X array sample 155944 float 0;
#X coords 0 1 155943 -1 400 250 1 0 0;
#X restore 362 82 graph;
#X obj 136 184 s insamprate;
#X obj 26 158 soundfiler;
#X msg 26 127 read -resize \$1 sample;
#X obj 26 184 s insamplength;
#X obj 13 281 t f b;
#X obj 45 305 samplerate~;
#X obj 13 334 /;
#X obj 63 343 r incr;
#X obj 13 359 *;
#X obj 63 368 expr 10000/$f1;
#X obj 185 224 r resize-sample;
#X obj 185 269 t f b;
#X obj 217 300 samplerate~;
#X obj 217 325 / 1000;
#X obj 185 314 *;
#X obj 13 225 r insamplength;
#X msg 185 351 \; sample resize \$1 \; insamplength \$1;
#X obj 13 409 s sample-msec;
#X msg 136 158 \$1;
#X obj 26 17 inlet;
#X msg 40 76 \; pd dsp 1;
#X msg 239 256 \; pd dsp 1;
#X obj 58 47 r \$0-dsp;
#X obj 13 253 - 2048;
#X connect 2 0 4 0;
#X connect 2 1 19 0;
#X connect 3 0 2 0;
#X connect 5 0 7 0;
#X connect 5 1 6 0;
#X connect 6 0 7 1;
#X connect 7 0 9 0;
#X connect 8 0 10 0;
#X connect 9 0 18 0;
#X connect 10 0 9 1;
#X connect 11 0 12 0;
#X connect 12 0 15 0;
#X connect 12 1 13 0;
#X connect 12 1 22 0;
#X connect 13 0 14 0;
#X connect 14 0 15 1;
#X connect 15 0 17 0;
#X connect 16 0 24 0;
#X connect 19 0 1 0;
#X connect 20 0 3 0;
#X connect 20 0 21 0;
#X connect 23 0 21 0;
#X connect 24 0 5 0;
#X restore 93 193 pd sample;
#X msg 93 105 symbol ../sound/bell.aiff;
#X msg 109 156 symbol ../sound/voice2.wav;
#X msg 103 131 symbol ../sound/voice.wav;
#X text 87 70 : browse/choose soundfile or ->;
#X connect 6 0 16 0;
#X connect 7 0 12 0;
#X connect 7 1 9 0;
#X connect 8 0 7 1;
#X connect 13 0 40 0;
#X connect 14 0 22 0;
#X connect 16 0 28 1;
#X connect 17 0 28 2;
#X connect 18 0 28 1;
#X connect 19 0 26 0;
#X connect 19 0 26 1;
#X connect 22 0 7 0;
#X connect 24 0 16 1;
#X connect 28 0 25 0;
#X connect 28 0 25 1;
#X connect 37 0 27 0;
#X connect 37 0 27 1;
#X connect 39 0 38 0;
#X connect 47 0 22 1;
#X connect 50 0 28 0;
#X connect 51 0 53 0;
#X connect 52 0 51 0;
#X connect 54 0 53 0;
#X connect 55 0 53 0;
#X connect 56 0 53 0;
