#N canvas 171 38 1019 651 12;
#X obj 636 435 element trace-template bazoo;
#X obj 471 525 set point-template y amp;
#X obj 636 340 pointer;
#X obj 654 202 r nframe;
#X obj 211 396 pointer;
#X text 254 368 current trace;
#X obj 211 464 getsize trace-template bazoo;
#X obj 251 524 + 1;
#X obj 251 548 setsize trace-template bazoo;
#X obj 211 577 element trace-template bazoo;
#X obj 211 498 t f f;
#X obj 46 606 set point-template y amp;
#X text 853 440 last trace in list;
#X obj 859 422 s last-in-list;
#X obj 864 285 r last-in-list;
#X obj 636 258 * 5;
#X obj 636 233 f;
#X obj 788 287 f \$1;
#X text 746 259 voice number;
#X obj 636 289 t f b;
#X obj 449 98 ftom;
#X obj 449 124 swap;
#X obj 508 121 rmstodb;
#X obj 441 178 route 0 1;
#X text 724 201 start new trace;
#X text 521 151 newflag \, pitch \, db;
#X text 79 358 add to trace;
#X obj 179 358 t l b;
#X obj 182 206 r add-trace-clear;
#X obj 179 329 spigot;
#X obj 218 275 tgl 19 0 empty empty empty 17 7 0 10 #dfdfdf #000000 #000000 0 1;
#X msg 182 243 0;
#X msg 218 247 1;
#X text 181 166 only add to trace;
#X text 180 181 if one exists;
#X obj 636 314 append trace-template x y voiceno;
#X obj 471 248 trigger list bang;
#X obj 636 377 trigger bang pointer;
#X obj 441 150 pack f f f;
#X obj 211 430 trigger pointer pointer, f 30;
#X obj 449 62 unpack f f f;
#X msg 636 403 0;
#X obj 449 25 inlet;
#X text 495 25 freq \, amp \, newflag;
#X text 98 54 This abstraction is used inside [clone] for the 16.partialtracer example and uses peak information from [sigmund~] to create partial traces with data structures., f 34;
#X text 697 334 reentrancy protection \, should go away, f 22;
#X connect 0 0 1 2;
#X connect 2 0 4 1;
#X connect 2 0 37 0;
#X connect 3 0 16 1;
#X connect 4 0 39 0;
#X connect 6 0 10 0;
#X connect 7 0 8 0;
#X connect 9 0 11 2;
#X connect 10 0 9 0;
#X connect 10 1 7 0;
#X connect 14 0 35 3;
#X connect 15 0 19 0;
#X connect 16 0 15 0;
#X connect 17 0 35 2;
#X connect 19 0 35 0;
#X connect 19 1 17 0;
#X connect 20 0 21 0;
#X connect 21 0 38 0;
#X connect 21 1 38 1;
#X connect 22 0 38 2;
#X connect 23 0 29 0;
#X connect 23 1 32 0;
#X connect 23 1 36 0;
#X connect 27 0 11 0;
#X connect 27 1 4 0;
#X connect 28 0 31 0;
#X connect 29 0 27 0;
#X connect 30 0 29 1;
#X connect 31 0 30 0;
#X connect 32 0 30 0;
#X connect 35 0 2 0;
#X connect 36 0 1 0;
#X connect 36 1 16 0;
#X connect 37 0 41 0;
#X connect 37 1 13 0;
#X connect 37 1 0 1;
#X connect 38 0 23 0;
#X connect 39 0 6 0;
#X connect 39 1 9 1;
#X connect 39 1 8 1;
#X connect 40 0 20 0;
#X connect 40 1 22 0;
#X connect 40 2 21 1;
#X connect 41 0 0 0;
#X connect 42 0 40 0;
