#N canvas 562 81 468 421 12;
#X obj 104 101 until;
#X obj 104 75 t b b;
#X obj 103 139 f;
#X msg 158 95 0;
#X obj 166 129 + 1;
#X obj 102 172 t f f;
#X obj 104 24 inlet;
#X obj 210 283 expr 1 + (($f1 % $f2) == 0);
#X msg 136 357 \; add-rect \$1 \$2 \$3 10;
#X obj 214 77 loadbang;
#X obj 214 102 bng 19 250 50 0 empty empty empty 0 -6 0 8 #dfdfdf #000000 #000000;
#X obj 166 156 sel;
#X floatatom 214 156 5 0 0 0 - - - 0;
#X obj 214 128 expr \$1 * \$2 + 1;
#X obj 102 251 expr 40 + 100 * $f1/$f2;
#X obj 136 317 pack f \$3 f;
#X obj 102 208 pack f \$1 \$2;
#X obj 210 206 pack f \$2;
#X obj 104 49 bng 19 250 50 0 empty empty empty 0 -6 0 8 #dfdfdf #000000 #000000;
#X connect 0 0 2 0;
#X connect 1 0 0 0;
#X connect 1 1 3 0;
#X connect 2 0 4 0;
#X connect 2 0 5 0;
#X connect 3 0 2 1;
#X connect 4 0 2 1;
#X connect 4 0 11 0;
#X connect 5 0 16 0;
#X connect 5 1 17 0;
#X connect 6 0 18 0;
#X connect 7 0 15 2;
#X connect 9 0 10 0;
#X connect 10 0 13 0;
#X connect 11 0 0 1;
#X connect 13 0 11 1;
#X connect 13 0 12 0;
#X connect 14 0 15 0;
#X connect 15 0 8 0;
#X connect 16 0 14 0;
#X connect 17 0 7 0;
#X connect 18 0 1 0;
