#N canvas 678 156 461 560 12;
#X obj 179 153 inlet;
#X obj 233 349 *;
#X obj 82 185 r reset-stop;
#X obj 165 470 outlet;
#X obj 315 241 outlet;
#X obj 248 204 get \$1 x y;
#X obj 165 443 pointer;
#X text 42 104 outlets: pointer (delayed) \, y-value., f 53;
#X obj 179 218 t b p;
#X obj 135 419 t b b;
#X obj 273 293 r time-of-last-evt;
#X obj 233 292 -;
#X obj 248 236 t f f;
#X obj 135 509 s next-evt;
#X obj 273 270 s time-of-last-evt;
#X obj 252 323 r delay-multiplier;
#X text 42 32 This is an abstraction used by the sequencer example.
;
#X text 42 55 Here we carry out the actual sequencing. Argument is
template of the scalar. Note the sends and receives which must agree
with the rest of the patch., f 53;
#X obj 135 393 delay;
#X connect 0 0 8 0;
#X connect 1 0 18 1;
#X connect 2 0 18 0;
#X connect 5 0 12 0;
#X connect 5 1 4 0;
#X connect 6 0 3 0;
#X connect 8 0 18 0;
#X connect 8 1 6 1;
#X connect 8 1 5 0;
#X connect 9 0 13 0;
#X connect 9 1 6 0;
#X connect 10 0 11 1;
#X connect 11 0 1 0;
#X connect 12 0 14 0;
#X connect 12 1 11 0;
#X connect 15 0 1 1;
#X connect 18 0 9 0;
