#N canvas 339 254 722 644 12;
#X obj 261 279 element trace-template bazoo;
#X obj 297 163 getsize trace-template bazoo;
#X obj 429 466 line~;
#X obj 342 6 inlet;
#X obj 424 357 dbtorms;
#X obj 260 437 mtof;
#X obj 260 496 *~;
#X obj 260 524 throw~ osc-sum;
#X obj 185 163 f;
#X obj 229 163 + 1;
#X obj 262 240 moses;
#X obj 261 319 get point-template y amp;
#X obj 426 401 pack 0 30;
#X obj 265 92 t b p;
#X msg 203 138 0;
#X obj 96 60 r osc-tick;
#X msg 505 369 0;
#X obj 507 341 r osc-stop;
#X obj 519 161 get trace-template y;
#X obj 261 357 +;
#X msg 366 369 0;
#X obj 260 466 osc~;
#X obj 556 412 r osc-speed;
#X obj 296 197 - 1;
#X obj 125 318 >=;
#X obj 125 342 sel 1;
#X obj 342 32 route 1;
#X obj 343 57 unpack 0 p;
#X obj 136 384 f;
#X text 162 385 track ID;
#X obj 136 412 s osc-noteoff;
#X text 394 3 on/off \, track-id \, pointer;
#X text 61 434 when done \, send track id;
#X text 59 449 back to poly object so it;
#X text 58 466 can reuse us;
#X connect 0 0 11 0;
#X connect 1 0 23 0;
#X connect 1 0 24 1;
#X connect 2 0 6 1;
#X connect 3 0 26 0;
#X connect 4 0 12 0;
#X connect 5 0 21 0;
#X connect 6 0 7 0;
#X connect 8 0 9 0;
#X connect 8 0 10 0;
#X connect 8 0 24 0;
#X connect 9 0 8 1;
#X connect 10 0 0 0;
#X connect 10 1 20 0;
#X connect 11 0 19 0;
#X connect 11 1 4 0;
#X connect 12 0 2 0;
#X connect 13 0 14 0;
#X connect 13 1 0 1;
#X connect 13 1 1 0;
#X connect 13 1 18 0;
#X connect 14 0 8 1;
#X connect 15 0 8 0;
#X connect 16 0 12 0;
#X connect 17 0 16 0;
#X connect 18 0 19 1;
#X connect 19 0 5 0;
#X connect 20 0 12 0;
#X connect 21 0 6 0;
#X connect 22 0 12 1;
#X connect 23 0 10 1;
#X connect 24 0 25 0;
#X connect 25 0 28 0;
#X connect 26 0 27 0;
#X connect 27 0 28 1;
#X connect 27 1 13 0;
#X connect 28 0 30 0;
