#N canvas 230 103 972 643 10;
#X obj 261 279 element trace-template bazoo;
#X floatatom 320 207 0;
#X obj 297 163 getsize trace-template bazoo;
#X obj 429 466 line~;
#X obj 276 49 inlet;
#X obj 424 357 dbtorms;
#X obj 264 396 mtof;
#X obj 264 476 phasor~;
#X obj 258 513 cos~;
#X obj 265 547 *~;
#X obj 265 587 throw~ osc-sum;
#X obj 185 163 f;
#X obj 245 167 + 1;
#X obj 262 240 moses;
#X obj 261 319 get point-template y amp;
#X obj 426 401 pack 0 30;
#X msg 356 432 0 30;
#X obj 276 89 t b p;
#X msg 225 120 0;
#X obj 96 60 r osc-tick;
#X obj 264 356 * -0.25;
#X obj 81 307 print no;
#X obj 264 436 sig~;
#X msg 609 357 0;
#X obj 616 326 r osc-stop;
#X connect 0 0 14 0;
#X connect 1 0 13 1;
#X connect 2 0 1 0;
#X connect 3 0 9 1;
#X connect 4 0 17 0;
#X connect 5 0 15 0;
#X connect 6 0 22 0;
#X connect 7 0 8 0;
#X connect 8 0 9 0;
#X connect 9 0 10 0;
#X connect 11 0 12 0;
#X connect 11 0 13 0;
#X connect 12 0 11 1;
#X connect 13 0 0 0;
#X connect 13 1 16 0;
#X connect 14 0 20 0;
#X connect 14 1 5 0;
#X connect 15 0 3 0;
#X connect 16 0 3 0;
#X connect 17 0 18 0;
#X connect 17 1 0 1;
#X connect 17 1 2 0;
#X connect 18 0 11 1;
#X connect 19 0 11 0;
#X connect 20 0 6 0;
#X connect 22 0 7 0;
#X connect 23 0 15 0;
#X connect 24 0 23 0;
