#N canvas 614 23 547 335 12;
#X text 87 6 INTRODUCTION TO THE PD AUDIO EXAMPLE PATCHES;
#X msg 124 192 browse http://msp.ucsd.edu/techniques.htm;
#X obj 124 226 pdcontrol;
#X text 277 268 updated for Pd version 0.52;
#X text 34 45 This is the second of three tutorial series on Pd. This
one shows the time and frequency domain audio processing features.
(The first one showed how to use Pd to do "control" computations \,
and the third is about data structures.), f 67;
#X text 33 114 These patches are accompanied by an ONLINE BOOK \, which
develops the underlying theory at <http://msp.ucsd.edu/techniques.htm>.
Click on the message below to open it., f 67;
#X connect 1 0 2 0;
