#N canvas 568 25 528 671 12;
#X obj 94 132 osc~ 440;
#X obj 102 402 dac~;
#X obj 114 352 *~;
#X obj 132 326 line~;
#X msg 123 166 0.1 2000;
#X msg 143 251 0 2000;
#X msg 132 188 0.1 50;
#X msg 150 273 0 50;
#X msg 139 210 0.1;
#X msg 155 295 0;
#X text 284 187 ON;
#X text 281 280 OFF;
#X text 33 23 CONTROLLING AMPLITUDE USING LINE~;
#X text 295 626 updated for Pd version 0.36;
#X text 170 131 <= sine wave;
#X text 190 165 <= slow;
#X text 184 189 <= fast;
#X text 169 210 <= instantly;
#X text 196 251 <= slow;
#X text 188 273 <= fast;
#X text 185 295 <= instantly;
#X text 179 326 <= ramp generator;
#X text 143 401 <= out;
#X text 115 231 -------------------------------;
#X text 151 351 <= multiply the sine wave by the ramp. There's no longer a "0" argument - this tells Pd to expect a signal here., f 38;
#X text 32 62 In this patch \, the multiplier is configured to multiply two signals. The amplitude is now a signal computed by the [line~] object., f 62;
#X text 25 443 The left inlet of [line~] is a target value. It reaches that target in the time specified (in milliseconds) to its right inlet., f 67;
#X text 25 479 (In this example \, message boxes with two numbers each are connected to [line~]'s left inlet. Except in some special cases \, Pd objects with more than one inlet will automatically distribute lists of numbers across their inlets. In this case \, "0 50" becomes \, "50 at right and 0 at left."), f 67;
#X text 25 556 The [line~] object (and its control brother \, [line]) treat their right inlet specially. The inlets don't retain values the way other inlets do but revert to zero whenever a target is received., f 67;
#X obj 380 126 ../5.reference/set-dsp-tgl;
#X text 411 129 DSP on/off;
#X msg 380 163 \; pd dsp \$1;
#X connect 0 0 2 0;
#X connect 2 0 1 0;
#X connect 2 0 1 1;
#X connect 3 0 2 1;
#X connect 4 0 3 0;
#X connect 5 0 3 0;
#X connect 6 0 3 0;
#X connect 7 0 3 0;
#X connect 8 0 3 0;
#X connect 9 0 3 0;
#X connect 29 0 31 0;
