#N canvas 456 108 739 519 12;
#N canvas 0 22 450 278 (subpatch) 0;
#X array waveform13 11 float 1;
#A 0 1 1 1 1 1 1 1 -1 -1 -1 -1;
#X coords 0 1.02 10 -1.02 180 130 1;
#X restore 404 24 graph;
#X obj 162 159 +~ 1;
#X text 52 82 phase;
#X text 52 131 range;
#N canvas 0 22 450 278 (subpatch) 0;
#X array wave-out13 441 float 0;
#X coords 0 1.02 440 -1.02 300 140 1;
#X restore 405 217 graph;
#X obj 162 249 tabwrite~ wave-out13;
#X obj 162 186 tabread4~ waveform13;
#X obj 162 133 *~ 8;
#X obj 162 97 phasor~ 220;
#X obj 214 318 sig~ 220;
#X obj 214 348 tabosc4~ waveform13;
#X text 204 217 <-- click to graph;
#X obj 179 218 bng 19 250 50 0 empty empty empty 17 7 0 10 #dfdfdf #000000 #000000;
#X obj 41 198 ../5.reference/set-dsp-tgl;
#X text 72 201 DSP on/off;
#X msg 41 235 \; pd dsp \$1;
#X text 51 97 generation -->;
#X text 51 146 adjustment -->;
#X text 86 297 this would be equivalent to the above -->, f 25;
#X text 46 398 This patch demonstrates 4-point interpolation in [tabread4~]. The 11-point table \, "waveform13" \, contains a transition from from 1 to -1 \, which is "smoothed" as seen in wave-out13. There's no such transition at the wrap around point--the interpolation always happens between 4 consecutive samples of the table \, disregarding wraparound., f 65;
#N canvas 801 456 474 197 init_waveform 0;
#X obj 73 42 loadbang;
#X msg 73 99 \; waveform13 0 1 1 1 1 1 1 1 -1 -1 -1 -1 \; waveform13 xlabel -1.2 0 1 2 3 4 5 6 7 8 9 10;
#X text 195 52 initialize waveform;
#X connect 0 0 1 0;
#X restore 564 429 pd init_waveform;
#X obj 34 25 cnv 5 5 25 empty empty 4-Point\ Interpolation\ in\ detail 15 13 0 16 #dfdfdf #202020 0;
#X connect 1 0 6 0;
#X connect 6 0 5 0;
#X connect 7 0 1 0;
#X connect 8 0 7 0;
#X connect 9 0 10 0;
#X connect 12 0 5 0;
#X connect 13 0 15 0;
