#N canvas 418 47 764 678 12;
#X declare -stdpath ./;
#X obj 59 325 hip~ 5;
#N canvas 0 0 450 300 (subpatch) 0;
#X array sample-table 44103 float 2;
#X coords 0 1.02 44103 -1.02 200 130 1;
#X restore 503 48 graph;
#X obj 59 287 tabread4~ sample-table;
#X obj 59 255 line~;
#X obj 59 126 * 441;
#X floatatom 59 68 5 0 100 0 - - - 0;
#X text 106 126 convert to SAMPLES (441 samples in 0.01 sec);
#X obj 204 355 loadbang;
#X text 45 570 For more on reading and writing soundfiles to tables \, setting their lengths \, etc \, see "arrays" in the "control examples" series., f 96;
#X text 45 531 Fanatics take note: if you want really high-fidelity sampling \, use a high-quality resampling program to up-sample your soundfile to 88200 to drastically reduce interpolation error., f 96;
#X text 101 255 convert smoothly to audio signal;
#X text 107 86 (range is 0-100.) YOU ONLY HEAR OUTPUT;
#X text 108 102 WHEN THIS IS 0-100 AND ACTIVELY CHANGING.;
#X msg 204 379 read ../sound/voice.wav sample-table;
#X obj 204 404 soundfiler;
#X obj 59 368 output~;
#X obj 581 268 declare -stdpath ./;
#X obj 59 153 pack f 100;
#X text 100 68 <-- read point in 100ths of a second, f 39;
#X text 111 325 high pass filter to cut DC;
#X listbox 59 184 10 0 0 0 - - - 0;
#X text 230 279 read from the table (the input is the index in samples), f 30;
#X text 477 360 message to read a soundfile into the table (automatically sent when you load this patch by the [loadbang] object.), f 30;
#X text 45 454 This patch implements a simples scratch machine with [tabread4~] \, which reads audio samples out of a floating-point array \, often called a "sample table." The input is the index of the sample to read \, counting from zero. The output is calculated using 4-point cubic interpolation \, which is adequate for most purposes. Because of the interpolation scheme \, [tabread4~]'s input cannot be less than one or greater than the table length minus two., f 96;
#X text 45 606 Note the highpass filter ([hip~ 5]) that is present to filter a DC component (0 hz frequency). This is not actually needed as the [output~] abstraction already includes [hip~] objects to filter DC \, but it's present in the examples for didactic reasons., f 96;
#X text 508 202 (one second plus three extra;
#X text 510 221 for 4-point interpolation);
#X text 527 180 --- 44103 samples ---;
#X msg 78 218 1 \, 44101 1000;
#X text 182 217 read the whole table (from 1 to n-2);
#X obj 109 21 cnv 5 5 25 empty empty Scratch\ Machine 15 13 0 16 #dfdfdf #202020 0;
#X connect 0 0 15 0;
#X connect 2 0 0 0;
#X connect 3 0 2 0;
#X connect 4 0 17 0;
#X connect 5 0 4 0;
#X connect 7 0 13 0;
#X connect 13 0 14 0;
#X connect 17 0 20 0;
#X connect 20 0 3 0;
#X connect 28 0 3 0;
