#N canvas 303 79 965 595 12;
#X declare -stdpath ./;
#N canvas 0 0 450 300 (subpatch) 0;
#X array tabread4-out 44100 float 2;
#X coords 0 1.02 44100 -1.02 200 130 1;
#X restore 466 68 graph;
#N canvas 0 0 450 300 (subpatch) 0;
#X array table17 44103 float 2;
#X coords 0 1.02 44103 -1.02 200 130 1;
#X restore 683 68 graph;
#X obj 625 390 loadbang;
#X obj 88 306 tabwrite~ tabread4-out;
#X obj 55 335 hip~ 5;
#X floatatom 55 81 5 0 0 0 - - - 0;
#X text 181 242 read from the table;
#X text 80 38 LOOPING SAMPLER;
#X floatatom 80 134 5 0 0 0 - - - 0;
#X obj 80 160 * 441;
#X obj 55 187 *~ 0;
#X obj 55 214 +~ 1;
#X obj 616 264 adc~ 1;
#X text 715 395 v-- re-read the original sample;
#X text 199 491 In this patch you will frequently hear discontinuities at the looping point. If you're working in a studio \, you can sometimes find "good" loop points for samples. Another approach \, better for live situations \, is shown in the next patch., f 55;
#X obj 625 443 soundfiler;
#X text 699 206 ---- 44103 samples ----;
#X obj 55 375 output~;
#X text 717 527 updated for Pd version 0.37;
#X obj 55 243 tabread4~ table17;
#X obj 616 331 tabwrite~ table17;
#X msg 625 418 read ../sound/voice.wav table17;
#X text 200 352 This is a looping sampler in which you specify the number of loops per second (the frequency) and the size of the chunk to loop. If the frequency is less than about 20 \, you will hear repetition and the chunk size will sound like transposition. For frequencies above 50 or so \, you hear a tone whose timbre is controlled by the chunk size (best kept below 10 or so.) Remember you can use the "shift" key on number boxes to make fine adjustments., f 55;
#X obj 760 15 declare -stdpath ./;
#X text 113 271 <-- click to display output;
#X obj 629 298 bng 19 250 50 0 empty empty empty 17 7 0 10 #dfdfdf #000000 #000000;
#X text 655 298 <-- click here to record your own sample;
#X text 104 81 <-- frequency (Hz.);
#X text 125 135 <-- chunk size (100ths of a second);
#X text 101 186 <-- readjust phase for range 0 - (chunk size);
#X text 100 214 <-- add one to avoid beginning of table;
#X obj 55 107 phasor~;
#X obj 88 272 bng 19 250 50 0 empty empty empty 17 7 0 10 #dfdfdf #000000 #000000;
#X text 482 206 ------ 1 second ------;
#X connect 2 0 21 0;
#X connect 4 0 17 0;
#X connect 5 0 31 0;
#X connect 8 0 9 0;
#X connect 9 0 10 1;
#X connect 10 0 11 0;
#X connect 11 0 19 0;
#X connect 12 0 20 0;
#X connect 19 0 4 0;
#X connect 19 0 3 0;
#X connect 21 0 15 0;
#X connect 25 0 20 0;
#X connect 31 0 10 0;
#X connect 32 0 3 0;
