#N canvas 616 23 656 802 12;
#X obj 83 447 rpole~;
#X obj 104 527 cpole~;
#X obj 128 558 cpole~;
#X obj 104 495 *~;
#X msg 512 555 clear;
#X obj 151 248 loadbang;
#X obj 177 622 rzero~;
#X obj 207 684 czero~;
#X obj 233 720 czero~;
#X obj 207 652 /~;
#X obj 421 436 tgl 15 0 empty empty empty 0 -6 0 8 -262144 -1 -1 0
50;
#X obj 83 418 *~;
#X obj 177 594 /~;
#X obj 198 315 samplerate~;
#X obj 198 341 / 2;
#X obj 151 369 / 22050;
#X obj 151 316 f \$1;
#X obj 151 342 t f b;
#X obj 159 287 inlet;
#X obj 421 248 loadbang;
#X obj 429 287 inlet;
#X obj 287 248 loadbang;
#X obj 333 317 samplerate~;
#X obj 333 343 / 2;
#X obj 287 371 / 22050;
#X obj 287 343 t f b;
#X obj 295 287 inlet;
#X obj 83 251 inlet~;
#X obj 514 287 inlet;
#X obj 233 748 outlet~;
#X obj 287 318 f \$2;
#X obj 421 320 f \$3;
#X text 83 230 audio;
#X text 155 227 lp freq;
#X text 285 227 hp freq;
#X text 417 227 hi/lo norm;
#X text 515 265 clear;
#X text 110 26 3-pole \, 3-zero butterworth lp/hp/shelving filter.
Args: lp freq \, hp freq \, normalize-hi. Inlets: input signal \, lo
freq \, hi freq \, hi norm \, reset.;
#X text 112 101 For high-pass: set LP freq =0 and hi/lo to 1;
#X text 112 72 For low-pass: set HP freq >= SR/2 and hi/lo to 0;
#X text 111 147 Shelving: HP and LP specify shelving band. Gain difference
is about HP/LP cubed (so HP=2LP should give about 18 dB \, for example.)
;
#X obj 151 401 buttercoef3;
#X obj 244 577 buttercoef3;
#X connect 0 0 3 0;
#X connect 1 0 2 0;
#X connect 1 1 2 1;
#X connect 2 0 12 0;
#X connect 3 0 1 0;
#X connect 4 0 0 0;
#X connect 4 0 1 0;
#X connect 4 0 2 0;
#X connect 4 0 6 0;
#X connect 4 0 7 0;
#X connect 4 0 8 0;
#X connect 5 0 16 0;
#X connect 6 0 9 0;
#X connect 7 0 8 0;
#X connect 7 1 8 1;
#X connect 8 0 29 0;
#X connect 9 0 7 0;
#X connect 10 0 41 1;
#X connect 10 0 42 1;
#X connect 11 0 0 0;
#X connect 12 0 6 0;
#X connect 13 0 14 0;
#X connect 14 0 15 1;
#X connect 15 0 41 0;
#X connect 16 0 17 0;
#X connect 17 0 15 0;
#X connect 17 1 13 0;
#X connect 18 0 16 0;
#X connect 19 0 31 0;
#X connect 20 0 31 0;
#X connect 21 0 30 0;
#X connect 22 0 23 0;
#X connect 23 0 24 1;
#X connect 24 0 42 0;
#X connect 25 0 24 0;
#X connect 25 1 22 0;
#X connect 26 0 30 0;
#X connect 27 0 11 0;
#X connect 28 0 4 0;
#X connect 30 0 25 0;
#X connect 31 0 10 0;
#X connect 41 0 11 1;
#X connect 41 1 3 1;
#X connect 41 2 0 1;
#X connect 41 3 1 2;
#X connect 41 3 2 2;
#X connect 41 4 1 3;
#X connect 41 5 2 3;
#X connect 42 0 12 1;
#X connect 42 1 9 1;
#X connect 42 2 6 1;
#X connect 42 3 7 2;
#X connect 42 3 8 2;
#X connect 42 4 7 3;
#X connect 42 5 8 3;
