#N canvas 516 98 515 555 12;
#X declare -stdpath ./;
#X obj 139 413 output~;
#X obj 139 376 clip~ 0 1;
#X obj 139 186 mtof;
#X floatatom 139 164 5 0 0 0 - - - 0;
#X obj 139 322 *~ 20;
#X obj 139 348 -~ 19;
#X obj 139 210 phasor~;
#X obj 153 246 output~;
#X text 95 500 We'll explain more about making pulses later on... this example is mostly intended as ear training., f 50;
#X text 40 62 In more ordinary kinds of waveforms \, foldover comes across as a "cheap synth" sound. You can hear the foldover clearly in the pulse train here \, and less clearly (but still audibly) in the straight sawtooth \, especially at high pitches., f 63;
#N canvas 698 337 212 167 set 0;
#X obj 45 74 loadbang;
#X msg 45 99 61;
#X obj 45 124 outlet;
#X text 7 6 This sets the pitch initially to 61 when the patch is first opened., f 26;
#X connect 0 0 1 0;
#X connect 1 0 2 0;
#X restore 139 138 pd set;
#X obj 344 169 declare -stdpath ./;
#X text 274 266 <-- sawtooth amplitude;
#X text 262 432 <-- pulse train amplitude;
#X text 182 163 <-- pitch;
#X obj 91 17 cnv 5 5 25 empty empty Foldvoer\ in\ Sawtooth\ Waves 15 13 0 16 #dfdfdf #202020 0;
#X connect 1 0 0 0;
#X connect 2 0 6 0;
#X connect 3 0 2 0;
#X connect 4 0 5 0;
#X connect 5 0 1 0;
#X connect 6 0 4 0;
#X connect 6 0 7 0;
#X connect 10 0 3 0;
