#N canvas 544 38 544 582 12;
#X declare -stdpath ./;
#X obj 190 405 output~;
#X obj 308 405 output~;
#N canvas 799 288 303 263 metro 0;
#X obj 88 38 loadbang;
#X msg 88 65 1;
#X obj 88 127 tgl 15 0 empty empty empty 0 -6 0 8 #fcfcfc #000000 #000000 0 1;
#X obj 88 153 sel 0 1;
#X obj 88 190 outlet;
#X obj 152 192 outlet;
#X obj 88 96 metro 2.1;
#X connect 0 0 1 0;
#X connect 1 0 6 0;
#X connect 2 0 3 0;
#X connect 3 0 4 0;
#X connect 3 1 5 0;
#X connect 6 0 2 0;
#X restore 190 284 pd metro;
#X obj 190 360 line~;
#X obj 308 360 vline~;
#X msg 190 323 1 2.1;
#X msg 308 323 0 2.1;
#X obj 379 19 declare -stdpath ./;
#X text 60 55 For controlling amplitudes \, [line~] \, with its block-aligned breakpoints \, is accurate enough for most purposes. But certain usages \, such as this patch \, demand more accuracy. The [vline~] object \, somewhat more expensive than [line~] \, can handle breakpoints to sub-sample accuracy., f 60;
#X text 60 135 Here we try out [line~] and [vline~] as triangle wave generators. The subpatch is still sending alternating bangs as in the last patch \, but now at an audible frequency \, every 2 msec.;
#X text 61 201 The effect of [line~] rounding breakpoints to the nearest block (on the order of a millisecond) is that each 4-ms-long cycle has a different shape. Using [vline~] resolves the problem.;
#X text 105 496 Sometimes you will want to use [vline~] in place of [sig~] for the same reason., f 52;
#X obj 42 13 cnv 5 5 25 empty empty Converting\ Control\ to\ Signals 15 13 0 16 #dfdfdf #202020 0;
#X connect 2 0 5 0;
#X connect 2 1 6 0;
#X connect 3 0 0 0;
#X connect 4 0 1 0;
#X connect 5 0 3 0;
#X connect 5 0 4 0;
#X connect 6 0 3 0;
#X connect 6 0 4 0;
