#N canvas 832 52 549 871 12;
#X declare -stdpath ./;
#X obj 109 552 mtof;
#X obj 109 501 stripnote;
#X obj 260 557 select;
#X obj 251 451 float;
#X obj 260 419 t b f;
#X obj 260 525 float;
#X text 310 410 f - store pitch below;
#X text 300 453 velocity stored here;
#X text 224 497 off;
#X text 304 525 recall pitch;
#X text 156 7 MONOPHONIC MIDI SYNTH;
#X obj 130 386 unpack;
#X obj 86 305 notein;
#X obj 86 332 pack;
#X obj 190 613 line~;
#X msg 190 582 \$1 100;
#X msg 260 583 0 1000;
#X text 39 100 First \, at top \, incoming MIDI notes are parsed and
used to set pitch and trigger an ADSR envelope. Second \, the envelope
generator itself has been extended to offer controls over the time
and target values via number boxes.;
#X text 41 46 This patch shows how to make a monophonic synthesizer
that could be controlled from a MIDI or voltage-control keyboard--in
this example we assume MIDI.;
#X msg 232 335 55 64;
#X msg 325 335 55 0;
#X msg 184 335 48 64;
#X msg 282 335 48 0;
#X text 38 167 The note-off testing is complicated by the fact that
we have to test both that the velocity is zero \, and further that
the note-off pitch matches the pitch that is now playing (the most
recent note-on pitch.);
#X text 311 427 b - bang to recall velocity;
#X obj 251 480 sel 0;
#X text 273 501 on;
#X obj 81 793 output~;
#X obj 99 757 hip~ 5;
#X obj 99 696 *~;
#X obj 109 579 phasor~;
#X obj 109 603 -~ 0.5;
#X obj 99 644 cos~;
#X obj 172 669 *~;
#X obj 99 668 +~ 1;
#X text 304 804 updated for Pd version 0.37;
#X obj 172 717 cos~;
#X msg 130 335 48 128;
#X text 114 529 pitch;
#X text 303 481 test for note on or off;
#X text 313 558 test against latest;
#X text 355 573 note-on pitch;
#X obj 99 729 *~;
#X obj 190 555 / 127;
#X text 38 233 The synthesis technique is the same as in the previous
patch \, done in a simpler (but less general) way with a cos~ object
replacing the wavetable lookup.;
#X obj 172 693 *~ 2;
#X obj 190 642 +~ 0.5;
#X text 218 713 The +~ 0.5 and *~ 2 are fudge factors.;
#X text 218 674 This replaces the tabread4~;
#X text 216 694 in the previous patch.;
#X text 144 310 These buttons simulate MIDI input.;
#X text 49 476 filter note-on messages, f 8;
#X text 240 606 envelope generator now controls amplitude as well as
grain size, f 31;
#X obj 390 7 declare -stdpath ./;
#X connect 0 0 30 0;
#X connect 1 0 2 1;
#X connect 1 0 0 0;
#X connect 2 0 16 0;
#X connect 3 0 25 0;
#X connect 4 0 3 0;
#X connect 4 1 5 1;
#X connect 5 0 2 0;
#X connect 11 0 1 0;
#X connect 11 0 4 0;
#X connect 11 1 1 1;
#X connect 11 1 3 1;
#X connect 12 0 13 0;
#X connect 12 1 13 1;
#X connect 13 0 11 0;
#X connect 14 0 42 1;
#X connect 14 0 46 0;
#X connect 15 0 14 0;
#X connect 16 0 14 0;
#X connect 19 0 11 0;
#X connect 20 0 11 0;
#X connect 21 0 11 0;
#X connect 22 0 11 0;
#X connect 25 0 5 0;
#X connect 25 1 43 0;
#X connect 28 0 27 0;
#X connect 28 0 27 1;
#X connect 29 0 42 0;
#X connect 30 0 31 0;
#X connect 31 0 33 0;
#X connect 31 0 32 0;
#X connect 32 0 34 0;
#X connect 33 0 45 0;
#X connect 34 0 29 0;
#X connect 36 0 29 1;
#X connect 37 0 11 0;
#X connect 42 0 28 0;
#X connect 43 0 15 0;
#X connect 45 0 36 0;
#X connect 46 0 33 1;
