#N canvas 617 93 531 407 12;
#X declare -stdpath ./;
#X obj 55 273 osc~;
#X obj 55 214 line~;
#X obj 55 152 r pitch;
#X msg 143 226 36, f 2;
#X msg 172 226 48, f 2;
#X msg 199 226 60, f 2;
#X msg 256 226 72, f 2;
#X msg 228 226 67, f 2;
#X msg 309 226 76, f 2;
#X msg 284 226 74, f 2;
#X obj 284 291 s pitch;
#X msg 336 226 84, f 2;
#X msg 365 226 96, f 2;
#X floatatom 122 152 4 0 0 0 - - - 0;
#X floatatom 284 265 6 0 0 0 - - - 0;
#X obj 256 200 loadbang;
#X obj 55 315 output~;
#X obj 284 341 declare -stdpath ./;
#X obj 55 183 pack f 100;
#X text 160 151 <-- change speed;
#X obj 55 244 mtof~;
#X text 63 70 Portamento can be done using just [line~] \, but you still might want to sweep in pitch \, not frequency:;
#X text 394 226 <-- set pitch;
#X obj 174 19 cnv 5 5 25 empty empty Portamento 15 13 0 16 #dfdfdf #202020 0;
#X connect 0 0 16 0;
#X connect 1 0 20 0;
#X connect 2 0 18 0;
#X connect 3 0 14 0;
#X connect 4 0 14 0;
#X connect 5 0 14 0;
#X connect 6 0 14 0;
#X connect 7 0 14 0;
#X connect 8 0 14 0;
#X connect 9 0 14 0;
#X connect 11 0 14 0;
#X connect 12 0 14 0;
#X connect 13 0 18 1;
#X connect 14 0 10 0;
#X connect 15 0 6 0;
#X connect 18 0 1 0;
#X connect 20 0 0 0;
