#N canvas 485 46 568 513 12;
#X declare -stdpath ./;
#X floatatom 228 321 4 0 0 0 - - - 0;
#X floatatom 173 321 4 0 0 0 - - - 0;
#X text 75 18 ADDITIVE SYNTHESIS;
#X text 132 322 pitch;
#X obj 119 433 output~;
#X text 23 56 This patch demonstrates using an abstraction \, "partial"
\, to make a simple additive synthesis instrument originally from Jean-Claude
Risset., f 73;
#X obj 90 213 bng 20 250 50 0 empty empty empty 0 -6 0 8 #dfdfdf #000000
#000000;
#X obj 384 226 declare -stdpath ./;
#X text 329 456 updated for Pd version 0.52;
#X msg 90 245 all bang;
#X text 115 214 <-- play;
#N canvas 318 133 408 358 init 0;
#X msg 48 98 next 1 1 0.56 0 \, next 0.67 0.9 0.56 1 \, next 1 0.65
0.92 0 \, next 1.8 0.55 0.92 1.7 \, next 2.67 0.32 1.19 0 \, next 1.67
0.35 1.7 0 \, next 1.46 0.25 2 0 \, next 1.33 0.2 2.74 0 \, next 1.33
0.15 3 0 \, next 1 0.1 3.76 0 \, next 1.33 0.075 4.07 0, f 22;
#X obj 48 292 outlet;
#X msg 233 180 72;
#X msg 302 180 40;
#X obj 233 292 outlet;
#X obj 302 292 outlet;
#X obj 233 38 loadbang;
#X connect 0 0 1 0;
#X connect 2 0 4 0;
#X connect 3 0 5 0;
#X connect 6 0 0 0;
#X connect 6 0 2 0;
#X connect 6 0 3 0;
#X restore 119 286 pd init;
#X text 262 308 duration in tenths of a second, f 11;
#X obj 119 388 clone 11 partial;
#X text 23 106 We use [clone] to create 11 copies of the abstraction
and send messages to each (with the "next" message) whose arguments
are amplitude \, relative duration \, relative frequency and detuning
frequency - open [pd init] to see this. You set absolute duration and
pitch using the number box controls below. Click the bang to make sound.
, f 73;
#X msg 173 356 all \$1;
#X msg 228 356 all \$1;
#X connect 0 0 16 0;
#X connect 1 0 15 0;
#X connect 6 0 9 0;
#X connect 9 0 13 0;
#X connect 11 0 13 0;
#X connect 11 1 1 0;
#X connect 11 2 0 0;
#X connect 13 0 4 0;
#X connect 13 0 4 1;
#X connect 15 0 13 1;
#X connect 16 0 13 2;
