#N canvas 402 38 816 789 12;
#X declare -stdpath ./;
#X obj 243 64 delay 5;
#X text 419 288 end of note;
#N canvas 282 191 730 441 recorder 0;
#X obj 218 34 inlet;
#X obj 128 258 adc~ 1;
#X obj 128 286 hip~ 5;
#X obj 197 316 line~;
#X obj 128 315 *~;
#X msg 197 288 1;
#X obj 256 253 del 3990;
#X msg 233 288 0 10;
#X obj 128 366 tabwrite~ sample1;
#X obj 42 191 makefilename sample%1;
#X msg 42 220 set \$1 \, bang;
#X msg 300 224 stop;
#X msg 256 224 bang;
#X obj 382 226 loadbang;
#X obj 378 128 openpanel;
#X text 422 265 v-- re-read original samples;
#X obj 218 63 route record stop reload browse;
#X obj 382 347 soundfiler;
#X msg 378 155 read \$1 sample1;
#X obj 378 182 soundfiler;
#X msg 382 289 read -resize ../sound/bell.aiff sample1 \, read -resize ../sound/voice2.wav sample2, f 40;
#X text 402 98 <-- browse for samples;
#X obj 378 98 bng 19 250 50 0 empty empty empty 0 -10 0 12 #dfdfdf #000000 #000000;
#X connect 0 0 16 0;
#X connect 1 0 2 0;
#X connect 2 0 4 0;
#X connect 3 0 4 1;
#X connect 4 0 8 0;
#X connect 5 0 3 0;
#X connect 6 0 7 0;
#X connect 7 0 3 0;
#X connect 9 0 10 0;
#X connect 10 0 8 0;
#X connect 11 0 6 0;
#X connect 12 0 6 0;
#X connect 13 0 20 0;
#X connect 14 0 18 0;
#X connect 16 0 9 0;
#X connect 16 0 12 0;
#X connect 16 0 5 0;
#X connect 16 1 7 0;
#X connect 16 1 11 0;
#X connect 16 2 20 0;
#X connect 16 3 22 0;
#X connect 18 0 19 0;
#X connect 20 0 17 0;
#X connect 22 0 14 0;
#X restore 631 179 pd recorder;
#X msg 624 55 record 1;
#X msg 638 99 stop;
#N canvas 797 90 569 656 playback 0;
#X obj 57 60 line~;
#X obj 75 252 line~;
#X obj 57 283 *~;
#X obj 75 223 r cutoff;
#X obj 57 31 r phase;
#X obj 57 607 outlet~;
#X obj 57 579 hip~ 5;
#X obj 69 94 r sample-number;
#X obj 69 123 makefilename sample%d;
#X msg 69 151 set \$1;
#X obj 57 192 tabread4~ sample1;
#X obj 75 319 r envelope;
#X obj 75 406 sqrt;
#X obj 75 435 sqrt;
#X obj 75 463 line~;
#X obj 57 550 *~;
#X obj 75 492 *~;
#X obj 75 521 *~;
#X text 230 123 compute the name;
#X text 110 499 square the output twice to get the fourth power., f 24;
#X obj 75 348 unpack f f;
#X obj 75 377 dbtorms;
#X text 120 254 [line~] for de-clicking;
#X text 127 32 messages to the phase generating [line~];
#X text 167 309 The envelope generator. Rather than sending our message straight to the [line~] we unpack it in order to fool with the amplitude field., f 45;
#X text 141 407 take the fourth root. This because we want to raise the [line~]'s output to the 4th power afterwards. This is an inexpensive way to give the rise and decay a more natural sounding evolution than just a straight line., f 51;
#X text 190 95 setting the sample number;
#X text 124 150 and send a "set" message to [tabread4~];
#X text 146 378 convert amplitude to linear units;
#X connect 0 0 10 0;
#X connect 1 0 2 1;
#X connect 2 0 15 0;
#X connect 3 0 1 0;
#X connect 4 0 0 0;
#X connect 6 0 5 0;
#X connect 7 0 8 0;
#X connect 8 0 9 0;
#X connect 9 0 10 0;
#X connect 10 0 2 0;
#X connect 11 0 20 0;
#X connect 12 0 13 0;
#X connect 13 0 14 0;
#X connect 14 0 16 0;
#X connect 14 0 16 1;
#X connect 15 0 6 0;
#X connect 16 0 17 0;
#X connect 16 0 17 1;
#X connect 17 0 15 1;
#X connect 20 0 21 0;
#X connect 20 1 14 1;
#X connect 21 0 12 0;
#X restore 454 648 pd playback;
#X msg 631 77 record 2;
#X text 50 272 ARGUMENTS FOR NOTES:;
#X text 81 294 pitch in halftones, f 21;
#X text 81 311 amplitude (dB), f 21;
#X text 81 345 sample number, f 21;
#X text 81 328 duration (msec), f 21;
#X text 81 362 start location (msec);
#X text 81 379 rise time (msec), f 21;
#X text 81 397 decay time (msec), f 21;
#X text 27 16 CHOCOLATE SAMPLER;
#X obj 491 188 f;
#X obj 442 162 f;
#X obj 373 162 f;
#X obj 336 162 f;
#X obj 304 162 f;
#X obj 227 162 f;
#X obj 227 189 mtof;
#X obj 227 217 / 261.62;
#X obj 227 244 * 4.41e+08;
#X obj 263 278 +;
#X obj 243 91 t b b b;
#X obj 373 217 + 1;
#X msg 42 485 60 100 10000 1 0 0 0;
#X obj 57 747 s note;
#X msg 491 216 \; envelope 0 \$1;
#X msg 185 667 62;
#X msg 220 667 64;
#X msg 151 667 60;
#X msg 119 667 55;
#X msg 253 667 72;
#X msg 87 667 48;
#X msg 252 693 60.5;
#X msg 49 508 60 90 10000 1 0 0 0;
#X obj 373 189 * 44.1;
#X msg 74 598 60 100 100 1 0 0 0;
#X msg 78 621 60 100 100 1 0 0 1000;
#X msg 69 576 60 100 10000 1 0 1000 0;
#X msg 644 121 reload;
#X msg 649 143 browse;
#X text 418 309 combine amplitude \, rise time \, start phase \, end phase \, and sample number in one message, f 43;
#X text 191 485 straight playback;
#X text 189 507 change amplitude;
#X text 204 529 change sample number;
#X text 230 552 change start location;
#X text 237 574 change rise time;
#X text 212 597 change duration;
#X text 233 619 ... and decay time;
#X text 90 643 If you omit values they stay unchanged;
#X obj 454 685 output~;
#X obj 372 82 unpack f f f f f f f;
#X obj 309 320 pack f f f f f;
#X text 39 70 as before we mute and wait, f 13;
#X text 31 442 These demonstrate the effect of varying the parameters one by one., f 34;
#X obj 478 162 del;
#X msg 62 552 60 100 10000 1 3000 0 0;
#X msg 56 530 60 100 10000 2 0 0 0;
#X msg 139 69 \; cutoff 0 5;
#N canvas 305 163 336 422 samples 0;
#N canvas 0 0 450 300 (subpatch) 0;
#X array sample1 155944 float 2;
#X coords 0 1.02 155944 -1.02 200 130 1;
#X restore 71 36 graph;
#N canvas 0 0 450 300 (subpatch) 0;
#X array sample2 39075 float 2;
#X coords 0 1.02 39075 -1.02 200 130 1;
#X restore 70 203 graph;
#X restore 636 223 pd samples;
#X obj 603 16 declare -stdpath ./;
#X obj 243 27 bang;
#X text 409 467 This patch takes the same principle as the earlier "one-shot sampler" \, but allows you to parameterize sample playback. Since we must wait 5 msec before starting the playback \, we store all the parameters in [f] objects \, and recall them to construct the new note. Transposition is done by altering the amount to play back in the (artificial) ten thousand seconds (1e+07). The playback segment can be altered to start in the middle of the sample instead of the beginning \, and you can change the duration and rise and decay times., f 50;
#X text 688 55 <-- record;
#X msg 309 376 \; envelope 0 \, \$1 \$2 \; phase \$3 \, \$4 1e+07 \; sample-number \$5 \; cutoff 1 5;
#X text 25 157 transposition works by altering the phase target (\$4 below right.) The [mtof] and [/ 261.62] calculate speed change considering 60 as unity., f 26;
#X text 462 369 This starts the note \, sending to [r] objects in the playback subpatch. The new [r envelope] is an amplitude control in parallel with the cutoff control. The "sample-number" switches the [tabread4~] between tables., f 40;
#X listbox 309 349 27 0 0 0 - - - 0;
#X obj 372 25 r note;
#X listbox 372 54 23 0 0 0 - - - 0;
#X text 289 693 microtones OK too;
#X text 587 711 updated for Pd version 0.52;
#X connect 0 0 26 0;
#X connect 3 0 2 0;
#X connect 4 0 2 0;
#X connect 5 0 54 0;
#X connect 6 0 2 0;
#X connect 16 0 30 0;
#X connect 17 0 56 1;
#X connect 18 0 39 0;
#X connect 19 0 56 4;
#X connect 20 0 56 0;
#X connect 21 0 22 0;
#X connect 22 0 23 0;
#X connect 23 0 24 0;
#X connect 24 0 25 0;
#X connect 25 0 56 3;
#X connect 26 0 20 0;
#X connect 26 1 21 0;
#X connect 26 2 17 0;
#X connect 26 2 18 0;
#X connect 26 2 19 0;
#X connect 26 2 59 0;
#X connect 27 0 25 1;
#X connect 27 0 56 2;
#X connect 28 0 29 0;
#X connect 31 0 29 0;
#X connect 32 0 29 0;
#X connect 33 0 29 0;
#X connect 34 0 29 0;
#X connect 35 0 29 0;
#X connect 36 0 29 0;
#X connect 37 0 29 0;
#X connect 38 0 29 0;
#X connect 39 0 27 0;
#X connect 40 0 29 0;
#X connect 41 0 29 0;
#X connect 42 0 29 0;
#X connect 43 0 2 0;
#X connect 44 0 2 0;
#X connect 55 0 21 1;
#X connect 55 0 65 0;
#X connect 55 1 20 1;
#X connect 55 2 59 1;
#X connect 55 3 19 1;
#X connect 55 4 18 1;
#X connect 55 5 17 1;
#X connect 55 6 16 1;
#X connect 56 0 71 0;
#X connect 59 0 16 0;
#X connect 60 0 29 0;
#X connect 61 0 29 0;
#X connect 65 0 0 0;
#X connect 65 0 62 0;
#X connect 71 0 68 0;
#X connect 72 0 73 0;
#X connect 73 0 55 0;
