#N canvas 427 113 697 571 12;
#X declare -stdpath ./;
#X obj 146 239 *~;
#X obj 189 239 line~;
#X obj 71 240 cos~;
#X obj 71 215 +~;
#X obj 189 216 pack 0 50;
#X floatatom 189 168 4 0 0 0 - - - 0;
#X obj 189 192 / 100;
#X obj 71 190 phasor~;
#X obj 71 351 output~;
#N canvas 665 146 599 711 fft 0;
#X obj 97 106 inlet~;
#X obj 286 257 inlet;
#X obj 113 137 rfft~;
#X obj 113 170 *~;
#X obj 145 170 *~;
#X obj 113 200 sqrt~;
#X obj 113 226 biquad~ 0 0 0 0 1;
#X text 171 138 Fourier series;
#X text 182 191 magnitude;
#X text 180 176 calculate;
#X text 97 28 This subpatch computes the spectrum of the incoming signal with a (rectangular windowed) FFT. FFTs aren't properly introduced until much later.;
#X text 161 106 signal to analyze;
#X text 271 209 delay two samples;
#X text 269 227 for better graphing;
#X obj 133 532 samplerate~;
#X obj 133 509 bng 18 250 50 0 empty empty empty 0 -6 0 8 #dfdfdf #000000 #000000;
#X floatatom 133 581 5 0 0 0 - - - 0;
#X obj 133 555 / 256;
#X obj 133 485 loadbang;
#X obj 184 631 s fundamental;
#X text 86 426 At load time \, calculate a good choice of fundamental frequency for showing spectra: the 16th bin in a 4096-point spectrum \, so SR*16/4096 or SR/256.;
#X obj 319 311 metro 500;
#X obj 309 281 inlet;
#X text 362 279 toggle to graph repeatedly;
#X text 340 257 bang to graph once;
#X obj 97 372 tabwrite~ E09-signal;
#X obj 319 343 tabwrite~ E09-spectrum;
#X obj 133 603 t b f;
#X msg 133 631 \; cm 6;
#X text 138 671 set carrier multiplier after fundamental;
#X obj 113 250 /~ 4096;
#X msg 287 367 \; pd dsp 1;
#X obj 401 149 block~ 4096;
#X text 393 122 Window size;
#X connect 0 0 2 0;
#X connect 0 0 25 0;
#X connect 1 0 25 0;
#X connect 1 0 26 0;
#X connect 1 0 31 0;
#X connect 2 0 3 0;
#X connect 2 0 3 1;
#X connect 2 1 4 0;
#X connect 2 1 4 1;
#X connect 3 0 5 0;
#X connect 4 0 5 0;
#X connect 5 0 6 0;
#X connect 6 0 30 0;
#X connect 14 0 17 0;
#X connect 15 0 14 0;
#X connect 16 0 27 0;
#X connect 17 0 16 0;
#X connect 18 0 15 0;
#X connect 21 0 25 0;
#X connect 21 0 26 0;
#X connect 22 0 21 0;
#X connect 22 0 31 0;
#X connect 27 0 28 0;
#X connect 27 1 19 0;
#X connect 30 0 26 0;
#X restore 115 294 pd fft;
#X obj 134 270 bng 19 250 50 0 empty empty empty 0 -6 0 8 #dfdfdf #000000 #000000;
#X obj 175 294 tgl 19 0 empty empty empty 0 -6 0 8 #dfdfdf #000000 #000000 0 1;
#N canvas 0 0 450 300 (subpatch) 0;
#X array E09-signal 882 float 0;
#X coords 0 1.02 882 -1.02 200 80 1;
#X restore 411 89 graph;
#N canvas 0 0 450 300 (subpatch) 0;
#X array E09-spectrum 259 float 0;
#X coords 0 0.51 258 -0.008 259 130 1;
#X restore 361 238 graph;
#X text 429 175 ---- 0.02 seconds ----;
#X text 391 369 2;
#X text 422 369 4;
#X text 360 369 0;
#X text 332 117 WAVEFORM;
#X text 511 213 SPECTRUM;
#X text 621 354 0;
#X text 622 236 0.5;
#X obj 146 168 osc~;
#X obj 146 137 r fundamental;
#X text 224 168 index (x100);
#X text 454 369 6;
#X text 487 369 8;
#X text 515 369 10;
#X text 547 369 12;
#X text 579 369 14;
#X floatatom 71 109 3 0 15 0 - - - 0;
#X obj 71 166 *;
#X obj 71 80 r cm;
#X text 100 109 carrier harmonic #;
#X text 98 448 This patch measures the spectrum of two-operator phase modulation. The carrier frequency is initially six times the modulation frequency \, but you can change it with the "carrier harmonic #" control. Changing the index changes the relative strengths of the harmonics. Past a certain index (which depends on the carrier frequency) the lower sidebands begin to reflect about the left edge of the spectrum \, causing complicated interference effects., f 71;
#X obj 517 29 declare -stdpath ./;
#X text 196 293 <-- repeatedly;
#X text 156 270 <-- graph once;
#X obj 71 323 hip~ 5;
#X text 393 394 ------ partial number ------;
#X obj 46 26 cnv 5 5 25 empty empty Spectrum\ of\ Two-Operator\ Phase\ Modulation 15 13 0 16 #dfdfdf #202020 0;
#X connect 0 0 3 1;
#X connect 1 0 0 1;
#X connect 2 0 9 0;
#X connect 2 0 38 0;
#X connect 3 0 2 0;
#X connect 4 0 1 0;
#X connect 5 0 6 0;
#X connect 6 0 4 0;
#X connect 7 0 3 0;
#X connect 10 0 9 1;
#X connect 11 0 9 2;
#X connect 22 0 0 0;
#X connect 23 0 22 0;
#X connect 23 0 31 1;
#X connect 30 0 31 0;
#X connect 31 0 7 0;
#X connect 32 0 30 0;
#X connect 38 0 8 0;
