#N canvas 455 76 710 648 12;
#X declare -stdpath ./;
#X obj 128 402 cos~;
#N canvas 0 22 450 278 (subpatch) 0;
#X array env-output 44100 float 0;
#X coords 0 1.02 44100 -1.02 200 130 1;
#X restore 416 181 graph;
#X obj 71 296 -~ 0.5;
#X obj 128 344 *~;
#X obj 128 371 clip~ -0.5 0.5;
#X obj 128 504 hip~ 5;
#X obj 146 143 *~;
#X floatatom 225 248 4 1 1000 0 - - - 0;
#X floatatom 225 274 4 0 0 0 - - - 0;
#X obj 146 105 phasor~ -4;
#X obj 146 301 +~ 0.5;
#X obj 182 204 tabwrite~ env-output;
#X text 415 316 --------- 1 second ---------;
#X floatatom 225 300 4 0 0 0 - - - 0;
#X obj 146 245 lop~ 130;
#N canvas 704 266 342 431 freq 0;
#X obj 198 156 t f f;
#X obj 199 182 *;
#X obj 90 320 line 0 30;
#X obj 90 132 t b b;
#X obj 90 107 metro 100;
#X obj 90 376 outlet;
#X floatatom 90 247 5 0 0 0 - - - 0;
#X floatatom 199 247 5 0 0 0 - - - 0;
#X obj 90 348 pack 0 30;
#X obj 90 210 + 150;
#X obj 90 34 loadbang;
#X obj 90 183 random 300;
#X obj 199 206 + 100;
#X obj 197 132 random 35;
#X obj 90 72 tgl 19 0 empty empty empty 0 -10 0 12 #dfdfdf #000000 #000000 0 1;
#X obj 90 287 pack float float;
#X connect 0 0 1 0;
#X connect 0 1 1 1;
#X connect 1 0 12 0;
#X connect 2 0 8 0;
#X connect 3 0 11 0;
#X connect 3 1 13 0;
#X connect 4 0 3 0;
#X connect 6 0 15 0;
#X connect 7 0 15 1;
#X connect 8 0 5 0;
#X connect 9 0 6 0;
#X connect 10 0 14 0;
#X connect 11 0 9 0;
#X connect 12 0 4 1;
#X connect 12 0 7 0;
#X connect 13 0 0 0;
#X connect 14 0 4 0;
#X connect 15 0 2 0;
#X restore 71 216 pd freq;
#X obj 71 244 line~;
#X obj 71 269 phasor~;
#X text 175 142 square it to make a curve;
#X text 265 258 you can;
#X text 263 276 adjust these;
#X text 265 296 values;
#X text 346 373 We interrupt this series of patches to bring you an important message from Nancy Reagan. If \, anywhere \, at any time \, someone offers you an illicit drug \, just say one word in reply..., f 40;
#X text 346 471 Now that I'm sure you've heard this important message \, we can return to the essentially frivolous occupation of making turn-of-the-millennium western art music., f 40;
#X obj 146 272 *~ 6;
#X obj 128 546 output~;
#X obj 484 113 declare -stdpath ./;
#X obj 182 173 bng 19 250 50 0 empty empty empty 0 -6 0 8 #dfdfdf #000000 #000000;
#X text 206 173 <-- click to graph;
#X text 231 97 negative frequency generates downwards ramps, f 25;
#X obj 128 433 +~ 1;
#X obj 128 465 *~ 0.5;
#X obj 81 34 cnv 5 5 25 empty empty Just\ Say\ One\ Word... 15 13 0 16 #dfdfdf #202020 0;
#X connect 0 0 30 0;
#X connect 2 0 3 0;
#X connect 3 0 4 0;
#X connect 4 0 0 0;
#X connect 5 0 25 0;
#X connect 6 0 14 0;
#X connect 6 0 11 0;
#X connect 7 0 14 1;
#X connect 8 0 24 1;
#X connect 9 0 6 0;
#X connect 9 0 6 1;
#X connect 10 0 3 1;
#X connect 13 0 10 1;
#X connect 14 0 24 0;
#X connect 15 0 16 0;
#X connect 16 0 17 0;
#X connect 17 0 2 0;
#X connect 24 0 10 0;
#X connect 27 0 11 0;
#X connect 30 0 31 0;
#X connect 31 0 5 0;
