#N canvas 504 51 756 667 12;
#X declare -stdpath ./;
#X obj 147 328 cos~;
#X floatatom 194 117 4 0 100 0 - - - 0;
#X obj 194 141 / 10;
#X text 519 506 --- 0.02 seconds ---;
#X obj 147 298 *~;
#X obj 194 213 line~;
#X obj 194 165 max 0;
#N canvas 0 0 450 300 (subpatch) 0;
#X array F08-carrier 882 float 0;
#X coords 0 2 881 -2 200 140 1;
#X restore 488 355 graph;
#X floatatom 97 220 5 0 0 0 - - - 0;
#X obj 189 328 cos~;
#X obj 230 241 wrap~;
#X obj 194 268 -~;
#X obj 189 298 +~;
#X obj 189 373 -~;
#X obj 212 423 *~;
#X obj 194 463 +~;
#X obj 194 189 pack 0 50;
#X text 243 328 synthesize the two partials;
#X obj 194 566 output~;
#X text 297 116 The other \, spiffier way is to make a sum of cosines to interpolate between adjacent harmonics. Suppose for example we want a center frequency of 5.3 (in units of the fundamental.) We just take partial 5 with amplitude 0.7 and partial 6 with amplitude 0.3:, f 52;
#X obj 279 518 tabwrite~ F08-carrier;
#X obj 279 487 bng 19 250 50 0 empty empty empty 0 -6 0 8 #dfdfdf #000000 #000000;
#X obj 97 244 phasor~ 100;
#X text 282 240 the fractional part "q";
#X text 243 268 subtract to get the integer part "k";
#X text 243 298 multiply phase by k and k+1;
#X text 237 374 c2 - c1;
#X text 250 421 q * (c2 - c1);
#X text 229 458 q * c2 + (1-q) * c1;
#X obj 371 591 declare -stdpath ./;
#X text 302 486 <-- graph;
#X obj 194 517 hip~ 5;
#X text 81 180 fundamental frequency, f 11;
#X text 26 113 center frequency (in tenths of fundamental), f 22;
#X obj 103 37 cnv 5 5 25 empty empty Movable\ Center\ Frequency\ by\ Adding\ Two\ Cosines 15 13 0 16 #dfdfdf #202020 0;
#X connect 0 0 13 1;
#X connect 0 0 15 0;
#X connect 1 0 2 0;
#X connect 2 0 6 0;
#X connect 4 0 0 0;
#X connect 4 0 12 0;
#X connect 5 0 11 0;
#X connect 5 0 10 0;
#X connect 6 0 16 0;
#X connect 8 0 22 0;
#X connect 9 0 13 0;
#X connect 10 0 11 1;
#X connect 10 0 14 1;
#X connect 11 0 4 1;
#X connect 12 0 9 0;
#X connect 13 0 14 0;
#X connect 14 0 15 1;
#X connect 15 0 20 0;
#X connect 15 0 31 0;
#X connect 16 0 5 0;
#X connect 21 0 20 0;
#X connect 22 0 4 0;
#X connect 22 0 12 1;
#X connect 31 0 18 0;
