#N canvas 434 57 705 620 12;
#X declare -stdpath ./;
#X obj 175 416 cos~;
#X floatatom 165 204 4 0 200 0 - - - 0;
#X obj 165 227 / 10;
#X floatatom 109 246 4 0 0 0 - - - 0;
#X text 61 208 fundamental;
#X text 54 223 (= mod freq);
#X text 241 214 index;
#X text 241 234 (percent);
#X floatatom 241 255 4 0 500 0 - - - 0;
#X obj 241 324 line~;
#X obj 193 358 *~;
#X obj 241 278 / 100;
#X obj 241 301 pack 0 50;
#X obj 175 393 +~;
#X text 229 350 modulating;
#X text 229 365 oscillator;
#X obj 175 504 output~;
#X obj 248 410 bng 19 250 50 0 empty empty empty 0 -6 0 8 #dfdfdf #000000 #000000;
#X obj 268 437 tgl 19 0 empty empty empty 0 -6 0 8 #dfdfdf #000000 #000000 0 1;
#N canvas 0 0 450 300 (subpatch) 0;
#X array F11-spectrum 259 float 0;
#X coords 0 0.51 258 -0.008 256 130 1;
#X restore 373 203 graph;
#X text 365 334 0;
#X text 427 344 -- frequency --;
#X text 602 339 2700;
#X obj 165 276 *;
#X obj 165 253 t b f;
#X obj 193 329 osc~;
#X obj 130 350 phasor~;
#X text 122 74 Here's what happens if you just slide the carrier frequency around. The spectrum moves up and down all right \, but is only periodic at the original period when the center frequency roosts on a harmonic., f 67;
#X text 72 343 carrier;
#X text 51 358 oscillator;
#X text 159 152 center freq. (in tenths of fundamental), f 13;
#X obj 346 502 declare -stdpath ./;
#X text 270 410 <-- graph once;
#X text 289 436 <-- repeatedly;
#X obj 175 466 hip~ 5;
#N canvas 605 126 529 576 fft 0;
#X obj 83 140 inlet~;
#X obj 197 410 inlet;
#X obj 83 272 rfft~;
#X obj 83 305 *~;
#X obj 115 305 *~;
#X obj 115 336 sqrt~;
#X obj 115 362 biquad~ 0 0 0 0 1;
#X text 135 272 Fourier series;
#X text 161 324 magnitude;
#X text 161 309 calculate;
#X text 62 23 This subpatch computes the spectrum of the incoming signal with a (rectangular windowed) FFT. FFTs aren't properly introduced until much later.;
#X text 76 105 signal to analyze, f 9;
#X text 244 357 delay two samples;
#X text 242 375 for better graphing;
#X obj 171 135 samplerate~;
#X obj 214 469 metro 500;
#X obj 214 446 inlet;
#X text 262 444 toggle to graph repeatedly;
#X text 241 411 bang to graph once;
#X obj 115 386 /~ 4096;
#X obj 171 158 / 4096;
#X obj 171 190 osc~;
#X obj 171 218 +~ 1;
#X obj 83 203 *~;
#X text 215 203 hanning window;
#X obj 373 271 block~ 4096;
#X text 375 246 window size;
#X obj 264 102 loadbang;
#X obj 171 242 *~ 0.5;
#X msg 264 148 0.5;
#X obj 197 506 tabwrite~ F11-spectrum;
#X connect 0 0 23 0;
#X connect 1 0 30 0;
#X connect 2 0 3 0;
#X connect 2 0 3 1;
#X connect 2 1 4 0;
#X connect 2 1 4 1;
#X connect 3 0 5 0;
#X connect 4 0 5 0;
#X connect 5 0 6 0;
#X connect 6 0 19 0;
#X connect 14 0 20 0;
#X connect 15 0 30 0;
#X connect 16 0 15 0;
#X connect 19 0 30 0;
#X connect 20 0 21 0;
#X connect 21 0 22 0;
#X connect 22 0 28 0;
#X connect 23 0 2 0;
#X connect 27 0 14 0;
#X connect 27 0 29 0;
#X connect 28 0 23 1;
#X connect 29 0 21 1;
#X restore 229 463 pd fft;
#X obj 80 31 cnv 5 5 25 empty empty How\ Not\ to\ Apply\ Two-Cosine\ Carrier\ to\ FM 15 13 0 16 #dfdfdf #202020 0;
#X connect 0 0 34 0;
#X connect 0 0 35 0;
#X connect 1 0 2 0;
#X connect 2 0 24 0;
#X connect 3 0 23 0;
#X connect 3 0 25 0;
#X connect 8 0 11 0;
#X connect 9 0 10 1;
#X connect 10 0 13 1;
#X connect 11 0 12 0;
#X connect 12 0 9 0;
#X connect 13 0 0 0;
#X connect 17 0 35 1;
#X connect 18 0 35 2;
#X connect 23 0 26 0;
#X connect 24 0 23 0;
#X connect 24 1 23 1;
#X connect 25 0 10 0;
#X connect 26 0 13 0;
#X connect 34 0 16 0;
