#N canvas 533 221 658 560 12;
#X obj 150 352 f;
#X obj 180 352 + 1;
#X obj 81 210 t b b;
#X msg 168 328 0;
#X obj 150 415 sel 1;
#X msg 103 318 0;
#X msg 81 241 1;
#X floatatom 484 330 7 0 0 0 - - -;
#X obj 484 393 phasor~;
#X obj 419 454 cos~;
#X obj 484 456 cos~;
#X obj 484 431 -~ 0.25;
#X obj 81 179 inlet;
#X obj 419 483 outlet~;
#X obj 484 485 outlet~;
#X obj 221 389 t f f;
#X obj 221 451 outlet;
#X msg 134 211 \; pd dsp 1;
#X obj 150 392 >= \$1;
#X msg 530 366 0;
#X obj 150 297 metro;
#X text 134 15 filter-graph1 -- generate sinusoids to test a filter
;
#X text 136 31 arg 1: number of steps - arg2: frequency range;
#X text 105 85 This \, together with its companion filter-graph2 \,
measure a filter's frequency and phase response. Here we count from
0 to n-1 (where n is the table size) and output the index and a complex
sinusoid at each frequency to test., f 49;
#X text 237 261 fudge to estimate settling time;
#X obj 502 108 loadbang;
#X obj 502 153 t b b;
#X obj 543 201 max 1;
#X obj 502 178 f \$2;
#X obj 543 178 f \$1;
#X obj 502 201 /;
#X obj 484 303 *;
#X floatatom 502 240 5 0 0 0 - - -;
#X floatatom 182 270 5 0 0 0 - - -;
#X obj 502 133 bng 15 250 50 0 empty empty empty 0 -6 0 8 -262144 -1
-1;
#X obj 217 242 expr max(50 \, 40000/($f2*max($f1 \, 1)));
#X obj 221 427 pack f f;
#X connect 0 0 1 0;
#X connect 0 0 15 0;
#X connect 0 0 18 0;
#X connect 1 0 0 1;
#X connect 2 0 6 0;
#X connect 2 1 3 0;
#X connect 2 1 17 0;
#X connect 3 0 0 1;
#X connect 4 0 5 0;
#X connect 5 0 20 0;
#X connect 6 0 20 0;
#X connect 7 0 8 0;
#X connect 8 0 11 0;
#X connect 8 0 9 0;
#X connect 9 0 13 0;
#X connect 10 0 14 0;
#X connect 11 0 10 0;
#X connect 12 0 2 0;
#X connect 15 0 36 0;
#X connect 15 1 31 0;
#X connect 15 1 35 0;
#X connect 18 0 4 0;
#X connect 19 0 8 1;
#X connect 20 0 0 0;
#X connect 20 0 19 0;
#X connect 25 0 34 0;
#X connect 26 0 28 0;
#X connect 26 1 29 0;
#X connect 27 0 30 1;
#X connect 28 0 30 0;
#X connect 29 0 27 0;
#X connect 30 0 32 0;
#X connect 30 0 35 1;
#X connect 31 0 7 0;
#X connect 31 0 36 1;
#X connect 32 0 31 1;
#X connect 33 0 20 1;
#X connect 34 0 26 0;
#X connect 35 0 33 0;
#X connect 35 0 36 1;
#X connect 36 0 16 0;
