#N canvas 561 38 603 649 12;
#X declare -stdpath ./;
#X obj 100 331 hip~ 10;
#X floatatom 326 300 5 0 0 0 - - - 0;
#X obj 326 350 line~;
#X floatatom 255 248 5 0 0 0 - - - 0;
#X floatatom 255 447 5 0 0 0 - - - 0;
#X obj 255 520 line~;
#X obj 255 472 * 0.01;
#X floatatom 156 201 5 0 0 0 - - - 0;
#X obj 156 278 line~;
#X obj 100 277 *~;
#X obj 100 304 cos~;
#X floatatom 100 165 6 0 0 0 - - - 0;
#X obj 100 192 mtof;
#X obj 100 220 * 0.5;
#X obj 100 359 clip~ -0.2 0.2;
#X obj 156 229 * 0.01;
#X obj 100 396 +~;
#X obj 237 548 *~;
#X obj 255 351 *~;
#X obj 100 430 hip~ 5;
#X obj 255 322 +~ 1;
#X obj 255 378 +~ 1.46;
#X obj 100 548 output~;
#X obj 237 596 delwrite~ G03-del 1000;
#X obj 237 572 clip~ -1 1;
#X obj 406 21 declare -stdpath ./;
#X obj 326 326 pack f 100;
#X obj 156 253 pack f 100;
#X obj 100 249 osc~;
#X obj 255 409 delread4~ G03-del;
#X text 31 67 This is a fuzzed FM generator going into a delay loop \, this time using a variable delay object ([delread4~]) that also performs interpolation for non integer indexes. You can get several interesting effects this way. We have taken the precaution of clipping inside the loop to avoid instabilities. You can push the loop gain past 1 if you want \, it will just oscillate., f 76;
#X obj 255 496 pack f 100;
#X text 149 164 <-- pitch;
#X text 197 202 <-- timbre;
#X text 297 247 <-- cycle frequency (hundredths);
#X text 367 300 <-- cycle depth (msec);
#X text 300 447 <-- feedback (hundredths);
#X obj 255 298 osc~;
#X obj 255 274 * 0.01;
#X obj 76 20 cnv 5 5 25 empty empty Variable\ Time\ Delays 15 13 0 16 #dfdfdf #202020 0;
#X connect 0 0 14 0;
#X connect 1 0 26 0;
#X connect 2 0 18 1;
#X connect 3 0 38 0;
#X connect 4 0 6 0;
#X connect 5 0 17 1;
#X connect 6 0 31 0;
#X connect 7 0 15 0;
#X connect 8 0 9 1;
#X connect 9 0 10 0;
#X connect 10 0 0 0;
#X connect 11 0 12 0;
#X connect 12 0 13 0;
#X connect 13 0 28 0;
#X connect 14 0 16 0;
#X connect 15 0 27 0;
#X connect 16 0 19 0;
#X connect 17 0 24 0;
#X connect 18 0 21 0;
#X connect 19 0 17 0;
#X connect 19 0 22 0;
#X connect 20 0 18 0;
#X connect 21 0 29 0;
#X connect 24 0 23 0;
#X connect 26 0 2 0;
#X connect 27 0 8 0;
#X connect 28 0 9 0;
#X connect 29 0 16 1;
#X connect 31 0 5 0;
#X connect 37 0 20 0;
#X connect 38 0 37 0;
