#N canvas 553 38 529 640 12;
#X declare -stdpath ./;
#X floatatom 110 217 5 0 150 0 - \$0-pitch - 0;
#X obj 110 264 phasor~;
#X obj 170 432 +~;
#X floatatom 188 407 5 0 100 0 - \$0-offset - 0;
#X floatatom 170 303 5 0 0 0 - \$0-speed - 0;
#X floatatom 188 354 5 0 100 0 - \$0-depth - 0;
#X floatatom 183 487 5 0 1000 0 - \$0-q - 0;
#X obj 158 512 vcf~;
#X text 236 326 LFO for sweep;
#X text 206 431 add base to sweep;
#X text 215 461 convert to Hz.;
#X obj 158 553 output~;
#X obj 110 240 mtof;
#X obj 170 325 phasor~;
#X obj 170 379 *~;
#X text 68 150 Note the different effects of negative and positive sweep speeds., f 53;
#X obj 170 461 mtof~;
#X text 68 69 If you want actively changing center frequencies \, use [vcf~] instead of [bp~]. The [vcf~] module takes an audio signal to set center frequency (Q is still set by messages though) \, which makes it computationally somewhat more expensive than [bp~]., f 53;
#N canvas 706 247 304 346 init 0;
#X obj 85 23 loadbang;
#X obj 85 47 bng 19 250 50 0 empty empty empty 0 -6 0 8 #dfdfdf #000000 #000000;
#X obj 85 76 f \$0;
#X msg 85 100 \; \$1-pitch 48 \; \$1-speed -2 \; \$1-depth 27 \; \$1-offset 56 \; \$1-q 2;
#X obj 86 277 declare -stdpath ./;
#X text 66 209 This subpatch initializes the patch and loads values in number boxes., f 27;
#X connect 0 0 1 0;
#X connect 1 0 2 0;
#X connect 2 0 3 0;
#X restore 338 567 pd init;
#X text 226 485 <-- Q (selectivity);
#X text 231 407 <-- base center frequency;
#X text 230 355 <-- sweep depth;
#X text 212 302 <-- sweep speed;
#X text 156 217 <-- pitch;
#X obj 45 22 cnv 5 5 25 empty empty Sweeping\ Filters 15 13 0 16 #dfdfdf #202020 0;
#X obj 110 350 -~ 1;
#X obj 110 326 *~ 2;
#X text 176 257 [phasor~] is turned to a sawtooth like oscillator, f 25;
#X connect 0 0 12 0;
#X connect 1 0 26 0;
#X connect 2 0 16 0;
#X connect 3 0 2 1;
#X connect 4 0 13 0;
#X connect 5 0 14 1;
#X connect 6 0 7 2;
#X connect 7 0 11 0;
#X connect 12 0 1 0;
#X connect 13 0 14 0;
#X connect 14 0 2 0;
#X connect 16 0 7 1;
#X connect 25 0 7 0;
#X connect 26 0 25 0;
