#N canvas 553 38 514 633 12;
#X declare -stdpath ./;
#X floatatom 126 203 5 0 150 0 - \$0-pitch - 0;
#X text 102 27 SWEEPING FILTERS;
#X obj 126 250 phasor~;
#X obj 138 408 +~;
#X floatatom 156 383 5 0 100 0 - \$0-offset - 0;
#X floatatom 139 279 5 0 0 0 - \$0-speed - 0;
#X floatatom 157 330 5 0 100 0 - \$0-depth - 0;
#X floatatom 151 463 5 0 1000 0 - \$0-q - 0;
#X obj 126 488 vcf~;
#X text 197 239 sawtooth;
#X text 198 255 oscillator;
#X text 216 302 LFO for sweep;
#X text 174 407 add base to sweep;
#X text 183 437 convert to Hz.;
#X obj 126 529 output~;
#X obj 126 226 mtof;
#X obj 139 301 phasor~;
#X obj 139 355 *~;
#X text 269 595 updated for Pd version 0.39;
#N canvas 706 247 304 285 startup 0;
#X obj 85 23 loadbang;
#X obj 85 47 bng 19 250 50 0 empty empty empty 0 -6 0 8 #dfdfdf #000000 #000000;
#X obj 85 76 f \$0;
#X msg 85 100 \; \$1-pitch 48 \; \$1-speed -2 \; \$1-depth 27 \; \$1-offset 56 \; \$1-q 2;
#X text 66 209 This subpatch loads initial values in number boxes., f 27;
#X connect 0 0 1 0;
#X connect 1 0 2 0;
#X connect 2 0 3 0;
#X restore 303 532 pd startup;
#X text 67 140 Note the different effects of negative and positive sweep speeds., f 53;
#X text 172 203 <= pitch;
#X text 181 278 <= sweep speed;
#X text 199 331 <= sweep depth;
#X text 199 383 <= base center frequency;
#X text 203 462 <= Q (selectivity);
#X obj 307 22 declare -stdpath ./;
#X obj 138 437 mtof~;
#X text 67 59 If you want actively changing center frequencies \, use [vcf~] instead of [bp~]. The [vcf~] module takes an audio signal to set center frequency (Q is still set by messages though) \, which makes it computationally somewhat more expensive than [bp~]., f 53;
#X connect 0 0 15 0;
#X connect 2 0 8 0;
#X connect 3 0 27 0;
#X connect 4 0 3 1;
#X connect 5 0 16 0;
#X connect 6 0 17 1;
#X connect 7 0 8 2;
#X connect 8 0 14 0;
#X connect 15 0 2 0;
#X connect 16 0 17 0;
#X connect 17 0 3 0;
#X connect 27 0 8 1;
