#N canvas 449 88 709 721 12;
#X obj 250 507 *~;
#X obj 248 678 outlet~;
#X obj 103 412 makefilename sample%d;
#X msg 103 438 set \$1;
#X obj 103 467 tabread4~ sample1;
#X obj 317 433 dbtorms;
#X obj 335 402 unpack;
#X obj 317 456 sqrt;
#X obj 317 479 sqrt;
#X obj 337 593 *~;
#X obj 355 534 *~;
#X obj 355 557 *~;
#X msg 222 58 bang;
#X obj 222 96 delay 5;
#X obj 437 195 f;
#X obj 388 170 f;
#X obj 327 165 f;
#X obj 297 165 f;
#X obj 268 165 f;
#X obj 185 170 f;
#X obj 185 193 mtof;
#X obj 185 216 / 261.62;
#X obj 185 239 * 4.41e+08;
#X obj 218 282 +;
#X obj 222 119 t b b b;
#X obj 327 211 + 1;
#X obj 327 188 * 44.1;
#X msg 64 349 0 5;
#X msg 268 349 1 5;
#X msg 335 349 0 \, \$1 \$2;
#X msg 101 349 \$3 \, \$4 1e+07;
#X msg 232 349 \$5;
#X msg 437 349 0 \$1;
#X obj 318 83 inlet;
#X obj 248 594 inlet~;
#X obj 248 639 +~;
#X text 66 19 This is an abstraction used by the polyphonic sampler.
;
#X text 512 156 ARGUMENTS FOR NOTES:;
#X text 512 178 pitch in halftones;
#X text 512 202 amplitude (dB);
#X text 512 250 sample number;
#X text 512 226 duration (msec);
#X text 512 274 start location (msec);
#X text 512 298 rise time (msec);
#X text 512 322 decay time (msec);
#X obj 44 429 vline~;
#X obj 268 402 vline~;
#X obj 355 507 vline~;
#X obj 318 106 unpack f f f f f f f;
#X obj 268 314 pack f f f f f;
#X obj 424 170 del;
#X connect 0 0 9 0;
#X connect 2 0 3 0;
#X connect 3 0 4 0;
#X connect 4 0 0 0;
#X connect 5 0 7 0;
#X connect 6 0 5 0;
#X connect 6 1 47 1;
#X connect 7 0 8 0;
#X connect 8 0 47 0;
#X connect 9 0 35 1;
#X connect 10 0 11 0;
#X connect 10 0 11 1;
#X connect 11 0 9 1;
#X connect 12 0 13 0;
#X connect 12 0 27 0;
#X connect 13 0 24 0;
#X connect 14 0 32 0;
#X connect 15 0 49 1;
#X connect 16 0 26 0;
#X connect 17 0 49 4;
#X connect 18 0 49 0;
#X connect 19 0 20 0;
#X connect 20 0 21 0;
#X connect 21 0 22 0;
#X connect 22 0 23 0;
#X connect 23 0 49 3;
#X connect 24 0 18 0;
#X connect 24 1 19 0;
#X connect 24 2 15 0;
#X connect 24 2 16 0;
#X connect 24 2 17 0;
#X connect 24 2 50 0;
#X connect 25 0 23 1;
#X connect 25 0 49 2;
#X connect 26 0 25 0;
#X connect 27 0 46 0;
#X connect 28 0 46 0;
#X connect 29 0 6 0;
#X connect 30 0 45 0;
#X connect 31 0 2 0;
#X connect 32 0 6 0;
#X connect 33 0 48 0;
#X connect 34 0 35 0;
#X connect 35 0 1 0;
#X connect 45 0 4 0;
#X connect 46 0 0 1;
#X connect 47 0 10 0;
#X connect 47 0 10 1;
#X connect 48 0 19 1;
#X connect 48 0 12 0;
#X connect 48 1 18 1;
#X connect 48 2 50 1;
#X connect 48 3 17 1;
#X connect 48 4 16 1;
#X connect 48 5 15 1;
#X connect 48 6 14 1;
#X connect 49 0 28 0;
#X connect 49 0 29 0;
#X connect 49 0 30 0;
#X connect 49 0 31 0;
#X connect 50 0 14 0;
