#N canvas 621 65 532 608 12;
#X obj 232 402 line~;
#X obj 232 426 *~;
#X obj 232 449 *~;
#X obj 204 286 sqrt;
#X obj 164 73 inlet;
#X obj 204 308 sqrt;
#X obj 163 443 inlet~;
#X obj 163 548 outlet~;
#X obj 232 475 *~;
#X obj 303 424 osc~;
#X obj 163 516 +~;
#X obj 316 254 pack;
#X text 210 74 inlet: volume \, pitch \, duration;
#X text 44 14 arguments: \$1 = relative amplitude \, \$2 = pitch multiplier
\, \$3 = detune \, \$4 = time multiplier;
#X obj 222 161 dbtorms;
#X obj 222 188 * \$1;
#X obj 204 263 f;
#X obj 275 260 f;
#X obj 293 161 mtof;
#X obj 293 186 * \$2;
#X obj 293 208 + \$3;
#X obj 341 162 * \$4;
#X msg 73 212 0 5;
#X msg 164 162 bang;
#X obj 107 212 del 5;
#X obj 176 103 outlet;
#X msg 164 210 0;
#X obj 204 330 pack 0 5;
#X obj 164 188 del 10;
#X obj 164 132 unpack float float float;
#X connect 0 0 1 0;
#X connect 0 0 1 1;
#X connect 1 0 2 0;
#X connect 1 0 2 1;
#X connect 2 0 8 0;
#X connect 3 0 5 0;
#X connect 4 0 25 0;
#X connect 4 0 29 0;
#X connect 5 0 27 0;
#X connect 6 0 10 0;
#X connect 8 0 10 1;
#X connect 9 0 8 1;
#X connect 10 0 7 0;
#X connect 11 0 0 0;
#X connect 14 0 15 0;
#X connect 15 0 16 1;
#X connect 16 0 3 0;
#X connect 17 0 9 0;
#X connect 18 0 19 0;
#X connect 19 0 20 0;
#X connect 20 0 17 1;
#X connect 21 0 11 1;
#X connect 22 0 0 0;
#X connect 23 0 24 0;
#X connect 23 0 28 0;
#X connect 24 0 16 0;
#X connect 24 0 17 0;
#X connect 26 0 11 0;
#X connect 27 0 0 0;
#X connect 28 0 26 0;
#X connect 29 0 14 0;
#X connect 29 0 22 0;
#X connect 29 0 23 0;
#X connect 29 1 18 0;
#X connect 29 2 21 0;
