#N canvas 559 63 649 755 12;
#X obj 79 451 unpack;
#X obj 113 377 notein;
#X obj 113 405 pack;
#X obj 392 142 numset amp x;
#A saved 94;
#X obj 392 171 numset aa x;
#A saved 6;
#X obj 392 258 numset ar x;
#A saved 207;
#X obj 392 200 numset ad x;
#A saved 11;
#X obj 392 229 numset as x;
#A saved 81;
#N canvas 685 207 485 367 synth 0;
#X msg 60 112 stop;
#X obj 99 180 poly 16 1;
#X obj 142 38 inlet;
#X obj 60 87 r flush;
#X obj 99 206 - 1;
#X obj 143 298 outlet~;
#X obj 143 235 pack f f f f f f f f f f f f f f f f f;
#X obj 142 74 unpack f f f f f f f f f f f f f f f f;
#X obj 143 265 clone 16 synthvoice;
#X connect 0 0 1 0;
#X connect 1 0 4 0;
#X connect 1 1 6 1;
#X connect 1 2 6 2;
#X connect 2 0 7 0;
#X connect 3 0 0 0;
#X connect 4 0 6 0;
#X connect 6 0 8 0;
#X connect 7 0 1 0;
#X connect 7 1 1 1;
#X connect 7 2 6 3;
#X connect 7 3 6 4;
#X connect 7 4 6 5;
#X connect 7 5 6 6;
#X connect 7 6 6 7;
#X connect 7 7 6 8;
#X connect 7 8 6 9;
#X connect 7 9 6 10;
#X connect 7 10 6 11;
#X connect 7 11 6 12;
#X connect 7 12 6 13;
#X connect 7 13 6 14;
#X connect 7 14 6 15;
#X connect 7 15 6 16;
#X connect 8 0 5 0;
#X restore 79 592 pd synth;
#X obj 80 203 metro 500;
#X floatatom 122 264 5 0 0 0 - - - 0;
#X obj 80 289 makenote 64 250;
#X obj 80 181 tgl 17 0 empty empty empty 0 -6 0 8 #dfdfdf #000000 #000000
0 1;
#X obj 392 287 numset fil x;
#A saved 51;
#X obj 392 316 numset fb x;
#A saved 15;
#X obj 392 345 numset fa x;
#A saved 2;
#X obj 392 374 numset fd x;
#A saved 509;
#X obj 392 403 numset fs x;
#A saved 37;
#X obj 392 432 numset fr x;
#A saved 200;
#X obj 392 461 numset q x;
#A saved 0.48;
#X floatatom 140 179 5 0 0 0 - - - 0;
#X floatatom 182 264 5 0 0 0 - - - 0;
#X floatatom 158 211 5 0 0 0 - - - 0;
#X obj 80 264 + 24;
#X obj 80 235 random 48;
#X obj 63 68 preset preset1 x;
#X obj 184 68 preset preset2 x;
#X obj 310 68 preset preset3 x;
#X obj 435 68 preset preset4 x;
#X obj 393 490 numset 2nd x;
#A saved 1200;
#X text 76 156 random-note tester;
#X obj 393 519 numset 2pc x;
#A saved 0;
#X obj 357 652 s flush;
#X obj 357 619 bng 17 250 50 0 empty empty empty 17 7 0 10 #dfdfdf
#000000 #000000;
#X obj 79 640 output~;
#X text 476 145 amplitude;
#X text 476 174 amp attack time;
#X text 476 203 amp decay time;
#X text 476 232 amp sustain level (%);
#X text 476 261 amp release time;
#X text 476 290 filter sweep;
#X text 476 319 filter base pitch;
#X text 476 348 filter attack time;
#X text 476 377 filter decay time;
#X text 476 406 filter sustain;
#X text 476 435 filter release time;
#X text 476 493 2nd osc detune;
#X text 476 522 2nd osc amp (%);
#X text 382 619 flush hanging notes;
#X obj 79 555 pack f f f f f f f f f f f f f f f f;
#X text 99 25 polyphonic synth with voice presets;
#X obj 79 325 pack f f;
#X connect 0 0 49 0;
#X connect 0 1 49 1;
#X connect 1 0 2 0;
#X connect 1 1 2 1;
#X connect 2 0 0 0;
#X connect 3 0 49 2;
#X connect 4 0 49 3;
#X connect 5 0 49 6;
#X connect 6 0 49 4;
#X connect 7 0 49 5;
#X connect 8 0 34 0;
#X connect 8 0 34 1;
#X connect 9 0 24 0;
#X connect 10 0 23 1;
#X connect 11 0 51 0;
#X connect 11 1 51 1;
#X connect 12 0 9 0;
#X connect 13 0 49 7;
#X connect 14 0 49 8;
#X connect 15 0 49 9;
#X connect 16 0 49 10;
#X connect 17 0 49 11;
#X connect 18 0 49 12;
#X connect 19 0 49 13;
#X connect 20 0 9 1;
#X connect 21 0 11 2;
#X connect 22 0 24 1;
#X connect 23 0 11 0;
#X connect 24 0 23 0;
#X connect 29 0 49 14;
#X connect 31 0 49 15;
#X connect 33 0 32 0;
#X connect 49 0 8 0;
#X connect 51 0 0 0;
