#N canvas 849 54 433 485 12;
#X obj 210 286 textfile;
#X obj 202 421 bng 17 250 50 0 empty empty store 20 9 0 10 #dfdfdf
#000000 #000000;
#X obj 255 421 bng 17 250 50 0 empty empty recall 20 9 0 10 #dfdfdf
#000000 #000000;
#X obj 104 59 t b b b;
#X msg 210 110 clear;
#X msg 127 107 -record-;
#X obj 73 201 symbol \$1.txt;
#X obj 305 177 symbol \$1.txt;
#X obj 305 151 loadbang;
#X msg 305 202 read \$1 cr;
#X msg 73 228 write \$1 cr;
#X obj 17 333 until;
#X msg 220 322 \; \$1 \$2;
#X obj 127 133 s \$2-in;
#X obj 224 167 r \$2-out;
#X obj 17 290 t b b;
#X msg 70 346 rewind;
#X obj 224 200 spigot;
#X obj 296 110 f 1;
#X obj 263 110 f 0;
#X obj 210 367 print preset value;
#X connect 0 0 12 0;
#X connect 0 0 20 0;
#X connect 0 1 11 1;
#X connect 1 0 3 0;
#X connect 2 0 15 0;
#X connect 3 0 6 0;
#X connect 3 0 19 0;
#X connect 3 1 5 0;
#X connect 3 2 4 0;
#X connect 3 2 18 0;
#X connect 4 0 0 0;
#X connect 5 0 13 0;
#X connect 6 0 10 0;
#X connect 7 0 9 0;
#X connect 8 0 7 0;
#X connect 9 0 0 0;
#X connect 10 0 0 0;
#X connect 11 0 0 0;
#X connect 14 0 17 0;
#X connect 15 0 11 0;
#X connect 15 1 16 0;
#X connect 16 0 0 0;
#X connect 17 0 0 0;
#X connect 18 0 17 1;
#X connect 19 0 17 1;
#X coords 0 0 1 1 113 40 1 200 400;
