#N canvas 582 93 646 630 12;
#X obj 146 571 outlet~;
#X obj 146 534 *~;
#X obj 166 318 *~;
#X obj 166 351 *~;
#X obj 22 325 mtof;
#X obj 180 52 inlet;
#X obj 418 265 gadsr;
#X obj 166 265 gadsr;
#X obj 166 185 dbtorms;
#X obj 166 211 sqrt;
#X obj 166 236 sqrt;
#X obj 400 373 +~;
#X obj 22 493 vcf~, f 11;
#X obj 22 386 phasor~;
#X obj 86 349 + 0.3;
#X obj 86 377 phasor~;
#X obj 22 415 +~;
#X text 173 19 on/off pitch amp a d s r filt filt-bias a d s r filt-q
2nd-interval 2nd-percentage;
#X obj 86 281 +;
#X obj 86 319 mtof;
#X obj 86 414 *~ 1;
#X obj 345 392 * 0.01;
#X obj 104 251 * 0.01;
#X obj 180 75 unpack f f f f f f f f f f f f f f f f;
#X obj 22 441 *~ 2;
#X obj 22 464 -~ 1;
#X obj 400 404 mtof~;
#X connect 1 0 0 0;
#X connect 2 0 3 0;
#X connect 2 0 3 1;
#X connect 3 0 1 1;
#X connect 4 0 13 0;
#X connect 5 0 23 0;
#X connect 6 0 11 1;
#X connect 7 0 2 0;
#X connect 7 0 2 1;
#X connect 8 0 9 0;
#X connect 9 0 10 0;
#X connect 10 0 7 0;
#X connect 11 0 26 0;
#X connect 12 0 1 0;
#X connect 13 0 16 0;
#X connect 14 0 15 0;
#X connect 15 0 20 0;
#X connect 16 0 24 0;
#X connect 18 0 19 0;
#X connect 19 0 14 0;
#X connect 20 0 16 1;
#X connect 21 0 20 1;
#X connect 22 0 18 1;
#X connect 23 0 18 0;
#X connect 23 0 4 0;
#X connect 23 1 7 1;
#X connect 23 1 6 0;
#X connect 23 2 8 0;
#X connect 23 3 7 2;
#X connect 23 4 7 3;
#X connect 23 5 7 4;
#X connect 23 6 7 5;
#X connect 23 7 6 1;
#X connect 23 8 11 0;
#X connect 23 9 6 2;
#X connect 23 10 6 3;
#X connect 23 11 6 4;
#X connect 23 12 6 5;
#X connect 23 13 12 2;
#X connect 23 14 22 0;
#X connect 23 15 21 0;
#X connect 24 0 25 0;
#X connect 25 0 12 0;
#X connect 26 0 12 1;
