#N canvas 218 43 728 639 12;
#X obj 61 616 outlet~;
#X obj 363 475 *~;
#X obj 166 328 *~;
#X obj 166 351 *~;
#X obj 40 325 mtof;
#X obj 180 52 inlet;
#X obj 61 565 inlet~;
#X obj 61 592 +~;
#X obj 473 266 gadsr;
#X obj 166 265 gadsr;
#X obj 106 115 dbtorms;
#X obj 106 141 sqrt;
#X obj 106 166 sqrt;
#X obj 461 322 +~;
#X obj 461 348 tabread4~ mtof;
#X obj 405 464 vcf~;
#X obj 42 416 phasor~;
#X obj 106 349 + 0.3;
#X obj 106 377 phasor~;
#X obj 42 455 +~;
#X obj 180 75 unpack 0 0 0 0 0 0 0 0 0 0 0 0 0 0 0 0;
#X text 173 19 on/off pitch amp a d s r filt filt-bias a d s r filt-q
2nd-interval 2nd-percentage;
#X obj 106 281 +;
#X obj 106 319 mtof;
#X obj 120 414 *~ 1;
#X obj 345 391 * 0.01;
#X obj 133 241 * 0.01;
#X connect 1 0 7 1;
#X connect 2 0 3 0;
#X connect 2 0 3 1;
#X connect 3 0 1 0;
#X connect 4 0 16 0;
#X connect 5 0 20 0;
#X connect 6 0 7 0;
#X connect 7 0 0 0;
#X connect 8 0 13 1;
#X connect 9 0 2 0;
#X connect 9 0 2 1;
#X connect 10 0 11 0;
#X connect 11 0 12 0;
#X connect 12 0 9 1;
#X connect 13 0 14 0;
#X connect 14 0 15 1;
#X connect 15 0 1 1;
#X connect 16 0 19 0;
#X connect 17 0 18 0;
#X connect 18 0 24 0;
#X connect 19 0 15 0;
#X connect 20 0 9 0;
#X connect 20 0 8 0;
#X connect 20 1 4 0;
#X connect 20 1 22 0;
#X connect 20 2 10 0;
#X connect 20 3 9 2;
#X connect 20 4 9 3;
#X connect 20 5 9 4;
#X connect 20 6 9 5;
#X connect 20 7 8 1;
#X connect 20 8 13 0;
#X connect 20 9 8 2;
#X connect 20 10 8 3;
#X connect 20 11 8 4;
#X connect 20 12 8 5;
#X connect 20 13 15 2;
#X connect 20 14 26 0;
#X connect 20 15 25 0;
#X connect 22 0 23 0;
#X connect 23 0 17 0;
#X connect 24 0 19 1;
#X connect 25 0 24 1;
#X connect 26 0 22 1;
