#N canvas 502 103 499 476 12;
#X floatatom 236 115 3 0 0 0 - - - 0;
#X msg 197 55 5 6;
#X text 33 21 Most Pd messages are just numbers or short lists of numbers:;
#X msg 67 55 5;
#X obj 67 86 + 9;
#X obj 135 86 +;
#X obj 197 86 unpack;
#X msg 291 55 5;
#X obj 291 115 print;
#X msg 135 55 5 6;
#X floatatom 184 351 4 0 0 0 - - - 0;
#X obj 184 326 +;
#X msg 184 270 1.2 3.4;
#X msg 194 298 5 6;
#X text 48 386 For more on messages \, get help on any message box by right-clicking.;
#X text 280 437 updated for Pd version 0.33;
#X floatatom 197 115 3 0 0 0 - - - 0;
#X floatatom 135 115 3 0 0 0 - - - 0;
#X floatatom 67 115 3 0 0 0 - - - 0;
#X obj 291 86 pack float 78;
#X text 31 216 Unlike Max \, in Pd all number atoms are floating point. Numbers whose values happen to be integers are displayed without decimal points., f 62;
#X text 226 298 <-- also floating point;
#X text 245 269 <-- floating point numbers;
#X text 31 152 If you send a list to an object with more than one inlet \, the items (or 'atoms') in the list are spread out over the inlets \, as seen in the "5 + 6" example above (unless the object has a special list input.), f 62;
#X connect 1 0 6 0;
#X connect 3 0 4 0;
#X connect 4 0 18 0;
#X connect 5 0 17 0;
#X connect 6 0 16 0;
#X connect 6 1 0 0;
#X connect 7 0 19 0;
#X connect 9 0 5 0;
#X connect 11 0 10 0;
#X connect 12 0 11 0;
#X connect 13 0 11 0;
#X connect 19 0 8 0;
