#N canvas 231 34 1018 643 12;
#X text 210 17 ARRAYS;
#N canvas 0 0 450 300 (subpatch) 0;
#X array array99 100 float 0;
#X coords 0 1 99 -1 400 300 1;
#X restore 37 249 graph;
#X msg 660 118 \; array99 resize \$1;
#X floatatom 660 85 0 0 0 0 - - -;
#X floatatom 502 53 0 0 0 0 - - -;
#X obj 502 87 / 100;
#X msg 502 117 \; array99 const \$1;
#X text 487 20 You can send messages to an array object:;
#X msg 822 118 \; array99 print;
#X text 702 84 resize;
#X text 823 79 print size;
#X text 499 289 read a text file;
#X text 539 375 write a text file;
#X text 756 379 write a WAV format soundfile;
#X obj 679 520 tabread;
#X obj 678 494 tabwrite;
#X text 493 492 Objects are provided for reading and writing the contents
of arrays via control messages:, f 24;
#X obj 793 540 tabread4~;
#X obj 793 565 tabwrite~;
#X obj 886 540 tabreceive~;
#X text 784 487 ...and audio signals:;
#X obj 886 516 tabsend~;
#X msg 793 196 \; array99 normalize;
#X msg 794 238 \; array99 normalize 0.5;
#X text 787 174 normalize to 1 or otherwise;
#X obj 723 337 soundfiler;
#X obj 886 566 tabosc4~;
#X msg 500 196 \; array99 sinesum 64 0.2 0.2 0.2 0.2;
#X msg 500 238 \; array99 cosinesum 64 0.2 0.2 0.2 0.2;
#X text 504 172 Fourier synthesis (resizes table);
#X text 720 291 read a soundfile;
#X text 57 588 updated for Pd version 0.46.7;
#X obj 678 546 tabread4;
#X obj 793 514 tabread~;
#X msg 723 311 read ../sound/voice2.wav array99;
#X text 38 54 Arrays in Pd provide a unified way to deal with lists
of numbers \, treating them as either audio samples or control messages.
To make an array \, select "Array" on the "Put" menu. Dialogs appear
to help you choose the name \, number of elements \, and various flags.
, f 57;
#X text 37 135 You can also change the array size using the "resize"
message shown below. Arrays live in graphs and graphs may hold more
than one array. However \, graphs containing more than one array won't
know how to readjust themselves automatically when the arrays are resized.
;
#X msg 503 309 \; array99 read 15.file.txt;
#X obj 519 378 bng 15 250 50 0 empty empty empty 0 -6 0 8 -262144 -1
-1;
#X obj 519 397 savepanel;
#X msg 519 420 \; array99 write \$1;
#X obj 733 383 bng 15 250 50 0 empty empty empty 0 -6 0 8 -262144 -1
-1;
#X obj 733 402 savepanel;
#X obj 733 448 soundfiler;
#X msg 733 425 write \$1 array99;
#X text 541 52 <= set to a constant value;
#X connect 3 0 2 0;
#X connect 4 0 5 0;
#X connect 5 0 6 0;
#X connect 34 0 25 0;
#X connect 38 0 39 0;
#X connect 39 0 40 0;
#X connect 41 0 42 0;
#X connect 42 0 44 0;
#X connect 44 0 43 0;
