#N canvas 288 82 874 689 12;
#N canvas 0 50 450 250 (subpatch) 0;
#X array array99 5 float 1;
#A 0 0.32 0.499999 -0.406667 -0.753333 0.00666714;
#X array array98 7 float 1;
#A 0 -0.0933342 0.306665 0.0266657 0.239999 0.573332 -0.200001 0.533332
;
#X coords 0 1 5 -1 200 150 1;
#X restore 466 54 graph;
#X text 155 15 MORE ON ARRAYS;
#X msg 17 229 \; array99 rename george;
#X msg 221 229 \; george rename array99;
#X msg 317 166 \; array99 3 -0.5 0.5;
#X text 17 207 renaming an array:;
#X text 16 276 setting the bounds rectangle:;
#X msg 18 296 \; array99 bounds 0 -2 10 2;
#X msg 245 294 \; array99 bounds 0 -1 5 1;
#X msg 19 395 \; array99 xticks 0 1 1;
#X msg 212 394 \; array99 yticks 0 0.1 5;
#X msg 15 472 \; array99 xlabel -1.1 0 1 2 3 4 5;
#X text 12 436 adding labels. Give a y value and a bunch of x values
or vice versa:;
#X msg 17 166 \; array98 0 -1 1 -1 1 -1 1 -1 1 -1;
#X msg 256 472 \; array99 ylabel 5.15 -1 0 1;
#X text 10 39 Arrays have methods to set their values explicitly \;
to set their "bounds" rectangles \, to rename them (but if you have
two with the same name this won't necessarily do what you want) and
to add markings. To set values by message \, send a list whose first
element gives the index to start at. The second example sets two values
starting at index three. Indices count up from zero.;
#X obj 482 403 tgl 15 0 empty empty empty 17 7 0 10 -262144 -1 -1 0
1;
#X msg 482 427 \; array98 vis \$1;
#X obj 602 401 tgl 15 0 empty empty empty 17 7 0 10 -262144 -1 -1 0
1;
#X msg 602 426 \; array99 vis \$1;
#X msg 483 632 \; array98 style \$1;
#X obj 483 611 hradio 15 1 0 3 empty empty empty 0 -8 0 10 -262144
-1 -1 0;
#X msg 633 547 \; array98 width \$1;
#X floatatom 632 524 5 0 0 0 - - -;
#X text 482 588 point \, line \, bezier;
#X text 629 501 line width;
#X floatatom 483 521 5 0 0 0 - - -;
#X text 480 498 color;
#X msg 527 521 9;
#X text 480 361 You can selectively show/hide arrays with the "vis"
message:, f 37;
#X text 479 474 Change the visual appearance:;
#X msg 558 521 90;
#X msg 591 520 900;
#X msg 483 547 \; array98 color \$1;
#X text 14 522 You can also change x and y range and size in the "properties"
dialog. Note that information about size and ranges is saved \, but
ticks and labels are lost between Pd sessions. The contents of the
array may be saved as part of the patch or discarded. This is set in
the 'properties" dialog.;
#X text 480 211 You can put more than one array in a single "graph"
(which is Pd's name for the bounding rectangle \, and is a synonym
for "canvas".) Arrays' sizes need not match the bounds of the containing
graph. But if you resize an array \, and if it is the only array contained
in a graph \, then the graph automaticallly resets its bounds to match.
, f 36;
#X text 15 342 Adding x and y labels: give a point to put a tick \,
the interval between ticks \, and the number of ticks overall per large
tick.;
#X text 617 640 last updated for release 0.52.;
#X connect 16 0 17 0;
#X connect 18 0 19 0;
#X connect 21 0 20 0;
#X connect 23 0 22 0;
#X connect 26 0 33 0;
#X connect 28 0 33 0;
#X connect 31 0 33 0;
#X connect 32 0 33 0;
