#N canvas 684 80 873 671 12;
#N canvas 0 50 450 250 (subpatch) 0;
#X array array99 5 float 1;
#A 0 0.486666 0.126666 0.166666 0.406666 0.486666;
#X array array98 7 float 1;
#A 0 -0.186667 -0.280001 -0.400001 -0.186667 0.0933323 0.266665 0.333332
;
#X coords 0 1 6 -1 250 150 1 0 0;
#X restore 548 42 graph;
#X text 105 13 MORE ON ARRAYS;
#X msg 27 229 \; array99 rename george;
#X msg 231 229 \; george rename array99;
#X msg 302 166 \; array99 3 -0.5 0.5;
#X text 27 207 renaming an array:;
#X text 26 276 setting the bounds rectangle:;
#X msg 29 395 \; array99 xticks 0 1 1;
#X msg 222 394 \; array99 yticks 0 0.1 5;
#X msg 30 478 \; array99 xlabel -1.1 0 1 2 3 4 5;
#X text 30 441 adding labels. Give a y value and a bunch of x values
or vice versa:, f 37;
#X msg 271 478 \; array99 ylabel 5.15 -1 0 1;
#X obj 578 376 tgl 15 0 empty empty empty 17 7 0 10 #fcfcfc #000000
#000000 0 1;
#X msg 578 400 \; array98 vis \$1;
#X obj 700 374 tgl 15 0 empty empty empty 17 7 0 10 #fcfcfc #000000
#000000 0 1;
#X msg 700 399 \; array99 vis \$1;
#X msg 553 613 \; array98 style \$1;
#X obj 553 568 hradio 15 1 0 3 empty empty empty 0 -8 0 10 #fcfcfc
#000000 #000000 0;
#X msg 523 515 \; array98 width \$1;
#X floatatom 523 487 5 1 10 0 - - - 0;
#X floatatom 705 493 5 0 0 0 - - - 0;
#X msg 705 519 \; array98 color \$1;
#X text 480 211 You can put more than one array in a single "graph"
(which is Pd's name for the bounding rectangle \, and is a synonym
for "canvas".) Arrays' sizes need not match the bounds of the containing
graph. But if you resize an array \, and if it is the only array contained
in a graph \, then the graph automaticallly resets its bounds to match.
, f 51;
#X text 25 342 Adding x and y labels: give a point to put a tick \,
the interval between ticks \, and the number of ticks overall per large
tick.;
#X text 59 626 last updated for release 0.52.;
#X msg 672 463 9;
#X msg 705 463 90;
#X msg 739 463 900;
#X text 36 138 set array values from index 0;
#X text 309 129 sets two values from index 3, f 17;
#X text 30 39 Arrays have methods to set their values explicitly. Below
you can set their "bounds" rectangles \, rename them (but if you have
two with the same name this won't necessarily do what you want) and
add markings. To set values by message \, send a list whose first element
gives the index to start at. Indices count up from zero., f 66;
#X msg 28 296 \; array99 bounds 0 2 10 -2;
#X msg 28 166 \; array98 0 -1 1 -1 1 -1 1 -1;
#X msg 255 294 \; array99 bounds 0 1 6 -1;
#X text 25 526 You can also change x and y range and size in the "properties"
dialog. Note that information about size and ranges is saved \, but
ticks and labels are lost between Pd sessions. The contents of the
array may be saved as part of the patch or discarded. This is set in
the 'properties" dialog as well., f 62;
#X text 481 325 For last \, there are methods to cchange the visual
appearance of arrays:, f 51;
#X text 499 389 show/hide arrays:, f 9;
#X text 516 461 set line width;
#X text 748 491 set color;
#X floatatom 553 589 5 0 0 0 - - - 0;
#X text 612 567 set visual dislpay style (point '0' \, line '1' and
bezier '2'), f 31;
#X connect 12 0 13 0;
#X connect 14 0 15 0;
#X connect 17 0 39 0;
#X connect 19 0 18 0;
#X connect 20 0 21 0;
#X connect 25 0 20 0;
#X connect 26 0 20 0;
#X connect 27 0 20 0;
#X connect 39 0 16 0;
