#N canvas 180 78 933 745 12;
#X text 11 36 A recursive algorithm essentially computes a solution
\, then passes the solution to itself \, looping inward (recursing)
as many levels as required before reaching an end point. In contrast
to iterative looping \, recursion does not need to know the number
of loops required ahead of time.;
#X floatatom 76 312 5 0 0 0 - - -;
#X obj 108 409 moses 3, f 19;
#X obj 270 466 - 1;
#X floatatom 270 492 5 0 0 0 - - -;
#X obj 238 573 t l l;
#X obj 238 659 pack f f;
#X msg 291 626 \$1;
#X obj 238 545 list, f 11;
#X obj 238 438 t b a;
#X obj 238 625 t f f;
#X obj 76 663 float;
#X obj 76 344 t b f;
#X floatatom 76 698 15 0 0 0 - - -;
#X msg 117 284 201;
#X obj 79 222 hsl 128 15 1 20 0 0 empty empty empty -2 -8 0 10 -262144
-1 -1 0 0;
#X obj 76 242 i;
#X text 151 261 no stack overflow;
#X obj 108 378 f;
#X text 134 378 recursion point;
#X text 311 407 2nd object;
#X text 311 438 3rd object;
#X text 312 466 4th object;
#X text 313 492 5th object;
#X msg 117 261 200;
#X obj 108 464 t a b;
#X obj 238 598 +;
#X msg 108 437 0.001 0.001;
#X msg 108 502 0.001;
#X text 311 380 1st object;
#X text 202 698 resulting Fibonacci number;
#X text 151 284 stack overflow \, looped too many times!;
#X text 10 174 (Instead of traditionally starting with 1 and 1 the
sequence starts with 0.001 and 0.001 to avoid huge numbers.);
#X text 10 120 This recursive algorithm calculates numbers in the Fibonacci
sequence using a circular patch loop. Input an index integer for the
desired Fibonacci number.;
#X text 473 175 If you are designing a recursive algorithm \, you may
need to change the max stack depth in order to allow enough levels
of processing and avoid "stack overflow" errors., f 60;
#X text 634 305 increase;
#X text 729 310 print value;
#X msg 519 307 1000;
#X msg 587 308 10000;
#X text 515 281 default;
#X msg 519 338 stackdepth \$1;
#X obj 519 364 s pd;
#X obj 732 364 s pd;
#X msg 732 338 stackdepth;
#X text 473 229 You can change this value by passing a "stackdepth"
message to pd:, f 60;
#X text 474 34 Pd keeps track of the number of times an object has
been called when processing the patch and will throw a "stack overflow"
error if the max stack depth has been reached. This protects Pd from
becoming unresponsive do to infinite loops:, f 60;
#X floatatom 639 113 5 0 0 0 - - -;
#X obj 700 113 + 1;
#X obj 639 137 t f f;
#N canvas 0 23 468 236 stack 0;
#N canvas 114 443 224 342 a 0;
#N canvas 0 50 594 382 a_hundred_objects 0;
#X obj 35 73 + 1;
#X obj 35 94 + 1;
#X obj 35 115 + 1;
#X obj 35 136 + 1;
#X obj 35 157 + 1;
#X obj 35 178 + 1;
#X obj 35 199 + 1;
#X obj 35 220 + 1;
#X obj 35 241 + 1;
#X obj 35 262 + 1;
#X obj 85 73 + 1;
#X obj 85 94 + 1;
#X obj 85 115 + 1;
#X obj 85 136 + 1;
#X obj 85 157 + 1;
#X obj 85 178 + 1;
#X obj 85 199 + 1;
#X obj 85 220 + 1;
#X obj 85 241 + 1;
#X obj 85 262 + 1;
#X text 38 291 10;
#X obj 135 73 + 1;
#X obj 135 94 + 1;
#X obj 135 115 + 1;
#X obj 135 136 + 1;
#X obj 135 157 + 1;
#X obj 135 178 + 1;
#X obj 135 199 + 1;
#X obj 135 220 + 1;
#X obj 135 241 + 1;
#X obj 135 262 + 1;
#X obj 185 73 + 1;
#X obj 185 94 + 1;
#X obj 185 115 + 1;
#X obj 185 136 + 1;
#X obj 185 157 + 1;
#X obj 185 178 + 1;
#X obj 185 199 + 1;
#X obj 185 220 + 1;
#X obj 185 241 + 1;
#X obj 185 262 + 1;
#X obj 235 73 + 1;
#X obj 235 94 + 1;
#X obj 235 115 + 1;
#X obj 235 136 + 1;
#X obj 235 157 + 1;
#X obj 235 178 + 1;
#X obj 235 199 + 1;
#X obj 235 220 + 1;
#X obj 235 241 + 1;
#X obj 235 262 + 1;
#X obj 285 73 + 1;
#X obj 285 94 + 1;
#X obj 285 115 + 1;
#X obj 285 136 + 1;
#X obj 285 157 + 1;
#X obj 285 178 + 1;
#X obj 285 199 + 1;
#X obj 285 220 + 1;
#X obj 285 241 + 1;
#X obj 285 262 + 1;
#X obj 335 73 + 1;
#X obj 335 94 + 1;
#X obj 335 115 + 1;
#X obj 335 136 + 1;
#X obj 335 157 + 1;
#X obj 335 178 + 1;
#X obj 335 199 + 1;
#X obj 335 220 + 1;
#X obj 335 241 + 1;
#X obj 335 262 + 1;
#X obj 385 73 + 1;
#X obj 385 94 + 1;
#X obj 385 115 + 1;
#X obj 385 136 + 1;
#X obj 385 157 + 1;
#X obj 385 178 + 1;
#X obj 385 199 + 1;
#X obj 385 220 + 1;
#X obj 385 241 + 1;
#X obj 385 262 + 1;
#X text 138 291 30;
#X text 238 291 50;
#X text 338 291 70;
#X obj 433 73 + 1;
#X obj 433 94 + 1;
#X obj 433 115 + 1;
#X obj 433 136 + 1;
#X obj 433 157 + 1;
#X obj 433 178 + 1;
#X obj 433 199 + 1;
#X obj 433 220 + 1;
#X obj 433 241 + 1;
#X obj 433 262 + 1;
#X obj 483 73 + 1;
#X obj 483 94 + 1;
#X obj 483 115 + 1;
#X obj 483 136 + 1;
#X obj 483 157 + 1;
#X obj 483 178 + 1;
#X obj 483 199 + 1;
#X obj 483 220 + 1;
#X obj 483 241 + 1;
#X obj 483 262 + 1;
#X text 436 291 90;
#X obj 35 29 inlet;
#X obj 483 283 outlet;
#X connect 0 0 1 0;
#X connect 1 0 2 0;
#X connect 2 0 3 0;
#X connect 3 0 4 0;
#X connect 4 0 5 0;
#X connect 5 0 6 0;
#X connect 6 0 7 0;
#X connect 7 0 8 0;
#X connect 8 0 9 0;
#X connect 9 0 10 0;
#X connect 10 0 11 0;
#X connect 11 0 12 0;
#X connect 12 0 13 0;
#X connect 13 0 14 0;
#X connect 14 0 15 0;
#X connect 15 0 16 0;
#X connect 16 0 17 0;
#X connect 17 0 18 0;
#X connect 18 0 19 0;
#X connect 19 0 21 0;
#X connect 21 0 22 0;
#X connect 22 0 23 0;
#X connect 23 0 24 0;
#X connect 24 0 25 0;
#X connect 25 0 26 0;
#X connect 26 0 27 0;
#X connect 27 0 28 0;
#X connect 28 0 29 0;
#X connect 29 0 30 0;
#X connect 30 0 31 0;
#X connect 31 0 32 0;
#X connect 32 0 33 0;
#X connect 33 0 34 0;
#X connect 34 0 35 0;
#X connect 35 0 36 0;
#X connect 36 0 37 0;
#X connect 37 0 38 0;
#X connect 38 0 39 0;
#X connect 39 0 40 0;
#X connect 40 0 41 0;
#X connect 41 0 42 0;
#X connect 42 0 43 0;
#X connect 43 0 44 0;
#X connect 44 0 45 0;
#X connect 45 0 46 0;
#X connect 46 0 47 0;
#X connect 47 0 48 0;
#X connect 48 0 49 0;
#X connect 49 0 50 0;
#X connect 50 0 51 0;
#X connect 51 0 52 0;
#X connect 52 0 53 0;
#X connect 53 0 54 0;
#X connect 54 0 55 0;
#X connect 55 0 56 0;
#X connect 56 0 57 0;
#X connect 57 0 58 0;
#X connect 58 0 59 0;
#X connect 59 0 60 0;
#X connect 60 0 61 0;
#X connect 61 0 62 0;
#X connect 62 0 63 0;
#X connect 63 0 64 0;
#X connect 64 0 65 0;
#X connect 65 0 66 0;
#X connect 66 0 67 0;
#X connect 67 0 68 0;
#X connect 68 0 69 0;
#X connect 69 0 70 0;
#X connect 70 0 71 0;
#X connect 71 0 72 0;
#X connect 72 0 73 0;
#X connect 73 0 74 0;
#X connect 74 0 75 0;
#X connect 75 0 76 0;
#X connect 76 0 77 0;
#X connect 77 0 78 0;
#X connect 78 0 79 0;
#X connect 79 0 80 0;
#X connect 80 0 84 0;
#X connect 84 0 85 0;
#X connect 85 0 86 0;
#X connect 86 0 87 0;
#X connect 87 0 88 0;
#X connect 88 0 89 0;
#X connect 89 0 90 0;
#X connect 90 0 91 0;
#X connect 91 0 92 0;
#X connect 92 0 93 0;
#X connect 93 0 94 0;
#X connect 94 0 95 0;
#X connect 95 0 96 0;
#X connect 96 0 97 0;
#X connect 97 0 98 0;
#X connect 98 0 99 0;
#X connect 99 0 100 0;
#X connect 100 0 101 0;
#X connect 101 0 102 0;
#X connect 102 0 103 0;
#X connect 103 0 106 0;
#X connect 105 0 0 0;
#X restore 43 53 pd a_hundred_objects;
#N canvas 0 50 594 382 2_hundred_objects 0;
#X obj 35 73 + 1;
#X obj 35 94 + 1;
#X obj 35 115 + 1;
#X obj 35 136 + 1;
#X obj 35 157 + 1;
#X obj 35 178 + 1;
#X obj 35 199 + 1;
#X obj 35 220 + 1;
#X obj 35 241 + 1;
#X obj 35 262 + 1;
#X obj 85 73 + 1;
#X obj 85 94 + 1;
#X obj 85 115 + 1;
#X obj 85 136 + 1;
#X obj 85 157 + 1;
#X obj 85 178 + 1;
#X obj 85 199 + 1;
#X obj 85 220 + 1;
#X obj 85 241 + 1;
#X obj 85 262 + 1;
#X text 38 291 10;
#X obj 135 73 + 1;
#X obj 135 94 + 1;
#X obj 135 115 + 1;
#X obj 135 136 + 1;
#X obj 135 157 + 1;
#X obj 135 178 + 1;
#X obj 135 199 + 1;
#X obj 135 220 + 1;
#X obj 135 241 + 1;
#X obj 135 262 + 1;
#X obj 185 73 + 1;
#X obj 185 94 + 1;
#X obj 185 115 + 1;
#X obj 185 136 + 1;
#X obj 185 157 + 1;
#X obj 185 178 + 1;
#X obj 185 199 + 1;
#X obj 185 220 + 1;
#X obj 185 241 + 1;
#X obj 185 262 + 1;
#X obj 235 73 + 1;
#X obj 235 94 + 1;
#X obj 235 115 + 1;
#X obj 235 136 + 1;
#X obj 235 157 + 1;
#X obj 235 178 + 1;
#X obj 235 199 + 1;
#X obj 235 220 + 1;
#X obj 235 241 + 1;
#X obj 235 262 + 1;
#X obj 285 73 + 1;
#X obj 285 94 + 1;
#X obj 285 115 + 1;
#X obj 285 136 + 1;
#X obj 285 157 + 1;
#X obj 285 178 + 1;
#X obj 285 199 + 1;
#X obj 285 220 + 1;
#X obj 285 241 + 1;
#X obj 285 262 + 1;
#X obj 335 73 + 1;
#X obj 335 94 + 1;
#X obj 335 115 + 1;
#X obj 335 136 + 1;
#X obj 335 157 + 1;
#X obj 335 178 + 1;
#X obj 335 199 + 1;
#X obj 335 220 + 1;
#X obj 335 241 + 1;
#X obj 335 262 + 1;
#X obj 385 73 + 1;
#X obj 385 94 + 1;
#X obj 385 115 + 1;
#X obj 385 136 + 1;
#X obj 385 157 + 1;
#X obj 385 178 + 1;
#X obj 385 199 + 1;
#X obj 385 220 + 1;
#X obj 385 241 + 1;
#X obj 385 262 + 1;
#X text 138 291 30;
#X text 238 291 50;
#X text 338 291 70;
#X obj 433 73 + 1;
#X obj 433 94 + 1;
#X obj 433 115 + 1;
#X obj 433 136 + 1;
#X obj 433 157 + 1;
#X obj 433 178 + 1;
#X obj 433 199 + 1;
#X obj 433 220 + 1;
#X obj 433 241 + 1;
#X obj 433 262 + 1;
#X obj 483 73 + 1;
#X obj 483 94 + 1;
#X obj 483 115 + 1;
#X obj 483 136 + 1;
#X obj 483 157 + 1;
#X obj 483 178 + 1;
#X obj 483 199 + 1;
#X obj 483 220 + 1;
#X obj 483 241 + 1;
#X obj 483 262 + 1;
#X text 436 291 90;
#X obj 35 29 inlet;
#X obj 483 283 outlet;
#X connect 0 0 1 0;
#X connect 1 0 2 0;
#X connect 2 0 3 0;
#X connect 3 0 4 0;
#X connect 4 0 5 0;
#X connect 5 0 6 0;
#X connect 6 0 7 0;
#X connect 7 0 8 0;
#X connect 8 0 9 0;
#X connect 9 0 10 0;
#X connect 10 0 11 0;
#X connect 11 0 12 0;
#X connect 12 0 13 0;
#X connect 13 0 14 0;
#X connect 14 0 15 0;
#X connect 15 0 16 0;
#X connect 16 0 17 0;
#X connect 17 0 18 0;
#X connect 18 0 19 0;
#X connect 19 0 21 0;
#X connect 21 0 22 0;
#X connect 22 0 23 0;
#X connect 23 0 24 0;
#X connect 24 0 25 0;
#X connect 25 0 26 0;
#X connect 26 0 27 0;
#X connect 27 0 28 0;
#X connect 28 0 29 0;
#X connect 29 0 30 0;
#X connect 30 0 31 0;
#X connect 31 0 32 0;
#X connect 32 0 33 0;
#X connect 33 0 34 0;
#X connect 34 0 35 0;
#X connect 35 0 36 0;
#X connect 36 0 37 0;
#X connect 37 0 38 0;
#X connect 38 0 39 0;
#X connect 39 0 40 0;
#X connect 40 0 41 0;
#X connect 41 0 42 0;
#X connect 42 0 43 0;
#X connect 43 0 44 0;
#X connect 44 0 45 0;
#X connect 45 0 46 0;
#X connect 46 0 47 0;
#X connect 47 0 48 0;
#X connect 48 0 49 0;
#X connect 49 0 50 0;
#X connect 50 0 51 0;
#X connect 51 0 52 0;
#X connect 52 0 53 0;
#X connect 53 0 54 0;
#X connect 54 0 55 0;
#X connect 55 0 56 0;
#X connect 56 0 57 0;
#X connect 57 0 58 0;
#X connect 58 0 59 0;
#X connect 59 0 60 0;
#X connect 60 0 61 0;
#X connect 61 0 62 0;
#X connect 62 0 63 0;
#X connect 63 0 64 0;
#X connect 64 0 65 0;
#X connect 65 0 66 0;
#X connect 66 0 67 0;
#X connect 67 0 68 0;
#X connect 68 0 69 0;
#X connect 69 0 70 0;
#X connect 70 0 71 0;
#X connect 71 0 72 0;
#X connect 72 0 73 0;
#X connect 73 0 74 0;
#X connect 74 0 75 0;
#X connect 75 0 76 0;
#X connect 76 0 77 0;
#X connect 77 0 78 0;
#X connect 78 0 79 0;
#X connect 79 0 80 0;
#X connect 80 0 84 0;
#X connect 84 0 85 0;
#X connect 85 0 86 0;
#X connect 86 0 87 0;
#X connect 87 0 88 0;
#X connect 88 0 89 0;
#X connect 89 0 90 0;
#X connect 90 0 91 0;
#X connect 91 0 92 0;
#X connect 92 0 93 0;
#X connect 93 0 94 0;
#X connect 94 0 95 0;
#X connect 95 0 96 0;
#X connect 96 0 97 0;
#X connect 97 0 98 0;
#X connect 98 0 99 0;
#X connect 99 0 100 0;
#X connect 100 0 101 0;
#X connect 101 0 102 0;
#X connect 102 0 103 0;
#X connect 103 0 106 0;
#X connect 105 0 0 0;
#X restore 43 78 pd 2_hundred_objects;
#N canvas 0 50 594 382 3_hundred_objects 0;
#X obj 35 73 + 1;
#X obj 35 94 + 1;
#X obj 35 115 + 1;
#X obj 35 136 + 1;
#X obj 35 157 + 1;
#X obj 35 178 + 1;
#X obj 35 199 + 1;
#X obj 35 220 + 1;
#X obj 35 241 + 1;
#X obj 35 262 + 1;
#X obj 85 73 + 1;
#X obj 85 94 + 1;
#X obj 85 115 + 1;
#X obj 85 136 + 1;
#X obj 85 157 + 1;
#X obj 85 178 + 1;
#X obj 85 199 + 1;
#X obj 85 220 + 1;
#X obj 85 241 + 1;
#X obj 85 262 + 1;
#X text 38 291 10;
#X obj 135 73 + 1;
#X obj 135 94 + 1;
#X obj 135 115 + 1;
#X obj 135 136 + 1;
#X obj 135 157 + 1;
#X obj 135 178 + 1;
#X obj 135 199 + 1;
#X obj 135 220 + 1;
#X obj 135 241 + 1;
#X obj 135 262 + 1;
#X obj 185 73 + 1;
#X obj 185 94 + 1;
#X obj 185 115 + 1;
#X obj 185 136 + 1;
#X obj 185 157 + 1;
#X obj 185 178 + 1;
#X obj 185 199 + 1;
#X obj 185 220 + 1;
#X obj 185 241 + 1;
#X obj 185 262 + 1;
#X obj 235 73 + 1;
#X obj 235 94 + 1;
#X obj 235 115 + 1;
#X obj 235 136 + 1;
#X obj 235 157 + 1;
#X obj 235 178 + 1;
#X obj 235 199 + 1;
#X obj 235 220 + 1;
#X obj 235 241 + 1;
#X obj 235 262 + 1;
#X obj 285 73 + 1;
#X obj 285 94 + 1;
#X obj 285 115 + 1;
#X obj 285 136 + 1;
#X obj 285 157 + 1;
#X obj 285 178 + 1;
#X obj 285 199 + 1;
#X obj 285 220 + 1;
#X obj 285 241 + 1;
#X obj 285 262 + 1;
#X obj 335 73 + 1;
#X obj 335 94 + 1;
#X obj 335 115 + 1;
#X obj 335 136 + 1;
#X obj 335 157 + 1;
#X obj 335 178 + 1;
#X obj 335 199 + 1;
#X obj 335 220 + 1;
#X obj 335 241 + 1;
#X obj 335 262 + 1;
#X obj 385 73 + 1;
#X obj 385 94 + 1;
#X obj 385 115 + 1;
#X obj 385 136 + 1;
#X obj 385 157 + 1;
#X obj 385 178 + 1;
#X obj 385 199 + 1;
#X obj 385 220 + 1;
#X obj 385 241 + 1;
#X obj 385 262 + 1;
#X text 138 291 30;
#X text 238 291 50;
#X text 338 291 70;
#X obj 433 73 + 1;
#X obj 433 94 + 1;
#X obj 433 115 + 1;
#X obj 433 136 + 1;
#X obj 433 157 + 1;
#X obj 433 178 + 1;
#X obj 433 199 + 1;
#X obj 433 220 + 1;
#X obj 433 241 + 1;
#X obj 433 262 + 1;
#X obj 483 73 + 1;
#X obj 483 94 + 1;
#X obj 483 115 + 1;
#X obj 483 136 + 1;
#X obj 483 157 + 1;
#X obj 483 178 + 1;
#X obj 483 199 + 1;
#X obj 483 220 + 1;
#X obj 483 241 + 1;
#X obj 483 262 + 1;
#X text 436 291 90;
#X obj 35 29 inlet;
#X obj 483 283 outlet;
#X connect 0 0 1 0;
#X connect 1 0 2 0;
#X connect 2 0 3 0;
#X connect 3 0 4 0;
#X connect 4 0 5 0;
#X connect 5 0 6 0;
#X connect 6 0 7 0;
#X connect 7 0 8 0;
#X connect 8 0 9 0;
#X connect 9 0 10 0;
#X connect 10 0 11 0;
#X connect 11 0 12 0;
#X connect 12 0 13 0;
#X connect 13 0 14 0;
#X connect 14 0 15 0;
#X connect 15 0 16 0;
#X connect 16 0 17 0;
#X connect 17 0 18 0;
#X connect 18 0 19 0;
#X connect 19 0 21 0;
#X connect 21 0 22 0;
#X connect 22 0 23 0;
#X connect 23 0 24 0;
#X connect 24 0 25 0;
#X connect 25 0 26 0;
#X connect 26 0 27 0;
#X connect 27 0 28 0;
#X connect 28 0 29 0;
#X connect 29 0 30 0;
#X connect 30 0 31 0;
#X connect 31 0 32 0;
#X connect 32 0 33 0;
#X connect 33 0 34 0;
#X connect 34 0 35 0;
#X connect 35 0 36 0;
#X connect 36 0 37 0;
#X connect 37 0 38 0;
#X connect 38 0 39 0;
#X connect 39 0 40 0;
#X connect 40 0 41 0;
#X connect 41 0 42 0;
#X connect 42 0 43 0;
#X connect 43 0 44 0;
#X connect 44 0 45 0;
#X connect 45 0 46 0;
#X connect 46 0 47 0;
#X connect 47 0 48 0;
#X connect 48 0 49 0;
#X connect 49 0 50 0;
#X connect 50 0 51 0;
#X connect 51 0 52 0;
#X connect 52 0 53 0;
#X connect 53 0 54 0;
#X connect 54 0 55 0;
#X connect 55 0 56 0;
#X connect 56 0 57 0;
#X connect 57 0 58 0;
#X connect 58 0 59 0;
#X connect 59 0 60 0;
#X connect 60 0 61 0;
#X connect 61 0 62 0;
#X connect 62 0 63 0;
#X connect 63 0 64 0;
#X connect 64 0 65 0;
#X connect 65 0 66 0;
#X connect 66 0 67 0;
#X connect 67 0 68 0;
#X connect 68 0 69 0;
#X connect 69 0 70 0;
#X connect 70 0 71 0;
#X connect 71 0 72 0;
#X connect 72 0 73 0;
#X connect 73 0 74 0;
#X connect 74 0 75 0;
#X connect 75 0 76 0;
#X connect 76 0 77 0;
#X connect 77 0 78 0;
#X connect 78 0 79 0;
#X connect 79 0 80 0;
#X connect 80 0 84 0;
#X connect 84 0 85 0;
#X connect 85 0 86 0;
#X connect 86 0 87 0;
#X connect 87 0 88 0;
#X connect 88 0 89 0;
#X connect 89 0 90 0;
#X connect 90 0 91 0;
#X connect 91 0 92 0;
#X connect 92 0 93 0;
#X connect 93 0 94 0;
#X connect 94 0 95 0;
#X connect 95 0 96 0;
#X connect 96 0 97 0;
#X connect 97 0 98 0;
#X connect 98 0 99 0;
#X connect 99 0 100 0;
#X connect 100 0 101 0;
#X connect 101 0 102 0;
#X connect 102 0 103 0;
#X connect 103 0 106 0;
#X connect 105 0 0 0;
#X restore 43 103 pd 3_hundred_objects;
#N canvas 0 50 594 382 4_hundred_objects 0;
#X obj 35 73 + 1;
#X obj 35 94 + 1;
#X obj 35 115 + 1;
#X obj 35 136 + 1;
#X obj 35 157 + 1;
#X obj 35 178 + 1;
#X obj 35 199 + 1;
#X obj 35 220 + 1;
#X obj 35 241 + 1;
#X obj 35 262 + 1;
#X obj 85 73 + 1;
#X obj 85 94 + 1;
#X obj 85 115 + 1;
#X obj 85 136 + 1;
#X obj 85 157 + 1;
#X obj 85 178 + 1;
#X obj 85 199 + 1;
#X obj 85 220 + 1;
#X obj 85 241 + 1;
#X obj 85 262 + 1;
#X text 38 291 10;
#X obj 135 73 + 1;
#X obj 135 94 + 1;
#X obj 135 115 + 1;
#X obj 135 136 + 1;
#X obj 135 157 + 1;
#X obj 135 178 + 1;
#X obj 135 199 + 1;
#X obj 135 220 + 1;
#X obj 135 241 + 1;
#X obj 135 262 + 1;
#X obj 185 73 + 1;
#X obj 185 94 + 1;
#X obj 185 115 + 1;
#X obj 185 136 + 1;
#X obj 185 157 + 1;
#X obj 185 178 + 1;
#X obj 185 199 + 1;
#X obj 185 220 + 1;
#X obj 185 241 + 1;
#X obj 185 262 + 1;
#X obj 235 73 + 1;
#X obj 235 94 + 1;
#X obj 235 115 + 1;
#X obj 235 136 + 1;
#X obj 235 157 + 1;
#X obj 235 178 + 1;
#X obj 235 199 + 1;
#X obj 235 220 + 1;
#X obj 235 241 + 1;
#X obj 235 262 + 1;
#X obj 285 73 + 1;
#X obj 285 94 + 1;
#X obj 285 115 + 1;
#X obj 285 136 + 1;
#X obj 285 157 + 1;
#X obj 285 178 + 1;
#X obj 285 199 + 1;
#X obj 285 220 + 1;
#X obj 285 241 + 1;
#X obj 285 262 + 1;
#X obj 335 73 + 1;
#X obj 335 94 + 1;
#X obj 335 115 + 1;
#X obj 335 136 + 1;
#X obj 335 157 + 1;
#X obj 335 178 + 1;
#X obj 335 199 + 1;
#X obj 335 220 + 1;
#X obj 335 241 + 1;
#X obj 335 262 + 1;
#X obj 385 73 + 1;
#X obj 385 94 + 1;
#X obj 385 115 + 1;
#X obj 385 136 + 1;
#X obj 385 157 + 1;
#X obj 385 178 + 1;
#X obj 385 199 + 1;
#X obj 385 220 + 1;
#X obj 385 241 + 1;
#X obj 385 262 + 1;
#X text 138 291 30;
#X text 238 291 50;
#X text 338 291 70;
#X obj 433 73 + 1;
#X obj 433 94 + 1;
#X obj 433 115 + 1;
#X obj 433 136 + 1;
#X obj 433 157 + 1;
#X obj 433 178 + 1;
#X obj 433 199 + 1;
#X obj 433 220 + 1;
#X obj 433 241 + 1;
#X obj 433 262 + 1;
#X obj 483 73 + 1;
#X obj 483 94 + 1;
#X obj 483 115 + 1;
#X obj 483 136 + 1;
#X obj 483 157 + 1;
#X obj 483 178 + 1;
#X obj 483 199 + 1;
#X obj 483 220 + 1;
#X obj 483 241 + 1;
#X obj 483 262 + 1;
#X text 436 291 90;
#X obj 35 29 inlet;
#X obj 483 283 outlet;
#X connect 0 0 1 0;
#X connect 1 0 2 0;
#X connect 2 0 3 0;
#X connect 3 0 4 0;
#X connect 4 0 5 0;
#X connect 5 0 6 0;
#X connect 6 0 7 0;
#X connect 7 0 8 0;
#X connect 8 0 9 0;
#X connect 9 0 10 0;
#X connect 10 0 11 0;
#X connect 11 0 12 0;
#X connect 12 0 13 0;
#X connect 13 0 14 0;
#X connect 14 0 15 0;
#X connect 15 0 16 0;
#X connect 16 0 17 0;
#X connect 17 0 18 0;
#X connect 18 0 19 0;
#X connect 19 0 21 0;
#X connect 21 0 22 0;
#X connect 22 0 23 0;
#X connect 23 0 24 0;
#X connect 24 0 25 0;
#X connect 25 0 26 0;
#X connect 26 0 27 0;
#X connect 27 0 28 0;
#X connect 28 0 29 0;
#X connect 29 0 30 0;
#X connect 30 0 31 0;
#X connect 31 0 32 0;
#X connect 32 0 33 0;
#X connect 33 0 34 0;
#X connect 34 0 35 0;
#X connect 35 0 36 0;
#X connect 36 0 37 0;
#X connect 37 0 38 0;
#X connect 38 0 39 0;
#X connect 39 0 40 0;
#X connect 40 0 41 0;
#X connect 41 0 42 0;
#X connect 42 0 43 0;
#X connect 43 0 44 0;
#X connect 44 0 45 0;
#X connect 45 0 46 0;
#X connect 46 0 47 0;
#X connect 47 0 48 0;
#X connect 48 0 49 0;
#X connect 49 0 50 0;
#X connect 50 0 51 0;
#X connect 51 0 52 0;
#X connect 52 0 53 0;
#X connect 53 0 54 0;
#X connect 54 0 55 0;
#X connect 55 0 56 0;
#X connect 56 0 57 0;
#X connect 57 0 58 0;
#X connect 58 0 59 0;
#X connect 59 0 60 0;
#X connect 60 0 61 0;
#X connect 61 0 62 0;
#X connect 62 0 63 0;
#X connect 63 0 64 0;
#X connect 64 0 65 0;
#X connect 65 0 66 0;
#X connect 66 0 67 0;
#X connect 67 0 68 0;
#X connect 68 0 69 0;
#X connect 69 0 70 0;
#X connect 70 0 71 0;
#X connect 71 0 72 0;
#X connect 72 0 73 0;
#X connect 73 0 74 0;
#X connect 74 0 75 0;
#X connect 75 0 76 0;
#X connect 76 0 77 0;
#X connect 77 0 78 0;
#X connect 78 0 79 0;
#X connect 79 0 80 0;
#X connect 80 0 84 0;
#X connect 84 0 85 0;
#X connect 85 0 86 0;
#X connect 86 0 87 0;
#X connect 87 0 88 0;
#X connect 88 0 89 0;
#X connect 89 0 90 0;
#X connect 90 0 91 0;
#X connect 91 0 92 0;
#X connect 92 0 93 0;
#X connect 93 0 94 0;
#X connect 94 0 95 0;
#X connect 95 0 96 0;
#X connect 96 0 97 0;
#X connect 97 0 98 0;
#X connect 98 0 99 0;
#X connect 99 0 100 0;
#X connect 100 0 101 0;
#X connect 101 0 102 0;
#X connect 102 0 103 0;
#X connect 103 0 106 0;
#X connect 105 0 0 0;
#X restore 43 128 pd 4_hundred_objects;
#N canvas 0 50 594 382 5_hundred_objects 0;
#X obj 35 73 + 1;
#X obj 35 94 + 1;
#X obj 35 115 + 1;
#X obj 35 136 + 1;
#X obj 35 157 + 1;
#X obj 35 178 + 1;
#X obj 35 199 + 1;
#X obj 35 220 + 1;
#X obj 35 241 + 1;
#X obj 35 262 + 1;
#X obj 85 73 + 1;
#X obj 85 94 + 1;
#X obj 85 115 + 1;
#X obj 85 136 + 1;
#X obj 85 157 + 1;
#X obj 85 178 + 1;
#X obj 85 199 + 1;
#X obj 85 220 + 1;
#X obj 85 241 + 1;
#X obj 85 262 + 1;
#X text 38 291 10;
#X obj 135 73 + 1;
#X obj 135 94 + 1;
#X obj 135 115 + 1;
#X obj 135 136 + 1;
#X obj 135 157 + 1;
#X obj 135 178 + 1;
#X obj 135 199 + 1;
#X obj 135 220 + 1;
#X obj 135 241 + 1;
#X obj 135 262 + 1;
#X obj 185 73 + 1;
#X obj 185 94 + 1;
#X obj 185 115 + 1;
#X obj 185 136 + 1;
#X obj 185 157 + 1;
#X obj 185 178 + 1;
#X obj 185 199 + 1;
#X obj 185 220 + 1;
#X obj 185 241 + 1;
#X obj 185 262 + 1;
#X obj 235 73 + 1;
#X obj 235 94 + 1;
#X obj 235 115 + 1;
#X obj 235 136 + 1;
#X obj 235 157 + 1;
#X obj 235 178 + 1;
#X obj 235 199 + 1;
#X obj 235 220 + 1;
#X obj 235 241 + 1;
#X obj 235 262 + 1;
#X obj 285 73 + 1;
#X obj 285 94 + 1;
#X obj 285 115 + 1;
#X obj 285 136 + 1;
#X obj 285 157 + 1;
#X obj 285 178 + 1;
#X obj 285 199 + 1;
#X obj 285 220 + 1;
#X obj 285 241 + 1;
#X obj 285 262 + 1;
#X obj 335 73 + 1;
#X obj 335 94 + 1;
#X obj 335 115 + 1;
#X obj 335 136 + 1;
#X obj 335 157 + 1;
#X obj 335 178 + 1;
#X obj 335 199 + 1;
#X obj 335 220 + 1;
#X obj 335 241 + 1;
#X obj 335 262 + 1;
#X obj 385 73 + 1;
#X obj 385 94 + 1;
#X obj 385 115 + 1;
#X obj 385 136 + 1;
#X obj 385 157 + 1;
#X obj 385 178 + 1;
#X obj 385 199 + 1;
#X obj 385 220 + 1;
#X obj 385 241 + 1;
#X obj 385 262 + 1;
#X text 138 291 30;
#X text 238 291 50;
#X text 338 291 70;
#X obj 433 73 + 1;
#X obj 433 94 + 1;
#X obj 433 115 + 1;
#X obj 433 136 + 1;
#X obj 433 157 + 1;
#X obj 433 178 + 1;
#X obj 433 199 + 1;
#X obj 433 220 + 1;
#X obj 433 241 + 1;
#X obj 433 262 + 1;
#X obj 483 73 + 1;
#X obj 483 94 + 1;
#X obj 483 115 + 1;
#X obj 483 136 + 1;
#X obj 483 157 + 1;
#X obj 483 178 + 1;
#X obj 483 199 + 1;
#X obj 483 220 + 1;
#X obj 483 241 + 1;
#X obj 483 262 + 1;
#X text 436 291 90;
#X obj 35 29 inlet;
#X obj 483 283 outlet;
#X connect 0 0 1 0;
#X connect 1 0 2 0;
#X connect 2 0 3 0;
#X connect 3 0 4 0;
#X connect 4 0 5 0;
#X connect 5 0 6 0;
#X connect 6 0 7 0;
#X connect 7 0 8 0;
#X connect 8 0 9 0;
#X connect 9 0 10 0;
#X connect 10 0 11 0;
#X connect 11 0 12 0;
#X connect 12 0 13 0;
#X connect 13 0 14 0;
#X connect 14 0 15 0;
#X connect 15 0 16 0;
#X connect 16 0 17 0;
#X connect 17 0 18 0;
#X connect 18 0 19 0;
#X connect 19 0 21 0;
#X connect 21 0 22 0;
#X connect 22 0 23 0;
#X connect 23 0 24 0;
#X connect 24 0 25 0;
#X connect 25 0 26 0;
#X connect 26 0 27 0;
#X connect 27 0 28 0;
#X connect 28 0 29 0;
#X connect 29 0 30 0;
#X connect 30 0 31 0;
#X connect 31 0 32 0;
#X connect 32 0 33 0;
#X connect 33 0 34 0;
#X connect 34 0 35 0;
#X connect 35 0 36 0;
#X connect 36 0 37 0;
#X connect 37 0 38 0;
#X connect 38 0 39 0;
#X connect 39 0 40 0;
#X connect 40 0 41 0;
#X connect 41 0 42 0;
#X connect 42 0 43 0;
#X connect 43 0 44 0;
#X connect 44 0 45 0;
#X connect 45 0 46 0;
#X connect 46 0 47 0;
#X connect 47 0 48 0;
#X connect 48 0 49 0;
#X connect 49 0 50 0;
#X connect 50 0 51 0;
#X connect 51 0 52 0;
#X connect 52 0 53 0;
#X connect 53 0 54 0;
#X connect 54 0 55 0;
#X connect 55 0 56 0;
#X connect 56 0 57 0;
#X connect 57 0 58 0;
#X connect 58 0 59 0;
#X connect 59 0 60 0;
#X connect 60 0 61 0;
#X connect 61 0 62 0;
#X connect 62 0 63 0;
#X connect 63 0 64 0;
#X connect 64 0 65 0;
#X connect 65 0 66 0;
#X connect 66 0 67 0;
#X connect 67 0 68 0;
#X connect 68 0 69 0;
#X connect 69 0 70 0;
#X connect 70 0 71 0;
#X connect 71 0 72 0;
#X connect 72 0 73 0;
#X connect 73 0 74 0;
#X connect 74 0 75 0;
#X connect 75 0 76 0;
#X connect 76 0 77 0;
#X connect 77 0 78 0;
#X connect 78 0 79 0;
#X connect 79 0 80 0;
#X connect 80 0 84 0;
#X connect 84 0 85 0;
#X connect 85 0 86 0;
#X connect 86 0 87 0;
#X connect 87 0 88 0;
#X connect 88 0 89 0;
#X connect 89 0 90 0;
#X connect 90 0 91 0;
#X connect 91 0 92 0;
#X connect 92 0 93 0;
#X connect 93 0 94 0;
#X connect 94 0 95 0;
#X connect 95 0 96 0;
#X connect 96 0 97 0;
#X connect 97 0 98 0;
#X connect 98 0 99 0;
#X connect 99 0 100 0;
#X connect 100 0 101 0;
#X connect 101 0 102 0;
#X connect 102 0 103 0;
#X connect 103 0 106 0;
#X connect 105 0 0 0;
#X restore 43 153 pd 5_hundred_objects;
#N canvas 0 50 594 382 6_hundred_objects 0;
#X obj 35 73 + 1;
#X obj 35 94 + 1;
#X obj 35 115 + 1;
#X obj 35 136 + 1;
#X obj 35 157 + 1;
#X obj 35 178 + 1;
#X obj 35 199 + 1;
#X obj 35 220 + 1;
#X obj 35 241 + 1;
#X obj 35 262 + 1;
#X obj 85 73 + 1;
#X obj 85 94 + 1;
#X obj 85 115 + 1;
#X obj 85 136 + 1;
#X obj 85 157 + 1;
#X obj 85 178 + 1;
#X obj 85 199 + 1;
#X obj 85 220 + 1;
#X obj 85 241 + 1;
#X obj 85 262 + 1;
#X text 38 291 10;
#X obj 135 73 + 1;
#X obj 135 94 + 1;
#X obj 135 115 + 1;
#X obj 135 136 + 1;
#X obj 135 157 + 1;
#X obj 135 178 + 1;
#X obj 135 199 + 1;
#X obj 135 220 + 1;
#X obj 135 241 + 1;
#X obj 135 262 + 1;
#X obj 185 73 + 1;
#X obj 185 94 + 1;
#X obj 185 115 + 1;
#X obj 185 136 + 1;
#X obj 185 157 + 1;
#X obj 185 178 + 1;
#X obj 185 199 + 1;
#X obj 185 220 + 1;
#X obj 185 241 + 1;
#X obj 185 262 + 1;
#X obj 235 73 + 1;
#X obj 235 94 + 1;
#X obj 235 115 + 1;
#X obj 235 136 + 1;
#X obj 235 157 + 1;
#X obj 235 178 + 1;
#X obj 235 199 + 1;
#X obj 235 220 + 1;
#X obj 235 241 + 1;
#X obj 235 262 + 1;
#X obj 285 73 + 1;
#X obj 285 94 + 1;
#X obj 285 115 + 1;
#X obj 285 136 + 1;
#X obj 285 157 + 1;
#X obj 285 178 + 1;
#X obj 285 199 + 1;
#X obj 285 220 + 1;
#X obj 285 241 + 1;
#X obj 285 262 + 1;
#X obj 335 73 + 1;
#X obj 335 94 + 1;
#X obj 335 115 + 1;
#X obj 335 136 + 1;
#X obj 335 157 + 1;
#X obj 335 178 + 1;
#X obj 335 199 + 1;
#X obj 335 220 + 1;
#X obj 335 241 + 1;
#X obj 335 262 + 1;
#X obj 385 73 + 1;
#X obj 385 94 + 1;
#X obj 385 115 + 1;
#X obj 385 136 + 1;
#X obj 385 157 + 1;
#X obj 385 178 + 1;
#X obj 385 199 + 1;
#X obj 385 220 + 1;
#X obj 385 241 + 1;
#X obj 385 262 + 1;
#X text 138 291 30;
#X text 238 291 50;
#X text 338 291 70;
#X obj 433 73 + 1;
#X obj 433 94 + 1;
#X obj 433 115 + 1;
#X obj 433 136 + 1;
#X obj 433 157 + 1;
#X obj 433 178 + 1;
#X obj 433 199 + 1;
#X obj 433 220 + 1;
#X obj 433 241 + 1;
#X obj 433 262 + 1;
#X obj 483 73 + 1;
#X obj 483 94 + 1;
#X obj 483 115 + 1;
#X obj 483 136 + 1;
#X obj 483 157 + 1;
#X obj 483 178 + 1;
#X obj 483 199 + 1;
#X obj 483 220 + 1;
#X obj 483 241 + 1;
#X obj 483 262 + 1;
#X text 436 291 90;
#X obj 35 29 inlet;
#X obj 483 283 outlet;
#X connect 0 0 1 0;
#X connect 1 0 2 0;
#X connect 2 0 3 0;
#X connect 3 0 4 0;
#X connect 4 0 5 0;
#X connect 5 0 6 0;
#X connect 6 0 7 0;
#X connect 7 0 8 0;
#X connect 8 0 9 0;
#X connect 9 0 10 0;
#X connect 10 0 11 0;
#X connect 11 0 12 0;
#X connect 12 0 13 0;
#X connect 13 0 14 0;
#X connect 14 0 15 0;
#X connect 15 0 16 0;
#X connect 16 0 17 0;
#X connect 17 0 18 0;
#X connect 18 0 19 0;
#X connect 19 0 21 0;
#X connect 21 0 22 0;
#X connect 22 0 23 0;
#X connect 23 0 24 0;
#X connect 24 0 25 0;
#X connect 25 0 26 0;
#X connect 26 0 27 0;
#X connect 27 0 28 0;
#X connect 28 0 29 0;
#X connect 29 0 30 0;
#X connect 30 0 31 0;
#X connect 31 0 32 0;
#X connect 32 0 33 0;
#X connect 33 0 34 0;
#X connect 34 0 35 0;
#X connect 35 0 36 0;
#X connect 36 0 37 0;
#X connect 37 0 38 0;
#X connect 38 0 39 0;
#X connect 39 0 40 0;
#X connect 40 0 41 0;
#X connect 41 0 42 0;
#X connect 42 0 43 0;
#X connect 43 0 44 0;
#X connect 44 0 45 0;
#X connect 45 0 46 0;
#X connect 46 0 47 0;
#X connect 47 0 48 0;
#X connect 48 0 49 0;
#X connect 49 0 50 0;
#X connect 50 0 51 0;
#X connect 51 0 52 0;
#X connect 52 0 53 0;
#X connect 53 0 54 0;
#X connect 54 0 55 0;
#X connect 55 0 56 0;
#X connect 56 0 57 0;
#X connect 57 0 58 0;
#X connect 58 0 59 0;
#X connect 59 0 60 0;
#X connect 60 0 61 0;
#X connect 61 0 62 0;
#X connect 62 0 63 0;
#X connect 63 0 64 0;
#X connect 64 0 65 0;
#X connect 65 0 66 0;
#X connect 66 0 67 0;
#X connect 67 0 68 0;
#X connect 68 0 69 0;
#X connect 69 0 70 0;
#X connect 70 0 71 0;
#X connect 71 0 72 0;
#X connect 72 0 73 0;
#X connect 73 0 74 0;
#X connect 74 0 75 0;
#X connect 75 0 76 0;
#X connect 76 0 77 0;
#X connect 77 0 78 0;
#X connect 78 0 79 0;
#X connect 79 0 80 0;
#X connect 80 0 84 0;
#X connect 84 0 85 0;
#X connect 85 0 86 0;
#X connect 86 0 87 0;
#X connect 87 0 88 0;
#X connect 88 0 89 0;
#X connect 89 0 90 0;
#X connect 90 0 91 0;
#X connect 91 0 92 0;
#X connect 92 0 93 0;
#X connect 93 0 94 0;
#X connect 94 0 95 0;
#X connect 95 0 96 0;
#X connect 96 0 97 0;
#X connect 97 0 98 0;
#X connect 98 0 99 0;
#X connect 99 0 100 0;
#X connect 100 0 101 0;
#X connect 101 0 102 0;
#X connect 102 0 103 0;
#X connect 103 0 106 0;
#X connect 105 0 0 0;
#X restore 43 178 pd 6_hundred_objects;
#N canvas 0 50 594 382 7_hundred_objects 0;
#X obj 35 73 + 1;
#X obj 35 94 + 1;
#X obj 35 115 + 1;
#X obj 35 136 + 1;
#X obj 35 157 + 1;
#X obj 35 178 + 1;
#X obj 35 199 + 1;
#X obj 35 220 + 1;
#X obj 35 241 + 1;
#X obj 35 262 + 1;
#X obj 85 73 + 1;
#X obj 85 94 + 1;
#X obj 85 115 + 1;
#X obj 85 136 + 1;
#X obj 85 157 + 1;
#X obj 85 178 + 1;
#X obj 85 199 + 1;
#X obj 85 220 + 1;
#X obj 85 241 + 1;
#X obj 85 262 + 1;
#X text 38 291 10;
#X obj 135 73 + 1;
#X obj 135 94 + 1;
#X obj 135 115 + 1;
#X obj 135 136 + 1;
#X obj 135 157 + 1;
#X obj 135 178 + 1;
#X obj 135 199 + 1;
#X obj 135 220 + 1;
#X obj 135 241 + 1;
#X obj 135 262 + 1;
#X obj 185 73 + 1;
#X obj 185 94 + 1;
#X obj 185 115 + 1;
#X obj 185 136 + 1;
#X obj 185 157 + 1;
#X obj 185 178 + 1;
#X obj 185 199 + 1;
#X obj 185 220 + 1;
#X obj 185 241 + 1;
#X obj 185 262 + 1;
#X obj 235 73 + 1;
#X obj 235 94 + 1;
#X obj 235 115 + 1;
#X obj 235 136 + 1;
#X obj 235 157 + 1;
#X obj 235 178 + 1;
#X obj 235 199 + 1;
#X obj 235 220 + 1;
#X obj 235 241 + 1;
#X obj 235 262 + 1;
#X obj 285 73 + 1;
#X obj 285 94 + 1;
#X obj 285 115 + 1;
#X obj 285 136 + 1;
#X obj 285 157 + 1;
#X obj 285 178 + 1;
#X obj 285 199 + 1;
#X obj 285 220 + 1;
#X obj 285 241 + 1;
#X obj 285 262 + 1;
#X obj 335 73 + 1;
#X obj 335 94 + 1;
#X obj 335 115 + 1;
#X obj 335 136 + 1;
#X obj 335 157 + 1;
#X obj 335 178 + 1;
#X obj 335 199 + 1;
#X obj 335 220 + 1;
#X obj 335 241 + 1;
#X obj 335 262 + 1;
#X obj 385 73 + 1;
#X obj 385 94 + 1;
#X obj 385 115 + 1;
#X obj 385 136 + 1;
#X obj 385 157 + 1;
#X obj 385 178 + 1;
#X obj 385 199 + 1;
#X obj 385 220 + 1;
#X obj 385 241 + 1;
#X obj 385 262 + 1;
#X text 138 291 30;
#X text 238 291 50;
#X text 338 291 70;
#X obj 433 73 + 1;
#X obj 433 94 + 1;
#X obj 433 115 + 1;
#X obj 433 136 + 1;
#X obj 433 157 + 1;
#X obj 433 178 + 1;
#X obj 433 199 + 1;
#X obj 433 220 + 1;
#X obj 433 241 + 1;
#X obj 433 262 + 1;
#X obj 483 73 + 1;
#X obj 483 94 + 1;
#X obj 483 115 + 1;
#X obj 483 136 + 1;
#X obj 483 157 + 1;
#X obj 483 178 + 1;
#X obj 483 199 + 1;
#X obj 483 220 + 1;
#X obj 483 241 + 1;
#X obj 483 262 + 1;
#X text 436 291 90;
#X obj 35 29 inlet;
#X obj 483 283 outlet;
#X connect 0 0 1 0;
#X connect 1 0 2 0;
#X connect 2 0 3 0;
#X connect 3 0 4 0;
#X connect 4 0 5 0;
#X connect 5 0 6 0;
#X connect 6 0 7 0;
#X connect 7 0 8 0;
#X connect 8 0 9 0;
#X connect 9 0 10 0;
#X connect 10 0 11 0;
#X connect 11 0 12 0;
#X connect 12 0 13 0;
#X connect 13 0 14 0;
#X connect 14 0 15 0;
#X connect 15 0 16 0;
#X connect 16 0 17 0;
#X connect 17 0 18 0;
#X connect 18 0 19 0;
#X connect 19 0 21 0;
#X connect 21 0 22 0;
#X connect 22 0 23 0;
#X connect 23 0 24 0;
#X connect 24 0 25 0;
#X connect 25 0 26 0;
#X connect 26 0 27 0;
#X connect 27 0 28 0;
#X connect 28 0 29 0;
#X connect 29 0 30 0;
#X connect 30 0 31 0;
#X connect 31 0 32 0;
#X connect 32 0 33 0;
#X connect 33 0 34 0;
#X connect 34 0 35 0;
#X connect 35 0 36 0;
#X connect 36 0 37 0;
#X connect 37 0 38 0;
#X connect 38 0 39 0;
#X connect 39 0 40 0;
#X connect 40 0 41 0;
#X connect 41 0 42 0;
#X connect 42 0 43 0;
#X connect 43 0 44 0;
#X connect 44 0 45 0;
#X connect 45 0 46 0;
#X connect 46 0 47 0;
#X connect 47 0 48 0;
#X connect 48 0 49 0;
#X connect 49 0 50 0;
#X connect 50 0 51 0;
#X connect 51 0 52 0;
#X connect 52 0 53 0;
#X connect 53 0 54 0;
#X connect 54 0 55 0;
#X connect 55 0 56 0;
#X connect 56 0 57 0;
#X connect 57 0 58 0;
#X connect 58 0 59 0;
#X connect 59 0 60 0;
#X connect 60 0 61 0;
#X connect 61 0 62 0;
#X connect 62 0 63 0;
#X connect 63 0 64 0;
#X connect 64 0 65 0;
#X connect 65 0 66 0;
#X connect 66 0 67 0;
#X connect 67 0 68 0;
#X connect 68 0 69 0;
#X connect 69 0 70 0;
#X connect 70 0 71 0;
#X connect 71 0 72 0;
#X connect 72 0 73 0;
#X connect 73 0 74 0;
#X connect 74 0 75 0;
#X connect 75 0 76 0;
#X connect 76 0 77 0;
#X connect 77 0 78 0;
#X connect 78 0 79 0;
#X connect 79 0 80 0;
#X connect 80 0 84 0;
#X connect 84 0 85 0;
#X connect 85 0 86 0;
#X connect 86 0 87 0;
#X connect 87 0 88 0;
#X connect 88 0 89 0;
#X connect 89 0 90 0;
#X connect 90 0 91 0;
#X connect 91 0 92 0;
#X connect 92 0 93 0;
#X connect 93 0 94 0;
#X connect 94 0 95 0;
#X connect 95 0 96 0;
#X connect 96 0 97 0;
#X connect 97 0 98 0;
#X connect 98 0 99 0;
#X connect 99 0 100 0;
#X connect 100 0 101 0;
#X connect 101 0 102 0;
#X connect 102 0 103 0;
#X connect 103 0 106 0;
#X connect 105 0 0 0;
#X restore 43 203 pd 7_hundred_objects;
#N canvas 0 50 594 382 8_hundred_objects 0;
#X obj 35 73 + 1;
#X obj 35 94 + 1;
#X obj 35 115 + 1;
#X obj 35 136 + 1;
#X obj 35 157 + 1;
#X obj 35 178 + 1;
#X obj 35 199 + 1;
#X obj 35 220 + 1;
#X obj 35 241 + 1;
#X obj 35 262 + 1;
#X obj 85 73 + 1;
#X obj 85 94 + 1;
#X obj 85 115 + 1;
#X obj 85 136 + 1;
#X obj 85 157 + 1;
#X obj 85 178 + 1;
#X obj 85 199 + 1;
#X obj 85 220 + 1;
#X obj 85 241 + 1;
#X obj 85 262 + 1;
#X text 38 291 10;
#X obj 135 73 + 1;
#X obj 135 94 + 1;
#X obj 135 115 + 1;
#X obj 135 136 + 1;
#X obj 135 157 + 1;
#X obj 135 178 + 1;
#X obj 135 199 + 1;
#X obj 135 220 + 1;
#X obj 135 241 + 1;
#X obj 135 262 + 1;
#X obj 185 73 + 1;
#X obj 185 94 + 1;
#X obj 185 115 + 1;
#X obj 185 136 + 1;
#X obj 185 157 + 1;
#X obj 185 178 + 1;
#X obj 185 199 + 1;
#X obj 185 220 + 1;
#X obj 185 241 + 1;
#X obj 185 262 + 1;
#X obj 235 73 + 1;
#X obj 235 94 + 1;
#X obj 235 115 + 1;
#X obj 235 136 + 1;
#X obj 235 157 + 1;
#X obj 235 178 + 1;
#X obj 235 199 + 1;
#X obj 235 220 + 1;
#X obj 235 241 + 1;
#X obj 235 262 + 1;
#X obj 285 73 + 1;
#X obj 285 94 + 1;
#X obj 285 115 + 1;
#X obj 285 136 + 1;
#X obj 285 157 + 1;
#X obj 285 178 + 1;
#X obj 285 199 + 1;
#X obj 285 220 + 1;
#X obj 285 241 + 1;
#X obj 285 262 + 1;
#X obj 335 73 + 1;
#X obj 335 94 + 1;
#X obj 335 115 + 1;
#X obj 335 136 + 1;
#X obj 335 157 + 1;
#X obj 335 178 + 1;
#X obj 335 199 + 1;
#X obj 335 220 + 1;
#X obj 335 241 + 1;
#X obj 335 262 + 1;
#X obj 385 73 + 1;
#X obj 385 94 + 1;
#X obj 385 115 + 1;
#X obj 385 136 + 1;
#X obj 385 157 + 1;
#X obj 385 178 + 1;
#X obj 385 199 + 1;
#X obj 385 220 + 1;
#X obj 385 241 + 1;
#X obj 385 262 + 1;
#X text 138 291 30;
#X text 238 291 50;
#X text 338 291 70;
#X obj 433 73 + 1;
#X obj 433 94 + 1;
#X obj 433 115 + 1;
#X obj 433 136 + 1;
#X obj 433 157 + 1;
#X obj 433 178 + 1;
#X obj 433 199 + 1;
#X obj 433 220 + 1;
#X obj 433 241 + 1;
#X obj 433 262 + 1;
#X obj 483 73 + 1;
#X obj 483 94 + 1;
#X obj 483 115 + 1;
#X obj 483 136 + 1;
#X obj 483 157 + 1;
#X obj 483 178 + 1;
#X obj 483 199 + 1;
#X obj 483 220 + 1;
#X obj 483 241 + 1;
#X obj 483 262 + 1;
#X text 436 291 90;
#X obj 35 29 inlet;
#X obj 483 283 outlet;
#X connect 0 0 1 0;
#X connect 1 0 2 0;
#X connect 2 0 3 0;
#X connect 3 0 4 0;
#X connect 4 0 5 0;
#X connect 5 0 6 0;
#X connect 6 0 7 0;
#X connect 7 0 8 0;
#X connect 8 0 9 0;
#X connect 9 0 10 0;
#X connect 10 0 11 0;
#X connect 11 0 12 0;
#X connect 12 0 13 0;
#X connect 13 0 14 0;
#X connect 14 0 15 0;
#X connect 15 0 16 0;
#X connect 16 0 17 0;
#X connect 17 0 18 0;
#X connect 18 0 19 0;
#X connect 19 0 21 0;
#X connect 21 0 22 0;
#X connect 22 0 23 0;
#X connect 23 0 24 0;
#X connect 24 0 25 0;
#X connect 25 0 26 0;
#X connect 26 0 27 0;
#X connect 27 0 28 0;
#X connect 28 0 29 0;
#X connect 29 0 30 0;
#X connect 30 0 31 0;
#X connect 31 0 32 0;
#X connect 32 0 33 0;
#X connect 33 0 34 0;
#X connect 34 0 35 0;
#X connect 35 0 36 0;
#X connect 36 0 37 0;
#X connect 37 0 38 0;
#X connect 38 0 39 0;
#X connect 39 0 40 0;
#X connect 40 0 41 0;
#X connect 41 0 42 0;
#X connect 42 0 43 0;
#X connect 43 0 44 0;
#X connect 44 0 45 0;
#X connect 45 0 46 0;
#X connect 46 0 47 0;
#X connect 47 0 48 0;
#X connect 48 0 49 0;
#X connect 49 0 50 0;
#X connect 50 0 51 0;
#X connect 51 0 52 0;
#X connect 52 0 53 0;
#X connect 53 0 54 0;
#X connect 54 0 55 0;
#X connect 55 0 56 0;
#X connect 56 0 57 0;
#X connect 57 0 58 0;
#X connect 58 0 59 0;
#X connect 59 0 60 0;
#X connect 60 0 61 0;
#X connect 61 0 62 0;
#X connect 62 0 63 0;
#X connect 63 0 64 0;
#X connect 64 0 65 0;
#X connect 65 0 66 0;
#X connect 66 0 67 0;
#X connect 67 0 68 0;
#X connect 68 0 69 0;
#X connect 69 0 70 0;
#X connect 70 0 71 0;
#X connect 71 0 72 0;
#X connect 72 0 73 0;
#X connect 73 0 74 0;
#X connect 74 0 75 0;
#X connect 75 0 76 0;
#X connect 76 0 77 0;
#X connect 77 0 78 0;
#X connect 78 0 79 0;
#X connect 79 0 80 0;
#X connect 80 0 84 0;
#X connect 84 0 85 0;
#X connect 85 0 86 0;
#X connect 86 0 87 0;
#X connect 87 0 88 0;
#X connect 88 0 89 0;
#X connect 89 0 90 0;
#X connect 90 0 91 0;
#X connect 91 0 92 0;
#X connect 92 0 93 0;
#X connect 93 0 94 0;
#X connect 94 0 95 0;
#X connect 95 0 96 0;
#X connect 96 0 97 0;
#X connect 97 0 98 0;
#X connect 98 0 99 0;
#X connect 99 0 100 0;
#X connect 100 0 101 0;
#X connect 101 0 102 0;
#X connect 102 0 103 0;
#X connect 103 0 106 0;
#X connect 105 0 0 0;
#X restore 43 228 pd 8_hundred_objects;
#N canvas 0 50 594 382 9_hundred_objects 0;
#X obj 35 73 + 1;
#X obj 35 94 + 1;
#X obj 35 115 + 1;
#X obj 35 136 + 1;
#X obj 35 157 + 1;
#X obj 35 178 + 1;
#X obj 35 199 + 1;
#X obj 35 220 + 1;
#X obj 35 241 + 1;
#X obj 35 262 + 1;
#X obj 85 73 + 1;
#X obj 85 94 + 1;
#X obj 85 115 + 1;
#X obj 85 136 + 1;
#X obj 85 157 + 1;
#X obj 85 178 + 1;
#X obj 85 199 + 1;
#X obj 85 220 + 1;
#X obj 85 241 + 1;
#X obj 85 262 + 1;
#X text 38 291 10;
#X obj 135 73 + 1;
#X obj 135 94 + 1;
#X obj 135 115 + 1;
#X obj 135 136 + 1;
#X obj 135 157 + 1;
#X obj 135 178 + 1;
#X obj 135 199 + 1;
#X obj 135 220 + 1;
#X obj 135 241 + 1;
#X obj 135 262 + 1;
#X obj 185 73 + 1;
#X obj 185 94 + 1;
#X obj 185 115 + 1;
#X obj 185 136 + 1;
#X obj 185 157 + 1;
#X obj 185 178 + 1;
#X obj 185 199 + 1;
#X obj 185 220 + 1;
#X obj 185 241 + 1;
#X obj 185 262 + 1;
#X obj 235 73 + 1;
#X obj 235 94 + 1;
#X obj 235 115 + 1;
#X obj 235 136 + 1;
#X obj 235 157 + 1;
#X obj 235 178 + 1;
#X obj 235 199 + 1;
#X obj 235 220 + 1;
#X obj 235 241 + 1;
#X obj 235 262 + 1;
#X obj 285 73 + 1;
#X obj 285 94 + 1;
#X obj 285 115 + 1;
#X obj 285 136 + 1;
#X obj 285 157 + 1;
#X obj 285 178 + 1;
#X obj 285 199 + 1;
#X obj 285 220 + 1;
#X obj 285 241 + 1;
#X obj 285 262 + 1;
#X obj 335 73 + 1;
#X obj 335 94 + 1;
#X obj 335 115 + 1;
#X obj 335 136 + 1;
#X obj 335 157 + 1;
#X obj 335 178 + 1;
#X obj 335 199 + 1;
#X obj 335 220 + 1;
#X obj 335 241 + 1;
#X obj 335 262 + 1;
#X obj 385 73 + 1;
#X obj 385 94 + 1;
#X obj 385 115 + 1;
#X obj 385 136 + 1;
#X obj 385 157 + 1;
#X obj 385 178 + 1;
#X obj 385 199 + 1;
#X obj 385 220 + 1;
#X obj 385 241 + 1;
#X obj 385 262 + 1;
#X text 138 291 30;
#X text 238 291 50;
#X text 338 291 70;
#X obj 433 73 + 1;
#X obj 433 94 + 1;
#X obj 433 115 + 1;
#X obj 433 136 + 1;
#X obj 433 157 + 1;
#X obj 433 178 + 1;
#X obj 433 199 + 1;
#X obj 433 220 + 1;
#X obj 433 241 + 1;
#X obj 433 262 + 1;
#X obj 483 73 + 1;
#X obj 483 94 + 1;
#X obj 483 115 + 1;
#X obj 483 136 + 1;
#X obj 483 157 + 1;
#X obj 483 178 + 1;
#X obj 483 199 + 1;
#X obj 483 220 + 1;
#X obj 483 241 + 1;
#X obj 483 262 + 1;
#X text 436 291 90;
#X obj 35 29 inlet;
#X obj 483 283 outlet;
#X connect 0 0 1 0;
#X connect 1 0 2 0;
#X connect 2 0 3 0;
#X connect 3 0 4 0;
#X connect 4 0 5 0;
#X connect 5 0 6 0;
#X connect 6 0 7 0;
#X connect 7 0 8 0;
#X connect 8 0 9 0;
#X connect 9 0 10 0;
#X connect 10 0 11 0;
#X connect 11 0 12 0;
#X connect 12 0 13 0;
#X connect 13 0 14 0;
#X connect 14 0 15 0;
#X connect 15 0 16 0;
#X connect 16 0 17 0;
#X connect 17 0 18 0;
#X connect 18 0 19 0;
#X connect 19 0 21 0;
#X connect 21 0 22 0;
#X connect 22 0 23 0;
#X connect 23 0 24 0;
#X connect 24 0 25 0;
#X connect 25 0 26 0;
#X connect 26 0 27 0;
#X connect 27 0 28 0;
#X connect 28 0 29 0;
#X connect 29 0 30 0;
#X connect 30 0 31 0;
#X connect 31 0 32 0;
#X connect 32 0 33 0;
#X connect 33 0 34 0;
#X connect 34 0 35 0;
#X connect 35 0 36 0;
#X connect 36 0 37 0;
#X connect 37 0 38 0;
#X connect 38 0 39 0;
#X connect 39 0 40 0;
#X connect 40 0 41 0;
#X connect 41 0 42 0;
#X connect 42 0 43 0;
#X connect 43 0 44 0;
#X connect 44 0 45 0;
#X connect 45 0 46 0;
#X connect 46 0 47 0;
#X connect 47 0 48 0;
#X connect 48 0 49 0;
#X connect 49 0 50 0;
#X connect 50 0 51 0;
#X connect 51 0 52 0;
#X connect 52 0 53 0;
#X connect 53 0 54 0;
#X connect 54 0 55 0;
#X connect 55 0 56 0;
#X connect 56 0 57 0;
#X connect 57 0 58 0;
#X connect 58 0 59 0;
#X connect 59 0 60 0;
#X connect 60 0 61 0;
#X connect 61 0 62 0;
#X connect 62 0 63 0;
#X connect 63 0 64 0;
#X connect 64 0 65 0;
#X connect 65 0 66 0;
#X connect 66 0 67 0;
#X connect 67 0 68 0;
#X connect 68 0 69 0;
#X connect 69 0 70 0;
#X connect 70 0 71 0;
#X connect 71 0 72 0;
#X connect 72 0 73 0;
#X connect 73 0 74 0;
#X connect 74 0 75 0;
#X connect 75 0 76 0;
#X connect 76 0 77 0;
#X connect 77 0 78 0;
#X connect 78 0 79 0;
#X connect 79 0 80 0;
#X connect 80 0 84 0;
#X connect 84 0 85 0;
#X connect 85 0 86 0;
#X connect 86 0 87 0;
#X connect 87 0 88 0;
#X connect 88 0 89 0;
#X connect 89 0 90 0;
#X connect 90 0 91 0;
#X connect 91 0 92 0;
#X connect 92 0 93 0;
#X connect 93 0 94 0;
#X connect 94 0 95 0;
#X connect 95 0 96 0;
#X connect 96 0 97 0;
#X connect 97 0 98 0;
#X connect 98 0 99 0;
#X connect 99 0 100 0;
#X connect 100 0 101 0;
#X connect 101 0 102 0;
#X connect 102 0 103 0;
#X connect 103 0 106 0;
#X connect 105 0 0 0;
#X restore 43 253 pd 9_hundred_objects;
#N canvas 241 438 594 382 a_thousand_objects 0;
#X obj 35 73 + 1;
#X obj 35 94 + 1;
#X obj 35 115 + 1;
#X obj 35 136 + 1;
#X obj 35 157 + 1;
#X obj 35 178 + 1;
#X obj 35 199 + 1;
#X obj 35 220 + 1;
#X obj 35 241 + 1;
#X obj 35 262 + 1;
#X obj 85 73 + 1;
#X obj 85 94 + 1;
#X obj 85 115 + 1;
#X obj 85 136 + 1;
#X obj 85 157 + 1;
#X obj 85 178 + 1;
#X obj 85 199 + 1;
#X obj 85 220 + 1;
#X obj 85 241 + 1;
#X obj 85 262 + 1;
#X text 38 291 10;
#X obj 135 73 + 1;
#X obj 135 94 + 1;
#X obj 135 115 + 1;
#X obj 135 136 + 1;
#X obj 135 157 + 1;
#X obj 135 178 + 1;
#X obj 135 199 + 1;
#X obj 135 220 + 1;
#X obj 135 241 + 1;
#X obj 135 262 + 1;
#X obj 185 73 + 1;
#X obj 185 94 + 1;
#X obj 185 115 + 1;
#X obj 185 136 + 1;
#X obj 185 157 + 1;
#X obj 185 178 + 1;
#X obj 185 199 + 1;
#X obj 185 220 + 1;
#X obj 185 241 + 1;
#X obj 185 262 + 1;
#X obj 235 73 + 1;
#X obj 235 94 + 1;
#X obj 235 115 + 1;
#X obj 235 136 + 1;
#X obj 235 157 + 1;
#X obj 235 178 + 1;
#X obj 235 199 + 1;
#X obj 235 220 + 1;
#X obj 235 241 + 1;
#X obj 235 262 + 1;
#X obj 285 73 + 1;
#X obj 285 94 + 1;
#X obj 285 115 + 1;
#X obj 285 136 + 1;
#X obj 285 157 + 1;
#X obj 285 178 + 1;
#X obj 285 199 + 1;
#X obj 285 220 + 1;
#X obj 285 241 + 1;
#X obj 285 262 + 1;
#X obj 335 73 + 1;
#X obj 335 94 + 1;
#X obj 335 115 + 1;
#X obj 335 136 + 1;
#X obj 335 157 + 1;
#X obj 335 178 + 1;
#X obj 335 199 + 1;
#X obj 335 220 + 1;
#X obj 335 241 + 1;
#X obj 335 262 + 1;
#X obj 385 73 + 1;
#X obj 385 94 + 1;
#X obj 385 115 + 1;
#X obj 385 136 + 1;
#X obj 385 157 + 1;
#X obj 385 178 + 1;
#X obj 385 199 + 1;
#X obj 385 220 + 1;
#X obj 385 241 + 1;
#X obj 385 262 + 1;
#X text 138 291 30;
#X text 238 291 50;
#X text 338 291 70;
#X obj 433 73 + 1;
#X obj 433 94 + 1;
#X obj 433 115 + 1;
#X obj 433 136 + 1;
#X obj 433 157 + 1;
#X obj 433 178 + 1;
#X obj 433 199 + 1;
#X obj 433 220 + 1;
#X obj 433 241 + 1;
#X obj 433 262 + 1;
#X obj 483 73 + 1;
#X obj 483 94 + 1;
#X obj 483 115 + 1;
#X obj 483 136 + 1;
#X obj 483 157 + 1;
#X obj 483 178 + 1;
#X obj 483 199 + 1;
#X obj 483 220 + 1;
#X obj 483 241 + 1;
#X obj 483 262 + 1;
#X text 436 291 90;
#X obj 35 29 inlet;
#X obj 483 283 outlet;
#X connect 0 0 1 0;
#X connect 1 0 2 0;
#X connect 2 0 3 0;
#X connect 3 0 4 0;
#X connect 4 0 5 0;
#X connect 5 0 6 0;
#X connect 6 0 7 0;
#X connect 7 0 8 0;
#X connect 8 0 9 0;
#X connect 9 0 10 0;
#X connect 10 0 11 0;
#X connect 11 0 12 0;
#X connect 12 0 13 0;
#X connect 13 0 14 0;
#X connect 14 0 15 0;
#X connect 15 0 16 0;
#X connect 16 0 17 0;
#X connect 17 0 18 0;
#X connect 18 0 19 0;
#X connect 19 0 21 0;
#X connect 21 0 22 0;
#X connect 22 0 23 0;
#X connect 23 0 24 0;
#X connect 24 0 25 0;
#X connect 25 0 26 0;
#X connect 26 0 27 0;
#X connect 27 0 28 0;
#X connect 28 0 29 0;
#X connect 29 0 30 0;
#X connect 30 0 31 0;
#X connect 31 0 32 0;
#X connect 32 0 33 0;
#X connect 33 0 34 0;
#X connect 34 0 35 0;
#X connect 35 0 36 0;
#X connect 36 0 37 0;
#X connect 37 0 38 0;
#X connect 38 0 39 0;
#X connect 39 0 40 0;
#X connect 40 0 41 0;
#X connect 41 0 42 0;
#X connect 42 0 43 0;
#X connect 43 0 44 0;
#X connect 44 0 45 0;
#X connect 45 0 46 0;
#X connect 46 0 47 0;
#X connect 47 0 48 0;
#X connect 48 0 49 0;
#X connect 49 0 50 0;
#X connect 50 0 51 0;
#X connect 51 0 52 0;
#X connect 52 0 53 0;
#X connect 53 0 54 0;
#X connect 54 0 55 0;
#X connect 55 0 56 0;
#X connect 56 0 57 0;
#X connect 57 0 58 0;
#X connect 58 0 59 0;
#X connect 59 0 60 0;
#X connect 60 0 61 0;
#X connect 61 0 62 0;
#X connect 62 0 63 0;
#X connect 63 0 64 0;
#X connect 64 0 65 0;
#X connect 65 0 66 0;
#X connect 66 0 67 0;
#X connect 67 0 68 0;
#X connect 68 0 69 0;
#X connect 69 0 70 0;
#X connect 70 0 71 0;
#X connect 71 0 72 0;
#X connect 72 0 73 0;
#X connect 73 0 74 0;
#X connect 74 0 75 0;
#X connect 75 0 76 0;
#X connect 76 0 77 0;
#X connect 77 0 78 0;
#X connect 78 0 79 0;
#X connect 79 0 80 0;
#X connect 80 0 84 0;
#X connect 84 0 85 0;
#X connect 85 0 86 0;
#X connect 86 0 87 0;
#X connect 87 0 88 0;
#X connect 88 0 89 0;
#X connect 89 0 90 0;
#X connect 90 0 91 0;
#X connect 91 0 92 0;
#X connect 92 0 93 0;
#X connect 93 0 94 0;
#X connect 94 0 95 0;
#X connect 95 0 96 0;
#X connect 96 0 97 0;
#X connect 97 0 98 0;
#X connect 98 0 99 0;
#X connect 99 0 100 0;
#X connect 100 0 101 0;
#X connect 101 0 102 0;
#X connect 102 0 103 0;
#X connect 103 0 106 0;
#X connect 105 0 0 0;
#X restore 43 278 pd a_thousand_objects;
#X obj 43 28 inlet;
#X obj 43 303 outlet;
#X connect 0 0 1 0;
#X connect 1 0 2 0;
#X connect 2 0 3 0;
#X connect 3 0 4 0;
#X connect 4 0 5 0;
#X connect 5 0 6 0;
#X connect 6 0 7 0;
#X connect 7 0 8 0;
#X connect 8 0 9 0;
#X connect 9 0 11 0;
#X connect 10 0 0 0;
#X restore 124 144 pd a very long chain of objects;
#X msg 124 116 0;
#X floatatom 124 171 5 0 0 0 - - -;
#X text 15 36 Note: Pd does not detect infinite loops in your patches.
It simply updates this count every time data passes through an object.
Consequently \, a chain of 1000+ objects without loops will still raise
a "stack overflow" error.;
#X connect 0 0 2 0;
#X connect 1 0 0 0;
#X restore 535 599 pd stack overflow without looping;
#X text 475 516 Try increasing the max stack depth to get the 201-indexed
number., f 60;
#N canvas 910 215 614 340 max 0;
#X msg 226 110 0;
#X floatatom 226 136 5 0 0 0 - - -;
#X obj 286 110 t f f;
#X obj 286 136 + 1;
#X obj 286 161 t f;
#X floatatom 318 186 5 0 0 0 - - -;
#X msg 35 225 \; pd stackdepth 1000;
#X msg 285 271 \; pd stackdepth;
#X msg 35 271 \; pd stackdepth 10000;
#X msg 419 110 0;
#X floatatom 419 136 5 0 0 0 - - -;
#X obj 485 110 t f f;
#X floatatom 517 186 5 0 0 0 - - -;
#X obj 485 136 + 1;
#X obj 485 161 t f;
#X obj 485 186 t f;
#X msg 29 110 0;
#X floatatom 29 136 5 0 0 0 - - -;
#X obj 88 110 t f f;
#X obj 88 136 + 1;
#X floatatom 120 186 5 0 0 0 - - -;
#X text 183 233 default value;
#X text 396 279 print value;
#X text 183 278 increase;
#X text 24 81 3 levels: stackdepth / 3;
#X text 220 81 4 levels: stackdepth / 4;
#X text 414 81 5 levels: stackdepth / 5;
#X text 21 22 The maximum number of recursions before a "stack overflow"
error is dependant on the number of objects in the recursion loop.
, f 80;
#X connect 0 0 1 0;
#X connect 1 0 2 0;
#X connect 2 0 3 0;
#X connect 2 1 5 0;
#X connect 3 0 4 0;
#X connect 4 0 1 0;
#X connect 9 0 10 0;
#X connect 10 0 11 0;
#X connect 11 0 13 0;
#X connect 11 1 12 0;
#X connect 13 0 14 0;
#X connect 14 0 15 0;
#X connect 15 0 10 0;
#X connect 16 0 17 0;
#X connect 17 0 18 0;
#X connect 18 0 19 0;
#X connect 18 1 20 0;
#X connect 19 0 17 0;
#X restore 535 569 pd max recursion depth;
#X text 475 448 There are 5 objects in the Fibonacci recursion loop
\, so each recursion increases the stack level by 5 times. With the
default stack depth of 1000 \, the highest index that can be computed
without a "stack overflow" error is: 1000/5 = 200;
#X text 11 13 Recursion using circular patch loops;
#X text 477 636 Note: Setting the stack depth too high (ie. 2e9) may
lead to hard crashes if Pd consumes too much process stack memory than
the operating system allows. Use with caution!;
#X text 474 11 Stack depth;
#X text 771 700 added for Pd 0.50.;
#X connect 1 0 12 0;
#X connect 2 0 27 0;
#X connect 2 1 9 0;
#X connect 3 0 4 0;
#X connect 4 0 18 0;
#X connect 5 0 26 0;
#X connect 5 1 7 0;
#X connect 6 0 8 1;
#X connect 7 0 6 1;
#X connect 8 0 5 0;
#X connect 9 0 8 0;
#X connect 9 1 3 0;
#X connect 10 0 6 0;
#X connect 10 1 11 1;
#X connect 11 0 13 0;
#X connect 12 0 11 0;
#X connect 12 1 18 0;
#X connect 14 0 1 0;
#X connect 15 0 16 0;
#X connect 16 0 1 0;
#X connect 18 0 2 0;
#X connect 24 0 1 0;
#X connect 25 0 8 1;
#X connect 25 1 28 0;
#X connect 26 0 10 0;
#X connect 27 0 25 0;
#X connect 28 0 11 1;
#X connect 37 0 40 0;
#X connect 38 0 40 0;
#X connect 40 0 41 0;
#X connect 43 0 42 0;
#X connect 46 0 48 0;
#X connect 47 0 46 0;
#X connect 48 1 47 0;
